M48
;GenerationSoftware,Autodesk,EAGLE,9.7.0*%
;CreationDate,2024-10-19T17:46:27Z*%
FMAT,2
ICI,OFF
METRIC,TZ,000.000
T5C0.200
T4C0.300
T3C0.350
T2C0.600
T1C1.016
%
G90
M71
T1
X-31750Y36270
X-31242Y16637
X-31750Y33730
X-24130Y38810
X-26670Y33730
X-29210Y36270
X-33782Y16637
X-29210Y33730
X-26670Y36270
X-24130Y33730
X-24130Y36270
X-21590Y33730
X-21590Y36270
X-19050Y33730
X-19050Y36270
X-16510Y33730
X-16510Y36270
X-13970Y33730
X-13970Y36270
X-11430Y33730
X-11430Y36270
X-8890Y33730
X-8890Y36270
X-6350Y33730
X-6350Y36270
X-3810Y33730
X-3810Y36270
X-1270Y33730
X-1270Y36270
X1270Y33730
X1270Y36270
X3810Y33730
X3810Y36270
X6350Y33730
X6350Y36270
X8890Y33730
X8890Y36270
X11430Y33730
X11430Y36270
X13970Y33730
X13970Y36270
X16510Y33730
X16510Y36270
X19050Y33730
X19050Y36270
X21590Y33730
X21590Y36270
X24130Y33730
X24130Y36270
X26670Y33730
X26670Y36270
X29210Y33730
X29210Y36270
X31750Y33730
X31750Y36270
X-31750Y38810
X-31750Y41350
X-29210Y38810
X-29210Y41350
X-26670Y38810
X-26670Y41350
X-24130Y41350
X-21590Y38810
X-21590Y41350
X-19050Y38810
X-19050Y41350
X-16510Y38810
X-16510Y41350
X-13970Y38810
X-13970Y41350
X-11430Y38810
X-11430Y41350
X-8890Y38810
X-8890Y41350
X-6350Y38810
X-6350Y41350
X-3810Y38810
X-3810Y41350
X-1270Y38810
X-1270Y41350
X1270Y38810
X1270Y41350
X3810Y38810
X3810Y41350
X6350Y38810
X6350Y41350
X8890Y38810
X8890Y41350
X11430Y38810
X11430Y41350
X13970Y38810
X13970Y41350
X16510Y38810
X16510Y41350
X19050Y38810
X19050Y41350
X21590Y38810
X21590Y41350
X24130Y38810
X24130Y41350
X26670Y38810
X26670Y41350
X29210Y38810
X29210Y41350
X31750Y38810
X31750Y41350
T2
X-2540Y-1690
X-1051Y-1690
T3
X12700Y-28321
X14605Y-28448
X12573Y-23114
X-13589Y-10033
X-12954Y-10795
X-11430Y-10287
X-6096Y10414
X508Y-10668
X-25654Y23114
X-11684Y11811
X-22987Y7620
X8636Y13462
X-14478Y30734
X-26924Y30988
X4318Y1086
X12573Y-29845
X-23622Y30861
X254Y18796
X14224Y-381
X9525Y5207
X-13589Y-5715
X8382Y-25781
X22225Y-7366
X19558Y-3556
X2794Y-27305
X-20514Y-22860
X-38354Y-25273
X-26543Y-26797
X-38354Y-26670
X14097Y-9387
X-35941Y-10287
X-35941Y-15621
X-35941Y4572
X-35814Y9271
X33655Y11176
X33528Y4953
X34163Y26289
X34036Y20066
X34544Y-11938
X34544Y-17526
X-19558Y-4826
X-8890Y22860
X3937Y18288
X8763Y12446
X14732Y11811
X26162Y-25146
X26162Y-26416
X40640Y-26289
X40640Y-25019
X40640Y-27559
X26162Y-27559
X26162Y-28702
X40640Y-28575
X27559Y-25146
X27559Y-26416
X27559Y-27559
X39370Y-25019
X39370Y-26289
X39370Y-27559
X12700Y6477
X14224Y6477
X16891Y6477
X17399Y7620
X15621Y6477
X-1270Y3810
X12700Y5207
X14224Y5334
X15621Y5334
X16891Y5334
X361Y17653
X4318Y11557
X-127Y9525
X2540Y7620
X20122Y11628
X-20066Y-21082
X-18542Y-22733
X10399Y5842
X3429Y8255
X20828Y13081
X10922Y6604
X8890Y16510
X8763Y14859
X11176Y16383
X12573Y15875
X11430Y21082
X11557Y18796
X10160Y15113
X24638Y22860
X26416Y22860
X25019Y21590
X26162Y21717
X-1651Y11024
X-5588Y12573
X-1397Y10008
X-39370Y23368
X-39370Y20193
X-39370Y21844
X-37846Y21844
X-37846Y20193
X-22479Y-42926
X-23622Y3048
X7366Y-27178
X-19431Y-10795
X-28702Y-43561
X-41910Y11430
X16510Y-43561
X-5969Y-17653
X5842Y-28956
X25400Y-9652
X-32639Y13970
X-26416Y5588
X4699Y-14097
X-2794Y-26162
X-23368Y-6604
X-28702Y13843
X-35941Y17526
X-35941Y16002
X21590Y-12700
X-11684Y-43942
X-10668Y-41783
X-30861Y-42037
X6604Y-17780
X13335Y-16002
X10668Y-19558
X4445Y-19304
X-14986Y-3429
X-18288Y-3302
X-20193Y-3302
X-19050Y-1905
X27940Y7239
X27051Y6477
X28194Y5588
X27051Y4699
X28194Y3556
X-17272Y-1905
X-26670Y-381
X-24638Y-1778
X-22352Y-1270
X-24765Y-254
X-24003Y-3048
X12319Y-3048
X11049Y-4191
X12065Y-4064
X28321Y-16002
X28321Y-17145
X28321Y-18542
X-27432Y-18288
X-27686Y-17272
X-27686Y-16002
X13843Y-18923
X27178Y-18542
X27178Y-17272
X27178Y-16002
X-27686Y-14605
X-6985Y-5334
X9906Y-10287
X-27305Y-34290
X-16637Y-34163
X-24130Y-21336
X-25273Y-21336
X24638Y13589
X20320Y10541
X2921Y-18161
X14351Y1270
X-1016Y-14351
X766Y-14732
X-4699Y-5715
X-5207Y-3556
X14605Y-6096
X-6405Y707
X-7112Y2413
X15494Y-6096
X20828Y2921
X27559Y12192
X25654Y9398
X-8890Y-7620
X-2286Y-6604
X7366Y-1905
X7493Y-3302
X8382Y-4191
X-5969Y-6350
X-25527Y-14859
X-24003Y-14478
X-22479Y-14605
X-22225Y-15875
X17145Y-25654
X18415Y-28067
X18415Y-26543
X-9906Y-9398
X-8128Y-10795
X24003Y127
X27051Y2032
X16383Y-27305
X19431Y-29735
X5969Y2159
X-5461Y8636
X3175Y9652
X-254Y5461
X-1905Y-3810
X-26289Y-36576
X-21336Y-30861
X-31623Y-34163
X-25654Y-35052
X16510Y20320
X16510Y17780
X16764Y29718
X18161Y26797
X-18288Y24511
X-18161Y30607
X-12192Y30480
X-9906Y30480
X13208Y22606
X13335Y27813
X8890Y30480
X-1016Y30480
X-21209Y13843
X-19050Y13843
X-19050Y11811
X-25400Y9906
X-23241Y9525
X-1270Y2540
X-14224Y-1778
X-12954Y2540
X-15240Y2413
X-16256Y6858
X-36449Y-32766
X-26543Y-25273
X-26543Y-28448
X-17653Y-29083
X-5334Y-28194
X-16129Y-25019
X-38481Y-28194
X-36957Y-20701
X-29845Y-20066
X-36957Y-508
X-32639Y-5715
X-30226Y-1270
X-38354Y10414
X-26868Y-20010
X-22606Y-9144
X-20447Y-4699
X-22800Y-28956
X-22479Y-41656
X-23749Y-41656
X-23749Y-42926
X-28829Y-40386
X-30099Y-36576
X-22479Y1778
X38227Y-19431
X38227Y-20828
X38354Y-9525
X28956Y-9144
X28956Y-10541
X30353Y15494
X32258Y15494
X34417Y15494
X38608Y3048
X38735Y4318
X32893Y29845
X38608Y28067
X38608Y26924
X38862Y13843
X38735Y17145
X26035Y11811
X25781Y16256
X29210Y13589
X-5269Y7431
X12573Y-22098
X18288Y-3429
X-16778Y-26412
X3429Y-25146
X-3429Y-15748
X-3429Y-10795
X23241Y-23368
X23241Y-25400
X23241Y-27686
X23622Y-13208
X19812Y-12319
X-33782Y-20066
X-31623Y-20066
X-36703Y-5334
X-35179Y-5080
X-34925Y-762
X-38354Y12827
X-38481Y8636
X-33147Y-762
X14942Y-11035
X25781Y5207
X25781Y2667
X1651Y-21717
X-7874Y-1651
X-2159Y-10922
X19812Y7747
X25019Y-3556
X25019Y-2159
T4
X635Y13335
X1905Y13335
X635Y12065
X1905Y12065
T5
X7366Y16764
X4572Y15113
X11557Y25019
X314Y16677
X-7351Y20716
X-1524Y16638
X-1651Y7620
M30