%TF.GenerationSoftware,KiCad,Pcbnew,8.0.5*%
%TF.CreationDate,2024-10-21T02:11:06+05:30*%
%TF.ProjectId,EPS_PDB,4550535f-5044-4422-9e6b-696361645f70,rev?*%
%TF.SameCoordinates,Original*%
%TF.FileFunction,Copper,L4,Bot*%
%TF.FilePolarity,Positive*%
%FSLAX46Y46*%
G04 Gerber Fmt 4.6, Leading zero omitted, Abs format (unit mm)*
G04 Created by KiCad (PCBNEW 8.0.5) date 2024-10-21 02:11:06*
%MOMM*%
%LPD*%
G01*
G04 APERTURE LIST*
G04 Aperture macros list*
%AMRoundRect*
0 Rectangle with rounded corners*
0 $1 Rounding radius*
0 $2 $3 $4 $5 $6 $7 $8 $9 X,Y pos of 4 corners*
0 Add a 4 corners polygon primitive as box body*
4,1,4,$2,$3,$4,$5,$6,$7,$8,$9,$2,$3,0*
0 Add four circle primitives for the rounded corners*
1,1,$1+$1,$2,$3*
1,1,$1+$1,$4,$5*
1,1,$1+$1,$6,$7*
1,1,$1+$1,$8,$9*
0 Add four rect primitives between the rounded corners*
20,1,$1+$1,$2,$3,$4,$5,0*
20,1,$1+$1,$4,$5,$6,$7,0*
20,1,$1+$1,$6,$7,$8,$9,0*
20,1,$1+$1,$8,$9,$2,$3,0*%
G04 Aperture macros list end*
%TA.AperFunction,ComponentPad*%
%ADD10C,0.400000*%
%TD*%
%TA.AperFunction,ComponentPad*%
%ADD11C,6.400000*%
%TD*%
%TA.AperFunction,ComponentPad*%
%ADD12R,1.370000X1.370000*%
%TD*%
%TA.AperFunction,ComponentPad*%
%ADD13C,1.370000*%
%TD*%
%TA.AperFunction,ComponentPad*%
%ADD14R,1.700000X1.700000*%
%TD*%
%TA.AperFunction,ComponentPad*%
%ADD15O,1.700000X1.700000*%
%TD*%
%TA.AperFunction,SMDPad,CuDef*%
%ADD16RoundRect,0.200000X0.275000X-0.200000X0.275000X0.200000X-0.275000X0.200000X-0.275000X-0.200000X0*%
%TD*%
%TA.AperFunction,SMDPad,CuDef*%
%ADD17R,0.558800X1.981200*%
%TD*%
%TA.AperFunction,SMDPad,CuDef*%
%ADD18RoundRect,0.225000X0.250000X-0.225000X0.250000X0.225000X-0.250000X0.225000X-0.250000X-0.225000X0*%
%TD*%
%TA.AperFunction,SMDPad,CuDef*%
%ADD19RoundRect,0.225000X-0.225000X-0.250000X0.225000X-0.250000X0.225000X0.250000X-0.225000X0.250000X0*%
%TD*%
%TA.AperFunction,SMDPad,CuDef*%
%ADD20RoundRect,0.200000X-0.275000X0.200000X-0.275000X-0.200000X0.275000X-0.200000X0.275000X0.200000X0*%
%TD*%
%TA.AperFunction,SMDPad,CuDef*%
%ADD21RoundRect,0.200000X0.200000X0.275000X-0.200000X0.275000X-0.200000X-0.275000X0.200000X-0.275000X0*%
%TD*%
%TA.AperFunction,SMDPad,CuDef*%
%ADD22RoundRect,0.225000X0.225000X0.250000X-0.225000X0.250000X-0.225000X-0.250000X0.225000X-0.250000X0*%
%TD*%
%TA.AperFunction,SMDPad,CuDef*%
%ADD23RoundRect,0.075000X-0.725000X-0.075000X0.725000X-0.075000X0.725000X0.075000X-0.725000X0.075000X0*%
%TD*%
%TA.AperFunction,SMDPad,CuDef*%
%ADD24RoundRect,0.075000X-0.075000X-0.725000X0.075000X-0.725000X0.075000X0.725000X-0.075000X0.725000X0*%
%TD*%
%TA.AperFunction,SMDPad,CuDef*%
%ADD25R,1.473200X0.558800*%
%TD*%
%TA.AperFunction,SMDPad,CuDef*%
%ADD26RoundRect,0.225000X-0.250000X0.225000X-0.250000X-0.225000X0.250000X-0.225000X0.250000X0.225000X0*%
%TD*%
%TA.AperFunction,SMDPad,CuDef*%
%ADD27RoundRect,0.200000X-0.200000X-0.275000X0.200000X-0.275000X0.200000X0.275000X-0.200000X0.275000X0*%
%TD*%
%TA.AperFunction,SMDPad,CuDef*%
%ADD28RoundRect,0.243750X-0.243750X-0.456250X0.243750X-0.456250X0.243750X0.456250X-0.243750X0.456250X0*%
%TD*%
%TA.AperFunction,SMDPad,CuDef*%
%ADD29RoundRect,0.150000X0.512500X0.150000X-0.512500X0.150000X-0.512500X-0.150000X0.512500X-0.150000X0*%
%TD*%
%TA.AperFunction,SMDPad,CuDef*%
%ADD30RoundRect,0.243750X0.243750X0.456250X-0.243750X0.456250X-0.243750X-0.456250X0.243750X-0.456250X0*%
%TD*%
%TA.AperFunction,SMDPad,CuDef*%
%ADD31R,1.400000X0.400000*%
%TD*%
%TA.AperFunction,ComponentPad*%
%ADD32O,1.900000X1.050000*%
%TD*%
%TA.AperFunction,SMDPad,CuDef*%
%ADD33R,1.450000X1.150000*%
%TD*%
%TA.AperFunction,SMDPad,CuDef*%
%ADD34R,1.900000X1.750000*%
%TD*%
%TA.AperFunction,SMDPad,CuDef*%
%ADD35RoundRect,0.200000X0.335876X0.053033X0.053033X0.335876X-0.335876X-0.053033X-0.053033X-0.335876X0*%
%TD*%
%TA.AperFunction,SMDPad,CuDef*%
%ADD36RoundRect,0.250000X0.262500X0.450000X-0.262500X0.450000X-0.262500X-0.450000X0.262500X-0.450000X0*%
%TD*%
%TA.AperFunction,SMDPad,CuDef*%
%ADD37R,1.200000X1.400000*%
%TD*%
%TA.AperFunction,SMDPad,CuDef*%
%ADD38RoundRect,0.375000X0.375000X-0.625000X0.375000X0.625000X-0.375000X0.625000X-0.375000X-0.625000X0*%
%TD*%
%TA.AperFunction,SMDPad,CuDef*%
%ADD39RoundRect,0.500000X1.400000X-0.500000X1.400000X0.500000X-1.400000X0.500000X-1.400000X-0.500000X0*%
%TD*%
%TA.AperFunction,SMDPad,CuDef*%
%ADD40R,1.700000X0.900000*%
%TD*%
%TA.AperFunction,SMDPad,CuDef*%
%ADD41R,1.100000X0.800000*%
%TD*%
%TA.AperFunction,ViaPad*%
%ADD42C,0.700000*%
%TD*%
%TA.AperFunction,ViaPad*%
%ADD43C,0.800000*%
%TD*%
%TA.AperFunction,Conductor*%
%ADD44C,0.500000*%
%TD*%
%TA.AperFunction,Conductor*%
%ADD45C,0.300000*%
%TD*%
%TA.AperFunction,Conductor*%
%ADD46C,0.250000*%
%TD*%
%TA.AperFunction,Conductor*%
%ADD47C,0.200000*%
%TD*%
G04 APERTURE END LIST*
D10*
%TO.P,U17,10*%
%TO.N,N/C*%
X182286999Y-102965000D03*
%TO.P,U17,11*%
X182286999Y-101665000D03*
%TO.P,U17,12*%
X183586999Y-102964999D03*
%TO.P,U17,13*%
X183586999Y-101665001D03*
%TO.P,U17,14*%
X184886999Y-102965000D03*
%TO.P,U17,15*%
X184886999Y-101665000D03*
%TD*%
D11*
%TO.P,H4,1,1*%
%TO.N,GND*%
X119282000Y-132690000D03*
%TD*%
D12*
%TO.P,J4,1,Pin_1*%
%TO.N,/VBUS0*%
X127532000Y-53880000D03*
D13*
%TO.P,J4,2,Pin_2*%
X127532000Y-51340000D03*
%TO.P,J4,3,Pin_3*%
%TO.N,GND*%
X130072000Y-53880000D03*
%TO.P,J4,4,Pin_4*%
X130072000Y-51340000D03*
%TO.P,J4,5,Pin_5*%
%TO.N,/3V3_ANT*%
X132612000Y-53880000D03*
%TO.P,J4,6,Pin_6*%
%TO.N,GND*%
X132612000Y-51340000D03*
%TO.P,J4,7,Pin_7*%
%TO.N,/3V3_ANT*%
X135152000Y-53880000D03*
%TO.P,J4,8,Pin_8*%
%TO.N,GND*%
X135152000Y-51340000D03*
%TO.P,J4,9,Pin_9*%
%TO.N,/ANT_DEPLOY*%
X137692000Y-53880000D03*
%TO.P,J4,10,Pin_10*%
%TO.N,/ANT_DEPLOY_STATUS*%
X137692000Y-51340000D03*
%TO.P,J4,11,Pin_11*%
%TO.N,/CS_ANT*%
X140232000Y-53880000D03*
%TO.P,J4,12,Pin_12*%
%TO.N,unconnected-(J4-Pin_12-Pad12)*%
X140232000Y-51340000D03*
%TO.P,J4,13,Pin_13*%
%TO.N,unconnected-(J4-Pin_13-Pad13)*%
X142772000Y-53880000D03*
%TO.P,J4,14,Pin_14*%
%TO.N,unconnected-(J4-Pin_14-Pad14)*%
X142772000Y-51340000D03*
%TO.P,J4,15,Pin_15*%
%TO.N,unconnected-(J4-Pin_15-Pad15)*%
X145312000Y-53880000D03*
%TO.P,J4,16,Pin_16*%
%TO.N,unconnected-(J4-Pin_16-Pad16)*%
X145312000Y-51340000D03*
%TO.P,J4,17,Pin_17*%
%TO.N,unconnected-(J4-Pin_17-Pad17)*%
X147852000Y-53880000D03*
%TO.P,J4,18,Pin_18*%
%TO.N,unconnected-(J4-Pin_18-Pad18)*%
X147852000Y-51340000D03*
%TO.P,J4,19,Pin_19*%
%TO.N,/HEARTBEAT_OBC*%
X150392000Y-53880000D03*
%TO.P,J4,20,Pin_20*%
%TO.N,unconnected-(J4-Pin_20-Pad20)*%
X150392000Y-51340000D03*
%TO.P,J4,21,Pin_21*%
%TO.N,/HEARTBEAT_ADCS*%
X152932000Y-53880000D03*
%TO.P,J4,22,Pin_22*%
%TO.N,unconnected-(J4-Pin_22-Pad22)*%
X152932000Y-51340000D03*
%TO.P,J4,23,Pin_23*%
%TO.N,GND*%
X155472000Y-53880000D03*
%TO.P,J4,24,Pin_24*%
X155472000Y-51340000D03*
%TO.P,J4,25,Pin_25*%
%TO.N,/5V_PAY*%
X158012000Y-53880000D03*
%TO.P,J4,26,Pin_26*%
X158012000Y-51340000D03*
%TO.P,J4,27,Pin_27*%
%TO.N,GND*%
X160552000Y-53880000D03*
%TO.P,J4,28,Pin_28*%
X160552000Y-51340000D03*
%TO.P,J4,29,Pin_29*%
%TO.N,/5V_OBC*%
X163092000Y-53880000D03*
%TO.P,J4,30,Pin_30*%
X163092000Y-51340000D03*
%TO.P,J4,31,Pin_31*%
%TO.N,/12V_ADCS*%
X165632000Y-53880000D03*
%TO.P,J4,32,Pin_32*%
X165632000Y-51340000D03*
%TO.P,J4,33,Pin_33*%
%TO.N,unconnected-(J4-Pin_33-Pad33)*%
X168172000Y-53880000D03*
%TO.P,J4,34,Pin_34*%
%TO.N,unconnected-(J4-Pin_34-Pad34)*%
X168172000Y-51340000D03*
%TO.P,J4,35,Pin_35*%
%TO.N,unconnected-(J4-Pin_35-Pad35)*%
X170712000Y-53880000D03*
%TO.P,J4,36,Pin_36*%
%TO.N,unconnected-(J4-Pin_36-Pad36)*%
X170712000Y-51340000D03*
%TO.P,J4,37,Pin_37*%
%TO.N,/5V_ADCS*%
X173252000Y-53880000D03*
%TO.P,J4,38,Pin_38*%
X173252000Y-51340000D03*
%TO.P,J4,39,Pin_39*%
%TO.N,/3V3_ADCS*%
X175792000Y-53880000D03*
%TO.P,J4,40,Pin_40*%
X175792000Y-51340000D03*
%TO.P,J4,41,Pin_41*%
%TO.N,unconnected-(J4-Pin_41-Pad41)*%
X178332000Y-53880000D03*
%TO.P,J4,42,Pin_42*%
%TO.N,GND*%
X178332000Y-51340000D03*
%TO.P,J4,43,Pin_43*%
%TO.N,unconnected-(J4-Pin_43-Pad43)*%
X180872000Y-53880000D03*
%TO.P,J4,44,Pin_44*%
%TO.N,/I2C2_SCL*%
X180872000Y-51340000D03*
%TO.P,J4,45,Pin_45*%
%TO.N,unconnected-(J4-Pin_45-Pad45)*%
X183412000Y-53880000D03*
%TO.P,J4,46,Pin_46*%
%TO.N,/I2C2_SDA*%
X183412000Y-51340000D03*
%TO.P,J4,47,Pin_47*%
%TO.N,unconnected-(J4-Pin_47-Pad47)*%
X185952000Y-53880000D03*
%TO.P,J4,48,Pin_48*%
%TO.N,GND*%
X185952000Y-51340000D03*
%TO.P,J4,49,Pin_49*%
%TO.N,unconnected-(J4-Pin_49-Pad49)*%
X188492000Y-53880000D03*
%TO.P,J4,50,Pin_50*%
%TO.N,/I2C1_SCL*%
X188492000Y-51340000D03*
%TO.P,J4,51,Pin_51*%
%TO.N,unconnected-(J4-Pin_51-Pad51)*%
X191032000Y-53880000D03*
%TO.P,J4,52,Pin_52*%
%TO.N,/I2C1_SDA*%
X191032000Y-51340000D03*
%TD*%
D11*
%TO.P,H3,1,1*%
%TO.N,GND*%
X199282000Y-132690000D03*
%TD*%
D12*
%TO.P,J3,1,Pin_1*%
%TO.N,/VBUS0*%
X127532000Y-58960000D03*
D13*
%TO.P,J3,2,Pin_2*%
X127532000Y-56420000D03*
%TO.P,J3,3,Pin_3*%
%TO.N,GND*%
X130072000Y-58960000D03*
%TO.P,J3,4,Pin_4*%
X130072000Y-56420000D03*
%TO.P,J3,5,Pin_5*%
%TO.N,/RST_CC*%
X132612000Y-58960000D03*
%TO.P,J3,6,Pin_6*%
%TO.N,unconnected-(J3-Pin_6-Pad6)*%
X132612000Y-56420000D03*
%TO.P,J3,7,Pin_7*%
%TO.N,/UART1_RX*%
X135152000Y-58960000D03*
%TO.P,J3,8,Pin_8*%
%TO.N,unconnected-(J3-Pin_8-Pad8)*%
X135152000Y-56420000D03*
%TO.P,J3,9,Pin_9*%
%TO.N,/UART1_TX*%
X137692000Y-58960000D03*
%TO.P,J3,10,Pin_10*%
%TO.N,unconnected-(J3-Pin_10-Pad10)*%
X137692000Y-56420000D03*
%TO.P,J3,11,Pin_11*%
%TO.N,/UART1_RTS*%
X140232000Y-58960000D03*
%TO.P,J3,12,Pin_12*%
%TO.N,unconnected-(J3-Pin_12-Pad12)*%
X140232000Y-56420000D03*
%TO.P,J3,13,Pin_13*%
%TO.N,/UART1_CTS*%
X142772000Y-58960000D03*
%TO.P,J3,14,Pin_14*%
%TO.N,unconnected-(J3-Pin_14-Pad14)*%
X142772000Y-56420000D03*
%TO.P,J3,15,Pin_15*%
%TO.N,GND*%
X145312000Y-58960000D03*
%TO.P,J3,16,Pin_16*%
%TO.N,unconnected-(J3-Pin_16-Pad16)*%
X145312000Y-56420000D03*
%TO.P,J3,17,Pin_17*%
%TO.N,/CAN_A_L*%
X147852000Y-58960000D03*
%TO.P,J3,18,Pin_18*%
%TO.N,unconnected-(J3-Pin_18-Pad18)*%
X147852000Y-56420000D03*
%TO.P,J3,19,Pin_19*%
%TO.N,/CAN_A_H*%
X150392000Y-58960000D03*
%TO.P,J3,20,Pin_20*%
%TO.N,unconnected-(J3-Pin_20-Pad20)*%
X150392000Y-56420000D03*
%TO.P,J3,21,Pin_21*%
%TO.N,GND*%
X152932000Y-58960000D03*
%TO.P,J3,22,Pin_22*%
%TO.N,unconnected-(J3-Pin_22-Pad22)*%
X152932000Y-56420000D03*
%TO.P,J3,23,Pin_23*%
%TO.N,/CAN_B_L*%
X155472000Y-58960000D03*
%TO.P,J3,24,Pin_24*%
%TO.N,unconnected-(J3-Pin_24-Pad24)*%
X155472000Y-56420000D03*
%TO.P,J3,25,Pin_25*%
%TO.N,/CAN_B_H*%
X158012000Y-58960000D03*
%TO.P,J3,26,Pin_26*%
%TO.N,unconnected-(J3-Pin_26-Pad26)*%
X158012000Y-56420000D03*
%TO.P,J3,27,Pin_27*%
%TO.N,GND*%
X160552000Y-58960000D03*
%TO.P,J3,28,Pin_28*%
%TO.N,unconnected-(J3-Pin_28-Pad28)*%
X160552000Y-56420000D03*
%TO.P,J3,29,Pin_29*%
%TO.N,5V_EPS*%
X163092000Y-58960000D03*
%TO.P,J3,30,Pin_30*%
X163092000Y-56420000D03*
%TO.P,J3,31,Pin_31*%
%TO.N,3V3_EPS*%
X165632000Y-58960000D03*
%TO.P,J3,32,Pin_32*%
X165632000Y-56420000D03*
%TO.P,J3,33,Pin_33*%
%TO.N,unconnected-(J3-Pin_33-Pad33)*%
X168172000Y-58960000D03*
%TO.P,J3,34,Pin_34*%
%TO.N,unconnected-(J3-Pin_34-Pad34)*%
X168172000Y-56420000D03*
%TO.P,J3,35,Pin_35*%
%TO.N,/UART0_CTS*%
X170712000Y-58960000D03*
%TO.P,J3,36,Pin_36*%
%TO.N,unconnected-(J3-Pin_36-Pad36)*%
X170712000Y-56420000D03*
%TO.P,J3,37,Pin_37*%
%TO.N,/UART0_RTS*%
X173252000Y-58960000D03*
%TO.P,J3,38,Pin_38*%
%TO.N,unconnected-(J3-Pin_38-Pad38)*%
X173252000Y-56420000D03*
%TO.P,J3,39,Pin_39*%
%TO.N,/UART0_RX*%
X175792000Y-58960000D03*
%TO.P,J3,40,Pin_40*%
%TO.N,unconnected-(J3-Pin_40-Pad40)*%
X175792000Y-56420000D03*
%TO.P,J3,41,Pin_41*%
%TO.N,/UART0_TX*%
X178332000Y-58960000D03*
%TO.P,J3,42,Pin_42*%
%TO.N,unconnected-(J3-Pin_42-Pad42)*%
X178332000Y-56420000D03*
%TO.P,J3,43,Pin_43*%
%TO.N,unconnected-(J3-Pin_43-Pad43)*%
X180872000Y-58960000D03*
%TO.P,J3,44,Pin_44*%
%TO.N,unconnected-(J3-Pin_44-Pad44)*%
X180872000Y-56420000D03*
%TO.P,J3,45,Pin_45*%
%TO.N,unconnected-(J3-Pin_45-Pad45)*%
X183412000Y-58960000D03*
%TO.P,J3,46,Pin_46*%
%TO.N,unconnected-(J3-Pin_46-Pad46)*%
X183412000Y-56420000D03*
%TO.P,J3,47,Pin_47*%
%TO.N,/5V_COMM*%
X185952000Y-58960000D03*
%TO.P,J3,48,Pin_48*%
%TO.N,unconnected-(J3-Pin_48-Pad48)*%
X185952000Y-56420000D03*
%TO.P,J3,49,Pin_49*%
%TO.N,/5V_COMM*%
X188492000Y-58960000D03*
%TO.P,J3,50,Pin_50*%
%TO.N,unconnected-(J3-Pin_50-Pad50)*%
X188492000Y-56420000D03*
%TO.P,J3,51,Pin_51*%
%TO.N,unconnected-(J3-Pin_51-Pad51)*%
X191032000Y-58960000D03*
%TO.P,J3,52,Pin_52*%
%TO.N,unconnected-(J3-Pin_52-Pad52)*%
X191032000Y-56420000D03*
%TD*%
D10*
%TO.P,U10,10*%
%TO.N,N/C*%
X152882000Y-103289999D03*
%TO.P,U10,11*%
X152882000Y-101989999D03*
%TO.P,U10,12*%
X154182000Y-103289998D03*
%TO.P,U10,13*%
X154182000Y-101990000D03*
%TO.P,U10,14*%
X155482000Y-103289999D03*
%TO.P,U10,15*%
X155482000Y-101989999D03*
%TD*%
D11*
%TO.P,H2,1,1*%
%TO.N,GND*%
X199282000Y-52690000D03*
%TD*%
D14*
%TO.P,JP1,1,A*%
%TO.N,VUSB*%
X187792000Y-82435000D03*
D15*
%TO.P,JP1,2,B*%
%TO.N,5V_EPS*%
X187792000Y-79895000D03*
%TD*%
D10*
%TO.P,U9,10*%
%TO.N,N/C*%
X131482000Y-103390000D03*
%TO.P,U9,11*%
X131482000Y-102090000D03*
%TO.P,U9,12*%
X132782000Y-103389999D03*
%TO.P,U9,13*%
X132782000Y-102090001D03*
%TO.P,U9,14*%
X134082000Y-103390000D03*
%TO.P,U9,15*%
X134082000Y-102090000D03*
%TD*%
%TO.P,U13,10*%
%TO.N,N/C*%
X172982000Y-103190000D03*
%TO.P,U13,11*%
X172982000Y-101890000D03*
%TO.P,U13,12*%
X174282000Y-103189999D03*
%TO.P,U13,13*%
X174282000Y-101890001D03*
%TO.P,U13,14*%
X175582000Y-103190000D03*
%TO.P,U13,15*%
X175582000Y-101890000D03*
%TD*%
%TO.P,U16,10*%
%TO.N,N/C*%
X193482000Y-95990000D03*
%TO.P,U16,11*%
X193482000Y-94690000D03*
%TO.P,U16,12*%
X194782000Y-95989999D03*
%TO.P,U16,13*%
X194782000Y-94690001D03*
%TO.P,U16,14*%
X196082000Y-95990000D03*
%TO.P,U16,15*%
X196082000Y-94690000D03*
%TD*%
%TO.P,U18,10*%
%TO.N,N/C*%
X192182000Y-115889999D03*
%TO.P,U18,11*%
X192182000Y-114589999D03*
%TO.P,U18,12*%
X193482000Y-115889998D03*
%TO.P,U18,13*%
X193482000Y-114590000D03*
%TO.P,U18,14*%
X194782000Y-115889999D03*
%TO.P,U18,15*%
X194782000Y-114589999D03*
%TD*%
D14*
%TO.P,J2,1,Pin_1*%
%TO.N,3V3_EPS*%
X196632000Y-59550001D03*
D15*
%TO.P,J2,2,Pin_2*%
%TO.N,/SWDIO*%
X196632000Y-62090001D03*
%TO.P,J2,3,Pin_3*%
%TO.N,/SWCLK*%
X196632000Y-64630000D03*
%TO.P,J2,4,Pin_4*%
%TO.N,GND*%
X196632000Y-67170001D03*
%TD*%
D10*
%TO.P,U12,10*%
%TO.N,N/C*%
X163282000Y-103290000D03*
%TO.P,U12,11*%
X163282000Y-101990000D03*
%TO.P,U12,12*%
X164582000Y-103290000D03*
%TO.P,U12,13*%
X164582000Y-101990000D03*
%TO.P,U12,14*%
X165882000Y-103290000D03*
%TO.P,U12,15*%
X165882000Y-101990000D03*
%TD*%
%TO.P,U7,10*%
%TO.N,N/C*%
X121182000Y-103090000D03*
%TO.P,U7,11*%
X121182000Y-101790000D03*
%TO.P,U7,12*%
X122482000Y-103089999D03*
%TO.P,U7,13*%
X122482000Y-101790001D03*
%TO.P,U7,14*%
X123782000Y-103090000D03*
%TO.P,U7,15*%
X123782000Y-101790000D03*
%TD*%
D11*
%TO.P,H1,1,1*%
%TO.N,GND*%
X119282000Y-52690000D03*
%TD*%
D10*
%TO.P,U6,10*%
%TO.N,N/C*%
X141882000Y-103490000D03*
%TO.P,U6,11*%
X141882000Y-102190000D03*
%TO.P,U6,12*%
X143182000Y-103489999D03*
%TO.P,U6,13*%
X143182000Y-102190001D03*
%TO.P,U6,14*%
X144482000Y-103490000D03*
%TO.P,U6,15*%
X144482000Y-102190000D03*
%TD*%
D14*
%TO.P,JP2,1,A*%
%TO.N,/VBUS0*%
X121592000Y-62940000D03*
D15*
%TO.P,JP2,2,B*%
%TO.N,/VBUS*%
X119052000Y-62940000D03*
%TD*%
D14*
%TO.P,JP3,1,A*%
%TO.N,/3V3_LDO*%
X201682000Y-75090000D03*
D15*
%TO.P,JP3,2,B*%
%TO.N,3V3_EPS*%
X201682000Y-72550000D03*
%TD*%
D16*
%TO.P,R1,1*%
%TO.N,Net-(D1-K)*%
X200482000Y-86315000D03*
%TO.P,R1,2*%
%TO.N,GND*%
X200482000Y-84665000D03*
%TD*%
D17*
%TO.P,U2,1,TXD*%
%TO.N,/EPS Control Unit/CAN_TX*%
X150947000Y-67693800D03*
%TO.P,U2,2,GND*%
%TO.N,GND*%
X149677000Y-67693800D03*
%TO.P,U2,3,VCC*%
%TO.N,Net-(Q1-D)*%
X148407000Y-67693800D03*
%TO.P,U2,4,RXD*%
%TO.N,/EPS Control Unit/CAN_RX*%
X147137000Y-67693800D03*
%TO.P,U2,5,VRXD*%
%TO.N,3V3_EPS*%
X147137000Y-62766200D03*
%TO.P,U2,6,CANL*%
%TO.N,/CAN_A_L*%
X148407000Y-62766200D03*
%TO.P,U2,7,CANH*%
%TO.N,/CAN_A_H*%
X149677000Y-62766200D03*
%TO.P,U2,8,S*%
%TO.N,GND*%
X150947000Y-62766200D03*
%TD*%
D18*
%TO.P,C16,1*%
%TO.N,/EPS Control Unit/HSE_OUT*%
X146992000Y-82735000D03*
%TO.P,C16,2*%
%TO.N,GND*%
X146992000Y-81185000D03*
%TD*%
D19*
%TO.P,C10,1*%
%TO.N,3V3_EPS*%
X170887000Y-87790000D03*
%TO.P,C10,2*%
%TO.N,GND*%
X172437000Y-87790000D03*
%TD*%
%TO.P,C1,1*%
%TO.N,VUSB*%
X193517000Y-83160000D03*
%TO.P,C1,2*%
%TO.N,GND*%
X195067000Y-83160000D03*
%TD*%
D20*
%TO.P,R23,1,1*%
%TO.N,/FLT_5V_ADCS*%
X184632000Y-89665000D03*
%TO.P,R23,2,2*%
%TO.N,3V3_EPS*%
X184632000Y-91315000D03*
%TD*%
D21*
%TO.P,R8,1*%
%TO.N,3V3_EPS*%
X191207000Y-66690000D03*
%TO.P,R8,2*%
%TO.N,/I2C1_SDA*%
X189557000Y-66690000D03*
%TD*%
D22*
%TO.P,C13,1*%
%TO.N,3V3_EPS*%
X143167000Y-77535000D03*
%TO.P,C13,2*%
%TO.N,GND*%
X141617000Y-77535000D03*
%TD*%
D23*
%TO.P,U4,1,PE2*%
%TO.N,/HEARTBEAT_OBC*%
X153612000Y-88540000D03*
%TO.P,U4,2,PE3*%
%TO.N,/HEARTBEAT_ADCS*%
X153612000Y-88040000D03*
%TO.P,U4,3,PE4*%
%TO.N,unconnected-(U4-PE4-Pad3)*%
X153612000Y-87540000D03*
%TO.P,U4,4,PE5*%
%TO.N,unconnected-(U4-PE5-Pad4)*%
X153612000Y-87040000D03*
%TO.P,U4,5,PE6*%
%TO.N,unconnected-(U4-PE6-Pad5)*%
X153612000Y-86540000D03*
%TO.P,U4,6,VBAT*%
%TO.N,3V3_EPS*%
X153612000Y-86040000D03*
%TO.P,U4,7,PC13*%
%TO.N,unconnected-(U4-PC13-Pad7)*%
X153612000Y-85540000D03*
%TO.P,U4,8,PC14*%
%TO.N,unconnected-(U4-PC14-Pad8)*%
X153612000Y-85040000D03*
%TO.P,U4,9,PC15*%
%TO.N,unconnected-(U4-PC15-Pad9)*%
X153612000Y-84540000D03*
%TO.P,U4,10,VSS*%
%TO.N,GND*%
X153612000Y-84040000D03*
%TO.P,U4,11,VDD*%
%TO.N,3V3_EPS*%
X153612000Y-83540000D03*
%TO.P,U4,12,PH0*%
%TO.N,/EPS Control Unit/HSE_IN*%
X153612000Y-83040000D03*
%TO.P,U4,13,PH1*%
%TO.N,/EPS Control Unit/HSE_OUT*%
X153612000Y-82540000D03*
%TO.P,U4,14,NRST*%
%TO.N,/EPS Control Unit/NRST*%
X153612000Y-82040000D03*
%TO.P,U4,15,PC0*%
%TO.N,unconnected-(U4-PC0-Pad15)*%
X153612000Y-81540000D03*
%TO.P,U4,16,PC1*%
%TO.N,unconnected-(U4-PC1-Pad16)*%
X153612000Y-81040000D03*
%TO.P,U4,17,PC2*%
%TO.N,unconnected-(U4-PC2-Pad17)*%
X153612000Y-80540000D03*
%TO.P,U4,18,PC3*%
%TO.N,unconnected-(U4-PC3-Pad18)*%
X153612000Y-80040000D03*
%TO.P,U4,19,VSSA*%
%TO.N,GND*%
X153612000Y-79540000D03*
%TO.P,U4,20,VREF-*%
%TO.N,unconnected-(U4-VREF--Pad20)*%
X153612000Y-79040000D03*
%TO.P,U4,21,VREF+*%
%TO.N,unconnected-(U4-VREF+-Pad21)*%
X153612000Y-78540000D03*
%TO.P,U4,22,VDDA*%
%TO.N,+3.3VA*%
X153612000Y-78040000D03*
%TO.P,U4,23,PA0*%
%TO.N,unconnected-(U4-PA0-Pad23)*%
X153612000Y-77540000D03*
%TO.P,U4,24,PA1*%
%TO.N,unconnected-(U4-PA1-Pad24)*%
X153612000Y-77040000D03*
%TO.P,U4,25,PA2*%
%TO.N,/EPS Control Unit/UART2_TX*%
X153612000Y-76540000D03*
D24*
%TO.P,U4,26,PA3*%
%TO.N,/EPS Control Unit/UART2_RX*%
X155287000Y-74865000D03*
%TO.P,U4,27,VSS*%
%TO.N,GND*%
X155787000Y-74865000D03*
%TO.P,U4,28,VDD*%
%TO.N,3V3_EPS*%
X156287000Y-74865000D03*
%TO.P,U4,29,PA4*%
%TO.N,unconnected-(U4-PA4-Pad29)*%
X156787000Y-74865000D03*
%TO.P,U4,30,PA5*%
%TO.N,unconnected-(U4-PA5-Pad30)*%
X157287000Y-74865000D03*
%TO.P,U4,31,PA6*%
%TO.N,unconnected-(U4-PA6-Pad31)*%
X157787000Y-74865000D03*
%TO.P,U4,32,PA7*%
%TO.N,unconnected-(U4-PA7-Pad32)*%
X158287000Y-74865000D03*
%TO.P,U4,33,PC4*%
%TO.N,unconnected-(U4-PC4-Pad33)*%
X158787000Y-74865000D03*
%TO.P,U4,34,PC5*%
%TO.N,unconnected-(U4-PC5-Pad34)*%
X159287000Y-74865000D03*
%TO.P,U4,35,PB0*%
%TO.N,unconnected-(U4-PB0-Pad35)*%
X159787000Y-74865000D03*
%TO.P,U4,36,PB1*%
%TO.N,unconnected-(U4-PB1-Pad36)*%
X160287000Y-74865000D03*
%TO.P,U4,37,PB2*%
%TO.N,unconnected-(U4-PB2-Pad37)*%
X160787000Y-74865000D03*
%TO.P,U4,38,PE7*%
%TO.N,/EPS Control Unit/WDI*%
X161287000Y-74865000D03*
%TO.P,U4,39,PE8*%
%TO.N,/STATUS_5V*%
X161787000Y-74865000D03*
%TO.P,U4,40,PE9*%
%TO.N,/STATUS_3V3*%
X162287000Y-74865000D03*
%TO.P,U4,41,PE10*%
%TO.N,/SHDN_12V*%
X162787000Y-74865000D03*
%TO.P,U4,42,PE11*%
%TO.N,/RDY_ADC*%
X163287000Y-74865000D03*
%TO.P,U4,43,PE12*%
%TO.N,/SPI_CS*%
X163787000Y-74865000D03*
%TO.P,U4,44,PE13*%
%TO.N,/SPI_SCLK*%
X164287000Y-74865000D03*
%TO.P,U4,45,PE14*%
%TO.N,/SPI_MISO*%
X164787000Y-74865000D03*
%TO.P,U4,46,PE15*%
%TO.N,/SPI_MOSI*%
X165287000Y-74865000D03*
%TO.P,U4,47,PB10*%
%TO.N,/I2C2_SCL*%
X165787000Y-74865000D03*
%TO.P,U4,48,PB11*%
%TO.N,/I2C2_SDA*%
X166287000Y-74865000D03*
%TO.P,U4,49,VSS*%
%TO.N,GND*%
X166787000Y-74865000D03*
%TO.P,U4,50,VDD*%
%TO.N,3V3_EPS*%
X167287000Y-74865000D03*
D23*
%TO.P,U4,51,PB12*%
%TO.N,/FLT_5V_PAY*%
X168962000Y-76540000D03*
%TO.P,U4,52,PB13*%
%TO.N,/EN_5V_PAY*%
X168962000Y-77040000D03*
%TO.P,U4,53,PB14*%
%TO.N,/FLT_5V_EPS*%
X168962000Y-77540000D03*
%TO.P,U4,54,PB15*%
%TO.N,/EN_5V_EPS*%
X168962000Y-78040000D03*
%TO.P,U4,55,PD8*%
%TO.N,/FLT_12V_ADCS*%
X168962000Y-78540000D03*
%TO.P,U4,56,PD9*%
%TO.N,/EN_12V_ADCS*%
X168962000Y-79040000D03*
%TO.P,U4,57,PD10*%
%TO.N,/FLT_3V3_ADCS*%
X168962000Y-79540000D03*
%TO.P,U4,58,PD11*%
%TO.N,/EN_3V3_ADCS*%
X168962000Y-80040000D03*
%TO.P,U4,59,PD12*%
%TO.N,/FLT_5V_ADCS*%
X168962000Y-80540000D03*
%TO.P,U4,60,PD13*%
%TO.N,/EN_5V_ADCS*%
X168962000Y-81040000D03*
%TO.P,U4,61,PD14*%
%TO.N,/FLT_5V_OBC*%
X168962000Y-81540000D03*
%TO.P,U4,62,PD15*%
%TO.N,/EN_5V_OBC*%
X168962000Y-82040000D03*
%TO.P,U4,63,PC6*%
%TO.N,/EPS Control Unit/EPS_LED*%
X168962000Y-82540000D03*
%TO.P,U4,64,PC7*%
%TO.N,/FLT_3V3_EPS*%
X168962000Y-83040000D03*
%TO.P,U4,65,PC8*%
%TO.N,/EN_5V_COMM*%
X168962000Y-83540000D03*
%TO.P,U4,66,PC9*%
%TO.N,/FLT_5V_COMM*%
X168962000Y-84040000D03*
%TO.P,U4,67,PA8*%
%TO.N,/EN_3V3_ANT*%
X168962000Y-84540000D03*
%TO.P,U4,68,PA9*%
%TO.N,/FLT_3V3_ANT*%
X168962000Y-85040000D03*
%TO.P,U4,69,PA10*%
%TO.N,unconnected-(U4-PA10-Pad69)*%
X168962000Y-85540000D03*
%TO.P,U4,70,PA11*%
%TO.N,/USB_D-*%
X168962000Y-86040000D03*
%TO.P,U4,71,PA12*%
%TO.N,/USB_D+*%
X168962000Y-86540000D03*
%TO.P,U4,72,PA13*%
%TO.N,/SWDIO*%
X168962000Y-87040000D03*
%TO.P,U4,73,VDDUSB*%
%TO.N,3V3_EPS*%
X168962000Y-87540000D03*
%TO.P,U4,74,VSS*%
%TO.N,GND*%
X168962000Y-88040000D03*
%TO.P,U4,75,VDD*%
%TO.N,3V3_EPS*%
X168962000Y-88540000D03*
D24*
%TO.P,U4,76,PA14*%
%TO.N,/SWCLK*%
X167287000Y-90215000D03*
%TO.P,U4,77,PA15*%
%TO.N,/RESET_ADC*%
X166787000Y-90215000D03*
%TO.P,U4,78,PC10*%
%TO.N,unconnected-(U4-PC10-Pad78)*%
X166287000Y-90215000D03*
%TO.P,U4,79,PC11*%
%TO.N,unconnected-(U4-PC11-Pad79)*%
X165787000Y-90215000D03*
%TO.P,U4,80,PC12*%
%TO.N,unconnected-(U4-PC12-Pad80)*%
X165287000Y-90215000D03*
%TO.P,U4,81,PD0*%
%TO.N,/EPS Control Unit/CAN_RX*%
X164787000Y-90215000D03*
%TO.P,U4,82,PD1*%
%TO.N,/EPS Control Unit/CAN_TX*%
X164287000Y-90215000D03*
%TO.P,U4,83,PD2*%
%TO.N,/EPS Control Unit/CAN_SW_A*%
X163787000Y-90215000D03*
%TO.P,U4,84,PD3*%
%TO.N,/EPS Control Unit/CAN_SW_B*%
X163287000Y-90215000D03*
%TO.P,U4,85,PD4*%
%TO.N,unconnected-(U4-PD4-Pad85)*%
X162787000Y-90215000D03*
%TO.P,U4,86,PD5*%
%TO.N,/ANT_DEPLOY_STATUS*%
X162287000Y-90215000D03*
%TO.P,U4,87,PD6*%
%TO.N,/ANT_DEPLOY*%
X161787000Y-90215000D03*
%TO.P,U4,88,PD7*%
%TO.N,unconnected-(U4-PD7-Pad88)*%
X161287000Y-90215000D03*
%TO.P,U4,89,PB3*%
%TO.N,/UART1_RTS*%
X160787000Y-90215000D03*
%TO.P,U4,90,PB4*%
%TO.N,/UART1_CTS*%
X160287000Y-90215000D03*
%TO.P,U4,91,PB5*%
%TO.N,unconnected-(U4-PB5-Pad91)*%
X159787000Y-90215000D03*
%TO.P,U4,92,PB6*%
%TO.N,/UART1_TX*%
X159287000Y-90215000D03*
%TO.P,U4,93,PB7*%
%TO.N,/UART1_RX*%
X158787000Y-90215000D03*
%TO.P,U4,94,BOOT0*%
%TO.N,/EPS Control Unit/BOOT0*%
X158287000Y-90215000D03*
%TO.P,U4,95,PB8*%
%TO.N,/I2C1_SCL*%
X157787000Y-90215000D03*
%TO.P,U4,96,PB9*%
%TO.N,/I2C1_SDA*%
X157287000Y-90215000D03*
%TO.P,U4,97,PE0*%
%TO.N,unconnected-(U4-PE0-Pad97)*%
X156787000Y-90215000D03*
%TO.P,U4,98,PE1*%
%TO.N,unconnected-(U4-PE1-Pad98)*%
X156287000Y-90215000D03*
%TO.P,U4,99,VSS*%
%TO.N,GND*%
X155787000Y-90215000D03*
%TO.P,U4,100,VDD*%
%TO.N,3V3_EPS*%
X155287000Y-90215000D03*
%TD*%
D25*
%TO.P,U5,1,\u002ARESET*%
%TO.N,unconnected-(U5-\u002ARESET-Pad1)*%
X136785800Y-78809999D03*
%TO.P,U5,2,GND*%
%TO.N,GND*%
X136785800Y-79760000D03*
%TO.P,U5,3,RESET*%
%TO.N,/EPS Control Unit/WDI_RESET*%
X136785800Y-80710001D03*
%TO.P,U5,4,WDI*%
%TO.N,/EPS Control Unit/WDI*%
X134398200Y-80710001D03*
%TO.P,U5,5,VDD*%
%TO.N,3V3_EPS*%
X134398200Y-78809999D03*
%TD*%
D26*
%TO.P,C5,1*%
%TO.N,3V3_EPS*%
X151382000Y-84015000D03*
%TO.P,C5,2*%
%TO.N,GND*%
X151382000Y-85565000D03*
%TD*%
D22*
%TO.P,C4,1*%
%TO.N,3V3_EPS*%
X151542000Y-87160000D03*
%TO.P,C4,2*%
%TO.N,GND*%
X149992000Y-87160000D03*
%TD*%
D27*
%TO.P,R5,1*%
%TO.N,/EPS Control Unit/SW_BOOT0*%
X148937000Y-93320000D03*
%TO.P,R5,2*%
%TO.N,/EPS Control Unit/BOOT0*%
X150587000Y-93320000D03*
%TD*%
D28*
%TO.P,D5,1,K*%
%TO.N,5V_EPS*%
X197794499Y-97990000D03*
%TO.P,D5,2,A*%
%TO.N,GND*%
X199669501Y-97990000D03*
%TD*%
D18*
%TO.P,C28,1*%
%TO.N,GND*%
X182832000Y-127265000D03*
%TO.P,C28,2*%
%TO.N,Net-(U11-SS)*%
X182832000Y-125715000D03*
%TD*%
D29*
%TO.P,Q1,1,D*%
%TO.N,Net-(Q1-D)*%
X145182000Y-71490002D03*
%TO.P,Q1,2,G*%
%TO.N,/EPS Control Unit/PMOS1_GATE*%
X145182000Y-73390000D03*
%TO.P,Q1,3,S*%
%TO.N,5V_EPS*%
X142907000Y-72440001D03*
%TD*%
D26*
%TO.P,C24,1*%
%TO.N,GND*%
X182932000Y-120865000D03*
%TO.P,C24,2*%
%TO.N,Net-(U11-BYP)*%
X182932000Y-122415000D03*
%TD*%
D21*
%TO.P,R7,1*%
%TO.N,/EPS Control Unit/CAN_SW_B*%
X176032000Y-67040000D03*
%TO.P,R7,2*%
%TO.N,/EPS Control Unit/PMOS2_GATE*%
X174382000Y-67040000D03*
%TD*%
D29*
%TO.P,Q2,1,D*%
%TO.N,Net-(Q2-D)*%
X167582000Y-63190002D03*
%TO.P,Q2,2,G*%
%TO.N,/EPS Control Unit/PMOS2_GATE*%
X167582000Y-65090000D03*
%TO.P,Q2,3,S*%
%TO.N,5V_EPS*%
X165307000Y-64140001D03*
%TD*%
D30*
%TO.P,3V3_LED,1,K*%
%TO.N,Net-(D1-K)*%
X198757002Y-85990000D03*
%TO.P,3V3_LED,2,A*%
%TO.N,5V_EPS*%
X196882000Y-85990000D03*
%TD*%
D26*
%TO.P,C2,1*%
%TO.N,/3V3_LDO*%
X199282000Y-77240000D03*
%TO.P,C2,2*%
%TO.N,GND*%
X199282000Y-78790000D03*
%TD*%
D31*
%TO.P,J1,1,VBUS*%
%TO.N,VUSB*%
X201182000Y-107490000D03*
%TO.P,J1,2,D-*%
%TO.N,/USB_D-*%
X201182000Y-108140000D03*
%TO.P,J1,3,D+*%
%TO.N,/USB_D+*%
X201182000Y-108790000D03*
%TO.P,J1,4,ID*%
%TO.N,unconnected-(J1-ID-Pad4)*%
X201182000Y-109440000D03*
%TO.P,J1,5,GND*%
%TO.N,GND*%
X201182000Y-110090000D03*
D32*
%TO.P,J1,6,Shield*%
X203832000Y-105215000D03*
D33*
X201602000Y-106470000D03*
D34*
X203832000Y-107665000D03*
X203832000Y-109915000D03*
D33*
X201602000Y-111110000D03*
D32*
X203832000Y-112365000D03*
%TD*%
D35*
%TO.P,R6,1*%
%TO.N,/EPS Control Unit/PMOS2_GATE*%
X164665363Y-67373363D03*
%TO.P,R6,2*%
%TO.N,5V_EPS*%
X163498637Y-66206637D03*
%TD*%
D20*
%TO.P,R12,1*%
%TO.N,Net-(D3-K)*%
X200482000Y-88065000D03*
%TO.P,R12,2*%
%TO.N,GND*%
X200482000Y-89715000D03*
%TD*%
%TO.P,R3,1*%
%TO.N,/EPS Control Unit/PMOS1_GATE*%
X138082000Y-69865000D03*
%TO.P,R3,2*%
%TO.N,5V_EPS*%
X138082000Y-71515000D03*
%TD*%
D36*
%TO.P,120R1,1*%
%TO.N,+3.3VA*%
X146904500Y-77535000D03*
%TO.P,120R1,2*%
%TO.N,3V3_EPS*%
X145079500Y-77535000D03*
%TD*%
D16*
%TO.P,R2,1*%
%TO.N,/LED_CATHODE*%
X200482000Y-83190000D03*
%TO.P,R2,2*%
%TO.N,GND*%
X200482000Y-81540000D03*
%TD*%
D35*
%TO.P,R11,1*%
%TO.N,3V3_EPS*%
X181782000Y-63190000D03*
%TO.P,R11,2*%
%TO.N,/I2C2_SDA*%
X180615274Y-62023274D03*
%TD*%
D30*
%TO.P,5V_LED,1,K*%
%TO.N,/LED_CATHODE*%
X198857002Y-83890000D03*
%TO.P,5V_LED,2,A*%
%TO.N,3V3_EPS*%
X196982000Y-83890000D03*
%TD*%
%TO.P,HEARTBEAT,1,K*%
%TO.N,Net-(D3-K)*%
X198719501Y-88090000D03*
%TO.P,HEARTBEAT,2,A*%
%TO.N,/EPS Control Unit/EPS_LED*%
X196844499Y-88090000D03*
%TD*%
D27*
%TO.P,R9,1*%
%TO.N,3V3_EPS*%
X185632000Y-66590000D03*
%TO.P,R9,2*%
%TO.N,/I2C1_SCL*%
X187282000Y-66590000D03*
%TD*%
D26*
%TO.P,C12,1*%
%TO.N,+3.3VA*%
X149192000Y-77360000D03*
%TO.P,C12,2*%
%TO.N,GND*%
X149192000Y-78910000D03*
%TD*%
D27*
%TO.P,R13,1*%
%TO.N,/EPS Control Unit/WDI_RESET*%
X136967000Y-82560000D03*
%TO.P,R13,2*%
%TO.N,/EPS Control Unit/NRST*%
X138617000Y-82560000D03*
%TD*%
D37*
%TO.P,Y1,1,1*%
%TO.N,/EPS Control Unit/HSE_IN*%
X142992000Y-85060000D03*
%TO.P,Y1,2,2*%
%TO.N,GND*%
X142992000Y-82860000D03*
%TO.P,Y1,3,3*%
%TO.N,/EPS Control Unit/HSE_OUT*%
X144592000Y-82860000D03*
%TO.P,Y1,4,4*%
%TO.N,GND*%
X144592000Y-85060000D03*
%TD*%
D38*
%TO.P,U1,1,GND*%
%TO.N,GND*%
X196592000Y-80060000D03*
%TO.P,U1,2,VO*%
%TO.N,/3V3_LDO*%
X194292000Y-80059999D03*
D39*
X194292000Y-73760001D03*
D38*
%TO.P,U1,3,VI*%
%TO.N,VUSB*%
X191992000Y-80060000D03*
%TD*%
D19*
%TO.P,C9,1*%
%TO.N,3V3_EPS*%
X154767000Y-92050000D03*
%TO.P,C9,2*%
%TO.N,GND*%
X156317000Y-92050000D03*
%TD*%
D22*
%TO.P,C7,1*%
%TO.N,3V3_EPS*%
X169167000Y-72760000D03*
%TO.P,C7,2*%
%TO.N,GND*%
X167617000Y-72760000D03*
%TD*%
D16*
%TO.P,R4,1*%
%TO.N,/EPS Control Unit/CAN_SW_A*%
X136182000Y-73440000D03*
%TO.P,R4,2*%
%TO.N,/EPS Control Unit/PMOS1_GATE*%
X136182000Y-71790000D03*
%TD*%
D26*
%TO.P,C15,1*%
%TO.N,/EPS Control Unit/HSE_IN*%
X146992000Y-85060000D03*
%TO.P,C15,2*%
%TO.N,GND*%
X146992000Y-86610000D03*
%TD*%
D19*
%TO.P,C3,1*%
%TO.N,3V3_EPS*%
X158407000Y-72990000D03*
%TO.P,C3,2*%
%TO.N,GND*%
X159957000Y-72990000D03*
%TD*%
D40*
%TO.P,SW1,1,A*%
%TO.N,GND*%
X118852000Y-67120000D03*
%TO.P,SW1,2,B*%
%TO.N,/EPS Control Unit/SW_BOOT0*%
X118852000Y-70520000D03*
D41*
%TO.P,SW1,3,C*%
%TO.N,3V3_EPS*%
X120492000Y-68820000D03*
%TD*%
D19*
%TO.P,C8,1*%
%TO.N,3V3_EPS*%
X170862000Y-89390000D03*
%TO.P,C8,2*%
%TO.N,GND*%
X172412000Y-89390000D03*
%TD*%
D22*
%TO.P,C6,1*%
%TO.N,3V3_EPS*%
X156867000Y-72970000D03*
%TO.P,C6,2*%
%TO.N,GND*%
X155317000Y-72970000D03*
%TD*%
D17*
%TO.P,U3,1,TXD*%
%TO.N,/EPS Control Unit/CAN_TX*%
X158787000Y-67633800D03*
%TO.P,U3,2,GND*%
%TO.N,GND*%
X157517000Y-67633800D03*
%TO.P,U3,3,VCC*%
%TO.N,Net-(Q2-D)*%
X156247000Y-67633800D03*
%TO.P,U3,4,RXD*%
%TO.N,/EPS Control Unit/CAN_RX*%
X154977000Y-67633800D03*
%TO.P,U3,5,VRXD*%
%TO.N,3V3_EPS*%
X154977000Y-62706200D03*
%TO.P,U3,6,CANL*%
%TO.N,/CAN_B_L*%
X156247000Y-62706200D03*
%TO.P,U3,7,CANH*%
%TO.N,/CAN_B_H*%
X157517000Y-62706200D03*
%TO.P,U3,8,S*%
%TO.N,GND*%
X158787000Y-62706200D03*
%TD*%
D22*
%TO.P,C14,1*%
%TO.N,/EPS Control Unit/NRST*%
X151687000Y-81330000D03*
%TO.P,C14,2*%
%TO.N,GND*%
X150137000Y-81330000D03*
%TD*%
D20*
%TO.P,R10,1*%
%TO.N,3V3_EPS*%
X177182000Y-60390000D03*
%TO.P,R10,2*%
%TO.N,/I2C2_SCL*%
X177182000Y-62040000D03*
%TD*%
D26*
%TO.P,C11,1*%
%TO.N,+3.3VA*%
X151192000Y-77360000D03*
%TO.P,C11,2*%
%TO.N,GND*%
X151192000Y-78910000D03*
%TD*%
D42*
%TO.N,3V3_EPS*%
X138958472Y-89613530D03*
X139282000Y-76190000D03*
X152882000Y-64290000D03*
D43*
X187169500Y-93852500D03*
X139307000Y-86865000D03*
D42*
X197182000Y-111215000D03*
D43*
X190332000Y-99765000D03*
D42*
X153182000Y-60990000D03*
D43*
X153807000Y-93365000D03*
X133682000Y-76890000D03*
X182982000Y-64390000D03*
D42*
X179282000Y-84890000D03*
X154682000Y-71890000D03*
D43*
X129962000Y-76890000D03*
D42*
X170382000Y-90590000D03*
X170857000Y-98140000D03*
D43*
X188232000Y-101990000D03*
X140782000Y-88150659D03*
D42*
X170082000Y-71090000D03*
D43*
%TO.N,GND*%
X178632000Y-96390000D03*
X174168675Y-87728325D03*
X139282000Y-122990000D03*
X168832000Y-118040000D03*
D42*
X181546798Y-79879798D03*
D43*
X124232000Y-48865000D03*
D42*
X150182000Y-104590000D03*
D43*
X188382000Y-97590000D03*
X159982000Y-71890000D03*
D42*
X171282000Y-102990000D03*
D43*
X148719347Y-69952653D03*
X138782000Y-79690000D03*
D42*
X201882000Y-83790000D03*
D43*
X178857000Y-69390000D03*
X184682000Y-134065000D03*
X199032000Y-99790000D03*
X203057000Y-124715000D03*
X159182000Y-60865000D03*
X120782000Y-94665000D03*
X166057000Y-118815000D03*
X166482000Y-125540000D03*
X169332000Y-125540000D03*
X188207000Y-70190000D03*
X193132000Y-65790000D03*
X136382000Y-102790000D03*
X181982000Y-134140000D03*
X144682000Y-122990000D03*
X151382000Y-60965000D03*
X157607000Y-65865000D03*
X194907000Y-48840000D03*
X198682000Y-80090000D03*
D42*
X201682000Y-80390000D03*
D43*
X115457000Y-79290000D03*
D42*
X140382000Y-105690000D03*
D43*
X138482000Y-126590000D03*
X197682000Y-81490000D03*
X183307000Y-132140000D03*
X166732000Y-112040000D03*
X157682000Y-102790000D03*
X148822000Y-81310000D03*
X148982000Y-85790000D03*
X167982000Y-97965000D03*
X156982000Y-76590000D03*
D42*
X151082000Y-105490000D03*
D43*
X200982000Y-117165000D03*
X169132000Y-122690000D03*
X148342000Y-86650000D03*
X184407000Y-121665000D03*
X145482000Y-118190000D03*
X190257000Y-117740000D03*
X167807000Y-71740000D03*
X144782000Y-114890000D03*
X170882000Y-96465000D03*
X191332000Y-126940000D03*
X180744500Y-71127500D03*
X143182000Y-116190000D03*
X171703831Y-67711831D03*
X145672000Y-81190000D03*
D42*
X179250481Y-97890000D03*
D43*
X132857000Y-48465000D03*
D42*
X140282000Y-98790000D03*
D43*
X141682000Y-122890000D03*
X182857000Y-128665000D03*
X144682000Y-120290000D03*
X142282000Y-112690000D03*
X126082000Y-102690000D03*
X169282000Y-74190000D03*
X167312000Y-88040000D03*
X121682000Y-66990000D03*
X144602000Y-86660000D03*
X203732000Y-56790000D03*
X191682000Y-133665000D03*
X189707000Y-92290000D03*
X140082000Y-117490000D03*
D42*
X155182000Y-83890000D03*
D43*
X181457000Y-129115000D03*
X173339299Y-80840000D03*
D42*
X129782000Y-105590000D03*
D43*
X197182000Y-115190000D03*
X191682000Y-97390000D03*
X193007000Y-127865000D03*
D42*
X195282000Y-82190000D03*
D43*
X131757000Y-115015000D03*
X167732000Y-119790000D03*
X143012000Y-81280000D03*
X150707000Y-96840000D03*
D42*
X143482000Y-79490000D03*
D43*
X115657000Y-136890000D03*
D42*
X171582000Y-104390000D03*
D43*
X136907000Y-112315000D03*
D42*
X161482000Y-103490000D03*
X145682000Y-79590000D03*
D43*
X167682000Y-124090000D03*
D42*
X147382000Y-79490000D03*
X130082000Y-98090000D03*
D43*
X178956446Y-77586216D03*
X194507000Y-126765000D03*
X140382000Y-125090000D03*
D42*
X140282000Y-100590000D03*
D43*
X185332000Y-48365000D03*
X191782000Y-95990000D03*
X128632000Y-70615000D03*
X143982000Y-112390000D03*
D42*
X199082000Y-91290000D03*
D43*
X160482000Y-97815000D03*
X196482000Y-127415000D03*
X174107000Y-88765000D03*
X118982000Y-58540000D03*
D42*
X129382000Y-102090000D03*
X180482000Y-105690000D03*
D43*
X156482914Y-88728022D03*
X168882000Y-112890000D03*
X144182000Y-125690000D03*
X141882000Y-119090000D03*
D42*
X141982000Y-78890000D03*
D43*
X140682000Y-136190000D03*
D42*
X161182000Y-105290000D03*
X179382000Y-104640000D03*
D43*
X190382000Y-110515000D03*
X146782000Y-102990000D03*
X139682000Y-120490000D03*
X196382000Y-82190000D03*
X203282000Y-63465000D03*
D42*
X151182000Y-103790000D03*
D43*
X137782000Y-118790000D03*
X135082000Y-64540000D03*
%TO.N,Net-(U11-BYP)*%
X182832000Y-123540000D03*
%TO.N,Net-(U11-SS)*%
X182882000Y-124540000D03*
%TO.N,/EPS Power Distribution/3.3V_BUS*%
X134482000Y-110290000D03*
X135382000Y-115790000D03*
%TO.N,/EPS Power Distribution/1.25VREF*%
X189432000Y-75340000D03*
X182882000Y-78690000D03*
%TO.N,/EPS Power Distribution/5V_BUS*%
X164282000Y-117190000D03*
X163832000Y-109690000D03*
%TO.N,/EPS Control Unit/EPS_LED*%
X178882000Y-85890000D03*
D42*
X173382000Y-82090001D03*
D43*
X190382000Y-87090000D03*
X192182000Y-87090000D03*
%TO.N,/5V_ADCS*%
X188082000Y-87515000D03*
X169282000Y-62290000D03*
%TO.N,/UART1_CTS*%
X159392000Y-85360000D03*
%TO.N,5V_EPS*%
X151982000Y-70990000D03*
X148382000Y-72890000D03*
D42*
X192982000Y-85790000D03*
D43*
X191382000Y-107040000D03*
X162182000Y-70590000D03*
X149782000Y-71490000D03*
X167982000Y-100440000D03*
D42*
X196782000Y-101640000D03*
D43*
X162282000Y-64390000D03*
X162282000Y-61140000D03*
X155732000Y-70940000D03*
%TO.N,/UART1_RTS*%
X156182000Y-82790000D03*
%TO.N,/5V_PAY*%
X160882000Y-64690000D03*
X160882000Y-61090000D03*
%TO.N,/I2C1_SCL*%
X174982000Y-84675000D03*
X158192000Y-88360000D03*
%TO.N,/12V_ADCS*%
X167682000Y-60390000D03*
D42*
X184582000Y-63090000D03*
X174982000Y-60990000D03*
D43*
X186457000Y-64590000D03*
%TO.N,/5V_OBC*%
X170915764Y-75887293D03*
X164282000Y-61090000D03*
D42*
X173982246Y-61690000D03*
X175482000Y-64690000D03*
D43*
%TO.N,/ANT_DEPLOY*%
X139082000Y-63590000D03*
D42*
X139681962Y-67277827D03*
X141752711Y-69350661D03*
D43*
X161515000Y-87390000D03*
D42*
%TO.N,/ANT_DEPLOY_STATUS*%
X141582000Y-65690000D03*
D43*
X141482000Y-61090000D03*
D42*
X143632000Y-67740000D03*
D43*
X161882000Y-86290000D03*
%TO.N,/SWDIO*%
X165432000Y-83590000D03*
%TO.N,/RESET_ADC*%
X183982000Y-69990000D03*
X179273611Y-92666157D03*
X184641998Y-81265000D03*
X182482000Y-92490000D03*
%TO.N,/EPS Control Unit/PMOS2_GATE*%
X173782000Y-65390000D03*
X170582000Y-62190000D03*
D42*
%TO.N,Net-(Q2-D)*%
X159682000Y-64190000D03*
X167082000Y-62090000D03*
D43*
%TO.N,/EPS Control Unit/CAN_SW_A*%
X136582000Y-75890000D03*
X139882000Y-82490000D03*
X137882000Y-77090000D03*
X143132000Y-87910000D03*
X139782000Y-80190000D03*
X166882000Y-93540000D03*
%TO.N,/EPS Control Unit/SW_BOOT0*%
X146682000Y-96690000D03*
X147194500Y-93452500D03*
%TO.N,/EPS Control Unit/CAN_SW_B*%
X168282000Y-94290000D03*
X174828293Y-82896955D03*
X176430959Y-65541041D03*
X170782000Y-93590000D03*
X177036999Y-91090000D03*
X178207000Y-64490000D03*
D42*
%TO.N,/FLT_3V3_ADCS*%
X165982000Y-79765000D03*
X141132000Y-90890000D03*
%TO.N,/FLT_3V3_ANT*%
X159004702Y-94512702D03*
X171616873Y-84815000D03*
D43*
X127382000Y-102990000D03*
D42*
X123182000Y-97190000D03*
X165382000Y-91870000D03*
%TO.N,/FLT_3V3_EPS*%
X135486999Y-95090000D03*
X139382000Y-91090000D03*
X165507000Y-82642963D03*
X133582000Y-96890000D03*
D43*
X137907000Y-103515000D03*
%TO.N,/FLT_5V_PAY*%
X171282000Y-76890000D03*
X156832000Y-85640000D03*
D42*
%TO.N,/FLT_5V_EPS*%
X172182000Y-75990000D03*
D43*
X167337002Y-98740000D03*
D42*
X165217000Y-97390000D03*
%TO.N,/FLT_5V_OBC*%
X167207000Y-81081452D03*
D43*
%TO.N,/FLT_5V_ADCS*%
X188982000Y-89156637D03*
%TO.N,/EPS Power Distribution/ILM_3V3_ADCS*%
X173282003Y-79265000D03*
X142982000Y-93040000D03*
%TO.N,/EPS Power Distribution/ILM_3V3_ANT*%
X172282000Y-79265000D03*
X123282000Y-94390000D03*
D42*
%TO.N,/FLT_5V_COMM*%
X170981445Y-83224978D03*
X183982000Y-97490000D03*
X172782000Y-91690000D03*
D43*
%TO.N,/FLT_12V_ADCS*%
X196236999Y-109565000D03*
X194182000Y-109490000D03*
D42*
X174366804Y-79263892D03*
D43*
%TO.N,/EPS Power Distribution/ILM_3V3_EPS*%
X133582000Y-95490000D03*
X180782000Y-84690000D03*
%TO.N,/EPS Power Distribution/ILM_5V_PAY*%
X151932000Y-94144259D03*
X181182000Y-93990000D03*
%TO.N,/EPS Power Distribution/ILM_5V_EPS*%
X163182000Y-95490000D03*
X182032000Y-85990000D03*
%TO.N,/EPS Power Distribution/ILM_5V_OBC*%
X172986017Y-76694017D03*
X174332000Y-91515000D03*
%TO.N,/EPS Power Distribution/ILM_5V_ADCS*%
X186482000Y-88890000D03*
X177982000Y-79536216D03*
%TO.N,/EPS Power Distribution/ILM_12V_ADCS*%
X183851932Y-73295068D03*
X186582000Y-76390000D03*
%TO.N,/EPS Control Unit/CAN_TX*%
X154532000Y-70050000D03*
X152882000Y-70000000D03*
X161101285Y-84085928D03*
X157422000Y-70090000D03*
%TO.N,/EN_5V_COMM*%
X168582000Y-90490000D03*
X166907000Y-83590000D03*
D42*
X180282000Y-99490000D03*
D43*
X184082000Y-107490000D03*
D42*
X180282000Y-97890000D03*
%TO.N,/EN_3V3_ADCS*%
X165982000Y-80665003D03*
X141076975Y-86395025D03*
D43*
%TO.N,/STATUS_5V*%
X164832000Y-120090000D03*
X159352000Y-77615000D03*
X138007000Y-98215000D03*
X144307000Y-74740000D03*
D42*
%TO.N,/EN_12V_ADCS*%
X177786999Y-106390000D03*
D43*
X194132000Y-119940000D03*
X171182000Y-79580000D03*
%TO.N,/EN_5V_PAY*%
X164982000Y-77815000D03*
X155901669Y-84670331D03*
%TO.N,/SPI_MOSI*%
X164682000Y-72590000D03*
%TO.N,/RDY_ADC*%
X163032000Y-72390000D03*
D42*
%TO.N,/EN_5V_ADCS*%
X182382000Y-87790000D03*
X189182000Y-98990000D03*
X184582000Y-94290000D03*
X172314992Y-81659387D03*
X179332000Y-87590000D03*
D43*
%TO.N,/EN_5V_OBC*%
X166493903Y-82042859D03*
%TO.N,/STATUS_3V3*%
X136482000Y-121590000D03*
X146251669Y-75020331D03*
X148982000Y-110390000D03*
X151782000Y-73790000D03*
X159282000Y-69990000D03*
X149482000Y-98515000D03*
X146682000Y-112490000D03*
X151633041Y-90340000D03*
X153543182Y-90128818D03*
%TO.N,/SPI_MISO*%
X163882000Y-71752431D03*
%TO.N,/EPS Control Unit/WDI*%
X158278384Y-80015725D03*
X150852000Y-75870000D03*
D42*
%TO.N,/EN_3V3_ANT*%
X127082000Y-84890000D03*
X170682000Y-84540000D03*
D43*
X121982000Y-107290000D03*
D42*
X159402000Y-78955407D03*
X161782000Y-82690000D03*
D43*
%TO.N,/SHDN_12V*%
X185157000Y-124365000D03*
X162657000Y-76790000D03*
X155132000Y-79615000D03*
X175982000Y-111590000D03*
%TO.N,/EN_5V_EPS*%
X164126975Y-107245025D03*
X162582000Y-80990000D03*
X161082000Y-93390000D03*
%TO.N,/SPI_SCLK*%
X170682000Y-74915000D03*
%TO.N,/SPI_CS*%
X163787000Y-76795000D03*
%TO.N,/SWCLK*%
X165532000Y-81501664D03*
%TO.N,/VBUS*%
X125057000Y-126315000D03*
X119407000Y-80515000D03*
X118182000Y-107890000D03*
X118057000Y-119865000D03*
X119007000Y-125265000D03*
X118132000Y-77040000D03*
X118882000Y-115040000D03*
X122107000Y-126115000D03*
X117982000Y-99140000D03*
X118232000Y-90590000D03*
X119507000Y-85340000D03*
X119057000Y-111715000D03*
%TO.N,/I2C1_SDA*%
X176075403Y-85489871D03*
D42*
X159665000Y-88410000D03*
%TD*%
D44*
%TO.N,VUSB*%
X191182000Y-98197968D02*
X191182000Y-99915000D01*
X191182000Y-99915000D02*
X198757000Y-107490000D01*
X198757000Y-107490000D02*
X200427000Y-107490000D01*
X188857000Y-95872968D02*
X191182000Y-98197968D01*
X188857000Y-91240000D02*
X188857000Y-95872968D01*
X191332000Y-85345000D02*
X191332000Y-88765000D01*
X193517000Y-83160000D02*
X191332000Y-85345000D01*
X191332000Y-88765000D02*
X188857000Y-91240000D01*
%TO.N,+3.3VA*%
X149192000Y-77360000D02*
X151192000Y-77360000D01*
X149017000Y-77535000D02*
X149192000Y-77360000D01*
X146904500Y-77535000D02*
X149017000Y-77535000D01*
D45*
X151872000Y-78040000D02*
X153612000Y-78040000D01*
X151192000Y-77360000D02*
X151872000Y-78040000D01*
D44*
%TO.N,3V3_EPS*%
X153457000Y-92565000D02*
X154252000Y-92565000D01*
X151427828Y-87160000D02*
X151542000Y-87160000D01*
X196982000Y-83640220D02*
X202982000Y-77640220D01*
X191502133Y-50205000D02*
X194182000Y-52884867D01*
D45*
X170647000Y-87550000D02*
X170887000Y-87790000D01*
X151601880Y-87160000D02*
X152711880Y-86050000D01*
D44*
X188029918Y-96035836D02*
X190332000Y-98337918D01*
X153582000Y-93365000D02*
X153257000Y-93040000D01*
X123382000Y-76890000D02*
X129962000Y-76890000D01*
X133782000Y-76990000D02*
X133782000Y-78193799D01*
X195032000Y-108790000D02*
X188232000Y-101990000D01*
X191207000Y-75225661D02*
X191207000Y-66690000D01*
D45*
X156867000Y-72970000D02*
X157357000Y-72970000D01*
D44*
X147137000Y-62766200D02*
X147137000Y-63477400D01*
X155787000Y-71890000D02*
X154682000Y-71890000D01*
X153257000Y-93040000D02*
X153257000Y-92765000D01*
X150407000Y-86139172D02*
X151427828Y-87160000D01*
D45*
X170887000Y-89365000D02*
X170862000Y-89390000D01*
D44*
X176882000Y-50205000D02*
X176582000Y-50205000D01*
D45*
X168965000Y-88550000D02*
X170022000Y-88550000D01*
D44*
X170862000Y-89390000D02*
X170862000Y-90110000D01*
X154382000Y-64290000D02*
X154977000Y-63695000D01*
D45*
X152711880Y-86050000D02*
X153615000Y-86050000D01*
D44*
X174585463Y-63525876D02*
X181446124Y-63525876D01*
X149982000Y-90090000D02*
X152457000Y-92565000D01*
X154252000Y-92565000D02*
X154767000Y-92050000D01*
X167037000Y-57555000D02*
X167037000Y-50869867D01*
X139434942Y-90090000D02*
X149982000Y-90090000D01*
X140592659Y-88150659D02*
X139307000Y-86865000D01*
X170082000Y-68029339D02*
X174585463Y-63525876D01*
X156867000Y-72970000D02*
X158387000Y-72970000D01*
D45*
X155287000Y-91530000D02*
X154767000Y-92050000D01*
D44*
X188029918Y-94712918D02*
X188029918Y-96035836D01*
D45*
X170887000Y-87790000D02*
X170887000Y-89365000D01*
D44*
X177482000Y-50205000D02*
X177182000Y-50505000D01*
X154977000Y-63695000D02*
X154977000Y-62706200D01*
X183382000Y-50205000D02*
X191502133Y-50205000D01*
D45*
X155287000Y-86811880D02*
X155287000Y-90215000D01*
D44*
X196182000Y-111215000D02*
X195032000Y-110065000D01*
X194182000Y-52884867D02*
X194182000Y-58490000D01*
X183382000Y-50205000D02*
X183882133Y-50205000D01*
D45*
X151542000Y-87160000D02*
X151601880Y-87160000D01*
X170022000Y-88550000D02*
X170862000Y-89390000D01*
D44*
X165632000Y-58960000D02*
X167037000Y-57555000D01*
X154977000Y-62706200D02*
X154977000Y-61685000D01*
X184547000Y-50869867D02*
X184547000Y-60425000D01*
X202982000Y-73850000D02*
X201682000Y-72550000D01*
X190332000Y-98337918D02*
X190332000Y-99765000D01*
X177182000Y-50505000D02*
X176882000Y-50205000D01*
X195032000Y-110065000D02*
X195032000Y-108790000D01*
D45*
X182982000Y-64390000D02*
X183157000Y-64565000D01*
D44*
X201682000Y-72550000D02*
X198242000Y-72550000D01*
X179282000Y-84890000D02*
X186457000Y-77715000D01*
X184547000Y-60425000D02*
X181782000Y-63190000D01*
X145079500Y-77535000D02*
X143734500Y-76190000D01*
X120682000Y-74190000D02*
X123382000Y-76890000D01*
X169167000Y-72760000D02*
X169167000Y-72005000D01*
X198242000Y-72550000D02*
X192382000Y-66690000D01*
X169167000Y-72005000D02*
X170082000Y-71090000D01*
X170862000Y-90110000D02*
X170382000Y-90590000D01*
X177482000Y-50205000D02*
X183382000Y-50205000D01*
X188717661Y-77715000D02*
X191207000Y-75225661D01*
X143167000Y-77535000D02*
X145079500Y-77535000D01*
X120492000Y-74000000D02*
X120682000Y-74190000D01*
X167037000Y-50869867D02*
X167701867Y-50205000D01*
X140782000Y-88150659D02*
X140592659Y-88150659D01*
X183882133Y-50205000D02*
X184547000Y-50869867D01*
X120492000Y-68820000D02*
X120492000Y-74000000D01*
X156867000Y-72970000D02*
X155787000Y-71890000D01*
X138958472Y-89613530D02*
X139434942Y-90090000D01*
X182982000Y-64390000D02*
X185182000Y-66590000D01*
X143734500Y-76190000D02*
X139282000Y-76190000D01*
X185182000Y-66590000D02*
X185632000Y-66590000D01*
X151307000Y-84290000D02*
X150407000Y-85190000D01*
D45*
X151592000Y-84305000D02*
X152347000Y-83550000D01*
D44*
X152457000Y-92565000D02*
X153457000Y-92565000D01*
X170082000Y-71090000D02*
X170082000Y-68029339D01*
X194182000Y-58490000D02*
X195242001Y-59550001D01*
X151592000Y-84305000D02*
X151567000Y-84305000D01*
X133682000Y-76890000D02*
X133782000Y-76990000D01*
D45*
X156562000Y-72970000D02*
X156867000Y-72970000D01*
X156290000Y-73242000D02*
X156562000Y-72970000D01*
D44*
X133782000Y-78193799D02*
X134398200Y-78809999D01*
X187169500Y-93852500D02*
X188029918Y-94712918D01*
X176582000Y-50205000D02*
X177482000Y-50205000D01*
D45*
X181446124Y-63525876D02*
X181782000Y-63190000D01*
D44*
X153807000Y-93365000D02*
X153582000Y-93365000D01*
X147137000Y-63477400D02*
X147949600Y-64290000D01*
X171407000Y-98690000D02*
X184932000Y-98690000D01*
X154282000Y-60990000D02*
X153182000Y-60990000D01*
X202982000Y-77640220D02*
X202982000Y-73850000D01*
D45*
X168965000Y-87550000D02*
X170647000Y-87550000D01*
D44*
X147949600Y-64290000D02*
X152882000Y-64290000D01*
X152882000Y-64290000D02*
X154382000Y-64290000D01*
X170857000Y-98140000D02*
X171407000Y-98690000D01*
D45*
X152347000Y-83550000D02*
X153615000Y-83550000D01*
D44*
X153257000Y-92765000D02*
X153457000Y-92565000D01*
X167701867Y-50205000D02*
X176582000Y-50205000D01*
X184632000Y-91315000D02*
X187169500Y-93852500D01*
X197182000Y-111215000D02*
X196182000Y-111215000D01*
X154977000Y-61685000D02*
X154282000Y-60990000D01*
X158387000Y-72970000D02*
X158407000Y-72990000D01*
X150407000Y-85190000D02*
X150407000Y-86139172D01*
D46*
X169167000Y-72985000D02*
X169167000Y-72760000D01*
D45*
X156290000Y-74875000D02*
X156290000Y-73242000D01*
X153612000Y-86040000D02*
X154515120Y-86040000D01*
X155287000Y-90215000D02*
X155287000Y-91530000D01*
X154515120Y-86040000D02*
X155287000Y-86811880D01*
D46*
X167287000Y-74865000D02*
X169167000Y-72985000D01*
D44*
X186457000Y-77715000D02*
X188717661Y-77715000D01*
X192382000Y-66690000D02*
X191207000Y-66690000D01*
X177182000Y-50505000D02*
X177182000Y-60390000D01*
X196982000Y-83890000D02*
X196982000Y-83640220D01*
X195242001Y-59550001D02*
X196632000Y-59550001D01*
X181782000Y-63190000D02*
X182982000Y-64390000D01*
X184932000Y-98690000D02*
X188232000Y-101990000D01*
%TO.N,GND*%
X200532000Y-81540000D02*
X201682000Y-80390000D01*
D45*
X142992000Y-81300000D02*
X143012000Y-81280000D01*
X149992000Y-86800000D02*
X148982000Y-85790000D01*
X172412000Y-89390000D02*
X173482000Y-89390000D01*
D46*
X155787000Y-89347236D02*
X156406214Y-88728022D01*
D45*
X174168675Y-87728325D02*
X174107000Y-87790000D01*
X168965000Y-88050000D02*
X167322000Y-88050000D01*
X149992000Y-87160000D02*
X149992000Y-86800000D01*
X138712000Y-79760000D02*
X138782000Y-79690000D01*
X156982000Y-76590000D02*
X156282000Y-76590000D01*
D46*
X155787000Y-90215000D02*
X155787000Y-89347236D01*
D45*
X149192000Y-78910000D02*
X142992000Y-78910000D01*
D44*
X200482000Y-84665000D02*
X201007000Y-84665000D01*
D45*
X157607000Y-65865000D02*
X157517000Y-65955000D01*
X142992000Y-82860000D02*
X142992000Y-81300000D01*
D46*
X166787000Y-73590000D02*
X166787000Y-74865000D01*
D45*
X183607000Y-120865000D02*
X182932000Y-120865000D01*
X136785800Y-79760000D02*
X138712000Y-79760000D01*
X150947000Y-61400000D02*
X151382000Y-60965000D01*
X174107000Y-87790000D02*
X172437000Y-87790000D01*
X151822000Y-79540000D02*
X151192000Y-78910000D01*
X182832000Y-128640000D02*
X182857000Y-128665000D01*
X155790000Y-73443000D02*
X155790000Y-74875000D01*
X148842000Y-81330000D02*
X148822000Y-81310000D01*
X182832000Y-127265000D02*
X182832000Y-128640000D01*
D44*
X200482000Y-81540000D02*
X200532000Y-81540000D01*
D45*
X151592000Y-85855000D02*
X152132000Y-85315000D01*
D44*
X201007000Y-84665000D02*
X201882000Y-83790000D01*
D46*
X153612000Y-84040000D02*
X155032000Y-84040000D01*
D45*
X158787000Y-62706200D02*
X158787000Y-61260000D01*
X149677000Y-68995000D02*
X148719347Y-69952653D01*
D44*
X118982000Y-66990000D02*
X118852000Y-67120000D01*
D45*
X149677000Y-67693800D02*
X149677000Y-68995000D01*
D46*
X196792000Y-53560000D02*
X196792000Y-53126726D01*
D45*
X151192000Y-78910000D02*
X149192000Y-78910000D01*
X184407000Y-121665000D02*
X183607000Y-120865000D01*
D44*
X199669501Y-99152499D02*
X199032000Y-99790000D01*
D46*
X167617000Y-72760000D02*
X166787000Y-73590000D01*
D45*
X155317000Y-72970000D02*
X155790000Y-73443000D01*
X173482000Y-89390000D02*
X174107000Y-88765000D01*
D44*
X199082000Y-91290000D02*
X199082000Y-91115000D01*
D45*
X152132000Y-85315000D02*
X152132000Y-84740000D01*
X156282000Y-76590000D02*
X155787000Y-76095000D01*
X152132000Y-84740000D02*
X152822000Y-84050000D01*
D46*
X155032000Y-84040000D02*
X155182000Y-83890000D01*
D44*
X199669501Y-97990000D02*
X199669501Y-99152499D01*
D45*
X142992000Y-78910000D02*
X141617000Y-77535000D01*
X167807000Y-71740000D02*
X167617000Y-71930000D01*
X158787000Y-61260000D02*
X159182000Y-60865000D01*
X148302000Y-86610000D02*
X148342000Y-86650000D01*
X150947000Y-62766200D02*
X150947000Y-61400000D01*
X144592000Y-85060000D02*
X144592000Y-86650000D01*
X157517000Y-65955000D02*
X157517000Y-67633800D01*
X152822000Y-84050000D02*
X153615000Y-84050000D01*
X146992000Y-81185000D02*
X145677000Y-81185000D01*
X159957000Y-71915000D02*
X159982000Y-71890000D01*
X159957000Y-72990000D02*
X159957000Y-71915000D01*
X155790000Y-90225000D02*
X155790000Y-91523000D01*
X155317000Y-72970000D02*
X155402000Y-72970000D01*
X150137000Y-81330000D02*
X148842000Y-81330000D01*
X155790000Y-91523000D02*
X156317000Y-92050000D01*
X167617000Y-71930000D02*
X167617000Y-72760000D01*
X155402000Y-72970000D02*
X155632000Y-73200000D01*
X145677000Y-81185000D02*
X145672000Y-81190000D01*
D44*
X121682000Y-66990000D02*
X118982000Y-66990000D01*
D45*
X153612000Y-79540000D02*
X151822000Y-79540000D01*
X146992000Y-86610000D02*
X148302000Y-86610000D01*
D44*
X199082000Y-91115000D02*
X200482000Y-89715000D01*
D45*
X167322000Y-88050000D02*
X167312000Y-88040000D01*
X144592000Y-86650000D02*
X144602000Y-86660000D01*
D46*
X156406214Y-88728022D02*
X156482914Y-88728022D01*
D45*
X155787000Y-76095000D02*
X155787000Y-74865000D01*
%TO.N,VUSB*%
X201182000Y-107490000D02*
X200682000Y-107490000D01*
D44*
%TO.N,/3V3_LDO*%
X194292000Y-74100000D02*
X194292000Y-73760001D01*
X201682000Y-75090000D02*
X201432000Y-75090000D01*
D45*
%TO.N,/EPS Control Unit/NRST*%
X140792000Y-80385000D02*
X150742000Y-80385000D01*
X150742000Y-80385000D02*
X151687000Y-81330000D01*
X138617000Y-82560000D02*
X140792000Y-80385000D01*
X151687000Y-81330000D02*
X152407000Y-82050000D01*
X152407000Y-82050000D02*
X153615000Y-82050000D01*
%TO.N,/EPS Control Unit/HSE_IN*%
X145942000Y-84010000D02*
X143502000Y-84010000D01*
X142992000Y-84520000D02*
X142992000Y-85060000D01*
X146992000Y-85060000D02*
X145942000Y-84010000D01*
X149002000Y-83050000D02*
X146992000Y-85060000D01*
X143502000Y-84010000D02*
X142992000Y-84520000D01*
X153615000Y-83050000D02*
X149002000Y-83050000D01*
%TO.N,/EPS Control Unit/HSE_OUT*%
X146992000Y-82735000D02*
X144717000Y-82735000D01*
X147892000Y-82550000D02*
X147707000Y-82735000D01*
X147177000Y-82920000D02*
X146992000Y-82735000D01*
X144717000Y-82735000D02*
X144592000Y-82860000D01*
X153615000Y-82550000D02*
X147892000Y-82550000D01*
X147707000Y-82735000D02*
X146992000Y-82735000D01*
%TO.N,Net-(U11-BYP)*%
X182832000Y-122515000D02*
X182932000Y-122415000D01*
X182832000Y-123540000D02*
X182832000Y-122515000D01*
%TO.N,Net-(U11-SS)*%
X182882000Y-125665000D02*
X182832000Y-125715000D01*
X182882000Y-124540000D02*
X182882000Y-125665000D01*
%TO.N,/EPS Power Distribution/3.3V_BUS*%
X135382000Y-111190000D02*
X134482000Y-110290000D01*
X135382000Y-115790000D02*
X135382000Y-111190000D01*
D44*
%TO.N,/EPS Power Distribution/1.25VREF*%
X189357000Y-75415000D02*
X186157000Y-75415000D01*
X189432000Y-75340000D02*
X189357000Y-75415000D01*
X186157000Y-75415000D02*
X182882000Y-78690000D01*
D45*
%TO.N,/EPS Power Distribution/5V_BUS*%
X164282000Y-117190000D02*
X163832000Y-116740000D01*
X163832000Y-116740000D02*
X163832000Y-109690000D01*
D46*
%TO.N,/LED_CATHODE*%
X198857002Y-83890000D02*
X199782000Y-83890000D01*
X199782000Y-83890000D02*
X200482000Y-83190000D01*
%TO.N,Net-(D1-K)*%
X200157000Y-85990000D02*
X200482000Y-86315000D01*
X198757002Y-85990000D02*
X200157000Y-85990000D01*
%TO.N,/EPS Control Unit/EPS_LED*%
X172932001Y-82540000D02*
X168962000Y-82540000D01*
D45*
X178882000Y-85890000D02*
X179732000Y-86740000D01*
X169865120Y-82540000D02*
X168962000Y-82540000D01*
X182342661Y-86740000D02*
X182842661Y-86240000D01*
X189532000Y-86240000D02*
X190382000Y-87090000D01*
X182842661Y-86240000D02*
X189532000Y-86240000D01*
D46*
X173382000Y-82090001D02*
X172932001Y-82540000D01*
D45*
X179732000Y-86740000D02*
X182342661Y-86740000D01*
X191982000Y-87090000D02*
X192182000Y-87090000D01*
X195844499Y-87090000D02*
X192182000Y-87090000D01*
X196844499Y-88090000D02*
X195844499Y-87090000D01*
D47*
%TO.N,/USB_D-*%
X197110200Y-108240000D02*
X200031999Y-108240000D01*
X170165001Y-86050000D02*
X170190001Y-86075000D01*
X170190001Y-86075000D02*
X174945200Y-86075000D01*
X200031999Y-108240000D02*
X200131999Y-108140000D01*
X174945200Y-86075000D02*
X197110200Y-108240000D01*
X168965000Y-86050000D02*
X170165001Y-86050000D01*
X200131999Y-108140000D02*
X201182000Y-108140000D01*
%TO.N,/USB_D+*%
X196923800Y-108690000D02*
X200031999Y-108690000D01*
X200131999Y-108790000D02*
X201182000Y-108790000D01*
X170190001Y-86525000D02*
X174758800Y-86525000D01*
X170165001Y-86550000D02*
X170190001Y-86525000D01*
X168965000Y-86550000D02*
X170165001Y-86550000D01*
X200031999Y-108690000D02*
X200131999Y-108790000D01*
X174758800Y-86525000D02*
X196923800Y-108690000D01*
D46*
%TO.N,Net-(D3-K)*%
X198719501Y-88090000D02*
X200457000Y-88090000D01*
X200457000Y-88090000D02*
X200482000Y-88065000D01*
D45*
%TO.N,/CAN_B_H*%
X157517000Y-62706200D02*
X157517000Y-59455000D01*
X157517000Y-59455000D02*
X158012000Y-58960000D01*
D46*
%TO.N,/UART1_CTS*%
X160340000Y-86312000D02*
X159392000Y-85364000D01*
X160290000Y-89344236D02*
X160340000Y-89294236D01*
X160290000Y-90225000D02*
X160290000Y-89344236D01*
X159392000Y-85364000D02*
X159392000Y-85360000D01*
X160340000Y-89294236D02*
X160340000Y-86312000D01*
D44*
%TO.N,5V_EPS*%
X141981999Y-71515000D02*
X142907000Y-72440001D01*
X165307000Y-64140001D02*
X162531999Y-64140001D01*
X191382000Y-107090000D02*
X190082000Y-108390000D01*
D45*
X155782000Y-70890000D02*
X159921339Y-70890000D01*
X160221339Y-70590000D02*
X162182000Y-70590000D01*
D44*
X181513371Y-108390000D02*
X178313371Y-105190000D01*
X162531999Y-64140001D02*
X162282000Y-64390000D01*
D45*
X151982000Y-70990000D02*
X151482000Y-71490000D01*
X162282000Y-64990000D02*
X163498637Y-66206637D01*
D44*
X197781999Y-86889999D02*
X196882000Y-85990000D01*
X196882000Y-85990000D02*
X193182000Y-85990000D01*
X193182000Y-85990000D02*
X192982000Y-85790000D01*
X142907000Y-72440001D02*
X147932001Y-72440001D01*
X178313371Y-105190000D02*
X169482000Y-105190000D01*
X147932001Y-72440001D02*
X148382000Y-72890000D01*
X197781999Y-100640001D02*
X197781999Y-86889999D01*
X169482000Y-105190000D02*
X167982000Y-103690000D01*
D45*
X159921339Y-70890000D02*
X160221339Y-70590000D01*
D44*
X138082000Y-71515000D02*
X141981999Y-71515000D01*
D45*
X155732000Y-70940000D02*
X155782000Y-70890000D01*
D44*
X162282000Y-64390000D02*
X162282000Y-61140000D01*
X190082000Y-108390000D02*
X181513371Y-108390000D01*
D45*
X162282000Y-64390000D02*
X162282000Y-64990000D01*
X151482000Y-71490000D02*
X149782000Y-71490000D01*
D44*
X191382000Y-107040000D02*
X191382000Y-107090000D01*
X167982000Y-103690000D02*
X167982000Y-100440000D01*
X196782000Y-101640000D02*
X197781999Y-100640001D01*
D45*
%TO.N,/UART1_RX*%
X135128000Y-58928000D02*
X135128000Y-58984000D01*
X141976259Y-94894259D02*
X156550635Y-94894259D01*
X156550635Y-94894259D02*
X158790000Y-92654894D01*
X158790000Y-92654894D02*
X158790000Y-90225000D01*
X131432000Y-62680000D02*
X131432000Y-84350000D01*
X135128000Y-58984000D02*
X131432000Y-62680000D01*
X131432000Y-84350000D02*
X141976259Y-94894259D01*
%TO.N,/CAN_A_H*%
X149677000Y-59675000D02*
X150392000Y-58960000D01*
X149677000Y-62766200D02*
X149677000Y-59675000D01*
%TO.N,/CAN_B_L*%
X156247000Y-62706200D02*
X156247000Y-59735000D01*
X156247000Y-59735000D02*
X155472000Y-58960000D01*
%TO.N,/CAN_A_L*%
X148407000Y-59515000D02*
X147852000Y-58960000D01*
X148407000Y-62766200D02*
X148407000Y-59515000D01*
%TO.N,/UART1_TX*%
X159290000Y-92862000D02*
X156792000Y-95360000D01*
X159290000Y-90225000D02*
X159290000Y-92862000D01*
X131352000Y-60977500D02*
X131352000Y-58460000D01*
X156792000Y-95360000D02*
X156592001Y-95560000D01*
X136520000Y-57780000D02*
X137668000Y-58928000D01*
X131352000Y-58460000D02*
X132032000Y-57780000D01*
X130712000Y-61617500D02*
X131352000Y-60977500D01*
X156592001Y-95560000D02*
X140252000Y-95560000D01*
X156792000Y-95360000D02*
X156592000Y-95560000D01*
X140252000Y-95560000D02*
X130712000Y-86020000D01*
X132032000Y-57780000D02*
X136520000Y-57780000D01*
X130712000Y-86020000D02*
X130712000Y-61617500D01*
D46*
%TO.N,/UART1_RTS*%
X160790000Y-90225000D02*
X160790000Y-85598000D01*
X157982000Y-82790000D02*
X156182000Y-82790000D01*
X159577305Y-84385305D02*
X157982000Y-82790000D01*
X160790000Y-85598000D02*
X159577305Y-84385305D01*
D45*
%TO.N,/HEARTBEAT_OBC*%
X153612000Y-88540000D02*
X152662000Y-89490000D01*
X132212000Y-81877107D02*
X132212000Y-71700000D01*
X132212000Y-71700000D02*
X144052000Y-59860000D01*
X139824893Y-89490000D02*
X132212000Y-81877107D01*
X152662000Y-89490000D02*
X139824893Y-89490000D01*
X149132000Y-55140000D02*
X150392000Y-53880000D01*
X146302000Y-57730000D02*
X146532000Y-57500000D01*
X147082000Y-55140000D02*
X149132000Y-55140000D01*
X144552000Y-57730000D02*
X146302000Y-57730000D01*
X144052000Y-58230000D02*
X144552000Y-57730000D01*
X146532000Y-57500000D02*
X146532000Y-55690000D01*
X144052000Y-59860000D02*
X144052000Y-58230000D01*
X146532000Y-55690000D02*
X147082000Y-55140000D01*
D44*
%TO.N,/5V_PAY*%
X160882000Y-64690000D02*
X160882000Y-61090000D01*
D45*
%TO.N,/I2C1_SCL*%
X157790000Y-90225000D02*
X157790000Y-88762000D01*
D46*
X187182000Y-52650000D02*
X188492000Y-51340000D01*
X174982000Y-84675000D02*
X174982000Y-84550000D01*
D45*
X157790000Y-88762000D02*
X158192000Y-88360000D01*
D46*
X177332000Y-82200000D02*
X187182000Y-72350000D01*
X187182000Y-72350000D02*
X187182000Y-52650000D01*
X174982000Y-84550000D02*
X177332000Y-82200000D01*
D45*
%TO.N,/I2C2_SDA*%
X166290000Y-74875000D02*
X166290000Y-70404830D01*
X173734830Y-62960000D02*
X179392000Y-62960000D01*
X166290000Y-70404830D02*
X173734830Y-62960000D01*
X182192000Y-52504000D02*
X183388000Y-51308000D01*
X182192000Y-60160000D02*
X182192000Y-52504000D01*
X179392000Y-62960000D02*
X182192000Y-60160000D01*
%TO.N,/HEARTBEAT_ADCS*%
X151272000Y-57850000D02*
X151612000Y-57510000D01*
X144412000Y-60360000D02*
X146192000Y-60360000D01*
X153612000Y-88040000D02*
X152568642Y-88040000D01*
X151612000Y-55200000D02*
X152932000Y-53880000D01*
X146552000Y-60000000D02*
X146552000Y-58796288D01*
X132752000Y-81710000D02*
X132752000Y-72020000D01*
X132752000Y-72020000D02*
X144412000Y-60360000D01*
X151618642Y-88990000D02*
X140032000Y-88990000D01*
X147498288Y-57850000D02*
X151272000Y-57850000D01*
X146192000Y-60360000D02*
X146552000Y-60000000D01*
X140032000Y-88990000D02*
X132752000Y-81710000D01*
X152568642Y-88040000D02*
X151618642Y-88990000D01*
X151612000Y-57510000D02*
X151612000Y-55200000D01*
X146552000Y-58796288D02*
X147498288Y-57850000D01*
D44*
%TO.N,/12V_ADCS*%
X167682000Y-60390000D02*
X174382000Y-60390000D01*
X186457000Y-63865000D02*
X185582000Y-62990000D01*
X186457000Y-64590000D02*
X186457000Y-63865000D01*
X174382000Y-60390000D02*
X174982000Y-60990000D01*
X184682000Y-62990000D02*
X184582000Y-63090000D01*
X185582000Y-62990000D02*
X184682000Y-62990000D01*
%TO.N,/5V_OBC*%
X173982246Y-61690000D02*
X173582246Y-61290000D01*
X175582000Y-64590000D02*
X175482000Y-64690000D01*
X177882000Y-68921057D02*
X177882000Y-65790000D01*
X164482000Y-61290000D02*
X164282000Y-61090000D01*
X173582246Y-61290000D02*
X164482000Y-61290000D01*
X170915764Y-75887293D02*
X177882000Y-68921057D01*
X176682000Y-64590000D02*
X175582000Y-64590000D01*
X177882000Y-65790000D02*
X176682000Y-64590000D01*
D45*
%TO.N,/ANT_DEPLOY*%
X139082000Y-55270000D02*
X139082000Y-63590000D01*
X141752711Y-69348576D02*
X139681962Y-67277827D01*
X161787000Y-87662000D02*
X161787000Y-90215000D01*
X161515000Y-87390000D02*
X161787000Y-87662000D01*
X141752711Y-69350661D02*
X141752711Y-69348576D01*
X137692000Y-53880000D02*
X139082000Y-55270000D01*
%TO.N,/I2C2_SCL*%
X179592000Y-52564000D02*
X180848000Y-51308000D01*
X176832000Y-62390000D02*
X177182000Y-62040000D01*
X178732000Y-62040000D02*
X179592000Y-61180000D01*
X173382000Y-62390000D02*
X176832000Y-62390000D01*
X177182000Y-62040000D02*
X178732000Y-62040000D01*
X179592000Y-61180000D02*
X179592000Y-52564000D01*
X165790000Y-74875000D02*
X165790000Y-69982000D01*
X165790000Y-69982000D02*
X173382000Y-62390000D01*
%TO.N,/ANT_DEPLOY_STATUS*%
X141582000Y-65690000D02*
X143632000Y-67740000D01*
X141482000Y-53490000D02*
X141482000Y-61090000D01*
X137692000Y-51340000D02*
X138842000Y-52490000D01*
X162287000Y-86695000D02*
X162287000Y-90215000D01*
X138842000Y-52490000D02*
X140482000Y-52490000D01*
X161882000Y-86290000D02*
X162287000Y-86695000D01*
X140482000Y-52490000D02*
X141482000Y-53490000D01*
%TO.N,/SWDIO*%
X165282000Y-83740000D02*
X165282000Y-85392665D01*
X165282000Y-85392665D02*
X166929335Y-87040000D01*
X166929335Y-87040000D02*
X168962000Y-87040000D01*
X165432000Y-83590000D02*
X165282000Y-83740000D01*
%TO.N,/RESET_ADC*%
X179273611Y-92666157D02*
X177449768Y-94490000D01*
X170158880Y-94490000D02*
X166787000Y-91118120D01*
X177449768Y-94490000D02*
X170158880Y-94490000D01*
X166787000Y-91118120D02*
X166787000Y-90215000D01*
D44*
%TO.N,Net-(Q1-D)*%
X148407000Y-66793800D02*
X148407000Y-67693800D01*
X148407000Y-67693800D02*
X148407000Y-66982600D01*
X147677600Y-66253200D02*
X146618800Y-66253200D01*
X145382000Y-67490000D02*
X145382000Y-71290002D01*
X145382000Y-71290002D02*
X145182000Y-71490002D01*
X148407000Y-66982600D02*
X147677600Y-66253200D01*
X146618800Y-66253200D02*
X145382000Y-67490000D01*
D45*
%TO.N,/EPS Control Unit/PMOS1_GATE*%
X136182000Y-71790000D02*
X137782000Y-73390000D01*
X137782000Y-73390000D02*
X145182000Y-73390000D01*
X138082000Y-69865000D02*
X138082000Y-69890000D01*
X138082000Y-69590000D02*
X138082000Y-69865000D01*
X138082000Y-69890000D02*
X136182000Y-71790000D01*
%TO.N,/EPS Control Unit/PMOS2_GATE*%
X165298637Y-67373363D02*
X167582000Y-65090000D01*
X170582000Y-62190000D02*
X170482000Y-62190000D01*
X170482000Y-62190000D02*
X167582000Y-65090000D01*
X173782000Y-65390000D02*
X173782000Y-66440000D01*
X173782000Y-66440000D02*
X174382000Y-67040000D01*
X164665363Y-67373363D02*
X165298637Y-67373363D01*
D44*
%TO.N,Net-(Q2-D)*%
X167582000Y-62590000D02*
X167582000Y-63190002D01*
X159182000Y-64690000D02*
X157207000Y-64690000D01*
X159682000Y-64190000D02*
X159182000Y-64690000D01*
X156247000Y-65650000D02*
X156247000Y-67633800D01*
X157207000Y-64690000D02*
X156247000Y-65650000D01*
X167082000Y-62090000D02*
X167582000Y-62590000D01*
D45*
X156247000Y-67030600D02*
X156247000Y-67633800D01*
%TO.N,/EPS Control Unit/CAN_SW_A*%
X164982000Y-92890000D02*
X163787000Y-91695000D01*
X163787000Y-91695000D02*
X163787000Y-90215000D01*
X136182000Y-75490000D02*
X136582000Y-75890000D01*
X143132000Y-87910000D02*
X141602000Y-87910000D01*
X141602000Y-87910000D02*
X139882000Y-86190000D01*
X137882000Y-77090000D02*
X139782000Y-78990000D01*
X139782000Y-78990000D02*
X139782000Y-80190000D01*
X166232000Y-92890000D02*
X164982000Y-92890000D01*
X166882000Y-93540000D02*
X166232000Y-92890000D01*
X139882000Y-86190000D02*
X139882000Y-82490000D01*
X136182000Y-73440000D02*
X136182000Y-75490000D01*
%TO.N,/EPS Control Unit/SW_BOOT0*%
X148937000Y-93150000D02*
X148827000Y-93040000D01*
X140382000Y-96690000D02*
X118852000Y-75160000D01*
X147432000Y-93215000D02*
X148832000Y-93215000D01*
X146682000Y-96690000D02*
X140382000Y-96690000D01*
X147194500Y-93452500D02*
X147432000Y-93215000D01*
X148832000Y-93215000D02*
X148937000Y-93320000D01*
X118852000Y-75160000D02*
X118852000Y-70520000D01*
X148937000Y-93320000D02*
X148937000Y-93150000D01*
%TO.N,/EPS Control Unit/BOOT0*%
X158287000Y-91374408D02*
X158287000Y-90435107D01*
X151888402Y-93040000D02*
X153213402Y-94365000D01*
X155296408Y-94365000D02*
X158287000Y-91374408D01*
X150477000Y-93040000D02*
X151888402Y-93040000D01*
X153213402Y-94365000D02*
X155296408Y-94365000D01*
%TO.N,/EPS Control Unit/CAN_SW_B*%
X165282000Y-94290000D02*
X163287000Y-92295000D01*
X163287000Y-92295000D02*
X163287000Y-90990000D01*
X176430959Y-66641041D02*
X176032000Y-67040000D01*
X163287000Y-91395000D02*
X163287000Y-90990000D01*
X177232000Y-72887373D02*
X179607000Y-70512373D01*
X168282000Y-94290000D02*
X165282000Y-94290000D01*
X176430959Y-65541041D02*
X176430959Y-66641041D01*
X176982000Y-91090000D02*
X174482000Y-93590000D01*
X174828293Y-82896955D02*
X177282000Y-80443248D01*
X179607000Y-70512373D02*
X179607000Y-65890000D01*
X163287000Y-90990000D02*
X163287000Y-90215000D01*
X177282000Y-80015000D02*
X177282000Y-79896877D01*
X177036999Y-91090000D02*
X176982000Y-91090000D01*
X177232000Y-79965000D02*
X177232000Y-72887373D01*
X179607000Y-65890000D02*
X178207000Y-64490000D01*
X177282000Y-80443248D02*
X177282000Y-80015000D01*
X174482000Y-93590000D02*
X170782000Y-93590000D01*
X177282000Y-80015000D02*
X177232000Y-79965000D01*
%TO.N,/EPS Control Unit/WDI_RESET*%
X136785800Y-80710001D02*
X136785800Y-82378800D01*
X136785800Y-82378800D02*
X136967000Y-82560000D01*
D46*
%TO.N,/FLT_3V3_ADCS*%
X165982000Y-79765000D02*
X166207000Y-79540000D01*
X166207000Y-79540000D02*
X168962000Y-79540000D01*
D45*
%TO.N,/FLT_3V3_ANT*%
X127382000Y-101990000D02*
X127382000Y-102990000D01*
D46*
X123182000Y-96090000D02*
X125982000Y-93290000D01*
X171216873Y-85215000D02*
X171616873Y-84815000D01*
D45*
X123182000Y-97190000D02*
X123182000Y-97790000D01*
D46*
X170227405Y-85040000D02*
X170402405Y-85215000D01*
X134682000Y-93290000D02*
X139182000Y-97790000D01*
X139182000Y-97790000D02*
X155727404Y-97790000D01*
D45*
X123182000Y-97790000D02*
X127382000Y-101990000D01*
D46*
X123182000Y-97190000D02*
X123182000Y-96090000D01*
X168962000Y-85040000D02*
X170227405Y-85040000D01*
X155727404Y-97790000D02*
X159004702Y-94512702D01*
X170402405Y-85215000D02*
X171216873Y-85215000D01*
X125982000Y-93290000D02*
X134682000Y-93290000D01*
%TO.N,/FLT_3V3_EPS*%
X165654037Y-82790000D02*
X165507000Y-82642963D01*
X168962000Y-83040000D02*
X167382305Y-83040000D01*
X167382305Y-83040000D02*
X167132305Y-82790000D01*
X167132305Y-82790000D02*
X165654037Y-82790000D01*
D45*
%TO.N,/FLT_5V_PAY*%
X171282000Y-76890000D02*
X170896339Y-76890000D01*
X170546339Y-76540000D02*
X168962000Y-76540000D01*
X170896339Y-76890000D02*
X170546339Y-76540000D01*
D46*
%TO.N,/FLT_5V_EPS*%
X172182000Y-77015305D02*
X171582305Y-77615000D01*
X169907000Y-77615000D02*
X169832000Y-77540000D01*
X172182000Y-75990000D02*
X172182000Y-77015305D01*
X169832000Y-77540000D02*
X168962000Y-77540000D01*
X167337002Y-98740000D02*
X166567000Y-98740000D01*
X171582305Y-77615000D02*
X169907000Y-77615000D01*
X166567000Y-98740000D02*
X165217000Y-97390000D01*
%TO.N,/FLT_5V_OBC*%
X167207000Y-81081452D02*
X167665548Y-81540000D01*
X167665548Y-81540000D02*
X168962000Y-81540000D01*
D45*
%TO.N,/FLT_5V_ADCS*%
X175640793Y-81023793D02*
X174707000Y-80090000D01*
X174078293Y-82586294D02*
X175640793Y-81023793D01*
X174082000Y-83211323D02*
X174078293Y-83207616D01*
X174082000Y-84835661D02*
X174082000Y-83211323D01*
X175096596Y-85590000D02*
X174836339Y-85590000D01*
X188982000Y-89156637D02*
X188498637Y-89640000D01*
X174707000Y-80090000D02*
X171732661Y-80090000D01*
X179146596Y-89640000D02*
X175096596Y-85590000D01*
X171282661Y-80540000D02*
X168962000Y-80540000D01*
X174836339Y-85590000D02*
X174082000Y-84835661D01*
X174078293Y-83207616D02*
X174078293Y-82586294D01*
X171732661Y-80090000D02*
X171282661Y-80540000D01*
X188498637Y-89640000D02*
X179146596Y-89640000D01*
D46*
%TO.N,/FLT_5V_COMM*%
X170981445Y-83224978D02*
X170981445Y-83285960D01*
X170227405Y-84040000D02*
X168962000Y-84040000D01*
X170981445Y-83285960D02*
X170227405Y-84040000D01*
%TO.N,/FLT_12V_ADCS*%
X173642912Y-78540000D02*
X168962000Y-78540000D01*
X174366804Y-79263892D02*
X173642912Y-78540000D01*
D45*
%TO.N,/EPS Control Unit/CAN_RX*%
X148832000Y-72240000D02*
X147137000Y-70545000D01*
X164182000Y-86105982D02*
X161411946Y-83335928D01*
X161411946Y-83335928D02*
X160537928Y-83335928D01*
X154942000Y-76220000D02*
X153632000Y-74910000D01*
X164787000Y-90215000D02*
X164787000Y-86795001D01*
X152382000Y-72240000D02*
X148832000Y-72240000D01*
X164787000Y-86795001D02*
X164182000Y-86190001D01*
X154942000Y-77740000D02*
X154942000Y-76220000D01*
X160537928Y-83335928D02*
X154942000Y-77740000D01*
X164182000Y-86190001D02*
X164182000Y-86105982D01*
X153632000Y-74830000D02*
X153632000Y-73490000D01*
X153632000Y-68978800D02*
X154977000Y-67633800D01*
X153632000Y-74910000D02*
X153632000Y-68978800D01*
X153632000Y-73490000D02*
X152382000Y-72240000D01*
X147137000Y-70545000D02*
X147137000Y-67693800D01*
%TO.N,/EPS Control Unit/CAN_TX*%
X161177928Y-84085928D02*
X164287000Y-87195000D01*
X151782000Y-70000000D02*
X150947000Y-69165000D01*
X150947000Y-69165000D02*
X150947000Y-67693800D01*
X164287000Y-87195000D02*
X164287000Y-90215000D01*
X157422000Y-70090000D02*
X157362000Y-70030000D01*
X158787000Y-68725000D02*
X158787000Y-67633800D01*
X152882000Y-70000000D02*
X151782000Y-70000000D01*
X157422000Y-70090000D02*
X158787000Y-68725000D01*
X154552000Y-70030000D02*
X154532000Y-70050000D01*
X157362000Y-70030000D02*
X154552000Y-70030000D01*
X161101285Y-84085928D02*
X161177928Y-84085928D01*
D46*
%TO.N,/EN_5V_COMM*%
X171927405Y-91590000D02*
X173227405Y-90290000D01*
X184082000Y-107490000D02*
X180282000Y-103690000D01*
X180282000Y-92649240D02*
X179002380Y-91369620D01*
D45*
X180282000Y-103690000D02*
X180282000Y-99490000D01*
D46*
X169682000Y-91590000D02*
X171927405Y-91590000D01*
X173227405Y-90290000D02*
X177922760Y-90290000D01*
X166957000Y-83540000D02*
X168962000Y-83540000D01*
X168582000Y-90490000D02*
X169682000Y-91590000D01*
X177922760Y-90290000D02*
X179002380Y-91369620D01*
X166907000Y-83590000D02*
X166957000Y-83540000D01*
D45*
X180282000Y-97890000D02*
X180282000Y-92684596D01*
D46*
X179002380Y-91369620D02*
X178902380Y-91269620D01*
D45*
X180282000Y-92684596D02*
X180264322Y-92666918D01*
D46*
%TO.N,/EN_3V3_ADCS*%
X166036592Y-80665003D02*
X166661595Y-80040000D01*
X165982000Y-80665003D02*
X166036592Y-80665003D01*
X166661595Y-80040000D02*
X168962000Y-80040000D01*
D45*
%TO.N,/STATUS_5V*%
X160147226Y-77615000D02*
X161787000Y-75975226D01*
X159352000Y-77615000D02*
X160147226Y-77615000D01*
X161787000Y-75975226D02*
X161787000Y-74865000D01*
D46*
%TO.N,/EN_12V_ADCS*%
X170642000Y-79040000D02*
X168962000Y-79040000D01*
D45*
X194132000Y-119940000D02*
X191336999Y-119940000D01*
D46*
X171182000Y-79580000D02*
X170642000Y-79040000D01*
D45*
X191336999Y-119940000D02*
X177786999Y-106390000D01*
D46*
%TO.N,/EN_5V_PAY*%
X165757000Y-77040000D02*
X168962000Y-77040000D01*
X164982000Y-77815000D02*
X165757000Y-77040000D01*
%TO.N,/SPI_MOSI*%
X165287000Y-73795000D02*
X165287000Y-74865000D01*
X164682000Y-72590000D02*
X164682000Y-73190000D01*
X164682000Y-73190000D02*
X165287000Y-73795000D01*
%TO.N,/RDY_ADC*%
X163082000Y-72440000D02*
X163082000Y-73792236D01*
X163287000Y-73997236D02*
X163287000Y-74865000D01*
X163082000Y-73792236D02*
X163287000Y-73997236D01*
X163032000Y-72390000D02*
X163082000Y-72440000D01*
%TO.N,/EN_5V_ADCS*%
X170449151Y-81659387D02*
X169829764Y-81040000D01*
X179332000Y-87590000D02*
X182182000Y-87590000D01*
X182182000Y-87590000D02*
X182382000Y-87790000D01*
X169829764Y-81040000D02*
X168962000Y-81040000D01*
X172314992Y-81659387D02*
X170449151Y-81659387D01*
%TO.N,/EN_5V_OBC*%
X167532000Y-82040000D02*
X168962000Y-82040000D01*
X167529141Y-82042859D02*
X167532000Y-82040000D01*
X166493903Y-82042859D02*
X167529141Y-82042859D01*
D45*
%TO.N,/STATUS_3V3*%
X136482000Y-121590000D02*
X141021339Y-121590000D01*
X162287000Y-74865000D02*
X162287000Y-73961880D01*
X147482000Y-73790000D02*
X146251669Y-75020331D01*
X162282000Y-71590000D02*
X163582000Y-70290000D01*
X163482000Y-69790000D02*
X163482000Y-69190000D01*
X162282000Y-73956880D02*
X162282000Y-71590000D01*
X163582000Y-69890000D02*
X163482000Y-69790000D01*
X151782000Y-73790000D02*
X147482000Y-73790000D01*
X160082000Y-69190000D02*
X159282000Y-69990000D01*
X146682000Y-115929339D02*
X146682000Y-112490000D01*
X162287000Y-73961880D02*
X162282000Y-73956880D01*
X163482000Y-69190000D02*
X160082000Y-69190000D01*
X163582000Y-70290000D02*
X163582000Y-69890000D01*
X141021339Y-121590000D02*
X146682000Y-115929339D01*
X148982000Y-99015000D02*
X149482000Y-98515000D01*
X148982000Y-110390000D02*
X148982000Y-99015000D01*
D46*
%TO.N,/SPI_MISO*%
X163882000Y-71752431D02*
X163882000Y-73090000D01*
X163882000Y-73090000D02*
X164787000Y-73995000D01*
X164787000Y-73995000D02*
X164787000Y-74865000D01*
D45*
%TO.N,/EPS Control Unit/WDI*%
X158278384Y-80015725D02*
X158357000Y-79937109D01*
X135699200Y-78180599D02*
X135699200Y-79409001D01*
X143883028Y-75490000D02*
X138389799Y-75490000D01*
X135699200Y-79409001D02*
X134398200Y-80710001D01*
X150852000Y-75870000D02*
X150832000Y-75890000D01*
X161287000Y-75768120D02*
X160365120Y-76690000D01*
X158278384Y-77443616D02*
X158278384Y-80015725D01*
X144283028Y-75890000D02*
X143883028Y-75490000D01*
X159032000Y-76690000D02*
X158278384Y-77443616D01*
X150832000Y-75890000D02*
X144283028Y-75890000D01*
X138389799Y-75490000D02*
X135699200Y-78180599D01*
X160365120Y-76690000D02*
X159032000Y-76690000D01*
X161287000Y-74865000D02*
X161287000Y-75768120D01*
D46*
%TO.N,/EN_3V3_ANT*%
X170682000Y-84540000D02*
X168962000Y-84540000D01*
D45*
X127082000Y-84890000D02*
X125782000Y-84890000D01*
X118932000Y-91740000D02*
X118932000Y-105429950D01*
X125782000Y-84890000D02*
X118932000Y-91740000D01*
X120792050Y-107290000D02*
X121982000Y-107290000D01*
X118932000Y-105429950D02*
X120792050Y-107290000D01*
%TO.N,/SHDN_12V*%
X185157000Y-120679339D02*
X176067661Y-111590000D01*
X162787000Y-76660000D02*
X162787000Y-74865000D01*
X185157000Y-124365000D02*
X185157000Y-120679339D01*
X176067661Y-111590000D02*
X175982000Y-111590000D01*
X162657000Y-76790000D02*
X162787000Y-76660000D01*
D46*
%TO.N,/EN_5V_EPS*%
X162582000Y-79190000D02*
X163232000Y-78540000D01*
X162582000Y-80990000D02*
X162582000Y-79190000D01*
X163232000Y-78540000D02*
X166494871Y-78540000D01*
X159032000Y-98140000D02*
X159032000Y-95440000D01*
D45*
X161787025Y-107245025D02*
X159032000Y-104490000D01*
X164126975Y-107245025D02*
X161787025Y-107245025D01*
X159032000Y-104490000D02*
X159032000Y-98140000D01*
D46*
X159032000Y-95440000D02*
X161082000Y-93390000D01*
X166994871Y-78040000D02*
X168962000Y-78040000D01*
X166494871Y-78540000D02*
X166994871Y-78040000D01*
D45*
%TO.N,/SPI_SCLK*%
X167395440Y-76190000D02*
X164708880Y-76190000D01*
X170682000Y-74915000D02*
X169682000Y-75915000D01*
X167670440Y-75915000D02*
X167395440Y-76190000D01*
X169682000Y-75915000D02*
X167670440Y-75915000D01*
X164287000Y-75768120D02*
X164287000Y-74865000D01*
X164708880Y-76190000D02*
X164287000Y-75768120D01*
D46*
%TO.N,/SPI_CS*%
X163787000Y-76795000D02*
X163787000Y-74865000D01*
D45*
%TO.N,/SWCLK*%
X164994106Y-86295000D02*
X164994107Y-86295000D01*
X164994107Y-86295000D02*
X165287000Y-86587893D01*
X165532000Y-81501664D02*
X165070336Y-81501664D01*
X167287000Y-89311880D02*
X167287000Y-90215000D01*
X164682000Y-81890000D02*
X164682000Y-85982894D01*
X165287000Y-86587893D02*
X165287000Y-87311880D01*
X165287000Y-87311880D02*
X167287000Y-89311880D01*
X164682000Y-85982894D02*
X164994106Y-86295000D01*
X165070336Y-81501664D02*
X164682000Y-81890000D01*
D46*
%TO.N,/I2C1_SDA*%
X159665000Y-87873000D02*
X159665000Y-88410000D01*
X189502000Y-52870000D02*
X191032000Y-51340000D01*
D45*
X159402000Y-87610000D02*
X157881339Y-87610000D01*
D46*
X176075403Y-85489871D02*
X178368637Y-83196637D01*
X159402000Y-87610000D02*
X159665000Y-87873000D01*
X178368637Y-83196637D02*
X178368637Y-82103363D01*
D45*
X157881339Y-87610000D02*
X157290000Y-88201339D01*
D46*
X189502000Y-70970000D02*
X189502000Y-52870000D01*
X178368637Y-82103363D02*
X189502000Y-70970000D01*
D45*
X157290000Y-88201339D02*
X157290000Y-90225000D01*
%TD*%
%TA.AperFunction,Conductor*%
%TO.N,/3V3_LDO*%
G36*
X196102300Y-72496609D02*
G01*
X197593773Y-72982205D01*
X197643065Y-73012432D01*
X197659048Y-73028415D01*
X197659049Y-73028416D01*
X197763584Y-73132951D01*
X197763585Y-73132952D01*
X197886498Y-73215080D01*
X197886511Y-73215087D01*
X198011960Y-73267049D01*
X198023087Y-73271658D01*
X198023091Y-73271658D01*
X198023092Y-73271659D01*
X198168079Y-73300500D01*
X198168082Y-73300500D01*
X198551715Y-73300500D01*
X198590104Y-73306592D01*
X200382000Y-73890000D01*
X201497608Y-73890000D01*
X201508416Y-73890472D01*
X201681999Y-73905659D01*
X201682000Y-73905659D01*
X201682001Y-73905659D01*
X201855584Y-73890472D01*
X201866392Y-73890000D01*
X201909271Y-73890000D01*
X201976310Y-73909685D01*
X201996952Y-73926319D01*
X202195181Y-74124548D01*
X202228666Y-74185871D01*
X202231500Y-74212229D01*
X202231500Y-76627004D01*
X202211815Y-76694043D01*
X202161510Y-76738624D01*
X200145512Y-77714106D01*
X200076591Y-77725586D01*
X200056567Y-77721463D01*
X200000421Y-77704976D01*
X199898690Y-77690350D01*
X199858000Y-77684500D01*
X199591547Y-77684500D01*
X199591546Y-77684500D01*
X199573478Y-77684959D01*
X199570329Y-77684999D01*
X198993664Y-77684999D01*
X198990516Y-77684959D01*
X198972442Y-77684500D01*
X198972441Y-77684500D01*
X198913000Y-77684500D01*
X198912999Y-77684500D01*
X198790410Y-77699589D01*
X198790404Y-77699590D01*
X198732055Y-77714176D01*
X198616766Y-77758557D01*
X198230308Y-77964667D01*
X198178834Y-77979064D01*
X197982002Y-77989999D01*
X197981999Y-77990000D01*
X197240694Y-78303629D01*
X196836344Y-78474700D01*
X196788031Y-78484500D01*
X195706000Y-78484500D01*
X195705991Y-78484500D01*
X195705990Y-78484501D01*
X195598549Y-78496052D01*
X195598537Y-78496054D01*
X195547027Y-78507260D01*
X195444502Y-78541383D01*
X195444496Y-78541386D01*
X195323462Y-78619171D01*
X195323451Y-78619179D01*
X195270659Y-78664923D01*
X195176433Y-78773664D01*
X195176430Y-78773668D01*
X195116664Y-78904534D01*
X195096976Y-78971582D01*
X195076500Y-79114001D01*
X195076500Y-81062089D01*
X195056815Y-81129128D01*
X195047766Y-81141463D01*
X194961164Y-81245385D01*
X194903128Y-81284282D01*
X194865908Y-81290000D01*
X193501139Y-81290000D01*
X193434100Y-81270315D01*
X193388345Y-81217511D01*
X193377238Y-81170956D01*
X193375565Y-81129128D01*
X193282000Y-78790000D01*
X191921349Y-75558455D01*
X191913477Y-75489032D01*
X191921071Y-75462889D01*
X191928658Y-75444574D01*
X191957500Y-75299579D01*
X191957500Y-73903266D01*
X191961202Y-73873192D01*
X192111585Y-73271659D01*
X192259149Y-72681401D01*
X192294505Y-72621140D01*
X192356829Y-72589558D01*
X192376177Y-72587521D01*
X196060657Y-72490561D01*
X196102300Y-72496609D01*
G37*
%TD.AperFunction*%
%TD*%
%TA.AperFunction,Conductor*%
%TO.N,GND*%
G36*
X204978496Y-104159685D02*
G01*
X205024251Y-104212489D01*
X205035407Y-104260495D01*
X205281950Y-112979140D01*
X205282000Y-112982645D01*
X205282000Y-113741000D01*
X205262315Y-113808039D01*
X205209511Y-113853794D01*
X205158000Y-113865000D01*
X199956000Y-113865000D01*
X199888961Y-113845315D01*
X199843206Y-113792511D01*
X199832000Y-113741000D01*
X199832000Y-111191198D01*
X199842598Y-111141039D01*
X200340946Y-110014338D01*
X200386065Y-109960993D01*
X200452864Y-109940508D01*
X200454184Y-109940499D01*
X201926864Y-109940499D01*
X201926879Y-109940497D01*
X201926882Y-109940497D01*
X201951987Y-109937586D01*
X201951988Y-109937585D01*
X201951991Y-109937585D01*
X202054765Y-109892206D01*
X202134206Y-109812765D01*
X202134207Y-109812761D01*
X202138794Y-109808175D01*
X202200117Y-109774690D01*
X202220123Y-109772019D01*
X202357000Y-109765000D01*
X202357000Y-107190000D01*
X202356998Y-107189999D01*
X202244292Y-107188151D01*
X202177584Y-107167370D01*
X202142399Y-107125555D01*
X202140702Y-107126718D01*
X202134207Y-107117237D01*
X202134206Y-107117235D01*
X202054765Y-107037794D01*
X201951992Y-106992415D01*
X201926868Y-106989500D01*
X201926865Y-106989500D01*
X200943730Y-106989500D01*
X200876691Y-106969815D01*
X200830936Y-106917011D01*
X200819836Y-106870620D01*
X200712336Y-104269120D01*
X200729236Y-104201325D01*
X200780106Y-104153429D01*
X200836230Y-104140000D01*
X204911457Y-104140000D01*
X204978496Y-104159685D01*
G37*
%TD.AperFunction*%
%TD*%
%TA.AperFunction,Conductor*%
%TO.N,VUSB*%
G36*
X192718224Y-78809685D02*
G01*
X192763979Y-78862489D01*
X192765468Y-78865883D01*
X192771845Y-78881029D01*
X192781463Y-78924190D01*
X192870469Y-81149332D01*
X192870469Y-81149333D01*
X192872141Y-81191149D01*
X192872141Y-81191155D01*
X192872142Y-81191158D01*
X192885538Y-81288265D01*
X192896645Y-81334820D01*
X192896646Y-81334825D01*
X192896647Y-81334826D01*
X192928525Y-81427503D01*
X192928526Y-81427504D01*
X193006309Y-81548537D01*
X193006318Y-81548548D01*
X193052062Y-81601340D01*
X193052065Y-81601343D01*
X193052069Y-81601347D01*
X193160803Y-81695567D01*
X193291680Y-81755338D01*
X193358719Y-81775023D01*
X193358723Y-81775024D01*
X193501139Y-81795500D01*
X193590827Y-81795500D01*
X193657866Y-81815185D01*
X193682234Y-81835710D01*
X194072891Y-82261881D01*
X194103681Y-82324601D01*
X194100461Y-82380607D01*
X194096976Y-82392473D01*
X194082051Y-82496286D01*
X194076500Y-82534893D01*
X194076500Y-84466000D01*
X194076501Y-84466009D01*
X194086700Y-84560872D01*
X194074295Y-84629631D01*
X194026685Y-84680769D01*
X193966589Y-84698086D01*
X186609178Y-84886739D01*
X186541656Y-84868780D01*
X186494563Y-84817166D01*
X186482000Y-84762780D01*
X186482000Y-81314000D01*
X186501685Y-81246961D01*
X186554489Y-81201206D01*
X186606000Y-81190000D01*
X187390748Y-81190000D01*
X187422841Y-81194225D01*
X187556592Y-81230063D01*
X187744918Y-81246539D01*
X187791999Y-81250659D01*
X187792000Y-81250659D01*
X187792001Y-81250659D01*
X187834267Y-81246961D01*
X188027408Y-81230063D01*
X188161159Y-81194225D01*
X188193252Y-81190000D01*
X189082000Y-81190000D01*
X190844800Y-78839600D01*
X190900771Y-78797779D01*
X190944000Y-78790000D01*
X192651185Y-78790000D01*
X192718224Y-78809685D01*
G37*
%TD.AperFunction*%
%TD*%
%TA.AperFunction,Conductor*%
%TO.N,GND*%
G36*
X198980494Y-78190410D02*
G01*
X198980498Y-78190339D01*
X198983630Y-78190497D01*
X198983655Y-78190500D01*
X199580344Y-78190499D01*
X199580350Y-78190498D01*
X199583499Y-78190338D01*
X199583502Y-78190409D01*
X199591547Y-78190000D01*
X199858000Y-78190000D01*
X199925039Y-78209685D01*
X199970794Y-78262489D01*
X199982000Y-78314000D01*
X199982000Y-79448022D01*
X199962315Y-79515061D01*
X199956500Y-79523346D01*
X199698227Y-79861086D01*
X199687408Y-79873443D01*
X196907671Y-82653181D01*
X196846348Y-82686666D01*
X196819990Y-82689500D01*
X196688644Y-82689500D01*
X196586723Y-82699913D01*
X196421577Y-82754637D01*
X196421566Y-82754642D01*
X196273500Y-82845971D01*
X196273496Y-82845974D01*
X196150474Y-82968996D01*
X196150471Y-82969000D01*
X196059142Y-83117066D01*
X196059137Y-83117077D01*
X196004413Y-83282223D01*
X195994000Y-83384144D01*
X195994000Y-84395857D01*
X195999879Y-84453398D01*
X195987110Y-84522091D01*
X195939229Y-84572975D01*
X195876521Y-84590000D01*
X194706000Y-84590000D01*
X194638961Y-84570315D01*
X194593206Y-84517511D01*
X194582000Y-84466000D01*
X194582000Y-82534893D01*
X194601685Y-82467854D01*
X194610736Y-82455516D01*
X195582000Y-81290000D01*
X195582000Y-79114000D01*
X195601685Y-79046961D01*
X195654489Y-79001206D01*
X195706000Y-78990000D01*
X197381999Y-78990000D01*
X197382000Y-78990000D01*
X198854647Y-78204587D01*
X198913000Y-78190000D01*
X198972441Y-78190000D01*
X198980494Y-78190410D01*
G37*
%TD.AperFunction*%
%TD*%
%TA.AperFunction,Conductor*%
%TO.N,GND*%
G36*
X142166458Y-77058298D02*
G01*
X142212213Y-77111102D01*
X142222777Y-77175216D01*
X142216500Y-77236647D01*
X142216500Y-77833337D01*
X142216501Y-77833355D01*
X142226650Y-77932707D01*
X142226651Y-77932710D01*
X142279996Y-78093694D01*
X142280001Y-78093705D01*
X142369029Y-78238040D01*
X142369032Y-78238044D01*
X142488955Y-78357967D01*
X142488959Y-78357970D01*
X142633294Y-78446998D01*
X142633297Y-78446999D01*
X142633303Y-78447003D01*
X142794292Y-78500349D01*
X142842280Y-78505251D01*
X142850046Y-78506045D01*
X142914738Y-78532441D01*
X142948353Y-78573948D01*
X143080685Y-78838612D01*
X143080686Y-78838613D01*
X148480686Y-78838613D01*
X148649507Y-78416561D01*
X148692681Y-78361627D01*
X148758701Y-78338755D01*
X148764638Y-78338613D01*
X151199306Y-78338613D01*
X151266345Y-78358298D01*
X151286987Y-78374932D01*
X151366724Y-78454669D01*
X151412403Y-78500348D01*
X151457332Y-78545277D01*
X151563866Y-78616461D01*
X151563872Y-78616464D01*
X151563873Y-78616465D01*
X151682256Y-78665501D01*
X151682260Y-78665501D01*
X151682261Y-78665502D01*
X151807928Y-78690500D01*
X151807931Y-78690500D01*
X151836544Y-78690500D01*
X151903583Y-78710185D01*
X151941158Y-78747927D01*
X152357234Y-79401760D01*
X152376619Y-79468887D01*
X152375862Y-79482027D01*
X152345445Y-79755772D01*
X152336765Y-79789529D01*
X152326313Y-79814762D01*
X152311500Y-79927272D01*
X152311500Y-80054415D01*
X152310742Y-80068109D01*
X152293279Y-80225270D01*
X152266311Y-80289726D01*
X152208777Y-80329369D01*
X152166687Y-80335531D01*
X151646475Y-80321471D01*
X151579992Y-80299982D01*
X151562144Y-80285197D01*
X151156673Y-79879726D01*
X151059449Y-79814764D01*
X151050127Y-79808535D01*
X150931744Y-79759499D01*
X150931738Y-79759497D01*
X150806071Y-79734500D01*
X150806069Y-79734500D01*
X141276420Y-79734500D01*
X141209381Y-79714815D01*
X141163626Y-79662011D01*
X141152695Y-79618748D01*
X140989503Y-77170861D01*
X141004684Y-77102661D01*
X141054328Y-77053495D01*
X141113228Y-77038613D01*
X142099419Y-77038613D01*
X142166458Y-77058298D01*
G37*
%TD.AperFunction*%
%TD*%
M02*
