%TF.GenerationSoftware,KiCad,Pcbnew,8.0.5*%
%TF.CreationDate,2024-10-21T02:11:07+05:30*%
%TF.ProjectId,EPS_PDB,4550535f-5044-4422-9e6b-696361645f70,rev?*%
%TF.SameCoordinates,Original*%
%TF.FileFunction,Soldermask,Top*%
%TF.FilePolarity,Negative*%
%FSLAX46Y46*%
G04 Gerber Fmt 4.6, Leading zero omitted, Abs format (unit mm)*
G04 Created by KiCad (PCBNEW 8.0.5) date 2024-10-21 02:11:07*
%MOMM*%
%LPD*%
G01*
G04 APERTURE LIST*
G04 Aperture macros list*
%AMRoundRect*
0 Rectangle with rounded corners*
0 $1 Rounding radius*
0 $2 $3 $4 $5 $6 $7 $8 $9 X,Y pos of 4 corners*
0 Add a 4 corners polygon primitive as box body*
4,1,4,$2,$3,$4,$5,$6,$7,$8,$9,$2,$3,0*
0 Add four circle primitives for the rounded corners*
1,1,$1+$1,$2,$3*
1,1,$1+$1,$4,$5*
1,1,$1+$1,$6,$7*
1,1,$1+$1,$8,$9*
0 Add four rect primitives between the rounded corners*
20,1,$1+$1,$2,$3,$4,$5,0*
20,1,$1+$1,$4,$5,$6,$7,0*
20,1,$1+$1,$6,$7,$8,$9,0*
20,1,$1+$1,$8,$9,$2,$3,0*%
%AMRotRect*
0 Rectangle, with rotation*
0 The origin of the aperture is its center*
0 $1 length*
0 $2 width*
0 $3 Rotation angle, in degrees counterclockwise*
0 Add horizontal line*
21,1,$1,$2,0,0,$3*%
%AMFreePoly0*
4,1,19,0.550000,-0.750000,0.000000,-0.750000,0.000000,-0.744912,-0.071157,-0.744911,-0.207708,-0.704816,-0.327430,-0.627875,-0.420627,-0.520320,-0.479746,-0.390866,-0.500000,-0.250000,-0.500000,0.250000,-0.479746,0.390866,-0.420627,0.520320,-0.327430,0.627875,-0.207708,0.704816,-0.071157,0.744911,0.000000,0.744912,0.000000,0.750000,0.550000,0.750000,0.550000,-0.750000,0.550000,-0.750000,
$1*%
%AMFreePoly1*
4,1,19,0.000000,0.744912,0.071157,0.744911,0.207708,0.704816,0.327430,0.627875,0.420627,0.520320,0.479746,0.390866,0.500000,0.250000,0.500000,-0.250000,0.479746,-0.390866,0.420627,-0.520320,0.327430,-0.627875,0.207708,-0.704816,0.071157,-0.744911,0.000000,-0.744912,0.000000,-0.750000,-0.550000,-0.750000,-0.550000,0.750000,0.000000,0.750000,0.000000,0.744912,0.000000,0.744912,
$1*%
G04 Aperture macros list end*
%ADD10C,0.010000*%
%ADD11RoundRect,0.200000X-0.200000X-0.275000X0.200000X-0.275000X0.200000X0.275000X-0.200000X0.275000X0*%
%ADD12RoundRect,0.200000X-0.275000X0.200000X-0.275000X-0.200000X0.275000X-0.200000X0.275000X0.200000X0*%
%ADD13RoundRect,0.200000X0.200000X0.275000X-0.200000X0.275000X-0.200000X-0.275000X0.200000X-0.275000X0*%
%ADD14RoundRect,0.225000X0.017678X-0.335876X0.335876X-0.017678X-0.017678X0.335876X-0.335876X0.017678X0*%
%ADD15RoundRect,0.250000X0.325000X0.650000X-0.325000X0.650000X-0.325000X-0.650000X0.325000X-0.650000X0*%
%ADD16RoundRect,0.225000X-0.017678X0.335876X-0.335876X0.017678X0.017678X-0.335876X0.335876X-0.017678X0*%
%ADD17RoundRect,0.225000X0.225000X0.250000X-0.225000X0.250000X-0.225000X-0.250000X0.225000X-0.250000X0*%
%ADD18RoundRect,0.250000X-0.650000X0.325000X-0.650000X-0.325000X0.650000X-0.325000X0.650000X0.325000X0*%
%ADD19C,6.400000*%
%ADD20RoundRect,0.102000X-0.685000X-0.685000X0.685000X-0.685000X0.685000X0.685000X-0.685000X0.685000X0*%
%ADD21C,1.574000*%
%ADD22RoundRect,0.225000X-0.225000X-0.250000X0.225000X-0.250000X0.225000X0.250000X-0.225000X0.250000X0*%
%ADD23RoundRect,0.102000X0.152400X-0.393700X0.152400X0.393700X-0.152400X0.393700X-0.152400X-0.393700X0*%
%ADD24RoundRect,0.102000X1.244600X-0.876300X1.244600X0.876300X-1.244600X0.876300X-1.244600X-0.876300X0*%
%ADD25RoundRect,0.076750X0.810250X0.230250X-0.810250X0.230250X-0.810250X-0.230250X0.810250X-0.230250X0*%
%ADD26RoundRect,0.200000X0.053033X-0.335876X0.335876X-0.053033X-0.053033X0.335876X-0.335876X0.053033X0*%
%ADD27FreePoly0,315.000000*%
%ADD28RotRect,1.000000X1.500000X315.000000*%
%ADD29FreePoly1,315.000000*%
%ADD30RoundRect,0.102000X0.628618X-0.377171X-0.377171X0.628618X-0.628618X0.377171X0.377171X-0.628618X0*%
%ADD31RoundRect,0.250000X0.375000X0.625000X-0.375000X0.625000X-0.375000X-0.625000X0.375000X-0.625000X0*%
%ADD32RoundRect,0.225000X-0.250000X0.225000X-0.250000X-0.225000X0.250000X-0.225000X0.250000X0.225000X0*%
%ADD33RoundRect,0.400000X-3.275000X0.400000X-3.275000X-0.400000X3.275000X-0.400000X3.275000X0.400000X0*%
%ADD34RotRect,1.000000X1.800000X225.000000*%
%ADD35R,1.700000X1.700000*%
%ADD36O,1.700000X1.700000*%
%ADD37RoundRect,0.250000X-0.503814X-0.132583X-0.132583X-0.503814X0.503814X0.132583X0.132583X0.503814X0*%
%ADD38FreePoly0,180.000000*%
%ADD39R,1.000000X1.500000*%
%ADD40FreePoly1,180.000000*%
%ADD41RoundRect,0.200000X0.335876X0.053033X0.053033X0.335876X-0.335876X-0.053033X-0.053033X-0.335876X0*%
%ADD42RoundRect,0.225000X0.335876X0.017678X0.017678X0.335876X-0.335876X-0.017678X-0.017678X-0.335876X0*%
%ADD43RoundRect,0.085500X0.256500X-0.741500X0.256500X0.741500X-0.256500X0.741500X-0.256500X-0.741500X0*%
%ADD44RoundRect,0.102000X1.473500X-0.876500X1.473500X0.876500X-1.473500X0.876500X-1.473500X-0.876500X0*%
%ADD45RoundRect,0.350000X2.050000X0.350000X-2.050000X0.350000X-2.050000X-0.350000X2.050000X-0.350000X0*%
%ADD46RotRect,0.876300X0.406400X315.000000*%
%ADD47RoundRect,0.225000X0.250000X-0.225000X0.250000X0.225000X-0.250000X0.225000X-0.250000X-0.225000X0*%
%ADD48RoundRect,0.200000X-0.053033X0.335876X-0.335876X0.053033X0.053033X-0.335876X0.335876X-0.053033X0*%
%ADD49RoundRect,0.250000X-0.325000X-0.650000X0.325000X-0.650000X0.325000X0.650000X-0.325000X0.650000X0*%
%ADD50RoundRect,0.243750X-0.243750X-0.456250X0.243750X-0.456250X0.243750X0.456250X-0.243750X0.456250X0*%
%ADD51O,1.900000X1.050000*%
G04 APERTURE END LIST*
D10*
%TO.C,U17*%
X182001999Y-100610000D02*
X181361998Y-100610000D01*
X181361998Y-98270000D01*
X182001999Y-98270000D01*
X182001999Y-100610000D01*
G36*
X182001999Y-100610000D02*
G01*
X181361998Y-100610000D01*
X181361998Y-98270000D01*
X182001999Y-98270000D01*
X182001999Y-100610000D01*
G37*
X182001999Y-106360000D02*
X181361998Y-106360000D01*
X181361998Y-104020000D01*
X182001999Y-104020000D01*
X182001999Y-106360000D01*
G36*
X182001999Y-106360000D02*
G01*
X181361998Y-106360000D01*
X181361998Y-104020000D01*
X182001999Y-104020000D01*
X182001999Y-106360000D01*
G37*
X185136999Y-103515001D02*
X182036999Y-103515001D01*
X182036999Y-101114999D01*
X185136999Y-101114999D01*
X185136999Y-103515001D01*
G36*
X185136999Y-103515001D02*
G01*
X182036999Y-103515001D01*
X182036999Y-101114999D01*
X185136999Y-101114999D01*
X185136999Y-103515001D01*
G37*
X183271998Y-100610000D02*
X182631999Y-100610000D01*
X182631999Y-98270000D01*
X183271998Y-98270000D01*
X183271998Y-100610000D01*
G36*
X183271998Y-100610000D02*
G01*
X182631999Y-100610000D01*
X182631999Y-98270000D01*
X183271998Y-98270000D01*
X183271998Y-100610000D01*
G37*
X183271998Y-106360000D02*
X182631999Y-106360000D01*
X182631999Y-104020000D01*
X183271998Y-104020000D01*
X183271998Y-106360000D01*
G36*
X183271998Y-106360000D02*
G01*
X182631999Y-106360000D01*
X182631999Y-104020000D01*
X183271998Y-104020000D01*
X183271998Y-106360000D01*
G37*
X184541999Y-100610000D02*
X183902000Y-100610000D01*
X183902000Y-98270000D01*
X184541999Y-98270000D01*
X184541999Y-100610000D01*
G36*
X184541999Y-100610000D02*
G01*
X183902000Y-100610000D01*
X183902000Y-98270000D01*
X184541999Y-98270000D01*
X184541999Y-100610000D01*
G37*
X184541999Y-106360000D02*
X183902000Y-106360000D01*
X183902000Y-104020000D01*
X184541999Y-104020000D01*
X184541999Y-106360000D01*
G36*
X184541999Y-106360000D02*
G01*
X183902000Y-106360000D01*
X183902000Y-104020000D01*
X184541999Y-104020000D01*
X184541999Y-106360000D01*
G37*
X185812000Y-100610000D02*
X185171999Y-100610000D01*
X185171999Y-98270000D01*
X185812000Y-98270000D01*
X185812000Y-100610000D01*
G36*
X185812000Y-100610000D02*
G01*
X185171999Y-100610000D01*
X185171999Y-98270000D01*
X185812000Y-98270000D01*
X185812000Y-100610000D01*
G37*
X185812000Y-106360000D02*
X185171999Y-106360000D01*
X185171999Y-104020000D01*
X185812000Y-104020000D01*
X185812000Y-106360000D01*
G36*
X185812000Y-106360000D02*
G01*
X185171999Y-106360000D01*
X185171999Y-104020000D01*
X185812000Y-104020000D01*
X185812000Y-106360000D01*
G37*
%TO.C,U10*%
X152597000Y-100934999D02*
X151956999Y-100934999D01*
X151956999Y-98594999D01*
X152597000Y-98594999D01*
X152597000Y-100934999D01*
G36*
X152597000Y-100934999D02*
G01*
X151956999Y-100934999D01*
X151956999Y-98594999D01*
X152597000Y-98594999D01*
X152597000Y-100934999D01*
G37*
X152597000Y-106684999D02*
X151956999Y-106684999D01*
X151956999Y-104344999D01*
X152597000Y-104344999D01*
X152597000Y-106684999D01*
G36*
X152597000Y-106684999D02*
G01*
X151956999Y-106684999D01*
X151956999Y-104344999D01*
X152597000Y-104344999D01*
X152597000Y-106684999D01*
G37*
X155732000Y-103840000D02*
X152632000Y-103840000D01*
X152632000Y-101439998D01*
X155732000Y-101439998D01*
X155732000Y-103840000D01*
G36*
X155732000Y-103840000D02*
G01*
X152632000Y-103840000D01*
X152632000Y-101439998D01*
X155732000Y-101439998D01*
X155732000Y-103840000D01*
G37*
X153866999Y-100934999D02*
X153227000Y-100934999D01*
X153227000Y-98594999D01*
X153866999Y-98594999D01*
X153866999Y-100934999D01*
G36*
X153866999Y-100934999D02*
G01*
X153227000Y-100934999D01*
X153227000Y-98594999D01*
X153866999Y-98594999D01*
X153866999Y-100934999D01*
G37*
X153866999Y-106684999D02*
X153227000Y-106684999D01*
X153227000Y-104344999D01*
X153866999Y-104344999D01*
X153866999Y-106684999D01*
G36*
X153866999Y-106684999D02*
G01*
X153227000Y-106684999D01*
X153227000Y-104344999D01*
X153866999Y-104344999D01*
X153866999Y-106684999D01*
G37*
X155137000Y-100934999D02*
X154497001Y-100934999D01*
X154497001Y-98594999D01*
X155137000Y-98594999D01*
X155137000Y-100934999D01*
G36*
X155137000Y-100934999D02*
G01*
X154497001Y-100934999D01*
X154497001Y-98594999D01*
X155137000Y-98594999D01*
X155137000Y-100934999D01*
G37*
X155137000Y-106684999D02*
X154497001Y-106684999D01*
X154497001Y-104344999D01*
X155137000Y-104344999D01*
X155137000Y-106684999D01*
G36*
X155137000Y-106684999D02*
G01*
X154497001Y-106684999D01*
X154497001Y-104344999D01*
X155137000Y-104344999D01*
X155137000Y-106684999D01*
G37*
X156407001Y-100934999D02*
X155767000Y-100934999D01*
X155767000Y-98594999D01*
X156407001Y-98594999D01*
X156407001Y-100934999D01*
G36*
X156407001Y-100934999D02*
G01*
X155767000Y-100934999D01*
X155767000Y-98594999D01*
X156407001Y-98594999D01*
X156407001Y-100934999D01*
G37*
X156407001Y-106684999D02*
X155767000Y-106684999D01*
X155767000Y-104344999D01*
X156407001Y-104344999D01*
X156407001Y-106684999D01*
G36*
X156407001Y-106684999D02*
G01*
X155767000Y-106684999D01*
X155767000Y-104344999D01*
X156407001Y-104344999D01*
X156407001Y-106684999D01*
G37*
%TO.C,U9*%
X131197000Y-101035000D02*
X130556999Y-101035000D01*
X130556999Y-98695000D01*
X131197000Y-98695000D01*
X131197000Y-101035000D01*
G36*
X131197000Y-101035000D02*
G01*
X130556999Y-101035000D01*
X130556999Y-98695000D01*
X131197000Y-98695000D01*
X131197000Y-101035000D01*
G37*
X131197000Y-106785000D02*
X130556999Y-106785000D01*
X130556999Y-104445000D01*
X131197000Y-104445000D01*
X131197000Y-106785000D01*
G36*
X131197000Y-106785000D02*
G01*
X130556999Y-106785000D01*
X130556999Y-104445000D01*
X131197000Y-104445000D01*
X131197000Y-106785000D01*
G37*
X134332000Y-103940001D02*
X131232000Y-103940001D01*
X131232000Y-101539999D01*
X134332000Y-101539999D01*
X134332000Y-103940001D01*
G36*
X134332000Y-103940001D02*
G01*
X131232000Y-103940001D01*
X131232000Y-101539999D01*
X134332000Y-101539999D01*
X134332000Y-103940001D01*
G37*
X132466999Y-101035000D02*
X131827000Y-101035000D01*
X131827000Y-98695000D01*
X132466999Y-98695000D01*
X132466999Y-101035000D01*
G36*
X132466999Y-101035000D02*
G01*
X131827000Y-101035000D01*
X131827000Y-98695000D01*
X132466999Y-98695000D01*
X132466999Y-101035000D01*
G37*
X132466999Y-106785000D02*
X131827000Y-106785000D01*
X131827000Y-104445000D01*
X132466999Y-104445000D01*
X132466999Y-106785000D01*
G36*
X132466999Y-106785000D02*
G01*
X131827000Y-106785000D01*
X131827000Y-104445000D01*
X132466999Y-104445000D01*
X132466999Y-106785000D01*
G37*
X133737000Y-101035000D02*
X133097001Y-101035000D01*
X133097001Y-98695000D01*
X133737000Y-98695000D01*
X133737000Y-101035000D01*
G36*
X133737000Y-101035000D02*
G01*
X133097001Y-101035000D01*
X133097001Y-98695000D01*
X133737000Y-98695000D01*
X133737000Y-101035000D01*
G37*
X133737000Y-106785000D02*
X133097001Y-106785000D01*
X133097001Y-104445000D01*
X133737000Y-104445000D01*
X133737000Y-106785000D01*
G36*
X133737000Y-106785000D02*
G01*
X133097001Y-106785000D01*
X133097001Y-104445000D01*
X133737000Y-104445000D01*
X133737000Y-106785000D01*
G37*
X135007001Y-101035000D02*
X134367000Y-101035000D01*
X134367000Y-98695000D01*
X135007001Y-98695000D01*
X135007001Y-101035000D01*
G36*
X135007001Y-101035000D02*
G01*
X134367000Y-101035000D01*
X134367000Y-98695000D01*
X135007001Y-98695000D01*
X135007001Y-101035000D01*
G37*
X135007001Y-106785000D02*
X134367000Y-106785000D01*
X134367000Y-104445000D01*
X135007001Y-104445000D01*
X135007001Y-106785000D01*
G36*
X135007001Y-106785000D02*
G01*
X134367000Y-106785000D01*
X134367000Y-104445000D01*
X135007001Y-104445000D01*
X135007001Y-106785000D01*
G37*
%TO.C,U13*%
X172697000Y-100835000D02*
X172056999Y-100835000D01*
X172056999Y-98495000D01*
X172697000Y-98495000D01*
X172697000Y-100835000D01*
G36*
X172697000Y-100835000D02*
G01*
X172056999Y-100835000D01*
X172056999Y-98495000D01*
X172697000Y-98495000D01*
X172697000Y-100835000D01*
G37*
X172697000Y-106585000D02*
X172056999Y-106585000D01*
X172056999Y-104245000D01*
X172697000Y-104245000D01*
X172697000Y-106585000D01*
G36*
X172697000Y-106585000D02*
G01*
X172056999Y-106585000D01*
X172056999Y-104245000D01*
X172697000Y-104245000D01*
X172697000Y-106585000D01*
G37*
X175832000Y-103740001D02*
X172732000Y-103740001D01*
X172732000Y-101339999D01*
X175832000Y-101339999D01*
X175832000Y-103740001D01*
G36*
X175832000Y-103740001D02*
G01*
X172732000Y-103740001D01*
X172732000Y-101339999D01*
X175832000Y-101339999D01*
X175832000Y-103740001D01*
G37*
X173966999Y-100835000D02*
X173327000Y-100835000D01*
X173327000Y-98495000D01*
X173966999Y-98495000D01*
X173966999Y-100835000D01*
G36*
X173966999Y-100835000D02*
G01*
X173327000Y-100835000D01*
X173327000Y-98495000D01*
X173966999Y-98495000D01*
X173966999Y-100835000D01*
G37*
X173966999Y-106585000D02*
X173327000Y-106585000D01*
X173327000Y-104245000D01*
X173966999Y-104245000D01*
X173966999Y-106585000D01*
G36*
X173966999Y-106585000D02*
G01*
X173327000Y-106585000D01*
X173327000Y-104245000D01*
X173966999Y-104245000D01*
X173966999Y-106585000D01*
G37*
X175237000Y-100835000D02*
X174597001Y-100835000D01*
X174597001Y-98495000D01*
X175237000Y-98495000D01*
X175237000Y-100835000D01*
G36*
X175237000Y-100835000D02*
G01*
X174597001Y-100835000D01*
X174597001Y-98495000D01*
X175237000Y-98495000D01*
X175237000Y-100835000D01*
G37*
X175237000Y-106585000D02*
X174597001Y-106585000D01*
X174597001Y-104245000D01*
X175237000Y-104245000D01*
X175237000Y-106585000D01*
G36*
X175237000Y-106585000D02*
G01*
X174597001Y-106585000D01*
X174597001Y-104245000D01*
X175237000Y-104245000D01*
X175237000Y-106585000D01*
G37*
X176507001Y-100835000D02*
X175867000Y-100835000D01*
X175867000Y-98495000D01*
X176507001Y-98495000D01*
X176507001Y-100835000D01*
G36*
X176507001Y-100835000D02*
G01*
X175867000Y-100835000D01*
X175867000Y-98495000D01*
X176507001Y-98495000D01*
X176507001Y-100835000D01*
G37*
X176507001Y-106585000D02*
X175867000Y-106585000D01*
X175867000Y-104245000D01*
X176507001Y-104245000D01*
X176507001Y-106585000D01*
G36*
X176507001Y-106585000D02*
G01*
X175867000Y-106585000D01*
X175867000Y-104245000D01*
X176507001Y-104245000D01*
X176507001Y-106585000D01*
G37*
%TO.C,U16*%
X193197000Y-93635000D02*
X192556999Y-93635000D01*
X192556999Y-91295000D01*
X193197000Y-91295000D01*
X193197000Y-93635000D01*
G36*
X193197000Y-93635000D02*
G01*
X192556999Y-93635000D01*
X192556999Y-91295000D01*
X193197000Y-91295000D01*
X193197000Y-93635000D01*
G37*
X193197000Y-99385000D02*
X192556999Y-99385000D01*
X192556999Y-97045000D01*
X193197000Y-97045000D01*
X193197000Y-99385000D01*
G36*
X193197000Y-99385000D02*
G01*
X192556999Y-99385000D01*
X192556999Y-97045000D01*
X193197000Y-97045000D01*
X193197000Y-99385000D01*
G37*
X196332000Y-96540001D02*
X193232000Y-96540001D01*
X193232000Y-94139999D01*
X196332000Y-94139999D01*
X196332000Y-96540001D01*
G36*
X196332000Y-96540001D02*
G01*
X193232000Y-96540001D01*
X193232000Y-94139999D01*
X196332000Y-94139999D01*
X196332000Y-96540001D01*
G37*
X194466999Y-93635000D02*
X193827000Y-93635000D01*
X193827000Y-91295000D01*
X194466999Y-91295000D01*
X194466999Y-93635000D01*
G36*
X194466999Y-93635000D02*
G01*
X193827000Y-93635000D01*
X193827000Y-91295000D01*
X194466999Y-91295000D01*
X194466999Y-93635000D01*
G37*
X194466999Y-99385000D02*
X193827000Y-99385000D01*
X193827000Y-97045000D01*
X194466999Y-97045000D01*
X194466999Y-99385000D01*
G36*
X194466999Y-99385000D02*
G01*
X193827000Y-99385000D01*
X193827000Y-97045000D01*
X194466999Y-97045000D01*
X194466999Y-99385000D01*
G37*
X195737000Y-93635000D02*
X195097001Y-93635000D01*
X195097001Y-91295000D01*
X195737000Y-91295000D01*
X195737000Y-93635000D01*
G36*
X195737000Y-93635000D02*
G01*
X195097001Y-93635000D01*
X195097001Y-91295000D01*
X195737000Y-91295000D01*
X195737000Y-93635000D01*
G37*
X195737000Y-99385000D02*
X195097001Y-99385000D01*
X195097001Y-97045000D01*
X195737000Y-97045000D01*
X195737000Y-99385000D01*
G36*
X195737000Y-99385000D02*
G01*
X195097001Y-99385000D01*
X195097001Y-97045000D01*
X195737000Y-97045000D01*
X195737000Y-99385000D01*
G37*
X197007001Y-93635000D02*
X196367000Y-93635000D01*
X196367000Y-91295000D01*
X197007001Y-91295000D01*
X197007001Y-93635000D01*
G36*
X197007001Y-93635000D02*
G01*
X196367000Y-93635000D01*
X196367000Y-91295000D01*
X197007001Y-91295000D01*
X197007001Y-93635000D01*
G37*
X197007001Y-99385000D02*
X196367000Y-99385000D01*
X196367000Y-97045000D01*
X197007001Y-97045000D01*
X197007001Y-99385000D01*
G36*
X197007001Y-99385000D02*
G01*
X196367000Y-99385000D01*
X196367000Y-97045000D01*
X197007001Y-97045000D01*
X197007001Y-99385000D01*
G37*
%TO.C,U18*%
X191897000Y-113534999D02*
X191256999Y-113534999D01*
X191256999Y-111194999D01*
X191897000Y-111194999D01*
X191897000Y-113534999D01*
G36*
X191897000Y-113534999D02*
G01*
X191256999Y-113534999D01*
X191256999Y-111194999D01*
X191897000Y-111194999D01*
X191897000Y-113534999D01*
G37*
X191897000Y-119284999D02*
X191256999Y-119284999D01*
X191256999Y-116944999D01*
X191897000Y-116944999D01*
X191897000Y-119284999D01*
G36*
X191897000Y-119284999D02*
G01*
X191256999Y-119284999D01*
X191256999Y-116944999D01*
X191897000Y-116944999D01*
X191897000Y-119284999D01*
G37*
X195032000Y-116440000D02*
X191932000Y-116440000D01*
X191932000Y-114039998D01*
X195032000Y-114039998D01*
X195032000Y-116440000D01*
G36*
X195032000Y-116440000D02*
G01*
X191932000Y-116440000D01*
X191932000Y-114039998D01*
X195032000Y-114039998D01*
X195032000Y-116440000D01*
G37*
X193166999Y-113534999D02*
X192527000Y-113534999D01*
X192527000Y-111194999D01*
X193166999Y-111194999D01*
X193166999Y-113534999D01*
G36*
X193166999Y-113534999D02*
G01*
X192527000Y-113534999D01*
X192527000Y-111194999D01*
X193166999Y-111194999D01*
X193166999Y-113534999D01*
G37*
X193166999Y-119284999D02*
X192527000Y-119284999D01*
X192527000Y-116944999D01*
X193166999Y-116944999D01*
X193166999Y-119284999D01*
G36*
X193166999Y-119284999D02*
G01*
X192527000Y-119284999D01*
X192527000Y-116944999D01*
X193166999Y-116944999D01*
X193166999Y-119284999D01*
G37*
X194437000Y-113534999D02*
X193797001Y-113534999D01*
X193797001Y-111194999D01*
X194437000Y-111194999D01*
X194437000Y-113534999D01*
G36*
X194437000Y-113534999D02*
G01*
X193797001Y-113534999D01*
X193797001Y-111194999D01*
X194437000Y-111194999D01*
X194437000Y-113534999D01*
G37*
X194437000Y-119284999D02*
X193797001Y-119284999D01*
X193797001Y-116944999D01*
X194437000Y-116944999D01*
X194437000Y-119284999D01*
G36*
X194437000Y-119284999D02*
G01*
X193797001Y-119284999D01*
X193797001Y-116944999D01*
X194437000Y-116944999D01*
X194437000Y-119284999D01*
G37*
X195707001Y-113534999D02*
X195067000Y-113534999D01*
X195067000Y-111194999D01*
X195707001Y-111194999D01*
X195707001Y-113534999D01*
G36*
X195707001Y-113534999D02*
G01*
X195067000Y-113534999D01*
X195067000Y-111194999D01*
X195707001Y-111194999D01*
X195707001Y-113534999D01*
G37*
X195707001Y-119284999D02*
X195067000Y-119284999D01*
X195067000Y-116944999D01*
X195707001Y-116944999D01*
X195707001Y-119284999D01*
G36*
X195707001Y-119284999D02*
G01*
X195067000Y-119284999D01*
X195067000Y-116944999D01*
X195707001Y-116944999D01*
X195707001Y-119284999D01*
G37*
%TO.C,U12*%
X162997000Y-100935000D02*
X162357000Y-100935000D01*
X162357000Y-98595000D01*
X162997000Y-98595000D01*
X162997000Y-100935000D01*
G36*
X162997000Y-100935000D02*
G01*
X162357000Y-100935000D01*
X162357000Y-98595000D01*
X162997000Y-98595000D01*
X162997000Y-100935000D01*
G37*
X162997000Y-106685000D02*
X162357000Y-106685000D01*
X162357000Y-104345000D01*
X162997000Y-104345000D01*
X162997000Y-106685000D01*
G36*
X162997000Y-106685000D02*
G01*
X162357000Y-106685000D01*
X162357000Y-104345000D01*
X162997000Y-104345000D01*
X162997000Y-106685000D01*
G37*
X166132000Y-103840000D02*
X163032000Y-103840000D01*
X163032000Y-101440000D01*
X166132000Y-101440000D01*
X166132000Y-103840000D01*
G36*
X166132000Y-103840000D02*
G01*
X163032000Y-103840000D01*
X163032000Y-101440000D01*
X166132000Y-101440000D01*
X166132000Y-103840000D01*
G37*
X164267000Y-100935000D02*
X163627000Y-100935000D01*
X163627000Y-98595000D01*
X164267000Y-98595000D01*
X164267000Y-100935000D01*
G36*
X164267000Y-100935000D02*
G01*
X163627000Y-100935000D01*
X163627000Y-98595000D01*
X164267000Y-98595000D01*
X164267000Y-100935000D01*
G37*
X164267000Y-106685000D02*
X163627000Y-106685000D01*
X163627000Y-104345000D01*
X164267000Y-104345000D01*
X164267000Y-106685000D01*
G36*
X164267000Y-106685000D02*
G01*
X163627000Y-106685000D01*
X163627000Y-104345000D01*
X164267000Y-104345000D01*
X164267000Y-106685000D01*
G37*
X165537000Y-100935000D02*
X164897000Y-100935000D01*
X164897000Y-98595000D01*
X165537000Y-98595000D01*
X165537000Y-100935000D01*
G36*
X165537000Y-100935000D02*
G01*
X164897000Y-100935000D01*
X164897000Y-98595000D01*
X165537000Y-98595000D01*
X165537000Y-100935000D01*
G37*
X165537000Y-106685000D02*
X164897000Y-106685000D01*
X164897000Y-104345000D01*
X165537000Y-104345000D01*
X165537000Y-106685000D01*
G36*
X165537000Y-106685000D02*
G01*
X164897000Y-106685000D01*
X164897000Y-104345000D01*
X165537000Y-104345000D01*
X165537000Y-106685000D01*
G37*
X166807000Y-100935000D02*
X166167000Y-100935000D01*
X166167000Y-98595000D01*
X166807000Y-98595000D01*
X166807000Y-100935000D01*
G36*
X166807000Y-100935000D02*
G01*
X166167000Y-100935000D01*
X166167000Y-98595000D01*
X166807000Y-98595000D01*
X166807000Y-100935000D01*
G37*
X166807000Y-106685000D02*
X166167000Y-106685000D01*
X166167000Y-104345000D01*
X166807000Y-104345000D01*
X166807000Y-106685000D01*
G36*
X166807000Y-106685000D02*
G01*
X166167000Y-106685000D01*
X166167000Y-104345000D01*
X166807000Y-104345000D01*
X166807000Y-106685000D01*
G37*
%TO.C,U7*%
X120897000Y-100735000D02*
X120256999Y-100735000D01*
X120256999Y-98395000D01*
X120897000Y-98395000D01*
X120897000Y-100735000D01*
G36*
X120897000Y-100735000D02*
G01*
X120256999Y-100735000D01*
X120256999Y-98395000D01*
X120897000Y-98395000D01*
X120897000Y-100735000D01*
G37*
X120897000Y-106485000D02*
X120256999Y-106485000D01*
X120256999Y-104145000D01*
X120897000Y-104145000D01*
X120897000Y-106485000D01*
G36*
X120897000Y-106485000D02*
G01*
X120256999Y-106485000D01*
X120256999Y-104145000D01*
X120897000Y-104145000D01*
X120897000Y-106485000D01*
G37*
X124032000Y-103640001D02*
X120932000Y-103640001D01*
X120932000Y-101239999D01*
X124032000Y-101239999D01*
X124032000Y-103640001D01*
G36*
X124032000Y-103640001D02*
G01*
X120932000Y-103640001D01*
X120932000Y-101239999D01*
X124032000Y-101239999D01*
X124032000Y-103640001D01*
G37*
X122166999Y-100735000D02*
X121527000Y-100735000D01*
X121527000Y-98395000D01*
X122166999Y-98395000D01*
X122166999Y-100735000D01*
G36*
X122166999Y-100735000D02*
G01*
X121527000Y-100735000D01*
X121527000Y-98395000D01*
X122166999Y-98395000D01*
X122166999Y-100735000D01*
G37*
X122166999Y-106485000D02*
X121527000Y-106485000D01*
X121527000Y-104145000D01*
X122166999Y-104145000D01*
X122166999Y-106485000D01*
G36*
X122166999Y-106485000D02*
G01*
X121527000Y-106485000D01*
X121527000Y-104145000D01*
X122166999Y-104145000D01*
X122166999Y-106485000D01*
G37*
X123437000Y-100735000D02*
X122797001Y-100735000D01*
X122797001Y-98395000D01*
X123437000Y-98395000D01*
X123437000Y-100735000D01*
G36*
X123437000Y-100735000D02*
G01*
X122797001Y-100735000D01*
X122797001Y-98395000D01*
X123437000Y-98395000D01*
X123437000Y-100735000D01*
G37*
X123437000Y-106485000D02*
X122797001Y-106485000D01*
X122797001Y-104145000D01*
X123437000Y-104145000D01*
X123437000Y-106485000D01*
G36*
X123437000Y-106485000D02*
G01*
X122797001Y-106485000D01*
X122797001Y-104145000D01*
X123437000Y-104145000D01*
X123437000Y-106485000D01*
G37*
X124707001Y-100735000D02*
X124067000Y-100735000D01*
X124067000Y-98395000D01*
X124707001Y-98395000D01*
X124707001Y-100735000D01*
G36*
X124707001Y-100735000D02*
G01*
X124067000Y-100735000D01*
X124067000Y-98395000D01*
X124707001Y-98395000D01*
X124707001Y-100735000D01*
G37*
X124707001Y-106485000D02*
X124067000Y-106485000D01*
X124067000Y-104145000D01*
X124707001Y-104145000D01*
X124707001Y-106485000D01*
G36*
X124707001Y-106485000D02*
G01*
X124067000Y-106485000D01*
X124067000Y-104145000D01*
X124707001Y-104145000D01*
X124707001Y-106485000D01*
G37*
%TO.C,U6*%
X141597000Y-101135000D02*
X140956999Y-101135000D01*
X140956999Y-98795000D01*
X141597000Y-98795000D01*
X141597000Y-101135000D01*
G36*
X141597000Y-101135000D02*
G01*
X140956999Y-101135000D01*
X140956999Y-98795000D01*
X141597000Y-98795000D01*
X141597000Y-101135000D01*
G37*
X141597000Y-106885000D02*
X140956999Y-106885000D01*
X140956999Y-104545000D01*
X141597000Y-104545000D01*
X141597000Y-106885000D01*
G36*
X141597000Y-106885000D02*
G01*
X140956999Y-106885000D01*
X140956999Y-104545000D01*
X141597000Y-104545000D01*
X141597000Y-106885000D01*
G37*
X144732000Y-104040001D02*
X141632000Y-104040001D01*
X141632000Y-101639999D01*
X144732000Y-101639999D01*
X144732000Y-104040001D01*
G36*
X144732000Y-104040001D02*
G01*
X141632000Y-104040001D01*
X141632000Y-101639999D01*
X144732000Y-101639999D01*
X144732000Y-104040001D01*
G37*
X142866999Y-101135000D02*
X142227000Y-101135000D01*
X142227000Y-98795000D01*
X142866999Y-98795000D01*
X142866999Y-101135000D01*
G36*
X142866999Y-101135000D02*
G01*
X142227000Y-101135000D01*
X142227000Y-98795000D01*
X142866999Y-98795000D01*
X142866999Y-101135000D01*
G37*
X142866999Y-106885000D02*
X142227000Y-106885000D01*
X142227000Y-104545000D01*
X142866999Y-104545000D01*
X142866999Y-106885000D01*
G36*
X142866999Y-106885000D02*
G01*
X142227000Y-106885000D01*
X142227000Y-104545000D01*
X142866999Y-104545000D01*
X142866999Y-106885000D01*
G37*
X144137000Y-101135000D02*
X143497001Y-101135000D01*
X143497001Y-98795000D01*
X144137000Y-98795000D01*
X144137000Y-101135000D01*
G36*
X144137000Y-101135000D02*
G01*
X143497001Y-101135000D01*
X143497001Y-98795000D01*
X144137000Y-98795000D01*
X144137000Y-101135000D01*
G37*
X144137000Y-106885000D02*
X143497001Y-106885000D01*
X143497001Y-104545000D01*
X144137000Y-104545000D01*
X144137000Y-106885000D01*
G36*
X144137000Y-106885000D02*
G01*
X143497001Y-106885000D01*
X143497001Y-104545000D01*
X144137000Y-104545000D01*
X144137000Y-106885000D01*
G37*
X145407001Y-101135000D02*
X144767000Y-101135000D01*
X144767000Y-98795000D01*
X145407001Y-98795000D01*
X145407001Y-101135000D01*
G36*
X145407001Y-101135000D02*
G01*
X144767000Y-101135000D01*
X144767000Y-98795000D01*
X145407001Y-98795000D01*
X145407001Y-101135000D01*
G37*
X145407001Y-106885000D02*
X144767000Y-106885000D01*
X144767000Y-104545000D01*
X145407001Y-104545000D01*
X145407001Y-106885000D01*
G36*
X145407001Y-106885000D02*
G01*
X144767000Y-106885000D01*
X144767000Y-104545000D01*
X145407001Y-104545000D01*
X145407001Y-106885000D01*
G37*
%TD*%
D11*
%TO.C,R32*%
X151807000Y-96690000D03*
X153457000Y-96690000D03*
%TD*%
D12*
%TO.C,R15*%
X126257000Y-104390000D03*
X126257000Y-106040000D03*
%TD*%
D13*
%TO.C,R41*%
X137982000Y-97015000D03*
X136332000Y-97015000D03*
%TD*%
D14*
%TO.C,C20*%
X168482000Y-69290000D03*
X169578016Y-68193984D03*
%TD*%
D15*
%TO.C,C48*%
X165957000Y-121990000D03*
X163007000Y-121990000D03*
%TD*%
D11*
%TO.C,R19*%
X154832000Y-97090000D03*
X156482000Y-97090000D03*
%TD*%
D16*
%TO.C,C39*%
X182178016Y-77090000D03*
X181082000Y-78186016D03*
%TD*%
D17*
%TO.C,C22*%
X180957000Y-131040000D03*
X179407000Y-131040000D03*
%TD*%
D18*
%TO.C,C32*%
X196082000Y-122114998D03*
X196082000Y-125065000D03*
%TD*%
D19*
%TO.C,H4*%
X119282000Y-132690000D03*
%TD*%
D20*
%TO.C,J4*%
X127532000Y-53880000D03*
D21*
X127532000Y-51340000D03*
X130072000Y-53880000D03*
X130072000Y-51340000D03*
X132612000Y-53880000D03*
X132612000Y-51340000D03*
X135152000Y-53880000D03*
X135152000Y-51340000D03*
X137692000Y-53880000D03*
X137692000Y-51340000D03*
X140232000Y-53880000D03*
X140232000Y-51340000D03*
X142772000Y-53880000D03*
X142772000Y-51340000D03*
X145312000Y-53880000D03*
X145312000Y-51340000D03*
X147852000Y-53880000D03*
X147852000Y-51340000D03*
X150392000Y-53880000D03*
X150392000Y-51340000D03*
X152932000Y-53880000D03*
X152932000Y-51340000D03*
X155472000Y-53880000D03*
X155472000Y-51340000D03*
X158012000Y-53880000D03*
X158012000Y-51340000D03*
X160552000Y-53880000D03*
X160552000Y-51340000D03*
X163092000Y-53880000D03*
X163092000Y-51340000D03*
X165632000Y-53880000D03*
X165632000Y-51340000D03*
X168172000Y-53880000D03*
X168172000Y-51340000D03*
X170712000Y-53880000D03*
X170712000Y-51340000D03*
X173252000Y-53880000D03*
X173252000Y-51340000D03*
X175792000Y-53880000D03*
X175792000Y-51340000D03*
X178332000Y-53880000D03*
X178332000Y-51340000D03*
X180872000Y-53880000D03*
X180872000Y-51340000D03*
X183412000Y-53880000D03*
X183412000Y-51340000D03*
X185952000Y-53880000D03*
X185952000Y-51340000D03*
X188492000Y-53880000D03*
X188492000Y-51340000D03*
X191032000Y-53880000D03*
X191032000Y-51340000D03*
%TD*%
D15*
%TO.C,C47*%
X161557001Y-111990000D03*
X158606999Y-111990000D03*
%TD*%
D22*
%TO.C,C27*%
X184082000Y-130190000D03*
X185632000Y-130190000D03*
%TD*%
D14*
%TO.C,C30*%
X170533992Y-69838008D03*
X171630008Y-68741992D03*
%TD*%
D19*
%TO.C,H3*%
X199282000Y-132690000D03*
%TD*%
D20*
%TO.C,J3*%
X127532000Y-58960000D03*
D21*
X127532000Y-56420000D03*
X130072000Y-58960000D03*
X130072000Y-56420000D03*
X132612000Y-58960000D03*
X132612000Y-56420000D03*
X135152000Y-58960000D03*
X135152000Y-56420000D03*
X137692000Y-58960000D03*
X137692000Y-56420000D03*
X140232000Y-58960000D03*
X140232000Y-56420000D03*
X142772000Y-58960000D03*
X142772000Y-56420000D03*
X145312000Y-58960000D03*
X145312000Y-56420000D03*
X147852000Y-58960000D03*
X147852000Y-56420000D03*
X150392000Y-58960000D03*
X150392000Y-56420000D03*
X152932000Y-58960000D03*
X152932000Y-56420000D03*
X155472000Y-58960000D03*
X155472000Y-56420000D03*
X158012000Y-58960000D03*
X158012000Y-56420000D03*
X160552000Y-58960000D03*
X160552000Y-56420000D03*
X163092000Y-58960000D03*
X163092000Y-56420000D03*
X165632000Y-58960000D03*
X165632000Y-56420000D03*
X168172000Y-58960000D03*
X168172000Y-56420000D03*
X170712000Y-58960000D03*
X170712000Y-56420000D03*
X173252000Y-58960000D03*
X173252000Y-56420000D03*
X175792000Y-58960000D03*
X175792000Y-56420000D03*
X178332000Y-58960000D03*
X178332000Y-56420000D03*
X180872000Y-58960000D03*
X180872000Y-56420000D03*
X183412000Y-58960000D03*
X183412000Y-56420000D03*
X185952000Y-58960000D03*
X185952000Y-56420000D03*
X188492000Y-58960000D03*
X188492000Y-56420000D03*
X191032000Y-58960000D03*
X191032000Y-56420000D03*
%TD*%
D23*
%TO.C,U19*%
X161681998Y-120090000D03*
X162181999Y-120090000D03*
X162681999Y-120090000D03*
X163182000Y-120090000D03*
X163182000Y-117169000D03*
X162681999Y-117169000D03*
X162181999Y-117169000D03*
X161681998Y-117169000D03*
D24*
X162431999Y-118629500D03*
%TD*%
D25*
%TO.C,U11*%
X186752000Y-125664999D03*
X186752000Y-125015000D03*
X186752000Y-124365001D03*
X186752000Y-123715000D03*
X186752000Y-123065000D03*
X186752000Y-122414999D03*
X186752000Y-121765000D03*
X186752000Y-121115001D03*
X181012000Y-121115001D03*
X181012000Y-121765000D03*
X181012000Y-122414999D03*
X181012000Y-123065000D03*
X181012000Y-123715000D03*
X181012000Y-124365001D03*
X181012000Y-125015000D03*
X181012000Y-125664999D03*
%TD*%
D22*
%TO.C,C42*%
X196782000Y-90190000D03*
X198332000Y-90190000D03*
%TD*%
D13*
%TO.C,R28*%
X190532000Y-124140000D03*
X188882000Y-124140000D03*
%TD*%
D12*
%TO.C,R27*%
X178982000Y-127865000D03*
X178982000Y-129515000D03*
%TD*%
D11*
%TO.C,R26*%
X130657000Y-96339999D03*
X132307000Y-96339999D03*
%TD*%
D26*
%TO.C,R14*%
X141982000Y-91640000D03*
X143148726Y-90473274D03*
%TD*%
D27*
%TO.C,JP5*%
X180262761Y-65170761D03*
D28*
X181182000Y-66090000D03*
D29*
X182101239Y-67009239D03*
%TD*%
D12*
%TO.C,R34*%
X170082000Y-101665000D03*
X170082000Y-103315000D03*
%TD*%
D16*
%TO.C,C35*%
X176778016Y-80293984D03*
X175682000Y-81390000D03*
%TD*%
D30*
%TO.C,U14*%
X176848053Y-77318943D03*
X177297066Y-76869931D03*
X177764039Y-76402957D03*
X178213052Y-75953944D03*
X178680026Y-75486971D03*
X179146999Y-75019998D03*
X179596012Y-74570985D03*
X180062985Y-74104012D03*
X180511998Y-73654999D03*
X180978971Y-73188026D03*
X181445944Y-72721052D03*
X181894957Y-72272039D03*
X182361931Y-71805066D03*
X182810943Y-71356053D03*
X178715947Y-67261057D03*
X178266934Y-67710069D03*
X177799961Y-68177043D03*
X177350948Y-68626056D03*
X176883974Y-69093029D03*
X176417001Y-69560002D03*
X175967988Y-70009015D03*
X175501015Y-70475988D03*
X175052002Y-70925001D03*
X174585029Y-71391974D03*
X174118056Y-71858948D03*
X173669043Y-72307961D03*
X173202069Y-72774934D03*
X172753057Y-73223947D03*
%TD*%
D19*
%TO.C,H2*%
X199282000Y-52690000D03*
%TD*%
D31*
%TO.C,D6*%
X183282000Y-117840000D03*
X180482002Y-117840000D03*
%TD*%
D12*
%TO.C,R16*%
X136782000Y-104465000D03*
X136782000Y-106115000D03*
%TD*%
D32*
%TO.C,C45*%
X197207000Y-112540000D03*
X197207000Y-114090000D03*
%TD*%
D11*
%TO.C,R43*%
X191257000Y-108890000D03*
X192907000Y-108890000D03*
%TD*%
D33*
%TO.C,L3*%
X154939500Y-115732500D03*
X154939500Y-120732500D03*
%TD*%
D34*
%TO.C,Y2*%
X165998117Y-69073883D03*
X167765883Y-67306117D03*
%TD*%
D33*
%TO.C,L2*%
X125759250Y-116217500D03*
X125759250Y-121217500D03*
%TD*%
D32*
%TO.C,C21*%
X136482000Y-99940000D03*
X136482000Y-101490000D03*
%TD*%
D35*
%TO.C,JP1*%
X187792000Y-82435000D03*
D36*
X187792000Y-79895000D03*
%TD*%
D37*
%TO.C,120R2*%
X177636765Y-81744765D03*
X178927235Y-83035235D03*
%TD*%
D16*
%TO.C,C38*%
X181082000Y-75990000D03*
X179985984Y-77086016D03*
%TD*%
D38*
%TO.C,JP6*%
X167682000Y-115390000D03*
D39*
X166382000Y-115390000D03*
D40*
X165082000Y-115390000D03*
%TD*%
D41*
%TO.C,R42*%
X146698637Y-110206637D03*
X147865363Y-111373363D03*
%TD*%
D18*
%TO.C,C31*%
X193532000Y-122139998D03*
X193532000Y-125090000D03*
%TD*%
D11*
%TO.C,R24*%
X184657000Y-95465000D03*
X186307000Y-95465000D03*
%TD*%
D12*
%TO.C,R29*%
X187207000Y-128590000D03*
X187207000Y-130240000D03*
%TD*%
D11*
%TO.C,R35*%
X161557000Y-96790000D03*
X163207000Y-96790000D03*
%TD*%
D42*
%TO.C,C37*%
X177582000Y-84190000D03*
X176485984Y-83093984D03*
%TD*%
D12*
%TO.C,R38*%
X179482000Y-101865000D03*
X179482000Y-103515000D03*
%TD*%
D43*
%TO.C,U15*%
X131882000Y-121610000D03*
X132532000Y-121610000D03*
X133182000Y-121610000D03*
X133832000Y-121610000D03*
X134482000Y-121610000D03*
X135132000Y-121610000D03*
X135132000Y-117290000D03*
X134482000Y-117290000D03*
X133832000Y-117290000D03*
X133182000Y-117290000D03*
X132532000Y-117290000D03*
X131882000Y-117290000D03*
D44*
X133507000Y-119450000D03*
%TD*%
D45*
%TO.C,L1*%
X174622000Y-122890000D03*
X174602000Y-126360000D03*
%TD*%
D32*
%TO.C,C17*%
X146782000Y-100115000D03*
X146782000Y-101665000D03*
%TD*%
D22*
%TO.C,C25*%
X185232000Y-127065000D03*
X186782000Y-127065000D03*
%TD*%
%TO.C,C33*%
X166457000Y-96365000D03*
X168007000Y-96365000D03*
%TD*%
D32*
%TO.C,C26*%
X157732000Y-99815000D03*
X157732000Y-101365000D03*
%TD*%
%TO.C,C46*%
X162682000Y-114215000D03*
X162682000Y-115765000D03*
%TD*%
%TO.C,C18*%
X126082000Y-99715000D03*
X126082000Y-101265000D03*
%TD*%
D46*
%TO.C,U8*%
X194182000Y-78190000D03*
X192150837Y-77078074D03*
X193070074Y-76158837D03*
%TD*%
D47*
%TO.C,C23*%
X179032000Y-126290000D03*
X179032000Y-124740000D03*
%TD*%
D35*
%TO.C,J2*%
X196632000Y-59550001D03*
D36*
X196632000Y-62090001D03*
X196632000Y-64630000D03*
X196632000Y-67170001D03*
%TD*%
D48*
%TO.C,R21*%
X193365363Y-73606637D03*
X192198637Y-74773363D03*
%TD*%
D11*
%TO.C,R36*%
X171957000Y-96590000D03*
X173607000Y-96590000D03*
%TD*%
%TO.C,R25*%
X197507000Y-109890000D03*
X199157000Y-109890000D03*
%TD*%
D12*
%TO.C,R37*%
X190582000Y-94665000D03*
X190582000Y-96315000D03*
%TD*%
D32*
%TO.C,C41*%
X133882000Y-113915000D03*
X133882000Y-115465000D03*
%TD*%
D16*
%TO.C,C36*%
X175728016Y-79241992D03*
X174632000Y-80338008D03*
%TD*%
D11*
%TO.C,R40*%
X181257000Y-96690000D03*
X182907000Y-96690000D03*
%TD*%
D12*
%TO.C,R31*%
X149982000Y-101365000D03*
X149982000Y-103015000D03*
%TD*%
D11*
%TO.C,R18*%
X120357001Y-96190000D03*
X122007001Y-96190000D03*
%TD*%
D16*
%TO.C,C19*%
X167482000Y-70290000D03*
X166385984Y-71386016D03*
%TD*%
D22*
%TO.C,C34*%
X176132000Y-96315000D03*
X177682000Y-96315000D03*
%TD*%
D49*
%TO.C,C40*%
X129132000Y-112590000D03*
X132082000Y-112590000D03*
%TD*%
D12*
%TO.C,R30*%
X188932000Y-125665000D03*
X188932000Y-127315000D03*
%TD*%
D11*
%TO.C,R20*%
X168282000Y-99140000D03*
X169932000Y-99140000D03*
%TD*%
D19*
%TO.C,H1*%
X119282000Y-52690000D03*
%TD*%
D11*
%TO.C,R17*%
X141257000Y-96390000D03*
X142907000Y-96390000D03*
%TD*%
D22*
%TO.C,C43*%
X185507000Y-97065000D03*
X187057000Y-97065000D03*
%TD*%
D12*
%TO.C,R33*%
X159882000Y-102065000D03*
X159882000Y-103715000D03*
%TD*%
D26*
%TO.C,R39*%
X190198637Y-91073363D03*
X191365363Y-89906637D03*
%TD*%
D35*
%TO.C,JP2*%
X121592000Y-62940000D03*
D36*
X119052000Y-62940000D03*
%TD*%
D50*
%TO.C,D4*%
X174444500Y-48440000D03*
X176319500Y-48440000D03*
%TD*%
D35*
%TO.C,JP3*%
X201682000Y-75090000D03*
D36*
X201682000Y-72550000D03*
%TD*%
D13*
%TO.C,R22*%
X174982000Y-90215000D03*
X173332000Y-90215000D03*
%TD*%
D14*
%TO.C,C29*%
X171633992Y-70938008D03*
X172730008Y-69841992D03*
%TD*%
D15*
%TO.C,C44*%
X137157000Y-123990000D03*
X134207000Y-123990000D03*
%TD*%
D38*
%TO.C,JP4*%
X139482000Y-114390000D03*
D39*
X138182000Y-114390000D03*
D40*
X136882000Y-114390000D03*
%TD*%
D51*
%TO.C,J1*%
X203832000Y-105215000D03*
X203832000Y-112365000D03*
%TD*%
M02*
