M48
; DRILL file {KiCad 8.0.5} date 2024-10-21T02:11:09+0530
; FORMAT={-:-/ absolute / metric / decimal}
; #@! TF.CreationDate,2024-10-21T02:11:09+05:30
; #@! TF.GenerationSoftware,Kicad,Pcbnew,8.0.5
; #@! TF.FileFunction,MixedPlating,1,4
FMAT,2
METRIC
; #@! TA.AperFunction,Plated,PTH,ViaDrill
T1C0.300
; #@! TA.AperFunction,Plated,PTH,ComponentDrill
T2C0.330
; #@! TA.AperFunction,Plated,PTH,ViaDrill
T3C0.400
; #@! TA.AperFunction,Plated,PTH,ComponentDrill
T4C0.450
; #@! TA.AperFunction,Plated,PTH,ComponentDrill
T5C1.000
; #@! TA.AperFunction,Plated,PTH,ComponentDrill
T6C1.020
; #@! TA.AperFunction,Plated,PTH,ComponentDrill
T7C3.200
%
G90
G05
T1
X123.182Y-97.19
X127.082Y-84.89
X129.382Y-102.09
X129.782Y-105.59
X130.082Y-98.09
X133.582Y-96.89
X135.487Y-95.09
X138.958Y-89.614
X139.282Y-76.19
X139.382Y-91.09
X139.682Y-67.278
X140.282Y-98.79
X140.282Y-100.59
X140.382Y-105.69
X141.077Y-86.395
X141.132Y-90.89
X141.582Y-65.69
X141.753Y-69.351
X141.982Y-78.89
X143.482Y-79.49
X143.632Y-67.74
X145.682Y-79.59
X147.382Y-79.49
X150.182Y-104.59
X151.082Y-105.49
X151.182Y-103.79
X152.882Y-64.29
X153.182Y-60.99
X154.682Y-71.89
X155.182Y-83.89
X159.005Y-94.513
X159.402Y-78.955
X159.665Y-88.41
X159.682Y-64.19
X161.182Y-105.29
X161.482Y-103.49
X161.782Y-82.69
X165.217Y-97.39
X165.382Y-91.87
X165.507Y-82.643
X165.982Y-79.765
X165.982Y-80.665
X167.082Y-62.09
X167.207Y-81.081
X170.082Y-71.09
X170.382Y-90.59
X170.682Y-84.54
X170.857Y-98.14
X170.981Y-83.225
X171.282Y-102.99
X171.582Y-104.39
X171.617Y-84.815
X172.182Y-75.99
X172.315Y-81.659
X172.782Y-91.69
X173.382Y-82.09
X173.982Y-61.69
X174.367Y-79.264
X174.982Y-60.99
X175.482Y-64.69
X177.787Y-106.39
X179.25Y-97.89
X179.282Y-84.89
X179.332Y-87.59
X179.382Y-104.64
X180.282Y-97.89
X180.282Y-99.49
X180.482Y-105.69
X181.547Y-79.88
X182.382Y-87.79
X183.982Y-97.49
X184.582Y-63.09
X184.582Y-94.29
X189.182Y-98.99
X192.982Y-85.79
X195.282Y-82.19
X196.782Y-101.64
X197.182Y-111.215
X199.082Y-91.29
X201.682Y-80.39
X201.882Y-83.79
T2
X121.182Y-101.79
X121.182Y-103.09
X122.482Y-101.79
X122.482Y-103.09
X123.782Y-101.79
X123.782Y-103.09
X131.482Y-102.09
X131.482Y-103.39
X132.782Y-102.09
X132.782Y-103.39
X134.082Y-102.09
X134.082Y-103.39
X141.882Y-102.19
X141.882Y-103.49
X143.182Y-102.19
X143.182Y-103.49
X144.482Y-102.19
X144.482Y-103.49
X152.882Y-101.99
X152.882Y-103.29
X154.182Y-101.99
X154.182Y-103.29
X155.482Y-101.99
X155.482Y-103.29
X163.282Y-101.99
X163.282Y-103.29
X164.582Y-101.99
X164.582Y-103.29
X165.882Y-101.99
X165.882Y-103.29
X172.982Y-101.89
X172.982Y-103.19
X174.282Y-101.89
X174.282Y-103.19
X175.582Y-101.89
X175.582Y-103.19
X182.287Y-101.665
X182.287Y-102.965
X183.587Y-101.665
X183.587Y-102.965
X184.887Y-101.665
X184.887Y-102.965
X192.182Y-114.59
X192.182Y-115.89
X193.482Y-94.69
X193.482Y-95.99
X193.482Y-114.59
X193.482Y-115.89
X194.782Y-94.69
X194.782Y-95.99
X194.782Y-114.59
X194.782Y-115.89
X196.082Y-94.69
X196.082Y-95.99
T3
X115.457Y-79.29
X115.657Y-136.89
X117.982Y-99.14
X118.057Y-119.865
X118.132Y-77.04
X118.182Y-107.89
X118.232Y-90.59
X118.882Y-115.04
X118.982Y-58.54
X119.007Y-125.265
X119.057Y-111.715
X119.407Y-80.515
X119.507Y-85.34
X120.782Y-94.665
X121.682Y-66.99
X121.982Y-107.29
X122.107Y-126.115
X123.282Y-94.39
X124.232Y-48.865
X125.057Y-126.315
X126.082Y-102.69
X127.382Y-102.99
X128.632Y-70.615
X129.962Y-76.89
X131.757Y-115.015
X132.857Y-48.465
X133.582Y-95.49
X133.682Y-76.89
X134.482Y-110.29
X135.082Y-64.54
X135.382Y-115.79
X136.382Y-102.79
X136.482Y-121.59
X136.582Y-75.89
X136.907Y-112.315
X137.782Y-118.79
X137.882Y-77.09
X137.907Y-103.515
X138.007Y-98.215
X138.482Y-126.59
X138.782Y-79.69
X139.082Y-63.59
X139.282Y-122.99
X139.307Y-86.865
X139.682Y-120.49
X139.782Y-80.19
X139.882Y-82.49
X140.082Y-117.49
X140.382Y-125.09
X140.682Y-136.19
X140.782Y-88.151
X141.482Y-61.09
X141.682Y-122.89
X141.882Y-119.09
X142.282Y-112.69
X142.982Y-93.04
X143.012Y-81.28
X143.132Y-87.91
X143.182Y-116.19
X143.982Y-112.39
X144.182Y-125.69
X144.307Y-74.74
X144.602Y-86.66
X144.682Y-120.29
X144.682Y-122.99
X144.782Y-114.89
X145.482Y-118.19
X145.672Y-81.19
X146.252Y-75.02
X146.682Y-96.69
X146.682Y-112.49
X146.782Y-102.99
X147.195Y-93.453
X148.342Y-86.65
X148.382Y-72.89
X148.719Y-69.953
X148.822Y-81.31
X148.982Y-85.79
X148.982Y-110.39
X149.482Y-98.515
X149.782Y-71.49
X150.707Y-96.84
X150.852Y-75.87
X151.382Y-60.965
X151.633Y-90.34
X151.782Y-73.79
X151.932Y-94.144
X151.982Y-70.99
X152.882Y-70.0
X153.543Y-90.129
X153.807Y-93.365
X154.532Y-70.05
X155.132Y-79.615
X155.732Y-70.94
X155.902Y-84.67
X156.182Y-82.79
X156.483Y-88.728
X156.832Y-85.64
X156.982Y-76.59
X157.422Y-70.09
X157.607Y-65.865
X157.682Y-102.79
X158.192Y-88.36
X158.278Y-80.016
X159.182Y-60.865
X159.282Y-69.99
X159.352Y-77.615
X159.392Y-85.36
X159.982Y-71.89
X160.482Y-97.815
X160.882Y-61.09
X160.882Y-64.69
X161.082Y-93.39
X161.101Y-84.086
X161.515Y-87.39
X161.882Y-86.29
X162.182Y-70.59
X162.282Y-61.14
X162.282Y-64.39
X162.582Y-80.99
X162.657Y-76.79
X163.032Y-72.39
X163.182Y-95.49
X163.787Y-76.795
X163.832Y-109.69
X163.882Y-71.752
X164.127Y-107.245
X164.282Y-61.09
X164.282Y-117.19
X164.682Y-72.59
X164.832Y-120.09
X164.982Y-77.815
X165.432Y-83.59
X165.532Y-81.502
X166.057Y-118.815
X166.482Y-125.54
X166.494Y-82.043
X166.732Y-112.04
X166.882Y-93.54
X166.907Y-83.59
X167.312Y-88.04
X167.337Y-98.74
X167.682Y-60.39
X167.682Y-124.09
X167.732Y-119.79
X167.807Y-71.74
X167.982Y-97.965
X167.982Y-100.44
X168.282Y-94.29
X168.582Y-90.49
X168.832Y-118.04
X168.882Y-112.89
X169.132Y-122.69
X169.282Y-62.29
X169.282Y-74.19
X169.332Y-125.54
X170.582Y-62.19
X170.682Y-74.915
X170.782Y-93.59
X170.882Y-96.465
X170.916Y-75.887
X171.182Y-79.58
X171.282Y-76.89
X171.704Y-67.712
X172.282Y-79.265
X172.986Y-76.694
X173.282Y-79.265
X173.339Y-80.84
X173.782Y-65.39
X174.107Y-88.765
X174.169Y-87.728
X174.332Y-91.515
X174.828Y-82.897
X174.982Y-84.675
X175.982Y-111.59
X176.075Y-85.49
X176.431Y-65.541
X177.037Y-91.09
X177.982Y-79.536
X178.207Y-64.49
X178.632Y-96.39
X178.857Y-69.39
X178.882Y-85.89
X178.956Y-77.586
X179.274Y-92.666
X180.744Y-71.127
X180.782Y-84.69
X181.182Y-93.99
X181.457Y-129.115
X181.982Y-134.14
X182.032Y-85.99
X182.482Y-92.49
X182.832Y-123.54
X182.857Y-128.665
X182.882Y-78.69
X182.882Y-124.54
X182.982Y-64.39
X183.307Y-132.14
X183.852Y-73.295
X183.982Y-69.99
X184.082Y-107.49
X184.407Y-121.665
X184.642Y-81.265
X184.682Y-134.065
X185.157Y-124.365
X185.332Y-48.365
X186.457Y-64.59
X186.482Y-88.89
X186.582Y-76.39
X187.169Y-93.852
X188.082Y-87.515
X188.207Y-70.19
X188.232Y-101.99
X188.382Y-97.59
X188.982Y-89.157
X189.432Y-75.34
X189.707Y-92.29
X190.257Y-117.74
X190.332Y-99.765
X190.382Y-87.09
X190.382Y-110.515
X191.332Y-126.94
X191.382Y-107.04
X191.682Y-97.39
X191.682Y-133.665
X191.782Y-95.99
X192.182Y-87.09
X193.007Y-127.865
X193.132Y-65.79
X194.132Y-119.94
X194.182Y-109.49
X194.507Y-126.765
X194.907Y-48.84
X196.237Y-109.565
X196.382Y-82.19
X196.482Y-127.415
X197.182Y-115.19
X197.682Y-81.49
X198.682Y-80.09
X199.032Y-99.79
X200.982Y-117.165
X203.057Y-124.715
X203.282Y-63.465
X203.732Y-56.79
T5
X119.052Y-62.94
X121.592Y-62.94
X187.792Y-79.895
X187.792Y-82.435
X196.632Y-59.55
X196.632Y-62.09
X196.632Y-64.63
X196.632Y-67.17
X201.682Y-72.55
X201.682Y-75.09
T6
X127.532Y-51.34
X127.532Y-53.88
X127.532Y-56.42
X127.532Y-58.96
X130.072Y-51.34
X130.072Y-53.88
X130.072Y-56.42
X130.072Y-58.96
X132.612Y-51.34
X132.612Y-53.88
X132.612Y-56.42
X132.612Y-58.96
X135.152Y-51.34
X135.152Y-53.88
X135.152Y-56.42
X135.152Y-58.96
X137.692Y-51.34
X137.692Y-53.88
X137.692Y-56.42
X137.692Y-58.96
X140.232Y-51.34
X140.232Y-53.88
X140.232Y-56.42
X140.232Y-58.96
X142.772Y-51.34
X142.772Y-53.88
X142.772Y-56.42
X142.772Y-58.96
X145.312Y-51.34
X145.312Y-53.88
X145.312Y-56.42
X145.312Y-58.96
X147.852Y-51.34
X147.852Y-53.88
X147.852Y-56.42
X147.852Y-58.96
X150.392Y-51.34
X150.392Y-53.88
X150.392Y-56.42
X150.392Y-58.96
X152.932Y-51.34
X152.932Y-53.88
X152.932Y-56.42
X152.932Y-58.96
X155.472Y-51.34
X155.472Y-53.88
X155.472Y-56.42
X155.472Y-58.96
X158.012Y-51.34
X158.012Y-53.88
X158.012Y-56.42
X158.012Y-58.96
X160.552Y-51.34
X160.552Y-53.88
X160.552Y-56.42
X160.552Y-58.96
X163.092Y-51.34
X163.092Y-53.88
X163.092Y-56.42
X163.092Y-58.96
X165.632Y-51.34
X165.632Y-53.88
X165.632Y-56.42
X165.632Y-58.96
X168.172Y-51.34
X168.172Y-53.88
X168.172Y-56.42
X168.172Y-58.96
X170.712Y-51.34
X170.712Y-53.88
X170.712Y-56.42
X170.712Y-58.96
X173.252Y-51.34
X173.252Y-53.88
X173.252Y-56.42
X173.252Y-58.96
X175.792Y-51.34
X175.792Y-53.88
X175.792Y-56.42
X175.792Y-58.96
X178.332Y-51.34
X178.332Y-53.88
X178.332Y-56.42
X178.332Y-58.96
X180.872Y-51.34
X180.872Y-53.88
X180.872Y-56.42
X180.872Y-58.96
X183.412Y-51.34
X183.412Y-53.88
X183.412Y-56.42
X183.412Y-58.96
X185.952Y-51.34
X185.952Y-53.88
X185.952Y-56.42
X185.952Y-58.96
X188.492Y-51.34
X188.492Y-53.88
X188.492Y-56.42
X188.492Y-58.96
X191.032Y-51.34
X191.032Y-53.88
X191.032Y-56.42
X191.032Y-58.96
T7
X119.282Y-52.69
X119.282Y-132.69
X199.282Y-52.69
X199.282Y-132.69
T4
G00X203.432Y-105.215
M15
G01X204.232Y-105.215
M16
G05
G00X204.232Y-112.365
M15
G01X203.432Y-112.365
M16
G05
M30
