%TF.GenerationSoftware,KiCad,Pcbnew,8.0.5*%
%TF.CreationDate,2024-10-21T02:11:06+05:30*%
%TF.ProjectId,EPS_PDB,4550535f-5044-4422-9e6b-696361645f70,rev?*%
%TF.SameCoordinates,Original*%
%TF.FileFunction,Paste,Bot*%
%TF.FilePolarity,Positive*%
%FSLAX46Y46*%
G04 Gerber Fmt 4.6, Leading zero omitted, Abs format (unit mm)*
G04 Created by KiCad (PCBNEW 8.0.5) date 2024-10-21 02:11:06*
%MOMM*%
%LPD*%
G01*
G04 APERTURE LIST*
G04 Aperture macros list*
%AMRoundRect*
0 Rectangle with rounded corners*
0 $1 Rounding radius*
0 $2 $3 $4 $5 $6 $7 $8 $9 X,Y pos of 4 corners*
0 Add a 4 corners polygon primitive as box body*
4,1,4,$2,$3,$4,$5,$6,$7,$8,$9,$2,$3,0*
0 Add four circle primitives for the rounded corners*
1,1,$1+$1,$2,$3*
1,1,$1+$1,$4,$5*
1,1,$1+$1,$6,$7*
1,1,$1+$1,$8,$9*
0 Add four rect primitives between the rounded corners*
20,1,$1+$1,$2,$3,$4,$5,0*
20,1,$1+$1,$4,$5,$6,$7,0*
20,1,$1+$1,$6,$7,$8,$9,0*
20,1,$1+$1,$8,$9,$2,$3,0*%
G04 Aperture macros list end*
%ADD10RoundRect,0.200000X0.275000X-0.200000X0.275000X0.200000X-0.275000X0.200000X-0.275000X-0.200000X0*%
%ADD11R,0.558800X1.981200*%
%ADD12RoundRect,0.225000X0.250000X-0.225000X0.250000X0.225000X-0.250000X0.225000X-0.250000X-0.225000X0*%
%ADD13RoundRect,0.225000X-0.225000X-0.250000X0.225000X-0.250000X0.225000X0.250000X-0.225000X0.250000X0*%
%ADD14RoundRect,0.200000X-0.275000X0.200000X-0.275000X-0.200000X0.275000X-0.200000X0.275000X0.200000X0*%
%ADD15RoundRect,0.200000X0.200000X0.275000X-0.200000X0.275000X-0.200000X-0.275000X0.200000X-0.275000X0*%
%ADD16RoundRect,0.225000X0.225000X0.250000X-0.225000X0.250000X-0.225000X-0.250000X0.225000X-0.250000X0*%
%ADD17RoundRect,0.075000X-0.725000X-0.075000X0.725000X-0.075000X0.725000X0.075000X-0.725000X0.075000X0*%
%ADD18RoundRect,0.075000X-0.075000X-0.725000X0.075000X-0.725000X0.075000X0.725000X-0.075000X0.725000X0*%
%ADD19R,1.473200X0.558800*%
%ADD20RoundRect,0.225000X-0.250000X0.225000X-0.250000X-0.225000X0.250000X-0.225000X0.250000X0.225000X0*%
%ADD21RoundRect,0.200000X-0.200000X-0.275000X0.200000X-0.275000X0.200000X0.275000X-0.200000X0.275000X0*%
%ADD22RoundRect,0.243750X-0.243750X-0.456250X0.243750X-0.456250X0.243750X0.456250X-0.243750X0.456250X0*%
%ADD23RoundRect,0.150000X0.512500X0.150000X-0.512500X0.150000X-0.512500X-0.150000X0.512500X-0.150000X0*%
%ADD24RoundRect,0.243750X0.243750X0.456250X-0.243750X0.456250X-0.243750X-0.456250X0.243750X-0.456250X0*%
%ADD25R,1.400000X0.400000*%
%ADD26R,1.450000X1.150000*%
%ADD27R,1.900000X1.750000*%
%ADD28RoundRect,0.200000X0.335876X0.053033X0.053033X0.335876X-0.335876X-0.053033X-0.053033X-0.335876X0*%
%ADD29RoundRect,0.250000X0.262500X0.450000X-0.262500X0.450000X-0.262500X-0.450000X0.262500X-0.450000X0*%
%ADD30R,1.200000X1.400000*%
%ADD31RoundRect,0.375000X0.375000X-0.625000X0.375000X0.625000X-0.375000X0.625000X-0.375000X-0.625000X0*%
%ADD32RoundRect,0.500000X1.400000X-0.500000X1.400000X0.500000X-1.400000X0.500000X-1.400000X-0.500000X0*%
%ADD33R,1.700000X0.900000*%
%ADD34R,1.100000X0.800000*%
G04 APERTURE END LIST*
D10*
%TO.C,R1*%
X200482000Y-86315000D03*
X200482000Y-84665000D03*
%TD*%
D11*
%TO.C,U2*%
X150947000Y-67693800D03*
X149677000Y-67693800D03*
X148407000Y-67693800D03*
X147137000Y-67693800D03*
X147137000Y-62766200D03*
X148407000Y-62766200D03*
X149677000Y-62766200D03*
X150947000Y-62766200D03*
%TD*%
D12*
%TO.C,C16*%
X146992000Y-82735000D03*
X146992000Y-81185000D03*
%TD*%
D13*
%TO.C,C10*%
X170887000Y-87790000D03*
X172437000Y-87790000D03*
%TD*%
%TO.C,C1*%
X193517000Y-83160000D03*
X195067000Y-83160000D03*
%TD*%
D14*
%TO.C,R23*%
X184632000Y-89665000D03*
X184632000Y-91315000D03*
%TD*%
D15*
%TO.C,R8*%
X191207000Y-66690000D03*
X189557000Y-66690000D03*
%TD*%
D16*
%TO.C,C13*%
X143167000Y-77535000D03*
X141617000Y-77535000D03*
%TD*%
D17*
%TO.C,U4*%
X153612000Y-88540000D03*
X153612000Y-88040000D03*
X153612000Y-87540000D03*
X153612000Y-87040000D03*
X153612000Y-86540000D03*
X153612000Y-86040000D03*
X153612000Y-85540000D03*
X153612000Y-85040000D03*
X153612000Y-84540000D03*
X153612000Y-84040000D03*
X153612000Y-83540000D03*
X153612000Y-83040000D03*
X153612000Y-82540000D03*
X153612000Y-82040000D03*
X153612000Y-81540000D03*
X153612000Y-81040000D03*
X153612000Y-80540000D03*
X153612000Y-80040000D03*
X153612000Y-79540000D03*
X153612000Y-79040000D03*
X153612000Y-78540000D03*
X153612000Y-78040000D03*
X153612000Y-77540000D03*
X153612000Y-77040000D03*
X153612000Y-76540000D03*
D18*
X155287000Y-74865000D03*
X155787000Y-74865000D03*
X156287000Y-74865000D03*
X156787000Y-74865000D03*
X157287000Y-74865000D03*
X157787000Y-74865000D03*
X158287000Y-74865000D03*
X158787000Y-74865000D03*
X159287000Y-74865000D03*
X159787000Y-74865000D03*
X160287000Y-74865000D03*
X160787000Y-74865000D03*
X161287000Y-74865000D03*
X161787000Y-74865000D03*
X162287000Y-74865000D03*
X162787000Y-74865000D03*
X163287000Y-74865000D03*
X163787000Y-74865000D03*
X164287000Y-74865000D03*
X164787000Y-74865000D03*
X165287000Y-74865000D03*
X165787000Y-74865000D03*
X166287000Y-74865000D03*
X166787000Y-74865000D03*
X167287000Y-74865000D03*
D17*
X168962000Y-76540000D03*
X168962000Y-77040000D03*
X168962000Y-77540000D03*
X168962000Y-78040000D03*
X168962000Y-78540000D03*
X168962000Y-79040000D03*
X168962000Y-79540000D03*
X168962000Y-80040000D03*
X168962000Y-80540000D03*
X168962000Y-81040000D03*
X168962000Y-81540000D03*
X168962000Y-82040000D03*
X168962000Y-82540000D03*
X168962000Y-83040000D03*
X168962000Y-83540000D03*
X168962000Y-84040000D03*
X168962000Y-84540000D03*
X168962000Y-85040000D03*
X168962000Y-85540000D03*
X168962000Y-86040000D03*
X168962000Y-86540000D03*
X168962000Y-87040000D03*
X168962000Y-87540000D03*
X168962000Y-88040000D03*
X168962000Y-88540000D03*
D18*
X167287000Y-90215000D03*
X166787000Y-90215000D03*
X166287000Y-90215000D03*
X165787000Y-90215000D03*
X165287000Y-90215000D03*
X164787000Y-90215000D03*
X164287000Y-90215000D03*
X163787000Y-90215000D03*
X163287000Y-90215000D03*
X162787000Y-90215000D03*
X162287000Y-90215000D03*
X161787000Y-90215000D03*
X161287000Y-90215000D03*
X160787000Y-90215000D03*
X160287000Y-90215000D03*
X159787000Y-90215000D03*
X159287000Y-90215000D03*
X158787000Y-90215000D03*
X158287000Y-90215000D03*
X157787000Y-90215000D03*
X157287000Y-90215000D03*
X156787000Y-90215000D03*
X156287000Y-90215000D03*
X155787000Y-90215000D03*
X155287000Y-90215000D03*
%TD*%
D19*
%TO.C,U5*%
X136785800Y-78809999D03*
X136785800Y-79760000D03*
X136785800Y-80710001D03*
X134398200Y-80710001D03*
X134398200Y-78809999D03*
%TD*%
D20*
%TO.C,C5*%
X151382000Y-84015000D03*
X151382000Y-85565000D03*
%TD*%
D16*
%TO.C,C4*%
X151542000Y-87160000D03*
X149992000Y-87160000D03*
%TD*%
D21*
%TO.C,R5*%
X148937000Y-93320000D03*
X150587000Y-93320000D03*
%TD*%
D22*
%TO.C,D5*%
X197794499Y-97990000D03*
X199669501Y-97990000D03*
%TD*%
D12*
%TO.C,C28*%
X182832000Y-127265000D03*
X182832000Y-125715000D03*
%TD*%
D23*
%TO.C,Q1*%
X145182000Y-71490002D03*
X145182000Y-73390000D03*
X142907000Y-72440001D03*
%TD*%
D20*
%TO.C,C24*%
X182932000Y-120865000D03*
X182932000Y-122415000D03*
%TD*%
D15*
%TO.C,R7*%
X176032000Y-67040000D03*
X174382000Y-67040000D03*
%TD*%
D23*
%TO.C,Q2*%
X167582000Y-63190002D03*
X167582000Y-65090000D03*
X165307000Y-64140001D03*
%TD*%
D24*
%TO.C,3V3_LED*%
X198757002Y-85990000D03*
X196882000Y-85990000D03*
%TD*%
D20*
%TO.C,C2*%
X199282000Y-77240000D03*
X199282000Y-78790000D03*
%TD*%
D25*
%TO.C,J1*%
X201182000Y-107490000D03*
X201182000Y-108140000D03*
X201182000Y-108790000D03*
X201182000Y-109440000D03*
X201182000Y-110090000D03*
D26*
X201602000Y-106470000D03*
D27*
X203832000Y-107665000D03*
X203832000Y-109915000D03*
D26*
X201602000Y-111110000D03*
%TD*%
D28*
%TO.C,R6*%
X164665363Y-67373363D03*
X163498637Y-66206637D03*
%TD*%
D14*
%TO.C,R12*%
X200482000Y-88065000D03*
X200482000Y-89715000D03*
%TD*%
%TO.C,R3*%
X138082000Y-69865000D03*
X138082000Y-71515000D03*
%TD*%
D29*
%TO.C,120R1*%
X146904500Y-77535000D03*
X145079500Y-77535000D03*
%TD*%
D10*
%TO.C,R2*%
X200482000Y-83190000D03*
X200482000Y-81540000D03*
%TD*%
D28*
%TO.C,R11*%
X181782000Y-63190000D03*
X180615274Y-62023274D03*
%TD*%
D24*
%TO.C,5V_LED*%
X198857002Y-83890000D03*
X196982000Y-83890000D03*
%TD*%
%TO.C,HEARTBEAT*%
X198719501Y-88090000D03*
X196844499Y-88090000D03*
%TD*%
D21*
%TO.C,R9*%
X185632000Y-66590000D03*
X187282000Y-66590000D03*
%TD*%
D20*
%TO.C,C12*%
X149192000Y-77360000D03*
X149192000Y-78910000D03*
%TD*%
D21*
%TO.C,R13*%
X136967000Y-82560000D03*
X138617000Y-82560000D03*
%TD*%
D30*
%TO.C,Y1*%
X142992000Y-85060000D03*
X142992000Y-82860000D03*
X144592000Y-82860000D03*
X144592000Y-85060000D03*
%TD*%
D31*
%TO.C,U1*%
X196592000Y-80060000D03*
X194292000Y-80059999D03*
D32*
X194292000Y-73760001D03*
D31*
X191992000Y-80060000D03*
%TD*%
D13*
%TO.C,C9*%
X154767000Y-92050000D03*
X156317000Y-92050000D03*
%TD*%
D16*
%TO.C,C7*%
X169167000Y-72760000D03*
X167617000Y-72760000D03*
%TD*%
D10*
%TO.C,R4*%
X136182000Y-73440000D03*
X136182000Y-71790000D03*
%TD*%
D20*
%TO.C,C15*%
X146992000Y-85060000D03*
X146992000Y-86610000D03*
%TD*%
D13*
%TO.C,C3*%
X158407000Y-72990000D03*
X159957000Y-72990000D03*
%TD*%
D33*
%TO.C,SW1*%
X118852000Y-67120000D03*
X118852000Y-70520000D03*
D34*
X120492000Y-68820000D03*
%TD*%
D13*
%TO.C,C8*%
X170862000Y-89390000D03*
X172412000Y-89390000D03*
%TD*%
D16*
%TO.C,C6*%
X156867000Y-72970000D03*
X155317000Y-72970000D03*
%TD*%
D11*
%TO.C,U3*%
X158787000Y-67633800D03*
X157517000Y-67633800D03*
X156247000Y-67633800D03*
X154977000Y-67633800D03*
X154977000Y-62706200D03*
X156247000Y-62706200D03*
X157517000Y-62706200D03*
X158787000Y-62706200D03*
%TD*%
D16*
%TO.C,C14*%
X151687000Y-81330000D03*
X150137000Y-81330000D03*
%TD*%
D14*
%TO.C,R10*%
X177182000Y-60390000D03*
X177182000Y-62040000D03*
%TD*%
D20*
%TO.C,C11*%
X151192000Y-77360000D03*
X151192000Y-78910000D03*
%TD*%
M02*
