%TF.GenerationSoftware,KiCad,Pcbnew,8.0.5*%
%TF.CreationDate,2024-10-21T02:11:06+05:30*%
%TF.ProjectId,EPS_PDB,4550535f-5044-4422-9e6b-696361645f70,rev?*%
%TF.SameCoordinates,Original*%
%TF.FileFunction,Copper,L1,Top*%
%TF.FilePolarity,Positive*%
%FSLAX46Y46*%
G04 Gerber Fmt 4.6, Leading zero omitted, Abs format (unit mm)*
G04 Created by KiCad (PCBNEW 8.0.5) date 2024-10-21 02:11:06*
%MOMM*%
%LPD*%
G01*
G04 APERTURE LIST*
G04 Aperture macros list*
%AMRoundRect*
0 Rectangle with rounded corners*
0 $1 Rounding radius*
0 $2 $3 $4 $5 $6 $7 $8 $9 X,Y pos of 4 corners*
0 Add a 4 corners polygon primitive as box body*
4,1,4,$2,$3,$4,$5,$6,$7,$8,$9,$2,$3,0*
0 Add four circle primitives for the rounded corners*
1,1,$1+$1,$2,$3*
1,1,$1+$1,$4,$5*
1,1,$1+$1,$6,$7*
1,1,$1+$1,$8,$9*
0 Add four rect primitives between the rounded corners*
20,1,$1+$1,$2,$3,$4,$5,0*
20,1,$1+$1,$4,$5,$6,$7,0*
20,1,$1+$1,$6,$7,$8,$9,0*
20,1,$1+$1,$8,$9,$2,$3,0*%
%AMRotRect*
0 Rectangle, with rotation*
0 The origin of the aperture is its center*
0 $1 length*
0 $2 width*
0 $3 Rotation angle, in degrees counterclockwise*
0 Add horizontal line*
21,1,$1,$2,0,0,$3*%
%AMFreePoly0*
4,1,19,0.550000,-0.750000,0.000000,-0.750000,0.000000,-0.744912,-0.071157,-0.744911,-0.207708,-0.704816,-0.327430,-0.627875,-0.420627,-0.520320,-0.479746,-0.390866,-0.500000,-0.250000,-0.500000,0.250000,-0.479746,0.390866,-0.420627,0.520320,-0.327430,0.627875,-0.207708,0.704816,-0.071157,0.744911,0.000000,0.744912,0.000000,0.750000,0.550000,0.750000,0.550000,-0.750000,0.550000,-0.750000,
$1*%
%AMFreePoly1*
4,1,19,0.000000,0.744912,0.071157,0.744911,0.207708,0.704816,0.327430,0.627875,0.420627,0.520320,0.479746,0.390866,0.500000,0.250000,0.500000,-0.250000,0.479746,-0.390866,0.420627,-0.520320,0.327430,-0.627875,0.207708,-0.704816,0.071157,-0.744911,0.000000,-0.744912,0.000000,-0.750000,-0.550000,-0.750000,-0.550000,0.750000,0.000000,0.750000,0.000000,0.744912,0.000000,0.744912,
$1*%
G04 Aperture macros list end*
%TA.AperFunction,SMDPad,CuDef*%
%ADD10RoundRect,0.200000X-0.200000X-0.275000X0.200000X-0.275000X0.200000X0.275000X-0.200000X0.275000X0*%
%TD*%
%TA.AperFunction,SMDPad,CuDef*%
%ADD11RoundRect,0.200000X-0.275000X0.200000X-0.275000X-0.200000X0.275000X-0.200000X0.275000X0.200000X0*%
%TD*%
%TA.AperFunction,SMDPad,CuDef*%
%ADD12RoundRect,0.200000X0.200000X0.275000X-0.200000X0.275000X-0.200000X-0.275000X0.200000X-0.275000X0*%
%TD*%
%TA.AperFunction,SMDPad,CuDef*%
%ADD13RoundRect,0.225000X0.017678X-0.335876X0.335876X-0.017678X-0.017678X0.335876X-0.335876X0.017678X0*%
%TD*%
%TA.AperFunction,SMDPad,CuDef*%
%ADD14R,0.500000X2.200000*%
%TD*%
%TA.AperFunction,SMDPad,CuDef*%
%ADD15R,4.900000X2.950000*%
%TD*%
%TA.AperFunction,ComponentPad*%
%ADD16C,0.400000*%
%TD*%
%TA.AperFunction,SMDPad,CuDef*%
%ADD17RoundRect,0.250000X0.325000X0.650000X-0.325000X0.650000X-0.325000X-0.650000X0.325000X-0.650000X0*%
%TD*%
%TA.AperFunction,SMDPad,CuDef*%
%ADD18RoundRect,0.225000X-0.017678X0.335876X-0.335876X0.017678X0.017678X-0.335876X0.335876X-0.017678X0*%
%TD*%
%TA.AperFunction,SMDPad,CuDef*%
%ADD19RoundRect,0.225000X0.225000X0.250000X-0.225000X0.250000X-0.225000X-0.250000X0.225000X-0.250000X0*%
%TD*%
%TA.AperFunction,SMDPad,CuDef*%
%ADD20RoundRect,0.250000X-0.650000X0.325000X-0.650000X-0.325000X0.650000X-0.325000X0.650000X0.325000X0*%
%TD*%
%TA.AperFunction,ComponentPad*%
%ADD21C,6.400000*%
%TD*%
%TA.AperFunction,ComponentPad*%
%ADD22R,1.370000X1.370000*%
%TD*%
%TA.AperFunction,ComponentPad*%
%ADD23C,1.370000*%
%TD*%
%TA.AperFunction,SMDPad,CuDef*%
%ADD24RoundRect,0.225000X-0.225000X-0.250000X0.225000X-0.250000X0.225000X0.250000X-0.225000X0.250000X0*%
%TD*%
%TA.AperFunction,SMDPad,CuDef*%
%ADD25R,0.304800X0.787400*%
%TD*%
%TA.AperFunction,SMDPad,CuDef*%
%ADD26R,2.489200X1.752600*%
%TD*%
%TA.AperFunction,SMDPad,CuDef*%
%ADD27RoundRect,0.051250X0.733750X0.153750X-0.733750X0.153750X-0.733750X-0.153750X0.733750X-0.153750X0*%
%TD*%
%TA.AperFunction,SMDPad,CuDef*%
%ADD28RoundRect,0.200000X0.053033X-0.335876X0.335876X-0.053033X-0.053033X0.335876X-0.335876X0.053033X0*%
%TD*%
%TA.AperFunction,SMDPad,CuDef*%
%ADD29FreePoly0,315.000000*%
%TD*%
%TA.AperFunction,SMDPad,CuDef*%
%ADD30RotRect,1.000000X1.500000X315.000000*%
%TD*%
%TA.AperFunction,SMDPad,CuDef*%
%ADD31FreePoly1,315.000000*%
%TD*%
%TA.AperFunction,SMDPad,CuDef*%
%ADD32RotRect,1.422400X0.355600X135.000000*%
%TD*%
%TA.AperFunction,SMDPad,CuDef*%
%ADD33RoundRect,0.250000X0.375000X0.625000X-0.375000X0.625000X-0.375000X-0.625000X0.375000X-0.625000X0*%
%TD*%
%TA.AperFunction,SMDPad,CuDef*%
%ADD34RoundRect,0.225000X-0.250000X0.225000X-0.250000X-0.225000X0.250000X-0.225000X0.250000X0.225000X0*%
%TD*%
%TA.AperFunction,SMDPad,CuDef*%
%ADD35RoundRect,0.400000X-3.275000X0.400000X-3.275000X-0.400000X3.275000X-0.400000X3.275000X0.400000X0*%
%TD*%
%TA.AperFunction,SMDPad,CuDef*%
%ADD36RotRect,1.000000X1.800000X225.000000*%
%TD*%
%TA.AperFunction,ComponentPad*%
%ADD37R,1.700000X1.700000*%
%TD*%
%TA.AperFunction,ComponentPad*%
%ADD38O,1.700000X1.700000*%
%TD*%
%TA.AperFunction,SMDPad,CuDef*%
%ADD39RoundRect,0.250000X-0.503814X-0.132583X-0.132583X-0.503814X0.503814X0.132583X0.132583X0.503814X0*%
%TD*%
%TA.AperFunction,SMDPad,CuDef*%
%ADD40FreePoly0,180.000000*%
%TD*%
%TA.AperFunction,SMDPad,CuDef*%
%ADD41R,1.000000X1.500000*%
%TD*%
%TA.AperFunction,SMDPad,CuDef*%
%ADD42FreePoly1,180.000000*%
%TD*%
%TA.AperFunction,SMDPad,CuDef*%
%ADD43RoundRect,0.200000X0.335876X0.053033X0.053033X0.335876X-0.335876X-0.053033X-0.053033X-0.335876X0*%
%TD*%
%TA.AperFunction,SMDPad,CuDef*%
%ADD44RoundRect,0.225000X0.335876X0.017678X0.017678X0.335876X-0.335876X-0.017678X-0.017678X-0.335876X0*%
%TD*%
%TA.AperFunction,SMDPad,CuDef*%
%ADD45RoundRect,0.060000X0.180000X-0.665000X0.180000X0.665000X-0.180000X0.665000X-0.180000X-0.665000X0*%
%TD*%
%TA.AperFunction,SMDPad,CuDef*%
%ADD46R,2.947000X1.753000*%
%TD*%
%TA.AperFunction,SMDPad,CuDef*%
%ADD47RoundRect,0.350000X2.050000X0.350000X-2.050000X0.350000X-2.050000X-0.350000X2.050000X-0.350000X0*%
%TD*%
%TA.AperFunction,SMDPad,CuDef*%
%ADD48RotRect,0.876300X0.406400X315.000000*%
%TD*%
%TA.AperFunction,SMDPad,CuDef*%
%ADD49RoundRect,0.225000X0.250000X-0.225000X0.250000X0.225000X-0.250000X0.225000X-0.250000X-0.225000X0*%
%TD*%
%TA.AperFunction,SMDPad,CuDef*%
%ADD50RoundRect,0.200000X-0.053033X0.335876X-0.335876X0.053033X0.053033X-0.335876X0.335876X-0.053033X0*%
%TD*%
%TA.AperFunction,SMDPad,CuDef*%
%ADD51RoundRect,0.250000X-0.325000X-0.650000X0.325000X-0.650000X0.325000X0.650000X-0.325000X0.650000X0*%
%TD*%
%TA.AperFunction,SMDPad,CuDef*%
%ADD52RoundRect,0.243750X-0.243750X-0.456250X0.243750X-0.456250X0.243750X0.456250X-0.243750X0.456250X0*%
%TD*%
%TA.AperFunction,ComponentPad*%
%ADD53O,1.900000X1.050000*%
%TD*%
%TA.AperFunction,ViaPad*%
%ADD54C,0.700000*%
%TD*%
%TA.AperFunction,ViaPad*%
%ADD55C,0.800000*%
%TD*%
%TA.AperFunction,Conductor*%
%ADD56C,0.500000*%
%TD*%
%TA.AperFunction,Conductor*%
%ADD57C,0.300000*%
%TD*%
%TA.AperFunction,Conductor*%
%ADD58C,0.250000*%
%TD*%
%TA.AperFunction,Conductor*%
%ADD59C,0.150000*%
%TD*%
G04 APERTURE END LIST*
D10*
%TO.P,R32,1,1*%
%TO.N,GND*%
X151807000Y-96690000D03*
%TO.P,R32,2,2*%
%TO.N,/EPS Power Distribution/ILM_5V_PAY*%
X153457000Y-96690000D03*
%TD*%
D11*
%TO.P,R15,1,1*%
%TO.N,/FLT_3V3_ANT*%
X126257000Y-104390000D03*
%TO.P,R15,2,2*%
%TO.N,/EPS Power Distribution/3.3V_BUS*%
X126257000Y-106040000D03*
%TD*%
D12*
%TO.P,R41,1,1*%
%TO.N,/STATUS_5V*%
X137982000Y-97015000D03*
%TO.P,R41,2,2*%
%TO.N,3V3_EPS*%
X136332000Y-97015000D03*
%TD*%
D13*
%TO.P,C20,1*%
%TO.N,/EPS Power Distribution/CLK_OUT_ADC*%
X168482000Y-69290000D03*
%TO.P,C20,2*%
%TO.N,GND*%
X169578016Y-68193984D03*
%TD*%
D14*
%TO.P,U17,1,GND*%
%TO.N,GND*%
X181682000Y-105190000D03*
%TO.P,U17,2,DVDT*%
%TO.N,unconnected-(U17-DVDT-Pad2)*%
X182951999Y-105190000D03*
%TO.P,U17,3,EN/UVLO*%
%TO.N,/EN_5V_COMM*%
X184221999Y-105190000D03*
%TO.P,U17,4,IN*%
%TO.N,/EPS Power Distribution/5V_BUS*%
X185491998Y-105190000D03*
%TO.P,U17,5,OUT*%
%TO.N,/5V_COMM*%
X185491998Y-99440000D03*
%TO.P,U17,6,~{FLT}*%
%TO.N,/FLT_5V_COMM*%
X184221999Y-99440000D03*
%TO.P,U17,7,ILM*%
%TO.N,/EPS Power Distribution/ILM_5V_COMM*%
X182951999Y-99440000D03*
%TO.P,U17,8,OVCSEL*%
%TO.N,Net-(U17-OVCSEL)*%
X181682000Y-99440000D03*
D15*
%TO.P,U17,9,EXP*%
%TO.N,GND*%
X183586999Y-102315000D03*
D16*
%TO.P,U17,10*%
%TO.N,N/C*%
X182286999Y-102965000D03*
%TO.P,U17,11*%
X182286999Y-101665000D03*
%TO.P,U17,12*%
X183586999Y-102964999D03*
%TO.P,U17,13*%
X183586999Y-101665001D03*
%TO.P,U17,14*%
X184886999Y-102965000D03*
%TO.P,U17,15*%
X184886999Y-101665000D03*
%TD*%
D17*
%TO.P,C48,1*%
%TO.N,GND*%
X165957000Y-121990000D03*
%TO.P,C48,2*%
%TO.N,/VBUS*%
X163007000Y-121990000D03*
%TD*%
D10*
%TO.P,R19,1,1*%
%TO.N,/FLT_5V_PAY*%
X154832000Y-97090000D03*
%TO.P,R19,2,2*%
%TO.N,3V3_EPS*%
X156482000Y-97090000D03*
%TD*%
D18*
%TO.P,C39,1*%
%TO.N,/EPS Power Distribution/1.25VREF*%
X182178016Y-77090000D03*
%TO.P,C39,2*%
%TO.N,GND*%
X181082000Y-78186016D03*
%TD*%
D19*
%TO.P,C22,1*%
%TO.N,GND*%
X180957000Y-131040000D03*
%TO.P,C22,2*%
%TO.N,/VBUS*%
X179407000Y-131040000D03*
%TD*%
D20*
%TO.P,C32,1*%
%TO.N,/EPS Power Distribution/12V_BUS*%
X196082000Y-122114998D03*
%TO.P,C32,2*%
%TO.N,GND*%
X196082000Y-125065000D03*
%TD*%
D21*
%TO.P,H4,1,1*%
%TO.N,GND*%
X119282000Y-132690000D03*
%TD*%
D22*
%TO.P,J4,1,Pin_1*%
%TO.N,/VBUS0*%
X127532000Y-53880000D03*
D23*
%TO.P,J4,2,Pin_2*%
X127532000Y-51340000D03*
%TO.P,J4,3,Pin_3*%
%TO.N,GND*%
X130072000Y-53880000D03*
%TO.P,J4,4,Pin_4*%
X130072000Y-51340000D03*
%TO.P,J4,5,Pin_5*%
%TO.N,/3V3_ANT*%
X132612000Y-53880000D03*
%TO.P,J4,6,Pin_6*%
%TO.N,GND*%
X132612000Y-51340000D03*
%TO.P,J4,7,Pin_7*%
%TO.N,/3V3_ANT*%
X135152000Y-53880000D03*
%TO.P,J4,8,Pin_8*%
%TO.N,GND*%
X135152000Y-51340000D03*
%TO.P,J4,9,Pin_9*%
%TO.N,/ANT_DEPLOY*%
X137692000Y-53880000D03*
%TO.P,J4,10,Pin_10*%
%TO.N,/ANT_DEPLOY_STATUS*%
X137692000Y-51340000D03*
%TO.P,J4,11,Pin_11*%
%TO.N,/CS_ANT*%
X140232000Y-53880000D03*
%TO.P,J4,12,Pin_12*%
%TO.N,unconnected-(J4-Pin_12-Pad12)*%
X140232000Y-51340000D03*
%TO.P,J4,13,Pin_13*%
%TO.N,unconnected-(J4-Pin_13-Pad13)*%
X142772000Y-53880000D03*
%TO.P,J4,14,Pin_14*%
%TO.N,unconnected-(J4-Pin_14-Pad14)*%
X142772000Y-51340000D03*
%TO.P,J4,15,Pin_15*%
%TO.N,unconnected-(J4-Pin_15-Pad15)*%
X145312000Y-53880000D03*
%TO.P,J4,16,Pin_16*%
%TO.N,unconnected-(J4-Pin_16-Pad16)*%
X145312000Y-51340000D03*
%TO.P,J4,17,Pin_17*%
%TO.N,unconnected-(J4-Pin_17-Pad17)*%
X147852000Y-53880000D03*
%TO.P,J4,18,Pin_18*%
%TO.N,unconnected-(J4-Pin_18-Pad18)*%
X147852000Y-51340000D03*
%TO.P,J4,19,Pin_19*%
%TO.N,/HEARTBEAT_OBC*%
X150392000Y-53880000D03*
%TO.P,J4,20,Pin_20*%
%TO.N,unconnected-(J4-Pin_20-Pad20)*%
X150392000Y-51340000D03*
%TO.P,J4,21,Pin_21*%
%TO.N,/HEARTBEAT_ADCS*%
X152932000Y-53880000D03*
%TO.P,J4,22,Pin_22*%
%TO.N,unconnected-(J4-Pin_22-Pad22)*%
X152932000Y-51340000D03*
%TO.P,J4,23,Pin_23*%
%TO.N,GND*%
X155472000Y-53880000D03*
%TO.P,J4,24,Pin_24*%
X155472000Y-51340000D03*
%TO.P,J4,25,Pin_25*%
%TO.N,/5V_PAY*%
X158012000Y-53880000D03*
%TO.P,J4,26,Pin_26*%
X158012000Y-51340000D03*
%TO.P,J4,27,Pin_27*%
%TO.N,GND*%
X160552000Y-53880000D03*
%TO.P,J4,28,Pin_28*%
X160552000Y-51340000D03*
%TO.P,J4,29,Pin_29*%
%TO.N,/5V_OBC*%
X163092000Y-53880000D03*
%TO.P,J4,30,Pin_30*%
X163092000Y-51340000D03*
%TO.P,J4,31,Pin_31*%
%TO.N,/12V_ADCS*%
X165632000Y-53880000D03*
%TO.P,J4,32,Pin_32*%
X165632000Y-51340000D03*
%TO.P,J4,33,Pin_33*%
%TO.N,unconnected-(J4-Pin_33-Pad33)*%
X168172000Y-53880000D03*
%TO.P,J4,34,Pin_34*%
%TO.N,unconnected-(J4-Pin_34-Pad34)*%
X168172000Y-51340000D03*
%TO.P,J4,35,Pin_35*%
%TO.N,unconnected-(J4-Pin_35-Pad35)*%
X170712000Y-53880000D03*
%TO.P,J4,36,Pin_36*%
%TO.N,unconnected-(J4-Pin_36-Pad36)*%
X170712000Y-51340000D03*
%TO.P,J4,37,Pin_37*%
%TO.N,/5V_ADCS*%
X173252000Y-53880000D03*
%TO.P,J4,38,Pin_38*%
X173252000Y-51340000D03*
%TO.P,J4,39,Pin_39*%
%TO.N,/3V3_ADCS*%
X175792000Y-53880000D03*
%TO.P,J4,40,Pin_40*%
X175792000Y-51340000D03*
%TO.P,J4,41,Pin_41*%
%TO.N,unconnected-(J4-Pin_41-Pad41)*%
X178332000Y-53880000D03*
%TO.P,J4,42,Pin_42*%
%TO.N,GND*%
X178332000Y-51340000D03*
%TO.P,J4,43,Pin_43*%
%TO.N,unconnected-(J4-Pin_43-Pad43)*%
X180872000Y-53880000D03*
%TO.P,J4,44,Pin_44*%
%TO.N,/I2C2_SCL*%
X180872000Y-51340000D03*
%TO.P,J4,45,Pin_45*%
%TO.N,unconnected-(J4-Pin_45-Pad45)*%
X183412000Y-53880000D03*
%TO.P,J4,46,Pin_46*%
%TO.N,/I2C2_SDA*%
X183412000Y-51340000D03*
%TO.P,J4,47,Pin_47*%
%TO.N,unconnected-(J4-Pin_47-Pad47)*%
X185952000Y-53880000D03*
%TO.P,J4,48,Pin_48*%
%TO.N,GND*%
X185952000Y-51340000D03*
%TO.P,J4,49,Pin_49*%
%TO.N,unconnected-(J4-Pin_49-Pad49)*%
X188492000Y-53880000D03*
%TO.P,J4,50,Pin_50*%
%TO.N,/I2C1_SCL*%
X188492000Y-51340000D03*
%TO.P,J4,51,Pin_51*%
%TO.N,unconnected-(J4-Pin_51-Pad51)*%
X191032000Y-53880000D03*
%TO.P,J4,52,Pin_52*%
%TO.N,/I2C1_SDA*%
X191032000Y-51340000D03*
%TD*%
D17*
%TO.P,C47,1*%
%TO.N,GND*%
X161557001Y-111990000D03*
%TO.P,C47,2*%
%TO.N,/EPS Power Distribution/5V_BUS*%
X158606999Y-111990000D03*
%TD*%
D24*
%TO.P,C27,1*%
%TO.N,GND*%
X184082000Y-130190000D03*
%TO.P,C27,2*%
%TO.N,Net-(C27-Pad2)*%
X185632000Y-130190000D03*
%TD*%
D13*
%TO.P,C30,1*%
%TO.N,3V3_EPS*%
X170533992Y-69838008D03*
%TO.P,C30,2*%
%TO.N,GND*%
X171630008Y-68741992D03*
%TD*%
D21*
%TO.P,H3,1,1*%
%TO.N,GND*%
X199282000Y-132690000D03*
%TD*%
D22*
%TO.P,J3,1,Pin_1*%
%TO.N,/VBUS0*%
X127532000Y-58960000D03*
D23*
%TO.P,J3,2,Pin_2*%
X127532000Y-56420000D03*
%TO.P,J3,3,Pin_3*%
%TO.N,GND*%
X130072000Y-58960000D03*
%TO.P,J3,4,Pin_4*%
X130072000Y-56420000D03*
%TO.P,J3,5,Pin_5*%
%TO.N,/RST_CC*%
X132612000Y-58960000D03*
%TO.P,J3,6,Pin_6*%
%TO.N,unconnected-(J3-Pin_6-Pad6)*%
X132612000Y-56420000D03*
%TO.P,J3,7,Pin_7*%
%TO.N,/UART1_RX*%
X135152000Y-58960000D03*
%TO.P,J3,8,Pin_8*%
%TO.N,unconnected-(J3-Pin_8-Pad8)*%
X135152000Y-56420000D03*
%TO.P,J3,9,Pin_9*%
%TO.N,/UART1_TX*%
X137692000Y-58960000D03*
%TO.P,J3,10,Pin_10*%
%TO.N,unconnected-(J3-Pin_10-Pad10)*%
X137692000Y-56420000D03*
%TO.P,J3,11,Pin_11*%
%TO.N,/UART1_RTS*%
X140232000Y-58960000D03*
%TO.P,J3,12,Pin_12*%
%TO.N,unconnected-(J3-Pin_12-Pad12)*%
X140232000Y-56420000D03*
%TO.P,J3,13,Pin_13*%
%TO.N,/UART1_CTS*%
X142772000Y-58960000D03*
%TO.P,J3,14,Pin_14*%
%TO.N,unconnected-(J3-Pin_14-Pad14)*%
X142772000Y-56420000D03*
%TO.P,J3,15,Pin_15*%
%TO.N,GND*%
X145312000Y-58960000D03*
%TO.P,J3,16,Pin_16*%
%TO.N,unconnected-(J3-Pin_16-Pad16)*%
X145312000Y-56420000D03*
%TO.P,J3,17,Pin_17*%
%TO.N,/CAN_A_L*%
X147852000Y-58960000D03*
%TO.P,J3,18,Pin_18*%
%TO.N,unconnected-(J3-Pin_18-Pad18)*%
X147852000Y-56420000D03*
%TO.P,J3,19,Pin_19*%
%TO.N,/CAN_A_H*%
X150392000Y-58960000D03*
%TO.P,J3,20,Pin_20*%
%TO.N,unconnected-(J3-Pin_20-Pad20)*%
X150392000Y-56420000D03*
%TO.P,J3,21,Pin_21*%
%TO.N,GND*%
X152932000Y-58960000D03*
%TO.P,J3,22,Pin_22*%
%TO.N,unconnected-(J3-Pin_22-Pad22)*%
X152932000Y-56420000D03*
%TO.P,J3,23,Pin_23*%
%TO.N,/CAN_B_L*%
X155472000Y-58960000D03*
%TO.P,J3,24,Pin_24*%
%TO.N,unconnected-(J3-Pin_24-Pad24)*%
X155472000Y-56420000D03*
%TO.P,J3,25,Pin_25*%
%TO.N,/CAN_B_H*%
X158012000Y-58960000D03*
%TO.P,J3,26,Pin_26*%
%TO.N,unconnected-(J3-Pin_26-Pad26)*%
X158012000Y-56420000D03*
%TO.P,J3,27,Pin_27*%
%TO.N,GND*%
X160552000Y-58960000D03*
%TO.P,J3,28,Pin_28*%
%TO.N,unconnected-(J3-Pin_28-Pad28)*%
X160552000Y-56420000D03*
%TO.P,J3,29,Pin_29*%
%TO.N,5V_EPS*%
X163092000Y-58960000D03*
%TO.P,J3,30,Pin_30*%
X163092000Y-56420000D03*
%TO.P,J3,31,Pin_31*%
%TO.N,3V3_EPS*%
X165632000Y-58960000D03*
%TO.P,J3,32,Pin_32*%
X165632000Y-56420000D03*
%TO.P,J3,33,Pin_33*%
%TO.N,unconnected-(J3-Pin_33-Pad33)*%
X168172000Y-58960000D03*
%TO.P,J3,34,Pin_34*%
%TO.N,unconnected-(J3-Pin_34-Pad34)*%
X168172000Y-56420000D03*
%TO.P,J3,35,Pin_35*%
%TO.N,/UART0_CTS*%
X170712000Y-58960000D03*
%TO.P,J3,36,Pin_36*%
%TO.N,unconnected-(J3-Pin_36-Pad36)*%
X170712000Y-56420000D03*
%TO.P,J3,37,Pin_37*%
%TO.N,/UART0_RTS*%
X173252000Y-58960000D03*
%TO.P,J3,38,Pin_38*%
%TO.N,unconnected-(J3-Pin_38-Pad38)*%
X173252000Y-56420000D03*
%TO.P,J3,39,Pin_39*%
%TO.N,/UART0_RX*%
X175792000Y-58960000D03*
%TO.P,J3,40,Pin_40*%
%TO.N,unconnected-(J3-Pin_40-Pad40)*%
X175792000Y-56420000D03*
%TO.P,J3,41,Pin_41*%
%TO.N,/UART0_TX*%
X178332000Y-58960000D03*
%TO.P,J3,42,Pin_42*%
%TO.N,unconnected-(J3-Pin_42-Pad42)*%
X178332000Y-56420000D03*
%TO.P,J3,43,Pin_43*%
%TO.N,unconnected-(J3-Pin_43-Pad43)*%
X180872000Y-58960000D03*
%TO.P,J3,44,Pin_44*%
%TO.N,unconnected-(J3-Pin_44-Pad44)*%
X180872000Y-56420000D03*
%TO.P,J3,45,Pin_45*%
%TO.N,unconnected-(J3-Pin_45-Pad45)*%
X183412000Y-58960000D03*
%TO.P,J3,46,Pin_46*%
%TO.N,unconnected-(J3-Pin_46-Pad46)*%
X183412000Y-56420000D03*
%TO.P,J3,47,Pin_47*%
%TO.N,/5V_COMM*%
X185952000Y-58960000D03*
%TO.P,J3,48,Pin_48*%
%TO.N,unconnected-(J3-Pin_48-Pad48)*%
X185952000Y-56420000D03*
%TO.P,J3,49,Pin_49*%
%TO.N,/5V_COMM*%
X188492000Y-58960000D03*
%TO.P,J3,50,Pin_50*%
%TO.N,unconnected-(J3-Pin_50-Pad50)*%
X188492000Y-56420000D03*
%TO.P,J3,51,Pin_51*%
%TO.N,unconnected-(J3-Pin_51-Pad51)*%
X191032000Y-58960000D03*
%TO.P,J3,52,Pin_52*%
%TO.N,unconnected-(J3-Pin_52-Pad52)*%
X191032000Y-56420000D03*
%TD*%
D25*
%TO.P,U19,1,SW*%
%TO.N,/EPS Power Distribution/SW_5V*%
X161681998Y-120090000D03*
%TO.P,U19,2,VIN*%
%TO.N,/VBUS*%
X162181999Y-120090000D03*
%TO.P,U19,3,RUN*%
X162681999Y-120090000D03*
%TO.P,U19,4,PGOOD*%
%TO.N,/STATUS_5V*%
X163182000Y-120090000D03*
%TO.P,U19,5,FB*%
%TO.N,/EPS Power Distribution/5V_BUS*%
X163182000Y-117169000D03*
%TO.P,U19,6,INTVCC*%
%TO.N,/EPS Power Distribution/INTVCC_5V*%
X162681999Y-117169000D03*
%TO.P,U19,7,MODE/SYNC*%
%TO.N,/EPS Power Distribution/MODE_5V*%
X162181999Y-117169000D03*
%TO.P,U19,8,GND_2*%
%TO.N,GND*%
X161681998Y-117169000D03*
D26*
%TO.P,U19,9,GND*%
X162431999Y-118629500D03*
%TD*%
D27*
%TO.P,U11,1,COMP*%
%TO.N,Net-(U11-COMP)*%
X186752000Y-125664999D03*
%TO.P,U11,2,FB*%
%TO.N,/EPS Power Distribution/FB_12V*%
X186752000Y-125015000D03*
%TO.P,U11,3,SHDN*%
%TO.N,/SHDN_12V*%
X186752000Y-124365001D03*
%TO.P,U11,4,AGND*%
%TO.N,GND*%
X186752000Y-123715000D03*
%TO.P,U11,5,PGND-1*%
X186752000Y-123065000D03*
%TO.P,U11,6,PGND*%
X186752000Y-122414999D03*
%TO.P,U11,7,PGND-3*%
X186752000Y-121765000D03*
%TO.P,U11,8,PGND-2*%
X186752000Y-121115001D03*
%TO.P,U11,9,SW-1*%
%TO.N,/EPS Power Distribution/SW_12V*%
X181012000Y-121115001D03*
%TO.P,U11,10,SW*%
X181012000Y-121765000D03*
%TO.P,U11,11,SW-2*%
X181012000Y-122414999D03*
%TO.P,U11,12,BYP*%
%TO.N,Net-(U11-BYP)*%
X181012000Y-123065000D03*
%TO.P,U11,13,VIN*%
%TO.N,/EPS Power Distribution/VIN_12V*%
X181012000Y-123715000D03*
%TO.P,U11,14,SS*%
%TO.N,Net-(U11-SS)*%
X181012000Y-124365001D03*
%TO.P,U11,15,FS*%
%TO.N,unconnected-(U11-FS-Pad15)*%
X181012000Y-125015000D03*
%TO.P,U11,16,TEST*%
%TO.N,GND*%
X181012000Y-125664999D03*
%TD*%
D24*
%TO.P,C42,1*%
%TO.N,/5V_ADCS*%
X196782000Y-90190000D03*
%TO.P,C42,2*%
%TO.N,GND*%
X198332000Y-90190000D03*
%TD*%
D12*
%TO.P,R28,1,1*%
%TO.N,/EPS Power Distribution/12V_BUS*%
X190532000Y-124140000D03*
%TO.P,R28,2,2*%
%TO.N,/EPS Power Distribution/FB_12V*%
X188882000Y-124140000D03*
%TD*%
D11*
%TO.P,R27,1,1*%
%TO.N,/EPS Power Distribution/VIN_12V*%
X178982000Y-127865000D03*
%TO.P,R27,2,2*%
%TO.N,/VBUS*%
X178982000Y-129515000D03*
%TD*%
D10*
%TO.P,R26,1,1*%
%TO.N,GND*%
X130657000Y-96339999D03*
%TO.P,R26,2,2*%
%TO.N,/EPS Power Distribution/ILM_3V3_EPS*%
X132307000Y-96339999D03*
%TD*%
D28*
%TO.P,R14,1,1*%
%TO.N,/FLT_3V3_ADCS*%
X141982000Y-91640000D03*
%TO.P,R14,2,2*%
%TO.N,3V3_EPS*%
X143148726Y-90473274D03*
%TD*%
D14*
%TO.P,U10,1,GND*%
%TO.N,GND*%
X152277001Y-105514999D03*
%TO.P,U10,2,DVDT*%
%TO.N,unconnected-(U10-DVDT-Pad2)*%
X153547000Y-105514999D03*
%TO.P,U10,3,EN/UVLO*%
%TO.N,/EN_5V_PAY*%
X154817000Y-105514999D03*
%TO.P,U10,4,IN*%
%TO.N,/EPS Power Distribution/5V_BUS*%
X156086999Y-105514999D03*
%TO.P,U10,5,OUT*%
%TO.N,/5V_PAY*%
X156086999Y-99764999D03*
%TO.P,U10,6,~{FLT}*%
%TO.N,/FLT_5V_PAY*%
X154817000Y-99764999D03*
%TO.P,U10,7,ILM*%
%TO.N,/EPS Power Distribution/ILM_5V_PAY*%
X153547000Y-99764999D03*
%TO.P,U10,8,OVCSEL*%
%TO.N,Net-(U10-OVCSEL)*%
X152277001Y-99764999D03*
D15*
%TO.P,U10,9,EXP*%
%TO.N,GND*%
X154182000Y-102639999D03*
D16*
%TO.P,U10,10*%
%TO.N,N/C*%
X152882000Y-103289999D03*
%TO.P,U10,11*%
X152882000Y-101989999D03*
%TO.P,U10,12*%
X154182000Y-103289998D03*
%TO.P,U10,13*%
X154182000Y-101990000D03*
%TO.P,U10,14*%
X155482000Y-103289999D03*
%TO.P,U10,15*%
X155482000Y-101989999D03*
%TD*%
D29*
%TO.P,JP5,1,A*%
%TO.N,/RESET_ADC*%
X180262761Y-65170761D03*
D30*
%TO.P,JP5,2,C*%
%TO.N,3V3_EPS*%
X181182000Y-66090000D03*
D31*
%TO.P,JP5,3,B*%
%TO.N,/RESET_ADC*%
X182101239Y-67009239D03*
%TD*%
D11*
%TO.P,R34,1,1*%
%TO.N,Net-(U13-OVCSEL)*%
X170082000Y-101665000D03*
%TO.P,R34,2,2*%
%TO.N,GND*%
X170082000Y-103315000D03*
%TD*%
D18*
%TO.P,C35,1*%
%TO.N,+3.3VA*%
X176778016Y-80293984D03*
%TO.P,C35,2*%
%TO.N,GND*%
X175682000Y-81390000D03*
%TD*%
D32*
%TO.P,U14,1,AIN7*%
%TO.N,/EPS Power Distribution/ILM_5V_ADCS*%
X176848053Y-77318943D03*
%TO.P,U14,2,AIN8*%
%TO.N,/EPS Power Distribution/ILM_5V_COMM*%
X177297066Y-76869931D03*
%TO.P,U14,3,AVDD*%
%TO.N,+3.3VA*%
X177764039Y-76402957D03*
%TO.P,U14,4,AGND*%
%TO.N,GND*%
X178213052Y-75953944D03*
%TO.P,U14,5,REFIN1(-)*%
X178680026Y-75486971D03*
%TO.P,U14,6,REFIN1(+)*%
%TO.N,/EPS Power Distribution/1.25VREF*%
X179146999Y-75019998D03*
%TO.P,U14,7,AIN1*%
%TO.N,/EPS Power Distribution/ILM_3V3_ADCS*%
X179596012Y-74570985D03*
%TO.P,U14,8,AIN2*%
%TO.N,/EPS Power Distribution/ILM_3V3_ANT*%
X180062985Y-74104012D03*
%TO.P,U14,9,AIN3*%
%TO.N,/EPS Power Distribution/ILM_3V3_EPS*%
X180511998Y-73654999D03*
%TO.P,U14,10,AIN4*%
%TO.N,/EPS Power Distribution/ILM_5V_PAY*%
X180978971Y-73188026D03*
%TO.P,U14,11,AIN5*%
%TO.N,/EPS Power Distribution/ILM_5V_EPS*%
X181445944Y-72721052D03*
%TO.P,U14,12,AINCOM*%
%TO.N,GND*%
X181894957Y-72272039D03*
%TO.P,U14,13,REFIN2(+)/AIN9*%
%TO.N,/EPS Power Distribution/ILM_12V_ADCS*%
X182361931Y-71805066D03*
%TO.P,U14,14,REFIN2(-)/AIN10*%
%TO.N,unconnected-(U14-REFIN2(-){slash}AIN10-Pad14)*%
X182810943Y-71356053D03*
%TO.P,U14,15,AIN6*%
%TO.N,/EPS Power Distribution/ILM_5V_OBC*%
X178715947Y-67261057D03*
%TO.P,U14,16,P2*%
%TO.N,unconnected-(U14-P2-Pad16)*%
X178266934Y-67710069D03*
%TO.P,U14,17,AGND_2*%
%TO.N,GND*%
X177799961Y-68177043D03*
%TO.P,U14,18,P1*%
%TO.N,unconnected-(U14-P1-Pad18)*%
X177350948Y-68626056D03*
%TO.P,U14,19,~RESET*%
%TO.N,/RESET_ADC*%
X176883974Y-69093029D03*
%TO.P,U14,20,SCLK*%
%TO.N,/SPI_SCLK*%
X176417001Y-69560002D03*
%TO.P,U14,21,~CS*%
%TO.N,/SPI_CS*%
X175967988Y-70009015D03*
%TO.P,U14,22,~RDY*%
%TO.N,/RDY_ADC*%
X175501015Y-70475988D03*
%TO.P,U14,23,DOUT*%
%TO.N,/SPI_MISO*%
X175052002Y-70925001D03*
%TO.P,U14,24,DIN*%
%TO.N,/SPI_MOSI*%
X174585029Y-71391974D03*
%TO.P,U14,25,DGND*%
%TO.N,GND*%
X174118056Y-71858948D03*
%TO.P,U14,26,DVDD*%
%TO.N,3V3_EPS*%
X173669043Y-72307961D03*
%TO.P,U14,27,XTAL2*%
%TO.N,/EPS Power Distribution/CLK_OUT_ADC*%
X173202069Y-72774934D03*
%TO.P,U14,28,XTAL1*%
%TO.N,/EPS Power Distribution/CLK_IN_ADC*%
X172753057Y-73223947D03*
%TD*%
D21*
%TO.P,H2,1,1*%
%TO.N,GND*%
X199282000Y-52690000D03*
%TD*%
D33*
%TO.P,D6,1,K*%
%TO.N,/EPS Power Distribution/12V_BUS*%
X183282000Y-117840000D03*
%TO.P,D6,2,A*%
%TO.N,/EPS Power Distribution/SW_12V*%
X180482002Y-117840000D03*
%TD*%
D11*
%TO.P,R16,1,1*%
%TO.N,/FLT_3V3_EPS*%
X136782000Y-104465000D03*
%TO.P,R16,2,2*%
%TO.N,/EPS Power Distribution/3.3V_BUS*%
X136782000Y-106115000D03*
%TD*%
D34*
%TO.P,C45,1*%
%TO.N,/12V_ADCS*%
X197207000Y-112540000D03*
%TO.P,C45,2*%
%TO.N,GND*%
X197207000Y-114090000D03*
%TD*%
D10*
%TO.P,R43,1,1*%
%TO.N,GND*%
X191257000Y-108890000D03*
%TO.P,R43,2,2*%
%TO.N,/EPS Power Distribution/ILM_12V_ADCS*%
X192907000Y-108890000D03*
%TD*%
D35*
%TO.P,L3,1,1*%
%TO.N,/EPS Power Distribution/5V_BUS*%
X154939500Y-115732500D03*
%TO.P,L3,2,2*%
%TO.N,/EPS Power Distribution/SW_5V*%
X154939500Y-120732500D03*
%TD*%
D36*
%TO.P,Y2,1,1*%
%TO.N,/EPS Power Distribution/CLK_IN_ADC*%
X165998117Y-69073883D03*
%TO.P,Y2,2,2*%
%TO.N,/EPS Power Distribution/CLK_OUT_ADC*%
X167765883Y-67306117D03*
%TD*%
D35*
%TO.P,L2,1,1*%
%TO.N,/EPS Power Distribution/3.3V_BUS*%
X125759250Y-116217500D03*
%TO.P,L2,2,2*%
%TO.N,/EPS Power Distribution/SW_3V3*%
X125759250Y-121217500D03*
%TD*%
D34*
%TO.P,C21,1*%
%TO.N,3V3_EPS*%
X136482000Y-99940000D03*
%TO.P,C21,2*%
%TO.N,GND*%
X136482000Y-101490000D03*
%TD*%
D37*
%TO.P,JP1,1,A*%
%TO.N,VUSB*%
X187792000Y-82435000D03*
D38*
%TO.P,JP1,2,B*%
%TO.N,5V_EPS*%
X187792000Y-79895000D03*
%TD*%
D39*
%TO.P,120R2,1*%
%TO.N,+3.3VA*%
X177636765Y-81744765D03*
%TO.P,120R2,2*%
%TO.N,3V3_EPS*%
X178927235Y-83035235D03*
%TD*%
D18*
%TO.P,C38,1*%
%TO.N,/EPS Power Distribution/1.25VREF*%
X181082000Y-75990000D03*
%TO.P,C38,2*%
%TO.N,GND*%
X179985984Y-77086016D03*
%TD*%
D40*
%TO.P,JP6,1,A*%
%TO.N,GND*%
X167682000Y-115390000D03*
D41*
%TO.P,JP6,2,C*%
%TO.N,/EPS Power Distribution/MODE_5V*%
X166382000Y-115390000D03*
D42*
%TO.P,JP6,3,B*%
%TO.N,/EPS Power Distribution/INTVCC_5V*%
X165082000Y-115390000D03*
%TD*%
D43*
%TO.P,R42,2,2*%
%TO.N,/EPS Power Distribution/3.3V_BUS*%
X146698637Y-110206637D03*
%TO.P,R42,1,1*%
%TO.N,/STATUS_3V3*%
X147865363Y-111373363D03*
%TD*%
D20*
%TO.P,C31,1*%
%TO.N,/EPS Power Distribution/12V_BUS*%
X193532000Y-122139998D03*
%TO.P,C31,2*%
%TO.N,GND*%
X193532000Y-125090000D03*
%TD*%
D10*
%TO.P,R24,1,1*%
%TO.N,/FLT_5V_COMM*%
X184657000Y-95465000D03*
%TO.P,R24,2,2*%
%TO.N,3V3_EPS*%
X186307000Y-95465000D03*
%TD*%
D11*
%TO.P,R29,1,1*%
%TO.N,Net-(U11-COMP)*%
X187207000Y-128590000D03*
%TO.P,R29,2,2*%
%TO.N,Net-(C27-Pad2)*%
X187207000Y-130240000D03*
%TD*%
D10*
%TO.P,R35,1,1*%
%TO.N,GND*%
X161557000Y-96790000D03*
%TO.P,R35,2,2*%
%TO.N,/EPS Power Distribution/ILM_5V_EPS*%
X163207000Y-96790000D03*
%TD*%
D14*
%TO.P,U9,1,GND*%
%TO.N,GND*%
X130877001Y-105615000D03*
%TO.P,U9,2,DVDT*%
%TO.N,unconnected-(U9-DVDT-Pad2)*%
X132147000Y-105615000D03*
%TO.P,U9,3,EN/UVLO*%
%TO.N,/EPS Power Distribution/3.3V_BUS*%
X133417000Y-105615000D03*
%TO.P,U9,4,IN*%
X134686999Y-105615000D03*
%TO.P,U9,5,OUT*%
%TO.N,3V3_EPS*%
X134686999Y-99865000D03*
%TO.P,U9,6,~{FLT}*%
%TO.N,/FLT_3V3_EPS*%
X133417000Y-99865000D03*
%TO.P,U9,7,ILM*%
%TO.N,/EPS Power Distribution/ILM_3V3_EPS*%
X132147000Y-99865000D03*
%TO.P,U9,8,OVCSEL*%
%TO.N,GND*%
X130877001Y-99865000D03*
D15*
%TO.P,U9,9,EXP*%
X132782000Y-102740000D03*
D16*
%TO.P,U9,10*%
%TO.N,N/C*%
X131482000Y-103390000D03*
%TO.P,U9,11*%
X131482000Y-102090000D03*
%TO.P,U9,12*%
X132782000Y-103389999D03*
%TO.P,U9,13*%
X132782000Y-102090001D03*
%TO.P,U9,14*%
X134082000Y-103390000D03*
%TO.P,U9,15*%
X134082000Y-102090000D03*
%TD*%
D14*
%TO.P,U13,1,GND*%
%TO.N,GND*%
X172377001Y-105415000D03*
%TO.P,U13,2,DVDT*%
%TO.N,unconnected-(U13-DVDT-Pad2)*%
X173647000Y-105415000D03*
%TO.P,U13,3,EN/UVLO*%
%TO.N,/EN_5V_OBC*%
X174917000Y-105415000D03*
%TO.P,U13,4,IN*%
%TO.N,/EPS Power Distribution/5V_BUS*%
X176186999Y-105415000D03*
%TO.P,U13,5,OUT*%
%TO.N,/5V_OBC*%
X176186999Y-99665000D03*
%TO.P,U13,6,~{FLT}*%
%TO.N,/FLT_5V_OBC*%
X174917000Y-99665000D03*
%TO.P,U13,7,ILM*%
%TO.N,/EPS Power Distribution/ILM_5V_OBC*%
X173647000Y-99665000D03*
%TO.P,U13,8,OVCSEL*%
%TO.N,Net-(U13-OVCSEL)*%
X172377001Y-99665000D03*
D15*
%TO.P,U13,9,EXP*%
%TO.N,GND*%
X174282000Y-102540000D03*
D16*
%TO.P,U13,10*%
%TO.N,N/C*%
X172982000Y-103190000D03*
%TO.P,U13,11*%
X172982000Y-101890000D03*
%TO.P,U13,12*%
X174282000Y-103189999D03*
%TO.P,U13,13*%
X174282000Y-101890001D03*
%TO.P,U13,14*%
X175582000Y-103190000D03*
%TO.P,U13,15*%
X175582000Y-101890000D03*
%TD*%
D44*
%TO.P,C37,1*%
%TO.N,3V3_EPS*%
X177582000Y-84190000D03*
%TO.P,C37,2*%
%TO.N,GND*%
X176485984Y-83093984D03*
%TD*%
D14*
%TO.P,U16,1,GND*%
%TO.N,GND*%
X192877001Y-98215000D03*
%TO.P,U16,2,DVDT*%
%TO.N,unconnected-(U16-DVDT-Pad2)*%
X194147000Y-98215000D03*
%TO.P,U16,3,EN/UVLO*%
%TO.N,/EN_5V_ADCS*%
X195417000Y-98215000D03*
%TO.P,U16,4,IN*%
%TO.N,/EPS Power Distribution/5V_BUS*%
X196686999Y-98215000D03*
%TO.P,U16,5,OUT*%
%TO.N,/5V_ADCS*%
X196686999Y-92465000D03*
%TO.P,U16,6,~{FLT}*%
%TO.N,/FLT_5V_ADCS*%
X195417000Y-92465000D03*
%TO.P,U16,7,ILM*%
%TO.N,/EPS Power Distribution/ILM_5V_ADCS*%
X194147000Y-92465000D03*
%TO.P,U16,8,OVCSEL*%
%TO.N,Net-(U16-OVCSEL)*%
X192877001Y-92465000D03*
D15*
%TO.P,U16,9,EXP*%
%TO.N,GND*%
X194782000Y-95340000D03*
D16*
%TO.P,U16,10*%
%TO.N,N/C*%
X193482000Y-95990000D03*
%TO.P,U16,11*%
X193482000Y-94690000D03*
%TO.P,U16,12*%
X194782000Y-95989999D03*
%TO.P,U16,13*%
X194782000Y-94690001D03*
%TO.P,U16,14*%
X196082000Y-95990000D03*
%TO.P,U16,15*%
X196082000Y-94690000D03*
%TD*%
D11*
%TO.P,R38,1,1*%
%TO.N,Net-(U17-OVCSEL)*%
X179482000Y-101865000D03*
%TO.P,R38,2,2*%
%TO.N,GND*%
X179482000Y-103515000D03*
%TD*%
D45*
%TO.P,U15,1,SW*%
%TO.N,/EPS Power Distribution/SW_3V3*%
X131882000Y-121610000D03*
%TO.P,U15,2,SW*%
X132532000Y-121610000D03*
%TO.P,U15,3,Vin*%
%TO.N,/VBUS*%
X133182000Y-121610000D03*
%TO.P,U15,4,Vin*%
X133832000Y-121610000D03*
%TO.P,U15,5,RUN*%
X134482000Y-121610000D03*
%TO.P,U15,6,PGOOD*%
%TO.N,/STATUS_3V3*%
X135132000Y-121610000D03*
%TO.P,U15,7,NC*%
%TO.N,unconnected-(U15-NC-Pad7)*%
X135132000Y-117290000D03*
%TO.P,U15,8,FB*%
%TO.N,/EPS Power Distribution/3.3V_BUS*%
X134482000Y-117290000D03*
%TO.P,U15,9,INTVCC*%
%TO.N,/EPS Power Distribution/INTVCC_3V3*%
X133832000Y-117290000D03*
%TO.P,U15,10,MODE/SYNC*%
%TO.N,/EPS Power Distribution/MODE_3V3*%
X133182000Y-117290000D03*
%TO.P,U15,11,GND*%
%TO.N,GND*%
X132532000Y-117290000D03*
%TO.P,U15,12,GND*%
X131882000Y-117290000D03*
D46*
%TO.P,U15,13*%
%TO.N,N/C*%
X133507000Y-119450000D03*
%TD*%
D47*
%TO.P,L1,2,2*%
%TO.N,/EPS Power Distribution/SW_12V*%
X174622000Y-122890000D03*
%TO.P,L1,1,1*%
%TO.N,/VBUS*%
X174602000Y-126360000D03*
%TD*%
D34*
%TO.P,C17,1*%
%TO.N,/3V3_ADCS*%
X146782000Y-100115000D03*
%TO.P,C17,2*%
%TO.N,GND*%
X146782000Y-101665000D03*
%TD*%
D24*
%TO.P,C25,1*%
%TO.N,GND*%
X185232000Y-127065000D03*
%TO.P,C25,2*%
%TO.N,Net-(U11-COMP)*%
X186782000Y-127065000D03*
%TD*%
%TO.P,C33,1*%
%TO.N,5V_EPS*%
X166457000Y-96365000D03*
%TO.P,C33,2*%
%TO.N,GND*%
X168007000Y-96365000D03*
%TD*%
D34*
%TO.P,C26,1*%
%TO.N,/5V_PAY*%
X157732000Y-99815000D03*
%TO.P,C26,2*%
%TO.N,GND*%
X157732000Y-101365000D03*
%TD*%
%TO.P,C46,1*%
%TO.N,GND*%
X162682000Y-114215000D03*
%TO.P,C46,2*%
%TO.N,/EPS Power Distribution/INTVCC_5V*%
X162682000Y-115765000D03*
%TD*%
%TO.P,C18,1*%
%TO.N,/3V3_ANT*%
X126082000Y-99715000D03*
%TO.P,C18,2*%
%TO.N,GND*%
X126082000Y-101265000D03*
%TD*%
D48*
%TO.P,U8,3,NC\u002A*%
%TO.N,unconnected-(U8-NC\u002A-Pad3)*%
X194182000Y-78190000D03*
%TO.P,U8,2,ANODE*%
%TO.N,GND*%
X192150837Y-77078074D03*
%TO.P,U8,1,CATHODE*%
%TO.N,/EPS Power Distribution/1.25VREF*%
X193070074Y-76158837D03*
%TD*%
D49*
%TO.P,C23,1*%
%TO.N,GND*%
X179032000Y-126290000D03*
%TO.P,C23,2*%
%TO.N,/EPS Power Distribution/VIN_12V*%
X179032000Y-124740000D03*
%TD*%
D14*
%TO.P,U18,1,GND*%
%TO.N,GND*%
X191577001Y-118114999D03*
%TO.P,U18,2,DVDT*%
%TO.N,unconnected-(U18-DVDT-Pad2)*%
X192847000Y-118114999D03*
%TO.P,U18,3,EN/UVLO*%
%TO.N,/EN_12V_ADCS*%
X194117000Y-118114999D03*
%TO.P,U18,4,IN*%
%TO.N,/EPS Power Distribution/12V_BUS*%
X195386999Y-118114999D03*
%TO.P,U18,5,OUT*%
%TO.N,/12V_ADCS*%
X195386999Y-112364999D03*
%TO.P,U18,6,~{FLT}*%
%TO.N,/FLT_12V_ADCS*%
X194117000Y-112364999D03*
%TO.P,U18,7,ILM*%
%TO.N,/EPS Power Distribution/ILM_12V_ADCS*%
X192847000Y-112364999D03*
%TO.P,U18,8,OVCSEL*%
%TO.N,unconnected-(U18-OVCSEL-Pad8)*%
X191577001Y-112364999D03*
D15*
%TO.P,U18,9,EXP*%
%TO.N,GND*%
X193482000Y-115239999D03*
D16*
%TO.P,U18,10*%
%TO.N,N/C*%
X192182000Y-115889999D03*
%TO.P,U18,11*%
X192182000Y-114589999D03*
%TO.P,U18,12*%
X193482000Y-115889998D03*
%TO.P,U18,13*%
X193482000Y-114590000D03*
%TO.P,U18,14*%
X194782000Y-115889999D03*
%TO.P,U18,15*%
X194782000Y-114589999D03*
%TD*%
D37*
%TO.P,J2,1,Pin_1*%
%TO.N,3V3_EPS*%
X196632000Y-59550001D03*
D38*
%TO.P,J2,2,Pin_2*%
%TO.N,/SWDIO*%
X196632000Y-62090001D03*
%TO.P,J2,3,Pin_3*%
%TO.N,/SWCLK*%
X196632000Y-64630000D03*
%TO.P,J2,4,Pin_4*%
%TO.N,GND*%
X196632000Y-67170001D03*
%TD*%
D50*
%TO.P,R21,1*%
%TO.N,3V3_EPS*%
X193365363Y-73606637D03*
%TO.P,R21,2*%
%TO.N,/EPS Power Distribution/1.25VREF*%
X192198637Y-74773363D03*
%TD*%
D10*
%TO.P,R36,1,1*%
%TO.N,GND*%
X171957000Y-96590000D03*
%TO.P,R36,2,2*%
%TO.N,/EPS Power Distribution/ILM_5V_OBC*%
X173607000Y-96590000D03*
%TD*%
%TO.P,R25,1,1*%
%TO.N,/FLT_12V_ADCS*%
X197507000Y-109890000D03*
%TO.P,R25,2,2*%
%TO.N,3V3_EPS*%
X199157000Y-109890000D03*
%TD*%
D11*
%TO.P,R37,1,1*%
%TO.N,Net-(U16-OVCSEL)*%
X190582000Y-94665000D03*
%TO.P,R37,2,2*%
%TO.N,GND*%
X190582000Y-96315000D03*
%TD*%
D34*
%TO.P,C41,1*%
%TO.N,GND*%
X133882000Y-113915000D03*
%TO.P,C41,2*%
%TO.N,/EPS Power Distribution/INTVCC_3V3*%
X133882000Y-115465000D03*
%TD*%
D18*
%TO.P,C36,1*%
%TO.N,+3.3VA*%
X175728016Y-79241992D03*
%TO.P,C36,2*%
%TO.N,GND*%
X174632000Y-80338008D03*
%TD*%
D10*
%TO.P,R40,1,1*%
%TO.N,GND*%
X181257000Y-96690000D03*
%TO.P,R40,2,2*%
%TO.N,/EPS Power Distribution/ILM_5V_COMM*%
X182907000Y-96690000D03*
%TD*%
D11*
%TO.P,R31,1,1*%
%TO.N,Net-(U10-OVCSEL)*%
X149982000Y-101365000D03*
%TO.P,R31,2,2*%
%TO.N,GND*%
X149982000Y-103015000D03*
%TD*%
D10*
%TO.P,R18,1,1*%
%TO.N,GND*%
X120357001Y-96190000D03*
%TO.P,R18,2,2*%
%TO.N,/EPS Power Distribution/ILM_3V3_ANT*%
X122007001Y-96190000D03*
%TD*%
D14*
%TO.P,U12,1,GND*%
%TO.N,GND*%
X162677000Y-105515000D03*
%TO.P,U12,2,DVDT*%
%TO.N,unconnected-(U12-DVDT-Pad2)*%
X163947000Y-105515000D03*
%TO.P,U12,3,EN/UVLO*%
%TO.N,/EN_5V_EPS*%
X165217000Y-105515000D03*
%TO.P,U12,4,IN*%
%TO.N,/EPS Power Distribution/5V_BUS*%
X166487000Y-105515000D03*
%TO.P,U12,5,OUT*%
%TO.N,5V_EPS*%
X166487000Y-99765000D03*
%TO.P,U12,6,~{FLT}*%
%TO.N,/FLT_5V_EPS*%
X165217000Y-99765000D03*
%TO.P,U12,7,ILM*%
%TO.N,/EPS Power Distribution/ILM_5V_EPS*%
X163947000Y-99765000D03*
%TO.P,U12,8,OVCSEL*%
%TO.N,Net-(U12-OVCSEL)*%
X162677000Y-99765000D03*
D15*
%TO.P,U12,9,EXP*%
%TO.N,GND*%
X164582000Y-102640000D03*
D16*
%TO.P,U12,10*%
%TO.N,N/C*%
X163282000Y-103290000D03*
%TO.P,U12,11*%
X163282000Y-101990000D03*
%TO.P,U12,12*%
X164582000Y-103290000D03*
%TO.P,U12,13*%
X164582000Y-101990000D03*
%TO.P,U12,14*%
X165882000Y-103290000D03*
%TO.P,U12,15*%
X165882000Y-101990000D03*
%TD*%
D14*
%TO.P,U7,1,GND*%
%TO.N,GND*%
X120577001Y-105315000D03*
%TO.P,U7,2,DVDT*%
%TO.N,unconnected-(U7-DVDT-Pad2)*%
X121847000Y-105315000D03*
%TO.P,U7,3,EN/UVLO*%
%TO.N,/EN_3V3_ANT*%
X123117000Y-105315000D03*
%TO.P,U7,4,IN*%
%TO.N,/EPS Power Distribution/3.3V_BUS*%
X124386999Y-105315000D03*
%TO.P,U7,5,OUT*%
%TO.N,/3V3_ANT*%
X124386999Y-99565000D03*
%TO.P,U7,6,~{FLT}*%
%TO.N,/FLT_3V3_ANT*%
X123117000Y-99565000D03*
%TO.P,U7,7,ILM*%
%TO.N,/EPS Power Distribution/ILM_3V3_ANT*%
X121847000Y-99565000D03*
%TO.P,U7,8,OVCSEL*%
%TO.N,GND*%
X120577001Y-99565000D03*
D15*
%TO.P,U7,9,EXP*%
X122482000Y-102440000D03*
D16*
%TO.P,U7,10*%
%TO.N,N/C*%
X121182000Y-103090000D03*
%TO.P,U7,11*%
X121182000Y-101790000D03*
%TO.P,U7,12*%
X122482000Y-103089999D03*
%TO.P,U7,13*%
X122482000Y-101790001D03*
%TO.P,U7,14*%
X123782000Y-103090000D03*
%TO.P,U7,15*%
X123782000Y-101790000D03*
%TD*%
D18*
%TO.P,C19,1*%
%TO.N,/EPS Power Distribution/CLK_IN_ADC*%
X167482000Y-70290000D03*
%TO.P,C19,2*%
%TO.N,GND*%
X166385984Y-71386016D03*
%TD*%
D24*
%TO.P,C34,1*%
%TO.N,/5V_OBC*%
X176132000Y-96315000D03*
%TO.P,C34,2*%
%TO.N,GND*%
X177682000Y-96315000D03*
%TD*%
D51*
%TO.P,C40,1*%
%TO.N,/EPS Power Distribution/3.3V_BUS*%
X129132000Y-112590000D03*
%TO.P,C40,2*%
%TO.N,GND*%
X132082000Y-112590000D03*
%TD*%
D11*
%TO.P,R30,1,1*%
%TO.N,/EPS Power Distribution/FB_12V*%
X188932000Y-125665000D03*
%TO.P,R30,2,2*%
%TO.N,GND*%
X188932000Y-127315000D03*
%TD*%
D10*
%TO.P,R20,1,1*%
%TO.N,/FLT_5V_EPS*%
X168282000Y-99140000D03*
%TO.P,R20,2,2*%
%TO.N,3V3_EPS*%
X169932000Y-99140000D03*
%TD*%
D21*
%TO.P,H1,1,1*%
%TO.N,GND*%
X119282000Y-52690000D03*
%TD*%
D10*
%TO.P,R17,1,1*%
%TO.N,GND*%
X141257000Y-96390000D03*
%TO.P,R17,2,2*%
%TO.N,/EPS Power Distribution/ILM_3V3_ADCS*%
X142907000Y-96390000D03*
%TD*%
D24*
%TO.P,C43,1*%
%TO.N,/5V_COMM*%
X185507000Y-97065000D03*
%TO.P,C43,2*%
%TO.N,GND*%
X187057000Y-97065000D03*
%TD*%
D14*
%TO.P,U6,1,GND*%
%TO.N,GND*%
X141277001Y-105715000D03*
%TO.P,U6,2,DVDT*%
%TO.N,unconnected-(U6-DVDT-Pad2)*%
X142547000Y-105715000D03*
%TO.P,U6,3,EN/UVLO*%
%TO.N,/EN_3V3_ADCS*%
X143817000Y-105715000D03*
%TO.P,U6,4,IN*%
%TO.N,/EPS Power Distribution/3.3V_BUS*%
X145086999Y-105715000D03*
%TO.P,U6,5,OUT*%
%TO.N,/3V3_ADCS*%
X145086999Y-99965000D03*
%TO.P,U6,6,~{FLT}*%
%TO.N,/FLT_3V3_ADCS*%
X143817000Y-99965000D03*
%TO.P,U6,7,ILM*%
%TO.N,/EPS Power Distribution/ILM_3V3_ADCS*%
X142547000Y-99965000D03*
%TO.P,U6,8,OVCSEL*%
%TO.N,GND*%
X141277001Y-99965000D03*
D15*
%TO.P,U6,9,EXP*%
X143182000Y-102840000D03*
D16*
%TO.P,U6,10*%
%TO.N,N/C*%
X141882000Y-103490000D03*
%TO.P,U6,11*%
X141882000Y-102190000D03*
%TO.P,U6,12*%
X143182000Y-103489999D03*
%TO.P,U6,13*%
X143182000Y-102190001D03*
%TO.P,U6,14*%
X144482000Y-103490000D03*
%TO.P,U6,15*%
X144482000Y-102190000D03*
%TD*%
D11*
%TO.P,R33,1,1*%
%TO.N,Net-(U12-OVCSEL)*%
X159882000Y-102065000D03*
%TO.P,R33,2,2*%
%TO.N,GND*%
X159882000Y-103715000D03*
%TD*%
D28*
%TO.P,R39,1,1*%
%TO.N,GND*%
X190198637Y-91073363D03*
%TO.P,R39,2,2*%
%TO.N,/EPS Power Distribution/ILM_5V_ADCS*%
X191365363Y-89906637D03*
%TD*%
D37*
%TO.P,JP2,1,A*%
%TO.N,/VBUS0*%
X121592000Y-62940000D03*
D38*
%TO.P,JP2,2,B*%
%TO.N,/VBUS*%
X119052000Y-62940000D03*
%TD*%
D52*
%TO.P,D4,1,K*%
%TO.N,/5V_ADCS*%
X174444500Y-48440000D03*
%TO.P,D4,2,A*%
%TO.N,GND*%
X176319500Y-48440000D03*
%TD*%
D37*
%TO.P,JP3,1,A*%
%TO.N,/3V3_LDO*%
X201682000Y-75090000D03*
D38*
%TO.P,JP3,2,B*%
%TO.N,3V3_EPS*%
X201682000Y-72550000D03*
%TD*%
D12*
%TO.P,R22,1,1*%
%TO.N,/FLT_5V_OBC*%
X174982000Y-90215000D03*
%TO.P,R22,2,2*%
%TO.N,3V3_EPS*%
X173332000Y-90215000D03*
%TD*%
D13*
%TO.P,C29,1*%
%TO.N,3V3_EPS*%
X171633992Y-70938008D03*
%TO.P,C29,2*%
%TO.N,GND*%
X172730008Y-69841992D03*
%TD*%
D17*
%TO.P,C44,1*%
%TO.N,GND*%
X137157000Y-123990000D03*
%TO.P,C44,2*%
%TO.N,/VBUS*%
X134207000Y-123990000D03*
%TD*%
D40*
%TO.P,JP4,1,A*%
%TO.N,GND*%
X139482000Y-114390000D03*
D41*
%TO.P,JP4,2,C*%
%TO.N,/EPS Power Distribution/MODE_3V3*%
X138182000Y-114390000D03*
D42*
%TO.P,JP4,3,B*%
%TO.N,/EPS Power Distribution/INTVCC_3V3*%
X136882000Y-114390000D03*
%TD*%
D53*
%TO.P,J1,6,Shield*%
%TO.N,GND*%
X203832000Y-105215000D03*
X203832000Y-112365000D03*
%TD*%
D54*
%TO.N,3V3_EPS*%
X138958472Y-89613530D03*
X139282000Y-76190000D03*
X152882000Y-64290000D03*
D55*
X187169500Y-93852500D03*
X139307000Y-86865000D03*
D54*
X197182000Y-111215000D03*
D55*
X190332000Y-99765000D03*
D54*
X153182000Y-60990000D03*
D55*
X153807000Y-93365000D03*
X133682000Y-76890000D03*
X182982000Y-64390000D03*
D54*
X179282000Y-84890000D03*
X154682000Y-71890000D03*
D55*
X129962000Y-76890000D03*
D54*
X170382000Y-90590000D03*
X170857000Y-98140000D03*
D55*
X188232000Y-101990000D03*
X140782000Y-88150659D03*
D54*
X170082000Y-71090000D03*
D55*
%TO.N,GND*%
X178632000Y-96390000D03*
X174168675Y-87728325D03*
X139282000Y-122990000D03*
X168832000Y-118040000D03*
D54*
X181546798Y-79879798D03*
D55*
X124232000Y-48865000D03*
D54*
X150182000Y-104590000D03*
D55*
X188382000Y-97590000D03*
X159982000Y-71890000D03*
D54*
X171282000Y-102990000D03*
D55*
X148719347Y-69952653D03*
X138782000Y-79690000D03*
D54*
X201882000Y-83790000D03*
D55*
X178857000Y-69390000D03*
X184682000Y-134065000D03*
X199032000Y-99790000D03*
X203057000Y-124715000D03*
X159182000Y-60865000D03*
X120782000Y-94665000D03*
X166057000Y-118815000D03*
X166482000Y-125540000D03*
X169332000Y-125540000D03*
X188207000Y-70190000D03*
X193132000Y-65790000D03*
X136382000Y-102790000D03*
X181982000Y-134140000D03*
X144682000Y-122990000D03*
X151382000Y-60965000D03*
X157607000Y-65865000D03*
X194907000Y-48840000D03*
X198682000Y-80090000D03*
D54*
X201682000Y-80390000D03*
D55*
X115457000Y-79290000D03*
D54*
X140382000Y-105690000D03*
D55*
X138482000Y-126590000D03*
X197682000Y-81490000D03*
X183307000Y-132140000D03*
X166732000Y-112040000D03*
X157682000Y-102790000D03*
X148822000Y-81310000D03*
X148982000Y-85790000D03*
X167982000Y-97965000D03*
X156982000Y-76590000D03*
D54*
X151082000Y-105490000D03*
D55*
X200982000Y-117165000D03*
X169132000Y-122690000D03*
X148342000Y-86650000D03*
X184407000Y-121665000D03*
X145482000Y-118190000D03*
X190257000Y-117740000D03*
X167807000Y-71740000D03*
X144782000Y-114890000D03*
X170882000Y-96465000D03*
X191332000Y-126940000D03*
X180744500Y-71127500D03*
X143182000Y-116190000D03*
X171703831Y-67711831D03*
X145672000Y-81190000D03*
D54*
X179250481Y-97890000D03*
D55*
X132857000Y-48465000D03*
D54*
X140282000Y-98790000D03*
D55*
X141682000Y-122890000D03*
X182857000Y-128665000D03*
X144682000Y-120290000D03*
X142282000Y-112690000D03*
X126082000Y-102690000D03*
X169282000Y-74190000D03*
X167312000Y-88040000D03*
X121682000Y-66990000D03*
X144602000Y-86660000D03*
X203732000Y-56790000D03*
X191682000Y-133665000D03*
X189707000Y-92290000D03*
X140082000Y-117490000D03*
D54*
X155182000Y-83890000D03*
D55*
X181457000Y-129115000D03*
X173339299Y-80840000D03*
D54*
X129782000Y-105590000D03*
D55*
X197182000Y-115190000D03*
X191682000Y-97390000D03*
X193007000Y-127865000D03*
D54*
X195282000Y-82190000D03*
D55*
X131757000Y-115015000D03*
X167732000Y-119790000D03*
X143012000Y-81280000D03*
X150707000Y-96840000D03*
D54*
X143482000Y-79490000D03*
D55*
X115657000Y-136890000D03*
D54*
X171582000Y-104390000D03*
D55*
X136907000Y-112315000D03*
D54*
X161482000Y-103490000D03*
X145682000Y-79590000D03*
D55*
X167682000Y-124090000D03*
D54*
X147382000Y-79490000D03*
X130082000Y-98090000D03*
D55*
X178956446Y-77586216D03*
X194507000Y-126765000D03*
X140382000Y-125090000D03*
D54*
X140282000Y-100590000D03*
D55*
X185332000Y-48365000D03*
X191782000Y-95990000D03*
X128632000Y-70615000D03*
X143982000Y-112390000D03*
D54*
X199082000Y-91290000D03*
D55*
X160482000Y-97815000D03*
X196482000Y-127415000D03*
X174107000Y-88765000D03*
X118982000Y-58540000D03*
D54*
X129382000Y-102090000D03*
X180482000Y-105690000D03*
D55*
X156482914Y-88728022D03*
X168882000Y-112890000D03*
X144182000Y-125690000D03*
X141882000Y-119090000D03*
D54*
X141982000Y-78890000D03*
D55*
X140682000Y-136190000D03*
D54*
X161182000Y-105290000D03*
X179382000Y-104640000D03*
D55*
X190382000Y-110515000D03*
X146782000Y-102990000D03*
X139682000Y-120490000D03*
X196382000Y-82190000D03*
X203282000Y-63465000D03*
D54*
X151182000Y-103790000D03*
D55*
X137782000Y-118790000D03*
X135082000Y-64540000D03*
%TO.N,Net-(U11-BYP)*%
X182832000Y-123540000D03*
%TO.N,Net-(U11-SS)*%
X182882000Y-124540000D03*
%TO.N,/EPS Power Distribution/3.3V_BUS*%
X134482000Y-110290000D03*
X135382000Y-115790000D03*
%TO.N,/EPS Power Distribution/1.25VREF*%
X189432000Y-75340000D03*
X182882000Y-78690000D03*
%TO.N,/EPS Power Distribution/5V_BUS*%
X164282000Y-117190000D03*
X163832000Y-109690000D03*
%TO.N,/EPS Control Unit/EPS_LED*%
X178882000Y-85890000D03*
D54*
X173382000Y-82090001D03*
D55*
X190382000Y-87090000D03*
X192182000Y-87090000D03*
%TO.N,/5V_ADCS*%
X188082000Y-87515000D03*
X169282000Y-62290000D03*
%TO.N,/UART1_CTS*%
X159392000Y-85360000D03*
%TO.N,5V_EPS*%
X151982000Y-70990000D03*
X148382000Y-72890000D03*
D54*
X192982000Y-85790000D03*
D55*
X191382000Y-107040000D03*
X162182000Y-70590000D03*
X149782000Y-71490000D03*
X167982000Y-100440000D03*
D54*
X196782000Y-101640000D03*
D55*
X162282000Y-64390000D03*
X162282000Y-61140000D03*
X155732000Y-70940000D03*
%TO.N,/UART1_RTS*%
X156182000Y-82790000D03*
%TO.N,/5V_PAY*%
X160882000Y-64690000D03*
X160882000Y-61090000D03*
%TO.N,/I2C1_SCL*%
X174982000Y-84675000D03*
X158192000Y-88360000D03*
%TO.N,/12V_ADCS*%
X167682000Y-60390000D03*
D54*
X184582000Y-63090000D03*
X174982000Y-60990000D03*
D55*
X186457000Y-64590000D03*
%TO.N,/5V_OBC*%
X170915764Y-75887293D03*
X164282000Y-61090000D03*
D54*
X173982246Y-61690000D03*
X175482000Y-64690000D03*
D55*
%TO.N,/ANT_DEPLOY*%
X139082000Y-63590000D03*
D54*
X139681962Y-67277827D03*
X141752711Y-69350661D03*
D55*
X161515000Y-87390000D03*
D54*
%TO.N,/ANT_DEPLOY_STATUS*%
X141582000Y-65690000D03*
D55*
X141482000Y-61090000D03*
D54*
X143632000Y-67740000D03*
D55*
X161882000Y-86290000D03*
%TO.N,/SWDIO*%
X165432000Y-83590000D03*
%TO.N,/RESET_ADC*%
X183982000Y-69990000D03*
X179273611Y-92666157D03*
X184641998Y-81265000D03*
X182482000Y-92490000D03*
%TO.N,/EPS Control Unit/PMOS2_GATE*%
X173782000Y-65390000D03*
X170582000Y-62190000D03*
D54*
%TO.N,Net-(Q2-D)*%
X159682000Y-64190000D03*
X167082000Y-62090000D03*
D55*
%TO.N,/EPS Control Unit/CAN_SW_A*%
X136582000Y-75890000D03*
X139882000Y-82490000D03*
X137882000Y-77090000D03*
X143132000Y-87910000D03*
X139782000Y-80190000D03*
X166882000Y-93540000D03*
%TO.N,/EPS Control Unit/SW_BOOT0*%
X146682000Y-96690000D03*
X147194500Y-93452500D03*
%TO.N,/EPS Control Unit/CAN_SW_B*%
X168282000Y-94290000D03*
X174828293Y-82896955D03*
X176430959Y-65541041D03*
X170782000Y-93590000D03*
X177036999Y-91090000D03*
X178207000Y-64490000D03*
D54*
%TO.N,/FLT_3V3_ADCS*%
X165982000Y-79765000D03*
X141132000Y-90890000D03*
%TO.N,/FLT_3V3_ANT*%
X159004702Y-94512702D03*
X171616873Y-84815000D03*
D55*
X127382000Y-102990000D03*
D54*
X123182000Y-97190000D03*
X165382000Y-91870000D03*
%TO.N,/FLT_3V3_EPS*%
X135486999Y-95090000D03*
X139382000Y-91090000D03*
X165507000Y-82642963D03*
X133582000Y-96890000D03*
D55*
X137907000Y-103515000D03*
%TO.N,/FLT_5V_PAY*%
X171282000Y-76890000D03*
X156832000Y-85640000D03*
D54*
%TO.N,/FLT_5V_EPS*%
X172182000Y-75990000D03*
D55*
X167337002Y-98740000D03*
D54*
X165217000Y-97390000D03*
%TO.N,/FLT_5V_OBC*%
X167207000Y-81081452D03*
D55*
%TO.N,/FLT_5V_ADCS*%
X188982000Y-89156637D03*
%TO.N,/EPS Power Distribution/ILM_3V3_ADCS*%
X173282003Y-79265000D03*
X142982000Y-93040000D03*
%TO.N,/EPS Power Distribution/ILM_3V3_ANT*%
X172282000Y-79265000D03*
X123282000Y-94390000D03*
D54*
%TO.N,/FLT_5V_COMM*%
X170981445Y-83224978D03*
X183982000Y-97490000D03*
X172782000Y-91690000D03*
D55*
%TO.N,/FLT_12V_ADCS*%
X196236999Y-109565000D03*
X194182000Y-109490000D03*
D54*
X174366804Y-79263892D03*
D55*
%TO.N,/EPS Power Distribution/ILM_3V3_EPS*%
X133582000Y-95490000D03*
X180782000Y-84690000D03*
%TO.N,/EPS Power Distribution/ILM_5V_PAY*%
X151932000Y-94144259D03*
X181182000Y-93990000D03*
%TO.N,/EPS Power Distribution/ILM_5V_EPS*%
X163182000Y-95490000D03*
X182032000Y-85990000D03*
%TO.N,/EPS Power Distribution/ILM_5V_OBC*%
X172986017Y-76694017D03*
X174332000Y-91515000D03*
%TO.N,/EPS Power Distribution/ILM_5V_ADCS*%
X186482000Y-88890000D03*
X177982000Y-79536216D03*
%TO.N,/EPS Power Distribution/ILM_12V_ADCS*%
X183851932Y-73295068D03*
X186582000Y-76390000D03*
%TO.N,/EPS Control Unit/CAN_TX*%
X154532000Y-70050000D03*
X152882000Y-70000000D03*
X161101285Y-84085928D03*
X157422000Y-70090000D03*
%TO.N,/EN_5V_COMM*%
X168582000Y-90490000D03*
X166907000Y-83590000D03*
D54*
X180282000Y-99490000D03*
D55*
X184082000Y-107490000D03*
D54*
X180282000Y-97890000D03*
%TO.N,/EN_3V3_ADCS*%
X165982000Y-80665003D03*
X141076975Y-86395025D03*
D55*
%TO.N,/STATUS_5V*%
X164832000Y-120090000D03*
X159352000Y-77615000D03*
X138007000Y-98215000D03*
X144307000Y-74740000D03*
D54*
%TO.N,/EN_12V_ADCS*%
X177786999Y-106390000D03*
D55*
X194132000Y-119940000D03*
X171182000Y-79580000D03*
%TO.N,/EN_5V_PAY*%
X164982000Y-77815000D03*
X155901669Y-84670331D03*
%TO.N,/SPI_MOSI*%
X164682000Y-72590000D03*
%TO.N,/RDY_ADC*%
X163032000Y-72390000D03*
D54*
%TO.N,/EN_5V_ADCS*%
X182382000Y-87790000D03*
X189182000Y-98990000D03*
X184582000Y-94290000D03*
X172314992Y-81659387D03*
X179332000Y-87590000D03*
D55*
%TO.N,/EN_5V_OBC*%
X166493903Y-82042859D03*
%TO.N,/STATUS_3V3*%
X136482000Y-121590000D03*
X146251669Y-75020331D03*
X148982000Y-110390000D03*
X151782000Y-73790000D03*
X159282000Y-69990000D03*
X149482000Y-98515000D03*
X146682000Y-112490000D03*
X151633041Y-90340000D03*
X153543182Y-90128818D03*
%TO.N,/SPI_MISO*%
X163882000Y-71752431D03*
%TO.N,/EPS Control Unit/WDI*%
X158278384Y-80015725D03*
X150852000Y-75870000D03*
D54*
%TO.N,/EN_3V3_ANT*%
X127082000Y-84890000D03*
X170682000Y-84540000D03*
D55*
X121982000Y-107290000D03*
D54*
X159402000Y-78955407D03*
X161782000Y-82690000D03*
D55*
%TO.N,/SHDN_12V*%
X185157000Y-124365000D03*
X162657000Y-76790000D03*
X155132000Y-79615000D03*
X175982000Y-111590000D03*
%TO.N,/EN_5V_EPS*%
X164126975Y-107245025D03*
X162582000Y-80990000D03*
X161082000Y-93390000D03*
%TO.N,/SPI_SCLK*%
X170682000Y-74915000D03*
%TO.N,/SPI_CS*%
X163787000Y-76795000D03*
%TO.N,/SWCLK*%
X165532000Y-81501664D03*
%TO.N,/VBUS*%
X125057000Y-126315000D03*
X119407000Y-80515000D03*
X118182000Y-107890000D03*
X118057000Y-119865000D03*
X119007000Y-125265000D03*
X118132000Y-77040000D03*
X118882000Y-115040000D03*
X122107000Y-126115000D03*
X117982000Y-99140000D03*
X118232000Y-90590000D03*
X119507000Y-85340000D03*
X119057000Y-111715000D03*
%TO.N,/I2C1_SDA*%
X176075403Y-85489871D03*
D54*
X159665000Y-88410000D03*
%TD*%
D56*
%TO.N,+3.3VA*%
X177151082Y-75790000D02*
X177764039Y-76402957D01*
X177636765Y-81142683D02*
X175769435Y-79275353D01*
X176730528Y-75790000D02*
X177151082Y-75790000D01*
X175769435Y-79275353D02*
X175769435Y-76751093D01*
X175769435Y-76751093D02*
X176730528Y-75790000D01*
X177636765Y-81744765D02*
X177636765Y-81142683D01*
%TO.N,3V3_EPS*%
X198882000Y-111215000D02*
X199207220Y-110889780D01*
X151882000Y-61990000D02*
X165182000Y-61990000D01*
X134686999Y-78590000D02*
X134686999Y-91590000D01*
X139282000Y-76190000D02*
X138132000Y-75040000D01*
X165632000Y-61540000D02*
X165632000Y-58960000D01*
X178736765Y-83035235D02*
X177582000Y-84190000D01*
X134286999Y-76890000D02*
X134586999Y-76590000D01*
X190332000Y-99765000D02*
X190332000Y-99890000D01*
X133682000Y-76890000D02*
X129962000Y-76890000D01*
X136408470Y-89613530D02*
X136663469Y-89613530D01*
X151679918Y-71890000D02*
X151132000Y-71342082D01*
X134686999Y-91590000D02*
X134686999Y-98115000D01*
X194422000Y-72550000D02*
X193365363Y-73606637D01*
X154682000Y-71890000D02*
X151679918Y-71890000D01*
X199207220Y-110889780D02*
X199207220Y-109614780D01*
X165632000Y-56420000D02*
X165632000Y-58960000D01*
X170757000Y-90215000D02*
X170382000Y-90590000D01*
X143157000Y-89290000D02*
X142017659Y-88150659D01*
D57*
X178357000Y-84965000D02*
X179207000Y-84965000D01*
D56*
X200057000Y-74175000D02*
X201682000Y-72550000D01*
X186307000Y-94715000D02*
X187169500Y-93852500D01*
X133682000Y-76890000D02*
X134286999Y-76890000D01*
X152182000Y-61990000D02*
X151882000Y-61990000D01*
X134686999Y-75685001D02*
X134686999Y-77290000D01*
X186307000Y-95465000D02*
X186307000Y-94715000D01*
X134586999Y-76590000D02*
X134686999Y-76590000D01*
X135332000Y-75040000D02*
X134686999Y-75685001D01*
X169932000Y-97215000D02*
X169932000Y-91040000D01*
D57*
X171482000Y-71090000D02*
X171633992Y-70938008D01*
D56*
X134686999Y-76590000D02*
X134686999Y-73785001D01*
X134686999Y-91590000D02*
X134686999Y-91335001D01*
X134286999Y-76890000D02*
X134686999Y-77290000D01*
X136663469Y-88558531D02*
X136663469Y-89613530D01*
X197182000Y-111215000D02*
X198882000Y-111215000D01*
X153182000Y-60990000D02*
X152182000Y-61990000D01*
D57*
X173669043Y-72307961D02*
X172299090Y-70938008D01*
D56*
X134686999Y-98115000D02*
X135786999Y-97015000D01*
X136332000Y-99865000D02*
X136382000Y-99815000D01*
X198642001Y-59550001D02*
X196632000Y-59550001D01*
X199682000Y-70550000D02*
X199682000Y-60590000D01*
X201550629Y-84590000D02*
X200057000Y-83096371D01*
D57*
X171633992Y-70938008D02*
X170533992Y-69838008D01*
D56*
X134686999Y-98115000D02*
X134686999Y-99865000D01*
X134686999Y-76590000D02*
X134686999Y-78590000D01*
X138357000Y-86865000D02*
X136663469Y-88558531D01*
X201550629Y-107271371D02*
X201550629Y-84590000D01*
X170857000Y-98140000D02*
X169932000Y-97215000D01*
D57*
X177582000Y-84190000D02*
X178357000Y-84965000D01*
D56*
X182882000Y-64390000D02*
X181182000Y-66090000D01*
X201682000Y-72550000D02*
X199682000Y-70550000D01*
X169932000Y-91040000D02*
X170382000Y-90590000D01*
D57*
X179207000Y-84965000D02*
X179282000Y-84890000D01*
D56*
X139307000Y-86865000D02*
X138357000Y-86865000D01*
D57*
X170082000Y-71090000D02*
X171482000Y-71090000D01*
D56*
X134686999Y-99865000D02*
X136332000Y-99865000D01*
X201682000Y-72550000D02*
X194422000Y-72550000D01*
X199682000Y-60590000D02*
X198642001Y-59550001D01*
X170857000Y-98140000D02*
X170857000Y-98215000D01*
X199207220Y-109614780D02*
X201550629Y-107271371D01*
X153807000Y-93365000D02*
X156482000Y-96040000D01*
X200057000Y-83096371D02*
X200057000Y-74175000D01*
X182982000Y-64390000D02*
X182882000Y-64390000D01*
X151132000Y-66040000D02*
X152882000Y-64290000D01*
X146482000Y-61990000D02*
X151882000Y-61990000D01*
X134686999Y-77290000D02*
X134686999Y-78590000D01*
X143148726Y-89298274D02*
X143157000Y-89290000D01*
X173332000Y-90215000D02*
X170757000Y-90215000D01*
X143148726Y-90473274D02*
X143148726Y-89298274D01*
X136663469Y-89613530D02*
X138958472Y-89613530D01*
X138132000Y-75040000D02*
X135332000Y-75040000D01*
X134686999Y-91335001D02*
X136408470Y-89613530D01*
X156482000Y-96040000D02*
X156482000Y-97090000D01*
D57*
X172299090Y-70938008D02*
X171633992Y-70938008D01*
D56*
X142017659Y-88150659D02*
X140782000Y-88150659D01*
X165182000Y-61990000D02*
X165632000Y-61540000D01*
X178927235Y-83035235D02*
X178736765Y-83035235D01*
X151132000Y-71342082D02*
X151132000Y-66040000D01*
X170857000Y-98215000D02*
X169932000Y-99140000D01*
X190332000Y-99890000D02*
X188232000Y-101990000D01*
X134686999Y-73785001D02*
X146482000Y-61990000D01*
X135786999Y-97015000D02*
X136332000Y-97015000D01*
D57*
%TO.N,GND*%
X120357001Y-96190000D02*
X120357001Y-95089999D01*
D56*
X178259015Y-75907982D02*
X178259014Y-75907982D01*
D57*
X174118056Y-71858948D02*
X172730008Y-70470900D01*
X178857000Y-69234082D02*
X177799961Y-68177043D01*
D56*
X121457452Y-103755000D02*
X121832001Y-103380451D01*
D57*
X171432000Y-67440000D02*
X170332000Y-67440000D01*
X170332000Y-67443984D02*
X172730008Y-69841992D01*
D56*
X121167000Y-103755000D02*
X121457452Y-103755000D01*
X121457452Y-101125000D02*
X121832001Y-101499549D01*
D57*
X171703831Y-67711831D02*
X171432000Y-67440000D01*
X169189968Y-74190000D02*
X169282000Y-74190000D01*
D56*
X120577001Y-96410000D02*
X120357001Y-96190000D01*
D57*
X150857000Y-96690000D02*
X150707000Y-96840000D01*
X181889039Y-72272039D02*
X181894957Y-72272039D01*
D56*
X178332000Y-49040000D02*
X178332000Y-51340000D01*
X146782000Y-101465000D02*
X146782000Y-102990000D01*
D57*
X171957000Y-96590000D02*
X171832000Y-96465000D01*
D56*
X120577001Y-99565000D02*
X120577001Y-96410000D01*
D57*
X178857000Y-69390000D02*
X178857000Y-69234082D01*
X188382000Y-97590000D02*
X187882000Y-97090000D01*
X180744500Y-71127500D02*
X181889039Y-72272039D01*
X172730008Y-70470900D02*
X172730008Y-69841992D01*
D56*
X192150837Y-77078074D02*
X192150837Y-79058837D01*
D57*
X171832000Y-96465000D02*
X170882000Y-96465000D01*
X167982000Y-96390000D02*
X168007000Y-96365000D01*
D56*
X121167000Y-101125000D02*
X121457452Y-101125000D01*
D57*
X167982000Y-97965000D02*
X167982000Y-96390000D01*
X178632000Y-96390000D02*
X177482000Y-96390000D01*
D56*
X136382000Y-101365000D02*
X136382000Y-102790000D01*
D57*
X173841291Y-80338008D02*
X174632000Y-80338008D01*
D56*
X177732000Y-48440000D02*
X178332000Y-49040000D01*
X141277001Y-96410001D02*
X141257000Y-96390000D01*
D57*
X178956446Y-77586216D02*
X179364588Y-77178074D01*
D58*
X180989968Y-78090000D02*
X179985984Y-77086016D01*
D56*
X130877001Y-99865000D02*
X130877001Y-96560000D01*
D57*
X179850837Y-76657782D02*
X178680026Y-75486971D01*
X161557000Y-96790000D02*
X161507000Y-96790000D01*
X122482000Y-102440000D02*
X124372000Y-102439998D01*
X151807000Y-96690000D02*
X150857000Y-96690000D01*
X180450481Y-96690000D02*
X179250481Y-97890000D01*
D56*
X120577001Y-105315000D02*
X120577001Y-104344999D01*
X141277001Y-99965000D02*
X141277001Y-96410001D01*
D57*
X198357000Y-90090000D02*
X198357000Y-90565000D01*
X190198637Y-91798363D02*
X189707000Y-92290000D01*
X187882000Y-97090000D02*
X187032000Y-97090000D01*
X120357001Y-95089999D02*
X120782000Y-94665000D01*
X181257000Y-96690000D02*
X180450481Y-96690000D01*
D56*
X121832001Y-103380451D02*
X121817000Y-103365451D01*
D57*
X179850837Y-77178074D02*
X179850837Y-76657782D01*
X190198637Y-91073363D02*
X190198637Y-91798363D01*
D56*
X197182000Y-113940000D02*
X197182000Y-115190000D01*
X178680026Y-75486971D02*
X178259015Y-75907982D01*
D57*
X198357000Y-90565000D02*
X199082000Y-91290000D01*
X169578016Y-68193984D02*
X170332000Y-67440000D01*
D58*
X181082000Y-78090000D02*
X180989968Y-78090000D01*
D57*
X161507000Y-96790000D02*
X160482000Y-97815000D01*
D56*
X130877001Y-96560000D02*
X130657000Y-96339999D01*
D57*
X170332000Y-67440000D02*
X170332000Y-67443984D01*
D56*
X121832001Y-101499549D02*
X121817000Y-101514549D01*
X120577001Y-104344999D02*
X121167000Y-103755000D01*
D57*
X179364588Y-77178074D02*
X179850837Y-77178074D01*
X124372000Y-102439998D02*
X124447000Y-102364998D01*
D56*
X120577001Y-100535001D02*
X121167000Y-101125000D01*
X176319500Y-48440000D02*
X177732000Y-48440000D01*
X120577001Y-99565000D02*
X120577001Y-100535001D01*
D57*
X167648484Y-72648516D02*
X169189968Y-74190000D01*
D56*
X192150837Y-79058837D02*
X195282000Y-82190000D01*
D57*
X166385984Y-71386016D02*
X167648484Y-72648516D01*
X173339299Y-80840000D02*
X173841291Y-80338008D01*
D56*
X157682000Y-101190000D02*
X157682000Y-102790000D01*
X126082000Y-101165000D02*
X126082000Y-102690000D01*
D57*
%TO.N,/EPS Power Distribution/CLK_IN_ADC*%
X169882000Y-72690000D02*
X167482000Y-70290000D01*
X172753057Y-73223947D02*
X172753057Y-73161057D01*
X172219110Y-72690000D02*
X169882000Y-72690000D01*
X167482000Y-70290000D02*
X167482000Y-69090000D01*
X167482000Y-70290000D02*
X167214234Y-70290000D01*
X166382000Y-68690000D02*
X165998117Y-69073883D01*
X172753057Y-73223947D02*
X172219110Y-72690000D01*
X167082000Y-68690000D02*
X166382000Y-68690000D01*
X167482000Y-69090000D02*
X167082000Y-68690000D01*
%TO.N,/EPS Power Distribution/CLK_OUT_ADC*%
X168482000Y-69290000D02*
X167582000Y-68390000D01*
X167582000Y-67490000D02*
X167765883Y-67306117D01*
X167582000Y-68390000D02*
X167582000Y-67490000D01*
X172617135Y-72190000D02*
X170182000Y-72190000D01*
X168482000Y-70490000D02*
X168482000Y-69290000D01*
X170182000Y-72190000D02*
X168482000Y-70490000D01*
X173202069Y-72774934D02*
X172617135Y-72190000D01*
%TO.N,Net-(U11-BYP)*%
X182357000Y-123065000D02*
X182832000Y-123540000D01*
X181012000Y-123065000D02*
X182357000Y-123065000D01*
%TO.N,Net-(U11-COMP)*%
X186782000Y-127065000D02*
X186782000Y-128165000D01*
X186782000Y-128165000D02*
X187207000Y-128590000D01*
X186782000Y-127065000D02*
X186782000Y-125694999D01*
X186782000Y-125694999D02*
X186752000Y-125664999D01*
%TO.N,Net-(C27-Pad2)*%
X187207000Y-130240000D02*
X185682000Y-130240000D01*
X185682000Y-130240000D02*
X185632000Y-130190000D01*
%TO.N,Net-(U11-SS)*%
X182707001Y-124365001D02*
X182882000Y-124540000D01*
X181012000Y-124365001D02*
X182707001Y-124365001D01*
D56*
%TO.N,/EPS Power Distribution/12V_BUS*%
X190532000Y-123140000D02*
X191532002Y-122139998D01*
X190532000Y-124140000D02*
X190532000Y-123140000D01*
X191532002Y-122139998D02*
X193532000Y-122139998D01*
D57*
%TO.N,/EPS Power Distribution/3.3V_BUS*%
X134482000Y-117290000D02*
X134482000Y-116513510D01*
X135205510Y-115790000D02*
X135382000Y-115790000D01*
X134482000Y-116513510D02*
X135205510Y-115790000D01*
D58*
%TO.N,/EPS Power Distribution/1.25VREF*%
X193070074Y-76158837D02*
X193070074Y-75644800D01*
D56*
X182882000Y-78690000D02*
X182882000Y-77697968D01*
D58*
X182178016Y-76993984D02*
X182085984Y-76993984D01*
X193070074Y-75644800D02*
X192198637Y-74773363D01*
D56*
X189998637Y-74773363D02*
X192198637Y-74773363D01*
X182882000Y-77697968D02*
X182178016Y-76993984D01*
D57*
X179146999Y-75019998D02*
X180385838Y-76258837D01*
D56*
X189432000Y-75340000D02*
X189998637Y-74773363D01*
D57*
X180385838Y-76258837D02*
X180770074Y-76258837D01*
D58*
X182085984Y-76993984D02*
X181082000Y-75990000D01*
D57*
%TO.N,/EPS Power Distribution/INTVCC_3V3*%
X133832000Y-117290000D02*
X133832000Y-115515000D01*
X135382000Y-114390000D02*
X136882000Y-114390000D01*
X133832000Y-115515000D02*
X133882000Y-115465000D01*
X133882000Y-115465000D02*
X134307000Y-115465000D01*
X134307000Y-115465000D02*
X135382000Y-114390000D01*
D59*
%TO.N,/EPS Power Distribution/MODE_3V3*%
X134432000Y-114640000D02*
X136082000Y-112990000D01*
X136082000Y-112990000D02*
X137582000Y-112990000D01*
X138182000Y-113590000D02*
X138182000Y-114390000D01*
X137582000Y-112990000D02*
X138182000Y-113590000D01*
X133482000Y-114640000D02*
X134432000Y-114640000D01*
X133132000Y-117240000D02*
X133132000Y-114990000D01*
X133182000Y-117290000D02*
X133132000Y-117240000D01*
X133132000Y-114990000D02*
X133482000Y-114640000D01*
D58*
%TO.N,/EPS Power Distribution/5V_BUS*%
X164261000Y-117169000D02*
X164282000Y-117190000D01*
X163182000Y-117169000D02*
X164261000Y-117169000D01*
%TO.N,/EPS Power Distribution/INTVCC_5V*%
X162682000Y-115765000D02*
X164707000Y-115765000D01*
X162681999Y-117169000D02*
X162681999Y-115765001D01*
X164707000Y-115765000D02*
X165082000Y-115390000D01*
X162681999Y-115765001D02*
X162682000Y-115765000D01*
%TO.N,/EPS Power Distribution/MODE_5V*%
X162181999Y-117169000D02*
X162181999Y-116524051D01*
X166382000Y-114740000D02*
X166382000Y-115390000D01*
X165952000Y-114310000D02*
X166382000Y-114740000D01*
X163252767Y-114990000D02*
X163932767Y-114310000D01*
X161882000Y-115305948D02*
X162197948Y-114990000D01*
X163932767Y-114310000D02*
X165952000Y-114310000D01*
X162181999Y-116524051D02*
X161882000Y-116224052D01*
X161882000Y-116224052D02*
X161882000Y-115305948D01*
X162197948Y-114990000D02*
X163252767Y-114990000D01*
D56*
%TO.N,/5V_ADCS*%
X188082000Y-87515000D02*
X188657000Y-88090000D01*
X169307000Y-62265000D02*
X169307000Y-56219867D01*
X194807000Y-88090000D02*
X196807000Y-90090000D01*
X170436867Y-55090000D02*
X172042000Y-55090000D01*
X172042000Y-55090000D02*
X173252000Y-53880000D01*
X173252000Y-49632500D02*
X174444500Y-48440000D01*
X173252000Y-51340000D02*
X173252000Y-49632500D01*
X169307000Y-56219867D02*
X170436867Y-55090000D01*
X173252000Y-51340000D02*
X173252000Y-53880000D01*
X169282000Y-62290000D02*
X169307000Y-62265000D01*
X196807000Y-90090000D02*
X196686999Y-90210001D01*
X196686999Y-90210001D02*
X196686999Y-92465000D01*
X188657000Y-88090000D02*
X194807000Y-88090000D01*
%TO.N,5V_EPS*%
X192982000Y-85085000D02*
X187792000Y-79895000D01*
X162182000Y-70590000D02*
X162182000Y-64490000D01*
X162182000Y-64490000D02*
X162282000Y-64390000D01*
X162282000Y-61140000D02*
X162282000Y-59770000D01*
X167307000Y-99765000D02*
X167982000Y-100440000D01*
X166487000Y-99765000D02*
X166487000Y-94347082D01*
X166487000Y-99765000D02*
X167307000Y-99765000D01*
X192982000Y-85790000D02*
X192982000Y-85085000D01*
X163092000Y-56420000D02*
X163092000Y-58960000D01*
X166487000Y-94347082D02*
X164132000Y-91992082D01*
X162282000Y-59770000D02*
X163092000Y-58960000D01*
X196782000Y-101640000D02*
X191382000Y-107040000D01*
X164132000Y-80347968D02*
X161757000Y-77972968D01*
X161757000Y-77972968D02*
X161757000Y-71015000D01*
X164132000Y-91992082D02*
X164132000Y-80347968D01*
X161757000Y-71015000D02*
X162182000Y-70590000D01*
%TO.N,/5V_COMM*%
X185491998Y-99440000D02*
X185491998Y-59420002D01*
X185491998Y-59420002D02*
X185952000Y-58960000D01*
X185952000Y-58960000D02*
X188492000Y-58960000D01*
%TO.N,/3V3_ADCS*%
X140482000Y-83092082D02*
X140732000Y-82842082D01*
X174657000Y-55015000D02*
X175792000Y-53880000D01*
X174657000Y-59715000D02*
X174657000Y-55015000D01*
X145086999Y-99965000D02*
X145086999Y-96385001D01*
X146657000Y-63315000D02*
X171057000Y-63315000D01*
X145682000Y-95790000D02*
X145682000Y-88942082D01*
X140732000Y-82842082D02*
X140732000Y-79937918D01*
X145086999Y-99965000D02*
X146732000Y-99965000D01*
X140482000Y-79687918D02*
X140482000Y-69490000D01*
X140482000Y-83742082D02*
X140482000Y-83092082D01*
X145682000Y-88942082D02*
X140482000Y-83742082D01*
X145086999Y-96385001D02*
X145682000Y-95790000D01*
X140482000Y-69490000D02*
X146657000Y-63315000D01*
X171057000Y-63315000D02*
X174657000Y-59715000D01*
X146732000Y-99965000D02*
X146782000Y-99915000D01*
X175792000Y-51340000D02*
X175792000Y-53880000D01*
X140732000Y-79937918D02*
X140482000Y-79687918D01*
%TO.N,/3V3_ANT*%
X134017000Y-55015000D02*
X134017000Y-54290000D01*
X135152000Y-53880000D02*
X134382000Y-53880000D01*
X134017000Y-54290000D02*
X134017000Y-54245000D01*
X124386999Y-99565000D02*
X124386999Y-69285001D01*
X134017000Y-59655000D02*
X134017000Y-55015000D01*
X133582000Y-53880000D02*
X133607000Y-53880000D01*
X133582000Y-53880000D02*
X132612000Y-53880000D01*
X134017000Y-54290000D02*
X134017000Y-53915000D01*
X134017000Y-53915000D02*
X133982000Y-53880000D01*
X134017000Y-54245000D02*
X134382000Y-53880000D01*
X124386999Y-69285001D02*
X134017000Y-59655000D01*
X124386999Y-99565000D02*
X126032000Y-99565000D01*
X126032000Y-99565000D02*
X126082000Y-99615000D01*
X133982000Y-53880000D02*
X133582000Y-53880000D01*
X133607000Y-53880000D02*
X134017000Y-54290000D01*
X134382000Y-53880000D02*
X133982000Y-53880000D01*
%TO.N,/5V_PAY*%
X156482000Y-98290000D02*
X157384082Y-98290000D01*
X156086999Y-99764999D02*
X156086999Y-98685001D01*
X156086999Y-98685001D02*
X156482000Y-98290000D01*
X163432000Y-92242082D02*
X163432000Y-80637918D01*
X159147000Y-59355000D02*
X159147000Y-55015000D01*
X163432000Y-80637918D02*
X160882000Y-78087918D01*
X157557001Y-99764999D02*
X157682000Y-99640000D01*
X158012000Y-51340000D02*
X158012000Y-53880000D01*
X157384082Y-98290000D02*
X163432000Y-92242082D01*
X160882000Y-78087918D02*
X160882000Y-64690000D01*
X159147000Y-55015000D02*
X158012000Y-53880000D01*
X160882000Y-61090000D02*
X159147000Y-59355000D01*
X156086999Y-99764999D02*
X157557001Y-99764999D01*
%TO.N,/12V_ADCS*%
X197156999Y-112364999D02*
X197182000Y-112390000D01*
X167682000Y-60390000D02*
X166882000Y-59590000D01*
X166882000Y-55130000D02*
X165632000Y-53880000D01*
X195386999Y-108285001D02*
X195386999Y-112364999D01*
X200182000Y-88390000D02*
X200182000Y-103490000D01*
X165632000Y-51340000D02*
X165632000Y-53880000D01*
X186457000Y-74665000D02*
X200182000Y-88390000D01*
X174982000Y-60990000D02*
X182482000Y-60990000D01*
X182482000Y-60990000D02*
X184582000Y-63090000D01*
X200182000Y-103490000D02*
X195386999Y-108285001D01*
X195386999Y-112364999D02*
X197156999Y-112364999D01*
X186457000Y-64590000D02*
X186457000Y-74665000D01*
X166882000Y-59590000D02*
X166882000Y-55130000D01*
%TO.N,/5V_OBC*%
X176186999Y-96390000D02*
X176186999Y-99665000D01*
X163092000Y-51340000D02*
X163092000Y-53880000D01*
X173982246Y-63190246D02*
X175482000Y-64690000D01*
X170332000Y-81444163D02*
X172908523Y-84020686D01*
D57*
X175932000Y-96390000D02*
X176186999Y-96390000D01*
D56*
X164282000Y-55070000D02*
X163092000Y-53880000D01*
X172908523Y-84020686D02*
X172908523Y-84629695D01*
X170332000Y-76471057D02*
X170332000Y-81444163D01*
X176186999Y-87908171D02*
X176186999Y-96390000D01*
X172908523Y-84629695D02*
X176186999Y-87908171D01*
X164282000Y-61090000D02*
X164282000Y-55070000D01*
X170915764Y-75887293D02*
X170332000Y-76471057D01*
X173982246Y-61690000D02*
X173982246Y-63190246D01*
D57*
%TO.N,/ANT_DEPLOY*%
X161282000Y-87390000D02*
X161515000Y-87390000D01*
X158682000Y-86390000D02*
X160282000Y-86390000D01*
X139082000Y-66790000D02*
X139569827Y-67277827D01*
X139569827Y-67277827D02*
X139681962Y-67277827D01*
X141752711Y-69460711D02*
X158682000Y-86390000D01*
X141752711Y-69350661D02*
X141752711Y-69460711D01*
X160282000Y-86390000D02*
X161282000Y-87390000D01*
X139082000Y-66790000D02*
X139082000Y-63590000D01*
%TO.N,/ANT_DEPLOY_STATUS*%
X159482000Y-83890000D02*
X161882000Y-86290000D01*
X141482000Y-64890000D02*
X141482000Y-65590000D01*
X141482000Y-65590000D02*
X141582000Y-65690000D01*
X148071339Y-72140000D02*
X148732000Y-72140000D01*
X159482000Y-82890000D02*
X159482000Y-83890000D01*
X148732000Y-72140000D02*
X159482000Y-82890000D01*
X148051670Y-72159670D02*
X148071339Y-72140000D01*
X141482000Y-64890000D02*
X141482000Y-61090000D01*
X143632000Y-67740000D02*
X148051670Y-72159670D01*
%TO.N,/RESET_ADC*%
X182101239Y-67009239D02*
X182101239Y-68109239D01*
X184641998Y-81265000D02*
X184582000Y-81324998D01*
X176883974Y-69093029D02*
X176372330Y-68581385D01*
X176372330Y-67799670D02*
X179001239Y-65170761D01*
X179001239Y-65170761D02*
X180262761Y-65170761D01*
X184582000Y-90390000D02*
X182482000Y-92490000D01*
X176372330Y-68581385D02*
X176372330Y-67799670D01*
X182101239Y-68109239D02*
X183982000Y-69990000D01*
X184582000Y-81324998D02*
X184582000Y-90390000D01*
%TO.N,/EPS Control Unit/CAN_SW_B*%
X177482000Y-64490000D02*
X176430959Y-65541041D01*
X178207000Y-64490000D02*
X177482000Y-64490000D01*
D58*
%TO.N,/FLT_3V3_ADCS*%
X141132000Y-90890000D02*
X142132000Y-91890000D01*
X144382000Y-92640000D02*
X144382000Y-99400000D01*
X142132000Y-91890000D02*
X143632000Y-91890000D01*
X143632000Y-91890000D02*
X144382000Y-92640000D01*
X144382000Y-99400000D02*
X143817000Y-99965000D01*
%TO.N,/FLT_3V3_ANT*%
X123182000Y-99500000D02*
X123117000Y-99565000D01*
X123182000Y-97190000D02*
X123182000Y-99500000D01*
D57*
X127382000Y-103040000D02*
X126282000Y-104140000D01*
X127382000Y-102990000D02*
X127382000Y-103040000D01*
%TO.N,/FLT_3V3_EPS*%
X137907000Y-103515000D02*
X137732000Y-103515000D01*
D58*
X135486999Y-94710001D02*
X135486999Y-95090000D01*
X133417000Y-99865000D02*
X133417000Y-97055000D01*
D57*
X137732000Y-103515000D02*
X136782000Y-104465000D01*
D58*
X139382000Y-91090000D02*
X139107000Y-91090000D01*
X133417000Y-97055000D02*
X133582000Y-96890000D01*
X139107000Y-91090000D02*
X135486999Y-94710001D01*
D57*
%TO.N,/FLT_5V_PAY*%
X156832000Y-85640000D02*
X154817000Y-87655000D01*
X154832000Y-99749999D02*
X154817000Y-99764999D01*
X153057000Y-92579920D02*
X153057000Y-94840000D01*
X154817000Y-87655000D02*
X154817000Y-90819920D01*
X154832000Y-97090000D02*
X154832000Y-99749999D01*
X154817000Y-90819920D02*
X153057000Y-92579920D01*
X154832000Y-96615000D02*
X154832000Y-97090000D01*
X153057000Y-94840000D02*
X154832000Y-96615000D01*
D58*
%TO.N,/FLT_5V_EPS*%
X168282000Y-99140000D02*
X167737002Y-99140000D01*
X165217000Y-97390000D02*
X165217000Y-99765000D01*
X167737002Y-99140000D02*
X167337002Y-98740000D01*
%TO.N,/FLT_5V_OBC*%
X175057000Y-99525000D02*
X174917000Y-99665000D01*
X167632000Y-82155651D02*
X167632000Y-83438511D01*
X167632000Y-83438511D02*
X170783489Y-86590000D01*
X175057000Y-87591344D02*
X175057000Y-99525000D01*
X167207000Y-81081452D02*
X167207000Y-81730651D01*
X174055656Y-86590000D02*
X175057000Y-87591344D01*
X167207000Y-81730651D02*
X167632000Y-82155651D01*
X170783489Y-86590000D02*
X174055656Y-86590000D01*
D57*
%TO.N,/FLT_5V_ADCS*%
X193342000Y-88990000D02*
X189148637Y-88990000D01*
X189148637Y-88990000D02*
X188982000Y-89156637D01*
X195417000Y-91065000D02*
X193342000Y-88990000D01*
X195417000Y-92465000D02*
X195417000Y-91065000D01*
%TO.N,/EPS Power Distribution/ILM_3V3_ADCS*%
X142547000Y-99965000D02*
X142547000Y-96750000D01*
X173282003Y-79265000D02*
X173282003Y-78389997D01*
X179066407Y-74041380D02*
X179596012Y-74570985D01*
X142982000Y-93040000D02*
X142982000Y-96315000D01*
X142982000Y-96315000D02*
X142907000Y-96390000D01*
X142547000Y-96750000D02*
X142907000Y-96390000D01*
X173282003Y-78389997D02*
X177630620Y-74041380D01*
X177630620Y-74041380D02*
X179066407Y-74041380D01*
%TO.N,/EPS Power Distribution/ILM_3V3_ANT*%
X177382000Y-73390000D02*
X179348973Y-73390000D01*
X122007001Y-95664999D02*
X123282000Y-94390000D01*
X172282000Y-78490000D02*
X177382000Y-73390000D01*
X179348973Y-73390000D02*
X180062985Y-74104012D01*
X122007001Y-96190000D02*
X122007001Y-95664999D01*
X121847000Y-96350001D02*
X122007001Y-96190000D01*
X121847000Y-99565000D02*
X121847000Y-96350001D01*
X172282000Y-79265000D02*
X172282000Y-78490000D01*
D58*
%TO.N,/FLT_5V_COMM*%
X184221999Y-97729999D02*
X184221999Y-99440000D01*
D57*
X183982000Y-96140000D02*
X184657000Y-95465000D01*
X183982000Y-97490000D02*
X183982000Y-96140000D01*
D58*
X183982000Y-97490000D02*
X184221999Y-97729999D01*
D57*
%TO.N,/FLT_12V_ADCS*%
X194117000Y-112364999D02*
X194117000Y-109555000D01*
X194117000Y-109555000D02*
X194182000Y-109490000D01*
X196236999Y-109565000D02*
X197182000Y-109565000D01*
X197182000Y-109565000D02*
X197507000Y-109890000D01*
%TO.N,Net-(U10-OVCSEL)*%
X152277001Y-99764999D02*
X150807001Y-99764999D01*
X149982000Y-100590000D02*
X149982000Y-101365000D01*
X150807001Y-99764999D02*
X149982000Y-100590000D01*
%TO.N,/EPS Power Distribution/ILM_3V3_EPS*%
X180782000Y-84690000D02*
X180782000Y-81940000D01*
X183682000Y-79040000D02*
X183682000Y-76825001D01*
X132147000Y-99865000D02*
X132147000Y-96499999D01*
X180782000Y-81940000D02*
X183682000Y-79040000D01*
X132147000Y-96499999D02*
X132307000Y-96339999D01*
X132732001Y-96339999D02*
X133582000Y-95490000D01*
X132307000Y-96339999D02*
X132732001Y-96339999D01*
X183682000Y-76825001D02*
X180511998Y-73654999D01*
%TO.N,/EPS Power Distribution/ILM_5V_PAY*%
X151932000Y-94144259D02*
X151932000Y-95015000D01*
X184182000Y-79515000D02*
X181532000Y-82165000D01*
X184182000Y-76391055D02*
X184182000Y-79515000D01*
X181532000Y-85100661D02*
X181182000Y-85450661D01*
X151932000Y-95015000D02*
X153607000Y-96690000D01*
X181182000Y-85450661D02*
X181182000Y-93990000D01*
X181532000Y-82165000D02*
X181532000Y-85100661D01*
X180978971Y-73188026D02*
X184182000Y-76391055D01*
X153547000Y-96750000D02*
X153547000Y-99764999D01*
X153607000Y-96690000D02*
X153547000Y-96750000D01*
D56*
%TO.N,Net-(U12-OVCSEL)*%
X159882000Y-102065000D02*
X159882000Y-100890000D01*
X161007000Y-99765000D02*
X162677000Y-99765000D01*
X159882000Y-100890000D02*
X161007000Y-99765000D01*
%TO.N,Net-(U13-OVCSEL)*%
X170082000Y-101665000D02*
X170082000Y-100590000D01*
X171007000Y-99665000D02*
X172377001Y-99665000D01*
X170082000Y-100590000D02*
X171007000Y-99665000D01*
D57*
%TO.N,/EPS Power Distribution/ILM_5V_EPS*%
X163947000Y-97530000D02*
X163207000Y-96790000D01*
X182032000Y-85990000D02*
X182032000Y-82372106D01*
X184782000Y-76057108D02*
X181445944Y-72721052D01*
X163947000Y-99765000D02*
X163947000Y-97530000D01*
X163207000Y-96790000D02*
X163207000Y-95515000D01*
X182032000Y-82372106D02*
X184782000Y-79622106D01*
X163207000Y-95515000D02*
X163182000Y-95490000D01*
X184782000Y-79622106D02*
X184782000Y-76057108D01*
%TO.N,/EPS Power Distribution/ILM_5V_OBC*%
X172986017Y-76685983D02*
X179807000Y-69865000D01*
X173647000Y-96850000D02*
X173707000Y-96790000D01*
X179807000Y-69865000D02*
X179807000Y-68352110D01*
X179807000Y-68352110D02*
X178715947Y-67261057D01*
X173607000Y-92240000D02*
X173607000Y-96590000D01*
X173647000Y-99665000D02*
X173647000Y-96850000D01*
X172986017Y-76694017D02*
X172986017Y-76685983D01*
X174332000Y-91515000D02*
X173607000Y-92240000D01*
%TO.N,Net-(U16-OVCSEL)*%
X191982000Y-92465000D02*
X190582000Y-93865000D01*
X190582000Y-93865000D02*
X190582000Y-94665000D01*
X192877001Y-92465000D02*
X191982000Y-92465000D01*
%TO.N,/EPS Power Distribution/ILM_5V_ADCS*%
X194147000Y-92465000D02*
X194147000Y-90755000D01*
X177982000Y-79536216D02*
X177982000Y-78452890D01*
X192882000Y-89490000D02*
X191782000Y-89490000D01*
X194147000Y-90755000D02*
X192882000Y-89490000D01*
X191365363Y-89906637D02*
X187498637Y-89906637D01*
X187498637Y-89906637D02*
X186482000Y-88890000D01*
X177982000Y-78452890D02*
X176848053Y-77318943D01*
X191782000Y-89490000D02*
X191365363Y-89906637D01*
%TO.N,/EPS Power Distribution/ILM_5V_COMM*%
X182007000Y-96181642D02*
X181690358Y-95865000D01*
X180032000Y-79722432D02*
X177297066Y-76987498D01*
X182951999Y-99440000D02*
X182951999Y-96734999D01*
X181690358Y-95865000D02*
X181657000Y-95865000D01*
X182482000Y-96690000D02*
X182007000Y-96215000D01*
X182907000Y-96690000D02*
X182482000Y-96690000D01*
X182007000Y-96215000D02*
X182007000Y-96181642D01*
X180032000Y-94240000D02*
X180032000Y-79722432D01*
X181657000Y-95865000D02*
X180032000Y-94240000D01*
X177297066Y-76987498D02*
X177297066Y-76869931D01*
X182951999Y-96734999D02*
X182907000Y-96690000D01*
%TO.N,/EPS Power Distribution/ILM_12V_ADCS*%
X183851932Y-73295067D02*
X182361931Y-71805066D01*
X192847000Y-108950000D02*
X192907000Y-108890000D01*
X192847000Y-112364999D02*
X192847000Y-108950000D01*
X192907000Y-108890000D02*
X197582000Y-104215000D01*
X183851932Y-73295068D02*
X183851932Y-73295067D01*
D58*
X197582000Y-104215000D02*
X197557000Y-104190000D01*
X197557000Y-87415000D02*
X197582000Y-87390000D01*
D57*
X197582000Y-87390000D02*
X186582000Y-76390000D01*
D58*
X197557000Y-104190000D02*
X197557000Y-87415000D01*
%TO.N,/EN_5V_COMM*%
X166632000Y-83865000D02*
X166907000Y-83590000D01*
X166632000Y-86340000D02*
X166632000Y-83865000D01*
X167612305Y-87315000D02*
X167607000Y-87315000D01*
X184221999Y-105190000D02*
X184221999Y-107350001D01*
X184221999Y-107350001D02*
X184082000Y-107490000D01*
X167607000Y-87315000D02*
X166632000Y-86340000D01*
X168037000Y-87739695D02*
X167612305Y-87315000D01*
X168037000Y-89945000D02*
X168037000Y-87739695D01*
X168582000Y-90490000D02*
X168037000Y-89945000D01*
%TO.N,/EN_3V3_ADCS*%
X143817000Y-105715000D02*
X143817000Y-106565000D01*
X140057000Y-91615000D02*
X140057000Y-87415000D01*
X143817000Y-106565000D02*
X142792000Y-107590000D01*
X140382000Y-107590000D02*
X139082000Y-106290000D01*
X139082000Y-106290000D02*
X139082000Y-92590000D01*
X142792000Y-107590000D02*
X140382000Y-107590000D01*
X140057000Y-87415000D02*
X141076975Y-86395025D01*
X139082000Y-92590000D02*
X140057000Y-91615000D01*
D57*
%TO.N,/STATUS_5V*%
X137982000Y-98190000D02*
X138007000Y-98215000D01*
X137982000Y-97015000D02*
X137982000Y-98190000D01*
D58*
X163182000Y-120090000D02*
X164832000Y-120090000D01*
D57*
%TO.N,/EN_12V_ADCS*%
X177786999Y-88694999D02*
X177786999Y-92494999D01*
X194132000Y-119940000D02*
X194117000Y-119925000D01*
X194117000Y-119925000D02*
X194117000Y-118114999D01*
X177786999Y-92494999D02*
X179382000Y-94090000D01*
D58*
X174101009Y-85009009D02*
X174101009Y-84400000D01*
D57*
X179382000Y-96768531D02*
X177786999Y-98363532D01*
D58*
X177482000Y-88390000D02*
X174101009Y-85009009D01*
D57*
X177786999Y-98363532D02*
X177786999Y-106390000D01*
D58*
X174101009Y-84400000D02*
X171182000Y-81480991D01*
D57*
X177482000Y-88390000D02*
X177786999Y-88694999D01*
D58*
X171182000Y-81480991D02*
X171182000Y-79580000D01*
D57*
X179382000Y-94090000D02*
X179382000Y-96768531D01*
D58*
%TO.N,/EN_5V_PAY*%
X148482000Y-92090000D02*
X148482000Y-105490000D01*
X153691999Y-107490000D02*
X154817000Y-106364999D01*
X150482000Y-107490000D02*
X153691999Y-107490000D01*
X155901669Y-84670331D02*
X148482000Y-92090000D01*
X148482000Y-105490000D02*
X150482000Y-107490000D01*
X154817000Y-106364999D02*
X154817000Y-105514999D01*
%TO.N,/SPI_MOSI*%
X164682000Y-66044604D02*
X165436604Y-65290000D01*
X174082000Y-70888945D02*
X174585029Y-71391974D01*
X170482000Y-65290000D02*
X174082000Y-68890000D01*
X174082000Y-68890000D02*
X174082000Y-70888945D01*
X164682000Y-72590000D02*
X164682000Y-66044604D01*
X165436604Y-65290000D02*
X170482000Y-65290000D01*
%TO.N,/RDY_ADC*%
X164682000Y-63890000D02*
X171082000Y-63890000D01*
X163032000Y-72390000D02*
X162982000Y-72340000D01*
X174982000Y-69956973D02*
X175501015Y-70475988D01*
X174982000Y-67790000D02*
X174982000Y-69956973D01*
X162982000Y-65590000D02*
X164682000Y-63890000D01*
X162982000Y-72340000D02*
X162982000Y-65590000D01*
X171082000Y-63890000D02*
X174982000Y-67790000D01*
%TO.N,/EN_5V_ADCS*%
X177508091Y-87590000D02*
X179332000Y-87590000D01*
X172314992Y-81659387D02*
X172314992Y-81977587D01*
X175560837Y-83950000D02*
X176800403Y-85189566D01*
X176800403Y-85189566D02*
X176800403Y-85790176D01*
X190982000Y-98990000D02*
X191632000Y-99640000D01*
X183182000Y-94290000D02*
X184582000Y-94290000D01*
X189182000Y-98990000D02*
X190982000Y-98990000D01*
X174484550Y-84147145D02*
X174681695Y-83950000D01*
X194722000Y-99640000D02*
X195417000Y-98945000D01*
X174681695Y-83950000D02*
X175560837Y-83950000D01*
X182382000Y-87790000D02*
X181757000Y-88415000D01*
X176800403Y-85790176D02*
X176375708Y-86214871D01*
X181757000Y-88415000D02*
X181757000Y-92865000D01*
X191632000Y-99640000D02*
X194722000Y-99640000D01*
X181757000Y-92865000D02*
X183182000Y-94290000D01*
X172314992Y-81977587D02*
X174484550Y-84147145D01*
X176375708Y-86457617D02*
X177508091Y-87590000D01*
X176375708Y-86214871D02*
X176375708Y-86457617D01*
X195417000Y-98945000D02*
X195417000Y-98215000D01*
%TO.N,/EN_5V_OBC*%
X169082000Y-103990000D02*
X171932000Y-106840000D01*
X166182000Y-82354762D02*
X166182000Y-89162652D01*
X174342000Y-106840000D02*
X174917000Y-106265000D01*
X171932000Y-106840000D02*
X174342000Y-106840000D01*
X166182000Y-89162652D02*
X169082000Y-92062652D01*
X166493903Y-82042859D02*
X166182000Y-82354762D01*
X174917000Y-106265000D02*
X174917000Y-105415000D01*
X169082000Y-92062652D02*
X169082000Y-103990000D01*
D57*
%TO.N,/STATUS_3V3*%
X135132000Y-121610000D02*
X136462000Y-121610000D01*
X151782000Y-73790000D02*
X155482000Y-73790000D01*
X153332000Y-90340000D02*
X153543182Y-90128818D01*
X148782000Y-110390000D02*
X148982000Y-110390000D01*
X151633041Y-90340000D02*
X153332000Y-90340000D01*
X155482000Y-73790000D02*
X159282000Y-69990000D01*
X147698637Y-111473363D02*
X147965363Y-111473363D01*
X146682000Y-112490000D02*
X147698637Y-111473363D01*
X147965363Y-111473363D02*
X147965363Y-111206637D01*
X147965363Y-111206637D02*
X148782000Y-110390000D01*
X136462000Y-121610000D02*
X136482000Y-121590000D01*
D58*
%TO.N,/SPI_MISO*%
X174532000Y-70404999D02*
X175052002Y-70925001D01*
X165082000Y-64590000D02*
X170882000Y-64590000D01*
X174532000Y-68240000D02*
X174532000Y-70404999D01*
X170882000Y-64590000D02*
X174532000Y-68240000D01*
X163882000Y-65790000D02*
X165082000Y-64590000D01*
X163882000Y-71752431D02*
X163882000Y-65790000D01*
D57*
%TO.N,/EN_3V3_ANT*%
X122782000Y-107290000D02*
X123117000Y-106955000D01*
X121982000Y-107290000D02*
X122782000Y-107290000D01*
D58*
X123117000Y-105315000D02*
X123117000Y-106045000D01*
X159402000Y-78955407D02*
X159522102Y-78955407D01*
X159522102Y-78955407D02*
X161782000Y-81215305D01*
D57*
X123117000Y-106955000D02*
X123117000Y-105315000D01*
D58*
X161782000Y-81215305D02*
X161782000Y-82690000D01*
D57*
%TO.N,/SHDN_12V*%
X185157001Y-124365001D02*
X185157000Y-124365000D01*
X186752000Y-124365001D02*
X185157001Y-124365001D01*
D58*
%TO.N,/EN_5V_EPS*%
X162607000Y-91865000D02*
X162607000Y-81015000D01*
X162607000Y-81015000D02*
X162582000Y-80990000D01*
X161082000Y-93390000D02*
X162607000Y-91865000D01*
D57*
X164126975Y-107245025D02*
X165217000Y-106155000D01*
X165217000Y-106155000D02*
X165217000Y-105515000D01*
%TO.N,/SPI_SCLK*%
X176946606Y-70089607D02*
X176417001Y-69560002D01*
X170682000Y-74915000D02*
X173379361Y-74915000D01*
X176946606Y-71347755D02*
X176946606Y-70089607D01*
X173379361Y-74915000D02*
X176946606Y-71347755D01*
D58*
%TO.N,/SPI_CS*%
X166782000Y-77090000D02*
X168957000Y-74915000D01*
X169582305Y-74915000D02*
X170307305Y-74190000D01*
X176455620Y-71166989D02*
X176455620Y-70496647D01*
X163787000Y-76795000D02*
X164082000Y-77090000D01*
X173432609Y-74190000D02*
X176455620Y-71166989D01*
X176455620Y-70496647D02*
X175967988Y-70009015D01*
X164082000Y-77090000D02*
X166782000Y-77090000D01*
X170307305Y-74190000D02*
X173432609Y-74190000D01*
X168957000Y-74915000D02*
X169582305Y-74915000D01*
D56*
%TO.N,Net-(U17-OVCSEL)*%
X179482000Y-101865000D02*
X179482000Y-101640000D01*
X179482000Y-101640000D02*
X181682000Y-99440000D01*
D57*
%TO.N,/EPS Power Distribution/VIN_12V*%
X180057000Y-123715000D02*
X181012000Y-123715000D01*
X178982000Y-127865000D02*
X178207000Y-127090000D01*
X178207000Y-125565000D02*
X179032000Y-124740000D01*
X178207000Y-127090000D02*
X178207000Y-125565000D01*
X179032000Y-124740000D02*
X180057000Y-123715000D01*
%TO.N,/EPS Power Distribution/FB_12V*%
X188757000Y-124890000D02*
X188932000Y-125065000D01*
X188632000Y-125015000D02*
X188882000Y-124765000D01*
X188932000Y-125065000D02*
X188932000Y-125665000D01*
X188282000Y-125015000D02*
X188632000Y-125015000D01*
X188882000Y-124765000D02*
X188882000Y-124140000D01*
X186752000Y-125015000D02*
X188282000Y-125015000D01*
%TD*%
%TA.AperFunction,Conductor*%
%TO.N,GND*%
G36*
X177990595Y-74763819D02*
G01*
X178043152Y-74809857D01*
X178051272Y-74824822D01*
X178093003Y-74916199D01*
X178093004Y-74916200D01*
X178130623Y-74962883D01*
X178130626Y-74962886D01*
X178130631Y-74962892D01*
X179035106Y-75867365D01*
X179204114Y-76036373D01*
X179250797Y-76073993D01*
X179286125Y-76090127D01*
X179322295Y-76115240D01*
X179971163Y-76764109D01*
X179971170Y-76764115D01*
X180042131Y-76811529D01*
X180042134Y-76811530D01*
X180042138Y-76811533D01*
X180077711Y-76835302D01*
X180196094Y-76884338D01*
X180196098Y-76884338D01*
X180196099Y-76884339D01*
X180321766Y-76909337D01*
X180321769Y-76909337D01*
X180621267Y-76909337D01*
X180688306Y-76929022D01*
X180696802Y-76935182D01*
X180698300Y-76936152D01*
X180814231Y-76994375D01*
X180840395Y-77012006D01*
X181116081Y-77254071D01*
X181153470Y-77313096D01*
X181154923Y-77318651D01*
X181155751Y-77322148D01*
X181231864Y-77473700D01*
X181231867Y-77473705D01*
X181294949Y-77551143D01*
X181716873Y-77973065D01*
X181794311Y-78036149D01*
X181794314Y-78036150D01*
X181794316Y-78036152D01*
X181872329Y-78075331D01*
X181945869Y-78112264D01*
X181986008Y-78121777D01*
X182046699Y-78156390D01*
X182079043Y-78218322D01*
X182072770Y-78287910D01*
X182064799Y-78304430D01*
X182054822Y-78321711D01*
X182054821Y-78321713D01*
X181996327Y-78501740D01*
X181996326Y-78501744D01*
X181976540Y-78690000D01*
X181996326Y-78878256D01*
X181996327Y-78878259D01*
X182054818Y-79058277D01*
X182054821Y-79058284D01*
X182115908Y-79164090D01*
X182132381Y-79231988D01*
X182112777Y-79643670D01*
X182089926Y-79709697D01*
X182076598Y-79725453D01*
X181334707Y-80467345D01*
X181273384Y-80500830D01*
X181203693Y-80495846D01*
X181159345Y-80467345D01*
X180718819Y-80026819D01*
X180685334Y-79965496D01*
X180682500Y-79939138D01*
X180682500Y-79658360D01*
X180657502Y-79532693D01*
X180657501Y-79532692D01*
X180657501Y-79532688D01*
X180608465Y-79414305D01*
X180577087Y-79367344D01*
X180577087Y-79367343D01*
X180537275Y-79307760D01*
X180537272Y-79307757D01*
X178642736Y-77413222D01*
X178609251Y-77351899D01*
X178614235Y-77282207D01*
X178642733Y-77237862D01*
X178780414Y-77100183D01*
X178811940Y-77061062D01*
X178820793Y-77051206D01*
X178882000Y-76990000D01*
X178881998Y-76989999D01*
X178881523Y-76962387D01*
X178878987Y-76914480D01*
X178879727Y-76909337D01*
X178898303Y-76780128D01*
X178877822Y-76637670D01*
X178818034Y-76506755D01*
X178780415Y-76460072D01*
X178780410Y-76460067D01*
X178780406Y-76460062D01*
X178489922Y-76169579D01*
X178463042Y-76129350D01*
X178429124Y-76047464D01*
X178429122Y-76047461D01*
X178346991Y-75924542D01*
X178346985Y-75924535D01*
X177629503Y-75207052D01*
X177629497Y-75207047D01*
X177615191Y-75197488D01*
X177570387Y-75143875D01*
X177561680Y-75074550D01*
X177591835Y-75011523D01*
X177603364Y-75000258D01*
X177857783Y-74782185D01*
X177921491Y-74753504D01*
X177990595Y-74763819D01*
G37*
%TD.AperFunction*%
%TD*%
%TA.AperFunction,Conductor*%
%TO.N,GND*%
G36*
X185609539Y-125384685D02*
G01*
X185655294Y-125437489D01*
X185666500Y-125489000D01*
X185666500Y-125852135D01*
X185676460Y-125920501D01*
X185728021Y-126025971D01*
X185811028Y-126108978D01*
X185853535Y-126129759D01*
X185905117Y-126176887D01*
X185923068Y-126242421D01*
X185892033Y-129291762D01*
X185871667Y-129358598D01*
X185818400Y-129403813D01*
X185768039Y-129414500D01*
X185365856Y-129414500D01*
X185327841Y-129419065D01*
X185281411Y-129424640D01*
X185147023Y-129477636D01*
X185031921Y-129564921D01*
X184944636Y-129680023D01*
X184891640Y-129814411D01*
X184886065Y-129860841D01*
X184881500Y-129898856D01*
X184881500Y-130481144D01*
X184886825Y-130525494D01*
X184891640Y-130565588D01*
X184944636Y-130699976D01*
X185031921Y-130815078D01*
X185147023Y-130902363D01*
X185147024Y-130902363D01*
X185147025Y-130902364D01*
X185281410Y-130955359D01*
X185365856Y-130965500D01*
X185365862Y-130965500D01*
X185749728Y-130965500D01*
X185816767Y-130985185D01*
X185862522Y-131037989D01*
X185873722Y-131090762D01*
X185833267Y-135065505D01*
X185812901Y-135132341D01*
X185759634Y-135177556D01*
X185707510Y-135188230D01*
X180677229Y-135116709D01*
X180610476Y-135096074D01*
X180565477Y-135042625D01*
X180555009Y-134994777D01*
X180432000Y-127565000D01*
X179597608Y-127286869D01*
X179562509Y-127268499D01*
X179524002Y-127239673D01*
X179499331Y-127221204D01*
X179499329Y-127221203D01*
X179499328Y-127221202D01*
X179364482Y-127170908D01*
X179364483Y-127170908D01*
X179304883Y-127164501D01*
X179304881Y-127164500D01*
X179304873Y-127164500D01*
X179304865Y-127164500D01*
X179250623Y-127164500D01*
X179211411Y-127158137D01*
X178790423Y-127017807D01*
X178741954Y-126987851D01*
X178693819Y-126939716D01*
X178660334Y-126878393D01*
X178657500Y-126852035D01*
X178657500Y-125837257D01*
X178677185Y-125770218D01*
X178729989Y-125724463D01*
X178749033Y-125717584D01*
X179923104Y-125399192D01*
X179992957Y-125400644D01*
X180043239Y-125431189D01*
X180071030Y-125458980D01*
X180109658Y-125477864D01*
X180176492Y-125510538D01*
X180176493Y-125510538D01*
X180176495Y-125510539D01*
X180244865Y-125520500D01*
X181779134Y-125520499D01*
X181779136Y-125520499D01*
X181806482Y-125516515D01*
X181847505Y-125510539D01*
X181952970Y-125458980D01*
X181980761Y-125431189D01*
X182010632Y-125401319D01*
X182071955Y-125367834D01*
X182098313Y-125365000D01*
X185542500Y-125365000D01*
X185609539Y-125384685D01*
G37*
%TD.AperFunction*%
%TD*%
%TA.AperFunction,Conductor*%
%TO.N,/EPS Power Distribution/SW_12V*%
G36*
X181726756Y-114309936D02*
G01*
X181772750Y-114362531D01*
X181784171Y-114412354D01*
X181926592Y-122435410D01*
X181908101Y-122502788D01*
X181856117Y-122549473D01*
X181787146Y-122560643D01*
X181784744Y-122560317D01*
X181782532Y-122559995D01*
X181779135Y-122559500D01*
X181779133Y-122559500D01*
X180244863Y-122559500D01*
X180176497Y-122569460D01*
X180071027Y-122621021D01*
X179988368Y-122703681D01*
X179927045Y-122737166D01*
X179900687Y-122740000D01*
X179631999Y-122740000D01*
X177415609Y-124365352D01*
X177349907Y-124389123D01*
X177340328Y-124389343D01*
X171521963Y-124297715D01*
X171032000Y-124290000D01*
X171031999Y-124290000D01*
X171031996Y-124290000D01*
X171023189Y-124291358D01*
X170953933Y-124282119D01*
X170900666Y-124236904D01*
X170880300Y-124170070D01*
X170783246Y-114464669D01*
X170802259Y-114397439D01*
X170854603Y-114351158D01*
X170906674Y-114339433D01*
X181659627Y-114290556D01*
X181726756Y-114309936D01*
G37*
%TD.AperFunction*%
%TD*%
%TA.AperFunction,Conductor*%
%TO.N,/EPS Power Distribution/SW_3V3*%
G36*
X121477467Y-119285546D02*
G01*
X124593682Y-119316097D01*
X130078137Y-119369867D01*
X130089926Y-119370546D01*
X130261980Y-119388738D01*
X130285157Y-119393458D01*
X130444908Y-119442252D01*
X130466773Y-119451291D01*
X130614340Y-119529534D01*
X130634090Y-119542560D01*
X130764115Y-119647409D01*
X130781032Y-119663950D01*
X130892619Y-119796139D01*
X130899817Y-119805543D01*
X131074121Y-120057313D01*
X131095753Y-120088560D01*
X131501750Y-120675000D01*
X131669182Y-120675000D01*
X131675954Y-120684046D01*
X131675957Y-120684048D01*
X131791164Y-120770293D01*
X131791171Y-120770297D01*
X131832008Y-120785528D01*
X131926017Y-120820591D01*
X131985627Y-120827000D01*
X132317500Y-120826999D01*
X132384539Y-120846683D01*
X132430294Y-120899487D01*
X132441500Y-120950999D01*
X132441500Y-122311735D01*
X132446418Y-122349092D01*
X132435650Y-122418127D01*
X132389451Y-122470267D01*
X132360690Y-122488339D01*
X132335671Y-122500388D01*
X132192950Y-122550328D01*
X132165880Y-122556506D01*
X132008673Y-122574220D01*
X131994789Y-122575000D01*
X131201750Y-122575000D01*
X131201750Y-123175000D01*
X131183435Y-123314107D01*
X131175057Y-123345374D01*
X131127612Y-123459917D01*
X131111427Y-123487950D01*
X131035952Y-123586312D01*
X131013062Y-123609202D01*
X130914700Y-123684677D01*
X130886667Y-123700862D01*
X130772124Y-123748307D01*
X130740857Y-123756685D01*
X130609809Y-123773939D01*
X130593623Y-123775000D01*
X121407843Y-123775000D01*
X121395689Y-123774403D01*
X121218815Y-123756982D01*
X121194974Y-123752240D01*
X121030751Y-123702424D01*
X121008293Y-123693121D01*
X120856951Y-123612227D01*
X120836739Y-123598722D01*
X120704083Y-123489854D01*
X120686895Y-123472666D01*
X120578027Y-123340010D01*
X120564522Y-123319798D01*
X120483628Y-123168456D01*
X120474327Y-123146005D01*
X120436674Y-123021877D01*
X120431350Y-122987600D01*
X120401762Y-120827633D01*
X120401750Y-120825935D01*
X120401750Y-120290977D01*
X120402355Y-120278748D01*
X120405777Y-120244220D01*
X120419993Y-120100781D01*
X120424790Y-120076816D01*
X120475223Y-119911653D01*
X120484631Y-119889095D01*
X120566506Y-119737039D01*
X120580156Y-119716772D01*
X120690286Y-119583747D01*
X120707659Y-119566546D01*
X120841742Y-119457738D01*
X120862159Y-119444275D01*
X121002361Y-119370547D01*
X121014997Y-119363902D01*
X121037656Y-119354710D01*
X121203301Y-119305899D01*
X121227312Y-119301337D01*
X121405443Y-119285444D01*
X121417676Y-119284960D01*
X121477467Y-119285546D01*
G37*
%TD.AperFunction*%
%TD*%
%TA.AperFunction,Conductor*%
%TO.N,GND*%
G36*
X171583089Y-100809685D02*
G01*
X171628844Y-100862489D01*
X171632232Y-100870667D01*
X171683203Y-101007328D01*
X171683207Y-101007335D01*
X171769453Y-101122544D01*
X171769456Y-101122547D01*
X171884665Y-101208793D01*
X171884672Y-101208797D01*
X171902837Y-101215572D01*
X172019518Y-101259091D01*
X172079128Y-101265500D01*
X172325629Y-101265499D01*
X172392667Y-101285183D01*
X172438422Y-101337987D01*
X172448366Y-101407146D01*
X172427678Y-101459939D01*
X172357183Y-101562068D01*
X172357182Y-101562068D01*
X172296860Y-101721125D01*
X172296859Y-101721130D01*
X172276355Y-101890000D01*
X172296859Y-102058869D01*
X172296860Y-102058874D01*
X172357182Y-102217931D01*
X172403686Y-102285302D01*
X172453817Y-102357929D01*
X172554566Y-102447185D01*
X172591693Y-102506374D01*
X172590925Y-102576239D01*
X172554566Y-102632814D01*
X172453818Y-102722070D01*
X172453816Y-102722072D01*
X172357182Y-102862068D01*
X172296860Y-103021125D01*
X172296859Y-103021130D01*
X172276355Y-103190000D01*
X172296859Y-103358869D01*
X172296860Y-103358874D01*
X172357182Y-103517931D01*
X172419475Y-103608177D01*
X172453817Y-103657929D01*
X172536195Y-103730909D01*
X172581150Y-103770736D01*
X172731774Y-103849790D01*
X172771124Y-103859488D01*
X172877891Y-103885804D01*
X172938271Y-103920959D01*
X172970060Y-103983178D01*
X172963165Y-104052706D01*
X172957050Y-104065623D01*
X172953205Y-104072664D01*
X172902908Y-104207517D01*
X172896501Y-104267116D01*
X172896500Y-104267135D01*
X172896501Y-106090500D01*
X172876816Y-106157539D01*
X172824013Y-106203294D01*
X172772501Y-106214500D01*
X172242453Y-106214500D01*
X172175414Y-106194815D01*
X172154772Y-106178181D01*
X169743819Y-103767228D01*
X169710334Y-103705905D01*
X169707500Y-103679547D01*
X169707500Y-102689500D01*
X169727185Y-102622461D01*
X169779989Y-102576706D01*
X169831500Y-102565500D01*
X170413613Y-102565500D01*
X170413616Y-102565500D01*
X170484196Y-102559086D01*
X170646606Y-102508478D01*
X170792185Y-102420472D01*
X170912472Y-102300185D01*
X171000478Y-102154606D01*
X171051086Y-101992196D01*
X171057500Y-101921616D01*
X171057500Y-101408384D01*
X171051086Y-101337804D01*
X171000478Y-101175394D01*
X170912472Y-101029815D01*
X170912470Y-101029813D01*
X170912469Y-101029811D01*
X170895693Y-101013035D01*
X170862208Y-100951712D01*
X170867192Y-100882020D01*
X170895695Y-100837671D01*
X170907052Y-100826315D01*
X170968376Y-100792833D01*
X170994729Y-100790000D01*
X171516050Y-100790000D01*
X171583089Y-100809685D01*
G37*
%TD.AperFunction*%
%TA.AperFunction,Conductor*%
G36*
X176833084Y-101184242D02*
G01*
X176882491Y-101233647D01*
X176897599Y-101289203D01*
X176977398Y-103842788D01*
X176959817Y-103910410D01*
X176908468Y-103957791D01*
X176839654Y-103969890D01*
X176779148Y-103945928D01*
X176679329Y-103871203D01*
X176679327Y-103871202D01*
X176544481Y-103820908D01*
X176544482Y-103820908D01*
X176484882Y-103814501D01*
X176484880Y-103814500D01*
X176484872Y-103814500D01*
X176484864Y-103814500D01*
X176238372Y-103814500D01*
X176171333Y-103794815D01*
X176125578Y-103742011D01*
X176115634Y-103672853D01*
X176136320Y-103620062D01*
X176206818Y-103517930D01*
X176267140Y-103358872D01*
X176287645Y-103190000D01*
X176267140Y-103021128D01*
X176206818Y-102862070D01*
X176110183Y-102722071D01*
X176009431Y-102632812D01*
X175972307Y-102573627D01*
X175973074Y-102503761D01*
X176009430Y-102447187D01*
X176110183Y-102357929D01*
X176206818Y-102217930D01*
X176267140Y-102058872D01*
X176287645Y-101890000D01*
X176267140Y-101721128D01*
X176206818Y-101562070D01*
X176136322Y-101459939D01*
X176114439Y-101393585D01*
X176131904Y-101325933D01*
X176183172Y-101278463D01*
X176238372Y-101265499D01*
X176484870Y-101265499D01*
X176484871Y-101265499D01*
X176544482Y-101259091D01*
X176679330Y-101208796D01*
X176699347Y-101193810D01*
X176764811Y-101169392D01*
X176833084Y-101184242D01*
G37*
%TD.AperFunction*%
%TA.AperFunction,Conductor*%
G36*
X173716244Y-102308744D02*
G01*
X173734048Y-102329291D01*
X173753817Y-102357930D01*
X173854564Y-102447185D01*
X173891691Y-102506374D01*
X173890923Y-102576240D01*
X173854564Y-102632815D01*
X173753817Y-102722068D01*
X173734047Y-102750710D01*
X173679763Y-102794699D01*
X173610314Y-102802356D01*
X173547750Y-102771251D01*
X173529949Y-102750707D01*
X173510183Y-102722071D01*
X173409431Y-102632812D01*
X173372307Y-102573627D01*
X173373074Y-102503761D01*
X173409430Y-102447187D01*
X173510183Y-102357929D01*
X173529950Y-102329290D01*
X173584230Y-102285302D01*
X173653679Y-102277642D01*
X173716244Y-102308744D01*
G37*
%TD.AperFunction*%
%TA.AperFunction,Conductor*%
G36*
X175016246Y-102308745D02*
G01*
X175034049Y-102329291D01*
X175053815Y-102357927D01*
X175053816Y-102357928D01*
X175053817Y-102357929D01*
X175154566Y-102447185D01*
X175191693Y-102506374D01*
X175190925Y-102576239D01*
X175154566Y-102632814D01*
X175118631Y-102664650D01*
X175053816Y-102722071D01*
X175034049Y-102750709D01*
X174979765Y-102794698D01*
X174910316Y-102802356D01*
X174847752Y-102771252D01*
X174829951Y-102750708D01*
X174810184Y-102722071D01*
X174773419Y-102689500D01*
X174709434Y-102632814D01*
X174672308Y-102573626D01*
X174673076Y-102503761D01*
X174709434Y-102447185D01*
X174810183Y-102357930D01*
X174829950Y-102329293D01*
X174884232Y-102285302D01*
X174953681Y-102277642D01*
X175016246Y-102308745D01*
G37*
%TD.AperFunction*%
%TD*%
%TA.AperFunction,Conductor*%
%TO.N,/VBUS*%
G36*
X162575388Y-119825253D02*
G01*
X162656170Y-119879229D01*
X162710146Y-119960011D01*
X162729100Y-120055298D01*
X162729100Y-120528555D01*
X162729101Y-120528569D01*
X162732015Y-120553693D01*
X162777392Y-120656462D01*
X162777393Y-120656463D01*
X162777394Y-120656465D01*
X162856835Y-120735906D01*
X162932000Y-120769094D01*
X162932000Y-120790000D01*
X163412780Y-120808491D01*
X163412783Y-120808492D01*
X163582000Y-120815000D01*
X163732112Y-120820773D01*
X163769978Y-120825149D01*
X163824299Y-120835690D01*
X163863307Y-120843260D01*
X163934840Y-120868961D01*
X164001360Y-120905141D01*
X164061811Y-120951228D01*
X164114314Y-121005790D01*
X164158041Y-121067964D01*
X164191639Y-121135827D01*
X164214572Y-121208298D01*
X164229082Y-121302245D01*
X164232000Y-121340252D01*
X164232000Y-123186348D01*
X164231999Y-123187169D01*
X164231992Y-123189293D01*
X164231981Y-123190896D01*
X164231964Y-123192642D01*
X164231956Y-123193396D01*
X164191962Y-126326277D01*
X164191962Y-126326283D01*
X164185453Y-126836091D01*
X163607000Y-126840000D01*
X163632000Y-126840000D01*
X163582000Y-134740000D01*
X163703352Y-134934163D01*
X163699916Y-134934111D01*
X163699909Y-134934110D01*
X136078281Y-134508434D01*
X136078272Y-134508434D01*
X134882000Y-134490000D01*
X134832000Y-128090000D01*
X145111317Y-127915774D01*
X146627519Y-127890076D01*
X146627976Y-127890069D01*
X146631019Y-127890030D01*
X146633027Y-127890013D01*
X146634749Y-127890006D01*
X146635814Y-127890002D01*
X146636824Y-127890000D01*
X157546838Y-127890000D01*
X157546842Y-127890000D01*
X157832000Y-127890000D01*
X158491227Y-126775594D01*
X161207701Y-122183457D01*
X161231920Y-122149405D01*
X162089857Y-121135482D01*
X162106257Y-121114281D01*
X162118791Y-121096518D01*
X162133271Y-121073957D01*
X162148581Y-121047629D01*
X162172176Y-120996843D01*
X162187406Y-120954216D01*
X162196197Y-120925116D01*
X162202795Y-120813039D01*
X162195814Y-120757929D01*
X162194017Y-120743737D01*
X162194016Y-120743732D01*
X162194015Y-120743723D01*
X162180190Y-120683813D01*
X162180190Y-120683812D01*
X162166755Y-120659929D01*
X162136558Y-120567586D01*
X162135578Y-120535757D01*
X162134898Y-120535758D01*
X162134898Y-120321128D01*
X162134897Y-120055298D01*
X162153851Y-119960011D01*
X162207827Y-119879230D01*
X162288608Y-119825253D01*
X162383896Y-119806299D01*
X162480100Y-119806299D01*
X162575388Y-119825253D01*
G37*
%TD.AperFunction*%
%TD*%
%TA.AperFunction,Conductor*%
%TO.N,GND*%
G36*
X142004231Y-95709685D02*
G01*
X142049986Y-95762489D01*
X142059930Y-95831647D01*
X142055579Y-95850881D01*
X142038452Y-95905849D01*
X142012913Y-95987807D01*
X142006500Y-96058386D01*
X142006500Y-96350432D01*
X141986815Y-96417471D01*
X141985603Y-96419322D01*
X141970534Y-96441874D01*
X141921499Y-96560255D01*
X141921497Y-96560261D01*
X141896500Y-96685928D01*
X141896500Y-98523561D01*
X141876815Y-98590600D01*
X141871767Y-98597872D01*
X141853204Y-98622668D01*
X141853202Y-98622671D01*
X141802908Y-98757517D01*
X141796501Y-98817116D01*
X141796500Y-98817135D01*
X141796500Y-101112870D01*
X141796501Y-101112876D01*
X141802908Y-101172483D01*
X141853204Y-101307332D01*
X141857048Y-101314372D01*
X141871900Y-101382645D01*
X141847483Y-101448110D01*
X141791549Y-101489981D01*
X141777891Y-101494196D01*
X141631773Y-101530210D01*
X141481150Y-101609263D01*
X141353816Y-101722072D01*
X141257182Y-101862068D01*
X141196860Y-102021125D01*
X141196859Y-102021130D01*
X141176355Y-102190000D01*
X141196859Y-102358869D01*
X141196860Y-102358874D01*
X141257182Y-102517931D01*
X141303686Y-102585302D01*
X141353817Y-102657929D01*
X141454566Y-102747185D01*
X141491693Y-102806374D01*
X141490925Y-102876239D01*
X141454566Y-102932814D01*
X141353818Y-103022070D01*
X141353816Y-103022072D01*
X141257182Y-103162068D01*
X141196860Y-103321125D01*
X141196859Y-103321130D01*
X141176355Y-103490000D01*
X141196859Y-103658869D01*
X141196860Y-103658874D01*
X141257182Y-103817931D01*
X141308717Y-103892591D01*
X141353817Y-103957929D01*
X141448726Y-104042011D01*
X141481150Y-104070736D01*
X141631774Y-104149790D01*
X141671124Y-104159488D01*
X141777891Y-104185804D01*
X141838271Y-104220959D01*
X141870060Y-104283178D01*
X141863165Y-104352706D01*
X141857050Y-104365623D01*
X141853205Y-104372664D01*
X141802908Y-104507517D01*
X141796501Y-104567116D01*
X141796500Y-104567135D01*
X141796501Y-106840500D01*
X141776816Y-106907539D01*
X141724013Y-106953294D01*
X141672501Y-106964500D01*
X140692453Y-106964500D01*
X140625414Y-106944815D01*
X140604772Y-106928181D01*
X139743819Y-106067228D01*
X139710334Y-106005905D01*
X139707500Y-105979547D01*
X139707500Y-95814000D01*
X139727185Y-95746961D01*
X139779989Y-95701206D01*
X139831500Y-95690000D01*
X141937192Y-95690000D01*
X142004231Y-95709685D01*
G37*
%TD.AperFunction*%
%TA.AperFunction,Conductor*%
G36*
X145827746Y-101413379D02*
G01*
X145877152Y-101462784D01*
X145892260Y-101518339D01*
X145973287Y-104111217D01*
X145955706Y-104178839D01*
X145904357Y-104226220D01*
X145875709Y-104236256D01*
X145768735Y-104259529D01*
X145699043Y-104254546D01*
X145668063Y-104237629D01*
X145579334Y-104171206D01*
X145579327Y-104171202D01*
X145444481Y-104120908D01*
X145444482Y-104120908D01*
X145384882Y-104114501D01*
X145384880Y-104114500D01*
X145384872Y-104114500D01*
X145384864Y-104114500D01*
X145138372Y-104114500D01*
X145071333Y-104094815D01*
X145025578Y-104042011D01*
X145015634Y-103972853D01*
X145036320Y-103920062D01*
X145106818Y-103817930D01*
X145167140Y-103658872D01*
X145187645Y-103490000D01*
X145167140Y-103321128D01*
X145106818Y-103162070D01*
X145010183Y-103022071D01*
X144909431Y-102932812D01*
X144872307Y-102873627D01*
X144873074Y-102803761D01*
X144909430Y-102747187D01*
X145010183Y-102657929D01*
X145106818Y-102517930D01*
X145167140Y-102358872D01*
X145187645Y-102190000D01*
X145167140Y-102021128D01*
X145106818Y-101862070D01*
X145036322Y-101759939D01*
X145014439Y-101693585D01*
X145031904Y-101625933D01*
X145083172Y-101578463D01*
X145138372Y-101565499D01*
X145384870Y-101565499D01*
X145384871Y-101565499D01*
X145444482Y-101559091D01*
X145579330Y-101508796D01*
X145694012Y-101422944D01*
X145759473Y-101398528D01*
X145827746Y-101413379D01*
G37*
%TD.AperFunction*%
%TA.AperFunction,Conductor*%
G36*
X142616244Y-102608744D02*
G01*
X142634048Y-102629291D01*
X142653817Y-102657930D01*
X142754564Y-102747185D01*
X142791691Y-102806374D01*
X142790923Y-102876240D01*
X142754564Y-102932815D01*
X142653817Y-103022068D01*
X142634047Y-103050710D01*
X142579763Y-103094699D01*
X142510314Y-103102356D01*
X142447750Y-103071251D01*
X142429949Y-103050707D01*
X142410183Y-103022071D01*
X142309431Y-102932812D01*
X142272307Y-102873627D01*
X142273074Y-102803761D01*
X142309430Y-102747187D01*
X142410183Y-102657929D01*
X142429950Y-102629290D01*
X142484230Y-102585302D01*
X142553679Y-102577642D01*
X142616244Y-102608744D01*
G37*
%TD.AperFunction*%
%TA.AperFunction,Conductor*%
G36*
X143916246Y-102608745D02*
G01*
X143934049Y-102629291D01*
X143953815Y-102657927D01*
X143953816Y-102657928D01*
X143953817Y-102657929D01*
X144054566Y-102747185D01*
X144091693Y-102806374D01*
X144090925Y-102876239D01*
X144054566Y-102932814D01*
X144018631Y-102964650D01*
X143953816Y-103022071D01*
X143934049Y-103050709D01*
X143879765Y-103094698D01*
X143810316Y-103102356D01*
X143747752Y-103071252D01*
X143729951Y-103050708D01*
X143710184Y-103022071D01*
X143710181Y-103022068D01*
X143609434Y-102932814D01*
X143572308Y-102873626D01*
X143573076Y-102803761D01*
X143609434Y-102747185D01*
X143710183Y-102657930D01*
X143729950Y-102629293D01*
X143784232Y-102585302D01*
X143853681Y-102577642D01*
X143916246Y-102608745D01*
G37*
%TD.AperFunction*%
%TD*%
%TA.AperFunction,Conductor*%
%TO.N,/EPS Power Distribution/3.3V_BUS*%
G36*
X125190079Y-104430286D02*
G01*
X125206501Y-104450599D01*
X125220649Y-104472460D01*
X125232000Y-104490000D01*
X125271455Y-104568911D01*
X125281499Y-104602720D01*
X125281500Y-104603113D01*
X125281500Y-104646613D01*
X125287913Y-104717192D01*
X125287913Y-104717194D01*
X125287914Y-104717196D01*
X125316549Y-104809091D01*
X125338522Y-104879606D01*
X125426530Y-105025188D01*
X125546811Y-105145469D01*
X125546813Y-105145470D01*
X125546815Y-105145472D01*
X125692394Y-105233478D01*
X125854804Y-105284086D01*
X125925384Y-105290500D01*
X125925387Y-105290500D01*
X126588613Y-105290500D01*
X126588616Y-105290500D01*
X126659196Y-105284086D01*
X126821606Y-105233478D01*
X126944474Y-105159201D01*
X127012026Y-105141365D01*
X127078500Y-105162882D01*
X127082513Y-105165738D01*
X127087453Y-105169405D01*
X127110204Y-105191299D01*
X127198109Y-105300688D01*
X127214595Y-105327624D01*
X127272012Y-105455671D01*
X127281159Y-105485900D01*
X127305689Y-105632188D01*
X127307304Y-105647928D01*
X127328433Y-106197289D01*
X127328434Y-106197306D01*
X127332000Y-106290000D01*
X127352558Y-106380459D01*
X127352563Y-106380482D01*
X127456996Y-106839987D01*
X127457000Y-106840002D01*
X127582000Y-107390000D01*
X131945116Y-107477262D01*
X132290498Y-107484170D01*
X132290498Y-107484169D01*
X132582000Y-107490000D01*
X132882000Y-106990000D01*
X132887885Y-106831076D01*
X132891091Y-106822483D01*
X132897500Y-106762873D01*
X132897499Y-106573756D01*
X132897582Y-106569285D01*
X132946114Y-105258917D01*
X132947119Y-105247111D01*
X132970117Y-105075054D01*
X132975497Y-105051951D01*
X133028949Y-104893107D01*
X133038627Y-104871461D01*
X133091526Y-104778278D01*
X133141741Y-104729699D01*
X133199360Y-104715499D01*
X135279871Y-104715499D01*
X135279872Y-104715499D01*
X135339483Y-104709091D01*
X135445796Y-104669438D01*
X135515484Y-104664455D01*
X135576807Y-104697939D01*
X135589405Y-104712682D01*
X135651208Y-104797661D01*
X136082000Y-105390000D01*
X138073874Y-105390000D01*
X138090059Y-105391061D01*
X138195223Y-105404906D01*
X138226491Y-105413284D01*
X138316918Y-105450740D01*
X138344952Y-105466925D01*
X138407987Y-105515294D01*
X138449189Y-105571721D01*
X138456500Y-105613669D01*
X138456500Y-106351606D01*
X138466788Y-106403329D01*
X138478629Y-106462862D01*
X138480537Y-106472452D01*
X138480539Y-106472459D01*
X138527685Y-106586281D01*
X138527688Y-106586287D01*
X138542311Y-106608171D01*
X138557036Y-106630207D01*
X138557037Y-106630210D01*
X138557038Y-106630210D01*
X138596140Y-106688731D01*
X138596141Y-106688732D01*
X138596142Y-106688733D01*
X138683267Y-106775858D01*
X138683268Y-106775858D01*
X138690335Y-106782925D01*
X138690334Y-106782925D01*
X138690338Y-106782928D01*
X139983263Y-108075855D01*
X139983267Y-108075858D01*
X140085710Y-108144309D01*
X140085711Y-108144309D01*
X140085715Y-108144312D01*
X140152396Y-108171931D01*
X140152398Y-108171933D01*
X140197223Y-108190500D01*
X140199548Y-108191463D01*
X140219597Y-108195451D01*
X140253196Y-108202134D01*
X140320392Y-108215501D01*
X140320394Y-108215501D01*
X140449721Y-108215501D01*
X140449741Y-108215500D01*
X142853607Y-108215500D01*
X142914029Y-108203481D01*
X142974452Y-108191463D01*
X142974455Y-108191461D01*
X142974458Y-108191461D01*
X143007787Y-108177654D01*
X143007786Y-108177654D01*
X143007792Y-108177652D01*
X143088286Y-108144312D01*
X143139509Y-108110084D01*
X143190733Y-108075858D01*
X143277858Y-107988733D01*
X143277860Y-107988729D01*
X143358797Y-107907791D01*
X143375804Y-107898504D01*
X143682000Y-107890000D01*
X144097831Y-107355359D01*
X144154524Y-107314529D01*
X144167197Y-107310812D01*
X144174474Y-107309091D01*
X144174483Y-107309091D01*
X144309331Y-107258796D01*
X144424546Y-107172546D01*
X144510796Y-107057331D01*
X144561091Y-106922483D01*
X144567500Y-106862873D01*
X144567499Y-104939498D01*
X144587184Y-104872460D01*
X144639987Y-104826705D01*
X144691499Y-104815499D01*
X145679871Y-104815499D01*
X145679872Y-104815499D01*
X145739483Y-104809091D01*
X145874329Y-104758797D01*
X145874329Y-104758796D01*
X145874331Y-104758796D01*
X145874339Y-104758789D01*
X145874348Y-104758786D01*
X145882112Y-104754547D01*
X145882721Y-104755663D01*
X145939803Y-104734371D01*
X146008076Y-104749221D01*
X146055420Y-104794996D01*
X146082000Y-104840000D01*
X146282000Y-105290000D01*
X147024950Y-105290000D01*
X147039009Y-105290800D01*
X147089877Y-105296604D01*
X147183573Y-105307297D01*
X147210965Y-105313631D01*
X147341415Y-105359906D01*
X147366675Y-105372249D01*
X147483339Y-105446721D01*
X147505173Y-105464441D01*
X147602058Y-105563284D01*
X147619335Y-105585464D01*
X147691462Y-105703596D01*
X147703299Y-105729100D01*
X147746954Y-105860443D01*
X147752740Y-105887962D01*
X147766343Y-106032832D01*
X147766861Y-106046903D01*
X147691671Y-109806438D01*
X147690630Y-109820184D01*
X147664300Y-110019685D01*
X147657692Y-110046404D01*
X147590407Y-110228663D01*
X147578067Y-110253268D01*
X147472228Y-110416197D01*
X147454764Y-110437473D01*
X147310623Y-110577876D01*
X147300230Y-110586931D01*
X147055470Y-110777300D01*
X147044354Y-110785010D01*
X146876177Y-110888559D01*
X146851766Y-110900133D01*
X146671588Y-110962571D01*
X146645250Y-110968584D01*
X146507300Y-110984559D01*
X146449048Y-110991304D01*
X146435559Y-110992124D01*
X139930309Y-111032034D01*
X138942263Y-111038096D01*
X138940405Y-111038093D01*
X132891018Y-110984559D01*
X132890986Y-110984549D01*
X132890926Y-110984558D01*
X132890454Y-110984553D01*
X132890438Y-110984553D01*
X132890333Y-110984552D01*
X132889840Y-110984549D01*
X132889466Y-110984547D01*
X132885196Y-110984520D01*
X132885082Y-110984519D01*
X132883277Y-110984511D01*
X132881663Y-110984507D01*
X132879042Y-110984501D01*
X132878932Y-110984500D01*
X132877830Y-110984500D01*
X131788093Y-110984500D01*
X131771229Y-110984914D01*
X131763285Y-110985109D01*
X131751126Y-110985706D01*
X131726399Y-110987530D01*
X131549523Y-111004950D01*
X131549503Y-111004952D01*
X131500449Y-111012228D01*
X131484347Y-111015431D01*
X131476612Y-111016970D01*
X131460490Y-111021008D01*
X131428502Y-111029021D01*
X131264259Y-111078842D01*
X131246177Y-111085311D01*
X130482000Y-111090000D01*
X130482000Y-111738641D01*
X130418058Y-111858269D01*
X130396863Y-111903079D01*
X130396853Y-111903103D01*
X130387573Y-111925504D01*
X130387558Y-111925541D01*
X130370842Y-111972259D01*
X130321021Y-112136502D01*
X130308970Y-112184613D01*
X130304228Y-112208449D01*
X130296952Y-112257503D01*
X130296950Y-112257523D01*
X130286839Y-112360191D01*
X130279530Y-112434400D01*
X130277707Y-112459122D01*
X130277109Y-112471284D01*
X130276500Y-112496108D01*
X130276500Y-116839748D01*
X130275903Y-116851903D01*
X130263982Y-116972935D01*
X130259240Y-116996775D01*
X130209424Y-117160998D01*
X130200121Y-117183456D01*
X130119227Y-117334798D01*
X130105722Y-117355010D01*
X129996854Y-117487666D01*
X129979666Y-117504854D01*
X129847010Y-117613722D01*
X129826798Y-117627227D01*
X129675456Y-117708121D01*
X129652998Y-117717424D01*
X129488775Y-117767240D01*
X129464934Y-117771982D01*
X129288061Y-117789403D01*
X129275907Y-117790000D01*
X121488093Y-117790000D01*
X121475939Y-117789403D01*
X121299065Y-117771982D01*
X121275224Y-117767240D01*
X121111001Y-117717424D01*
X121088543Y-117708121D01*
X120937201Y-117627227D01*
X120916989Y-117613722D01*
X120784333Y-117504854D01*
X120767145Y-117487666D01*
X120658277Y-117355010D01*
X120644772Y-117334798D01*
X120563878Y-117183456D01*
X120554575Y-117160998D01*
X120504757Y-116996769D01*
X120500018Y-116972941D01*
X120482597Y-116796061D01*
X120482000Y-116783907D01*
X120482000Y-114696608D01*
X120482606Y-114684362D01*
X120484800Y-114662245D01*
X120500293Y-114506151D01*
X120505104Y-114482150D01*
X120557475Y-114310886D01*
X120561635Y-114299358D01*
X120899995Y-113489345D01*
X123276698Y-107799662D01*
X123327826Y-107677262D01*
X123354553Y-107637392D01*
X123622277Y-107369669D01*
X123693466Y-107263126D01*
X123730985Y-107172546D01*
X123742501Y-107144744D01*
X123751054Y-107101744D01*
X123767500Y-107019071D01*
X123767500Y-106756438D01*
X123787185Y-106689399D01*
X123792234Y-106682126D01*
X123810796Y-106657331D01*
X123820912Y-106630210D01*
X123854371Y-106540500D01*
X123861091Y-106522483D01*
X123867500Y-106462873D01*
X123867499Y-104539498D01*
X123887184Y-104472460D01*
X123939987Y-104426705D01*
X123991499Y-104415499D01*
X124979871Y-104415499D01*
X124979872Y-104415499D01*
X125039483Y-104409091D01*
X125039486Y-104409090D01*
X125059064Y-104401788D01*
X125128755Y-104396802D01*
X125190079Y-104430286D01*
G37*
%TD.AperFunction*%
%TD*%
%TA.AperFunction,Conductor*%
%TO.N,/VBUS*%
G36*
X119587086Y-61291210D02*
G01*
X119746300Y-61306963D01*
X119794381Y-61316571D01*
X119935621Y-61359621D01*
X119980883Y-61378463D01*
X120110942Y-61448353D01*
X120151636Y-61475702D01*
X120234134Y-61543837D01*
X120295535Y-61619130D01*
X120323448Y-61712189D01*
X120313624Y-61808846D01*
X120304317Y-61830941D01*
X120304428Y-61830983D01*
X120247908Y-61982518D01*
X120241500Y-62042123D01*
X120241500Y-63837865D01*
X120241501Y-63837869D01*
X120247908Y-63897480D01*
X120247909Y-63897484D01*
X120298203Y-64032329D01*
X120298204Y-64032331D01*
X120384454Y-64147546D01*
X120466788Y-64209181D01*
X120531710Y-64281457D01*
X120564032Y-64373078D01*
X120566538Y-64404807D01*
X120880768Y-85507309D01*
X120880725Y-85516979D01*
X120879212Y-85580137D01*
X120877998Y-85599439D01*
X120871590Y-85662268D01*
X120870422Y-85671868D01*
X119482000Y-95490000D01*
X119482000Y-95560343D01*
X119482000Y-95688659D01*
X119470726Y-95762736D01*
X119462914Y-95787804D01*
X119456501Y-95858369D01*
X119456501Y-96521630D01*
X119462913Y-96592188D01*
X119462916Y-96592199D01*
X119470726Y-96617263D01*
X119482000Y-96691339D01*
X119482000Y-106890000D01*
X119565842Y-107081640D01*
X119565844Y-107081644D01*
X119743007Y-107486589D01*
X119752067Y-107510596D01*
X119802971Y-107669886D01*
X119813466Y-107720055D01*
X119830678Y-107886401D01*
X119832000Y-107912028D01*
X119832000Y-116140000D01*
X119932000Y-123440000D01*
X120282000Y-124390000D01*
X132082000Y-124290000D01*
X132393311Y-123600731D01*
X132681356Y-122962971D01*
X132737848Y-122883938D01*
X132820291Y-122832535D01*
X132843845Y-122824952D01*
X132858316Y-122821074D01*
X132858320Y-122821074D01*
X132994669Y-122764596D01*
X133111754Y-122674754D01*
X133201596Y-122557669D01*
X133258074Y-122421320D01*
X133272500Y-122311741D01*
X133272499Y-121075998D01*
X133291453Y-120980711D01*
X133345429Y-120899930D01*
X133426211Y-120845953D01*
X133521499Y-120826999D01*
X134142500Y-120826999D01*
X134237788Y-120845953D01*
X134318570Y-120899929D01*
X134372546Y-120980711D01*
X134391500Y-121075999D01*
X134391500Y-122311740D01*
X134391501Y-122311742D01*
X134405925Y-122421319D01*
X134405927Y-122421324D01*
X134462403Y-122557668D01*
X134462404Y-122557669D01*
X134552246Y-122674754D01*
X134669331Y-122764596D01*
X134805680Y-122821074D01*
X134915259Y-122835500D01*
X135233000Y-122835499D01*
X135328287Y-122854453D01*
X135409069Y-122908429D01*
X135463046Y-122989210D01*
X135482000Y-123084498D01*
X135482000Y-125090000D01*
X135482038Y-125094291D01*
X135482041Y-125094700D01*
X135499683Y-127070519D01*
X135574011Y-135395267D01*
X135556200Y-135565025D01*
X135544006Y-135620072D01*
X135497697Y-135754630D01*
X135473429Y-135805526D01*
X135398030Y-135926220D01*
X135362934Y-135970350D01*
X135262316Y-136070983D01*
X135218194Y-136106084D01*
X135097512Y-136181503D01*
X135046619Y-136205780D01*
X134912064Y-136252112D01*
X134857015Y-136264315D01*
X134701325Y-136280673D01*
X134673122Y-136282026D01*
X125284067Y-136199666D01*
X125185393Y-136198800D01*
X125161140Y-136197403D01*
X125136982Y-136194823D01*
X125003635Y-136180581D01*
X124956103Y-136170746D01*
X124816533Y-136127320D01*
X124771810Y-136108450D01*
X124643319Y-136038771D01*
X124603107Y-136011582D01*
X124490573Y-135918295D01*
X124456405Y-135883827D01*
X124364102Y-135770472D01*
X124337268Y-135730024D01*
X124268718Y-135600926D01*
X124250243Y-135556045D01*
X124208038Y-135416086D01*
X124198625Y-135368489D01*
X124183184Y-135210824D01*
X124182000Y-135186572D01*
X124182000Y-130670317D01*
X124182000Y-130090000D01*
X123678149Y-129802086D01*
X123678147Y-129802084D01*
X123678139Y-129802079D01*
X120254482Y-127845704D01*
X119982000Y-127690000D01*
X119669418Y-127717909D01*
X119669415Y-127717909D01*
X119669399Y-127717910D01*
X115470893Y-128092777D01*
X115445275Y-128093740D01*
X115278217Y-128091409D01*
X115227363Y-128085434D01*
X115076914Y-128051797D01*
X115028358Y-128035547D01*
X114887968Y-127971846D01*
X114843762Y-127946006D01*
X114719373Y-127854937D01*
X114681387Y-127820601D01*
X114578258Y-127706016D01*
X114548100Y-127664640D01*
X114470586Y-127531374D01*
X114449530Y-127484703D01*
X114400915Y-127338403D01*
X114389850Y-127288409D01*
X114370710Y-127122441D01*
X114369088Y-127096856D01*
X114368777Y-127070519D01*
X114086484Y-103169697D01*
X114087194Y-103147769D01*
X114098153Y-103004799D01*
X114105357Y-102961489D01*
X114138501Y-102833374D01*
X114153204Y-102792002D01*
X114208338Y-102671715D01*
X114230088Y-102633562D01*
X114311256Y-102516539D01*
X114341541Y-102480646D01*
X114445660Y-102378575D01*
X114484699Y-102347336D01*
X114597231Y-102274526D01*
X114641731Y-102251716D01*
X114707695Y-102225895D01*
X114766542Y-102202861D01*
X114814699Y-102189403D01*
X114959183Y-102164318D01*
X114984010Y-102161284D01*
X115113013Y-102152070D01*
X115537492Y-102121751D01*
X115537496Y-102121750D01*
X115537498Y-102121750D01*
X115537499Y-102121749D01*
X115982000Y-102090000D01*
X116682000Y-101190000D01*
X116604215Y-85671868D01*
X116496995Y-64281457D01*
X116487099Y-62307272D01*
X116488183Y-62282794D01*
X116503098Y-62123703D01*
X116512437Y-62075647D01*
X116554669Y-61934357D01*
X116573234Y-61889056D01*
X116642299Y-61758768D01*
X116669367Y-61717982D01*
X116762598Y-61603724D01*
X116797124Y-61569024D01*
X116910919Y-61475217D01*
X116951569Y-61447945D01*
X117081509Y-61378229D01*
X117126710Y-61359440D01*
X117267791Y-61316498D01*
X117315799Y-61306918D01*
X117457729Y-61292894D01*
X117474810Y-61291207D01*
X117499293Y-61290000D01*
X119562569Y-61290000D01*
X119587086Y-61291210D01*
G37*
%TD.AperFunction*%
%TD*%
%TA.AperFunction,Conductor*%
%TO.N,/EPS Power Distribution/SW_5V*%
G36*
X159386042Y-119089103D02*
G01*
X159397108Y-119089702D01*
X159469413Y-119096869D01*
X159491169Y-119101013D01*
X159522186Y-119109856D01*
X159561062Y-119120939D01*
X159571578Y-119124453D01*
X160555472Y-119502874D01*
X160695349Y-119556673D01*
X160695352Y-119556673D01*
X160782000Y-119590000D01*
X160836094Y-119590000D01*
X160889325Y-119611099D01*
X160926442Y-119658746D01*
X160935192Y-119678564D01*
X160935193Y-119678565D01*
X161014634Y-119758006D01*
X161117408Y-119803385D01*
X161142534Y-119806300D01*
X161605099Y-119806299D01*
X161672138Y-119825983D01*
X161717893Y-119878787D01*
X161729099Y-119930299D01*
X161729099Y-120528556D01*
X161729101Y-120528582D01*
X161732012Y-120553687D01*
X161732014Y-120553691D01*
X161777392Y-120656464D01*
X161864959Y-120744031D01*
X161861739Y-120747250D01*
X161890937Y-120782113D01*
X161899717Y-120851429D01*
X161884487Y-120894056D01*
X161869177Y-120920384D01*
X161856643Y-120938147D01*
X160818386Y-122165177D01*
X159935746Y-123208297D01*
X159923365Y-123220967D01*
X159840685Y-123294262D01*
X159836576Y-123297906D01*
X159807003Y-123317368D01*
X159710154Y-123362822D01*
X159676288Y-123373134D01*
X159561661Y-123390732D01*
X159543971Y-123392163D01*
X149294719Y-123485338D01*
X149278432Y-123484413D01*
X149172549Y-123471370D01*
X149141039Y-123463182D01*
X149049842Y-123426134D01*
X149021549Y-123410027D01*
X148943136Y-123350517D01*
X148920014Y-123327605D01*
X148859789Y-123249730D01*
X148843429Y-123221590D01*
X148840713Y-123215076D01*
X148805551Y-123130729D01*
X148797078Y-123099296D01*
X148783073Y-122993535D01*
X148782000Y-122977257D01*
X148782000Y-119502874D01*
X148783073Y-119486594D01*
X148784328Y-119477110D01*
X148797083Y-119380806D01*
X148805556Y-119349381D01*
X148843451Y-119258496D01*
X148859812Y-119230361D01*
X148920057Y-119152479D01*
X148943181Y-119129569D01*
X149021623Y-119070056D01*
X149049913Y-119053957D01*
X149141148Y-119016913D01*
X149172650Y-119008735D01*
X149278558Y-118995714D01*
X149294836Y-118994793D01*
X159386042Y-119089103D01*
G37*
%TD.AperFunction*%
%TD*%
%TA.AperFunction,Conductor*%
%TO.N,/VBUS*%
G36*
X173264560Y-125206660D02*
G01*
X176372008Y-125229594D01*
X177274108Y-125236252D01*
X177290280Y-125237432D01*
X177351429Y-125245939D01*
X177395313Y-125252045D01*
X177426508Y-125260648D01*
X177447198Y-125269395D01*
X177516633Y-125298749D01*
X177544542Y-125315132D01*
X177621742Y-125375258D01*
X177644460Y-125398304D01*
X177703472Y-125476355D01*
X177719453Y-125504494D01*
X177747392Y-125573311D01*
X177756500Y-125619956D01*
X177756500Y-127149308D01*
X177764093Y-127177648D01*
X177768314Y-127210599D01*
X177760567Y-128326142D01*
X177760567Y-128326147D01*
X177760568Y-128326160D01*
X177757000Y-128840000D01*
X178723852Y-128820268D01*
X179686520Y-128800622D01*
X179702961Y-128801379D01*
X179809997Y-128813474D01*
X179841880Y-128821462D01*
X179934222Y-128858172D01*
X179962887Y-128874255D01*
X180042350Y-128933944D01*
X180065784Y-128956996D01*
X180125934Y-129034390D01*
X180151531Y-129099402D01*
X180152010Y-129108430D01*
X180195326Y-131724765D01*
X180195342Y-131727310D01*
X180184026Y-134579274D01*
X180182894Y-134595508D01*
X180168539Y-134700956D01*
X180159983Y-134732283D01*
X180121933Y-134822799D01*
X180105535Y-134850832D01*
X180045282Y-134928370D01*
X180022171Y-134951180D01*
X179943856Y-135010412D01*
X179915613Y-135026440D01*
X179824599Y-135063309D01*
X179793160Y-135071456D01*
X179687539Y-135084429D01*
X179671293Y-135085349D01*
X163738077Y-134940282D01*
X163706777Y-134935971D01*
X163704013Y-134935222D01*
X163582000Y-134740000D01*
X163632000Y-126840000D01*
X163607000Y-126840000D01*
X166910267Y-126817680D01*
X170197593Y-126795469D01*
X170510378Y-126793356D01*
X170510381Y-126793355D01*
X171007000Y-126790000D01*
X171007000Y-125701868D01*
X171008071Y-125685607D01*
X171022046Y-125579960D01*
X171030499Y-125548563D01*
X171068301Y-125457774D01*
X171084624Y-125429662D01*
X171144728Y-125351830D01*
X171167808Y-125328921D01*
X171246078Y-125269395D01*
X171274324Y-125253272D01*
X171365375Y-125216147D01*
X171396836Y-125207923D01*
X171502585Y-125194727D01*
X171518848Y-125193777D01*
X173264560Y-125206660D01*
G37*
%TD.AperFunction*%
%TD*%
%TA.AperFunction,Conductor*%
%TO.N,GND*%
G36*
X131422777Y-95609685D02*
G01*
X131468532Y-95662489D01*
X131478476Y-95731647D01*
X131465469Y-95768041D01*
X131466601Y-95768551D01*
X131463524Y-95775387D01*
X131412913Y-95937806D01*
X131406500Y-96008385D01*
X131406500Y-96671612D01*
X131412913Y-96742191D01*
X131412913Y-96742193D01*
X131412914Y-96742195D01*
X131463522Y-96904605D01*
X131464115Y-96905586D01*
X131464362Y-96906472D01*
X131466600Y-96911444D01*
X131465843Y-96911784D01*
X131482000Y-96969738D01*
X131482000Y-98442930D01*
X131462315Y-98509969D01*
X131457268Y-98517239D01*
X131453206Y-98522665D01*
X131453202Y-98522671D01*
X131402908Y-98657517D01*
X131396501Y-98717116D01*
X131396500Y-98717135D01*
X131396500Y-101012870D01*
X131396501Y-101012876D01*
X131402908Y-101072483D01*
X131453204Y-101207332D01*
X131457048Y-101214372D01*
X131471900Y-101282645D01*
X131447483Y-101348110D01*
X131391549Y-101389981D01*
X131377891Y-101394196D01*
X131231773Y-101430210D01*
X131081150Y-101509263D01*
X130953816Y-101622072D01*
X130857182Y-101762068D01*
X130796860Y-101921125D01*
X130796859Y-101921130D01*
X130776355Y-102090000D01*
X130796859Y-102258869D01*
X130796860Y-102258874D01*
X130857182Y-102417931D01*
X130903686Y-102485302D01*
X130953817Y-102557929D01*
X131054566Y-102647185D01*
X131091693Y-102706374D01*
X131090925Y-102776239D01*
X131054566Y-102832814D01*
X130953818Y-102922070D01*
X130953816Y-102922072D01*
X130857182Y-103062068D01*
X130796860Y-103221125D01*
X130796859Y-103221130D01*
X130776355Y-103390000D01*
X130796859Y-103558869D01*
X130796860Y-103558874D01*
X130857182Y-103717931D01*
X130919475Y-103808177D01*
X130953817Y-103857929D01*
X131025633Y-103921552D01*
X131081150Y-103970736D01*
X131231774Y-104049790D01*
X131271124Y-104059488D01*
X131377891Y-104085804D01*
X131438271Y-104120959D01*
X131470060Y-104183178D01*
X131463165Y-104252706D01*
X131457050Y-104265623D01*
X131453205Y-104272664D01*
X131402908Y-104407517D01*
X131396501Y-104467116D01*
X131396500Y-104467135D01*
X131396500Y-106762870D01*
X131396501Y-106762878D01*
X131402756Y-106821070D01*
X131390348Y-106889830D01*
X131342737Y-106940966D01*
X131276987Y-106958297D01*
X128903521Y-106910828D01*
X128836888Y-106889807D01*
X128792198Y-106836099D01*
X128782000Y-106786853D01*
X128782000Y-95714000D01*
X128801685Y-95646961D01*
X128854489Y-95601206D01*
X128906000Y-95590000D01*
X131355738Y-95590000D01*
X131422777Y-95609685D01*
G37*
%TD.AperFunction*%
%TA.AperFunction,Conductor*%
G36*
X135052321Y-101459441D02*
G01*
X135114492Y-101462772D01*
X135171165Y-101503637D01*
X135196748Y-101568654D01*
X135197181Y-101575837D01*
X135270523Y-103922773D01*
X135252943Y-103990394D01*
X135201593Y-104037776D01*
X135132779Y-104049875D01*
X135103251Y-104042828D01*
X135044481Y-104020908D01*
X135044482Y-104020908D01*
X134984882Y-104014501D01*
X134984880Y-104014500D01*
X134984872Y-104014500D01*
X134984864Y-104014500D01*
X134738372Y-104014500D01*
X134671333Y-103994815D01*
X134625578Y-103942011D01*
X134615634Y-103872853D01*
X134636320Y-103820062D01*
X134706818Y-103717930D01*
X134767140Y-103558872D01*
X134787645Y-103390000D01*
X134767140Y-103221128D01*
X134706818Y-103062070D01*
X134610183Y-102922071D01*
X134509431Y-102832812D01*
X134472307Y-102773627D01*
X134473074Y-102703761D01*
X134509430Y-102647187D01*
X134610183Y-102557929D01*
X134706818Y-102417930D01*
X134767140Y-102258872D01*
X134787645Y-102090000D01*
X134767140Y-101921128D01*
X134706818Y-101762070D01*
X134686157Y-101732137D01*
X134636322Y-101659939D01*
X134614439Y-101593585D01*
X134631904Y-101525933D01*
X134683172Y-101478463D01*
X134738372Y-101465499D01*
X134984870Y-101465499D01*
X134984871Y-101465499D01*
X135044482Y-101459091D01*
X135044488Y-101459088D01*
X135044722Y-101459034D01*
X135044916Y-101459044D01*
X135052195Y-101458262D01*
X135052321Y-101459441D01*
G37*
%TD.AperFunction*%
%TA.AperFunction,Conductor*%
G36*
X132216244Y-102508744D02*
G01*
X132234048Y-102529291D01*
X132253817Y-102557930D01*
X132354564Y-102647185D01*
X132391691Y-102706374D01*
X132390923Y-102776240D01*
X132354564Y-102832815D01*
X132253817Y-102922068D01*
X132234047Y-102950710D01*
X132179763Y-102994699D01*
X132110314Y-103002356D01*
X132047750Y-102971251D01*
X132029949Y-102950707D01*
X132010183Y-102922071D01*
X131909431Y-102832812D01*
X131872307Y-102773627D01*
X131873074Y-102703761D01*
X131909430Y-102647187D01*
X132010183Y-102557929D01*
X132029950Y-102529290D01*
X132084230Y-102485302D01*
X132153679Y-102477642D01*
X132216244Y-102508744D01*
G37*
%TD.AperFunction*%
%TA.AperFunction,Conductor*%
G36*
X133516246Y-102508745D02*
G01*
X133534049Y-102529291D01*
X133553815Y-102557927D01*
X133553816Y-102557928D01*
X133553817Y-102557929D01*
X133654566Y-102647185D01*
X133691693Y-102706374D01*
X133690925Y-102776239D01*
X133654566Y-102832814D01*
X133618631Y-102864650D01*
X133553816Y-102922071D01*
X133534049Y-102950709D01*
X133479765Y-102994698D01*
X133410316Y-103002356D01*
X133347752Y-102971252D01*
X133329951Y-102950708D01*
X133310184Y-102922071D01*
X133261054Y-102878546D01*
X133209434Y-102832814D01*
X133172308Y-102773626D01*
X133173076Y-102703761D01*
X133209434Y-102647185D01*
X133310183Y-102557930D01*
X133329950Y-102529293D01*
X133384232Y-102485302D01*
X133453681Y-102477642D01*
X133516246Y-102508745D01*
G37*
%TD.AperFunction*%
%TD*%
%TA.AperFunction,Conductor*%
%TO.N,GND*%
G36*
X192120387Y-93709685D02*
G01*
X192166142Y-93762489D01*
X192169529Y-93770665D01*
X192183205Y-93807333D01*
X192183206Y-93807334D01*
X192269453Y-93922544D01*
X192269456Y-93922547D01*
X192384665Y-94008793D01*
X192384672Y-94008797D01*
X192402837Y-94015572D01*
X192519518Y-94059091D01*
X192579128Y-94065500D01*
X192825629Y-94065499D01*
X192892667Y-94085183D01*
X192938422Y-94137987D01*
X192948366Y-94207146D01*
X192927678Y-94259939D01*
X192857183Y-94362068D01*
X192857182Y-94362068D01*
X192796860Y-94521125D01*
X192796859Y-94521130D01*
X192776355Y-94690000D01*
X192796859Y-94858869D01*
X192796860Y-94858874D01*
X192857182Y-95017931D01*
X192903686Y-95085302D01*
X192953817Y-95157929D01*
X193054566Y-95247185D01*
X193091693Y-95306374D01*
X193090925Y-95376239D01*
X193054566Y-95432814D01*
X192953818Y-95522070D01*
X192953816Y-95522072D01*
X192857182Y-95662068D01*
X192796860Y-95821125D01*
X192796859Y-95821130D01*
X192776355Y-95990000D01*
X192796859Y-96158869D01*
X192796860Y-96158874D01*
X192857182Y-96317931D01*
X192919475Y-96408177D01*
X192953817Y-96457929D01*
X193059505Y-96551560D01*
X193081150Y-96570736D01*
X193231774Y-96649790D01*
X193271124Y-96659488D01*
X193377891Y-96685804D01*
X193438271Y-96720959D01*
X193470060Y-96783178D01*
X193463165Y-96852706D01*
X193457050Y-96865623D01*
X193453205Y-96872664D01*
X193402908Y-97007517D01*
X193396501Y-97067116D01*
X193396500Y-97067135D01*
X193396501Y-98890500D01*
X193376816Y-98957539D01*
X193324013Y-99003294D01*
X193272501Y-99014500D01*
X191942452Y-99014500D01*
X191875413Y-98994815D01*
X191854771Y-98978181D01*
X191472198Y-98595608D01*
X191472178Y-98595586D01*
X191380733Y-98504141D01*
X191329509Y-98469915D01*
X191278287Y-98435689D01*
X191278286Y-98435688D01*
X191278283Y-98435686D01*
X191278280Y-98435685D01*
X191197792Y-98402347D01*
X191164453Y-98388537D01*
X191154427Y-98386543D01*
X191104029Y-98376518D01*
X191043610Y-98364500D01*
X191043607Y-98364500D01*
X191043606Y-98364500D01*
X189808320Y-98364500D01*
X189741281Y-98344815D01*
X189735423Y-98340809D01*
X189733103Y-98339123D01*
X189690444Y-98283788D01*
X189682000Y-98238814D01*
X189682000Y-95525581D01*
X189701685Y-95458542D01*
X189754489Y-95412787D01*
X189823647Y-95402843D01*
X189870151Y-95419465D01*
X189871812Y-95420469D01*
X189871815Y-95420472D01*
X190017394Y-95508478D01*
X190179804Y-95559086D01*
X190250384Y-95565500D01*
X190250387Y-95565500D01*
X190913613Y-95565500D01*
X190913616Y-95565500D01*
X190984196Y-95559086D01*
X191146606Y-95508478D01*
X191292185Y-95420472D01*
X191412472Y-95300185D01*
X191500478Y-95154606D01*
X191551086Y-94992196D01*
X191557500Y-94921616D01*
X191557500Y-94408384D01*
X191551086Y-94337804D01*
X191500478Y-94175394D01*
X191434343Y-94065994D01*
X191416507Y-93998442D01*
X191438024Y-93931968D01*
X191452774Y-93914170D01*
X191640626Y-93726319D01*
X191701949Y-93692834D01*
X191728307Y-93690000D01*
X192053348Y-93690000D01*
X192120387Y-93709685D01*
G37*
%TD.AperFunction*%
%TA.AperFunction,Conductor*%
G36*
X196891746Y-94999364D02*
G01*
X196927564Y-95059355D01*
X196931500Y-95090351D01*
X196931500Y-95589648D01*
X196911815Y-95656687D01*
X196859011Y-95702442D01*
X196789853Y-95712386D01*
X196726297Y-95683361D01*
X196705450Y-95660088D01*
X196644130Y-95571252D01*
X196610183Y-95522071D01*
X196509431Y-95432812D01*
X196472307Y-95373627D01*
X196473074Y-95303761D01*
X196509430Y-95247187D01*
X196610183Y-95157929D01*
X196705451Y-95019909D01*
X196759733Y-94975921D01*
X196829181Y-94968261D01*
X196891746Y-94999364D01*
G37*
%TD.AperFunction*%
%TA.AperFunction,Conductor*%
G36*
X194216244Y-95108744D02*
G01*
X194234048Y-95129291D01*
X194253817Y-95157930D01*
X194354564Y-95247185D01*
X194391691Y-95306374D01*
X194390923Y-95376240D01*
X194354564Y-95432815D01*
X194253817Y-95522068D01*
X194234047Y-95550710D01*
X194179763Y-95594699D01*
X194110314Y-95602356D01*
X194047750Y-95571251D01*
X194029949Y-95550707D01*
X194010183Y-95522071D01*
X193909431Y-95432812D01*
X193872307Y-95373627D01*
X193873074Y-95303761D01*
X193909430Y-95247187D01*
X194010183Y-95157929D01*
X194029950Y-95129290D01*
X194084230Y-95085302D01*
X194153679Y-95077642D01*
X194216244Y-95108744D01*
G37*
%TD.AperFunction*%
%TA.AperFunction,Conductor*%
G36*
X195516246Y-95108745D02*
G01*
X195534049Y-95129291D01*
X195553815Y-95157927D01*
X195553816Y-95157928D01*
X195553817Y-95157929D01*
X195654566Y-95247185D01*
X195691693Y-95306374D01*
X195690925Y-95376239D01*
X195654566Y-95432814D01*
X195625527Y-95458542D01*
X195553816Y-95522071D01*
X195534049Y-95550709D01*
X195479765Y-95594698D01*
X195410316Y-95602356D01*
X195347752Y-95571252D01*
X195329951Y-95550708D01*
X195310184Y-95522071D01*
X195294841Y-95508478D01*
X195209434Y-95432814D01*
X195172308Y-95373626D01*
X195173076Y-95303761D01*
X195209434Y-95247185D01*
X195310183Y-95157930D01*
X195329950Y-95129293D01*
X195384232Y-95085302D01*
X195453681Y-95077642D01*
X195516246Y-95108745D01*
G37*
%TD.AperFunction*%
%TD*%
%TA.AperFunction,Conductor*%
%TO.N,/3V3_ANT*%
G36*
X136225039Y-52709685D02*
G01*
X136270794Y-52762489D01*
X136282000Y-52814000D01*
X136282000Y-54866000D01*
X136262315Y-54933039D01*
X136209511Y-54978794D01*
X136158000Y-54990000D01*
X131706000Y-54990000D01*
X131638961Y-54970315D01*
X131593206Y-54917511D01*
X131582000Y-54866000D01*
X131582000Y-52814000D01*
X131601685Y-52746961D01*
X131654489Y-52701206D01*
X131706000Y-52690000D01*
X136158000Y-52690000D01*
X136225039Y-52709685D01*
G37*
%TD.AperFunction*%
%TD*%
%TA.AperFunction,Conductor*%
%TO.N,GND*%
G36*
X161975199Y-101109685D02*
G01*
X162007426Y-101139688D01*
X162069455Y-101222547D01*
X162184664Y-101308793D01*
X162184671Y-101308797D01*
X162202836Y-101315572D01*
X162319517Y-101359091D01*
X162379127Y-101365500D01*
X162625629Y-101365499D01*
X162692667Y-101385183D01*
X162738422Y-101437987D01*
X162748366Y-101507146D01*
X162727678Y-101559939D01*
X162657183Y-101662068D01*
X162657182Y-101662068D01*
X162596860Y-101821125D01*
X162596859Y-101821130D01*
X162576355Y-101990000D01*
X162596859Y-102158869D01*
X162596860Y-102158874D01*
X162657182Y-102317931D01*
X162659724Y-102321613D01*
X162753817Y-102457929D01*
X162854566Y-102547185D01*
X162891693Y-102606374D01*
X162890925Y-102676239D01*
X162854566Y-102732814D01*
X162755625Y-102820469D01*
X162753816Y-102822072D01*
X162657182Y-102962068D01*
X162596860Y-103121125D01*
X162596859Y-103121130D01*
X162576355Y-103290000D01*
X162596859Y-103458869D01*
X162596860Y-103458874D01*
X162657182Y-103617931D01*
X162712785Y-103698485D01*
X162753817Y-103757929D01*
X162848726Y-103842011D01*
X162881150Y-103870736D01*
X163031774Y-103949790D01*
X163059031Y-103956508D01*
X163177891Y-103985804D01*
X163238271Y-104020959D01*
X163270060Y-104083178D01*
X163263165Y-104152706D01*
X163257050Y-104165623D01*
X163253205Y-104172664D01*
X163202908Y-104307517D01*
X163196501Y-104367116D01*
X163196500Y-104367135D01*
X163196500Y-106662870D01*
X163196501Y-106662876D01*
X163202908Y-106722483D01*
X163253202Y-106857329D01*
X163257453Y-106865112D01*
X163255647Y-106866097D01*
X163275974Y-106920602D01*
X163270221Y-106967759D01*
X163258343Y-107004317D01*
X163218907Y-107061993D01*
X163154548Y-107089192D01*
X163140412Y-107090000D01*
X161386355Y-107090000D01*
X161319316Y-107070315D01*
X161308627Y-107062615D01*
X160761604Y-106622481D01*
X160235621Y-106199276D01*
X159428267Y-105549680D01*
X159388375Y-105492318D01*
X159382000Y-105453069D01*
X159382000Y-103085977D01*
X159401685Y-103018938D01*
X159454489Y-102973183D01*
X159517221Y-102962486D01*
X159550384Y-102965500D01*
X159550388Y-102965500D01*
X160213613Y-102965500D01*
X160213616Y-102965500D01*
X160284196Y-102959086D01*
X160446606Y-102908478D01*
X160592185Y-102820472D01*
X160712472Y-102700185D01*
X160800478Y-102554606D01*
X160851086Y-102392196D01*
X160857500Y-102321616D01*
X160857500Y-101808384D01*
X160851086Y-101737804D01*
X160800478Y-101575394D01*
X160712472Y-101429815D01*
X160712470Y-101429813D01*
X160712469Y-101429811D01*
X160668819Y-101386161D01*
X160635334Y-101324838D01*
X160632500Y-101298480D01*
X160632500Y-101252229D01*
X160652185Y-101185190D01*
X160668819Y-101164548D01*
X160707048Y-101126319D01*
X160768371Y-101092834D01*
X160794729Y-101090000D01*
X161908160Y-101090000D01*
X161975199Y-101109685D01*
G37*
%TD.AperFunction*%
%TA.AperFunction,Conductor*%
G36*
X166837462Y-101385184D02*
G01*
X166883217Y-101437988D01*
X166894362Y-101485626D01*
X166966440Y-103792108D01*
X166948860Y-103859729D01*
X166897510Y-103907111D01*
X166829247Y-103919270D01*
X166784873Y-103914500D01*
X166784867Y-103914500D01*
X166538372Y-103914500D01*
X166471333Y-103894815D01*
X166425578Y-103842011D01*
X166415634Y-103772853D01*
X166436320Y-103720062D01*
X166506818Y-103617930D01*
X166567140Y-103458872D01*
X166587645Y-103290000D01*
X166567140Y-103121128D01*
X166506818Y-102962070D01*
X166504758Y-102959086D01*
X166460315Y-102894699D01*
X166410183Y-102822071D01*
X166309431Y-102732812D01*
X166272307Y-102673627D01*
X166273074Y-102603761D01*
X166309430Y-102547187D01*
X166410183Y-102457929D01*
X166506818Y-102317930D01*
X166567140Y-102158872D01*
X166587645Y-101990000D01*
X166567140Y-101821128D01*
X166506818Y-101662070D01*
X166506817Y-101662068D01*
X166436322Y-101559939D01*
X166414439Y-101493585D01*
X166431904Y-101425933D01*
X166483172Y-101378463D01*
X166538372Y-101365499D01*
X166770423Y-101365499D01*
X166837462Y-101385184D01*
G37*
%TD.AperFunction*%
%TA.AperFunction,Conductor*%
G36*
X164016246Y-102408744D02*
G01*
X164034050Y-102429292D01*
X164053814Y-102457926D01*
X164053816Y-102457928D01*
X164053817Y-102457929D01*
X164154566Y-102547185D01*
X164191693Y-102606374D01*
X164190925Y-102676239D01*
X164154566Y-102732814D01*
X164115385Y-102767526D01*
X164053815Y-102822072D01*
X164034049Y-102850709D01*
X163979766Y-102894699D01*
X163910318Y-102902358D01*
X163847753Y-102871254D01*
X163829951Y-102850709D01*
X163810184Y-102822072D01*
X163808375Y-102820469D01*
X163709431Y-102732812D01*
X163672307Y-102673627D01*
X163673074Y-102603761D01*
X163709430Y-102547187D01*
X163810183Y-102457929D01*
X163829950Y-102429292D01*
X163884232Y-102385301D01*
X163953681Y-102377641D01*
X164016246Y-102408744D01*
G37*
%TD.AperFunction*%
%TA.AperFunction,Conductor*%
G36*
X165316246Y-102408744D02*
G01*
X165334050Y-102429292D01*
X165353814Y-102457926D01*
X165353816Y-102457928D01*
X165353817Y-102457929D01*
X165454566Y-102547185D01*
X165491693Y-102606374D01*
X165490925Y-102676239D01*
X165454566Y-102732814D01*
X165415385Y-102767526D01*
X165353815Y-102822072D01*
X165334049Y-102850709D01*
X165279766Y-102894699D01*
X165210318Y-102902358D01*
X165147753Y-102871254D01*
X165129951Y-102850709D01*
X165110184Y-102822072D01*
X165108375Y-102820469D01*
X165009431Y-102732812D01*
X164972307Y-102673627D01*
X164973074Y-102603761D01*
X165009430Y-102547187D01*
X165110183Y-102457929D01*
X165129950Y-102429292D01*
X165184232Y-102385301D01*
X165253681Y-102377641D01*
X165316246Y-102408744D01*
G37*
%TD.AperFunction*%
%TD*%
%TA.AperFunction,Conductor*%
%TO.N,GND*%
G36*
X170307987Y-66000682D02*
G01*
X170311090Y-66003680D01*
X173420181Y-69112771D01*
X173453666Y-69174094D01*
X173456500Y-69200452D01*
X173456500Y-70876109D01*
X173436815Y-70943148D01*
X173384011Y-70988903D01*
X173314853Y-70998847D01*
X173251297Y-70969822D01*
X173244819Y-70963790D01*
X172713763Y-70432734D01*
X172644098Y-70386186D01*
X172607217Y-70361543D01*
X172589174Y-70354069D01*
X172488832Y-70312506D01*
X172487604Y-70312262D01*
X172487603Y-70312262D01*
X172357184Y-70286319D01*
X172357678Y-70283835D01*
X172303140Y-70261780D01*
X172292453Y-70252260D01*
X172095142Y-70054950D01*
X172095135Y-70054943D01*
X172017697Y-69991859D01*
X172017694Y-69991857D01*
X172017691Y-69991855D01*
X171866143Y-69915745D01*
X171866139Y-69915744D01*
X171746454Y-69887378D01*
X171689043Y-69856041D01*
X171620059Y-69789612D01*
X171585425Y-69728935D01*
X171556256Y-69605861D01*
X171556254Y-69605857D01*
X171556254Y-69605856D01*
X171480143Y-69454307D01*
X171480141Y-69454303D01*
X171417059Y-69376865D01*
X170995135Y-68954943D01*
X170917697Y-68891859D01*
X170917694Y-68891857D01*
X170917691Y-68891855D01*
X170766142Y-68815745D01*
X170766140Y-68815744D01*
X170766139Y-68815744D01*
X170601113Y-68776632D01*
X170431515Y-68776632D01*
X170266489Y-68815744D01*
X170266485Y-68815745D01*
X170114933Y-68891858D01*
X170037488Y-68954944D01*
X170033343Y-68959089D01*
X169984882Y-68989038D01*
X169754703Y-69065765D01*
X169684879Y-69068290D01*
X169627809Y-69035809D01*
X168909983Y-68317983D01*
X168876498Y-68256660D01*
X168881482Y-68186968D01*
X168909983Y-68142621D01*
X169143580Y-67909024D01*
X169143589Y-67909015D01*
X169181210Y-67862333D01*
X169240998Y-67731417D01*
X169261479Y-67588960D01*
X169240998Y-67446502D01*
X169226232Y-67414171D01*
X169216289Y-67345014D01*
X169237233Y-67291851D01*
X170121619Y-66020547D01*
X170176060Y-65976757D01*
X170245536Y-65969351D01*
X170307987Y-66000682D01*
G37*
%TD.AperFunction*%
%TD*%
%TA.AperFunction,Conductor*%
%TO.N,GND*%
G36*
X187454599Y-120588193D02*
G01*
X187520921Y-120610176D01*
X187542208Y-120628851D01*
X188199882Y-121354559D01*
X188230315Y-121417452D01*
X188232000Y-121437827D01*
X188232000Y-122339044D01*
X188231986Y-122340923D01*
X188211804Y-123672919D01*
X188204000Y-123714372D01*
X188187909Y-123757514D01*
X188187908Y-123757516D01*
X188181501Y-123817116D01*
X188181500Y-123817135D01*
X188181500Y-123866000D01*
X188161815Y-123933039D01*
X188109011Y-123978794D01*
X188057500Y-123990000D01*
X187813311Y-123990000D01*
X187746272Y-123970315D01*
X187725629Y-123953680D01*
X187692970Y-123921021D01*
X187692971Y-123921021D01*
X187587507Y-123869462D01*
X187570412Y-123866971D01*
X187519135Y-123859501D01*
X187519129Y-123859501D01*
X185984863Y-123859501D01*
X185916497Y-123869461D01*
X185916492Y-123869462D01*
X185850140Y-123901901D01*
X185795679Y-123914501D01*
X185751884Y-123914501D01*
X185684845Y-123894816D01*
X185669657Y-123883316D01*
X185557852Y-123784266D01*
X185557850Y-123784264D01*
X185407226Y-123705210D01*
X185242056Y-123664500D01*
X185071944Y-123664500D01*
X184906773Y-123705210D01*
X184823033Y-123749161D01*
X184754525Y-123762887D01*
X184689471Y-123737395D01*
X184684406Y-123733252D01*
X182474999Y-121827097D01*
X182437098Y-121768401D01*
X182432000Y-121733210D01*
X182432000Y-120543349D01*
X182451685Y-120476310D01*
X182504489Y-120430555D01*
X182560272Y-120419423D01*
X187454599Y-120588193D01*
G37*
%TD.AperFunction*%
%TD*%
%TA.AperFunction,Conductor*%
%TO.N,/5V_COMM*%
G36*
X189525039Y-57709685D02*
G01*
X189570794Y-57762489D01*
X189582000Y-57814000D01*
X189582000Y-59966000D01*
X189562315Y-60033039D01*
X189509511Y-60078794D01*
X189458000Y-60090000D01*
X185006000Y-60090000D01*
X184938961Y-60070315D01*
X184893206Y-60017511D01*
X184882000Y-59966000D01*
X184882000Y-57814000D01*
X184901685Y-57746961D01*
X184954489Y-57701206D01*
X185006000Y-57690000D01*
X189458000Y-57690000D01*
X189525039Y-57709685D01*
G37*
%TD.AperFunction*%
%TD*%
%TA.AperFunction,Conductor*%
%TO.N,/VBUS0*%
G36*
X128615411Y-50149685D02*
G01*
X128661166Y-50202489D01*
X128672371Y-50253628D01*
X128701804Y-60064987D01*
X128682321Y-60132085D01*
X128648637Y-60167137D01*
X122815089Y-64226971D01*
X122748819Y-64249109D01*
X122741695Y-64249167D01*
X121129795Y-64215862D01*
X121063177Y-64194796D01*
X121018523Y-64141058D01*
X121015427Y-64133161D01*
X121008416Y-64113285D01*
X120987708Y-64063291D01*
X120987704Y-64063284D01*
X120907772Y-63943659D01*
X120842852Y-63871385D01*
X120787317Y-63820597D01*
X120751130Y-63760828D01*
X120747000Y-63729092D01*
X120747000Y-62113274D01*
X120754818Y-62069942D01*
X120774469Y-62017254D01*
X120776358Y-62012492D01*
X120779482Y-62005078D01*
X120781761Y-61999576D01*
X120788061Y-61974273D01*
X120789485Y-61969046D01*
X120797862Y-61940770D01*
X120797862Y-61940764D01*
X120799053Y-61934301D01*
X120799075Y-61934305D01*
X120801027Y-61922217D01*
X120816533Y-61859961D01*
X120826357Y-61763304D01*
X120828939Y-61709251D01*
X120820413Y-61652300D01*
X120807637Y-61566958D01*
X120791350Y-61512662D01*
X120779723Y-61473898D01*
X120779719Y-61473887D01*
X120779716Y-61473877D01*
X120761423Y-61422969D01*
X120687286Y-61299659D01*
X120674632Y-61284142D01*
X120674259Y-61283684D01*
X120647147Y-61219289D01*
X120658858Y-61151066D01*
X125207077Y-51804636D01*
X125988062Y-50199742D01*
X126035096Y-50148074D01*
X126099561Y-50130000D01*
X128548372Y-50130000D01*
X128615411Y-50149685D01*
G37*
%TD.AperFunction*%
%TD*%
%TA.AperFunction,Conductor*%
%TO.N,/EPS Power Distribution/12V_BUS*%
G36*
X189173836Y-114285354D02*
G01*
X189220195Y-114337629D01*
X189232000Y-114390433D01*
X189232000Y-118390000D01*
X190182000Y-119765000D01*
X193306192Y-119832917D01*
X193372785Y-119854053D01*
X193417381Y-119907839D01*
X193426590Y-119941940D01*
X193446859Y-120108868D01*
X193446860Y-120108874D01*
X193507182Y-120267931D01*
X193543255Y-120320191D01*
X193603817Y-120407929D01*
X193659520Y-120457277D01*
X193731150Y-120520736D01*
X193881773Y-120599789D01*
X193881775Y-120599790D01*
X194046944Y-120640500D01*
X194217056Y-120640500D01*
X194382225Y-120599790D01*
X194461692Y-120558081D01*
X194532849Y-120520736D01*
X194532850Y-120520734D01*
X194532852Y-120520734D01*
X194660183Y-120407929D01*
X194756818Y-120267930D01*
X194817140Y-120108872D01*
X194837645Y-119940000D01*
X194817140Y-119771128D01*
X194790057Y-119699717D01*
X194782000Y-119655747D01*
X194782000Y-117139498D01*
X194801685Y-117072459D01*
X194854489Y-117026704D01*
X194906000Y-117015498D01*
X195976856Y-117015498D01*
X195976864Y-117015498D01*
X195976879Y-117015496D01*
X195976882Y-117015496D01*
X196001987Y-117012585D01*
X196001991Y-117012584D01*
X196085829Y-116975566D01*
X196135915Y-116965000D01*
X197259033Y-116965000D01*
X197326072Y-116984685D01*
X197371827Y-117037489D01*
X197383029Y-117087962D01*
X197430960Y-122815728D01*
X197411837Y-122882930D01*
X197359418Y-122929125D01*
X197307727Y-122940764D01*
X189356616Y-122989694D01*
X189289457Y-122970422D01*
X189270868Y-122955993D01*
X188576515Y-122302484D01*
X188541188Y-122242203D01*
X188537500Y-122212187D01*
X188537500Y-121437838D01*
X188537500Y-121437827D01*
X188536461Y-121412648D01*
X188534776Y-121392273D01*
X188505312Y-121284385D01*
X188474879Y-121221492D01*
X188426253Y-121149410D01*
X188426250Y-121149407D01*
X188426249Y-121149405D01*
X187768601Y-120423725D01*
X187768588Y-120423712D01*
X187768579Y-120423702D01*
X187756239Y-120411559D01*
X187743686Y-120399205D01*
X187743673Y-120399194D01*
X187722380Y-120380513D01*
X187715303Y-120374495D01*
X187617043Y-120320192D01*
X187550714Y-120298207D01*
X187465122Y-120282873D01*
X185138944Y-120202660D01*
X185092856Y-120192047D01*
X184905703Y-120108868D01*
X184132000Y-119765000D01*
X184131998Y-119765000D01*
X182506000Y-119765000D01*
X182438961Y-119745315D01*
X182393206Y-119692511D01*
X182382000Y-119641000D01*
X182382000Y-114464000D01*
X182401685Y-114396961D01*
X182454489Y-114351206D01*
X182506000Y-114340000D01*
X182706984Y-114340000D01*
X182707000Y-114340000D01*
X189106577Y-114266441D01*
X189173836Y-114285354D01*
G37*
%TD.AperFunction*%
%TD*%
%TA.AperFunction,Conductor*%
%TO.N,/EPS Power Distribution/5V_BUS*%
G36*
X197074539Y-97135184D02*
G01*
X197120294Y-97187988D01*
X197131500Y-97239499D01*
X197131500Y-100718799D01*
X197111815Y-100785838D01*
X197091921Y-100809624D01*
X196934091Y-100956325D01*
X196871585Y-100987548D01*
X196849670Y-100989500D01*
X196703014Y-100989500D01*
X196549634Y-101027303D01*
X196409762Y-101100715D01*
X196291516Y-101205471D01*
X196201781Y-101335475D01*
X196201780Y-101335476D01*
X196146325Y-101481699D01*
X196118064Y-101525409D01*
X193433616Y-104209856D01*
X193430356Y-104213000D01*
X191068020Y-106408762D01*
X191041227Y-106427732D01*
X190981151Y-106459263D01*
X190981148Y-106459266D01*
X190853817Y-106572070D01*
X190853817Y-106572071D01*
X190792588Y-106660774D01*
X190774960Y-106681157D01*
X189728793Y-107653558D01*
X189717043Y-107663206D01*
X189636453Y-107721496D01*
X189609873Y-107736139D01*
X189524658Y-107770258D01*
X189495317Y-107778006D01*
X189396761Y-107791442D01*
X189381604Y-107792568D01*
X189348358Y-107792995D01*
X189341188Y-107793087D01*
X185682000Y-107840000D01*
X185634538Y-104090499D01*
X186081863Y-104090499D01*
X186081878Y-104090497D01*
X186081881Y-104090497D01*
X186106986Y-104087586D01*
X186106987Y-104087585D01*
X186106990Y-104087585D01*
X186209764Y-104042206D01*
X186289205Y-103962765D01*
X186318531Y-103896345D01*
X186360452Y-103846714D01*
X186394751Y-103827791D01*
X186394753Y-103827791D01*
X186394757Y-103827789D01*
X186394758Y-103827789D01*
X190349005Y-101646135D01*
X190912076Y-101335475D01*
X193185943Y-100080928D01*
X193245845Y-100065500D01*
X194778016Y-100065500D01*
X194778018Y-100065500D01*
X194886237Y-100036503D01*
X194983263Y-99980485D01*
X195074445Y-99889302D01*
X195135767Y-99855817D01*
X195159302Y-99853015D01*
X195732000Y-99840000D01*
X196082000Y-99390000D01*
X196082000Y-97398125D01*
X196083061Y-97381940D01*
X196096906Y-97276776D01*
X196105284Y-97245508D01*
X196127429Y-97192046D01*
X196171271Y-97137642D01*
X196237565Y-97115578D01*
X196241990Y-97115499D01*
X197007500Y-97115499D01*
X197074539Y-97135184D01*
G37*
%TD.AperFunction*%
%TD*%
%TA.AperFunction,Conductor*%
%TO.N,/3V3_ADCS*%
G36*
X176825039Y-50309685D02*
G01*
X176870794Y-50362489D01*
X176882000Y-50414000D01*
X176882000Y-54866000D01*
X176862315Y-54933039D01*
X176809511Y-54978794D01*
X176758000Y-54990000D01*
X174706000Y-54990000D01*
X174638961Y-54970315D01*
X174593206Y-54917511D01*
X174582000Y-54866000D01*
X174582000Y-54794877D01*
X174601685Y-54727838D01*
X174618320Y-54707195D01*
X174703100Y-54622416D01*
X174703100Y-54622415D01*
X174703123Y-54622393D01*
X174739288Y-54582131D01*
X174755922Y-54561489D01*
X174787567Y-54517605D01*
X174847338Y-54386728D01*
X174867023Y-54319689D01*
X174867024Y-54319685D01*
X174887500Y-54177269D01*
X174887500Y-50414000D01*
X174907185Y-50346961D01*
X174959989Y-50301206D01*
X175011500Y-50290000D01*
X176758000Y-50290000D01*
X176825039Y-50309685D01*
G37*
%TD.AperFunction*%
%TD*%
%TA.AperFunction,Conductor*%
%TO.N,GND*%
G36*
X151652586Y-101209685D02*
G01*
X151662202Y-101217434D01*
X151662355Y-101217230D01*
X151669455Y-101222545D01*
X151784670Y-101308795D01*
X151784671Y-101308795D01*
X151784672Y-101308796D01*
X151798625Y-101314000D01*
X151919518Y-101359090D01*
X151979128Y-101365499D01*
X152225629Y-101365498D01*
X152292667Y-101385182D01*
X152338422Y-101437986D01*
X152348366Y-101507145D01*
X152327678Y-101559938D01*
X152257183Y-101662067D01*
X152257182Y-101662067D01*
X152196860Y-101821124D01*
X152196859Y-101821129D01*
X152176355Y-101989999D01*
X152196859Y-102158868D01*
X152196860Y-102158873D01*
X152257182Y-102317930D01*
X152303686Y-102385301D01*
X152353817Y-102457928D01*
X152454566Y-102547184D01*
X152491693Y-102606373D01*
X152490925Y-102676238D01*
X152454566Y-102732813D01*
X152353818Y-102822069D01*
X152353816Y-102822071D01*
X152257182Y-102962067D01*
X152196860Y-103121124D01*
X152196859Y-103121129D01*
X152176355Y-103289999D01*
X152196859Y-103458868D01*
X152196860Y-103458873D01*
X152257182Y-103617930D01*
X152312786Y-103698485D01*
X152353817Y-103757928D01*
X152397415Y-103796552D01*
X152481150Y-103870735D01*
X152631774Y-103949789D01*
X152659035Y-103956508D01*
X152777891Y-103985803D01*
X152838271Y-104020958D01*
X152870060Y-104083177D01*
X152863165Y-104152705D01*
X152857050Y-104165622D01*
X152853205Y-104172663D01*
X152802908Y-104307516D01*
X152796501Y-104367115D01*
X152796500Y-104367134D01*
X152796500Y-106662869D01*
X152796501Y-106662875D01*
X152803421Y-106727247D01*
X152791014Y-106796006D01*
X152743403Y-106847143D01*
X152680131Y-106864500D01*
X150792452Y-106864500D01*
X150725413Y-106844815D01*
X150704771Y-106828181D01*
X149218319Y-105341729D01*
X149184834Y-105280406D01*
X149182000Y-105254048D01*
X149182000Y-102286034D01*
X149201685Y-102218995D01*
X149254489Y-102173240D01*
X149323647Y-102163296D01*
X149370149Y-102179917D01*
X149417394Y-102208478D01*
X149579804Y-102259086D01*
X149650384Y-102265500D01*
X149650387Y-102265500D01*
X150313613Y-102265500D01*
X150313616Y-102265500D01*
X150384196Y-102259086D01*
X150546606Y-102208478D01*
X150692185Y-102120472D01*
X150812472Y-102000185D01*
X150900478Y-101854606D01*
X150951086Y-101692196D01*
X150957500Y-101621616D01*
X150957500Y-101314000D01*
X150977185Y-101246961D01*
X151029989Y-101201206D01*
X151081500Y-101190000D01*
X151585547Y-101190000D01*
X151652586Y-101209685D01*
G37*
%TD.AperFunction*%
%TA.AperFunction,Conductor*%
G36*
X156653624Y-101358451D02*
G01*
X156687109Y-101419774D01*
X156689882Y-101442259D01*
X156765436Y-103859993D01*
X156747855Y-103927614D01*
X156696506Y-103974996D01*
X156627692Y-103987095D01*
X156582074Y-103972701D01*
X156579328Y-103971202D01*
X156444481Y-103920907D01*
X156444482Y-103920907D01*
X156384882Y-103914500D01*
X156384880Y-103914499D01*
X156384872Y-103914499D01*
X156384864Y-103914499D01*
X156138372Y-103914499D01*
X156071333Y-103894814D01*
X156025578Y-103842010D01*
X156015634Y-103772852D01*
X156036320Y-103720061D01*
X156106818Y-103617929D01*
X156167140Y-103458871D01*
X156187645Y-103289999D01*
X156167140Y-103121127D01*
X156106818Y-102962069D01*
X156010183Y-102822070D01*
X155909431Y-102732811D01*
X155872307Y-102673626D01*
X155873074Y-102603760D01*
X155909430Y-102547186D01*
X156010183Y-102457928D01*
X156106818Y-102317929D01*
X156167140Y-102158871D01*
X156187645Y-101989999D01*
X156167140Y-101821127D01*
X156106818Y-101662069D01*
X156106817Y-101662067D01*
X156036322Y-101559938D01*
X156014439Y-101493584D01*
X156031904Y-101425932D01*
X156083172Y-101378462D01*
X156138372Y-101365498D01*
X156384870Y-101365498D01*
X156384871Y-101365498D01*
X156444482Y-101359090D01*
X156522610Y-101329949D01*
X156592301Y-101324966D01*
X156653624Y-101358451D01*
G37*
%TD.AperFunction*%
%TA.AperFunction,Conductor*%
G36*
X153616244Y-102408743D02*
G01*
X153634048Y-102429290D01*
X153653817Y-102457929D01*
X153754564Y-102547184D01*
X153791691Y-102606373D01*
X153790923Y-102676239D01*
X153754564Y-102732814D01*
X153653817Y-102822067D01*
X153634047Y-102850709D01*
X153579763Y-102894698D01*
X153510314Y-102902355D01*
X153447750Y-102871250D01*
X153429949Y-102850706D01*
X153410183Y-102822070D01*
X153309431Y-102732811D01*
X153272307Y-102673626D01*
X153273074Y-102603760D01*
X153309430Y-102547186D01*
X153410183Y-102457928D01*
X153429950Y-102429289D01*
X153484230Y-102385301D01*
X153553679Y-102377641D01*
X153616244Y-102408743D01*
G37*
%TD.AperFunction*%
%TA.AperFunction,Conductor*%
G36*
X154916246Y-102408744D02*
G01*
X154934049Y-102429290D01*
X154953815Y-102457926D01*
X154953816Y-102457927D01*
X154953817Y-102457928D01*
X155054566Y-102547184D01*
X155091693Y-102606373D01*
X155090925Y-102676238D01*
X155054566Y-102732813D01*
X155018631Y-102764649D01*
X154953816Y-102822070D01*
X154934049Y-102850708D01*
X154879765Y-102894697D01*
X154810316Y-102902355D01*
X154747752Y-102871251D01*
X154729951Y-102850707D01*
X154710184Y-102822070D01*
X154710181Y-102822067D01*
X154609434Y-102732813D01*
X154572308Y-102673625D01*
X154573076Y-102603760D01*
X154609434Y-102547184D01*
X154710183Y-102457929D01*
X154729950Y-102429292D01*
X154784232Y-102385301D01*
X154853681Y-102377641D01*
X154916246Y-102408744D01*
G37*
%TD.AperFunction*%
%TD*%
%TA.AperFunction,Conductor*%
%TO.N,GND*%
G36*
X132882000Y-111490010D02*
G01*
X132886270Y-111490037D01*
X132886394Y-111490038D01*
X144162435Y-111589826D01*
X144163372Y-111589839D01*
X144180836Y-111590160D01*
X144183170Y-111590226D01*
X144200468Y-111590874D01*
X144201571Y-111590920D01*
X145933840Y-111672439D01*
X145999877Y-111695252D01*
X146043099Y-111750149D01*
X146049781Y-111819698D01*
X146020158Y-111879273D01*
X145949466Y-111957784D01*
X145854821Y-112121715D01*
X145854818Y-112121722D01*
X145799803Y-112291043D01*
X145796326Y-112301744D01*
X145776540Y-112490000D01*
X145796326Y-112678256D01*
X145796327Y-112678259D01*
X145854818Y-112858277D01*
X145854821Y-112858284D01*
X145949467Y-113022216D01*
X146036015Y-113118337D01*
X146076129Y-113162888D01*
X146229265Y-113274148D01*
X146229270Y-113274151D01*
X146402192Y-113351142D01*
X146402197Y-113351144D01*
X146587354Y-113390500D01*
X146587355Y-113390500D01*
X146776644Y-113390500D01*
X146776646Y-113390500D01*
X146961803Y-113351144D01*
X147134730Y-113274151D01*
X147287871Y-113162888D01*
X147414533Y-113022216D01*
X147509179Y-112858284D01*
X147567674Y-112678256D01*
X147581168Y-112549855D01*
X147607752Y-112485242D01*
X147616791Y-112475153D01*
X147645890Y-112446054D01*
X147707212Y-112412572D01*
X147733568Y-112409739D01*
X147897386Y-112409739D01*
X148062555Y-112369029D01*
X148184992Y-112304768D01*
X148253497Y-112291043D01*
X148318551Y-112316535D01*
X148352828Y-112357737D01*
X148354891Y-112361738D01*
X148363652Y-112383618D01*
X148410576Y-112543360D01*
X148415041Y-112566516D01*
X148431438Y-112738163D01*
X148432000Y-112749955D01*
X148432000Y-112905654D01*
X148417009Y-112964755D01*
X148376150Y-113040116D01*
X148376148Y-113040121D01*
X148341943Y-113118337D01*
X148341931Y-113118367D01*
X148328497Y-113157887D01*
X148307944Y-113240765D01*
X148307937Y-113240800D01*
X148286368Y-113375724D01*
X148281411Y-113418169D01*
X148279863Y-113439046D01*
X148278510Y-113481783D01*
X148323848Y-117743338D01*
X148323848Y-117743339D01*
X148325222Y-117872584D01*
X148325222Y-117872588D01*
X148337577Y-117978423D01*
X148337579Y-117978434D01*
X148349011Y-118029125D01*
X148349012Y-118029131D01*
X148383273Y-118130011D01*
X148383276Y-118130016D01*
X148412008Y-118174278D01*
X148431999Y-118241227D01*
X148432000Y-118241794D01*
X148432000Y-118927039D01*
X148415194Y-118989371D01*
X148407658Y-119002330D01*
X148406463Y-119004386D01*
X148376882Y-119063958D01*
X148376881Y-119063961D01*
X148338986Y-119154848D01*
X148338984Y-119154851D01*
X148317492Y-119217765D01*
X148317483Y-119217793D01*
X148309015Y-119249201D01*
X148309013Y-119249210D01*
X148298759Y-119300448D01*
X148295958Y-119314441D01*
X148283158Y-119411079D01*
X148283143Y-119411194D01*
X148283114Y-119411421D01*
X148281942Y-119420276D01*
X148278665Y-119453371D01*
X148277594Y-119469617D01*
X148276500Y-119502875D01*
X148276500Y-122977252D01*
X148277595Y-123010517D01*
X148278667Y-123026780D01*
X148281946Y-123059887D01*
X148295952Y-123165653D01*
X148295957Y-123165679D01*
X148308998Y-123230861D01*
X148317473Y-123262297D01*
X148338972Y-123325239D01*
X148338972Y-123325240D01*
X148373768Y-123408708D01*
X148373848Y-123408904D01*
X148376847Y-123416096D01*
X148376866Y-123416138D01*
X148406416Y-123475658D01*
X148422778Y-123503802D01*
X148432000Y-123517502D01*
X148432000Y-123940000D01*
X148985267Y-123942941D01*
X149013905Y-123952434D01*
X149013913Y-123952436D01*
X149013916Y-123952437D01*
X149045407Y-123960620D01*
X149045415Y-123960622D01*
X149110747Y-123973078D01*
X149216630Y-123986121D01*
X149249769Y-123989100D01*
X149266056Y-123990025D01*
X149299314Y-123990817D01*
X152504972Y-123961674D01*
X152506390Y-123961672D01*
X153132000Y-123965000D01*
X156831256Y-123984676D01*
X156843342Y-123985332D01*
X157019551Y-124003575D01*
X157043280Y-124008410D01*
X157206734Y-124058765D01*
X157229076Y-124068124D01*
X157379620Y-124149301D01*
X157399716Y-124162826D01*
X157531601Y-124271723D01*
X157548684Y-124288897D01*
X157656880Y-124421362D01*
X157670294Y-124441525D01*
X157750666Y-124592494D01*
X157759907Y-124614888D01*
X157809393Y-124778608D01*
X157814104Y-124802372D01*
X157831407Y-124978653D01*
X157832000Y-124990766D01*
X157832000Y-126775405D01*
X157831396Y-126787626D01*
X157820951Y-126893091D01*
X157804280Y-126944003D01*
X157579712Y-127323633D01*
X157528638Y-127371311D01*
X157472987Y-127384500D01*
X146635852Y-127384500D01*
X146635823Y-127384501D01*
X146635798Y-127384501D01*
X146634742Y-127384502D01*
X146634062Y-127384505D01*
X146633915Y-127384506D01*
X146633292Y-127384508D01*
X146633112Y-127384509D01*
X146632818Y-127384509D01*
X146631613Y-127384514D01*
X146630972Y-127384517D01*
X146628967Y-127384529D01*
X146628578Y-127384532D01*
X146628577Y-127384531D01*
X146626893Y-127384546D01*
X146626740Y-127384548D01*
X146624541Y-127384572D01*
X146624425Y-127384573D01*
X146622962Y-127384592D01*
X146621498Y-127384611D01*
X146621458Y-127384611D01*
X146620637Y-127384622D01*
X146620234Y-127384628D01*
X146620110Y-127384629D01*
X146619913Y-127384632D01*
X146619777Y-127384635D01*
X146618953Y-127384649D01*
X146618948Y-127384649D01*
X145103813Y-127410329D01*
X145103786Y-127410329D01*
X136502728Y-127556109D01*
X136442888Y-127541864D01*
X136422987Y-127531393D01*
X136402938Y-127518222D01*
X136271065Y-127411993D01*
X136253928Y-127395210D01*
X136245038Y-127384633D01*
X136144964Y-127265565D01*
X136131387Y-127245807D01*
X136049427Y-127097615D01*
X136039903Y-127075602D01*
X136010051Y-126982871D01*
X136004091Y-126945980D01*
X136004073Y-126944003D01*
X135987521Y-125090187D01*
X135987518Y-125089815D01*
X135987504Y-125088331D01*
X135987500Y-125087231D01*
X135987500Y-123084500D01*
X135985076Y-123059887D01*
X135977787Y-122985880D01*
X135958833Y-122890592D01*
X135945449Y-122838156D01*
X135894142Y-122730919D01*
X135882000Y-122677404D01*
X135882000Y-122499525D01*
X135901685Y-122432486D01*
X135954489Y-122386731D01*
X136023647Y-122376787D01*
X136056434Y-122386245D01*
X136202197Y-122451144D01*
X136387354Y-122490500D01*
X136387355Y-122490500D01*
X136576644Y-122490500D01*
X136576646Y-122490500D01*
X136761803Y-122451144D01*
X136934730Y-122374151D01*
X137087871Y-122262888D01*
X137214533Y-122122216D01*
X137309179Y-121958284D01*
X137367674Y-121778256D01*
X137387460Y-121590000D01*
X137367674Y-121401744D01*
X137309179Y-121221716D01*
X137214533Y-121057784D01*
X137087871Y-120917112D01*
X137080206Y-120911543D01*
X136934734Y-120805851D01*
X136934729Y-120805848D01*
X136761807Y-120728857D01*
X136761802Y-120728855D01*
X136616001Y-120697865D01*
X136576646Y-120689500D01*
X136387354Y-120689500D01*
X136354897Y-120696398D01*
X136202197Y-120728855D01*
X136202192Y-120728857D01*
X136029270Y-120805848D01*
X136029269Y-120805849D01*
X136027208Y-120807347D01*
X136025813Y-120807844D01*
X136023637Y-120809101D01*
X136023407Y-120808702D01*
X135961401Y-120830824D01*
X135893347Y-120814996D01*
X135882000Y-120803319D01*
X135882000Y-120590000D01*
X135743436Y-120586535D01*
X135743265Y-120586313D01*
X135711754Y-120545246D01*
X135594669Y-120455404D01*
X135557546Y-120440027D01*
X135503143Y-120396186D01*
X135481078Y-120329891D01*
X135480999Y-120325520D01*
X135480999Y-118574532D01*
X135500684Y-118507494D01*
X135553488Y-118461739D01*
X135557498Y-118459992D01*
X135594669Y-118444596D01*
X135711754Y-118354754D01*
X135801596Y-118237669D01*
X135858074Y-118101320D01*
X135872500Y-117991741D01*
X135872499Y-116609890D01*
X135892184Y-116542852D01*
X135923611Y-116509574D01*
X135987871Y-116462888D01*
X136114533Y-116322216D01*
X136209179Y-116158284D01*
X136267674Y-115978256D01*
X136287460Y-115790000D01*
X136275256Y-115673892D01*
X136287825Y-115605167D01*
X136335557Y-115554143D01*
X136403297Y-115537025D01*
X136450088Y-115548140D01*
X136529741Y-115584517D01*
X136667696Y-115625024D01*
X136810111Y-115645500D01*
X136810114Y-115645500D01*
X137432000Y-115645500D01*
X137503940Y-115640355D01*
X137515726Y-115636893D01*
X137566559Y-115635534D01*
X137566804Y-115633262D01*
X137583387Y-115635044D01*
X137634127Y-115640500D01*
X138729872Y-115640499D01*
X138789483Y-115634091D01*
X138924331Y-115583796D01*
X139039546Y-115497546D01*
X139125796Y-115382331D01*
X139176091Y-115247483D01*
X139182500Y-115187873D01*
X139182499Y-113592128D01*
X139176091Y-113532517D01*
X139157168Y-113481783D01*
X139125797Y-113397671D01*
X139125793Y-113397664D01*
X139039547Y-113282455D01*
X139039544Y-113282452D01*
X138924335Y-113196206D01*
X138924328Y-113196202D01*
X138789482Y-113145908D01*
X138789483Y-113145908D01*
X138729883Y-113139501D01*
X138729881Y-113139500D01*
X138729873Y-113139500D01*
X138729865Y-113139500D01*
X138596742Y-113139500D01*
X138529703Y-113119815D01*
X138509061Y-113103181D01*
X137935367Y-112529487D01*
X137935365Y-112529485D01*
X137841227Y-112475134D01*
X137804136Y-112453719D01*
X137730950Y-112434109D01*
X137657766Y-112414500D01*
X136157766Y-112414500D01*
X136006233Y-112414500D01*
X136006231Y-112414500D01*
X135963571Y-112425930D01*
X135963572Y-112425931D01*
X135859865Y-112453719D01*
X135859863Y-112453719D01*
X135859863Y-112453720D01*
X135728635Y-112529485D01*
X135728632Y-112529487D01*
X134229939Y-114028181D01*
X134168616Y-114061666D01*
X134142258Y-114064500D01*
X133406234Y-114064500D01*
X133259863Y-114103719D01*
X133128635Y-114179485D01*
X133128632Y-114179487D01*
X132671487Y-114636632D01*
X132671485Y-114636635D01*
X132595719Y-114767863D01*
X132556500Y-114914234D01*
X132556500Y-116242771D01*
X132536815Y-116309810D01*
X132530876Y-116318257D01*
X132512404Y-116342329D01*
X132455926Y-116478679D01*
X132455925Y-116478681D01*
X132441500Y-116588258D01*
X132441500Y-117949000D01*
X132421815Y-118016039D01*
X132369011Y-118061794D01*
X132317500Y-118073000D01*
X131985630Y-118073000D01*
X131985623Y-118073001D01*
X131926016Y-118079408D01*
X131791171Y-118129702D01*
X131791164Y-118129706D01*
X131675955Y-118215952D01*
X131675952Y-118215955D01*
X131589706Y-118331164D01*
X131589702Y-118331171D01*
X131539408Y-118466017D01*
X131533001Y-118525616D01*
X131533000Y-118525635D01*
X131533000Y-118678876D01*
X131513315Y-118745915D01*
X131460511Y-118791670D01*
X131391353Y-118801614D01*
X131327797Y-118772589D01*
X131291363Y-118718088D01*
X131072598Y-118061794D01*
X130834890Y-117348671D01*
X130832123Y-117339100D01*
X130797299Y-117197602D01*
X130794110Y-117177950D01*
X130782401Y-117032695D01*
X130782000Y-117022732D01*
X130782000Y-112496092D01*
X130782597Y-112483938D01*
X130789905Y-112409739D01*
X130800018Y-112307056D01*
X130804757Y-112283232D01*
X130854577Y-112118994D01*
X130863875Y-112096549D01*
X130944775Y-111945195D01*
X130958272Y-111924995D01*
X131067149Y-111792328D01*
X131084328Y-111775149D01*
X131216995Y-111666272D01*
X131237195Y-111652775D01*
X131388549Y-111571875D01*
X131410994Y-111562577D01*
X131575232Y-111512757D01*
X131599056Y-111508018D01*
X131775939Y-111490597D01*
X131788093Y-111490000D01*
X132877554Y-111490000D01*
X132877830Y-111490000D01*
X132882000Y-111490010D01*
G37*
%TD.AperFunction*%
%TD*%
%TA.AperFunction,Conductor*%
%TO.N,GND*%
G36*
X192053005Y-108109685D02*
G01*
X192098760Y-108162489D01*
X192108704Y-108231647D01*
X192092082Y-108278149D01*
X192075347Y-108305833D01*
X192063523Y-108325392D01*
X192012913Y-108487807D01*
X192006500Y-108558386D01*
X192006500Y-109221613D01*
X192012913Y-109292192D01*
X192012913Y-109292194D01*
X192012914Y-109292196D01*
X192063522Y-109454606D01*
X192151528Y-109600185D01*
X192151530Y-109600187D01*
X192160178Y-109608835D01*
X192193665Y-109670157D01*
X192196500Y-109696519D01*
X192196500Y-110690040D01*
X192176815Y-110757079D01*
X192124011Y-110802834D01*
X192054853Y-110812778D01*
X192029167Y-110806222D01*
X191934487Y-110770909D01*
X191934486Y-110770908D01*
X191934484Y-110770908D01*
X191874874Y-110764499D01*
X191874864Y-110764499D01*
X191279130Y-110764499D01*
X191279124Y-110764500D01*
X191219517Y-110770907D01*
X191084672Y-110821201D01*
X191084665Y-110821205D01*
X190969456Y-110907451D01*
X190969453Y-110907454D01*
X190883207Y-111022663D01*
X190883203Y-111022670D01*
X190832909Y-111157516D01*
X190826502Y-111217115D01*
X190826501Y-111217134D01*
X190826501Y-113512869D01*
X190826502Y-113512875D01*
X190832909Y-113572482D01*
X190883203Y-113707327D01*
X190883207Y-113707334D01*
X190969453Y-113822543D01*
X190969456Y-113822546D01*
X191084665Y-113908792D01*
X191084672Y-113908796D01*
X191102837Y-113915571D01*
X191219518Y-113959090D01*
X191279128Y-113965499D01*
X191525629Y-113965498D01*
X191592667Y-113985182D01*
X191638422Y-114037986D01*
X191648366Y-114107145D01*
X191627678Y-114159938D01*
X191557183Y-114262067D01*
X191557182Y-114262067D01*
X191496860Y-114421124D01*
X191496859Y-114421129D01*
X191476355Y-114589999D01*
X191496859Y-114758868D01*
X191496860Y-114758873D01*
X191557182Y-114917930D01*
X191603686Y-114985301D01*
X191653817Y-115057928D01*
X191754566Y-115147184D01*
X191791693Y-115206373D01*
X191790925Y-115276238D01*
X191754566Y-115332813D01*
X191653818Y-115422069D01*
X191653816Y-115422071D01*
X191557182Y-115562067D01*
X191496860Y-115721124D01*
X191496859Y-115721129D01*
X191476355Y-115889999D01*
X191496859Y-116058868D01*
X191496860Y-116058873D01*
X191557182Y-116217930D01*
X191619475Y-116308176D01*
X191653817Y-116357928D01*
X191731008Y-116426313D01*
X191781150Y-116470735D01*
X191931774Y-116549789D01*
X191970903Y-116559433D01*
X192077891Y-116585803D01*
X192138271Y-116620958D01*
X192170060Y-116683177D01*
X192163165Y-116752705D01*
X192157050Y-116765622D01*
X192153205Y-116772663D01*
X192102908Y-116907516D01*
X192096501Y-116967115D01*
X192096500Y-116967134D01*
X192096500Y-119174273D01*
X192076815Y-119241312D01*
X192024011Y-119287067D01*
X191969805Y-119298244D01*
X190620180Y-119268904D01*
X190553584Y-119247767D01*
X190530029Y-119227125D01*
X190055609Y-118691207D01*
X190046436Y-118679500D01*
X189759481Y-118264169D01*
X189737569Y-118197825D01*
X189737500Y-118193684D01*
X189737500Y-114390434D01*
X189725322Y-114280147D01*
X189721281Y-114262069D01*
X189713517Y-114227341D01*
X189677570Y-114122366D01*
X189598397Y-114002228D01*
X189552038Y-113949953D01*
X189552037Y-113949952D01*
X189548872Y-113946859D01*
X189549866Y-113945841D01*
X189514813Y-113892636D01*
X189509395Y-113854792D01*
X189550605Y-110582719D01*
X189559295Y-110538657D01*
X189570121Y-110511301D01*
X189590618Y-110447400D01*
X189598553Y-110415523D01*
X189610404Y-110349476D01*
X189622341Y-110242501D01*
X189624954Y-110209042D01*
X189625690Y-110192596D01*
X189626076Y-110159009D01*
X189587255Y-108373281D01*
X189605478Y-108305833D01*
X189657275Y-108258941D01*
X189672263Y-108252869D01*
X189712553Y-108239540D01*
X189797768Y-108205421D01*
X189853790Y-108178897D01*
X189880370Y-108164254D01*
X189932706Y-108131087D01*
X189956984Y-108113526D01*
X190022839Y-108090187D01*
X190029655Y-108090000D01*
X191985966Y-108090000D01*
X192053005Y-108109685D01*
G37*
%TD.AperFunction*%
%TA.AperFunction,Conductor*%
G36*
X195959803Y-113956147D02*
G01*
X195993287Y-114017470D01*
X195996060Y-114039955D01*
X196068521Y-116358692D01*
X196050941Y-116426313D01*
X195999591Y-116473695D01*
X195982628Y-116480584D01*
X195909938Y-116504017D01*
X195871892Y-116509998D01*
X195441479Y-116509998D01*
X195374440Y-116490313D01*
X195328685Y-116437509D01*
X195318741Y-116368351D01*
X195339429Y-116315558D01*
X195406817Y-116217930D01*
X195406816Y-116217930D01*
X195406818Y-116217929D01*
X195467140Y-116058871D01*
X195487645Y-115889999D01*
X195467140Y-115721127D01*
X195406818Y-115562069D01*
X195310183Y-115422070D01*
X195209431Y-115332811D01*
X195172307Y-115273626D01*
X195173074Y-115203760D01*
X195209430Y-115147186D01*
X195310183Y-115057928D01*
X195406818Y-114917929D01*
X195467140Y-114758871D01*
X195487645Y-114589999D01*
X195467140Y-114421127D01*
X195455499Y-114390433D01*
X195406817Y-114262067D01*
X195336322Y-114159938D01*
X195314439Y-114093584D01*
X195331904Y-114025932D01*
X195383172Y-113978462D01*
X195438372Y-113965498D01*
X195684870Y-113965498D01*
X195684871Y-113965498D01*
X195744482Y-113959090D01*
X195777275Y-113946859D01*
X195828788Y-113927646D01*
X195898479Y-113922662D01*
X195959803Y-113956147D01*
G37*
%TD.AperFunction*%
%TA.AperFunction,Conductor*%
G36*
X192916244Y-115008743D02*
G01*
X192934048Y-115029290D01*
X192953817Y-115057929D01*
X193054564Y-115147184D01*
X193091691Y-115206373D01*
X193090923Y-115276239D01*
X193054564Y-115332814D01*
X192953817Y-115422067D01*
X192934047Y-115450709D01*
X192879763Y-115494698D01*
X192810314Y-115502355D01*
X192747750Y-115471250D01*
X192729949Y-115450706D01*
X192710183Y-115422070D01*
X192609431Y-115332811D01*
X192572307Y-115273626D01*
X192573074Y-115203760D01*
X192609430Y-115147186D01*
X192710183Y-115057928D01*
X192729950Y-115029289D01*
X192784230Y-114985301D01*
X192853679Y-114977641D01*
X192916244Y-115008743D01*
G37*
%TD.AperFunction*%
%TA.AperFunction,Conductor*%
G36*
X194216246Y-115008744D02*
G01*
X194234049Y-115029290D01*
X194253815Y-115057926D01*
X194253816Y-115057927D01*
X194253817Y-115057928D01*
X194354566Y-115147184D01*
X194391693Y-115206373D01*
X194390925Y-115276238D01*
X194354566Y-115332813D01*
X194318631Y-115364649D01*
X194253816Y-115422070D01*
X194234049Y-115450708D01*
X194179765Y-115494697D01*
X194110316Y-115502355D01*
X194047752Y-115471251D01*
X194029951Y-115450707D01*
X194010184Y-115422070D01*
X194010181Y-115422067D01*
X193909434Y-115332813D01*
X193872308Y-115273625D01*
X193873076Y-115203760D01*
X193909434Y-115147184D01*
X194010183Y-115057929D01*
X194029950Y-115029292D01*
X194084232Y-114985301D01*
X194153681Y-114977641D01*
X194216246Y-115008744D01*
G37*
%TD.AperFunction*%
%TD*%
%TA.AperFunction,Conductor*%
%TO.N,GND*%
G36*
X181271545Y-101014334D02*
G01*
X181287360Y-101020232D01*
X181324517Y-101034091D01*
X181384127Y-101040500D01*
X181630628Y-101040499D01*
X181697666Y-101060183D01*
X181743421Y-101112987D01*
X181753365Y-101182146D01*
X181732677Y-101234939D01*
X181662182Y-101337068D01*
X181662181Y-101337068D01*
X181601859Y-101496125D01*
X181601858Y-101496130D01*
X181581354Y-101665000D01*
X181601858Y-101833869D01*
X181601859Y-101833874D01*
X181662181Y-101992931D01*
X181708685Y-102060302D01*
X181758816Y-102132929D01*
X181859565Y-102222185D01*
X181896692Y-102281374D01*
X181895924Y-102351239D01*
X181859565Y-102407814D01*
X181758817Y-102497070D01*
X181758815Y-102497072D01*
X181662181Y-102637068D01*
X181601859Y-102796125D01*
X181601858Y-102796130D01*
X181581354Y-102965000D01*
X181601858Y-103133869D01*
X181601859Y-103133874D01*
X181662181Y-103292931D01*
X181719966Y-103376645D01*
X181758816Y-103432929D01*
X181853725Y-103517011D01*
X181886149Y-103545736D01*
X182036773Y-103624790D01*
X182076123Y-103634488D01*
X182182890Y-103660804D01*
X182243270Y-103695959D01*
X182275059Y-103758178D01*
X182268164Y-103827706D01*
X182262049Y-103840623D01*
X182258204Y-103847664D01*
X182207907Y-103982517D01*
X182201500Y-104042116D01*
X182201499Y-104042135D01*
X182201499Y-106337870D01*
X182201500Y-106337876D01*
X182207907Y-106397481D01*
X182217301Y-106422666D01*
X182222285Y-106492358D01*
X182188800Y-106553681D01*
X182127477Y-106587166D01*
X182101119Y-106590000D01*
X179518844Y-106590000D01*
X179451805Y-106570315D01*
X179420619Y-106541682D01*
X179220551Y-106282019D01*
X179220549Y-106282017D01*
X179140186Y-106199277D01*
X179140185Y-106199276D01*
X179096670Y-106163680D01*
X178999643Y-106101311D01*
X178999637Y-106101308D01*
X178862806Y-106056850D01*
X178795545Y-106045210D01*
X178794247Y-106044967D01*
X178793952Y-106044934D01*
X178641266Y-106040575D01*
X178641329Y-106038352D01*
X178584585Y-106028523D01*
X178533117Y-105981271D01*
X178531928Y-105979254D01*
X178498613Y-105921550D01*
X178482000Y-105859551D01*
X178482000Y-102630020D01*
X178501685Y-102562981D01*
X178554489Y-102517226D01*
X178623647Y-102507282D01*
X178687203Y-102536307D01*
X178693681Y-102542339D01*
X178771811Y-102620469D01*
X178771813Y-102620470D01*
X178771815Y-102620472D01*
X178917394Y-102708478D01*
X179079804Y-102759086D01*
X179150384Y-102765500D01*
X179150387Y-102765500D01*
X179813613Y-102765500D01*
X179813616Y-102765500D01*
X179884196Y-102759086D01*
X180046606Y-102708478D01*
X180192185Y-102620472D01*
X180312472Y-102500185D01*
X180400478Y-102354606D01*
X180451086Y-102192196D01*
X180457500Y-102121616D01*
X180457500Y-101777229D01*
X180477185Y-101710190D01*
X180493815Y-101689552D01*
X181140533Y-101042833D01*
X181201854Y-101009350D01*
X181271545Y-101014334D01*
G37*
%TD.AperFunction*%
%TA.AperFunction,Conductor*%
G36*
X185857403Y-101035212D02*
G01*
X185916840Y-101038388D01*
X185973518Y-101079245D01*
X185999111Y-101144259D01*
X185999545Y-101151459D01*
X186069082Y-103376645D01*
X186051501Y-103444266D01*
X186027523Y-103473197D01*
X185974278Y-103520524D01*
X185974275Y-103520528D01*
X185956971Y-103541014D01*
X185898677Y-103579526D01*
X185862243Y-103584999D01*
X185634533Y-103584999D01*
X185581546Y-103589126D01*
X185571918Y-103589500D01*
X185543371Y-103589500D01*
X185476332Y-103569815D01*
X185430577Y-103517011D01*
X185420633Y-103447853D01*
X185441319Y-103395062D01*
X185511817Y-103292930D01*
X185572139Y-103133872D01*
X185592644Y-102965000D01*
X185572139Y-102796128D01*
X185560523Y-102765500D01*
X185538898Y-102708477D01*
X185511817Y-102637070D01*
X185415182Y-102497071D01*
X185314430Y-102407812D01*
X185277306Y-102348627D01*
X185278073Y-102278761D01*
X185314429Y-102222187D01*
X185415182Y-102132929D01*
X185511817Y-101992930D01*
X185572139Y-101833872D01*
X185592644Y-101665000D01*
X185572139Y-101496128D01*
X185570955Y-101493007D01*
X185550230Y-101438358D01*
X185511817Y-101337070D01*
X185511816Y-101337068D01*
X185441321Y-101234939D01*
X185419438Y-101168585D01*
X185436903Y-101100933D01*
X185488171Y-101053463D01*
X185543371Y-101040499D01*
X185789869Y-101040499D01*
X185789870Y-101040499D01*
X185849481Y-101034091D01*
X185849480Y-101034091D01*
X185857194Y-101033262D01*
X185857403Y-101035212D01*
G37*
%TD.AperFunction*%
%TA.AperFunction,Conductor*%
G36*
X183021243Y-102083744D02*
G01*
X183039047Y-102104291D01*
X183058816Y-102132930D01*
X183159563Y-102222185D01*
X183196690Y-102281374D01*
X183195922Y-102351240D01*
X183159563Y-102407815D01*
X183058816Y-102497068D01*
X183039046Y-102525710D01*
X182984762Y-102569699D01*
X182915313Y-102577356D01*
X182852749Y-102546251D01*
X182834948Y-102525707D01*
X182822230Y-102507282D01*
X182815182Y-102497071D01*
X182714430Y-102407812D01*
X182677306Y-102348627D01*
X182678073Y-102278761D01*
X182714429Y-102222187D01*
X182815182Y-102132929D01*
X182834949Y-102104290D01*
X182889229Y-102060302D01*
X182958678Y-102052642D01*
X183021243Y-102083744D01*
G37*
%TD.AperFunction*%
%TA.AperFunction,Conductor*%
G36*
X184321245Y-102083745D02*
G01*
X184339048Y-102104291D01*
X184358814Y-102132927D01*
X184358815Y-102132928D01*
X184358816Y-102132929D01*
X184459565Y-102222185D01*
X184496692Y-102281374D01*
X184495924Y-102351239D01*
X184459565Y-102407814D01*
X184423630Y-102439650D01*
X184358815Y-102497071D01*
X184339048Y-102525709D01*
X184284764Y-102569698D01*
X184215315Y-102577356D01*
X184152751Y-102546252D01*
X184134950Y-102525708D01*
X184115183Y-102497071D01*
X184115180Y-102497068D01*
X184014433Y-102407814D01*
X183977307Y-102348626D01*
X183978075Y-102278761D01*
X184014433Y-102222185D01*
X184115182Y-102132930D01*
X184134949Y-102104293D01*
X184189231Y-102060302D01*
X184258680Y-102052642D01*
X184321245Y-102083745D01*
G37*
%TD.AperFunction*%
%TD*%
%TA.AperFunction,Conductor*%
%TO.N,GND*%
G36*
X175046405Y-79911006D02*
G01*
X175073113Y-79931298D01*
X175172375Y-80030559D01*
X175266873Y-80125057D01*
X175344311Y-80188141D01*
X175488051Y-80260330D01*
X175517906Y-80281339D01*
X175724514Y-80478109D01*
X175751912Y-80519976D01*
X175752510Y-80519677D01*
X175755128Y-80524891D01*
X175755514Y-80525480D01*
X175755750Y-80526128D01*
X175831864Y-80677684D01*
X175831867Y-80677689D01*
X175894949Y-80755127D01*
X176316873Y-81177049D01*
X176394311Y-81240133D01*
X176460757Y-81273503D01*
X176511830Y-81321180D01*
X176529020Y-81388902D01*
X176506868Y-81455167D01*
X176501840Y-81461838D01*
X176501650Y-81462131D01*
X176422910Y-81618916D01*
X176382452Y-81789619D01*
X176382451Y-81789630D01*
X176382451Y-81965064D01*
X176382452Y-81965075D01*
X176422910Y-82135778D01*
X176422912Y-82135781D01*
X176501649Y-82292562D01*
X176566906Y-82372669D01*
X177008861Y-82814623D01*
X177008869Y-82814629D01*
X177008874Y-82814634D01*
X177088960Y-82879875D01*
X177088963Y-82879877D01*
X177088968Y-82879881D01*
X177212871Y-82942106D01*
X177263945Y-82989784D01*
X177281135Y-83057506D01*
X177258983Y-83123771D01*
X177248972Y-83136329D01*
X176826073Y-83601517D01*
X176822003Y-83605785D01*
X176698941Y-83728849D01*
X176635847Y-83806299D01*
X176632169Y-83811981D01*
X176631352Y-83811452D01*
X176619403Y-83828856D01*
X176566345Y-83887218D01*
X176506684Y-83923581D01*
X176436834Y-83921916D01*
X176386913Y-83891486D01*
X176051035Y-83555608D01*
X176051015Y-83555586D01*
X175959572Y-83464143D01*
X175907233Y-83429172D01*
X175907232Y-83429171D01*
X175857123Y-83395688D01*
X175857124Y-83395688D01*
X175857122Y-83395687D01*
X175816876Y-83379017D01*
X175776629Y-83362347D01*
X175776627Y-83362345D01*
X175776627Y-83362346D01*
X175747931Y-83350459D01*
X175693528Y-83306617D01*
X175671465Y-83240322D01*
X175677454Y-83197584D01*
X175713967Y-83085211D01*
X175733753Y-82896955D01*
X175713967Y-82708699D01*
X175655472Y-82528671D01*
X175560826Y-82364739D01*
X175434164Y-82224067D01*
X175433436Y-82223538D01*
X175281027Y-82112806D01*
X175281022Y-82112803D01*
X175108100Y-82035812D01*
X175108095Y-82035810D01*
X174962294Y-82004820D01*
X174922939Y-81996455D01*
X174733647Y-81996455D01*
X174733645Y-81996455D01*
X174570523Y-82031127D01*
X174500856Y-82025811D01*
X174453489Y-81993793D01*
X174101006Y-81610659D01*
X174073745Y-81563172D01*
X173703954Y-80361353D01*
X173703054Y-80291492D01*
X173734789Y-80237210D01*
X173898522Y-80073477D01*
X173959843Y-80039994D01*
X174029535Y-80044978D01*
X174036631Y-80047878D01*
X174102537Y-80077221D01*
X174277413Y-80114392D01*
X174277414Y-80114392D01*
X174456193Y-80114392D01*
X174456195Y-80114392D01*
X174631071Y-80077221D01*
X174794397Y-80004504D01*
X174912549Y-79918660D01*
X174978351Y-79895181D01*
X175046405Y-79911006D01*
G37*
%TD.AperFunction*%
%TD*%
%TA.AperFunction,Conductor*%
%TO.N,/5V_ADCS*%
G36*
X174325039Y-50309685D02*
G01*
X174370794Y-50362489D01*
X174382000Y-50414000D01*
X174382000Y-54177269D01*
X174362315Y-54244308D01*
X174345681Y-54264950D01*
X174074050Y-54536580D01*
X174074044Y-54536588D01*
X174024812Y-54610268D01*
X174024813Y-54610269D01*
X173991921Y-54659496D01*
X173991914Y-54659508D01*
X173935342Y-54796086D01*
X173933573Y-54801919D01*
X173930894Y-54801106D01*
X173903829Y-54852412D01*
X173842994Y-54886775D01*
X173814897Y-54890000D01*
X172306000Y-54890000D01*
X172238961Y-54870315D01*
X172193206Y-54817511D01*
X172182000Y-54766000D01*
X172182000Y-50414000D01*
X172201685Y-50346961D01*
X172254489Y-50301206D01*
X172306000Y-50290000D01*
X174258000Y-50290000D01*
X174325039Y-50309685D01*
G37*
%TD.AperFunction*%
%TD*%
%TA.AperFunction,Conductor*%
%TO.N,/EPS Power Distribution/5V_BUS*%
G36*
X168474248Y-104221234D02*
G01*
X168521682Y-104272536D01*
X168525166Y-104280200D01*
X168527684Y-104286279D01*
X168527690Y-104286290D01*
X168541874Y-104307517D01*
X168541875Y-104307518D01*
X168596140Y-104388731D01*
X168596141Y-104388732D01*
X168596142Y-104388733D01*
X168683267Y-104475858D01*
X168683268Y-104475858D01*
X168690335Y-104482925D01*
X168690334Y-104482925D01*
X168690338Y-104482928D01*
X170129537Y-105922128D01*
X170141056Y-105935409D01*
X170930812Y-106988416D01*
X171082000Y-107190000D01*
X171331999Y-107190000D01*
X171346047Y-107190000D01*
X171413086Y-107209685D01*
X171433724Y-107226314D01*
X171509149Y-107301740D01*
X171533268Y-107325859D01*
X171584491Y-107360085D01*
X171635715Y-107394312D01*
X171677470Y-107411607D01*
X171677471Y-107411608D01*
X171677472Y-107411608D01*
X171749548Y-107441463D01*
X171769597Y-107445451D01*
X171803196Y-107452134D01*
X171870392Y-107465501D01*
X171870394Y-107465501D01*
X171999721Y-107465501D01*
X171999741Y-107465500D01*
X174403607Y-107465500D01*
X174464029Y-107453481D01*
X174524452Y-107441463D01*
X174524455Y-107441461D01*
X174524458Y-107441461D01*
X174557787Y-107427654D01*
X174557786Y-107427654D01*
X174557792Y-107427652D01*
X174638286Y-107394312D01*
X174689509Y-107360084D01*
X174740733Y-107325858D01*
X174827858Y-107238733D01*
X174827860Y-107238729D01*
X174876589Y-107190000D01*
X175132000Y-107190000D01*
X175166900Y-107015499D01*
X175214871Y-107015499D01*
X175214872Y-107015499D01*
X175274483Y-107009091D01*
X175409331Y-106958796D01*
X175524546Y-106872546D01*
X175610796Y-106757331D01*
X175661091Y-106622483D01*
X175667500Y-106562873D01*
X175667499Y-104639498D01*
X175687184Y-104572460D01*
X175739987Y-104526705D01*
X175791499Y-104515499D01*
X176779871Y-104515499D01*
X176779872Y-104515499D01*
X176839483Y-104509091D01*
X176969167Y-104460721D01*
X177038857Y-104455738D01*
X177100180Y-104489223D01*
X177133665Y-104550546D01*
X177136499Y-104576904D01*
X177136499Y-105793802D01*
X177116814Y-105860841D01*
X177104650Y-105876773D01*
X177095139Y-105887336D01*
X177005749Y-106042164D01*
X177005746Y-106042170D01*
X176950503Y-106212192D01*
X176950502Y-106212194D01*
X176931814Y-106390000D01*
X176950502Y-106567805D01*
X176950503Y-106567807D01*
X177005746Y-106737829D01*
X177005749Y-106737835D01*
X177095140Y-106892665D01*
X177136811Y-106938946D01*
X177214763Y-107025521D01*
X177214766Y-107025523D01*
X177214769Y-107025526D01*
X177359406Y-107130612D01*
X177522732Y-107203329D01*
X177697608Y-107240500D01*
X177697609Y-107240500D01*
X177876388Y-107240500D01*
X177876390Y-107240500D01*
X178051266Y-107203329D01*
X178214592Y-107130612D01*
X178359229Y-107025526D01*
X178368258Y-107015499D01*
X178398730Y-106981656D01*
X178478858Y-106892665D01*
X178568249Y-106737835D01*
X178603967Y-106627906D01*
X178643403Y-106570232D01*
X178707761Y-106543033D01*
X178776607Y-106554947D01*
X178820122Y-106590543D01*
X179126675Y-106988409D01*
X179126678Y-106988412D01*
X179282000Y-107190000D01*
X181596423Y-107126879D01*
X183092365Y-107086080D01*
X183159914Y-107103930D01*
X183207091Y-107155467D01*
X183218916Y-107224328D01*
X183213674Y-107248352D01*
X183196326Y-107301744D01*
X183176540Y-107490000D01*
X183196326Y-107678256D01*
X183196327Y-107678259D01*
X183254818Y-107858277D01*
X183254821Y-107858284D01*
X183349467Y-108022216D01*
X183422639Y-108103481D01*
X183476129Y-108162888D01*
X183629265Y-108274148D01*
X183629270Y-108274151D01*
X183802192Y-108351142D01*
X183802197Y-108351144D01*
X183987354Y-108390500D01*
X183987355Y-108390500D01*
X184176644Y-108390500D01*
X184176646Y-108390500D01*
X184361803Y-108351144D01*
X184534730Y-108274151D01*
X184687871Y-108162888D01*
X184814533Y-108022216D01*
X184909179Y-107858284D01*
X184967674Y-107678256D01*
X184987460Y-107490000D01*
X184967674Y-107301744D01*
X184909179Y-107121716D01*
X184901890Y-107109091D01*
X184864112Y-107043656D01*
X184847499Y-106981656D01*
X184847499Y-106664833D01*
X184867184Y-106597794D01*
X184872224Y-106590533D01*
X184915795Y-106532331D01*
X184966090Y-106397483D01*
X184972499Y-106337873D01*
X184972498Y-104414498D01*
X184992183Y-104347460D01*
X185044986Y-104301705D01*
X185096498Y-104290499D01*
X185637070Y-104290499D01*
X185682000Y-107840000D01*
X189069098Y-107796575D01*
X189074673Y-108052982D01*
X189074673Y-108052984D01*
X189120695Y-110169996D01*
X189119959Y-110186442D01*
X189108022Y-110293417D01*
X189100087Y-110325294D01*
X189063538Y-110417652D01*
X189047509Y-110446329D01*
X189029164Y-110470839D01*
X188987992Y-110525843D01*
X188964996Y-110549302D01*
X188886688Y-110610397D01*
X188858338Y-110626996D01*
X188766735Y-110665383D01*
X188735021Y-110673955D01*
X188628297Y-110688028D01*
X188611876Y-110689091D01*
X174856725Y-110665086D01*
X172215433Y-110660476D01*
X170318547Y-110657166D01*
X170251542Y-110637364D01*
X170238364Y-110627569D01*
X170191042Y-110587260D01*
X170191041Y-110587259D01*
X170191036Y-110587255D01*
X170159945Y-110564694D01*
X170159935Y-110564687D01*
X170092945Y-110523620D01*
X170075676Y-110514802D01*
X169989588Y-110470839D01*
X169917041Y-110440649D01*
X169880514Y-110428684D01*
X169804177Y-110410103D01*
X169717529Y-110396034D01*
X169717469Y-110396025D01*
X169707874Y-110394467D01*
X169679940Y-110389932D01*
X169640935Y-110385147D01*
X169621747Y-110383548D01*
X169621732Y-110383547D01*
X169621728Y-110383547D01*
X169606390Y-110382867D01*
X169582436Y-110381806D01*
X164088333Y-110352268D01*
X160785915Y-110334512D01*
X160784901Y-110334509D01*
X160784882Y-110334509D01*
X160784765Y-110334508D01*
X160783768Y-110334504D01*
X160783768Y-110334505D01*
X160782914Y-110334503D01*
X160782808Y-110334503D01*
X160782795Y-110334502D01*
X160781569Y-110334501D01*
X160781557Y-110334501D01*
X160781545Y-110334500D01*
X160780749Y-110334500D01*
X160741632Y-110334500D01*
X160702507Y-110336016D01*
X160683373Y-110337501D01*
X160644414Y-110342051D01*
X160625478Y-110345011D01*
X160625446Y-110345017D01*
X160549283Y-110363058D01*
X160549268Y-110363062D01*
X160549266Y-110363063D01*
X160549260Y-110363065D01*
X160512803Y-110374747D01*
X160440280Y-110404362D01*
X160423147Y-110412963D01*
X160388845Y-110431876D01*
X160372427Y-110441778D01*
X160339674Y-110463305D01*
X160221288Y-110547867D01*
X160189267Y-110572739D01*
X160174081Y-110585543D01*
X160144137Y-110612918D01*
X160072022Y-110684368D01*
X160072019Y-110684372D01*
X160019205Y-110745844D01*
X160019197Y-110745855D01*
X159995887Y-110777856D01*
X159995883Y-110777862D01*
X159953567Y-110846992D01*
X159949009Y-110855988D01*
X159945194Y-110863518D01*
X159938092Y-110877534D01*
X159912251Y-110928527D01*
X159912249Y-110928531D01*
X159881533Y-111003517D01*
X159869495Y-111041286D01*
X159869491Y-111041301D01*
X159851154Y-111120233D01*
X159851150Y-111120252D01*
X159836183Y-111220638D01*
X159831816Y-111260964D01*
X159830472Y-111280759D01*
X159829351Y-111321337D01*
X159878538Y-115256248D01*
X159878538Y-115256249D01*
X159879573Y-115339083D01*
X159895734Y-116632035D01*
X159895737Y-116634890D01*
X159887285Y-117437848D01*
X159885586Y-117457044D01*
X159864781Y-117581150D01*
X159852632Y-117617605D01*
X159799331Y-117720682D01*
X159776605Y-117751669D01*
X159694300Y-117833484D01*
X159663181Y-117856023D01*
X159559786Y-117908711D01*
X159523259Y-117920642D01*
X159399035Y-117940707D01*
X159379839Y-117942292D01*
X148955248Y-117989893D01*
X148888124Y-117970515D01*
X148842128Y-117917921D01*
X148830693Y-117867217D01*
X148829319Y-117737960D01*
X148783982Y-113476404D01*
X148785529Y-113455529D01*
X148807102Y-113320578D01*
X148820538Y-113281053D01*
X148885675Y-113160912D01*
X148897180Y-113143407D01*
X150325159Y-111325979D01*
X150432000Y-111190000D01*
X150432000Y-108788510D01*
X150433483Y-108769388D01*
X150452798Y-108645635D01*
X150464451Y-108609218D01*
X150516199Y-108505943D01*
X150538389Y-108474814D01*
X150619154Y-108392213D01*
X150649782Y-108369324D01*
X150751870Y-108315270D01*
X150788015Y-108302803D01*
X150911301Y-108280711D01*
X150930369Y-108278800D01*
X153495794Y-108221150D01*
X154538068Y-108197729D01*
X154538069Y-108197728D01*
X154538070Y-108197728D01*
X154538070Y-108197727D01*
X154882000Y-108190000D01*
X155264926Y-107117805D01*
X155306010Y-107061296D01*
X155307389Y-107060248D01*
X155309328Y-107058795D01*
X155309331Y-107058795D01*
X155424546Y-106972545D01*
X155510796Y-106857330D01*
X155561091Y-106722482D01*
X155567500Y-106662872D01*
X155567499Y-104739497D01*
X155587184Y-104672459D01*
X155639987Y-104626704D01*
X155691499Y-104615498D01*
X156679871Y-104615498D01*
X156679872Y-104615498D01*
X156739483Y-104609090D01*
X156874331Y-104558795D01*
X156989546Y-104472545D01*
X157022966Y-104427901D01*
X157078898Y-104386032D01*
X157148589Y-104381048D01*
X157199964Y-104405603D01*
X160444718Y-107016325D01*
X161047870Y-107501620D01*
X161282000Y-107690000D01*
X161464467Y-107685899D01*
X161464470Y-107685900D01*
X163244221Y-107645905D01*
X163311684Y-107664079D01*
X163354392Y-107707873D01*
X163394442Y-107777241D01*
X163521104Y-107917913D01*
X163674240Y-108029173D01*
X163674245Y-108029176D01*
X163847167Y-108106167D01*
X163847172Y-108106169D01*
X164032329Y-108145525D01*
X164032330Y-108145525D01*
X164221619Y-108145525D01*
X164221621Y-108145525D01*
X164406778Y-108106169D01*
X164579705Y-108029176D01*
X164732846Y-107917913D01*
X164859508Y-107777241D01*
X164922691Y-107667803D01*
X164973256Y-107619590D01*
X165027288Y-107605836D01*
X165243233Y-107600984D01*
X165243236Y-107600983D01*
X165732000Y-107590000D01*
X165732000Y-107101103D01*
X165732001Y-107101097D01*
X165732372Y-107096320D01*
X165734182Y-107096460D01*
X165751685Y-107036855D01*
X165781683Y-107004632D01*
X165824546Y-106972546D01*
X165910796Y-106857331D01*
X165961091Y-106722483D01*
X165967500Y-106662873D01*
X165967499Y-104739498D01*
X165987184Y-104672460D01*
X166039987Y-104626705D01*
X166091499Y-104615499D01*
X167079871Y-104615499D01*
X167079872Y-104615499D01*
X167139483Y-104609091D01*
X167274331Y-104558796D01*
X167389546Y-104472546D01*
X167454310Y-104386032D01*
X167475794Y-104357334D01*
X167475794Y-104357333D01*
X167475796Y-104357331D01*
X167493388Y-104310162D01*
X167535256Y-104254232D01*
X167600720Y-104229813D01*
X167605505Y-104229564D01*
X168406613Y-104203722D01*
X168474248Y-104221234D01*
G37*
%TD.AperFunction*%
%TD*%
%TA.AperFunction,Conductor*%
%TO.N,GND*%
G36*
X160782000Y-110840002D02*
G01*
X160783207Y-110840006D01*
X164085615Y-110857761D01*
X169579735Y-110887300D01*
X169598941Y-110888901D01*
X169638017Y-110895245D01*
X169723163Y-110909070D01*
X169759681Y-110921032D01*
X169845780Y-110965000D01*
X169863048Y-110973818D01*
X169894152Y-110996389D01*
X169976390Y-111078286D01*
X169999090Y-111109297D01*
X170052302Y-111212441D01*
X170064417Y-111248912D01*
X170085103Y-111373053D01*
X170086783Y-111392253D01*
X170227158Y-126131675D01*
X170226251Y-126147875D01*
X170213400Y-126253197D01*
X170205316Y-126284550D01*
X170168702Y-126375354D01*
X170152776Y-126403546D01*
X170124070Y-126441689D01*
X170068029Y-126483417D01*
X170025831Y-126491122D01*
X166908203Y-126512187D01*
X164930125Y-126525552D01*
X164862954Y-126506321D01*
X164831197Y-126477412D01*
X164809791Y-126449732D01*
X164793428Y-126421588D01*
X164755552Y-126330731D01*
X164747078Y-126299296D01*
X164733073Y-126193535D01*
X164732000Y-126177257D01*
X164732000Y-120986281D01*
X164732000Y-120896584D01*
X164739503Y-120857671D01*
X164787722Y-120807108D01*
X164849714Y-120790500D01*
X164917056Y-120790500D01*
X165082225Y-120749790D01*
X165161692Y-120708081D01*
X165232849Y-120670736D01*
X165232850Y-120670734D01*
X165232852Y-120670734D01*
X165360183Y-120557929D01*
X165456818Y-120417930D01*
X165517140Y-120258872D01*
X165537645Y-120090000D01*
X165517140Y-119921128D01*
X165456818Y-119762070D01*
X165360183Y-119622071D01*
X165258789Y-119532244D01*
X165232849Y-119509263D01*
X165082226Y-119430210D01*
X164917056Y-119389500D01*
X164746944Y-119389500D01*
X164581773Y-119430210D01*
X164431150Y-119509264D01*
X164377404Y-119556879D01*
X164314170Y-119586600D01*
X164244907Y-119577416D01*
X164191604Y-119532244D01*
X164180046Y-119510115D01*
X164155850Y-119449626D01*
X164032000Y-119140000D01*
X163698553Y-119135368D01*
X163698549Y-119135368D01*
X162433883Y-119117803D01*
X160928512Y-119096895D01*
X160909476Y-119095155D01*
X160786308Y-119074225D01*
X160750130Y-119062125D01*
X160647782Y-119009204D01*
X160616993Y-118986677D01*
X160535580Y-118905151D01*
X160513096Y-118874331D01*
X160460316Y-118771907D01*
X160448266Y-118735712D01*
X160427507Y-118612520D01*
X160425793Y-118593465D01*
X160413783Y-117632687D01*
X160383999Y-115249930D01*
X161456500Y-115249930D01*
X161456500Y-116168034D01*
X161456500Y-116280070D01*
X161485497Y-116388289D01*
X161541515Y-116485315D01*
X161541517Y-116485317D01*
X161692921Y-116636721D01*
X161726406Y-116698044D01*
X161728668Y-116726854D01*
X161729099Y-116726854D01*
X161729099Y-117607556D01*
X161729101Y-117607582D01*
X161732012Y-117632687D01*
X161732014Y-117632691D01*
X161777392Y-117735464D01*
X161777393Y-117735465D01*
X161856834Y-117814906D01*
X161959608Y-117860285D01*
X161984734Y-117863200D01*
X162379263Y-117863199D01*
X162379278Y-117863197D01*
X162379281Y-117863197D01*
X162413657Y-117859211D01*
X162413938Y-117861636D01*
X162450062Y-117861636D01*
X162450344Y-117859210D01*
X162459606Y-117860284D01*
X162459608Y-117860285D01*
X162484734Y-117863200D01*
X162879263Y-117863199D01*
X162879278Y-117863197D01*
X162879281Y-117863197D01*
X162913657Y-117859211D01*
X162913938Y-117861635D01*
X162950063Y-117861635D01*
X162950345Y-117859210D01*
X162959607Y-117860284D01*
X162959609Y-117860285D01*
X162984735Y-117863200D01*
X163379264Y-117863199D01*
X163379279Y-117863197D01*
X163379282Y-117863197D01*
X163404387Y-117860286D01*
X163404388Y-117860285D01*
X163404391Y-117860285D01*
X163507165Y-117814906D01*
X163586606Y-117735465D01*
X163589653Y-117728562D01*
X163634733Y-117675189D01*
X163701518Y-117654658D01*
X163768802Y-117673493D01*
X163785314Y-117685833D01*
X163881147Y-117770733D01*
X163881149Y-117770735D01*
X164031773Y-117849789D01*
X164031775Y-117849790D01*
X164196944Y-117890500D01*
X164367056Y-117890500D01*
X164532225Y-117849790D01*
X164611692Y-117808081D01*
X164682849Y-117770736D01*
X164682850Y-117770734D01*
X164682852Y-117770734D01*
X164810183Y-117657929D01*
X164906818Y-117517930D01*
X164967140Y-117358872D01*
X164987645Y-117190000D01*
X164967140Y-117021128D01*
X164906818Y-116862070D01*
X164810183Y-116722071D01*
X164810181Y-116722069D01*
X164681557Y-116608118D01*
X164644430Y-116548929D01*
X164645012Y-116495946D01*
X164594719Y-116528268D01*
X164530110Y-116529688D01*
X164367057Y-116489500D01*
X164367056Y-116489500D01*
X164196944Y-116489500D01*
X164031773Y-116530210D01*
X163881150Y-116609264D01*
X163798645Y-116682357D01*
X163735412Y-116712078D01*
X163666148Y-116702894D01*
X163612845Y-116657722D01*
X163602984Y-116639628D01*
X163586606Y-116602535D01*
X163507165Y-116523094D01*
X163411003Y-116480634D01*
X163357627Y-116435548D01*
X163337100Y-116368762D01*
X163355939Y-116301480D01*
X163362275Y-116292290D01*
X163394364Y-116249975D01*
X163394364Y-116249973D01*
X163399490Y-116243215D01*
X163401481Y-116244725D01*
X163442275Y-116204936D01*
X163500341Y-116190500D01*
X164437925Y-116190500D01*
X164504964Y-116210185D01*
X164519128Y-116220787D01*
X164520319Y-116221819D01*
X164586037Y-116278764D01*
X164626823Y-116304975D01*
X164672578Y-116357779D01*
X164681982Y-116423184D01*
X164683615Y-116420704D01*
X164747486Y-116392379D01*
X164798713Y-116396325D01*
X164924042Y-116433125D01*
X165010111Y-116445500D01*
X165010112Y-116445500D01*
X165631998Y-116445500D01*
X165632000Y-116445500D01*
X165660188Y-116444197D01*
X165718556Y-116427589D01*
X165788422Y-116428175D01*
X165802578Y-116433421D01*
X165812009Y-116437585D01*
X165837135Y-116440500D01*
X166926864Y-116440499D01*
X166926879Y-116440497D01*
X166926882Y-116440497D01*
X166951987Y-116437586D01*
X166951988Y-116437585D01*
X166951991Y-116437585D01*
X167054765Y-116392206D01*
X167134206Y-116312765D01*
X167179585Y-116209991D01*
X167182500Y-116184865D01*
X167182499Y-114595136D01*
X167182309Y-114593497D01*
X167179586Y-114570012D01*
X167179585Y-114570010D01*
X167179585Y-114570009D01*
X167134206Y-114467235D01*
X167054765Y-114387794D01*
X166951992Y-114342415D01*
X166926868Y-114339500D01*
X166926865Y-114339500D01*
X166634610Y-114339500D01*
X166567571Y-114319815D01*
X166546929Y-114303181D01*
X166213265Y-113969517D01*
X166213263Y-113969515D01*
X166116237Y-113913497D01*
X166008018Y-113884500D01*
X163988785Y-113884500D01*
X163876748Y-113884500D01*
X163768530Y-113913497D01*
X163768528Y-113913498D01*
X163768527Y-113913498D01*
X163671507Y-113969513D01*
X163671501Y-113969517D01*
X163112838Y-114528181D01*
X163051515Y-114561666D01*
X163025157Y-114564500D01*
X162141930Y-114564500D01*
X162033711Y-114593497D01*
X162033708Y-114593498D01*
X161936688Y-114649513D01*
X161936682Y-114649517D01*
X161541517Y-115044682D01*
X161541513Y-115044688D01*
X161485498Y-115141708D01*
X161485497Y-115141711D01*
X161456500Y-115249930D01*
X160383999Y-115249930D01*
X160334812Y-111315004D01*
X160336157Y-111295185D01*
X160351126Y-111194786D01*
X160363161Y-111157024D01*
X160396105Y-111092012D01*
X160404477Y-111075490D01*
X160427806Y-111043462D01*
X160499919Y-110972014D01*
X160515110Y-110959206D01*
X160633481Y-110874655D01*
X160649915Y-110864744D01*
X160667064Y-110856136D01*
X160703533Y-110844449D01*
X160722488Y-110841486D01*
X160741632Y-110840000D01*
X160780564Y-110840000D01*
X160780749Y-110840000D01*
X160782000Y-110840002D01*
G37*
%TD.AperFunction*%
%TD*%
%TA.AperFunction,Conductor*%
%TO.N,GND*%
G36*
X197649253Y-123585500D02*
G01*
X197695747Y-123637654D01*
X197707687Y-123690068D01*
X197731998Y-128114636D01*
X197732000Y-128115317D01*
X197732000Y-128490354D01*
X197712315Y-128557393D01*
X197659511Y-128603148D01*
X197607356Y-128614352D01*
X188230356Y-128565640D01*
X188163420Y-128545608D01*
X188117940Y-128492567D01*
X188107000Y-128441642D01*
X188107000Y-126664000D01*
X188126685Y-126596961D01*
X188179489Y-126551206D01*
X188231000Y-126540000D01*
X189832000Y-126540000D01*
X192345659Y-123681328D01*
X192404708Y-123643984D01*
X192437024Y-123639225D01*
X197581944Y-123566761D01*
X197649253Y-123585500D01*
G37*
%TD.AperFunction*%
%TD*%
M02*
