M48
; DRILL file {KiCad 7.0.2} date Fri Aug 30 22:16:35 2024
; FORMAT={-:-/ absolute / metric / decimal}
; #@! TF.CreationDate,2024-08-30T22:16:35+05:30
; #@! TF.GenerationSoftware,Kicad,Pcbnew,7.0.2
; #@! TF.FileFunction,MixedPlating,1,2
FMAT,2
METRIC
; #@! TA.AperFunction,Plated,PTH,ViaDrill
T1C0.400
; #@! TA.AperFunction,Plated,PTH,ComponentDrill
T2C0.450
; #@! TA.AperFunction,Plated,PTH,ComponentDrill
T3C0.800
; #@! TA.AperFunction,Plated,PTH,ComponentDrill
T4C1.000
; #@! TA.AperFunction,Plated,PTH,ComponentDrill
T5C2.200
%
G90
G05
T1
X123.002Y-92.838
X124.145Y-100.458
X124.653Y-87.377
X126.812Y-86.742
X126.812Y-94.108
X127.32Y-78.487
X130.241Y-83.313
X131.511Y-82.043
X132.908Y-78.487
X132.908Y-93.6
X133.162Y-89.028
X133.543Y-96.648
X133.67Y-91.06
X133.924Y-79.63
X135.448Y-78.487
X137.226Y-91.06
X137.226Y-100.204
X142.687Y-105.157
X142.814Y-96.394
X145.354Y-105.157
X147.005Y-83.44
X148.275Y-98.57
X148.275Y-100.204
X150.18Y-84.202
X151.958Y-96.272
X152.593Y-91.822
X155.387Y-89.282
X157.292Y-112.269
X160.34Y-108.078
X161.102Y-97.156
X161.206Y-85.248
X161.61Y-93.092
X162.118Y-97.156
X162.626Y-93.092
X164.15Y-96.14
X164.15Y-106.935
X165.42Y-96.394
X165.674Y-97.664
T3
X150.668Y-99.32
X150.688Y-103.78
X150.688Y-106.32
X153.208Y-99.32
T4
X122.494Y-111.634
X123.002Y-78.868
X123.002Y-81.408
X123.002Y-83.948
X125.034Y-111.634
X126.812Y-72.747
X127.574Y-111.634
X129.352Y-72.747
X130.114Y-111.634
X131.892Y-72.747
X134.432Y-72.747
X134.559Y-102.998
X134.559Y-105.538
X134.559Y-108.078
X134.559Y-110.618
X138.496Y-72.772
X139.258Y-111.888
X141.036Y-72.772
X141.798Y-111.888
X143.576Y-72.772
X144.338Y-111.888
X146.116Y-72.772
X146.878Y-111.888
X148.402Y-78.106
X150.2Y-72.747
X150.942Y-78.106
X152.74Y-72.747
X153.482Y-78.106
X156.022Y-78.106
T5
X116.398Y-73.634
X116.398Y-111.634
X164.398Y-73.634
X164.398Y-111.634
T2
G00X165.655Y-82.913
M15
G01X166.455Y-82.913
M16
G05
G00X166.455Y-90.063
M15
G01X165.655Y-90.063
M16
G05
T0
M30
