%TF.GenerationSoftware,KiCad,Pcbnew,7.0.2*%
%TF.CreationDate,2024-08-30T22:16:44+05:30*%
%TF.ProjectId,EPS_ControlUnit,4550535f-436f-46e7-9472-6f6c556e6974,rev?*%
%TF.SameCoordinates,Original*%
%TF.FileFunction,Soldermask,Bot*%
%TF.FilePolarity,Negative*%
%FSLAX46Y46*%
G04 Gerber Fmt 4.6, Leading zero omitted, Abs format (unit mm)*
G04 Created by KiCad (PCBNEW 7.0.2) date 2024-08-30 22:16:44*
%MOMM*%
%LPD*%
G01*
G04 APERTURE LIST*
G04 Aperture macros list*
%AMRoundRect*
0 Rectangle with rounded corners*
0 $1 Rounding radius*
0 $2 $3 $4 $5 $6 $7 $8 $9 X,Y pos of 4 corners*
0 Add a 4 corners polygon primitive as box body*
4,1,4,$2,$3,$4,$5,$6,$7,$8,$9,$2,$3,0*
0 Add four circle primitives for the rounded corners*
1,1,$1+$1,$2,$3*
1,1,$1+$1,$4,$5*
1,1,$1+$1,$6,$7*
1,1,$1+$1,$8,$9*
0 Add four rect primitives between the rounded corners*
20,1,$1+$1,$2,$3,$4,$5,0*
20,1,$1+$1,$4,$5,$6,$7,0*
20,1,$1+$1,$6,$7,$8,$9,0*
20,1,$1+$1,$8,$9,$2,$3,0*%
G04 Aperture macros list end*
%ADD10O,1.700000X1.700000*%
%ADD11R,1.700000X1.700000*%
%ADD12O,1.900000X1.050000*%
%ADD13C,4.400000*%
%ADD14C,1.400000*%
%ADD15C,1.000000*%
%ADD16RoundRect,0.225000X-0.250000X0.225000X-0.250000X-0.225000X0.250000X-0.225000X0.250000X0.225000X0*%
G04 APERTURE END LIST*
D10*
%TO.C,J8*%
X134559000Y-110618000D03*
X134559000Y-108078000D03*
X134559000Y-105538000D03*
D11*
X134559000Y-102998000D03*
%TD*%
D12*
%TO.C,USB*%
X166055000Y-90063000D03*
X166055000Y-82913000D03*
%TD*%
D10*
%TO.C,J4*%
X146116000Y-72772000D03*
X143576000Y-72772000D03*
X141036000Y-72772000D03*
D11*
X138496000Y-72772000D03*
%TD*%
D10*
%TO.C,UART2*%
X122494000Y-111634000D03*
X125034000Y-111634000D03*
X127574000Y-111634000D03*
D11*
X130114000Y-111634000D03*
%TD*%
D10*
%TO.C,J7*%
X152740000Y-72747000D03*
D11*
X150200000Y-72747000D03*
%TD*%
D10*
%TO.C,J1*%
X148402000Y-78106000D03*
X150942000Y-78106000D03*
X153482000Y-78106000D03*
D11*
X156022000Y-78106000D03*
%TD*%
D13*
%TO.C,H2*%
X164398000Y-73634000D03*
%TD*%
D10*
%TO.C,J5*%
X139258000Y-111888000D03*
X141798000Y-111888000D03*
X144338000Y-111888000D03*
D11*
X146878000Y-111888000D03*
%TD*%
%TO.C,J3*%
X126812000Y-72747000D03*
D10*
X129352000Y-72747000D03*
X131892000Y-72747000D03*
X134432000Y-72747000D03*
%TD*%
%TO.C,SW1*%
X123002000Y-83948000D03*
X123002000Y-81408000D03*
D11*
X123002000Y-78868000D03*
%TD*%
D13*
%TO.C,H4*%
X116398000Y-111634000D03*
%TD*%
D14*
%TO.C,JP1*%
X153208000Y-99319998D03*
X150668000Y-99319998D03*
%TD*%
D13*
%TO.C,H3*%
X164398000Y-111634000D03*
%TD*%
%TO.C,H1*%
X116398000Y-73634000D03*
%TD*%
D14*
%TO.C,JP2*%
X150688000Y-106320000D03*
X150688000Y-103780000D03*
%TD*%
D15*
%TO.C,NRST*%
X137226000Y-89409000D03*
%TD*%
D16*
%TO.C,C3*%
X135448000Y-92610000D03*
X135448000Y-91060000D03*
%TD*%
M02*
