%TF.GenerationSoftware,KiCad,Pcbnew,7.0.2*%
%TF.CreationDate,2024-09-03T13:40:22+05:30*%
%TF.ProjectId,EPS_ControlUnit,4550535f-436f-46e7-9472-6f6c556e6974,rev?*%
%TF.SameCoordinates,Original*%
%TF.FileFunction,Copper,L2,Bot*%
%TF.FilePolarity,Positive*%
%FSLAX46Y46*%
G04 Gerber Fmt 4.6, Leading zero omitted, Abs format (unit mm)*
G04 Created by KiCad (PCBNEW 7.0.2) date 2024-09-03 13:40:22*
%MOMM*%
%LPD*%
G01*
G04 APERTURE LIST*
G04 Aperture macros list*
%AMRoundRect*
0 Rectangle with rounded corners*
0 $1 Rounding radius*
0 $2 $3 $4 $5 $6 $7 $8 $9 X,Y pos of 4 corners*
0 Add a 4 corners polygon primitive as box body*
4,1,4,$2,$3,$4,$5,$6,$7,$8,$9,$2,$3,0*
0 Add four circle primitives for the rounded corners*
1,1,$1+$1,$2,$3*
1,1,$1+$1,$4,$5*
1,1,$1+$1,$6,$7*
1,1,$1+$1,$8,$9*
0 Add four rect primitives between the rounded corners*
20,1,$1+$1,$2,$3,$4,$5,0*
20,1,$1+$1,$4,$5,$6,$7,0*
20,1,$1+$1,$6,$7,$8,$9,0*
20,1,$1+$1,$8,$9,$2,$3,0*%
G04 Aperture macros list end*
%TA.AperFunction,ComponentPad*%
%ADD10R,1.700000X1.700000*%
%TD*%
%TA.AperFunction,ComponentPad*%
%ADD11O,1.900000X1.050000*%
%TD*%
%TA.AperFunction,ComponentPad*%
%ADD12O,1.700000X1.700000*%
%TD*%
%TA.AperFunction,ComponentPad*%
%ADD13C,4.400000*%
%TD*%
%TA.AperFunction,ComponentPad*%
%ADD14C,1.400000*%
%TD*%
%TA.AperFunction,SMDPad,CuDef*%
%ADD15C,1.000000*%
%TD*%
%TA.AperFunction,SMDPad,CuDef*%
%ADD16RoundRect,0.225000X-0.250000X0.225000X-0.250000X-0.225000X0.250000X-0.225000X0.250000X0.225000X0*%
%TD*%
%TA.AperFunction,ViaPad*%
%ADD17C,0.800000*%
%TD*%
%TA.AperFunction,Conductor*%
%ADD18C,0.250000*%
%TD*%
%TA.AperFunction,Conductor*%
%ADD19C,0.500000*%
%TD*%
%TA.AperFunction,Conductor*%
%ADD20C,0.300000*%
%TD*%
G04 APERTURE END LIST*
D10*
%TO.P,J10,1,Pin_1*%
%TO.N,/DAC*%
X129540000Y-106680000D03*
%TD*%
%TO.P,J9,1,Pin_1*%
%TO.N,/ADC*%
X122555000Y-95250000D03*
%TD*%
D11*
%TO.P,J2,6,Shield*%
%TO.N,GND*%
X166055000Y-90063000D03*
X166055000Y-82913000D03*
%TD*%
D10*
%TO.P,J8,1,Pin_1*%
%TO.N,/GPIO1*%
X134559000Y-102998000D03*
D12*
%TO.P,J8,2,Pin_2*%
%TO.N,/GPIO2*%
X134559000Y-105538000D03*
%TO.P,J8,3,Pin_3*%
%TO.N,/GPIO3*%
X134559000Y-108078000D03*
%TO.P,J8,4,Pin_4*%
%TO.N,/GPIO4*%
X134559000Y-110618000D03*
%TD*%
D10*
%TO.P,J4,1,Pin_1*%
%TO.N,GND*%
X138496000Y-72772000D03*
D12*
%TO.P,J4,2,Pin_2*%
%TO.N,/UART1_RX*%
X141036000Y-72772000D03*
%TO.P,J4,3,Pin_3*%
%TO.N,/UART1_TX*%
X143576000Y-72772000D03*
%TO.P,J4,4,Pin_4*%
%TO.N,3V3_EPS*%
X146116000Y-72772000D03*
%TD*%
D10*
%TO.P,J6,1,Pin_1*%
%TO.N,GND*%
X130114000Y-111634000D03*
D12*
%TO.P,J6,2,Pin_2*%
%TO.N,/UART2_RX*%
X127574000Y-111634000D03*
%TO.P,J6,3,Pin_3*%
%TO.N,/UART2_TX*%
X125034000Y-111634000D03*
%TO.P,J6,4,Pin_4*%
%TO.N,3V3_EPS*%
X122494000Y-111634000D03*
%TD*%
D10*
%TO.P,J7,1,Pin_1*%
%TO.N,/CAN_TX*%
X150200000Y-72747000D03*
D12*
%TO.P,J7,2,Pin_2*%
%TO.N,/CAN_RX*%
X152740000Y-72747000D03*
%TD*%
D10*
%TO.P,J1,1,Pin_1*%
%TO.N,3V3_EPS*%
X156022000Y-78106000D03*
D12*
%TO.P,J1,2,Pin_2*%
%TO.N,/SWDIO*%
X153482000Y-78106000D03*
%TO.P,J1,3,Pin_3*%
%TO.N,/SWCLK*%
X150942000Y-78106000D03*
%TO.P,J1,4,Pin_4*%
%TO.N,GND*%
X148402000Y-78106000D03*
%TD*%
D13*
%TO.P,H2,1,1*%
%TO.N,GND*%
X164398000Y-73634000D03*
%TD*%
D10*
%TO.P,J5,1,Pin_1*%
%TO.N,GND*%
X146878000Y-111888000D03*
D12*
%TO.P,J5,2,Pin_2*%
%TO.N,/I2C2_SDA*%
X144338000Y-111888000D03*
%TO.P,J5,3,Pin_3*%
%TO.N,/I2C2_SCL*%
X141798000Y-111888000D03*
%TO.P,J5,4,Pin_4*%
%TO.N,3V3_EPS*%
X139258000Y-111888000D03*
%TD*%
D10*
%TO.P,J3,1,Pin_1*%
%TO.N,GND*%
X126812000Y-72747000D03*
D12*
%TO.P,J3,2,Pin_2*%
%TO.N,/I2C1_SDA*%
X129352000Y-72747000D03*
%TO.P,J3,3,Pin_3*%
%TO.N,/I2C1_SCL*%
X131892000Y-72747000D03*
%TO.P,J3,4,Pin_4*%
%TO.N,3V3_EPS*%
X134432000Y-72747000D03*
%TD*%
D10*
%TO.P,SW1,1,A*%
%TO.N,GND*%
X123002000Y-78868000D03*
D12*
%TO.P,SW1,2,B*%
%TO.N,/SW_BOOT0*%
X123002000Y-81408000D03*
%TO.P,SW1,3,C*%
%TO.N,3V3_EPS*%
X123002000Y-83948000D03*
%TD*%
D13*
%TO.P,H4,1,1*%
%TO.N,GND*%
X116398000Y-111634000D03*
%TD*%
D14*
%TO.P,WD_EN,1,A*%
%TO.N,/WDI_RESET*%
X153208000Y-99319998D03*
%TO.P,WD_EN,2,B*%
%TO.N,/NRST*%
X150668000Y-99319998D03*
%TD*%
D13*
%TO.P,H3,1,1*%
%TO.N,GND*%
X164398000Y-111634000D03*
%TD*%
%TO.P,H1,1,1*%
%TO.N,GND*%
X116398000Y-73634000D03*
%TD*%
D14*
%TO.P,LDO_EN,1,A*%
%TO.N,/3V3_LDO*%
X150688000Y-103780000D03*
%TO.P,LDO_EN,2,B*%
%TO.N,3V3_EPS*%
X150688000Y-106320000D03*
%TD*%
D15*
%TO.P,TP9,1,1*%
%TO.N,/NRST*%
X137226000Y-89409000D03*
%TD*%
D16*
%TO.P,C3,1*%
%TO.N,/NRST*%
X135448000Y-91060000D03*
%TO.P,C3,2*%
%TO.N,GND*%
X135448000Y-92610000D03*
%TD*%
D17*
%TO.N,/DAC*%
X135255000Y-96520000D03*
%TO.N,3V3_EPS*%
X148275000Y-98570498D03*
X132908000Y-78487000D03*
X130241000Y-83313000D03*
X137226000Y-100204000D03*
X142687000Y-105157000D03*
X131511000Y-82043000D03*
X145354000Y-105157000D03*
X135448000Y-78487000D03*
X148275000Y-100204000D03*
%TO.N,GND*%
X124145000Y-100458000D03*
X150180000Y-84202000D03*
X164150000Y-106935000D03*
X152593000Y-91822000D03*
X162626000Y-93092000D03*
X151958000Y-96271998D03*
X126812000Y-86742000D03*
X161610000Y-93092000D03*
X147005000Y-83440000D03*
X157292000Y-112269000D03*
X142814000Y-96394000D03*
X161102000Y-97156000D03*
X124653000Y-87377000D03*
X132908000Y-93600000D03*
X160340000Y-108078000D03*
X123002000Y-92838000D03*
X133162000Y-89028000D03*
X133543000Y-96648000D03*
X165420000Y-96394000D03*
X155387000Y-89282000D03*
X161205500Y-85248000D03*
X164150000Y-96140000D03*
X127320000Y-78487000D03*
X165674000Y-97664000D03*
X133924000Y-79630000D03*
X162118000Y-97156000D03*
X126812000Y-94108000D03*
%TO.N,/NRST*%
X137226000Y-91060000D03*
X133670000Y-91060000D03*
%TD*%
D18*
%TO.N,/DAC*%
X135255000Y-96520000D02*
X132080000Y-99695000D01*
X130810000Y-106680000D02*
X129540000Y-106680000D01*
X132080000Y-105410000D02*
X130810000Y-106680000D01*
X132080000Y-99695000D02*
X132080000Y-105410000D01*
D19*
%TO.N,3V3_EPS*%
X132908000Y-78487000D02*
X135448000Y-78487000D01*
D20*
X142179000Y-105157000D02*
X142687000Y-105157000D01*
D19*
X137226000Y-100204000D02*
X142179000Y-105157000D01*
D20*
X148275000Y-100204000D02*
X148275000Y-98570498D01*
D19*
X145354000Y-105157000D02*
X142687000Y-105157000D01*
X130241000Y-83313000D02*
X131511000Y-82043000D01*
D20*
%TO.N,/NRST*%
X133670000Y-91060000D02*
X135448000Y-91060000D01*
X137226000Y-89409000D02*
X137226000Y-90933000D01*
X135448000Y-91060000D02*
X137226000Y-91060000D01*
%TD*%
%TA.AperFunction,Conductor*%
%TO.N,GND*%
G36*
X164407032Y-69978648D02*
G01*
X164556537Y-69985993D01*
X164753340Y-69996308D01*
X164765004Y-69997475D01*
X164933223Y-70022428D01*
X165110198Y-70050458D01*
X165120880Y-70052638D01*
X165289744Y-70094936D01*
X165459671Y-70140469D01*
X165469329Y-70143486D01*
X165633631Y-70202274D01*
X165636295Y-70203262D01*
X165798191Y-70265408D01*
X165806769Y-70269077D01*
X165904047Y-70315085D01*
X165965223Y-70344019D01*
X165968421Y-70345589D01*
X166122345Y-70424018D01*
X166129760Y-70428123D01*
X166280441Y-70518438D01*
X166284227Y-70520801D01*
X166428686Y-70614614D01*
X166435017Y-70619011D01*
X166576304Y-70723796D01*
X166580474Y-70727028D01*
X166714174Y-70835296D01*
X166719406Y-70839780D01*
X166840422Y-70949462D01*
X166849821Y-70957981D01*
X166854229Y-70962178D01*
X166975820Y-71083769D01*
X166980017Y-71088177D01*
X167098214Y-71218587D01*
X167102702Y-71223824D01*
X167210970Y-71357524D01*
X167214202Y-71361694D01*
X167318987Y-71502981D01*
X167323384Y-71509312D01*
X167417197Y-71653771D01*
X167419560Y-71657557D01*
X167509864Y-71808219D01*
X167513991Y-71815673D01*
X167592383Y-71969525D01*
X167593993Y-71972804D01*
X167668921Y-72131229D01*
X167672590Y-72139807D01*
X167734736Y-72301703D01*
X167735723Y-72304367D01*
X167794509Y-72468663D01*
X167797533Y-72478343D01*
X167843073Y-72648298D01*
X167867797Y-72746999D01*
X167876141Y-72780311D01*
X167885359Y-72817108D01*
X167887545Y-72827829D01*
X167915573Y-73004789D01*
X167940521Y-73172975D01*
X167941692Y-73184675D01*
X167952010Y-73381549D01*
X167959351Y-73530967D01*
X167959500Y-73537051D01*
X167959500Y-111630947D01*
X167959351Y-111637032D01*
X167952010Y-111786450D01*
X167941692Y-111983321D01*
X167940520Y-111995025D01*
X167915573Y-112163210D01*
X167887546Y-112340165D01*
X167885357Y-112350892D01*
X167843073Y-112519700D01*
X167797532Y-112689660D01*
X167794512Y-112699329D01*
X167735724Y-112863631D01*
X167734736Y-112866295D01*
X167672590Y-113028191D01*
X167668921Y-113036769D01*
X167593993Y-113195194D01*
X167592383Y-113198473D01*
X167513991Y-113352325D01*
X167509864Y-113359779D01*
X167419560Y-113510441D01*
X167417197Y-113514227D01*
X167323384Y-113658686D01*
X167318987Y-113665017D01*
X167214202Y-113806304D01*
X167210970Y-113810474D01*
X167102702Y-113944174D01*
X167098214Y-113949411D01*
X166980017Y-114079821D01*
X166975820Y-114084229D01*
X166854229Y-114205820D01*
X166849821Y-114210017D01*
X166719411Y-114328214D01*
X166714174Y-114332702D01*
X166580474Y-114440970D01*
X166576304Y-114444202D01*
X166435017Y-114548987D01*
X166428686Y-114553384D01*
X166284227Y-114647197D01*
X166280441Y-114649560D01*
X166129779Y-114739864D01*
X166122325Y-114743991D01*
X165968473Y-114822383D01*
X165965194Y-114823993D01*
X165806769Y-114898921D01*
X165798191Y-114902590D01*
X165636295Y-114964736D01*
X165633631Y-114965723D01*
X165469335Y-115024509D01*
X165459655Y-115027533D01*
X165289701Y-115073073D01*
X165120890Y-115115359D01*
X165110169Y-115117545D01*
X164933210Y-115145573D01*
X164765023Y-115170521D01*
X164753323Y-115171692D01*
X164556450Y-115182010D01*
X164407032Y-115189351D01*
X164400948Y-115189500D01*
X116401052Y-115189500D01*
X116394967Y-115189351D01*
X116245549Y-115182010D01*
X116048677Y-115171692D01*
X116036973Y-115170520D01*
X115868789Y-115145573D01*
X115691833Y-115117546D01*
X115681105Y-115115357D01*
X115512298Y-115073073D01*
X115342338Y-115027532D01*
X115332669Y-115024512D01*
X115168367Y-114965724D01*
X115165703Y-114964736D01*
X115003807Y-114902590D01*
X114995229Y-114898921D01*
X114836804Y-114823993D01*
X114833525Y-114822383D01*
X114679673Y-114743991D01*
X114672219Y-114739864D01*
X114521557Y-114649560D01*
X114517771Y-114647197D01*
X114373312Y-114553384D01*
X114366981Y-114548987D01*
X114225694Y-114444202D01*
X114221524Y-114440970D01*
X114087824Y-114332702D01*
X114082587Y-114328214D01*
X113952177Y-114210017D01*
X113947769Y-114205820D01*
X113826178Y-114084229D01*
X113821981Y-114079821D01*
X113777403Y-114030637D01*
X113703780Y-113949406D01*
X113699296Y-113944174D01*
X113632797Y-113862054D01*
X113591020Y-113810463D01*
X113587796Y-113806304D01*
X113483011Y-113665017D01*
X113478614Y-113658686D01*
X113384801Y-113514227D01*
X113382438Y-113510441D01*
X113292123Y-113359760D01*
X113288018Y-113352345D01*
X113209589Y-113198421D01*
X113208019Y-113195223D01*
X113184653Y-113145819D01*
X113133077Y-113036769D01*
X113129408Y-113028191D01*
X113067262Y-112866295D01*
X113066275Y-112863631D01*
X113007489Y-112699335D01*
X113004465Y-112689655D01*
X112998742Y-112668298D01*
X112958936Y-112519744D01*
X112916636Y-112350871D01*
X112914458Y-112340194D01*
X112886431Y-112163245D01*
X112861473Y-111994989D01*
X112860308Y-111983344D01*
X112849990Y-111786472D01*
X112842684Y-111637736D01*
X113693291Y-111637736D01*
X113712560Y-111956302D01*
X113713462Y-111963732D01*
X113770990Y-112277651D01*
X113772778Y-112284907D01*
X113867729Y-112589613D01*
X113870374Y-112596589D01*
X114001362Y-112887631D01*
X114004836Y-112894251D01*
X114169945Y-113167373D01*
X114174191Y-113173525D01*
X114319477Y-113358968D01*
X115462210Y-112216234D01*
X115562894Y-112357624D01*
X115714932Y-112502592D01*
X115817222Y-112568330D01*
X114673030Y-113712521D01*
X114673030Y-113712522D01*
X114858474Y-113857808D01*
X114864626Y-113862054D01*
X115137748Y-114027163D01*
X115144368Y-114030637D01*
X115435410Y-114161625D01*
X115442386Y-114164270D01*
X115747092Y-114259221D01*
X115754348Y-114261009D01*
X116068267Y-114318537D01*
X116075697Y-114319439D01*
X116394264Y-114338709D01*
X116401736Y-114338709D01*
X116720302Y-114319439D01*
X116727732Y-114318537D01*
X117041651Y-114261009D01*
X117048907Y-114259221D01*
X117353613Y-114164270D01*
X117360589Y-114161625D01*
X117651631Y-114030637D01*
X117658251Y-114027163D01*
X117931369Y-113862057D01*
X117937524Y-113857808D01*
X118122968Y-113712522D01*
X118122968Y-113712521D01*
X116981306Y-112570859D01*
X116995410Y-112563589D01*
X117160540Y-112433729D01*
X117298110Y-112274965D01*
X117332665Y-112215112D01*
X118476521Y-113358968D01*
X118476522Y-113358968D01*
X118621808Y-113173524D01*
X118626057Y-113167369D01*
X118791163Y-112894251D01*
X118794637Y-112887631D01*
X118925625Y-112596589D01*
X118928270Y-112589613D01*
X119023221Y-112284907D01*
X119025009Y-112277651D01*
X119082537Y-111963732D01*
X119083439Y-111956302D01*
X119102709Y-111637736D01*
X119102709Y-111634000D01*
X121338571Y-111634000D01*
X121358243Y-111846310D01*
X121416595Y-112051390D01*
X121511631Y-112242252D01*
X121640126Y-112412405D01*
X121640128Y-112412407D01*
X121797698Y-112556052D01*
X121978981Y-112668298D01*
X122177802Y-112745321D01*
X122387390Y-112784500D01*
X122387392Y-112784500D01*
X122600608Y-112784500D01*
X122600610Y-112784500D01*
X122810198Y-112745321D01*
X123009019Y-112668298D01*
X123190302Y-112556052D01*
X123347872Y-112412407D01*
X123476366Y-112242255D01*
X123476366Y-112242253D01*
X123476368Y-112242252D01*
X123567639Y-112058952D01*
X123571405Y-112051389D01*
X123629756Y-111846310D01*
X123640529Y-111730047D01*
X123666315Y-111665111D01*
X123708622Y-111634804D01*
X123817130Y-111634804D01*
X123853503Y-111655668D01*
X123885693Y-111717681D01*
X123887471Y-111730048D01*
X123898243Y-111846310D01*
X123956595Y-112051390D01*
X124051631Y-112242252D01*
X124180126Y-112412405D01*
X124180128Y-112412407D01*
X124337698Y-112556052D01*
X124518981Y-112668298D01*
X124717802Y-112745321D01*
X124927390Y-112784500D01*
X124927392Y-112784500D01*
X125140608Y-112784500D01*
X125140610Y-112784500D01*
X125350198Y-112745321D01*
X125549019Y-112668298D01*
X125730302Y-112556052D01*
X125887872Y-112412407D01*
X126016366Y-112242255D01*
X126016366Y-112242253D01*
X126016368Y-112242252D01*
X126107639Y-112058952D01*
X126111405Y-112051389D01*
X126169756Y-111846310D01*
X126180529Y-111730047D01*
X126206315Y-111665111D01*
X126248622Y-111634804D01*
X126357130Y-111634804D01*
X126393503Y-111655668D01*
X126425693Y-111717681D01*
X126427471Y-111730048D01*
X126438243Y-111846310D01*
X126496595Y-112051390D01*
X126591631Y-112242252D01*
X126720126Y-112412405D01*
X126720128Y-112412407D01*
X126877698Y-112556052D01*
X127058981Y-112668298D01*
X127257802Y-112745321D01*
X127467390Y-112784500D01*
X127467392Y-112784500D01*
X127680608Y-112784500D01*
X127680610Y-112784500D01*
X127890198Y-112745321D01*
X128089019Y-112668298D01*
X128270302Y-112556052D01*
X128427872Y-112412407D01*
X128541047Y-112262540D01*
X128597155Y-112220905D01*
X128666867Y-112216214D01*
X128728049Y-112249956D01*
X128761276Y-112311419D01*
X128764000Y-112337268D01*
X128764000Y-112528518D01*
X128764354Y-112535132D01*
X128770400Y-112591371D01*
X128820647Y-112726089D01*
X128906811Y-112841188D01*
X129021910Y-112927352D01*
X129156628Y-112977599D01*
X129212867Y-112983645D01*
X129219482Y-112984000D01*
X129863999Y-112984000D01*
X129863999Y-112069501D01*
X129971685Y-112118680D01*
X130078237Y-112134000D01*
X130149763Y-112134000D01*
X130256315Y-112118680D01*
X130364000Y-112069501D01*
X130364000Y-112984000D01*
X131008518Y-112984000D01*
X131015132Y-112983645D01*
X131071371Y-112977599D01*
X131206089Y-112927352D01*
X131321188Y-112841188D01*
X131407352Y-112726089D01*
X131457599Y-112591371D01*
X131463645Y-112535132D01*
X131464000Y-112528518D01*
X131464000Y-111888000D01*
X138102571Y-111888000D01*
X138103175Y-111894515D01*
X138122243Y-112100310D01*
X138180595Y-112305390D01*
X138275631Y-112496252D01*
X138351403Y-112596589D01*
X138404128Y-112666407D01*
X138561698Y-112810052D01*
X138742981Y-112922298D01*
X138941802Y-112999321D01*
X139151390Y-113038500D01*
X139151392Y-113038500D01*
X139364608Y-113038500D01*
X139364610Y-113038500D01*
X139574198Y-112999321D01*
X139773019Y-112922298D01*
X139954302Y-112810052D01*
X140111872Y-112666407D01*
X140240366Y-112496255D01*
X140240366Y-112496253D01*
X140240368Y-112496252D01*
X140318074Y-112340194D01*
X140335405Y-112305389D01*
X140393756Y-112100310D01*
X140404529Y-111984047D01*
X140430315Y-111919111D01*
X140472622Y-111888804D01*
X140581130Y-111888804D01*
X140617503Y-111909668D01*
X140649693Y-111971681D01*
X140651471Y-111984048D01*
X140662243Y-112100310D01*
X140720595Y-112305390D01*
X140815631Y-112496252D01*
X140891403Y-112596589D01*
X140944128Y-112666407D01*
X141101698Y-112810052D01*
X141282981Y-112922298D01*
X141481802Y-112999321D01*
X141691390Y-113038500D01*
X141691392Y-113038500D01*
X141904608Y-113038500D01*
X141904610Y-113038500D01*
X142114198Y-112999321D01*
X142313019Y-112922298D01*
X142494302Y-112810052D01*
X142651872Y-112666407D01*
X142780366Y-112496255D01*
X142780366Y-112496253D01*
X142780368Y-112496252D01*
X142858074Y-112340194D01*
X142875405Y-112305389D01*
X142933756Y-112100310D01*
X142944529Y-111984045D01*
X142970313Y-111919112D01*
X143012621Y-111888804D01*
X143121128Y-111888804D01*
X143157501Y-111909667D01*
X143189692Y-111971680D01*
X143191470Y-111984047D01*
X143202243Y-112100310D01*
X143260595Y-112305390D01*
X143355631Y-112496252D01*
X143431403Y-112596589D01*
X143484128Y-112666407D01*
X143641698Y-112810052D01*
X143822981Y-112922298D01*
X144021802Y-112999321D01*
X144231390Y-113038500D01*
X144231392Y-113038500D01*
X144444608Y-113038500D01*
X144444610Y-113038500D01*
X144654198Y-112999321D01*
X144853019Y-112922298D01*
X145034302Y-112810052D01*
X145191872Y-112666407D01*
X145305047Y-112516540D01*
X145361155Y-112474905D01*
X145430867Y-112470214D01*
X145492049Y-112503956D01*
X145525276Y-112565419D01*
X145528000Y-112591268D01*
X145528000Y-112782518D01*
X145528354Y-112789132D01*
X145534400Y-112845371D01*
X145584647Y-112980089D01*
X145670811Y-113095188D01*
X145785910Y-113181352D01*
X145920628Y-113231599D01*
X145976867Y-113237645D01*
X145983482Y-113238000D01*
X146628000Y-113238000D01*
X146628000Y-112323501D01*
X146735685Y-112372680D01*
X146842237Y-112388000D01*
X146913763Y-112388000D01*
X147020315Y-112372680D01*
X147128000Y-112323501D01*
X147128000Y-113238000D01*
X147772518Y-113238000D01*
X147779132Y-113237645D01*
X147835371Y-113231599D01*
X147970089Y-113181352D01*
X148085188Y-113095188D01*
X148171352Y-112980089D01*
X148221599Y-112845371D01*
X148227645Y-112789132D01*
X148228000Y-112782518D01*
X148228000Y-112138000D01*
X147311686Y-112138000D01*
X147337493Y-112097844D01*
X147378000Y-111959889D01*
X147378000Y-111816111D01*
X147337493Y-111678156D01*
X147311686Y-111638000D01*
X148228000Y-111638000D01*
X148228000Y-111637736D01*
X161693291Y-111637736D01*
X161712560Y-111956302D01*
X161713462Y-111963732D01*
X161770990Y-112277651D01*
X161772778Y-112284907D01*
X161867729Y-112589613D01*
X161870374Y-112596589D01*
X162001362Y-112887631D01*
X162004836Y-112894251D01*
X162169945Y-113167373D01*
X162174191Y-113173525D01*
X162319477Y-113358968D01*
X163462210Y-112216234D01*
X163562894Y-112357624D01*
X163714932Y-112502592D01*
X163817222Y-112568330D01*
X162673030Y-113712521D01*
X162673030Y-113712522D01*
X162858474Y-113857808D01*
X162864626Y-113862054D01*
X163137748Y-114027163D01*
X163144368Y-114030637D01*
X163435410Y-114161625D01*
X163442386Y-114164270D01*
X163747092Y-114259221D01*
X163754348Y-114261009D01*
X164068267Y-114318537D01*
X164075697Y-114319439D01*
X164394264Y-114338709D01*
X164401736Y-114338709D01*
X164720302Y-114319439D01*
X164727732Y-114318537D01*
X165041651Y-114261009D01*
X165048907Y-114259221D01*
X165353613Y-114164270D01*
X165360589Y-114161625D01*
X165651631Y-114030637D01*
X165658251Y-114027163D01*
X165931369Y-113862057D01*
X165937524Y-113857808D01*
X166122968Y-113712522D01*
X166122968Y-113712521D01*
X164981306Y-112570859D01*
X164995410Y-112563589D01*
X165160540Y-112433729D01*
X165298110Y-112274965D01*
X165332665Y-112215112D01*
X166476521Y-113358968D01*
X166476522Y-113358968D01*
X166621808Y-113173524D01*
X166626057Y-113167369D01*
X166791163Y-112894251D01*
X166794637Y-112887631D01*
X166925625Y-112596589D01*
X166928270Y-112589613D01*
X167023221Y-112284907D01*
X167025009Y-112277651D01*
X167082537Y-111963732D01*
X167083439Y-111956302D01*
X167102709Y-111637736D01*
X167102709Y-111630263D01*
X167083439Y-111311697D01*
X167082537Y-111304267D01*
X167025009Y-110990348D01*
X167023221Y-110983092D01*
X166928270Y-110678386D01*
X166925625Y-110671410D01*
X166794637Y-110380368D01*
X166791163Y-110373748D01*
X166626054Y-110100626D01*
X166621808Y-110094474D01*
X166476521Y-109909030D01*
X165333787Y-111051763D01*
X165233106Y-110910376D01*
X165081068Y-110765408D01*
X164978777Y-110699669D01*
X166122968Y-109555477D01*
X166122968Y-109555476D01*
X165937525Y-109410191D01*
X165931373Y-109405945D01*
X165658251Y-109240836D01*
X165651631Y-109237362D01*
X165360589Y-109106374D01*
X165353613Y-109103729D01*
X165048907Y-109008778D01*
X165041651Y-109006990D01*
X164727732Y-108949462D01*
X164720302Y-108948560D01*
X164401736Y-108929291D01*
X164394264Y-108929291D01*
X164075697Y-108948560D01*
X164068267Y-108949462D01*
X163754348Y-109006990D01*
X163747092Y-109008778D01*
X163442386Y-109103729D01*
X163435410Y-109106374D01*
X163144368Y-109237362D01*
X163137748Y-109240836D01*
X162864626Y-109405945D01*
X162858474Y-109410191D01*
X162673030Y-109555476D01*
X162673030Y-109555477D01*
X163814693Y-110697140D01*
X163800590Y-110704411D01*
X163635460Y-110834271D01*
X163497890Y-110993035D01*
X163463334Y-111052887D01*
X162319477Y-109909030D01*
X162319476Y-109909030D01*
X162174191Y-110094474D01*
X162169945Y-110100626D01*
X162004836Y-110373748D01*
X162001362Y-110380368D01*
X161870374Y-110671410D01*
X161867729Y-110678386D01*
X161772778Y-110983092D01*
X161770990Y-110990348D01*
X161713462Y-111304267D01*
X161712560Y-111311697D01*
X161693291Y-111630263D01*
X161693291Y-111637736D01*
X148228000Y-111637736D01*
X148228000Y-110993481D01*
X148227645Y-110986867D01*
X148221599Y-110930628D01*
X148171352Y-110795910D01*
X148085188Y-110680811D01*
X147970089Y-110594647D01*
X147835371Y-110544400D01*
X147779132Y-110538354D01*
X147772518Y-110538000D01*
X147128000Y-110538000D01*
X147128000Y-111452498D01*
X147020315Y-111403320D01*
X146913763Y-111388000D01*
X146842237Y-111388000D01*
X146735685Y-111403320D01*
X146628000Y-111452498D01*
X146628000Y-110538000D01*
X145983482Y-110538000D01*
X145976867Y-110538354D01*
X145920628Y-110544400D01*
X145785910Y-110594647D01*
X145670811Y-110680811D01*
X145584647Y-110795910D01*
X145534400Y-110930628D01*
X145528354Y-110986867D01*
X145528000Y-110993481D01*
X145528000Y-111184731D01*
X145508315Y-111251770D01*
X145455511Y-111297525D01*
X145386353Y-111307469D01*
X145322797Y-111278444D01*
X145305046Y-111259458D01*
X145191873Y-111109594D01*
X145034301Y-110965947D01*
X144922802Y-110896910D01*
X144853019Y-110853702D01*
X144853017Y-110853701D01*
X144654198Y-110776679D01*
X144654197Y-110776678D01*
X144444610Y-110737500D01*
X144231390Y-110737500D01*
X144091664Y-110763619D01*
X144021801Y-110776679D01*
X143822982Y-110853701D01*
X143641698Y-110965947D01*
X143484126Y-111109594D01*
X143355631Y-111279747D01*
X143260595Y-111470609D01*
X143202243Y-111675689D01*
X143191470Y-111791952D01*
X143165683Y-111856889D01*
X143121128Y-111888804D01*
X143012621Y-111888804D01*
X143014868Y-111887194D01*
X142978496Y-111866330D01*
X142946306Y-111804317D01*
X142944530Y-111791966D01*
X142933756Y-111675690D01*
X142921893Y-111633998D01*
X142875404Y-111470609D01*
X142780368Y-111279747D01*
X142651873Y-111109594D01*
X142494301Y-110965947D01*
X142382802Y-110896910D01*
X142313019Y-110853702D01*
X142313017Y-110853701D01*
X142114198Y-110776679D01*
X142114197Y-110776679D01*
X141904610Y-110737500D01*
X141691390Y-110737500D01*
X141551664Y-110763619D01*
X141481801Y-110776679D01*
X141282982Y-110853701D01*
X141101698Y-110965947D01*
X140944126Y-111109594D01*
X140815631Y-111279747D01*
X140720595Y-111470609D01*
X140662243Y-111675689D01*
X140651471Y-111791951D01*
X140625685Y-111856888D01*
X140581130Y-111888804D01*
X140472622Y-111888804D01*
X140474869Y-111887194D01*
X140438497Y-111866331D01*
X140406307Y-111804318D01*
X140404529Y-111791951D01*
X140393756Y-111675689D01*
X140335404Y-111470609D01*
X140240368Y-111279747D01*
X140111873Y-111109594D01*
X139954301Y-110965947D01*
X139842802Y-110896910D01*
X139773019Y-110853702D01*
X139773017Y-110853701D01*
X139574198Y-110776679D01*
X139364610Y-110737500D01*
X139151390Y-110737500D01*
X139011664Y-110763619D01*
X138941801Y-110776679D01*
X138742982Y-110853701D01*
X138561698Y-110965947D01*
X138404126Y-111109594D01*
X138275631Y-111279747D01*
X138180595Y-111470609D01*
X138122243Y-111675689D01*
X138106434Y-111846310D01*
X138102571Y-111888000D01*
X131464000Y-111888000D01*
X131464000Y-111884000D01*
X130547686Y-111884000D01*
X130573493Y-111843844D01*
X130614000Y-111705889D01*
X130614000Y-111562111D01*
X130573493Y-111424156D01*
X130547686Y-111384000D01*
X131464000Y-111384000D01*
X131464000Y-110739481D01*
X131463645Y-110732867D01*
X131457599Y-110676628D01*
X131435732Y-110618000D01*
X133403571Y-110618000D01*
X133423243Y-110830310D01*
X133481595Y-111035390D01*
X133576631Y-111226252D01*
X133698779Y-111388000D01*
X133705128Y-111396407D01*
X133862698Y-111540052D01*
X134043981Y-111652298D01*
X134242802Y-111729321D01*
X134452390Y-111768500D01*
X134452392Y-111768500D01*
X134665608Y-111768500D01*
X134665610Y-111768500D01*
X134875198Y-111729321D01*
X135074019Y-111652298D01*
X135255302Y-111540052D01*
X135412872Y-111396407D01*
X135541366Y-111226255D01*
X135541366Y-111226253D01*
X135541368Y-111226252D01*
X135599456Y-111109593D01*
X135636405Y-111035389D01*
X135694756Y-110830310D01*
X135714429Y-110618000D01*
X135694756Y-110405690D01*
X135636405Y-110200611D01*
X135583556Y-110094474D01*
X135541368Y-110009747D01*
X135412873Y-109839594D01*
X135255301Y-109695947D01*
X135074017Y-109583701D01*
X134875198Y-109506679D01*
X134875198Y-109506678D01*
X134678385Y-109469888D01*
X134616106Y-109438221D01*
X134580833Y-109377908D01*
X134583767Y-109308100D01*
X134623976Y-109250960D01*
X134678384Y-109226111D01*
X134875198Y-109189321D01*
X135074019Y-109112298D01*
X135255302Y-109000052D01*
X135412872Y-108856407D01*
X135541366Y-108686255D01*
X135541366Y-108686253D01*
X135541368Y-108686252D01*
X135589080Y-108590430D01*
X135636405Y-108495389D01*
X135694756Y-108290310D01*
X135714429Y-108078000D01*
X135694756Y-107865690D01*
X135684743Y-107830500D01*
X135671002Y-107782204D01*
X135636405Y-107660611D01*
X135606220Y-107599990D01*
X135541368Y-107469747D01*
X135412873Y-107299594D01*
X135255301Y-107155947D01*
X135074017Y-107043701D01*
X134875198Y-106966679D01*
X134875197Y-106966679D01*
X134678385Y-106929888D01*
X134616106Y-106898221D01*
X134580833Y-106837908D01*
X134583767Y-106768100D01*
X134623976Y-106710960D01*
X134678384Y-106686111D01*
X134875198Y-106649321D01*
X135074019Y-106572298D01*
X135255302Y-106460052D01*
X135408931Y-106320000D01*
X149682659Y-106320000D01*
X149701976Y-106516133D01*
X149759185Y-106704726D01*
X149798400Y-106778092D01*
X149852090Y-106878538D01*
X149977117Y-107030883D01*
X150129462Y-107155910D01*
X150303273Y-107248814D01*
X150491868Y-107306024D01*
X150688000Y-107325341D01*
X150884132Y-107306024D01*
X151072727Y-107248814D01*
X151246538Y-107155910D01*
X151398883Y-107030883D01*
X151523910Y-106878538D01*
X151616814Y-106704727D01*
X151674024Y-106516132D01*
X151693341Y-106320000D01*
X151674024Y-106123868D01*
X151616814Y-105935273D01*
X151523910Y-105761462D01*
X151398883Y-105609117D01*
X151246538Y-105484090D01*
X151224091Y-105472092D01*
X151072726Y-105391185D01*
X150884133Y-105333976D01*
X150688000Y-105314659D01*
X150491866Y-105333976D01*
X150303273Y-105391185D01*
X150129463Y-105484089D01*
X149977117Y-105609117D01*
X149852089Y-105761463D01*
X149759185Y-105935273D01*
X149701976Y-106123866D01*
X149682659Y-106320000D01*
X135408931Y-106320000D01*
X135412872Y-106316407D01*
X135541366Y-106146255D01*
X135541366Y-106146253D01*
X135541368Y-106146252D01*
X135604454Y-106019556D01*
X135636405Y-105955389D01*
X135694756Y-105750310D01*
X135714429Y-105538000D01*
X135694756Y-105325690D01*
X135691617Y-105314659D01*
X135668597Y-105233752D01*
X135636405Y-105120611D01*
X135636014Y-105119827D01*
X135541368Y-104929747D01*
X135412873Y-104759594D01*
X135255301Y-104615947D01*
X135074017Y-104503701D01*
X134875198Y-104426679D01*
X134702455Y-104394387D01*
X134640175Y-104362719D01*
X134604902Y-104302407D01*
X134607836Y-104232599D01*
X134648045Y-104175459D01*
X134712763Y-104149128D01*
X134725232Y-104148499D01*
X135453864Y-104148499D01*
X135478991Y-104145585D01*
X135581765Y-104100206D01*
X135661206Y-104020765D01*
X135706585Y-103917991D01*
X135709500Y-103892865D01*
X135709499Y-102103136D01*
X135706585Y-102078009D01*
X135661206Y-101975235D01*
X135661204Y-101975233D01*
X135661204Y-101975232D01*
X135581767Y-101895795D01*
X135478990Y-101850414D01*
X135457414Y-101847911D01*
X135457401Y-101847910D01*
X135453865Y-101847500D01*
X135450290Y-101847500D01*
X133667714Y-101847500D01*
X133667696Y-101847500D01*
X133664136Y-101847501D01*
X133660592Y-101847911D01*
X133660592Y-101847912D01*
X133639008Y-101850415D01*
X133536232Y-101895795D01*
X133456795Y-101975232D01*
X133411414Y-102078009D01*
X133408911Y-102099585D01*
X133408911Y-102099592D01*
X133408500Y-102103135D01*
X133408500Y-102106708D01*
X133408500Y-102106709D01*
X133408500Y-103889285D01*
X133408500Y-103889302D01*
X133408501Y-103892864D01*
X133408912Y-103896407D01*
X133411415Y-103917991D01*
X133456795Y-104020767D01*
X133536232Y-104100204D01*
X133536233Y-104100204D01*
X133536235Y-104100206D01*
X133639009Y-104145585D01*
X133664135Y-104148500D01*
X134392759Y-104148499D01*
X134459796Y-104168183D01*
X134505551Y-104220987D01*
X134515495Y-104290146D01*
X134486470Y-104353702D01*
X134427692Y-104391476D01*
X134415544Y-104394387D01*
X134242802Y-104426679D01*
X134189357Y-104447383D01*
X134043982Y-104503701D01*
X133862698Y-104615947D01*
X133705126Y-104759594D01*
X133576631Y-104929747D01*
X133481595Y-105120609D01*
X133423243Y-105325689D01*
X133403571Y-105538000D01*
X133423243Y-105750310D01*
X133481595Y-105955390D01*
X133576631Y-106146252D01*
X133705126Y-106316405D01*
X133705128Y-106316407D01*
X133862698Y-106460052D01*
X134043981Y-106572298D01*
X134242802Y-106649321D01*
X134439613Y-106686111D01*
X134501893Y-106717779D01*
X134537166Y-106778092D01*
X134534232Y-106847900D01*
X134494023Y-106905040D01*
X134439613Y-106929888D01*
X134309475Y-106954215D01*
X134242801Y-106966679D01*
X134043982Y-107043701D01*
X133862698Y-107155947D01*
X133705126Y-107299594D01*
X133576631Y-107469747D01*
X133481595Y-107660609D01*
X133423243Y-107865689D01*
X133403571Y-108077999D01*
X133423243Y-108290310D01*
X133481595Y-108495390D01*
X133576631Y-108686252D01*
X133705126Y-108856405D01*
X133705128Y-108856407D01*
X133862698Y-109000052D01*
X134043981Y-109112298D01*
X134242802Y-109189321D01*
X134439613Y-109226111D01*
X134501893Y-109257779D01*
X134537166Y-109318092D01*
X134534232Y-109387900D01*
X134494023Y-109445040D01*
X134439613Y-109469888D01*
X134309475Y-109494215D01*
X134242801Y-109506679D01*
X134043982Y-109583701D01*
X133862698Y-109695947D01*
X133705126Y-109839594D01*
X133576631Y-110009747D01*
X133481595Y-110200609D01*
X133423243Y-110405689D01*
X133403571Y-110618000D01*
X131435732Y-110618000D01*
X131407352Y-110541910D01*
X131321188Y-110426811D01*
X131206089Y-110340647D01*
X131071371Y-110290400D01*
X131015132Y-110284354D01*
X131008518Y-110284000D01*
X130364000Y-110284000D01*
X130364000Y-111198498D01*
X130256315Y-111149320D01*
X130149763Y-111134000D01*
X130078237Y-111134000D01*
X129971685Y-111149320D01*
X129863999Y-111198498D01*
X129864000Y-110284000D01*
X129219482Y-110284000D01*
X129212867Y-110284354D01*
X129156628Y-110290400D01*
X129021910Y-110340647D01*
X128906811Y-110426811D01*
X128820647Y-110541910D01*
X128770400Y-110676628D01*
X128764354Y-110732867D01*
X128764000Y-110739481D01*
X128764000Y-110930731D01*
X128744315Y-110997770D01*
X128691511Y-111043525D01*
X128622353Y-111053469D01*
X128558797Y-111024444D01*
X128541046Y-111005458D01*
X128427873Y-110855594D01*
X128425796Y-110853701D01*
X128270302Y-110711948D01*
X128270301Y-110711947D01*
X128118571Y-110618000D01*
X128089019Y-110599702D01*
X128089017Y-110599701D01*
X127890198Y-110522679D01*
X127890198Y-110522678D01*
X127680610Y-110483500D01*
X127467390Y-110483500D01*
X127327664Y-110509619D01*
X127257801Y-110522679D01*
X127058982Y-110599701D01*
X126877698Y-110711947D01*
X126720126Y-110855594D01*
X126591631Y-111025747D01*
X126496595Y-111216609D01*
X126438243Y-111421689D01*
X126427471Y-111537951D01*
X126401685Y-111602888D01*
X126357130Y-111634804D01*
X126248622Y-111634804D01*
X126250869Y-111633194D01*
X126214497Y-111612331D01*
X126182307Y-111550318D01*
X126180529Y-111537951D01*
X126169756Y-111421689D01*
X126123596Y-111259458D01*
X126111405Y-111216611D01*
X126090668Y-111174965D01*
X126016368Y-111025747D01*
X125887873Y-110855594D01*
X125885796Y-110853701D01*
X125730302Y-110711948D01*
X125730301Y-110711947D01*
X125578571Y-110618000D01*
X125549019Y-110599702D01*
X125549017Y-110599701D01*
X125350198Y-110522679D01*
X125350197Y-110522678D01*
X125140610Y-110483500D01*
X124927390Y-110483500D01*
X124787664Y-110509619D01*
X124717801Y-110522679D01*
X124518982Y-110599701D01*
X124337698Y-110711947D01*
X124180126Y-110855594D01*
X124051631Y-111025747D01*
X123956595Y-111216609D01*
X123898243Y-111421689D01*
X123887471Y-111537951D01*
X123861685Y-111602888D01*
X123817130Y-111634804D01*
X123708622Y-111634804D01*
X123710869Y-111633194D01*
X123674497Y-111612331D01*
X123642307Y-111550318D01*
X123640529Y-111537951D01*
X123629756Y-111421689D01*
X123583596Y-111259458D01*
X123571405Y-111216611D01*
X123550668Y-111174965D01*
X123476368Y-111025747D01*
X123347873Y-110855594D01*
X123345796Y-110853701D01*
X123190302Y-110711948D01*
X123190301Y-110711947D01*
X123038571Y-110618000D01*
X123009019Y-110599702D01*
X123009017Y-110599701D01*
X122810198Y-110522679D01*
X122600610Y-110483500D01*
X122387390Y-110483500D01*
X122247664Y-110509619D01*
X122177801Y-110522679D01*
X121978982Y-110599701D01*
X121797698Y-110711947D01*
X121640126Y-110855594D01*
X121511631Y-111025747D01*
X121416595Y-111216609D01*
X121358243Y-111421689D01*
X121338571Y-111634000D01*
X119102709Y-111634000D01*
X119102709Y-111630263D01*
X119083439Y-111311697D01*
X119082537Y-111304267D01*
X119025009Y-110990348D01*
X119023221Y-110983092D01*
X118928270Y-110678386D01*
X118925625Y-110671410D01*
X118794637Y-110380368D01*
X118791163Y-110373748D01*
X118626054Y-110100626D01*
X118621808Y-110094474D01*
X118476521Y-109909030D01*
X117333787Y-111051763D01*
X117233106Y-110910376D01*
X117081068Y-110765408D01*
X116978777Y-110699669D01*
X118122968Y-109555477D01*
X118122968Y-109555476D01*
X117937525Y-109410191D01*
X117931373Y-109405945D01*
X117658251Y-109240836D01*
X117651631Y-109237362D01*
X117360589Y-109106374D01*
X117353613Y-109103729D01*
X117048907Y-109008778D01*
X117041651Y-109006990D01*
X116727732Y-108949462D01*
X116720302Y-108948560D01*
X116401736Y-108929291D01*
X116394264Y-108929291D01*
X116075697Y-108948560D01*
X116068267Y-108949462D01*
X115754348Y-109006990D01*
X115747092Y-109008778D01*
X115442386Y-109103729D01*
X115435410Y-109106374D01*
X115144368Y-109237362D01*
X115137748Y-109240836D01*
X114864626Y-109405945D01*
X114858474Y-109410191D01*
X114673030Y-109555476D01*
X114673030Y-109555477D01*
X115814693Y-110697140D01*
X115800590Y-110704411D01*
X115635460Y-110834271D01*
X115497890Y-110993035D01*
X115463334Y-111052887D01*
X114319477Y-109909030D01*
X114319476Y-109909030D01*
X114174191Y-110094474D01*
X114169945Y-110100626D01*
X114004836Y-110373748D01*
X114001362Y-110380368D01*
X113870374Y-110671410D01*
X113867729Y-110678386D01*
X113772778Y-110983092D01*
X113770990Y-110990348D01*
X113713462Y-111304267D01*
X113712560Y-111311697D01*
X113693291Y-111630263D01*
X113693291Y-111637736D01*
X112842684Y-111637736D01*
X112842649Y-111637032D01*
X112842500Y-111630949D01*
X112842500Y-107571302D01*
X128389500Y-107571302D01*
X128389501Y-107574864D01*
X128389912Y-107578407D01*
X128392415Y-107599991D01*
X128437795Y-107702767D01*
X128517232Y-107782204D01*
X128517233Y-107782204D01*
X128517235Y-107782206D01*
X128620009Y-107827585D01*
X128645135Y-107830500D01*
X130434864Y-107830499D01*
X130459991Y-107827585D01*
X130562765Y-107782206D01*
X130642206Y-107702765D01*
X130687585Y-107599991D01*
X130690500Y-107574865D01*
X130690499Y-107229500D01*
X130710185Y-107162461D01*
X130762989Y-107116706D01*
X130814500Y-107105500D01*
X130877391Y-107105500D01*
X130877393Y-107105500D01*
X130900363Y-107098035D01*
X130919266Y-107093497D01*
X130943126Y-107089719D01*
X130964647Y-107078752D01*
X130982616Y-107071309D01*
X131005581Y-107063849D01*
X131025111Y-107049658D01*
X131041704Y-107039489D01*
X131063220Y-107028528D01*
X131158528Y-106933220D01*
X131158528Y-106933219D01*
X132404553Y-105687195D01*
X132428528Y-105663220D01*
X132439495Y-105641695D01*
X132449650Y-105625123D01*
X132463849Y-105605581D01*
X132471310Y-105582614D01*
X132478752Y-105564647D01*
X132489719Y-105543126D01*
X132493497Y-105519266D01*
X132498035Y-105500363D01*
X132505500Y-105477393D01*
X132505500Y-105342607D01*
X132505500Y-105342606D01*
X132505500Y-100203999D01*
X136520354Y-100203999D01*
X136540860Y-100372872D01*
X136601182Y-100531930D01*
X136697815Y-100671927D01*
X136697816Y-100671928D01*
X136697817Y-100671929D01*
X136825148Y-100784734D01*
X136975775Y-100863790D01*
X137116711Y-100898527D01*
X137174718Y-100931242D01*
X141816366Y-105572891D01*
X141819741Y-105575450D01*
X141819743Y-105575452D01*
X141822833Y-105577795D01*
X141906658Y-105641361D01*
X142047436Y-105696876D01*
X142197972Y-105712352D01*
X142197972Y-105712351D01*
X142214927Y-105714095D01*
X142214645Y-105716831D01*
X142258490Y-105721884D01*
X142272744Y-105730874D01*
X142272816Y-105730737D01*
X142383281Y-105788714D01*
X142436775Y-105816790D01*
X142601944Y-105857500D01*
X142601945Y-105857500D01*
X142772055Y-105857500D01*
X142772056Y-105857500D01*
X142937225Y-105816790D01*
X143087852Y-105737734D01*
X143087851Y-105737734D01*
X143101184Y-105730737D01*
X143101679Y-105731680D01*
X143150011Y-105708964D01*
X143169006Y-105707500D01*
X144871994Y-105707500D01*
X144939033Y-105727185D01*
X144952555Y-105737423D01*
X145050281Y-105788714D01*
X145103775Y-105816790D01*
X145268944Y-105857500D01*
X145268945Y-105857500D01*
X145439055Y-105857500D01*
X145439056Y-105857500D01*
X145604225Y-105816790D01*
X145754852Y-105737734D01*
X145882183Y-105624929D01*
X145978818Y-105484930D01*
X146039140Y-105325872D01*
X146059645Y-105157000D01*
X146039140Y-104988128D01*
X145978818Y-104829070D01*
X145882183Y-104689071D01*
X145754852Y-104576266D01*
X145695408Y-104545067D01*
X145604224Y-104497209D01*
X145479764Y-104466533D01*
X145439056Y-104456500D01*
X145268944Y-104456500D01*
X145213887Y-104470070D01*
X145103773Y-104497210D01*
X144939816Y-104583263D01*
X144939320Y-104582319D01*
X144890989Y-104605036D01*
X144871994Y-104606500D01*
X143169006Y-104606500D01*
X143101967Y-104586815D01*
X143088444Y-104576576D01*
X142937226Y-104497210D01*
X142854640Y-104476855D01*
X142772056Y-104456500D01*
X142601944Y-104456500D01*
X142568910Y-104464642D01*
X142436771Y-104497210D01*
X142426379Y-104502665D01*
X142357871Y-104516389D01*
X142292818Y-104490896D01*
X142281074Y-104480549D01*
X141580524Y-103779999D01*
X149682659Y-103779999D01*
X149701976Y-103976133D01*
X149759185Y-104164726D01*
X149795464Y-104232599D01*
X149852090Y-104338538D01*
X149977117Y-104490883D01*
X150129462Y-104615910D01*
X150303273Y-104708814D01*
X150491868Y-104766024D01*
X150688000Y-104785341D01*
X150884132Y-104766024D01*
X151072727Y-104708814D01*
X151246538Y-104615910D01*
X151398883Y-104490883D01*
X151523910Y-104338538D01*
X151616814Y-104164727D01*
X151674024Y-103976132D01*
X151693341Y-103780000D01*
X151674024Y-103583868D01*
X151616814Y-103395273D01*
X151523910Y-103221462D01*
X151398883Y-103069117D01*
X151246538Y-102944090D01*
X151224091Y-102932092D01*
X151072726Y-102851185D01*
X150884133Y-102793976D01*
X150688000Y-102774659D01*
X150491866Y-102793976D01*
X150303273Y-102851185D01*
X150129463Y-102944089D01*
X149977117Y-103069117D01*
X149852089Y-103221463D01*
X149759185Y-103395273D01*
X149701976Y-103583866D01*
X149682659Y-103779999D01*
X141580524Y-103779999D01*
X138004524Y-100203999D01*
X147569354Y-100203999D01*
X147589860Y-100372872D01*
X147650182Y-100531930D01*
X147746815Y-100671927D01*
X147746816Y-100671928D01*
X147746817Y-100671929D01*
X147874148Y-100784734D01*
X148024775Y-100863790D01*
X148189944Y-100904500D01*
X148189945Y-100904500D01*
X148360055Y-100904500D01*
X148360056Y-100904500D01*
X148525225Y-100863790D01*
X148675852Y-100784734D01*
X148803183Y-100671929D01*
X148899818Y-100531930D01*
X148960140Y-100372872D01*
X148980645Y-100204000D01*
X148960140Y-100035128D01*
X148899818Y-99876070D01*
X148803183Y-99736071D01*
X148803182Y-99736069D01*
X148767273Y-99704257D01*
X148730146Y-99645068D01*
X148725500Y-99611442D01*
X148725500Y-99319998D01*
X149662659Y-99319998D01*
X149681976Y-99516131D01*
X149739185Y-99704724D01*
X149755941Y-99736072D01*
X149832090Y-99878536D01*
X149957117Y-100030881D01*
X150109462Y-100155908D01*
X150283273Y-100248812D01*
X150471868Y-100306022D01*
X150668000Y-100325339D01*
X150864132Y-100306022D01*
X151052727Y-100248812D01*
X151226538Y-100155908D01*
X151378883Y-100030881D01*
X151503910Y-99878536D01*
X151596814Y-99704725D01*
X151654024Y-99516130D01*
X151673341Y-99319998D01*
X152202659Y-99319998D01*
X152221976Y-99516131D01*
X152279185Y-99704724D01*
X152295941Y-99736072D01*
X152372090Y-99878536D01*
X152497117Y-100030881D01*
X152649462Y-100155908D01*
X152823273Y-100248812D01*
X153011868Y-100306022D01*
X153208000Y-100325339D01*
X153404132Y-100306022D01*
X153592727Y-100248812D01*
X153766538Y-100155908D01*
X153918883Y-100030881D01*
X154043910Y-99878536D01*
X154136814Y-99704725D01*
X154194024Y-99516130D01*
X154213341Y-99319998D01*
X154194024Y-99123866D01*
X154136814Y-98935271D01*
X154043910Y-98761460D01*
X153918883Y-98609115D01*
X153766538Y-98484088D01*
X153612261Y-98401625D01*
X153592726Y-98391183D01*
X153404133Y-98333974D01*
X153208000Y-98314657D01*
X153011866Y-98333974D01*
X152823273Y-98391183D01*
X152649463Y-98484087D01*
X152497117Y-98609115D01*
X152372089Y-98761461D01*
X152279185Y-98935271D01*
X152221976Y-99123864D01*
X152202659Y-99319998D01*
X151673341Y-99319998D01*
X151654024Y-99123866D01*
X151596814Y-98935271D01*
X151503910Y-98761460D01*
X151378883Y-98609115D01*
X151226538Y-98484088D01*
X151072261Y-98401625D01*
X151052726Y-98391183D01*
X150864133Y-98333974D01*
X150766066Y-98324315D01*
X150668000Y-98314657D01*
X150667999Y-98314657D01*
X150471866Y-98333974D01*
X150283273Y-98391183D01*
X150109463Y-98484087D01*
X149957117Y-98609115D01*
X149832089Y-98761461D01*
X149739185Y-98935271D01*
X149681976Y-99123864D01*
X149662659Y-99319998D01*
X148725500Y-99319998D01*
X148725500Y-99163055D01*
X148745185Y-99096016D01*
X148767275Y-99070238D01*
X148803183Y-99038427D01*
X148803182Y-99038426D01*
X148899818Y-98898428D01*
X148960140Y-98739370D01*
X148980645Y-98570498D01*
X148960140Y-98401626D01*
X148899818Y-98242568D01*
X148803183Y-98102569D01*
X148675852Y-97989764D01*
X148661588Y-97982278D01*
X148525224Y-97910707D01*
X148400765Y-97880031D01*
X148360056Y-97869998D01*
X148189944Y-97869998D01*
X148157284Y-97878047D01*
X148024775Y-97910707D01*
X147874149Y-97989763D01*
X147746815Y-98102570D01*
X147650182Y-98242567D01*
X147589860Y-98401625D01*
X147569354Y-98570497D01*
X147589860Y-98739370D01*
X147650182Y-98898428D01*
X147746816Y-99038427D01*
X147782725Y-99070238D01*
X147819853Y-99129427D01*
X147824500Y-99163055D01*
X147824500Y-99611442D01*
X147804815Y-99678481D01*
X147782727Y-99704257D01*
X147746817Y-99736069D01*
X147650182Y-99876069D01*
X147589860Y-100035127D01*
X147569354Y-100203999D01*
X138004524Y-100203999D01*
X137951829Y-100151304D01*
X137918344Y-100089981D01*
X137916414Y-100078568D01*
X137911140Y-100035128D01*
X137850818Y-99876070D01*
X137754183Y-99736071D01*
X137626852Y-99623266D01*
X137612588Y-99615780D01*
X137476224Y-99544209D01*
X137351764Y-99513533D01*
X137311056Y-99503500D01*
X137140944Y-99503500D01*
X137108284Y-99511549D01*
X136975775Y-99544209D01*
X136825149Y-99623265D01*
X136697815Y-99736072D01*
X136601182Y-99876069D01*
X136540860Y-100035127D01*
X136520354Y-100203999D01*
X132505500Y-100203999D01*
X132505500Y-99922608D01*
X132525185Y-99855569D01*
X132541814Y-99834932D01*
X135119927Y-97256818D01*
X135181250Y-97223334D01*
X135207608Y-97220500D01*
X135340055Y-97220500D01*
X135340056Y-97220500D01*
X135505225Y-97179790D01*
X135655852Y-97100734D01*
X135783183Y-96987929D01*
X135879818Y-96847930D01*
X135940140Y-96688872D01*
X135960645Y-96520000D01*
X135940140Y-96351128D01*
X135879818Y-96192070D01*
X135783183Y-96052071D01*
X135655852Y-95939266D01*
X135641588Y-95931780D01*
X135505224Y-95860209D01*
X135380764Y-95829533D01*
X135340056Y-95819500D01*
X135169944Y-95819500D01*
X135137284Y-95827549D01*
X135004775Y-95860209D01*
X134854149Y-95939265D01*
X134726815Y-96052072D01*
X134630182Y-96192069D01*
X134569860Y-96351127D01*
X134549354Y-96520002D01*
X134553326Y-96552715D01*
X134541865Y-96621638D01*
X134517911Y-96655340D01*
X131809338Y-99363913D01*
X131731470Y-99441782D01*
X131720509Y-99463294D01*
X131710347Y-99479877D01*
X131696151Y-99499417D01*
X131688687Y-99522387D01*
X131681244Y-99540356D01*
X131670280Y-99561874D01*
X131666503Y-99585723D01*
X131661962Y-99604639D01*
X131654500Y-99627606D01*
X131654500Y-105182389D01*
X131634815Y-105249428D01*
X131618181Y-105270070D01*
X130902180Y-105986071D01*
X130840857Y-106019556D01*
X130771165Y-106014572D01*
X130715232Y-105972700D01*
X130690815Y-105907236D01*
X130690499Y-105898390D01*
X130690499Y-105788714D01*
X130690499Y-105788709D01*
X130690499Y-105785136D01*
X130687585Y-105760009D01*
X130642206Y-105657235D01*
X130642204Y-105657233D01*
X130642204Y-105657232D01*
X130562767Y-105577795D01*
X130552668Y-105573336D01*
X130544869Y-105569892D01*
X130459990Y-105532414D01*
X130438414Y-105529911D01*
X130438401Y-105529910D01*
X130434865Y-105529500D01*
X130431290Y-105529500D01*
X128648714Y-105529500D01*
X128648696Y-105529500D01*
X128645136Y-105529501D01*
X128641592Y-105529911D01*
X128641592Y-105529912D01*
X128620008Y-105532415D01*
X128517232Y-105577795D01*
X128437795Y-105657232D01*
X128392414Y-105760009D01*
X128389911Y-105781585D01*
X128389911Y-105781592D01*
X128389500Y-105785135D01*
X128389500Y-105788708D01*
X128389500Y-105788709D01*
X128389500Y-107571285D01*
X128389500Y-107571302D01*
X112842500Y-107571302D01*
X112842500Y-96141302D01*
X121404500Y-96141302D01*
X121404501Y-96144864D01*
X121404912Y-96148407D01*
X121407415Y-96169991D01*
X121452795Y-96272767D01*
X121532232Y-96352204D01*
X121532233Y-96352204D01*
X121532235Y-96352206D01*
X121635009Y-96397585D01*
X121660135Y-96400500D01*
X123449864Y-96400499D01*
X123474991Y-96397585D01*
X123577765Y-96352206D01*
X123657206Y-96272765D01*
X123702585Y-96169991D01*
X123705500Y-96144865D01*
X123705499Y-94355136D01*
X123702585Y-94330009D01*
X123657206Y-94227235D01*
X123657204Y-94227233D01*
X123657204Y-94227232D01*
X123577767Y-94147795D01*
X123474990Y-94102414D01*
X123453414Y-94099911D01*
X123453401Y-94099910D01*
X123449865Y-94099500D01*
X123446290Y-94099500D01*
X121663714Y-94099500D01*
X121663696Y-94099500D01*
X121660136Y-94099501D01*
X121656592Y-94099911D01*
X121656592Y-94099912D01*
X121635008Y-94102415D01*
X121532232Y-94147795D01*
X121452795Y-94227232D01*
X121407414Y-94330009D01*
X121404911Y-94351585D01*
X121404911Y-94351592D01*
X121404500Y-94355135D01*
X121404500Y-94358708D01*
X121404500Y-94358709D01*
X121404500Y-96141285D01*
X121404500Y-96141302D01*
X112842500Y-96141302D01*
X112842500Y-92860000D01*
X134473001Y-92860000D01*
X134473001Y-92880165D01*
X134473321Y-92886447D01*
X134483143Y-92982605D01*
X134536453Y-93143486D01*
X134625426Y-93287732D01*
X134745267Y-93407573D01*
X134889513Y-93496546D01*
X135050393Y-93549856D01*
X135146535Y-93559678D01*
X135152852Y-93559999D01*
X135197999Y-93559999D01*
X135198000Y-93559998D01*
X135198000Y-92860000D01*
X135698000Y-92860000D01*
X135698000Y-93559999D01*
X135743165Y-93559999D01*
X135749447Y-93559678D01*
X135845605Y-93549856D01*
X136006486Y-93496546D01*
X136150732Y-93407573D01*
X136270573Y-93287732D01*
X136359546Y-93143486D01*
X136412856Y-92982606D01*
X136422680Y-92886445D01*
X136423000Y-92880167D01*
X136423000Y-92860000D01*
X135698000Y-92860000D01*
X135198000Y-92860000D01*
X134473001Y-92860000D01*
X112842500Y-92860000D01*
X112842500Y-91059999D01*
X132964354Y-91059999D01*
X132984860Y-91228872D01*
X133045182Y-91387930D01*
X133141815Y-91527927D01*
X133141816Y-91527928D01*
X133141817Y-91527929D01*
X133269148Y-91640734D01*
X133419775Y-91719790D01*
X133584944Y-91760500D01*
X133584945Y-91760500D01*
X133755055Y-91760500D01*
X133755056Y-91760500D01*
X133920225Y-91719790D01*
X134070852Y-91640734D01*
X134127067Y-91590931D01*
X134182658Y-91541684D01*
X134245891Y-91511963D01*
X134264884Y-91510500D01*
X134647904Y-91510500D01*
X134714943Y-91530185D01*
X134746708Y-91559575D01*
X134794390Y-91622454D01*
X134819213Y-91687766D01*
X134804785Y-91756130D01*
X134760686Y-91802916D01*
X134745266Y-91812427D01*
X134625426Y-91932267D01*
X134536453Y-92076513D01*
X134483143Y-92237393D01*
X134473319Y-92333554D01*
X134473000Y-92339832D01*
X134473000Y-92360000D01*
X136422999Y-92360000D01*
X136422999Y-92339834D01*
X136422678Y-92333552D01*
X136412856Y-92237394D01*
X136359546Y-92076513D01*
X136270573Y-91932267D01*
X136150733Y-91812427D01*
X136135315Y-91802917D01*
X136088591Y-91750969D01*
X136077370Y-91682006D01*
X136101609Y-91622454D01*
X136149294Y-91559572D01*
X136205485Y-91518051D01*
X136248096Y-91510500D01*
X136631116Y-91510500D01*
X136698155Y-91530185D01*
X136713342Y-91541684D01*
X136804513Y-91622453D01*
X136825148Y-91640734D01*
X136975775Y-91719790D01*
X137140944Y-91760500D01*
X137140945Y-91760500D01*
X137311055Y-91760500D01*
X137311056Y-91760500D01*
X137476225Y-91719790D01*
X137626852Y-91640734D01*
X137754183Y-91527929D01*
X137850818Y-91387930D01*
X137911140Y-91228872D01*
X137931645Y-91060000D01*
X137911140Y-90891128D01*
X137850818Y-90732070D01*
X137807452Y-90669245D01*
X137754182Y-90592069D01*
X137718273Y-90560257D01*
X137681146Y-90501068D01*
X137676500Y-90467442D01*
X137676500Y-90313000D01*
X164634715Y-90313000D01*
X164678441Y-90457150D01*
X164773620Y-90635215D01*
X164901707Y-90791292D01*
X165057784Y-90919379D01*
X165235848Y-91014557D01*
X165429067Y-91073170D01*
X165576604Y-91087701D01*
X165582689Y-91088000D01*
X165805000Y-91088000D01*
X165805000Y-90313000D01*
X166305000Y-90313000D01*
X166305000Y-91088000D01*
X166527311Y-91088000D01*
X166533395Y-91087701D01*
X166680932Y-91073170D01*
X166874151Y-91014557D01*
X167052215Y-90919379D01*
X167208292Y-90791292D01*
X167336379Y-90635215D01*
X167431558Y-90457150D01*
X167475285Y-90313000D01*
X166305000Y-90313000D01*
X165805000Y-90313000D01*
X164634715Y-90313000D01*
X137676500Y-90313000D01*
X137676500Y-90139873D01*
X137692012Y-90087044D01*
X165426233Y-90087044D01*
X165455791Y-90178013D01*
X165519794Y-90249096D01*
X165607175Y-90288000D01*
X166478650Y-90288000D01*
X166548560Y-90273140D01*
X166625943Y-90216918D01*
X166673769Y-90134082D01*
X166683767Y-90038956D01*
X166654209Y-89947987D01*
X166590206Y-89876904D01*
X166502825Y-89838000D01*
X165631350Y-89838000D01*
X165561440Y-89852860D01*
X165484057Y-89909082D01*
X165436231Y-89991918D01*
X165426233Y-90087044D01*
X137692012Y-90087044D01*
X137696185Y-90072834D01*
X137719470Y-90049783D01*
X137718383Y-90048696D01*
X137855814Y-89911264D01*
X137855813Y-89911264D01*
X137855816Y-89911262D01*
X137917558Y-89813000D01*
X164634715Y-89813000D01*
X165805000Y-89813000D01*
X165805000Y-89038000D01*
X166305000Y-89038000D01*
X166305000Y-89813000D01*
X167475285Y-89813000D01*
X167431558Y-89668849D01*
X167336379Y-89490784D01*
X167208292Y-89334707D01*
X167052215Y-89206620D01*
X166874151Y-89111442D01*
X166680932Y-89052829D01*
X166533395Y-89038298D01*
X166527311Y-89038000D01*
X166305000Y-89038000D01*
X165805000Y-89038000D01*
X165582689Y-89038000D01*
X165576604Y-89038298D01*
X165429067Y-89052829D01*
X165235848Y-89111442D01*
X165057784Y-89206620D01*
X164901707Y-89334707D01*
X164773620Y-89490784D01*
X164678441Y-89668849D01*
X164634715Y-89813000D01*
X137917558Y-89813000D01*
X137951789Y-89758522D01*
X138011368Y-89588255D01*
X138031565Y-89409000D01*
X138011368Y-89229745D01*
X137951789Y-89059478D01*
X137855816Y-88906738D01*
X137855815Y-88906737D01*
X137855814Y-88906735D01*
X137728264Y-88779185D01*
X137665867Y-88739979D01*
X137575522Y-88683211D01*
X137405255Y-88623632D01*
X137405253Y-88623631D01*
X137405251Y-88623631D01*
X137226000Y-88603434D01*
X137046748Y-88623631D01*
X137046745Y-88623631D01*
X137046745Y-88623632D01*
X136876478Y-88683211D01*
X136876476Y-88683211D01*
X136876476Y-88683212D01*
X136723735Y-88779185D01*
X136596185Y-88906735D01*
X136500212Y-89059476D01*
X136440631Y-89229748D01*
X136420434Y-89408999D01*
X136440631Y-89588251D01*
X136440631Y-89588253D01*
X136440632Y-89588255D01*
X136500211Y-89758522D01*
X136500212Y-89758523D01*
X136596185Y-89911264D01*
X136733617Y-90048696D01*
X136731535Y-90050777D01*
X136763762Y-90087212D01*
X136775500Y-90139873D01*
X136775500Y-90467442D01*
X136755815Y-90534481D01*
X136733727Y-90560256D01*
X136717058Y-90575025D01*
X136713342Y-90578317D01*
X136650108Y-90608037D01*
X136631116Y-90609500D01*
X136248096Y-90609500D01*
X136181057Y-90589815D01*
X136149292Y-90560425D01*
X136149166Y-90560259D01*
X136123436Y-90526328D01*
X136073078Y-90459921D01*
X135957973Y-90372634D01*
X135823593Y-90319641D01*
X135762424Y-90312295D01*
X135739144Y-90309500D01*
X135156856Y-90309500D01*
X135153192Y-90309939D01*
X135153192Y-90309940D01*
X135072406Y-90319641D01*
X134938026Y-90372634D01*
X134822921Y-90459921D01*
X134766382Y-90534481D01*
X134746834Y-90560259D01*
X134746708Y-90560425D01*
X134690516Y-90601948D01*
X134647904Y-90609500D01*
X134264884Y-90609500D01*
X134197845Y-90589815D01*
X134182658Y-90578316D01*
X134070853Y-90479267D01*
X134070852Y-90479266D01*
X133995538Y-90439738D01*
X133920224Y-90400209D01*
X133795765Y-90369533D01*
X133755056Y-90359500D01*
X133584944Y-90359500D01*
X133552284Y-90367549D01*
X133419775Y-90400209D01*
X133269149Y-90479265D01*
X133141815Y-90592072D01*
X133045182Y-90732069D01*
X132984860Y-90891127D01*
X132964354Y-91059999D01*
X112842500Y-91059999D01*
X112842500Y-79762518D01*
X121652000Y-79762518D01*
X121652354Y-79769132D01*
X121658400Y-79825371D01*
X121708647Y-79960089D01*
X121794811Y-80075188D01*
X121909910Y-80161352D01*
X122044628Y-80211599D01*
X122100867Y-80217645D01*
X122107482Y-80218000D01*
X122302634Y-80218000D01*
X122369673Y-80237685D01*
X122415428Y-80290489D01*
X122425372Y-80359647D01*
X122396347Y-80423203D01*
X122367913Y-80447425D01*
X122350545Y-80458179D01*
X122305698Y-80485947D01*
X122148126Y-80629594D01*
X122019631Y-80799747D01*
X121924595Y-80990609D01*
X121866243Y-81195689D01*
X121846571Y-81408000D01*
X121866243Y-81620310D01*
X121924595Y-81825390D01*
X122019631Y-82016252D01*
X122146844Y-82184707D01*
X122148128Y-82186407D01*
X122305698Y-82330052D01*
X122486981Y-82442298D01*
X122685802Y-82519321D01*
X122882616Y-82556112D01*
X122944893Y-82587778D01*
X122980166Y-82648090D01*
X122977232Y-82717898D01*
X122937024Y-82775039D01*
X122882613Y-82799887D01*
X122685805Y-82836678D01*
X122685802Y-82836678D01*
X122685802Y-82836679D01*
X122664140Y-82845071D01*
X122486982Y-82913701D01*
X122305698Y-83025947D01*
X122148126Y-83169594D01*
X122019631Y-83339747D01*
X121924595Y-83530609D01*
X121866243Y-83735689D01*
X121846571Y-83947999D01*
X121866243Y-84160310D01*
X121924595Y-84365390D01*
X122019631Y-84556252D01*
X122148126Y-84726405D01*
X122148128Y-84726407D01*
X122305698Y-84870052D01*
X122486981Y-84982298D01*
X122685802Y-85059321D01*
X122895390Y-85098500D01*
X122895392Y-85098500D01*
X123108608Y-85098500D01*
X123108610Y-85098500D01*
X123318198Y-85059321D01*
X123517019Y-84982298D01*
X123698302Y-84870052D01*
X123855872Y-84726407D01*
X123984366Y-84556255D01*
X123984366Y-84556253D01*
X123984368Y-84556252D01*
X124032080Y-84460430D01*
X124079405Y-84365389D01*
X124137756Y-84160310D01*
X124157429Y-83948000D01*
X124137756Y-83735690D01*
X124079405Y-83530611D01*
X124033505Y-83438430D01*
X123984368Y-83339747D01*
X123964169Y-83313000D01*
X129535354Y-83313000D01*
X129555860Y-83481872D01*
X129616182Y-83640930D01*
X129712815Y-83780927D01*
X129712816Y-83780928D01*
X129712817Y-83780929D01*
X129840148Y-83893734D01*
X129990775Y-83972790D01*
X130155944Y-84013500D01*
X130155945Y-84013500D01*
X130326055Y-84013500D01*
X130326056Y-84013500D01*
X130491225Y-83972790D01*
X130641852Y-83893734D01*
X130769183Y-83780929D01*
X130865818Y-83640930D01*
X130926140Y-83481872D01*
X130931414Y-83438428D01*
X130959035Y-83374252D01*
X130966818Y-83365705D01*
X131169523Y-83163000D01*
X164634715Y-83163000D01*
X164678441Y-83307150D01*
X164773620Y-83485215D01*
X164901707Y-83641292D01*
X165057784Y-83769379D01*
X165235848Y-83864557D01*
X165429067Y-83923170D01*
X165576604Y-83937701D01*
X165582689Y-83938000D01*
X165805000Y-83938000D01*
X165805000Y-83163000D01*
X166305000Y-83163000D01*
X166305000Y-83938000D01*
X166527311Y-83938000D01*
X166533395Y-83937701D01*
X166680932Y-83923170D01*
X166874151Y-83864557D01*
X167052215Y-83769379D01*
X167208292Y-83641292D01*
X167336379Y-83485215D01*
X167431558Y-83307150D01*
X167475285Y-83163000D01*
X166305000Y-83163000D01*
X165805000Y-83163000D01*
X164634715Y-83163000D01*
X131169523Y-83163000D01*
X131395479Y-82937044D01*
X165426233Y-82937044D01*
X165455791Y-83028013D01*
X165519794Y-83099096D01*
X165607175Y-83138000D01*
X166478650Y-83138000D01*
X166548560Y-83123140D01*
X166625943Y-83066918D01*
X166673769Y-82984082D01*
X166683767Y-82888956D01*
X166654209Y-82797987D01*
X166590206Y-82726904D01*
X166502825Y-82688000D01*
X165631350Y-82688000D01*
X165561440Y-82702860D01*
X165484057Y-82759082D01*
X165436231Y-82841918D01*
X165426233Y-82937044D01*
X131395479Y-82937044D01*
X131562282Y-82770241D01*
X131620284Y-82737528D01*
X131761225Y-82702790D01*
X131837038Y-82663000D01*
X164634715Y-82663000D01*
X165805000Y-82663000D01*
X165805000Y-81888000D01*
X166305000Y-81888000D01*
X166305000Y-82663000D01*
X167475285Y-82663000D01*
X167431558Y-82518849D01*
X167336379Y-82340784D01*
X167208292Y-82184707D01*
X167052215Y-82056620D01*
X166874151Y-81961442D01*
X166680932Y-81902829D01*
X166533395Y-81888298D01*
X166527311Y-81888000D01*
X166305000Y-81888000D01*
X165805000Y-81888000D01*
X165582689Y-81888000D01*
X165576604Y-81888298D01*
X165429067Y-81902829D01*
X165235848Y-81961442D01*
X165057784Y-82056620D01*
X164901707Y-82184707D01*
X164773620Y-82340784D01*
X164678441Y-82518849D01*
X164634715Y-82663000D01*
X131837038Y-82663000D01*
X131911852Y-82623734D01*
X132039183Y-82510929D01*
X132135818Y-82370930D01*
X132196140Y-82211872D01*
X132216645Y-82043000D01*
X132196140Y-81874128D01*
X132135818Y-81715070D01*
X132087500Y-81645070D01*
X132039184Y-81575072D01*
X132039183Y-81575071D01*
X131911852Y-81462266D01*
X131808458Y-81408000D01*
X131761224Y-81383209D01*
X131636765Y-81352533D01*
X131596056Y-81342500D01*
X131425944Y-81342500D01*
X131393284Y-81350549D01*
X131260775Y-81383209D01*
X131110149Y-81462265D01*
X130982815Y-81575072D01*
X130886182Y-81715069D01*
X130825860Y-81874127D01*
X130820584Y-81917573D01*
X130792960Y-81981751D01*
X130785169Y-81990305D01*
X130189718Y-82585756D01*
X130131712Y-82618472D01*
X129990775Y-82653209D01*
X129840149Y-82732265D01*
X129712815Y-82845072D01*
X129616182Y-82985069D01*
X129555860Y-83144127D01*
X129535354Y-83313000D01*
X123964169Y-83313000D01*
X123855873Y-83169594D01*
X123698301Y-83025947D01*
X123586802Y-82956909D01*
X123517019Y-82913702D01*
X123517017Y-82913701D01*
X123453142Y-82888956D01*
X123318198Y-82836679D01*
X123169249Y-82808835D01*
X123121386Y-82799888D01*
X123059106Y-82768219D01*
X123023833Y-82707907D01*
X123026767Y-82638099D01*
X123066976Y-82580959D01*
X123121381Y-82556112D01*
X123318198Y-82519321D01*
X123517019Y-82442298D01*
X123698302Y-82330052D01*
X123855872Y-82186407D01*
X123984366Y-82016255D01*
X123984366Y-82016253D01*
X123984368Y-82016252D01*
X124055136Y-81874128D01*
X124079405Y-81825389D01*
X124137756Y-81620310D01*
X124157429Y-81408000D01*
X124137756Y-81195690D01*
X124079405Y-80990611D01*
X124079014Y-80989827D01*
X123984368Y-80799747D01*
X123855873Y-80629594D01*
X123698301Y-80485947D01*
X123667454Y-80466848D01*
X123636087Y-80447426D01*
X123589453Y-80395399D01*
X123578349Y-80326417D01*
X123606302Y-80262383D01*
X123664437Y-80223627D01*
X123701366Y-80218000D01*
X123896518Y-80218000D01*
X123903132Y-80217645D01*
X123959371Y-80211599D01*
X124094089Y-80161352D01*
X124209188Y-80075188D01*
X124295352Y-79960089D01*
X124345599Y-79825371D01*
X124351645Y-79769132D01*
X124352000Y-79762518D01*
X124352000Y-79118000D01*
X123435686Y-79118000D01*
X123461493Y-79077844D01*
X123502000Y-78939889D01*
X123502000Y-78796111D01*
X123461493Y-78658156D01*
X123435686Y-78618000D01*
X124352000Y-78618000D01*
X124352000Y-78487000D01*
X132202354Y-78487000D01*
X132222860Y-78655872D01*
X132283182Y-78814930D01*
X132379815Y-78954927D01*
X132379816Y-78954928D01*
X132379817Y-78954929D01*
X132507148Y-79067734D01*
X132657775Y-79146790D01*
X132822944Y-79187500D01*
X132822945Y-79187500D01*
X132993055Y-79187500D01*
X132993056Y-79187500D01*
X133158225Y-79146790D01*
X133308852Y-79067734D01*
X133308851Y-79067734D01*
X133322184Y-79060737D01*
X133322679Y-79061680D01*
X133371011Y-79038964D01*
X133390006Y-79037500D01*
X134965994Y-79037500D01*
X135033033Y-79057185D01*
X135046555Y-79067423D01*
X135163435Y-79128767D01*
X135197775Y-79146790D01*
X135362944Y-79187500D01*
X135362945Y-79187500D01*
X135533055Y-79187500D01*
X135533056Y-79187500D01*
X135698225Y-79146790D01*
X135848852Y-79067734D01*
X135976183Y-78954929D01*
X136072818Y-78814930D01*
X136133140Y-78655872D01*
X136153645Y-78487000D01*
X136137739Y-78356000D01*
X147071364Y-78356000D01*
X147128569Y-78569492D01*
X147228399Y-78783576D01*
X147363893Y-78977081D01*
X147530918Y-79144106D01*
X147724423Y-79279600D01*
X147938509Y-79379430D01*
X148152000Y-79436634D01*
X148152000Y-78541501D01*
X148259685Y-78590680D01*
X148366237Y-78606000D01*
X148437763Y-78606000D01*
X148544315Y-78590680D01*
X148652000Y-78541501D01*
X148652000Y-79436633D01*
X148865490Y-79379430D01*
X149079576Y-79279600D01*
X149273081Y-79144106D01*
X149440106Y-78977081D01*
X149575600Y-78783576D01*
X149669294Y-78582651D01*
X149715466Y-78530212D01*
X149782660Y-78511060D01*
X149849541Y-78531276D01*
X149892677Y-78579785D01*
X149959634Y-78714256D01*
X150088126Y-78884405D01*
X150088128Y-78884407D01*
X150245698Y-79028052D01*
X150426981Y-79140298D01*
X150625802Y-79217321D01*
X150835390Y-79256500D01*
X150835392Y-79256500D01*
X151048608Y-79256500D01*
X151048610Y-79256500D01*
X151258198Y-79217321D01*
X151457019Y-79140298D01*
X151638302Y-79028052D01*
X151795872Y-78884407D01*
X151924366Y-78714255D01*
X151924366Y-78714253D01*
X151924368Y-78714252D01*
X151991323Y-78579785D01*
X152019405Y-78523389D01*
X152077756Y-78318310D01*
X152088529Y-78202047D01*
X152114315Y-78137111D01*
X152156622Y-78106804D01*
X152265130Y-78106804D01*
X152301503Y-78127668D01*
X152333693Y-78189681D01*
X152335471Y-78202048D01*
X152346243Y-78318310D01*
X152404595Y-78523390D01*
X152499631Y-78714252D01*
X152628126Y-78884405D01*
X152628128Y-78884407D01*
X152785698Y-79028052D01*
X152966981Y-79140298D01*
X153165802Y-79217321D01*
X153375390Y-79256500D01*
X153375392Y-79256500D01*
X153588608Y-79256500D01*
X153588610Y-79256500D01*
X153798198Y-79217321D01*
X153997019Y-79140298D01*
X154178302Y-79028052D01*
X154335872Y-78884407D01*
X154464366Y-78714255D01*
X154464366Y-78714253D01*
X154464368Y-78714252D01*
X154531323Y-78579785D01*
X154559405Y-78523389D01*
X154617756Y-78318310D01*
X154624029Y-78250605D01*
X154649814Y-78185670D01*
X154706614Y-78144981D01*
X154776395Y-78141461D01*
X154837002Y-78176225D01*
X154869193Y-78238238D01*
X154871500Y-78262047D01*
X154871500Y-78997285D01*
X154871500Y-78997302D01*
X154871501Y-79000864D01*
X154871912Y-79004407D01*
X154874415Y-79025991D01*
X154919795Y-79128767D01*
X154999232Y-79208204D01*
X154999233Y-79208204D01*
X154999235Y-79208206D01*
X155102009Y-79253585D01*
X155127135Y-79256500D01*
X156916864Y-79256499D01*
X156941991Y-79253585D01*
X157044765Y-79208206D01*
X157124206Y-79128765D01*
X157169585Y-79025991D01*
X157172500Y-79000865D01*
X157172499Y-77211136D01*
X157169585Y-77186009D01*
X157124206Y-77083235D01*
X157124204Y-77083233D01*
X157124204Y-77083232D01*
X157044767Y-77003795D01*
X156941990Y-76958414D01*
X156920414Y-76955911D01*
X156920401Y-76955910D01*
X156916865Y-76955500D01*
X156913290Y-76955500D01*
X155130714Y-76955500D01*
X155130696Y-76955500D01*
X155127136Y-76955501D01*
X155123592Y-76955911D01*
X155123592Y-76955912D01*
X155102008Y-76958415D01*
X154999232Y-77003795D01*
X154919795Y-77083232D01*
X154874414Y-77186009D01*
X154871911Y-77207585D01*
X154871911Y-77207592D01*
X154871500Y-77211135D01*
X154871500Y-77214708D01*
X154871500Y-77214709D01*
X154871500Y-77949950D01*
X154851815Y-78016989D01*
X154799011Y-78062744D01*
X154729853Y-78072688D01*
X154666297Y-78043663D01*
X154628523Y-77984885D01*
X154624029Y-77961390D01*
X154617756Y-77893689D01*
X154559404Y-77688609D01*
X154464368Y-77497747D01*
X154335873Y-77327594D01*
X154178301Y-77183947D01*
X154015645Y-77083235D01*
X153997019Y-77071702D01*
X153997017Y-77071701D01*
X153798198Y-76994679D01*
X153588610Y-76955500D01*
X153375390Y-76955500D01*
X153235664Y-76981619D01*
X153165801Y-76994679D01*
X152966982Y-77071701D01*
X152785698Y-77183947D01*
X152628126Y-77327594D01*
X152499631Y-77497747D01*
X152404595Y-77688609D01*
X152346243Y-77893689D01*
X152335471Y-78009951D01*
X152309685Y-78074888D01*
X152265130Y-78106804D01*
X152156622Y-78106804D01*
X152158869Y-78105194D01*
X152122497Y-78084331D01*
X152090307Y-78022318D01*
X152088529Y-78009951D01*
X152077756Y-77893689D01*
X152019404Y-77688609D01*
X151924368Y-77497747D01*
X151795873Y-77327594D01*
X151638301Y-77183947D01*
X151475645Y-77083235D01*
X151457019Y-77071702D01*
X151457017Y-77071701D01*
X151258198Y-76994679D01*
X151258197Y-76994679D01*
X151048610Y-76955500D01*
X150835390Y-76955500D01*
X150695664Y-76981619D01*
X150625801Y-76994679D01*
X150426982Y-77071701D01*
X150245698Y-77183947D01*
X150088126Y-77327594D01*
X149959631Y-77497747D01*
X149892676Y-77632214D01*
X149845174Y-77683452D01*
X149777511Y-77700873D01*
X149711170Y-77678948D01*
X149669294Y-77629348D01*
X149575599Y-77428421D01*
X149440109Y-77234921D01*
X149273081Y-77067893D01*
X149079576Y-76932399D01*
X148865492Y-76832569D01*
X148652000Y-76775364D01*
X148652000Y-77670498D01*
X148544315Y-77621320D01*
X148437763Y-77606000D01*
X148366237Y-77606000D01*
X148259685Y-77621320D01*
X148152000Y-77670498D01*
X148152000Y-76775364D01*
X148151999Y-76775364D01*
X147938507Y-76832569D01*
X147724421Y-76932400D01*
X147530921Y-77067890D01*
X147363890Y-77234921D01*
X147228400Y-77428421D01*
X147128569Y-77642507D01*
X147071364Y-77855999D01*
X147071364Y-77856000D01*
X147968314Y-77856000D01*
X147942507Y-77896156D01*
X147902000Y-78034111D01*
X147902000Y-78177889D01*
X147942507Y-78315844D01*
X147968314Y-78356000D01*
X147071364Y-78356000D01*
X136137739Y-78356000D01*
X136133140Y-78318128D01*
X136072818Y-78159070D01*
X135993158Y-78043663D01*
X135976184Y-78019072D01*
X135973833Y-78016989D01*
X135848852Y-77906266D01*
X135824889Y-77893689D01*
X135698224Y-77827209D01*
X135573765Y-77796533D01*
X135533056Y-77786500D01*
X135362944Y-77786500D01*
X135307887Y-77800070D01*
X135197773Y-77827210D01*
X135033816Y-77913263D01*
X135033320Y-77912319D01*
X134984989Y-77935036D01*
X134965994Y-77936500D01*
X133390006Y-77936500D01*
X133322967Y-77916815D01*
X133309444Y-77906576D01*
X133158226Y-77827210D01*
X133075640Y-77806855D01*
X132993056Y-77786500D01*
X132822944Y-77786500D01*
X132790284Y-77794549D01*
X132657775Y-77827209D01*
X132507149Y-77906265D01*
X132379815Y-78019072D01*
X132283182Y-78159069D01*
X132222860Y-78318127D01*
X132202354Y-78487000D01*
X124352000Y-78487000D01*
X124352000Y-77973481D01*
X124351645Y-77966867D01*
X124345599Y-77910628D01*
X124295352Y-77775910D01*
X124209188Y-77660811D01*
X124094089Y-77574647D01*
X123959371Y-77524400D01*
X123903132Y-77518354D01*
X123896518Y-77518000D01*
X123252000Y-77518000D01*
X123252000Y-78432498D01*
X123144315Y-78383320D01*
X123037763Y-78368000D01*
X122966237Y-78368000D01*
X122859685Y-78383320D01*
X122752000Y-78432498D01*
X122752000Y-77518000D01*
X122107482Y-77518000D01*
X122100867Y-77518354D01*
X122044628Y-77524400D01*
X121909910Y-77574647D01*
X121794811Y-77660811D01*
X121708647Y-77775910D01*
X121658400Y-77910628D01*
X121652354Y-77966867D01*
X121652000Y-77973481D01*
X121652000Y-78618000D01*
X122568314Y-78618000D01*
X122542507Y-78658156D01*
X122502000Y-78796111D01*
X122502000Y-78939889D01*
X122542507Y-79077844D01*
X122568314Y-79118000D01*
X121652000Y-79118000D01*
X121652000Y-79762518D01*
X112842500Y-79762518D01*
X112842500Y-73637736D01*
X113693291Y-73637736D01*
X113712560Y-73956302D01*
X113713462Y-73963732D01*
X113770990Y-74277651D01*
X113772778Y-74284907D01*
X113867729Y-74589613D01*
X113870374Y-74596589D01*
X114001362Y-74887631D01*
X114004836Y-74894251D01*
X114169945Y-75167373D01*
X114174191Y-75173525D01*
X114319477Y-75358968D01*
X115462210Y-74216234D01*
X115562894Y-74357624D01*
X115714932Y-74502592D01*
X115817222Y-74568330D01*
X114673030Y-75712521D01*
X114673030Y-75712522D01*
X114858474Y-75857808D01*
X114864626Y-75862054D01*
X115137748Y-76027163D01*
X115144368Y-76030637D01*
X115435410Y-76161625D01*
X115442386Y-76164270D01*
X115747092Y-76259221D01*
X115754348Y-76261009D01*
X116068267Y-76318537D01*
X116075697Y-76319439D01*
X116394264Y-76338709D01*
X116401736Y-76338709D01*
X116720302Y-76319439D01*
X116727732Y-76318537D01*
X117041651Y-76261009D01*
X117048907Y-76259221D01*
X117353613Y-76164270D01*
X117360589Y-76161625D01*
X117651631Y-76030637D01*
X117658251Y-76027163D01*
X117931369Y-75862057D01*
X117937524Y-75857808D01*
X118122968Y-75712522D01*
X118122968Y-75712521D01*
X116981306Y-74570859D01*
X116995410Y-74563589D01*
X117160540Y-74433729D01*
X117298110Y-74274965D01*
X117332665Y-74215112D01*
X118476521Y-75358968D01*
X118476522Y-75358968D01*
X118621808Y-75173524D01*
X118626057Y-75167369D01*
X118791163Y-74894251D01*
X118794637Y-74887631D01*
X118925625Y-74596589D01*
X118928270Y-74589613D01*
X119023221Y-74284907D01*
X119025009Y-74277651D01*
X119082537Y-73963732D01*
X119083439Y-73956302D01*
X119102480Y-73641518D01*
X125462000Y-73641518D01*
X125462354Y-73648132D01*
X125468400Y-73704371D01*
X125518647Y-73839089D01*
X125604811Y-73954188D01*
X125719910Y-74040352D01*
X125854628Y-74090599D01*
X125910867Y-74096645D01*
X125917482Y-74097000D01*
X126562000Y-74097000D01*
X126562000Y-73182501D01*
X126669685Y-73231680D01*
X126776237Y-73247000D01*
X126847763Y-73247000D01*
X126954315Y-73231680D01*
X127062000Y-73182501D01*
X127062000Y-74097000D01*
X127706518Y-74097000D01*
X127713132Y-74096645D01*
X127769371Y-74090599D01*
X127904089Y-74040352D01*
X128019188Y-73954188D01*
X128105352Y-73839089D01*
X128155599Y-73704371D01*
X128161645Y-73648132D01*
X128162000Y-73641518D01*
X128162000Y-73450268D01*
X128181685Y-73383229D01*
X128234489Y-73337474D01*
X128303647Y-73327530D01*
X128367203Y-73356555D01*
X128384950Y-73375537D01*
X128441385Y-73450268D01*
X128461377Y-73476742D01*
X128498128Y-73525407D01*
X128655698Y-73669052D01*
X128836981Y-73781298D01*
X129035802Y-73858321D01*
X129245390Y-73897500D01*
X129245392Y-73897500D01*
X129458608Y-73897500D01*
X129458610Y-73897500D01*
X129668198Y-73858321D01*
X129867019Y-73781298D01*
X130048302Y-73669052D01*
X130205872Y-73525407D01*
X130334366Y-73355255D01*
X130334366Y-73355253D01*
X130334368Y-73355252D01*
X130395898Y-73231680D01*
X130429405Y-73164389D01*
X130487756Y-72959310D01*
X130498529Y-72843047D01*
X130524315Y-72778111D01*
X130566622Y-72747804D01*
X130675130Y-72747804D01*
X130711503Y-72768668D01*
X130743693Y-72830681D01*
X130745471Y-72843048D01*
X130756243Y-72959310D01*
X130814595Y-73164390D01*
X130909631Y-73355252D01*
X131038126Y-73525405D01*
X131038128Y-73525407D01*
X131195698Y-73669052D01*
X131376981Y-73781298D01*
X131575802Y-73858321D01*
X131785390Y-73897500D01*
X131785392Y-73897500D01*
X131998608Y-73897500D01*
X131998610Y-73897500D01*
X132208198Y-73858321D01*
X132407019Y-73781298D01*
X132588302Y-73669052D01*
X132745872Y-73525407D01*
X132874366Y-73355255D01*
X132874366Y-73355253D01*
X132874368Y-73355252D01*
X132935898Y-73231680D01*
X132969405Y-73164389D01*
X133027756Y-72959310D01*
X133038529Y-72843047D01*
X133064315Y-72778111D01*
X133106622Y-72747804D01*
X133215130Y-72747804D01*
X133251503Y-72768668D01*
X133283693Y-72830681D01*
X133285471Y-72843048D01*
X133296243Y-72959310D01*
X133354595Y-73164390D01*
X133449631Y-73355252D01*
X133578126Y-73525405D01*
X133578128Y-73525407D01*
X133735698Y-73669052D01*
X133916981Y-73781298D01*
X134115802Y-73858321D01*
X134325390Y-73897500D01*
X134325392Y-73897500D01*
X134538608Y-73897500D01*
X134538610Y-73897500D01*
X134748198Y-73858321D01*
X134947019Y-73781298D01*
X135128302Y-73669052D01*
X135131082Y-73666518D01*
X137146000Y-73666518D01*
X137146354Y-73673132D01*
X137152400Y-73729371D01*
X137202647Y-73864089D01*
X137288811Y-73979188D01*
X137403910Y-74065352D01*
X137538628Y-74115599D01*
X137594867Y-74121645D01*
X137601482Y-74122000D01*
X138246000Y-74122000D01*
X138246000Y-73207501D01*
X138353685Y-73256680D01*
X138460237Y-73272000D01*
X138531763Y-73272000D01*
X138638315Y-73256680D01*
X138746000Y-73207501D01*
X138746000Y-74122000D01*
X139390518Y-74122000D01*
X139397132Y-74121645D01*
X139453371Y-74115599D01*
X139588089Y-74065352D01*
X139703188Y-73979188D01*
X139789352Y-73864089D01*
X139839599Y-73729371D01*
X139845645Y-73673132D01*
X139846000Y-73666518D01*
X139846000Y-73475268D01*
X139865685Y-73408229D01*
X139918489Y-73362474D01*
X139987647Y-73352530D01*
X140051203Y-73381555D01*
X140068950Y-73400537D01*
X140106506Y-73450268D01*
X140167446Y-73530966D01*
X140182128Y-73550407D01*
X140339698Y-73694052D01*
X140520981Y-73806298D01*
X140719802Y-73883321D01*
X140929390Y-73922500D01*
X140929392Y-73922500D01*
X141142608Y-73922500D01*
X141142610Y-73922500D01*
X141352198Y-73883321D01*
X141551019Y-73806298D01*
X141732302Y-73694052D01*
X141889872Y-73550407D01*
X142018366Y-73380255D01*
X142018366Y-73380253D01*
X142018368Y-73380252D01*
X142109639Y-73196952D01*
X142113405Y-73189389D01*
X142171756Y-72984310D01*
X142182529Y-72868045D01*
X142208313Y-72803112D01*
X142250621Y-72772804D01*
X142359129Y-72772804D01*
X142395501Y-72793667D01*
X142427692Y-72855680D01*
X142429470Y-72868047D01*
X142440243Y-72984310D01*
X142498595Y-73189390D01*
X142593631Y-73380252D01*
X142722126Y-73550405D01*
X142722128Y-73550407D01*
X142879698Y-73694052D01*
X143060981Y-73806298D01*
X143259802Y-73883321D01*
X143469390Y-73922500D01*
X143469392Y-73922500D01*
X143682608Y-73922500D01*
X143682610Y-73922500D01*
X143892198Y-73883321D01*
X144091019Y-73806298D01*
X144272302Y-73694052D01*
X144429872Y-73550407D01*
X144558366Y-73380255D01*
X144558366Y-73380253D01*
X144558368Y-73380252D01*
X144649639Y-73196952D01*
X144653405Y-73189389D01*
X144711756Y-72984310D01*
X144722529Y-72868047D01*
X144748315Y-72803111D01*
X144790622Y-72772804D01*
X144899130Y-72772804D01*
X144935503Y-72793668D01*
X144967693Y-72855681D01*
X144969471Y-72868048D01*
X144980243Y-72984310D01*
X145038595Y-73189390D01*
X145133631Y-73380252D01*
X145262126Y-73550405D01*
X145262128Y-73550407D01*
X145419698Y-73694052D01*
X145600981Y-73806298D01*
X145799802Y-73883321D01*
X146009390Y-73922500D01*
X146009392Y-73922500D01*
X146222608Y-73922500D01*
X146222610Y-73922500D01*
X146432198Y-73883321D01*
X146631019Y-73806298D01*
X146812302Y-73694052D01*
X146873456Y-73638302D01*
X149049500Y-73638302D01*
X149049501Y-73641864D01*
X149049912Y-73645407D01*
X149052415Y-73666991D01*
X149097795Y-73769767D01*
X149177232Y-73849204D01*
X149177233Y-73849204D01*
X149177235Y-73849206D01*
X149280009Y-73894585D01*
X149305135Y-73897500D01*
X151094864Y-73897499D01*
X151119991Y-73894585D01*
X151222765Y-73849206D01*
X151302206Y-73769765D01*
X151347585Y-73666991D01*
X151350500Y-73641865D01*
X151350499Y-72903047D01*
X151370183Y-72836010D01*
X151422987Y-72790255D01*
X151492146Y-72780311D01*
X151555702Y-72809336D01*
X151593476Y-72868114D01*
X151597970Y-72891607D01*
X151604243Y-72959310D01*
X151662595Y-73164390D01*
X151757631Y-73355252D01*
X151886126Y-73525405D01*
X151886128Y-73525407D01*
X152043698Y-73669052D01*
X152224981Y-73781298D01*
X152423802Y-73858321D01*
X152633390Y-73897500D01*
X152633392Y-73897500D01*
X152846608Y-73897500D01*
X152846610Y-73897500D01*
X153056198Y-73858321D01*
X153255019Y-73781298D01*
X153436302Y-73669052D01*
X153470654Y-73637736D01*
X161693291Y-73637736D01*
X161712560Y-73956302D01*
X161713462Y-73963732D01*
X161770990Y-74277651D01*
X161772778Y-74284907D01*
X161867729Y-74589613D01*
X161870374Y-74596589D01*
X162001362Y-74887631D01*
X162004836Y-74894251D01*
X162169945Y-75167373D01*
X162174191Y-75173525D01*
X162319477Y-75358968D01*
X163462210Y-74216234D01*
X163562894Y-74357624D01*
X163714932Y-74502592D01*
X163817222Y-74568330D01*
X162673030Y-75712521D01*
X162673030Y-75712522D01*
X162858474Y-75857808D01*
X162864626Y-75862054D01*
X163137748Y-76027163D01*
X163144368Y-76030637D01*
X163435410Y-76161625D01*
X163442386Y-76164270D01*
X163747092Y-76259221D01*
X163754348Y-76261009D01*
X164068267Y-76318537D01*
X164075697Y-76319439D01*
X164394264Y-76338709D01*
X164401736Y-76338709D01*
X164720302Y-76319439D01*
X164727732Y-76318537D01*
X165041651Y-76261009D01*
X165048907Y-76259221D01*
X165353613Y-76164270D01*
X165360589Y-76161625D01*
X165651631Y-76030637D01*
X165658251Y-76027163D01*
X165931369Y-75862057D01*
X165937524Y-75857808D01*
X166122968Y-75712522D01*
X166122968Y-75712521D01*
X164981306Y-74570859D01*
X164995410Y-74563589D01*
X165160540Y-74433729D01*
X165298110Y-74274965D01*
X165332665Y-74215112D01*
X166476521Y-75358968D01*
X166476522Y-75358968D01*
X166621808Y-75173524D01*
X166626057Y-75167369D01*
X166791163Y-74894251D01*
X166794637Y-74887631D01*
X166925625Y-74596589D01*
X166928270Y-74589613D01*
X167023221Y-74284907D01*
X167025009Y-74277651D01*
X167082537Y-73963732D01*
X167083439Y-73956302D01*
X167102709Y-73637736D01*
X167102709Y-73630263D01*
X167083439Y-73311697D01*
X167082537Y-73304267D01*
X167025009Y-72990348D01*
X167023221Y-72983092D01*
X166928270Y-72678386D01*
X166925625Y-72671410D01*
X166794637Y-72380368D01*
X166791163Y-72373748D01*
X166626054Y-72100626D01*
X166621808Y-72094474D01*
X166476521Y-71909030D01*
X165333788Y-73051763D01*
X165233106Y-72910376D01*
X165081068Y-72765408D01*
X164978777Y-72699669D01*
X166122968Y-71555477D01*
X166122968Y-71555476D01*
X165937525Y-71410191D01*
X165931373Y-71405945D01*
X165658251Y-71240836D01*
X165651631Y-71237362D01*
X165360589Y-71106374D01*
X165353613Y-71103729D01*
X165048907Y-71008778D01*
X165041651Y-71006990D01*
X164727732Y-70949462D01*
X164720302Y-70948560D01*
X164401736Y-70929291D01*
X164394264Y-70929291D01*
X164075697Y-70948560D01*
X164068267Y-70949462D01*
X163754348Y-71006990D01*
X163747092Y-71008778D01*
X163442386Y-71103729D01*
X163435410Y-71106374D01*
X163144368Y-71237362D01*
X163137748Y-71240836D01*
X162864626Y-71405945D01*
X162858474Y-71410191D01*
X162673030Y-71555476D01*
X162673030Y-71555477D01*
X163814693Y-72697140D01*
X163800590Y-72704411D01*
X163635460Y-72834271D01*
X163497890Y-72993035D01*
X163463334Y-73052887D01*
X162319477Y-71909030D01*
X162319476Y-71909030D01*
X162174191Y-72094474D01*
X162169945Y-72100626D01*
X162004836Y-72373748D01*
X162001362Y-72380368D01*
X161870374Y-72671410D01*
X161867729Y-72678386D01*
X161772778Y-72983092D01*
X161770990Y-72990348D01*
X161713462Y-73304267D01*
X161712560Y-73311697D01*
X161693291Y-73630263D01*
X161693291Y-73637736D01*
X153470654Y-73637736D01*
X153593872Y-73525407D01*
X153722366Y-73355255D01*
X153722366Y-73355253D01*
X153722368Y-73355252D01*
X153783898Y-73231680D01*
X153817405Y-73164389D01*
X153875756Y-72959310D01*
X153895429Y-72747000D01*
X153875756Y-72534690D01*
X153872145Y-72522000D01*
X153824518Y-72354611D01*
X153817405Y-72329611D01*
X153804835Y-72304367D01*
X153722368Y-72138747D01*
X153593873Y-71968594D01*
X153436301Y-71824947D01*
X153295395Y-71737702D01*
X153255019Y-71712702D01*
X153255017Y-71712701D01*
X153056198Y-71635679D01*
X152980347Y-71621500D01*
X152846610Y-71596500D01*
X152633390Y-71596500D01*
X152499653Y-71621500D01*
X152423801Y-71635679D01*
X152224982Y-71712701D01*
X152043698Y-71824947D01*
X151886126Y-71968594D01*
X151757631Y-72138747D01*
X151662595Y-72329609D01*
X151604243Y-72534689D01*
X151597970Y-72602393D01*
X151572184Y-72667331D01*
X151515383Y-72708018D01*
X151445602Y-72711538D01*
X151384996Y-72676773D01*
X151352806Y-72614760D01*
X151350499Y-72590952D01*
X151350499Y-71855714D01*
X151350499Y-71855709D01*
X151350499Y-71852136D01*
X151347585Y-71827009D01*
X151302206Y-71724235D01*
X151302204Y-71724233D01*
X151302204Y-71724232D01*
X151222767Y-71644795D01*
X151119990Y-71599414D01*
X151098414Y-71596911D01*
X151098401Y-71596910D01*
X151094865Y-71596500D01*
X151091290Y-71596500D01*
X149308714Y-71596500D01*
X149308696Y-71596500D01*
X149305136Y-71596501D01*
X149301592Y-71596911D01*
X149301592Y-71596912D01*
X149280008Y-71599415D01*
X149177232Y-71644795D01*
X149097795Y-71724232D01*
X149052414Y-71827009D01*
X149049911Y-71848585D01*
X149049911Y-71848592D01*
X149049500Y-71852135D01*
X149049500Y-71855708D01*
X149049500Y-71855709D01*
X149049500Y-73638285D01*
X149049500Y-73638302D01*
X146873456Y-73638302D01*
X146969872Y-73550407D01*
X147098366Y-73380255D01*
X147098366Y-73380253D01*
X147098368Y-73380252D01*
X147189639Y-73196952D01*
X147193405Y-73189389D01*
X147251756Y-72984310D01*
X147271429Y-72772000D01*
X147251756Y-72559690D01*
X147248704Y-72548965D01*
X147210929Y-72416202D01*
X147193405Y-72354611D01*
X147167060Y-72301703D01*
X147098368Y-72163747D01*
X146969873Y-71993594D01*
X146812301Y-71849947D01*
X146631017Y-71737701D01*
X146432198Y-71660679D01*
X146415497Y-71657557D01*
X146222610Y-71621500D01*
X146009390Y-71621500D01*
X145869664Y-71647619D01*
X145799801Y-71660679D01*
X145600982Y-71737701D01*
X145419698Y-71849947D01*
X145262126Y-71993594D01*
X145133631Y-72163747D01*
X145038595Y-72354609D01*
X144980243Y-72559689D01*
X144969471Y-72675951D01*
X144943685Y-72740888D01*
X144899130Y-72772804D01*
X144790622Y-72772804D01*
X144792869Y-72771194D01*
X144756497Y-72750331D01*
X144724307Y-72688318D01*
X144722529Y-72675951D01*
X144711756Y-72559689D01*
X144670929Y-72416202D01*
X144653405Y-72354611D01*
X144627060Y-72301703D01*
X144558368Y-72163747D01*
X144429873Y-71993594D01*
X144272301Y-71849947D01*
X144091017Y-71737701D01*
X143892198Y-71660679D01*
X143875497Y-71657557D01*
X143682610Y-71621500D01*
X143469390Y-71621500D01*
X143329664Y-71647619D01*
X143259801Y-71660679D01*
X143060982Y-71737701D01*
X142879698Y-71849947D01*
X142722126Y-71993594D01*
X142593631Y-72163747D01*
X142498595Y-72354609D01*
X142440243Y-72559689D01*
X142429471Y-72675951D01*
X142403685Y-72740888D01*
X142359129Y-72772804D01*
X142250621Y-72772804D01*
X142252868Y-72771194D01*
X142216497Y-72750331D01*
X142184307Y-72688318D01*
X142182529Y-72675951D01*
X142171756Y-72559689D01*
X142130929Y-72416202D01*
X142113405Y-72354611D01*
X142087060Y-72301703D01*
X142018368Y-72163747D01*
X141889873Y-71993594D01*
X141732301Y-71849947D01*
X141551017Y-71737701D01*
X141352198Y-71660679D01*
X141335497Y-71657557D01*
X141142610Y-71621500D01*
X140929390Y-71621500D01*
X140789664Y-71647619D01*
X140719801Y-71660679D01*
X140520982Y-71737701D01*
X140339698Y-71849947D01*
X140182126Y-71993594D01*
X140068954Y-72143458D01*
X140012845Y-72185094D01*
X139943133Y-72189785D01*
X139881951Y-72156043D01*
X139848724Y-72094579D01*
X139846000Y-72068731D01*
X139846000Y-71877481D01*
X139845645Y-71870867D01*
X139839599Y-71814628D01*
X139789352Y-71679910D01*
X139703188Y-71564811D01*
X139588089Y-71478647D01*
X139453371Y-71428400D01*
X139397132Y-71422354D01*
X139390518Y-71422000D01*
X138746000Y-71422000D01*
X138746000Y-72336498D01*
X138638315Y-72287320D01*
X138531763Y-72272000D01*
X138460237Y-72272000D01*
X138353685Y-72287320D01*
X138246000Y-72336498D01*
X138246000Y-71422000D01*
X137601482Y-71422000D01*
X137594867Y-71422354D01*
X137538628Y-71428400D01*
X137403910Y-71478647D01*
X137288811Y-71564811D01*
X137202647Y-71679910D01*
X137152400Y-71814628D01*
X137146354Y-71870867D01*
X137146000Y-71877481D01*
X137146000Y-72522000D01*
X138062314Y-72522000D01*
X138036507Y-72562156D01*
X137996000Y-72700111D01*
X137996000Y-72843889D01*
X138036507Y-72981844D01*
X138062314Y-73022000D01*
X137146000Y-73022000D01*
X137146000Y-73666518D01*
X135131082Y-73666518D01*
X135285872Y-73525407D01*
X135414366Y-73355255D01*
X135414366Y-73355253D01*
X135414368Y-73355252D01*
X135475898Y-73231680D01*
X135509405Y-73164389D01*
X135567756Y-72959310D01*
X135587429Y-72747000D01*
X135567756Y-72534690D01*
X135564145Y-72522000D01*
X135516518Y-72354611D01*
X135509405Y-72329611D01*
X135496835Y-72304367D01*
X135414368Y-72138747D01*
X135285873Y-71968594D01*
X135128301Y-71824947D01*
X134987395Y-71737702D01*
X134947019Y-71712702D01*
X134947017Y-71712701D01*
X134748198Y-71635679D01*
X134672347Y-71621500D01*
X134538610Y-71596500D01*
X134325390Y-71596500D01*
X134191653Y-71621500D01*
X134115801Y-71635679D01*
X133916982Y-71712701D01*
X133735698Y-71824947D01*
X133578126Y-71968594D01*
X133449631Y-72138747D01*
X133354595Y-72329609D01*
X133296243Y-72534689D01*
X133285471Y-72650951D01*
X133259685Y-72715888D01*
X133215130Y-72747804D01*
X133106622Y-72747804D01*
X133108869Y-72746194D01*
X133072497Y-72725331D01*
X133040307Y-72663318D01*
X133038529Y-72650951D01*
X133027756Y-72534689D01*
X132976518Y-72354611D01*
X132969405Y-72329611D01*
X132956835Y-72304367D01*
X132874368Y-72138747D01*
X132745873Y-71968594D01*
X132588301Y-71824947D01*
X132447395Y-71737702D01*
X132407019Y-71712702D01*
X132407017Y-71712701D01*
X132208198Y-71635679D01*
X132132347Y-71621500D01*
X131998610Y-71596500D01*
X131785390Y-71596500D01*
X131651653Y-71621500D01*
X131575801Y-71635679D01*
X131376982Y-71712701D01*
X131195698Y-71824947D01*
X131038126Y-71968594D01*
X130909631Y-72138747D01*
X130814595Y-72329609D01*
X130756243Y-72534689D01*
X130745471Y-72650951D01*
X130719685Y-72715888D01*
X130675130Y-72747804D01*
X130566622Y-72747804D01*
X130568869Y-72746194D01*
X130532497Y-72725331D01*
X130500307Y-72663318D01*
X130498529Y-72650951D01*
X130487756Y-72534689D01*
X130436518Y-72354611D01*
X130429405Y-72329611D01*
X130416835Y-72304367D01*
X130334368Y-72138747D01*
X130205873Y-71968594D01*
X130048301Y-71824947D01*
X129907395Y-71737702D01*
X129867019Y-71712702D01*
X129867017Y-71712701D01*
X129668198Y-71635679D01*
X129592347Y-71621500D01*
X129458610Y-71596500D01*
X129245390Y-71596500D01*
X129111653Y-71621500D01*
X129035801Y-71635679D01*
X128836982Y-71712701D01*
X128655698Y-71824947D01*
X128498126Y-71968594D01*
X128384954Y-72118458D01*
X128328845Y-72160094D01*
X128259133Y-72164785D01*
X128197951Y-72131043D01*
X128164724Y-72069579D01*
X128162000Y-72043731D01*
X128162000Y-71852481D01*
X128161645Y-71845867D01*
X128155599Y-71789628D01*
X128105352Y-71654910D01*
X128019188Y-71539811D01*
X127904089Y-71453647D01*
X127769371Y-71403400D01*
X127713132Y-71397354D01*
X127706518Y-71397000D01*
X127062000Y-71397000D01*
X127062000Y-72311498D01*
X126954315Y-72262320D01*
X126847763Y-72247000D01*
X126776237Y-72247000D01*
X126669685Y-72262320D01*
X126562000Y-72311498D01*
X126562000Y-71397000D01*
X125917482Y-71397000D01*
X125910867Y-71397354D01*
X125854628Y-71403400D01*
X125719910Y-71453647D01*
X125604811Y-71539811D01*
X125518647Y-71654910D01*
X125468400Y-71789628D01*
X125462354Y-71845867D01*
X125462000Y-71852481D01*
X125462000Y-72497000D01*
X126378314Y-72497000D01*
X126352507Y-72537156D01*
X126312000Y-72675111D01*
X126312000Y-72818889D01*
X126352507Y-72956844D01*
X126378314Y-72997000D01*
X125462000Y-72997000D01*
X125462000Y-73641518D01*
X119102480Y-73641518D01*
X119102709Y-73637736D01*
X119102709Y-73630263D01*
X119083439Y-73311697D01*
X119082537Y-73304267D01*
X119025009Y-72990348D01*
X119023221Y-72983092D01*
X118928270Y-72678386D01*
X118925625Y-72671410D01*
X118794637Y-72380368D01*
X118791163Y-72373748D01*
X118626054Y-72100626D01*
X118621808Y-72094474D01*
X118476521Y-71909030D01*
X117333788Y-73051763D01*
X117233106Y-72910376D01*
X117081068Y-72765408D01*
X116978777Y-72699669D01*
X118122968Y-71555477D01*
X118122968Y-71555476D01*
X117937525Y-71410191D01*
X117931373Y-71405945D01*
X117658251Y-71240836D01*
X117651631Y-71237362D01*
X117360589Y-71106374D01*
X117353613Y-71103729D01*
X117048907Y-71008778D01*
X117041651Y-71006990D01*
X116727732Y-70949462D01*
X116720302Y-70948560D01*
X116401736Y-70929291D01*
X116394264Y-70929291D01*
X116075697Y-70948560D01*
X116068267Y-70949462D01*
X115754348Y-71006990D01*
X115747092Y-71008778D01*
X115442386Y-71103729D01*
X115435410Y-71106374D01*
X115144368Y-71237362D01*
X115137748Y-71240836D01*
X114864626Y-71405945D01*
X114858474Y-71410191D01*
X114673030Y-71555476D01*
X114673030Y-71555477D01*
X115814693Y-72697140D01*
X115800590Y-72704411D01*
X115635460Y-72834271D01*
X115497890Y-72993035D01*
X115463334Y-73052887D01*
X114319477Y-71909030D01*
X114319476Y-71909030D01*
X114174191Y-72094474D01*
X114169945Y-72100626D01*
X114004836Y-72373748D01*
X114001362Y-72380368D01*
X113870374Y-72671410D01*
X113867729Y-72678386D01*
X113772778Y-72983092D01*
X113770990Y-72990348D01*
X113713462Y-73304267D01*
X113712560Y-73311697D01*
X113693291Y-73630263D01*
X113693291Y-73637736D01*
X112842500Y-73637736D01*
X112842500Y-73537050D01*
X112842649Y-73530966D01*
X112845385Y-73475268D01*
X112849993Y-73381472D01*
X112860308Y-73184655D01*
X112861475Y-73172999D01*
X112886440Y-73004698D01*
X112914459Y-72827796D01*
X112916636Y-72817128D01*
X112958930Y-72648282D01*
X113004473Y-72478314D01*
X113007481Y-72468683D01*
X113066287Y-72304330D01*
X113067237Y-72301769D01*
X113129413Y-72139793D01*
X113133077Y-72131229D01*
X113150411Y-72094579D01*
X113208045Y-71972721D01*
X113209562Y-71969631D01*
X113288031Y-71815629D01*
X113292109Y-71808263D01*
X113382473Y-71657500D01*
X113384766Y-71653826D01*
X113478634Y-71509282D01*
X113483000Y-71502996D01*
X113587823Y-71361658D01*
X113590984Y-71357580D01*
X113699330Y-71223783D01*
X113703748Y-71218628D01*
X113822021Y-71088134D01*
X113826138Y-71083810D01*
X113947810Y-70962138D01*
X113952134Y-70958021D01*
X114082628Y-70839748D01*
X114087783Y-70835330D01*
X114221580Y-70726984D01*
X114225658Y-70723823D01*
X114366996Y-70619000D01*
X114373282Y-70614634D01*
X114517826Y-70520766D01*
X114521500Y-70518473D01*
X114672263Y-70428109D01*
X114679629Y-70424031D01*
X114833631Y-70345562D01*
X114836721Y-70344045D01*
X114995229Y-70269077D01*
X115003793Y-70265413D01*
X115165767Y-70203237D01*
X115168367Y-70202275D01*
X115332663Y-70143489D01*
X115342334Y-70140467D01*
X115512240Y-70094940D01*
X115681137Y-70052634D01*
X115691800Y-70050459D01*
X115868738Y-70022434D01*
X116037014Y-69997473D01*
X116048651Y-69996308D01*
X116245446Y-69985994D01*
X116394967Y-69978648D01*
X116401050Y-69978500D01*
X164400949Y-69978500D01*
X164407032Y-69978648D01*
G37*
%TD.AperFunction*%
%TD*%
M02*
