%TF.GenerationSoftware,KiCad,Pcbnew,7.0.2*%
%TF.CreationDate,2024-09-03T13:40:21+05:30*%
%TF.ProjectId,EPS_ControlUnit,4550535f-436f-46e7-9472-6f6c556e6974,rev?*%
%TF.SameCoordinates,Original*%
%TF.FileFunction,Copper,L1,Top*%
%TF.FilePolarity,Positive*%
%FSLAX46Y46*%
G04 Gerber Fmt 4.6, Leading zero omitted, Abs format (unit mm)*
G04 Created by KiCad (PCBNEW 7.0.2) date 2024-09-03 13:40:21*
%MOMM*%
%LPD*%
G01*
G04 APERTURE LIST*
G04 Aperture macros list*
%AMRoundRect*
0 Rectangle with rounded corners*
0 $1 Rounding radius*
0 $2 $3 $4 $5 $6 $7 $8 $9 X,Y pos of 4 corners*
0 Add a 4 corners polygon primitive as box body*
4,1,4,$2,$3,$4,$5,$6,$7,$8,$9,$2,$3,0*
0 Add four circle primitives for the rounded corners*
1,1,$1+$1,$2,$3*
1,1,$1+$1,$4,$5*
1,1,$1+$1,$6,$7*
1,1,$1+$1,$8,$9*
0 Add four rect primitives between the rounded corners*
20,1,$1+$1,$2,$3,$4,$5,0*
20,1,$1+$1,$4,$5,$6,$7,0*
20,1,$1+$1,$6,$7,$8,$9,0*
20,1,$1+$1,$8,$9,$2,$3,0*%
G04 Aperture macros list end*
%TA.AperFunction,ComponentPad*%
%ADD10R,1.700000X1.700000*%
%TD*%
%TA.AperFunction,SMDPad,CuDef*%
%ADD11RoundRect,0.075000X-0.725000X-0.075000X0.725000X-0.075000X0.725000X0.075000X-0.725000X0.075000X0*%
%TD*%
%TA.AperFunction,SMDPad,CuDef*%
%ADD12RoundRect,0.075000X-0.075000X-0.725000X0.075000X-0.725000X0.075000X0.725000X-0.075000X0.725000X0*%
%TD*%
%TA.AperFunction,SMDPad,CuDef*%
%ADD13RoundRect,0.225000X0.250000X-0.225000X0.250000X0.225000X-0.250000X0.225000X-0.250000X-0.225000X0*%
%TD*%
%TA.AperFunction,SMDPad,CuDef*%
%ADD14RoundRect,0.250000X-0.262500X-0.450000X0.262500X-0.450000X0.262500X0.450000X-0.262500X0.450000X0*%
%TD*%
%TA.AperFunction,SMDPad,CuDef*%
%ADD15R,1.400000X0.400000*%
%TD*%
%TA.AperFunction,ComponentPad*%
%ADD16O,1.900000X1.050000*%
%TD*%
%TA.AperFunction,SMDPad,CuDef*%
%ADD17R,1.450000X1.150000*%
%TD*%
%TA.AperFunction,SMDPad,CuDef*%
%ADD18R,1.900000X1.750000*%
%TD*%
%TA.AperFunction,SMDPad,CuDef*%
%ADD19RoundRect,0.225000X0.225000X0.250000X-0.225000X0.250000X-0.225000X-0.250000X0.225000X-0.250000X0*%
%TD*%
%TA.AperFunction,SMDPad,CuDef*%
%ADD20C,1.000000*%
%TD*%
%TA.AperFunction,SMDPad,CuDef*%
%ADD21R,1.500000X2.000000*%
%TD*%
%TA.AperFunction,SMDPad,CuDef*%
%ADD22R,3.800000X2.000000*%
%TD*%
%TA.AperFunction,ComponentPad*%
%ADD23O,1.700000X1.700000*%
%TD*%
%TA.AperFunction,SMDPad,CuDef*%
%ADD24RoundRect,0.243750X0.243750X0.456250X-0.243750X0.456250X-0.243750X-0.456250X0.243750X-0.456250X0*%
%TD*%
%TA.AperFunction,SMDPad,CuDef*%
%ADD25RoundRect,0.225000X-0.250000X0.225000X-0.250000X-0.225000X0.250000X-0.225000X0.250000X0.225000X0*%
%TD*%
%TA.AperFunction,SMDPad,CuDef*%
%ADD26RoundRect,0.250000X0.262500X0.450000X-0.262500X0.450000X-0.262500X-0.450000X0.262500X-0.450000X0*%
%TD*%
%TA.AperFunction,SMDPad,CuDef*%
%ADD27R,1.000000X1.000000*%
%TD*%
%TA.AperFunction,SMDPad,CuDef*%
%ADD28RoundRect,0.225000X-0.225000X-0.250000X0.225000X-0.250000X0.225000X0.250000X-0.225000X0.250000X0*%
%TD*%
%TA.AperFunction,ComponentPad*%
%ADD29C,4.400000*%
%TD*%
%TA.AperFunction,ComponentPad*%
%ADD30C,1.400000*%
%TD*%
%TA.AperFunction,SMDPad,CuDef*%
%ADD31RoundRect,0.218750X-0.381250X0.218750X-0.381250X-0.218750X0.381250X-0.218750X0.381250X0.218750X0*%
%TD*%
%TA.AperFunction,SMDPad,CuDef*%
%ADD32R,1.200000X1.400000*%
%TD*%
%TA.AperFunction,SMDPad,CuDef*%
%ADD33R,1.473200X0.558800*%
%TD*%
%TA.AperFunction,ViaPad*%
%ADD34C,0.800000*%
%TD*%
%TA.AperFunction,Conductor*%
%ADD35C,0.500000*%
%TD*%
%TA.AperFunction,Conductor*%
%ADD36C,0.250000*%
%TD*%
%TA.AperFunction,Conductor*%
%ADD37C,0.300000*%
%TD*%
%TA.AperFunction,Conductor*%
%ADD38C,0.200000*%
%TD*%
G04 APERTURE END LIST*
D10*
%TO.P,J10,1,Pin_1*%
%TO.N,/DAC*%
X129540000Y-106680000D03*
%TD*%
%TO.P,J9,1,Pin_1*%
%TO.N,/ADC*%
X122555000Y-95250000D03*
%TD*%
D11*
%TO.P,U1,1,PE2*%
%TO.N,unconnected-(U1-PE2-Pad1)*%
X131329000Y-84552000D03*
%TO.P,U1,2,PE3*%
%TO.N,unconnected-(U1-PE3-Pad2)*%
X131329000Y-85052000D03*
%TO.P,U1,3,PE4*%
%TO.N,unconnected-(U1-PE4-Pad3)*%
X131329000Y-85552000D03*
%TO.P,U1,4,PE5*%
%TO.N,unconnected-(U1-PE5-Pad4)*%
X131329000Y-86052000D03*
%TO.P,U1,5,PE6*%
%TO.N,unconnected-(U1-PE6-Pad5)*%
X131329000Y-86552000D03*
%TO.P,U1,6,VBAT*%
%TO.N,3V3_EPS*%
X131329000Y-87052000D03*
%TO.P,U1,7,PC13*%
%TO.N,unconnected-(U1-PC13-Pad7)*%
X131329000Y-87552000D03*
%TO.P,U1,8,PC14*%
%TO.N,unconnected-(U1-PC14-Pad8)*%
X131329000Y-88052000D03*
%TO.P,U1,9,PC15*%
%TO.N,unconnected-(U1-PC15-Pad9)*%
X131329000Y-88552000D03*
%TO.P,U1,10,VSS*%
%TO.N,GND*%
X131329000Y-89052000D03*
%TO.P,U1,11,VDD*%
%TO.N,3V3_EPS*%
X131329000Y-89552000D03*
%TO.P,U1,12,PH0*%
%TO.N,/HSE_IN*%
X131329000Y-90052000D03*
%TO.P,U1,13,PH1*%
%TO.N,/HSE_OUT*%
X131329000Y-90552000D03*
%TO.P,U1,14,NRST*%
%TO.N,/NRST*%
X131329000Y-91052000D03*
%TO.P,U1,15,PC0*%
%TO.N,/ADC*%
X131329000Y-91552000D03*
%TO.P,U1,16,PC1*%
%TO.N,unconnected-(U1-PC1-Pad16)*%
X131329000Y-92052000D03*
%TO.P,U1,17,PC2*%
%TO.N,unconnected-(U1-PC2-Pad17)*%
X131329000Y-92552000D03*
%TO.P,U1,18,PC3*%
%TO.N,unconnected-(U1-PC3-Pad18)*%
X131329000Y-93052000D03*
%TO.P,U1,19,VSSA*%
%TO.N,GND*%
X131329000Y-93552000D03*
%TO.P,U1,20,VREF-*%
%TO.N,unconnected-(U1-VREF--Pad20)*%
X131329000Y-94052000D03*
%TO.P,U1,21,VREF+*%
%TO.N,unconnected-(U1-VREF+-Pad21)*%
X131329000Y-94552000D03*
%TO.P,U1,22,VDDA*%
%TO.N,+3.3VA*%
X131329000Y-95052000D03*
%TO.P,U1,23,PA0*%
%TO.N,unconnected-(U1-PA0-Pad23)*%
X131329000Y-95552000D03*
%TO.P,U1,24,PA1*%
%TO.N,unconnected-(U1-PA1-Pad24)*%
X131329000Y-96052000D03*
%TO.P,U1,25,PA2*%
%TO.N,/UART2_TX*%
X131329000Y-96552000D03*
D12*
%TO.P,U1,26,PA3*%
%TO.N,/UART2_RX*%
X133004000Y-98227000D03*
%TO.P,U1,27,VSS*%
%TO.N,GND*%
X133504000Y-98227000D03*
%TO.P,U1,28,VDD*%
%TO.N,3V3_EPS*%
X134004000Y-98227000D03*
%TO.P,U1,29,PA4*%
%TO.N,/DAC*%
X134504000Y-98227000D03*
%TO.P,U1,30,PA5*%
%TO.N,unconnected-(U1-PA5-Pad30)*%
X135004000Y-98227000D03*
%TO.P,U1,31,PA6*%
%TO.N,unconnected-(U1-PA6-Pad31)*%
X135504000Y-98227000D03*
%TO.P,U1,32,PA7*%
%TO.N,unconnected-(U1-PA7-Pad32)*%
X136004000Y-98227000D03*
%TO.P,U1,33,PC4*%
%TO.N,unconnected-(U1-PC4-Pad33)*%
X136504000Y-98227000D03*
%TO.P,U1,34,PC5*%
%TO.N,unconnected-(U1-PC5-Pad34)*%
X137004000Y-98227000D03*
%TO.P,U1,35,PB0*%
%TO.N,unconnected-(U1-PB0-Pad35)*%
X137504000Y-98227000D03*
%TO.P,U1,36,PB1*%
%TO.N,unconnected-(U1-PB1-Pad36)*%
X138004000Y-98227000D03*
%TO.P,U1,37,PB2*%
%TO.N,unconnected-(U1-PB2-Pad37)*%
X138504000Y-98227000D03*
%TO.P,U1,38,PE7*%
%TO.N,/GPIO1*%
X139004000Y-98227000D03*
%TO.P,U1,39,PE8*%
%TO.N,/GPIO2*%
X139504000Y-98227000D03*
%TO.P,U1,40,PE9*%
%TO.N,/GPIO3*%
X140004000Y-98227000D03*
%TO.P,U1,41,PE10*%
%TO.N,/GPIO4*%
X140504000Y-98227000D03*
%TO.P,U1,42,PE11*%
%TO.N,unconnected-(U1-PE11-Pad42)*%
X141004000Y-98227000D03*
%TO.P,U1,43,PE12*%
%TO.N,unconnected-(U1-PE12-Pad43)*%
X141504000Y-98227000D03*
%TO.P,U1,44,PE13*%
%TO.N,unconnected-(U1-PE13-Pad44)*%
X142004000Y-98227000D03*
%TO.P,U1,45,PE14*%
%TO.N,unconnected-(U1-PE14-Pad45)*%
X142504000Y-98227000D03*
%TO.P,U1,46,PE15*%
%TO.N,unconnected-(U1-PE15-Pad46)*%
X143004000Y-98227000D03*
%TO.P,U1,47,PB10*%
%TO.N,/I2C2_SCL*%
X143504000Y-98227000D03*
%TO.P,U1,48,PB11*%
%TO.N,/I2C2_SDA*%
X144004000Y-98227000D03*
%TO.P,U1,49,VSS*%
%TO.N,GND*%
X144504000Y-98227000D03*
%TO.P,U1,50,VDD*%
%TO.N,3V3_EPS*%
X145004000Y-98227000D03*
D11*
%TO.P,U1,51,PB12*%
%TO.N,unconnected-(U1-PB12-Pad51)*%
X146679000Y-96552000D03*
%TO.P,U1,52,PB13*%
%TO.N,unconnected-(U1-PB13-Pad52)*%
X146679000Y-96052000D03*
%TO.P,U1,53,PB14*%
%TO.N,unconnected-(U1-PB14-Pad53)*%
X146679000Y-95552000D03*
%TO.P,U1,54,PB15*%
%TO.N,unconnected-(U1-PB15-Pad54)*%
X146679000Y-95052000D03*
%TO.P,U1,55,PD8*%
%TO.N,unconnected-(U1-PD8-Pad55)*%
X146679000Y-94552000D03*
%TO.P,U1,56,PD9*%
%TO.N,unconnected-(U1-PD9-Pad56)*%
X146679000Y-94052000D03*
%TO.P,U1,57,PD10*%
%TO.N,/WDI*%
X146679000Y-93552000D03*
%TO.P,U1,58,PD11*%
%TO.N,unconnected-(U1-PD11-Pad58)*%
X146679000Y-93052000D03*
%TO.P,U1,59,PD12*%
%TO.N,unconnected-(U1-PD12-Pad59)*%
X146679000Y-92552000D03*
%TO.P,U1,60,PD13*%
%TO.N,unconnected-(U1-PD13-Pad60)*%
X146679000Y-92052000D03*
%TO.P,U1,61,PD14*%
%TO.N,unconnected-(U1-PD14-Pad61)*%
X146679000Y-91552000D03*
%TO.P,U1,62,PD15*%
%TO.N,unconnected-(U1-PD15-Pad62)*%
X146679000Y-91052000D03*
%TO.P,U1,63,PC6*%
%TO.N,/EPS_LED*%
X146679000Y-90552000D03*
%TO.P,U1,64,PC7*%
%TO.N,unconnected-(U1-PC7-Pad64)*%
X146679000Y-90052000D03*
%TO.P,U1,65,PC8*%
%TO.N,unconnected-(U1-PC8-Pad65)*%
X146679000Y-89552000D03*
%TO.P,U1,66,PC9*%
%TO.N,unconnected-(U1-PC9-Pad66)*%
X146679000Y-89052000D03*
%TO.P,U1,67,PA8*%
%TO.N,unconnected-(U1-PA8-Pad67)*%
X146679000Y-88552000D03*
%TO.P,U1,68,PA9*%
%TO.N,unconnected-(U1-PA9-Pad68)*%
X146679000Y-88052000D03*
%TO.P,U1,69,PA10*%
%TO.N,unconnected-(U1-PA10-Pad69)*%
X146679000Y-87552000D03*
%TO.P,U1,70,PA11*%
%TO.N,/USB_D-*%
X146679000Y-87052000D03*
%TO.P,U1,71,PA12*%
%TO.N,/USB_D+*%
X146679000Y-86552000D03*
%TO.P,U1,72,PA13*%
%TO.N,/SWDIO*%
X146679000Y-86052000D03*
%TO.P,U1,73,VDDUSB*%
%TO.N,3V3_EPS*%
X146679000Y-85552000D03*
%TO.P,U1,74,VSS*%
%TO.N,GND*%
X146679000Y-85052000D03*
%TO.P,U1,75,VDD*%
%TO.N,3V3_EPS*%
X146679000Y-84552000D03*
D12*
%TO.P,U1,76,PA14*%
%TO.N,/SWCLK*%
X145004000Y-82877000D03*
%TO.P,U1,77,PA15*%
%TO.N,unconnected-(U1-PA15-Pad77)*%
X144504000Y-82877000D03*
%TO.P,U1,78,PC10*%
%TO.N,unconnected-(U1-PC10-Pad78)*%
X144004000Y-82877000D03*
%TO.P,U1,79,PC11*%
%TO.N,unconnected-(U1-PC11-Pad79)*%
X143504000Y-82877000D03*
%TO.P,U1,80,PC12*%
%TO.N,unconnected-(U1-PC12-Pad80)*%
X143004000Y-82877000D03*
%TO.P,U1,81,PD0*%
%TO.N,/CAN_RX*%
X142504000Y-82877000D03*
%TO.P,U1,82,PD1*%
%TO.N,/CAN_TX*%
X142004000Y-82877000D03*
%TO.P,U1,83,PD2*%
%TO.N,unconnected-(U1-PD2-Pad83)*%
X141504000Y-82877000D03*
%TO.P,U1,84,PD3*%
%TO.N,unconnected-(U1-PD3-Pad84)*%
X141004000Y-82877000D03*
%TO.P,U1,85,PD4*%
%TO.N,unconnected-(U1-PD4-Pad85)*%
X140504000Y-82877000D03*
%TO.P,U1,86,PD5*%
%TO.N,unconnected-(U1-PD5-Pad86)*%
X140004000Y-82877000D03*
%TO.P,U1,87,PD6*%
%TO.N,unconnected-(U1-PD6-Pad87)*%
X139504000Y-82877000D03*
%TO.P,U1,88,PD7*%
%TO.N,unconnected-(U1-PD7-Pad88)*%
X139004000Y-82877000D03*
%TO.P,U1,89,PB3*%
%TO.N,unconnected-(U1-PB3-Pad89)*%
X138504000Y-82877000D03*
%TO.P,U1,90,PB4*%
%TO.N,unconnected-(U1-PB4-Pad90)*%
X138004000Y-82877000D03*
%TO.P,U1,91,PB5*%
%TO.N,unconnected-(U1-PB5-Pad91)*%
X137504000Y-82877000D03*
%TO.P,U1,92,PB6*%
%TO.N,/UART1_TX*%
X137004000Y-82877000D03*
%TO.P,U1,93,PB7*%
%TO.N,/UART1_RX*%
X136504000Y-82877000D03*
%TO.P,U1,94,BOOT0*%
%TO.N,/BOOT0*%
X136004000Y-82877000D03*
%TO.P,U1,95,PB8*%
%TO.N,/I2C1_SCL*%
X135504000Y-82877000D03*
%TO.P,U1,96,PB9*%
%TO.N,/I2C1_SDA*%
X135004000Y-82877000D03*
%TO.P,U1,97,PE0*%
%TO.N,unconnected-(U1-PE0-Pad97)*%
X134504000Y-82877000D03*
%TO.P,U1,98,PE1*%
%TO.N,unconnected-(U1-PE1-Pad98)*%
X134004000Y-82877000D03*
%TO.P,U1,99,VSS*%
%TO.N,GND*%
X133504000Y-82877000D03*
%TO.P,U1,100,VDD*%
%TO.N,3V3_EPS*%
X133004000Y-82877000D03*
%TD*%
D13*
%TO.P,C2,1*%
%TO.N,/HSE_IN*%
X126850000Y-89379000D03*
%TO.P,C2,2*%
%TO.N,GND*%
X126850000Y-87829000D03*
%TD*%
D14*
%TO.P,R5,1*%
%TO.N,Net-(D2-K)*%
X149491500Y-91822000D03*
%TO.P,R5,2*%
%TO.N,GND*%
X151316500Y-91822000D03*
%TD*%
D15*
%TO.P,J2,1,VBUS*%
%TO.N,VBUS*%
X163405000Y-87788000D03*
%TO.P,J2,2,D-*%
%TO.N,/USB_D-*%
X163405000Y-87138000D03*
%TO.P,J2,3,D+*%
%TO.N,/USB_D+*%
X163405000Y-86488000D03*
%TO.P,J2,4,ID*%
%TO.N,unconnected-(J2-ID-Pad4)*%
X163405000Y-85838000D03*
%TO.P,J2,5,GND*%
%TO.N,GND*%
X163405000Y-85188000D03*
D16*
%TO.P,J2,6,Shield*%
X166055000Y-90063000D03*
D17*
X163825000Y-88808000D03*
D18*
X166055000Y-87613000D03*
X166055000Y-85363000D03*
D17*
X163825000Y-84168000D03*
D16*
X166055000Y-82913000D03*
%TD*%
D19*
%TO.P,C7,1*%
%TO.N,3V3_EPS*%
X134572000Y-100204000D03*
%TO.P,C7,2*%
%TO.N,GND*%
X133022000Y-100204000D03*
%TD*%
D13*
%TO.P,C5,1*%
%TO.N,3V3_EPS*%
X129352000Y-88787000D03*
%TO.P,C5,2*%
%TO.N,GND*%
X129352000Y-87237000D03*
%TD*%
D19*
%TO.P,C9,1*%
%TO.N,3V3_EPS*%
X148923000Y-82297000D03*
%TO.P,C9,2*%
%TO.N,GND*%
X147373000Y-82297000D03*
%TD*%
D20*
%TO.P,3V3,1,1*%
%TO.N,3V3_EPS*%
X153228000Y-112269000D03*
%TD*%
D14*
%TO.P,R8,1*%
%TO.N,3V3_EPS*%
X142513000Y-108586000D03*
%TO.P,R8,2*%
%TO.N,/I2C2_SDA*%
X144338000Y-108586000D03*
%TD*%
D21*
%TO.P,U2,3,VI*%
%TO.N,VBUS*%
X157024000Y-95378000D03*
D22*
%TO.P,U2,2,VO*%
%TO.N,/3V3_LDO*%
X159324000Y-101678000D03*
D21*
X159324000Y-95378000D03*
%TO.P,U2,1,GND*%
%TO.N,GND*%
X161624000Y-95378000D03*
%TD*%
D13*
%TO.P,C11,1*%
%TO.N,3V3_EPS*%
X148910000Y-85739000D03*
%TO.P,C11,2*%
%TO.N,GND*%
X148910000Y-84189000D03*
%TD*%
D10*
%TO.P,J8,1,Pin_1*%
%TO.N,/GPIO1*%
X134559000Y-102998000D03*
D23*
%TO.P,J8,2,Pin_2*%
%TO.N,/GPIO2*%
X134559000Y-105538000D03*
%TO.P,J8,3,Pin_3*%
%TO.N,/GPIO3*%
X134559000Y-108078000D03*
%TO.P,J8,4,Pin_4*%
%TO.N,/GPIO4*%
X134559000Y-110618000D03*
%TD*%
D14*
%TO.P,R1,1*%
%TO.N,/SW_BOOT0*%
X127804500Y-81281000D03*
%TO.P,R1,2*%
%TO.N,/BOOT0*%
X129629500Y-81281000D03*
%TD*%
%TO.P,R2,1*%
%TO.N,/LED_CATHODE*%
X158460000Y-106427000D03*
%TO.P,R2,2*%
%TO.N,GND*%
X160285000Y-106427000D03*
%TD*%
D19*
%TO.P,C1,1*%
%TO.N,3V3_EPS*%
X128857000Y-77090000D03*
%TO.P,C1,2*%
%TO.N,GND*%
X127307000Y-77090000D03*
%TD*%
D24*
%TO.P,D1,1,K*%
%TO.N,/LED_CATHODE*%
X155992000Y-106427000D03*
%TO.P,D1,2,A*%
%TO.N,3V3_EPS*%
X154117000Y-106427000D03*
%TD*%
D25*
%TO.P,C6,1*%
%TO.N,/HSE_OUT*%
X126850000Y-91131000D03*
%TO.P,C6,2*%
%TO.N,GND*%
X126850000Y-92681000D03*
%TD*%
D26*
%TO.P,R7,1*%
%TO.N,3V3_EPS*%
X140805500Y-108586000D03*
%TO.P,R7,2*%
%TO.N,/I2C2_SCL*%
X138980500Y-108586000D03*
%TD*%
D10*
%TO.P,J4,1,Pin_1*%
%TO.N,GND*%
X138496000Y-72772000D03*
D23*
%TO.P,J4,2,Pin_2*%
%TO.N,/UART1_RX*%
X141036000Y-72772000D03*
%TO.P,J4,3,Pin_3*%
%TO.N,/UART1_TX*%
X143576000Y-72772000D03*
%TO.P,J4,4,Pin_4*%
%TO.N,3V3_EPS*%
X146116000Y-72772000D03*
%TD*%
D25*
%TO.P,C4,1*%
%TO.N,3V3_EPS*%
X129352000Y-84189000D03*
%TO.P,C4,2*%
%TO.N,GND*%
X129352000Y-85739000D03*
%TD*%
D19*
%TO.P,C8,1*%
%TO.N,3V3_EPS*%
X146650000Y-100458000D03*
%TO.P,C8,2*%
%TO.N,GND*%
X145100000Y-100458000D03*
%TD*%
D10*
%TO.P,J6,1,Pin_1*%
%TO.N,GND*%
X130114000Y-111634000D03*
D23*
%TO.P,J6,2,Pin_2*%
%TO.N,/UART2_RX*%
X127574000Y-111634000D03*
%TO.P,J6,3,Pin_3*%
%TO.N,/UART2_TX*%
X125034000Y-111634000D03*
%TO.P,J6,4,Pin_4*%
%TO.N,3V3_EPS*%
X122494000Y-111634000D03*
%TD*%
D27*
%TO.P,TP2,1,1*%
%TO.N,GND*%
X157038000Y-89282000D03*
%TD*%
D20*
%TO.P,TP1,1,1*%
%TO.N,VBUS*%
X159324000Y-89409000D03*
%TD*%
D14*
%TO.P,R3,1*%
%TO.N,3V3_EPS*%
X135956000Y-76582000D03*
%TO.P,R3,2*%
%TO.N,/I2C1_SCL*%
X137781000Y-76582000D03*
%TD*%
D10*
%TO.P,J7,1,Pin_1*%
%TO.N,/CAN_TX*%
X150200000Y-72747000D03*
D23*
%TO.P,J7,2,Pin_2*%
%TO.N,/CAN_RX*%
X152740000Y-72747000D03*
%TD*%
D28*
%TO.P,C10,1*%
%TO.N,3V3_EPS*%
X132387000Y-80900000D03*
%TO.P,C10,2*%
%TO.N,GND*%
X133937000Y-80900000D03*
%TD*%
D26*
%TO.P,R4,1*%
%TO.N,3V3_EPS*%
X134074500Y-76582000D03*
%TO.P,R4,2*%
%TO.N,/I2C1_SDA*%
X132249500Y-76582000D03*
%TD*%
D10*
%TO.P,J1,1,Pin_1*%
%TO.N,3V3_EPS*%
X156022000Y-78106000D03*
D23*
%TO.P,J1,2,Pin_2*%
%TO.N,/SWDIO*%
X153482000Y-78106000D03*
%TO.P,J1,3,Pin_3*%
%TO.N,/SWCLK*%
X150942000Y-78106000D03*
%TO.P,J1,4,Pin_4*%
%TO.N,GND*%
X148402000Y-78106000D03*
%TD*%
D29*
%TO.P,H2,1,1*%
%TO.N,GND*%
X164398000Y-73634000D03*
%TD*%
D10*
%TO.P,J5,1,Pin_1*%
%TO.N,GND*%
X146878000Y-111888000D03*
D23*
%TO.P,J5,2,Pin_2*%
%TO.N,/I2C2_SDA*%
X144338000Y-111888000D03*
%TO.P,J5,3,Pin_3*%
%TO.N,/I2C2_SCL*%
X141798000Y-111888000D03*
%TO.P,J5,4,Pin_4*%
%TO.N,3V3_EPS*%
X139258000Y-111888000D03*
%TD*%
D13*
%TO.P,C12,2*%
%TO.N,GND*%
X129098000Y-93587000D03*
%TO.P,C12,1*%
%TO.N,+3.3VA*%
X129098000Y-95137000D03*
%TD*%
D10*
%TO.P,J3,1,Pin_1*%
%TO.N,GND*%
X126812000Y-72747000D03*
D23*
%TO.P,J3,2,Pin_2*%
%TO.N,/I2C1_SDA*%
X129352000Y-72747000D03*
%TO.P,J3,3,Pin_3*%
%TO.N,/I2C1_SCL*%
X131892000Y-72747000D03*
%TO.P,J3,4,Pin_4*%
%TO.N,3V3_EPS*%
X134432000Y-72747000D03*
%TD*%
D13*
%TO.P,C16,1*%
%TO.N,/3V3_LDO*%
X164136000Y-99201000D03*
%TO.P,C16,2*%
%TO.N,GND*%
X164136000Y-97651000D03*
%TD*%
D19*
%TO.P,C13,1*%
%TO.N,+3.3VA*%
X127320000Y-98426000D03*
%TO.P,C13,2*%
%TO.N,GND*%
X125770000Y-98426000D03*
%TD*%
D20*
%TO.P,3V3,1,1*%
%TO.N,/3V3_LDO*%
X164150000Y-103252000D03*
%TD*%
D10*
%TO.P,SW1,1,A*%
%TO.N,GND*%
X123002000Y-78868000D03*
D23*
%TO.P,SW1,2,B*%
%TO.N,/SW_BOOT0*%
X123002000Y-81408000D03*
%TO.P,SW1,3,C*%
%TO.N,3V3_EPS*%
X123002000Y-83948000D03*
%TD*%
D19*
%TO.P,C14,1*%
%TO.N,3V3_EPS*%
X127333000Y-100458000D03*
%TO.P,C14,2*%
%TO.N,GND*%
X125783000Y-100458000D03*
%TD*%
D29*
%TO.P,H4,1,1*%
%TO.N,GND*%
X116398000Y-111634000D03*
%TD*%
D27*
%TO.P,GND,1,1*%
%TO.N,GND*%
X164150000Y-105538000D03*
%TD*%
D30*
%TO.P,WD_EN,1,A*%
%TO.N,/WDI_RESET*%
X153208000Y-99319998D03*
%TO.P,WD_EN,2,B*%
%TO.N,/NRST*%
X150668000Y-99319998D03*
%TD*%
D28*
%TO.P,C15,1*%
%TO.N,VBUS*%
X158535000Y-93092000D03*
%TO.P,C15,2*%
%TO.N,GND*%
X160085000Y-93092000D03*
%TD*%
D31*
%TO.P,120R1,1*%
%TO.N,+3.3VA*%
X129072000Y-98379500D03*
%TO.P,120R1,2*%
%TO.N,3V3_EPS*%
X129072000Y-100504500D03*
%TD*%
D29*
%TO.P,H3,1,1*%
%TO.N,GND*%
X164398000Y-111634000D03*
%TD*%
D27*
%TO.P,GND,1,1*%
%TO.N,GND*%
X155514000Y-112269000D03*
%TD*%
D24*
%TO.P,D2,1,K*%
%TO.N,Net-(D2-K)*%
X151244500Y-89663000D03*
%TO.P,D2,2,A*%
%TO.N,/EPS_LED*%
X149369500Y-89663000D03*
%TD*%
D29*
%TO.P,H1,1,1*%
%TO.N,GND*%
X116398000Y-73634000D03*
%TD*%
D32*
%TO.P,Y1,1,1*%
%TO.N,/HSE_IN*%
X123002000Y-89028000D03*
%TO.P,Y1,2,2*%
%TO.N,GND*%
X123002000Y-91228000D03*
%TO.P,Y1,3,3*%
%TO.N,/HSE_OUT*%
X124602000Y-91228000D03*
%TO.P,Y1,4,4*%
%TO.N,GND*%
X124602000Y-89028000D03*
%TD*%
D33*
%TO.P,U3,1,\u002ARESET*%
%TO.N,unconnected-(U3-\u002ARESET-Pad1)*%
X153228000Y-97156000D03*
%TO.P,U3,2,GND*%
%TO.N,GND*%
X153228000Y-96205999D03*
%TO.P,U3,3,RESET*%
%TO.N,/WDI_RESET*%
X153228000Y-95255998D03*
%TO.P,U3,4,WDI*%
%TO.N,/WDI*%
X150840400Y-95255998D03*
%TO.P,U3,5,VDD*%
%TO.N,3V3_EPS*%
X150840400Y-97156000D03*
%TD*%
D30*
%TO.P,LDO_EN,1,A*%
%TO.N,/3V3_LDO*%
X150688000Y-103780000D03*
%TO.P,LDO_EN,2,B*%
%TO.N,3V3_EPS*%
X150688000Y-106320000D03*
%TD*%
D34*
%TO.N,/DAC*%
X135255000Y-96520000D03*
%TO.N,3V3_EPS*%
X148275000Y-98570498D03*
X132908000Y-78487000D03*
X130241000Y-83313000D03*
X137226000Y-100204000D03*
X142687000Y-105157000D03*
X131511000Y-82043000D03*
X145354000Y-105157000D03*
X135448000Y-78487000D03*
X148275000Y-100204000D03*
%TO.N,GND*%
X124145000Y-100458000D03*
X150180000Y-84202000D03*
X164150000Y-106935000D03*
X152593000Y-91822000D03*
X162626000Y-93092000D03*
X151958000Y-96271998D03*
X126812000Y-86742000D03*
X161610000Y-93092000D03*
X147005000Y-83440000D03*
X157292000Y-112269000D03*
X142814000Y-96394000D03*
X161102000Y-97156000D03*
X124653000Y-87377000D03*
X132908000Y-93600000D03*
X160340000Y-108078000D03*
X123002000Y-92838000D03*
X133162000Y-89028000D03*
X133543000Y-96648000D03*
X165420000Y-96394000D03*
X155387000Y-89282000D03*
X161205500Y-85248000D03*
X164150000Y-96140000D03*
X127320000Y-78487000D03*
X165674000Y-97664000D03*
X133924000Y-79630000D03*
X162118000Y-97156000D03*
X126812000Y-94108000D03*
%TO.N,/NRST*%
X137226000Y-91060000D03*
X133670000Y-91060000D03*
%TD*%
D35*
%TO.N,/3V3_LDO*%
X164136000Y-103238000D02*
X164150000Y-103252000D01*
X164136000Y-99201000D02*
X164136000Y-103238000D01*
X159324000Y-97724000D02*
X159324000Y-95378000D01*
X150688000Y-103780000D02*
X153268000Y-103780000D01*
X153268000Y-103780000D02*
X159324000Y-97724000D01*
%TO.N,3V3_EPS*%
X151765000Y-112269000D02*
X153228000Y-112269000D01*
X151323000Y-111760000D02*
X151323000Y-112269000D01*
X151323000Y-112269000D02*
X151765000Y-112269000D01*
X151323000Y-110490000D02*
X151323000Y-111760000D01*
X151323000Y-111760000D02*
X151323000Y-111827000D01*
X151323000Y-111827000D02*
X151765000Y-112269000D01*
X149672000Y-113920000D02*
X151323000Y-112269000D01*
X139258000Y-113158000D02*
X140020000Y-113920000D01*
X140020000Y-113920000D02*
X149672000Y-113920000D01*
X139258000Y-111888000D02*
X139258000Y-113158000D01*
X151323000Y-110490000D02*
X151323000Y-110238969D01*
X150813031Y-109729000D02*
X148021000Y-109729000D01*
X151323000Y-109729000D02*
X150813031Y-109729000D01*
X151323000Y-110238969D02*
X150813031Y-109729000D01*
X151323000Y-109729000D02*
X151323000Y-110490000D01*
X154117000Y-106935000D02*
X151323000Y-109729000D01*
X154117000Y-106427000D02*
X154117000Y-106935000D01*
D36*
%TO.N,/GPIO3*%
X135956000Y-106681000D02*
X134559000Y-108078000D01*
X140004000Y-101931000D02*
X135956000Y-105979000D01*
X135956000Y-105979000D02*
X135956000Y-106681000D01*
X140004000Y-98227000D02*
X140004000Y-101931000D01*
%TO.N,/GPIO4*%
X136528198Y-106676802D02*
X136528198Y-108648802D01*
X136528198Y-108648802D02*
X134559000Y-110618000D01*
X140504000Y-102701000D02*
X136528198Y-106676802D01*
X140504000Y-98227000D02*
X140504000Y-102701000D01*
D37*
%TO.N,/I2C2_SCL*%
X138980500Y-105494500D02*
X138980500Y-108713000D01*
X143504000Y-98227000D02*
X143504000Y-100971000D01*
X143504000Y-100971000D02*
X138980500Y-105494500D01*
%TO.N,/HSE_IN*%
X126151000Y-90078000D02*
X123652000Y-90078000D01*
X126850000Y-89379000D02*
X126151000Y-90078000D01*
X123652000Y-90078000D02*
X123002000Y-89428000D01*
D35*
%TO.N,3V3_EPS*%
X127737282Y-83948000D02*
X123002000Y-83948000D01*
X128209000Y-84419718D02*
X127737282Y-83948000D01*
X128209000Y-84419718D02*
X128444859Y-84183859D01*
X128209000Y-87644000D02*
X128209000Y-84419718D01*
X123002000Y-83948000D02*
X123168745Y-84114745D01*
X129346859Y-84183859D02*
X129352000Y-84189000D01*
X128444859Y-84183859D02*
X129346859Y-84183859D01*
X132387000Y-79146710D02*
X132387000Y-80900000D01*
X129946710Y-79146710D02*
X132387000Y-79146710D01*
X128857000Y-77090000D02*
X128857000Y-78057000D01*
X128857000Y-78057000D02*
X129946710Y-79146710D01*
X135956000Y-78039000D02*
X135956000Y-76582000D01*
X135508000Y-78487000D02*
X135956000Y-78039000D01*
X135448000Y-78487000D02*
X135508000Y-78487000D01*
X153027811Y-82550000D02*
X152774811Y-82297000D01*
X151831000Y-82297000D02*
X152774811Y-82297000D01*
X153035000Y-82550000D02*
X153035000Y-84234500D01*
X153035000Y-82550000D02*
X153027811Y-82550000D01*
X148923000Y-85726000D02*
X148910000Y-85739000D01*
X153035000Y-84234500D02*
X151543500Y-85726000D01*
X151543500Y-85726000D02*
X148923000Y-85726000D01*
D36*
%TO.N,/HSE_IN*%
X123002000Y-89028000D02*
X123002000Y-89428000D01*
D35*
%TO.N,3V3_EPS*%
X120716000Y-86234000D02*
X123002000Y-83948000D01*
D36*
%TO.N,/DAC*%
X134504000Y-97271000D02*
X135255000Y-96520000D01*
X134504000Y-98227000D02*
X134504000Y-97271000D01*
%TO.N,/ADC*%
X129821000Y-91906000D02*
X125899000Y-91906000D01*
X130175000Y-91552000D02*
X129821000Y-91906000D01*
X131329000Y-91552000D02*
X130175000Y-91552000D01*
X125899000Y-91906000D02*
X122555000Y-95250000D01*
%TO.N,+3.3VA*%
X129098000Y-95137000D02*
X129098000Y-98353500D01*
D37*
X129025500Y-98426000D02*
X129072000Y-98379500D01*
D36*
X129183000Y-95052000D02*
X129098000Y-95137000D01*
X131329000Y-95052000D02*
X129183000Y-95052000D01*
X129098000Y-98353500D02*
X129072000Y-98379500D01*
D37*
X127320000Y-98426000D02*
X129025500Y-98426000D01*
%TO.N,3V3_EPS*%
X147894000Y-83948000D02*
X147894000Y-83326000D01*
X145004000Y-98227000D02*
X145004000Y-99092000D01*
X130117000Y-89552000D02*
X129352000Y-88787000D01*
D35*
X132679000Y-70994000D02*
X134432000Y-72747000D01*
X146650000Y-108358000D02*
X146650000Y-105157000D01*
X131511000Y-81776000D02*
X132387000Y-80900000D01*
X146116000Y-72772000D02*
X147767000Y-71121000D01*
D37*
X146679000Y-85552000D02*
X148723000Y-85552000D01*
D35*
X122494000Y-111634000D02*
X122494000Y-105297000D01*
X142687000Y-105157000D02*
X142687000Y-108412000D01*
X151831000Y-82297000D02*
X148923000Y-82297000D01*
X149689498Y-97156000D02*
X150840400Y-97156000D01*
X156022000Y-79456000D02*
X153181000Y-82297000D01*
X134074500Y-76582000D02*
X135956000Y-76582000D01*
X128209000Y-87644000D02*
X129352000Y-88787000D01*
X156022000Y-73280000D02*
X156022000Y-78106000D01*
X152466000Y-106320000D02*
X154010000Y-106320000D01*
D37*
X145825000Y-99633000D02*
X146650000Y-100458000D01*
D35*
X125034000Y-70994000D02*
X132679000Y-70994000D01*
X156022000Y-78106000D02*
X156022000Y-79456000D01*
X146650000Y-100458000D02*
X148021000Y-100458000D01*
X122494000Y-105297000D02*
X127333000Y-100458000D01*
X120716000Y-75312000D02*
X125034000Y-70994000D01*
X148021000Y-109729000D02*
X146650000Y-108358000D01*
X136185000Y-70994000D02*
X144338000Y-70994000D01*
D37*
X145545000Y-99633000D02*
X145825000Y-99633000D01*
X147290000Y-84552000D02*
X147894000Y-83948000D01*
D35*
X129025500Y-100458000D02*
X129072000Y-100504500D01*
D37*
X130427959Y-87052000D02*
X130177000Y-86801041D01*
D35*
X122494000Y-105297000D02*
X120716000Y-103519000D01*
X127333000Y-100458000D02*
X129025500Y-100458000D01*
X146650000Y-105157000D02*
X146650000Y-100458000D01*
X146650000Y-105157000D02*
X145354000Y-105157000D01*
D36*
X132387000Y-80900000D02*
X132400000Y-80887000D01*
D35*
X120716000Y-86234000D02*
X120716000Y-75312000D01*
D37*
X146679000Y-84552000D02*
X147290000Y-84552000D01*
D35*
X129365000Y-84189000D02*
X130241000Y-83313000D01*
X120716000Y-103519000D02*
X120716000Y-86234000D01*
X144338000Y-70994000D02*
X146116000Y-72772000D01*
X134572000Y-100204000D02*
X137226000Y-100204000D01*
X132400000Y-78995000D02*
X132908000Y-78487000D01*
D37*
X147894000Y-83326000D02*
X148923000Y-82297000D01*
X131329000Y-89552000D02*
X130117000Y-89552000D01*
X134004000Y-98227000D02*
X134004000Y-99636000D01*
X148021000Y-100458000D02*
X148275000Y-100204000D01*
X131511000Y-82043000D02*
X131511000Y-81776000D01*
D35*
X147767000Y-71121000D02*
X153863000Y-71121000D01*
X137353000Y-113793000D02*
X122875000Y-113793000D01*
D37*
X130177000Y-85014000D02*
X129352000Y-84189000D01*
D35*
X150688000Y-106320000D02*
X152466000Y-106320000D01*
D37*
X130177000Y-86801041D02*
X130177000Y-85014000D01*
D36*
X133004000Y-82877000D02*
X133004000Y-81517000D01*
D37*
X134004000Y-99636000D02*
X134572000Y-100204000D01*
D36*
X133004000Y-81517000D02*
X132387000Y-80900000D01*
D37*
X131329000Y-87052000D02*
X130427959Y-87052000D01*
D35*
X153181000Y-82297000D02*
X151831000Y-82297000D01*
X122494000Y-113412000D02*
X122494000Y-111634000D01*
X153863000Y-71121000D02*
X156022000Y-73280000D01*
D37*
X129352000Y-84189000D02*
X129365000Y-84189000D01*
X148723000Y-85552000D02*
X148910000Y-85739000D01*
X145004000Y-99092000D02*
X145545000Y-99633000D01*
D35*
X134432000Y-72747000D02*
X136185000Y-70994000D01*
X148275000Y-98570498D02*
X149689498Y-97156000D01*
X132400000Y-80887000D02*
X132400000Y-78995000D01*
X142687000Y-108412000D02*
X142513000Y-108586000D01*
X122875000Y-113793000D02*
X122494000Y-113412000D01*
X139258000Y-111888000D02*
X137353000Y-113793000D01*
X154010000Y-106320000D02*
X154117000Y-106427000D01*
X142513000Y-108586000D02*
X140805500Y-108586000D01*
D36*
%TO.N,GND*%
X129133000Y-93552000D02*
X129098000Y-93587000D01*
D37*
X147373000Y-82297000D02*
X147373000Y-83072000D01*
D36*
X133504000Y-82877000D02*
X133504000Y-81333000D01*
D35*
X125770000Y-100445000D02*
X125783000Y-100458000D01*
X160285000Y-108023000D02*
X160340000Y-108078000D01*
X161624000Y-95378000D02*
X161863000Y-95378000D01*
D37*
X148047000Y-85052000D02*
X148910000Y-84189000D01*
X123002000Y-91228000D02*
X123002000Y-92838000D01*
D36*
X133504000Y-81333000D02*
X133937000Y-80900000D01*
D37*
X144504000Y-99862000D02*
X145100000Y-100458000D01*
D35*
X125770000Y-98426000D02*
X125770000Y-100445000D01*
D37*
X130177000Y-88801041D02*
X130177000Y-88062000D01*
X133504000Y-99722000D02*
X133022000Y-100204000D01*
D36*
X133937000Y-79643000D02*
X133924000Y-79630000D01*
D35*
X126850000Y-94070000D02*
X126812000Y-94108000D01*
D37*
X133138000Y-89052000D02*
X133162000Y-89028000D01*
X144504000Y-98227000D02*
X144504000Y-99862000D01*
X147373000Y-83072000D02*
X147005000Y-83440000D01*
X130427959Y-89052000D02*
X130177000Y-88801041D01*
X144504000Y-98227000D02*
X144504000Y-97325959D01*
X133504000Y-96687000D02*
X133543000Y-96648000D01*
D35*
X161624000Y-94631000D02*
X161624000Y-95378000D01*
D37*
X124602000Y-89028000D02*
X124602000Y-87428000D01*
X133504000Y-98227000D02*
X133504000Y-96687000D01*
X146679000Y-85052000D02*
X148047000Y-85052000D01*
X131329000Y-89052000D02*
X130427959Y-89052000D01*
D35*
X126850000Y-92681000D02*
X126850000Y-94070000D01*
D36*
X157038000Y-89282000D02*
X155387000Y-89282000D01*
D35*
X164150000Y-105538000D02*
X164150000Y-106935000D01*
X127307000Y-77090000D02*
X127307000Y-78474000D01*
D36*
X133937000Y-80900000D02*
X133937000Y-79643000D01*
X131329000Y-93552000D02*
X129133000Y-93552000D01*
D35*
X127307000Y-78474000D02*
X127320000Y-78487000D01*
X125783000Y-100458000D02*
X124145000Y-100458000D01*
X153228000Y-96205999D02*
X152023999Y-96205999D01*
D37*
X148910000Y-84189000D02*
X150167000Y-84189000D01*
D36*
X163000500Y-85218000D02*
X161235500Y-85218000D01*
D35*
X152023999Y-96205999D02*
X151958000Y-96271998D01*
D36*
X131329000Y-93552000D02*
X132860000Y-93552000D01*
X132860000Y-93552000D02*
X132908000Y-93600000D01*
D37*
X126850000Y-87829000D02*
X126850000Y-86780000D01*
X155514000Y-112269000D02*
X157292000Y-112269000D01*
D35*
X161624000Y-95378000D02*
X161624000Y-96126000D01*
D37*
X130177000Y-88062000D02*
X129352000Y-87237000D01*
X129352000Y-85739000D02*
X129352000Y-87237000D01*
X124602000Y-87428000D02*
X124653000Y-87377000D01*
X133504000Y-98227000D02*
X133504000Y-99722000D01*
X143572041Y-96394000D02*
X142814000Y-96394000D01*
X126850000Y-86780000D02*
X126812000Y-86742000D01*
X151316500Y-91822000D02*
X152593000Y-91822000D01*
X150167000Y-84189000D02*
X150180000Y-84202000D01*
X144504000Y-97325959D02*
X143572041Y-96394000D01*
X131329000Y-89052000D02*
X133138000Y-89052000D01*
D35*
X160285000Y-106427000D02*
X160285000Y-108023000D01*
D37*
%TO.N,/HSE_IN*%
X127523000Y-90052000D02*
X126850000Y-89379000D01*
X131329000Y-90052000D02*
X127523000Y-90052000D01*
%TO.N,/NRST*%
X147592998Y-99319998D02*
X150668000Y-99319998D01*
X139333000Y-91060000D02*
X147592998Y-99319998D01*
X133662000Y-91052000D02*
X133670000Y-91060000D01*
X131329000Y-91052000D02*
X133662000Y-91052000D01*
X137226000Y-91060000D02*
X139333000Y-91060000D01*
%TO.N,/HSE_OUT*%
X126850000Y-91131000D02*
X124699000Y-91131000D01*
X124699000Y-91131000D02*
X124602000Y-91228000D01*
X131329000Y-90552000D02*
X130368000Y-90552000D01*
X129789000Y-91131000D02*
X126850000Y-91131000D01*
X130368000Y-90552000D02*
X129789000Y-91131000D01*
D35*
%TO.N,VBUS*%
X157024000Y-94603000D02*
X157024000Y-95378000D01*
%TO.N,/LED_CATHODE*%
X155992000Y-106427000D02*
X158460000Y-106427000D01*
D37*
%TO.N,/SWDIO*%
X145862000Y-83694000D02*
X145862000Y-81630827D01*
X145862000Y-81630827D02*
X146592827Y-80900000D01*
X146592827Y-80900000D02*
X152466000Y-80900000D01*
X145504000Y-85778041D02*
X145504000Y-84052000D01*
X145504000Y-84052000D02*
X145862000Y-83694000D01*
X145777959Y-86052000D02*
X145504000Y-85778041D01*
X153482000Y-79884000D02*
X153482000Y-78106000D01*
X152466000Y-80900000D02*
X153482000Y-79884000D01*
X146679000Y-86052000D02*
X145777959Y-86052000D01*
%TO.N,/SWCLK*%
X150434000Y-80138000D02*
X150942000Y-79630000D01*
X150942000Y-79630000D02*
X150942000Y-78106000D01*
X145004000Y-82877000D02*
X145004000Y-81504000D01*
X145004000Y-81504000D02*
X146370000Y-80138000D01*
X146370000Y-80138000D02*
X150434000Y-80138000D01*
D38*
%TO.N,/USB_D-*%
X147879001Y-87052000D02*
X146679000Y-87052000D01*
X147904001Y-87027000D02*
X147879001Y-87052000D01*
X161886000Y-87138000D02*
X161775000Y-87027000D01*
X162959215Y-87138000D02*
X161886000Y-87138000D01*
X161775000Y-87027000D02*
X147904001Y-87027000D01*
%TO.N,/USB_D+*%
X147904001Y-86577000D02*
X161775000Y-86577000D01*
X161775000Y-86577000D02*
X161864000Y-86488000D01*
X147879001Y-86552000D02*
X147904001Y-86577000D01*
X146679000Y-86552000D02*
X147879001Y-86552000D01*
X161864000Y-86488000D02*
X162959215Y-86488000D01*
D37*
%TO.N,/I2C1_SDA*%
X131233500Y-75566000D02*
X129860000Y-75566000D01*
X135004000Y-79336500D02*
X132249500Y-76582000D01*
X129860000Y-75566000D02*
X129352000Y-75058000D01*
X132249500Y-76582000D02*
X131233500Y-75566000D01*
X135004000Y-82877000D02*
X135004000Y-79336500D01*
X129352000Y-75058000D02*
X129352000Y-72747000D01*
%TO.N,/I2C1_SCL*%
X134677000Y-75532000D02*
X136731000Y-75532000D01*
X135504000Y-81606000D02*
X137781000Y-79329000D01*
X137781000Y-79329000D02*
X137781000Y-76582000D01*
X135504000Y-82877000D02*
X135504000Y-81606000D01*
X131892000Y-72747000D02*
X134677000Y-75532000D01*
X136731000Y-75532000D02*
X137781000Y-76582000D01*
%TO.N,/UART1_RX*%
X140528000Y-79376000D02*
X142560000Y-77344000D01*
X142560000Y-74296000D02*
X141036000Y-72772000D01*
X136504000Y-81622000D02*
X138750000Y-79376000D01*
X136504000Y-82877000D02*
X136504000Y-81622000D01*
X142560000Y-77344000D02*
X142560000Y-74296000D01*
X138750000Y-79376000D02*
X140528000Y-79376000D01*
%TO.N,/UART1_TX*%
X138841959Y-80138000D02*
X141036000Y-80138000D01*
X141036000Y-80138000D02*
X143576000Y-77598000D01*
X143576000Y-77598000D02*
X143576000Y-72772000D01*
X137004000Y-81975959D02*
X138841959Y-80138000D01*
X137004000Y-82877000D02*
X137004000Y-81975959D01*
%TO.N,/I2C2_SDA*%
X144004000Y-108252000D02*
X144338000Y-108586000D01*
X144338000Y-108586000D02*
X144338000Y-111888000D01*
X144004000Y-98227000D02*
X144004000Y-108252000D01*
%TO.N,/I2C2_SCL*%
X138980500Y-108713000D02*
X138980500Y-109070500D01*
X138980500Y-109070500D02*
X141798000Y-111888000D01*
X138980500Y-108586000D02*
X138980500Y-108713000D01*
%TO.N,/UART2_RX*%
X133004000Y-98227000D02*
X131837000Y-98227000D01*
X131837000Y-98227000D02*
X131384000Y-98680000D01*
X131384000Y-98680000D02*
X131384000Y-101696827D01*
X127574000Y-105506827D02*
X127574000Y-111634000D01*
X131384000Y-101696827D02*
X127574000Y-105506827D01*
%TO.N,/UART2_TX*%
X130368000Y-101220000D02*
X125034000Y-106554000D01*
X130368000Y-97513000D02*
X130368000Y-101220000D01*
X131329000Y-96552000D02*
X130368000Y-97513000D01*
X125034000Y-106554000D02*
X125034000Y-111634000D01*
%TO.N,/CAN_TX*%
X149672000Y-74296000D02*
X150200000Y-73768000D01*
X150200000Y-73768000D02*
X150200000Y-72747000D01*
X142004000Y-82877000D02*
X142004000Y-80694000D01*
X148402000Y-74296000D02*
X149672000Y-74296000D01*
X142004000Y-80694000D02*
X148402000Y-74296000D01*
%TO.N,/CAN_RX*%
X148656000Y-75058000D02*
X151704000Y-75058000D01*
X142504000Y-82877000D02*
X142504000Y-81210000D01*
X152740000Y-74022000D02*
X152740000Y-72747000D01*
X142504000Y-81210000D02*
X148656000Y-75058000D01*
X151704000Y-75058000D02*
X152740000Y-74022000D01*
%TO.N,/SW_BOOT0*%
X127677500Y-81408000D02*
X123002000Y-81408000D01*
X127804500Y-81281000D02*
X127677500Y-81408000D01*
%TO.N,/BOOT0*%
X135730041Y-84052000D02*
X132400500Y-84052000D01*
X132400500Y-84052000D02*
X129629500Y-81281000D01*
X136004000Y-83778041D02*
X135730041Y-84052000D01*
X136004000Y-82877000D02*
X136004000Y-83778041D01*
D36*
%TO.N,/GPIO1*%
X139004000Y-99653000D02*
X135659000Y-102998000D01*
X139004000Y-98227000D02*
X139004000Y-99653000D01*
X135659000Y-102998000D02*
X134559000Y-102998000D01*
%TO.N,/GPIO2*%
X139504000Y-98227000D02*
X139504000Y-100593000D01*
X139504000Y-100593000D02*
X134559000Y-105538000D01*
D37*
%TO.N,Net-(D2-K)*%
X151244500Y-90069000D02*
X149491500Y-91822000D01*
X151244500Y-89663000D02*
X151244500Y-90069000D01*
%TO.N,/WDI*%
X149391998Y-95255998D02*
X150840400Y-95255998D01*
X147688000Y-93552000D02*
X149391998Y-95255998D01*
X146679000Y-93552000D02*
X147688000Y-93552000D01*
%TO.N,/WDI_RESET*%
X154264600Y-95255998D02*
X153228000Y-95255998D01*
X154493002Y-99319998D02*
X154879000Y-98934000D01*
X154879000Y-98934000D02*
X154879000Y-95870398D01*
X154879000Y-95870398D02*
X154264600Y-95255998D01*
X153208000Y-99319998D02*
X154493002Y-99319998D01*
%TO.N,/EPS_LED*%
X148480500Y-90552000D02*
X149369500Y-89663000D01*
X146679000Y-90552000D02*
X148480500Y-90552000D01*
%TD*%
%TA.AperFunction,Conductor*%
%TO.N,VBUS*%
G36*
X161624785Y-87447185D02*
G01*
X161645427Y-87463819D01*
X161647658Y-87466050D01*
X161667400Y-87476109D01*
X161683988Y-87486274D01*
X161701911Y-87499296D01*
X161722987Y-87506144D01*
X161740945Y-87513582D01*
X161760696Y-87523646D01*
X161770525Y-87525202D01*
X161782577Y-87527112D01*
X161801497Y-87531654D01*
X161822567Y-87538500D01*
X161854481Y-87538500D01*
X162429166Y-87538500D01*
X162496205Y-87558185D01*
X162516847Y-87574819D01*
X162532232Y-87590204D01*
X162532233Y-87590204D01*
X162532235Y-87590206D01*
X162635009Y-87635585D01*
X162660135Y-87638500D01*
X163975999Y-87638499D01*
X164043038Y-87658184D01*
X164088793Y-87710987D01*
X164099999Y-87762499D01*
X164099999Y-87808500D01*
X164080314Y-87875539D01*
X164027510Y-87921294D01*
X163975999Y-87932500D01*
X163058714Y-87932500D01*
X163058696Y-87932500D01*
X163055136Y-87932501D01*
X163051592Y-87932911D01*
X163051592Y-87932912D01*
X163030006Y-87935415D01*
X162945874Y-87972563D01*
X162897600Y-87983112D01*
X162895313Y-87983148D01*
X162895312Y-87983148D01*
X162895176Y-87983150D01*
X162887432Y-87983394D01*
X162877959Y-87983841D01*
X162431313Y-88011759D01*
X162423582Y-88012000D01*
X161229000Y-88012000D01*
X161191837Y-88088645D01*
X161144876Y-88140379D01*
X161142866Y-88141581D01*
X161101426Y-88165818D01*
X161050994Y-88209517D01*
X161050969Y-88209540D01*
X161048625Y-88211572D01*
X161046499Y-88213826D01*
X161046481Y-88213844D01*
X161006447Y-88256304D01*
X160955560Y-88356382D01*
X160935875Y-88423419D01*
X160923500Y-88509493D01*
X160923500Y-88613617D01*
X160911077Y-88667715D01*
X159197000Y-92202998D01*
X159197000Y-93637625D01*
X159177315Y-93704664D01*
X159124511Y-93750419D01*
X159112212Y-93755262D01*
X158054000Y-94108000D01*
X158054000Y-96524000D01*
X158034315Y-96591039D01*
X157981511Y-96636794D01*
X157930000Y-96648000D01*
X156146000Y-96648000D01*
X156078961Y-96628315D01*
X156033206Y-96575511D01*
X156022000Y-96524000D01*
X156022000Y-94264908D01*
X156035635Y-94208379D01*
X156282195Y-93727000D01*
X158675409Y-89054534D01*
X158713168Y-89010545D01*
X160585668Y-87658184D01*
X160872572Y-87450976D01*
X160938445Y-87427683D01*
X160945173Y-87427500D01*
X161557746Y-87427500D01*
X161624785Y-87447185D01*
G37*
%TD.AperFunction*%
%TD*%
%TA.AperFunction,Conductor*%
%TO.N,GND*%
G36*
X163331039Y-92349685D02*
G01*
X163376794Y-92402489D01*
X163388000Y-92453999D01*
X163388000Y-94108000D01*
X166117379Y-95596752D01*
X166166805Y-95646134D01*
X166182000Y-95705610D01*
X166182000Y-98302000D01*
X166162315Y-98369039D01*
X166109511Y-98414794D01*
X166058000Y-98426000D01*
X165123665Y-98426000D01*
X165056626Y-98406315D01*
X165029952Y-98383203D01*
X165019920Y-98371625D01*
X165017655Y-98369489D01*
X165017647Y-98369481D01*
X164975187Y-98329447D01*
X164875109Y-98278560D01*
X164808072Y-98258875D01*
X164741222Y-98249263D01*
X164722000Y-98246500D01*
X164721998Y-98246500D01*
X163753904Y-98246500D01*
X163686865Y-98226815D01*
X163666223Y-98210181D01*
X163575524Y-98119482D01*
X163574340Y-98118298D01*
X163550008Y-98096442D01*
X163548706Y-98095393D01*
X163548691Y-98095380D01*
X163529366Y-98079808D01*
X163523826Y-98075448D01*
X163523825Y-98075447D01*
X163423749Y-98024561D01*
X163423748Y-98024560D01*
X163423747Y-98024560D01*
X163356710Y-98004875D01*
X163289860Y-97995263D01*
X163270638Y-97992500D01*
X163270636Y-97992500D01*
X163259862Y-97992500D01*
X163192823Y-97972815D01*
X163172181Y-97956181D01*
X163134000Y-97918000D01*
X160734392Y-97918000D01*
X160678932Y-97904906D01*
X160662540Y-97896709D01*
X160611384Y-97849119D01*
X160594000Y-97785803D01*
X160594000Y-94108000D01*
X160551665Y-94108000D01*
X160484626Y-94088315D01*
X160457952Y-94065203D01*
X160447920Y-94053625D01*
X160445655Y-94051489D01*
X160445647Y-94051481D01*
X160403187Y-94011447D01*
X160303109Y-93960560D01*
X160236072Y-93940875D01*
X160169222Y-93931263D01*
X160150000Y-93928500D01*
X160149998Y-93928500D01*
X159637267Y-93928500D01*
X159607192Y-93924797D01*
X159568405Y-93915100D01*
X159508141Y-93879744D01*
X159476560Y-93817419D01*
X159479502Y-93759868D01*
X159490124Y-93723697D01*
X159502500Y-93637625D01*
X159502500Y-92453999D01*
X159522185Y-92386961D01*
X159574989Y-92341206D01*
X159626500Y-92330000D01*
X163264000Y-92330000D01*
X163331039Y-92349685D01*
G37*
%TD.AperFunction*%
%TD*%
%TA.AperFunction,Conductor*%
%TO.N,GND*%
G36*
X165998039Y-82062685D02*
G01*
X166043794Y-82115489D01*
X166055000Y-82167000D01*
X166055000Y-90809000D01*
X166035315Y-90876039D01*
X165982511Y-90921794D01*
X165931000Y-90933000D01*
X163549890Y-90933000D01*
X163485230Y-90914807D01*
X161288340Y-89572263D01*
X161241401Y-89520509D01*
X161229000Y-89466456D01*
X161229000Y-88509492D01*
X161248685Y-88442453D01*
X161301489Y-88396698D01*
X161345262Y-88385733D01*
X162897173Y-88288739D01*
X162904854Y-88288499D01*
X164149864Y-88288499D01*
X164174991Y-88285585D01*
X164277765Y-88240206D01*
X164357206Y-88160765D01*
X164402585Y-88057991D01*
X164405500Y-88032865D01*
X164405499Y-87543136D01*
X164402585Y-87518009D01*
X164400411Y-87513087D01*
X164391339Y-87443811D01*
X164400409Y-87412917D01*
X164402585Y-87407991D01*
X164405500Y-87382865D01*
X164405499Y-86893136D01*
X164402585Y-86868009D01*
X164400411Y-86863087D01*
X164391339Y-86793811D01*
X164400409Y-86762917D01*
X164402585Y-86757991D01*
X164405500Y-86732865D01*
X164405499Y-86243136D01*
X164402585Y-86218009D01*
X164400411Y-86213087D01*
X164391339Y-86143811D01*
X164400409Y-86112917D01*
X164402585Y-86107991D01*
X164405500Y-86082865D01*
X164405499Y-85593136D01*
X164402585Y-85568009D01*
X164357206Y-85465235D01*
X164357204Y-85465233D01*
X164357204Y-85465232D01*
X164277767Y-85385795D01*
X164174990Y-85340414D01*
X164153414Y-85337911D01*
X164153401Y-85337910D01*
X164149865Y-85337500D01*
X164146290Y-85337500D01*
X163385000Y-85337500D01*
X163317961Y-85317815D01*
X163272206Y-85265011D01*
X163261000Y-85213500D01*
X163261000Y-84964000D01*
X163260999Y-84963999D01*
X161337620Y-84723577D01*
X161273539Y-84695730D01*
X161234687Y-84637658D01*
X161229000Y-84600535D01*
X161229000Y-83513317D01*
X161248685Y-83446278D01*
X161293239Y-83404668D01*
X163391400Y-82250679D01*
X163741093Y-82058349D01*
X163800851Y-82043000D01*
X165931000Y-82043000D01*
X165998039Y-82062685D01*
G37*
%TD.AperFunction*%
%TD*%
%TA.AperFunction,Conductor*%
%TO.N,/3V3_LDO*%
G36*
X160217039Y-94253685D02*
G01*
X160262794Y-94306489D01*
X160274000Y-94357999D01*
X160274000Y-98044000D01*
X160274001Y-98044001D01*
X160781999Y-98298000D01*
X160782000Y-98298000D01*
X163270638Y-98298000D01*
X163337677Y-98317685D01*
X163358319Y-98334319D01*
X163576000Y-98552000D01*
X164722000Y-98552000D01*
X164789039Y-98571685D01*
X164834794Y-98624489D01*
X164846000Y-98676000D01*
X164846000Y-99698000D01*
X164826315Y-99765039D01*
X164773511Y-99810794D01*
X164722000Y-99822000D01*
X159055362Y-99822000D01*
X158988323Y-99802315D01*
X158967681Y-99785681D01*
X158278319Y-99096319D01*
X158244834Y-99034996D01*
X158242000Y-99008638D01*
X158242000Y-96863073D01*
X158261685Y-96796034D01*
X158275778Y-96778008D01*
X158276553Y-96777187D01*
X158327439Y-96677111D01*
X158347124Y-96610072D01*
X158359500Y-96524000D01*
X158359500Y-94417566D01*
X158379185Y-94350527D01*
X158431989Y-94304772D01*
X158444283Y-94299930D01*
X158622986Y-94240363D01*
X158662199Y-94234000D01*
X160150000Y-94234000D01*
X160217039Y-94253685D01*
G37*
%TD.AperFunction*%
%TD*%
M02*
