%TF.GenerationSoftware,KiCad,Pcbnew,7.0.2*%
%TF.CreationDate,2024-08-30T22:16:44+05:30*%
%TF.ProjectId,EPS_ControlUnit,4550535f-436f-46e7-9472-6f6c556e6974,rev?*%
%TF.SameCoordinates,Original*%
%TF.FileFunction,Paste,Top*%
%TF.FilePolarity,Positive*%
%FSLAX46Y46*%
G04 Gerber Fmt 4.6, Leading zero omitted, Abs format (unit mm)*
G04 Created by KiCad (PCBNEW 7.0.2) date 2024-08-30 22:16:44*
%MOMM*%
%LPD*%
G01*
G04 APERTURE LIST*
G04 Aperture macros list*
%AMRoundRect*
0 Rectangle with rounded corners*
0 $1 Rounding radius*
0 $2 $3 $4 $5 $6 $7 $8 $9 X,Y pos of 4 corners*
0 Add a 4 corners polygon primitive as box body*
4,1,4,$2,$3,$4,$5,$6,$7,$8,$9,$2,$3,0*
0 Add four circle primitives for the rounded corners*
1,1,$1+$1,$2,$3*
1,1,$1+$1,$4,$5*
1,1,$1+$1,$6,$7*
1,1,$1+$1,$8,$9*
0 Add four rect primitives between the rounded corners*
20,1,$1+$1,$2,$3,$4,$5,0*
20,1,$1+$1,$4,$5,$6,$7,0*
20,1,$1+$1,$6,$7,$8,$9,0*
20,1,$1+$1,$8,$9,$2,$3,0*%
G04 Aperture macros list end*
%ADD10RoundRect,0.250000X-0.262500X-0.450000X0.262500X-0.450000X0.262500X0.450000X-0.262500X0.450000X0*%
%ADD11RoundRect,0.243750X0.243750X0.456250X-0.243750X0.456250X-0.243750X-0.456250X0.243750X-0.456250X0*%
%ADD12RoundRect,0.075000X-0.725000X-0.075000X0.725000X-0.075000X0.725000X0.075000X-0.725000X0.075000X0*%
%ADD13RoundRect,0.075000X-0.075000X-0.725000X0.075000X-0.725000X0.075000X0.725000X-0.075000X0.725000X0*%
%ADD14RoundRect,0.225000X0.250000X-0.225000X0.250000X0.225000X-0.250000X0.225000X-0.250000X-0.225000X0*%
%ADD15R,1.400000X0.400000*%
%ADD16R,1.450000X1.150000*%
%ADD17R,1.900000X1.750000*%
%ADD18RoundRect,0.225000X0.225000X0.250000X-0.225000X0.250000X-0.225000X-0.250000X0.225000X-0.250000X0*%
%ADD19R,1.500000X2.000000*%
%ADD20R,3.800000X2.000000*%
%ADD21RoundRect,0.225000X-0.250000X0.225000X-0.250000X-0.225000X0.250000X-0.225000X0.250000X0.225000X0*%
%ADD22RoundRect,0.250000X0.262500X0.450000X-0.262500X0.450000X-0.262500X-0.450000X0.262500X-0.450000X0*%
%ADD23RoundRect,0.225000X-0.225000X-0.250000X0.225000X-0.250000X0.225000X0.250000X-0.225000X0.250000X0*%
%ADD24RoundRect,0.218750X-0.381250X0.218750X-0.381250X-0.218750X0.381250X-0.218750X0.381250X0.218750X0*%
%ADD25R,1.200000X1.400000*%
%ADD26R,1.473200X0.558800*%
G04 APERTURE END LIST*
D10*
%TO.C,R5*%
X151316500Y-91822000D03*
X149491500Y-91822000D03*
%TD*%
D11*
%TO.C,EPS_LED*%
X151244500Y-89663000D03*
X149369500Y-89663000D03*
%TD*%
D12*
%TO.C,STM32L476*%
X131329000Y-84552000D03*
X131329000Y-85052000D03*
X131329000Y-85552000D03*
X131329000Y-86052000D03*
X131329000Y-86552000D03*
X131329000Y-87052000D03*
X131329000Y-87552000D03*
X131329000Y-88052000D03*
X131329000Y-88552000D03*
X131329000Y-89052000D03*
X131329000Y-89552000D03*
X131329000Y-90052000D03*
X131329000Y-90552000D03*
X131329000Y-91052000D03*
X131329000Y-91552000D03*
X131329000Y-92052000D03*
X131329000Y-92552000D03*
X131329000Y-93052000D03*
X131329000Y-93552000D03*
X131329000Y-94052000D03*
X131329000Y-94552000D03*
X131329000Y-95052000D03*
X131329000Y-95552000D03*
X131329000Y-96052000D03*
X131329000Y-96552000D03*
D13*
X133004000Y-98227000D03*
X133504000Y-98227000D03*
X134004000Y-98227000D03*
X134504000Y-98227000D03*
X135004000Y-98227000D03*
X135504000Y-98227000D03*
X136004000Y-98227000D03*
X136504000Y-98227000D03*
X137004000Y-98227000D03*
X137504000Y-98227000D03*
X138004000Y-98227000D03*
X138504000Y-98227000D03*
X139004000Y-98227000D03*
X139504000Y-98227000D03*
X140004000Y-98227000D03*
X140504000Y-98227000D03*
X141004000Y-98227000D03*
X141504000Y-98227000D03*
X142004000Y-98227000D03*
X142504000Y-98227000D03*
X143004000Y-98227000D03*
X143504000Y-98227000D03*
X144004000Y-98227000D03*
X144504000Y-98227000D03*
X145004000Y-98227000D03*
D12*
X146679000Y-96552000D03*
X146679000Y-96052000D03*
X146679000Y-95552000D03*
X146679000Y-95052000D03*
X146679000Y-94552000D03*
X146679000Y-94052000D03*
X146679000Y-93552000D03*
X146679000Y-93052000D03*
X146679000Y-92552000D03*
X146679000Y-92052000D03*
X146679000Y-91552000D03*
X146679000Y-91052000D03*
X146679000Y-90552000D03*
X146679000Y-90052000D03*
X146679000Y-89552000D03*
X146679000Y-89052000D03*
X146679000Y-88552000D03*
X146679000Y-88052000D03*
X146679000Y-87552000D03*
X146679000Y-87052000D03*
X146679000Y-86552000D03*
X146679000Y-86052000D03*
X146679000Y-85552000D03*
X146679000Y-85052000D03*
X146679000Y-84552000D03*
D13*
X145004000Y-82877000D03*
X144504000Y-82877000D03*
X144004000Y-82877000D03*
X143504000Y-82877000D03*
X143004000Y-82877000D03*
X142504000Y-82877000D03*
X142004000Y-82877000D03*
X141504000Y-82877000D03*
X141004000Y-82877000D03*
X140504000Y-82877000D03*
X140004000Y-82877000D03*
X139504000Y-82877000D03*
X139004000Y-82877000D03*
X138504000Y-82877000D03*
X138004000Y-82877000D03*
X137504000Y-82877000D03*
X137004000Y-82877000D03*
X136504000Y-82877000D03*
X136004000Y-82877000D03*
X135504000Y-82877000D03*
X135004000Y-82877000D03*
X134504000Y-82877000D03*
X134004000Y-82877000D03*
X133504000Y-82877000D03*
X133004000Y-82877000D03*
%TD*%
D14*
%TO.C,C2*%
X126850000Y-87829000D03*
X126850000Y-89379000D03*
%TD*%
D15*
%TO.C,USB*%
X163405000Y-87788000D03*
X163405000Y-87138000D03*
X163405000Y-86488000D03*
X163405000Y-85838000D03*
X163405000Y-85188000D03*
D16*
X163825000Y-88808000D03*
D17*
X166055000Y-87613000D03*
X166055000Y-85363000D03*
D16*
X163825000Y-84168000D03*
%TD*%
D18*
%TO.C,C7*%
X133022000Y-100204000D03*
X134572000Y-100204000D03*
%TD*%
D14*
%TO.C,C5*%
X129352000Y-87237000D03*
X129352000Y-88787000D03*
%TD*%
D18*
%TO.C,C9*%
X148923000Y-82297000D03*
X147373000Y-82297000D03*
%TD*%
D10*
%TO.C,R8*%
X142513000Y-108586000D03*
X144338000Y-108586000D03*
%TD*%
D19*
%TO.C,U2*%
X157024000Y-95378000D03*
D20*
X159324000Y-101678000D03*
D19*
X159324000Y-95378000D03*
X161624000Y-95378000D03*
%TD*%
D14*
%TO.C,C11*%
X148910000Y-84189000D03*
X148910000Y-85739000D03*
%TD*%
D10*
%TO.C,R1*%
X129629500Y-81281000D03*
X127804500Y-81281000D03*
%TD*%
%TO.C,R2*%
X160285000Y-106427000D03*
X158460000Y-106427000D03*
%TD*%
D18*
%TO.C,C1*%
X127307000Y-77090000D03*
X128857000Y-77090000D03*
%TD*%
D11*
%TO.C,POW_LED*%
X154117000Y-106427000D03*
X155992000Y-106427000D03*
%TD*%
D21*
%TO.C,C6*%
X126850000Y-92681000D03*
X126850000Y-91131000D03*
%TD*%
D22*
%TO.C,R7*%
X138980500Y-108586000D03*
X140805500Y-108586000D03*
%TD*%
D21*
%TO.C,C4*%
X129352000Y-85739000D03*
X129352000Y-84189000D03*
%TD*%
D18*
%TO.C,C8*%
X145100000Y-100458000D03*
X146650000Y-100458000D03*
%TD*%
D10*
%TO.C,R3*%
X137781000Y-76582000D03*
X135956000Y-76582000D03*
%TD*%
D23*
%TO.C,C10*%
X132387000Y-80900000D03*
X133937000Y-80900000D03*
%TD*%
D22*
%TO.C,R4*%
X132249500Y-76582000D03*
X134074500Y-76582000D03*
%TD*%
D14*
%TO.C,C12*%
X129098000Y-93587000D03*
X129098000Y-95137000D03*
%TD*%
%TO.C,C16*%
X164136000Y-97651000D03*
X164136000Y-99201000D03*
%TD*%
D18*
%TO.C,C13*%
X125770000Y-98426000D03*
X127320000Y-98426000D03*
%TD*%
%TO.C,C14*%
X125783000Y-100458000D03*
X127333000Y-100458000D03*
%TD*%
D23*
%TO.C,C15*%
X160085000Y-93092000D03*
X158535000Y-93092000D03*
%TD*%
D24*
%TO.C,120R1*%
X129072000Y-100504500D03*
X129072000Y-98379500D03*
%TD*%
D25*
%TO.C,Y1*%
X124602000Y-89028000D03*
X124602000Y-91228000D03*
X123002000Y-91228000D03*
X123002000Y-89028000D03*
%TD*%
D26*
%TO.C,U3*%
X153228000Y-97156000D03*
X153228000Y-96205999D03*
X153228000Y-95255998D03*
X150840400Y-95255998D03*
X150840400Y-97156000D03*
%TD*%
M02*
