%TF.GenerationSoftware,KiCad,Pcbnew,7.0.2*%
%TF.CreationDate,2024-08-30T22:16:44+05:30*%
%TF.ProjectId,EPS_ControlUnit,4550535f-436f-46e7-9472-6f6c556e6974,rev?*%
%TF.SameCoordinates,Original*%
%TF.FileFunction,Legend,Top*%
%TF.FilePolarity,Positive*%
%FSLAX46Y46*%
G04 Gerber Fmt 4.6, Leading zero omitted, Abs format (unit mm)*
G04 Created by KiCad (PCBNEW 7.0.2) date 2024-08-30 22:16:44*
%MOMM*%
%LPD*%
G01*
G04 APERTURE LIST*
%ADD10C,0.150000*%
%ADD11C,0.250000*%
%ADD12C,0.120000*%
%ADD13C,0.152400*%
G04 APERTURE END LIST*
D10*
X117749619Y-99901428D02*
X117749619Y-99806190D01*
X117749619Y-99806190D02*
X117797238Y-99710952D01*
X117797238Y-99710952D02*
X117844857Y-99663333D01*
X117844857Y-99663333D02*
X117940095Y-99615714D01*
X117940095Y-99615714D02*
X118130571Y-99568095D01*
X118130571Y-99568095D02*
X118368666Y-99568095D01*
X118368666Y-99568095D02*
X118559142Y-99615714D01*
X118559142Y-99615714D02*
X118654380Y-99663333D01*
X118654380Y-99663333D02*
X118702000Y-99710952D01*
X118702000Y-99710952D02*
X118749619Y-99806190D01*
X118749619Y-99806190D02*
X118749619Y-99901428D01*
X118749619Y-99901428D02*
X118702000Y-99996666D01*
X118702000Y-99996666D02*
X118654380Y-100044285D01*
X118654380Y-100044285D02*
X118559142Y-100091904D01*
X118559142Y-100091904D02*
X118368666Y-100139523D01*
X118368666Y-100139523D02*
X118130571Y-100139523D01*
X118130571Y-100139523D02*
X117940095Y-100091904D01*
X117940095Y-100091904D02*
X117844857Y-100044285D01*
X117844857Y-100044285D02*
X117797238Y-99996666D01*
X117797238Y-99996666D02*
X117749619Y-99901428D01*
X118178190Y-98996666D02*
X118130571Y-99091904D01*
X118130571Y-99091904D02*
X118082952Y-99139523D01*
X118082952Y-99139523D02*
X117987714Y-99187142D01*
X117987714Y-99187142D02*
X117940095Y-99187142D01*
X117940095Y-99187142D02*
X117844857Y-99139523D01*
X117844857Y-99139523D02*
X117797238Y-99091904D01*
X117797238Y-99091904D02*
X117749619Y-98996666D01*
X117749619Y-98996666D02*
X117749619Y-98806190D01*
X117749619Y-98806190D02*
X117797238Y-98710952D01*
X117797238Y-98710952D02*
X117844857Y-98663333D01*
X117844857Y-98663333D02*
X117940095Y-98615714D01*
X117940095Y-98615714D02*
X117987714Y-98615714D01*
X117987714Y-98615714D02*
X118082952Y-98663333D01*
X118082952Y-98663333D02*
X118130571Y-98710952D01*
X118130571Y-98710952D02*
X118178190Y-98806190D01*
X118178190Y-98806190D02*
X118178190Y-98996666D01*
X118178190Y-98996666D02*
X118225809Y-99091904D01*
X118225809Y-99091904D02*
X118273428Y-99139523D01*
X118273428Y-99139523D02*
X118368666Y-99187142D01*
X118368666Y-99187142D02*
X118559142Y-99187142D01*
X118559142Y-99187142D02*
X118654380Y-99139523D01*
X118654380Y-99139523D02*
X118702000Y-99091904D01*
X118702000Y-99091904D02*
X118749619Y-98996666D01*
X118749619Y-98996666D02*
X118749619Y-98806190D01*
X118749619Y-98806190D02*
X118702000Y-98710952D01*
X118702000Y-98710952D02*
X118654380Y-98663333D01*
X118654380Y-98663333D02*
X118559142Y-98615714D01*
X118559142Y-98615714D02*
X118368666Y-98615714D01*
X118368666Y-98615714D02*
X118273428Y-98663333D01*
X118273428Y-98663333D02*
X118225809Y-98710952D01*
X118225809Y-98710952D02*
X118178190Y-98806190D01*
X117702000Y-97472857D02*
X118987714Y-98329999D01*
X117844857Y-97187142D02*
X117797238Y-97139523D01*
X117797238Y-97139523D02*
X117749619Y-97044285D01*
X117749619Y-97044285D02*
X117749619Y-96806190D01*
X117749619Y-96806190D02*
X117797238Y-96710952D01*
X117797238Y-96710952D02*
X117844857Y-96663333D01*
X117844857Y-96663333D02*
X117940095Y-96615714D01*
X117940095Y-96615714D02*
X118035333Y-96615714D01*
X118035333Y-96615714D02*
X118178190Y-96663333D01*
X118178190Y-96663333D02*
X118749619Y-97234761D01*
X118749619Y-97234761D02*
X118749619Y-96615714D01*
X118082952Y-95758571D02*
X118749619Y-95758571D01*
X117702000Y-95996666D02*
X118416285Y-96234761D01*
X118416285Y-96234761D02*
X118416285Y-95615714D01*
X152900191Y-80483964D02*
X152900191Y-79733964D01*
X152900191Y-79733964D02*
X153138286Y-79733964D01*
X153138286Y-79733964D02*
X153281143Y-79769678D01*
X153281143Y-79769678D02*
X153376381Y-79841107D01*
X153376381Y-79841107D02*
X153424000Y-79912535D01*
X153424000Y-79912535D02*
X153471619Y-80055392D01*
X153471619Y-80055392D02*
X153471619Y-80162535D01*
X153471619Y-80162535D02*
X153424000Y-80305392D01*
X153424000Y-80305392D02*
X153376381Y-80376821D01*
X153376381Y-80376821D02*
X153281143Y-80448250D01*
X153281143Y-80448250D02*
X153138286Y-80483964D01*
X153138286Y-80483964D02*
X152900191Y-80483964D01*
X153900191Y-80483964D02*
X153900191Y-79733964D01*
X154566857Y-79733964D02*
X154757333Y-79733964D01*
X154757333Y-79733964D02*
X154852571Y-79769678D01*
X154852571Y-79769678D02*
X154947809Y-79841107D01*
X154947809Y-79841107D02*
X154995428Y-79983964D01*
X154995428Y-79983964D02*
X154995428Y-80233964D01*
X154995428Y-80233964D02*
X154947809Y-80376821D01*
X154947809Y-80376821D02*
X154852571Y-80448250D01*
X154852571Y-80448250D02*
X154757333Y-80483964D01*
X154757333Y-80483964D02*
X154566857Y-80483964D01*
X154566857Y-80483964D02*
X154471619Y-80448250D01*
X154471619Y-80448250D02*
X154376381Y-80376821D01*
X154376381Y-80376821D02*
X154328762Y-80233964D01*
X154328762Y-80233964D02*
X154328762Y-79983964D01*
X154328762Y-79983964D02*
X154376381Y-79841107D01*
X154376381Y-79841107D02*
X154471619Y-79769678D01*
X154471619Y-79769678D02*
X154566857Y-79733964D01*
X150026761Y-80412535D02*
X149979142Y-80448250D01*
X149979142Y-80448250D02*
X149836285Y-80483964D01*
X149836285Y-80483964D02*
X149741047Y-80483964D01*
X149741047Y-80483964D02*
X149598190Y-80448250D01*
X149598190Y-80448250D02*
X149502952Y-80376821D01*
X149502952Y-80376821D02*
X149455333Y-80305392D01*
X149455333Y-80305392D02*
X149407714Y-80162535D01*
X149407714Y-80162535D02*
X149407714Y-80055392D01*
X149407714Y-80055392D02*
X149455333Y-79912535D01*
X149455333Y-79912535D02*
X149502952Y-79841107D01*
X149502952Y-79841107D02*
X149598190Y-79769678D01*
X149598190Y-79769678D02*
X149741047Y-79733964D01*
X149741047Y-79733964D02*
X149836285Y-79733964D01*
X149836285Y-79733964D02*
X149979142Y-79769678D01*
X149979142Y-79769678D02*
X150026761Y-79805392D01*
X150931523Y-80483964D02*
X150455333Y-80483964D01*
X150455333Y-80483964D02*
X150455333Y-79733964D01*
X151264857Y-80483964D02*
X151264857Y-79733964D01*
X151836285Y-80483964D02*
X151407714Y-80055392D01*
X151836285Y-79733964D02*
X151264857Y-80162535D01*
X120943857Y-85933107D02*
X121086714Y-85968821D01*
X121086714Y-85968821D02*
X121134333Y-86004535D01*
X121134333Y-86004535D02*
X121181952Y-86075964D01*
X121181952Y-86075964D02*
X121181952Y-86183107D01*
X121181952Y-86183107D02*
X121134333Y-86254535D01*
X121134333Y-86254535D02*
X121086714Y-86290250D01*
X121086714Y-86290250D02*
X120991476Y-86325964D01*
X120991476Y-86325964D02*
X120610524Y-86325964D01*
X120610524Y-86325964D02*
X120610524Y-85575964D01*
X120610524Y-85575964D02*
X120943857Y-85575964D01*
X120943857Y-85575964D02*
X121039095Y-85611678D01*
X121039095Y-85611678D02*
X121086714Y-85647392D01*
X121086714Y-85647392D02*
X121134333Y-85718821D01*
X121134333Y-85718821D02*
X121134333Y-85790250D01*
X121134333Y-85790250D02*
X121086714Y-85861678D01*
X121086714Y-85861678D02*
X121039095Y-85897392D01*
X121039095Y-85897392D02*
X120943857Y-85933107D01*
X120943857Y-85933107D02*
X120610524Y-85933107D01*
X121801000Y-85575964D02*
X121991476Y-85575964D01*
X121991476Y-85575964D02*
X122086714Y-85611678D01*
X122086714Y-85611678D02*
X122181952Y-85683107D01*
X122181952Y-85683107D02*
X122229571Y-85825964D01*
X122229571Y-85825964D02*
X122229571Y-86075964D01*
X122229571Y-86075964D02*
X122181952Y-86218821D01*
X122181952Y-86218821D02*
X122086714Y-86290250D01*
X122086714Y-86290250D02*
X121991476Y-86325964D01*
X121991476Y-86325964D02*
X121801000Y-86325964D01*
X121801000Y-86325964D02*
X121705762Y-86290250D01*
X121705762Y-86290250D02*
X121610524Y-86218821D01*
X121610524Y-86218821D02*
X121562905Y-86075964D01*
X121562905Y-86075964D02*
X121562905Y-85825964D01*
X121562905Y-85825964D02*
X121610524Y-85683107D01*
X121610524Y-85683107D02*
X121705762Y-85611678D01*
X121705762Y-85611678D02*
X121801000Y-85575964D01*
X122848619Y-85575964D02*
X123039095Y-85575964D01*
X123039095Y-85575964D02*
X123134333Y-85611678D01*
X123134333Y-85611678D02*
X123229571Y-85683107D01*
X123229571Y-85683107D02*
X123277190Y-85825964D01*
X123277190Y-85825964D02*
X123277190Y-86075964D01*
X123277190Y-86075964D02*
X123229571Y-86218821D01*
X123229571Y-86218821D02*
X123134333Y-86290250D01*
X123134333Y-86290250D02*
X123039095Y-86325964D01*
X123039095Y-86325964D02*
X122848619Y-86325964D01*
X122848619Y-86325964D02*
X122753381Y-86290250D01*
X122753381Y-86290250D02*
X122658143Y-86218821D01*
X122658143Y-86218821D02*
X122610524Y-86075964D01*
X122610524Y-86075964D02*
X122610524Y-85825964D01*
X122610524Y-85825964D02*
X122658143Y-85683107D01*
X122658143Y-85683107D02*
X122753381Y-85611678D01*
X122753381Y-85611678D02*
X122848619Y-85575964D01*
X123562905Y-85575964D02*
X124134333Y-85575964D01*
X123848619Y-86325964D02*
X123848619Y-85575964D01*
X121539000Y-78740000D02*
X121666000Y-78740000D01*
X121412000Y-81788000D02*
X121666000Y-81788000D01*
X120142000Y-81788000D02*
X121412000Y-81788000D01*
X120142000Y-78740000D02*
X120142000Y-81788000D01*
X121539000Y-78740000D02*
X120142000Y-78740000D01*
X117622619Y-81311761D02*
X118622619Y-80978428D01*
X118622619Y-80978428D02*
X117622619Y-80645095D01*
X118622619Y-79787952D02*
X118622619Y-80359380D01*
X118622619Y-80073666D02*
X117622619Y-80073666D01*
X117622619Y-80073666D02*
X117765476Y-80168904D01*
X117765476Y-80168904D02*
X117860714Y-80264142D01*
X117860714Y-80264142D02*
X117908333Y-80359380D01*
X118527380Y-79359380D02*
X118575000Y-79311761D01*
X118575000Y-79311761D02*
X118622619Y-79359380D01*
X118622619Y-79359380D02*
X118575000Y-79406999D01*
X118575000Y-79406999D02*
X118527380Y-79359380D01*
X118527380Y-79359380D02*
X118622619Y-79359380D01*
X117622619Y-78692714D02*
X117622619Y-78597476D01*
X117622619Y-78597476D02*
X117670238Y-78502238D01*
X117670238Y-78502238D02*
X117717857Y-78454619D01*
X117717857Y-78454619D02*
X117813095Y-78407000D01*
X117813095Y-78407000D02*
X118003571Y-78359381D01*
X118003571Y-78359381D02*
X118241666Y-78359381D01*
X118241666Y-78359381D02*
X118432142Y-78407000D01*
X118432142Y-78407000D02*
X118527380Y-78454619D01*
X118527380Y-78454619D02*
X118575000Y-78502238D01*
X118575000Y-78502238D02*
X118622619Y-78597476D01*
X118622619Y-78597476D02*
X118622619Y-78692714D01*
X118622619Y-78692714D02*
X118575000Y-78787952D01*
X118575000Y-78787952D02*
X118527380Y-78835571D01*
X118527380Y-78835571D02*
X118432142Y-78883190D01*
X118432142Y-78883190D02*
X118241666Y-78930809D01*
X118241666Y-78930809D02*
X118003571Y-78930809D01*
X118003571Y-78930809D02*
X117813095Y-78883190D01*
X117813095Y-78883190D02*
X117717857Y-78835571D01*
X117717857Y-78835571D02*
X117670238Y-78787952D01*
X117670238Y-78787952D02*
X117622619Y-78692714D01*
X155995857Y-81314000D02*
X156138714Y-81361619D01*
X156138714Y-81361619D02*
X156376809Y-81361619D01*
X156376809Y-81361619D02*
X156472047Y-81314000D01*
X156472047Y-81314000D02*
X156519666Y-81266380D01*
X156519666Y-81266380D02*
X156567285Y-81171142D01*
X156567285Y-81171142D02*
X156567285Y-81075904D01*
X156567285Y-81075904D02*
X156519666Y-80980666D01*
X156519666Y-80980666D02*
X156472047Y-80933047D01*
X156472047Y-80933047D02*
X156376809Y-80885428D01*
X156376809Y-80885428D02*
X156186333Y-80837809D01*
X156186333Y-80837809D02*
X156091095Y-80790190D01*
X156091095Y-80790190D02*
X156043476Y-80742571D01*
X156043476Y-80742571D02*
X155995857Y-80647333D01*
X155995857Y-80647333D02*
X155995857Y-80552095D01*
X155995857Y-80552095D02*
X156043476Y-80456857D01*
X156043476Y-80456857D02*
X156091095Y-80409238D01*
X156091095Y-80409238D02*
X156186333Y-80361619D01*
X156186333Y-80361619D02*
X156424428Y-80361619D01*
X156424428Y-80361619D02*
X156567285Y-80409238D01*
X156900619Y-80361619D02*
X157138714Y-81361619D01*
X157138714Y-81361619D02*
X157329190Y-80647333D01*
X157329190Y-80647333D02*
X157519666Y-81361619D01*
X157519666Y-81361619D02*
X157757762Y-80361619D01*
X158138714Y-81361619D02*
X158138714Y-80361619D01*
X158138714Y-80361619D02*
X158376809Y-80361619D01*
X158376809Y-80361619D02*
X158519666Y-80409238D01*
X158519666Y-80409238D02*
X158614904Y-80504476D01*
X158614904Y-80504476D02*
X158662523Y-80599714D01*
X158662523Y-80599714D02*
X158710142Y-80790190D01*
X158710142Y-80790190D02*
X158710142Y-80933047D01*
X158710142Y-80933047D02*
X158662523Y-81123523D01*
X158662523Y-81123523D02*
X158614904Y-81218761D01*
X158614904Y-81218761D02*
X158519666Y-81314000D01*
X158519666Y-81314000D02*
X158376809Y-81361619D01*
X158376809Y-81361619D02*
X158138714Y-81361619D01*
X152741333Y-75646619D02*
X152408000Y-75170428D01*
X152169905Y-75646619D02*
X152169905Y-74646619D01*
X152169905Y-74646619D02*
X152550857Y-74646619D01*
X152550857Y-74646619D02*
X152646095Y-74694238D01*
X152646095Y-74694238D02*
X152693714Y-74741857D01*
X152693714Y-74741857D02*
X152741333Y-74837095D01*
X152741333Y-74837095D02*
X152741333Y-74979952D01*
X152741333Y-74979952D02*
X152693714Y-75075190D01*
X152693714Y-75075190D02*
X152646095Y-75122809D01*
X152646095Y-75122809D02*
X152550857Y-75170428D01*
X152550857Y-75170428D02*
X152169905Y-75170428D01*
X153074667Y-74646619D02*
X153741333Y-75646619D01*
X153741333Y-74646619D02*
X153074667Y-75646619D01*
X149733095Y-74646619D02*
X150304523Y-74646619D01*
X150018809Y-75646619D02*
X150018809Y-74646619D01*
X150542619Y-74646619D02*
X151209285Y-75646619D01*
X151209285Y-74646619D02*
X150542619Y-75646619D01*
X155373380Y-73541857D02*
X155421000Y-73589476D01*
X155421000Y-73589476D02*
X155468619Y-73732333D01*
X155468619Y-73732333D02*
X155468619Y-73827571D01*
X155468619Y-73827571D02*
X155421000Y-73970428D01*
X155421000Y-73970428D02*
X155325761Y-74065666D01*
X155325761Y-74065666D02*
X155230523Y-74113285D01*
X155230523Y-74113285D02*
X155040047Y-74160904D01*
X155040047Y-74160904D02*
X154897190Y-74160904D01*
X154897190Y-74160904D02*
X154706714Y-74113285D01*
X154706714Y-74113285D02*
X154611476Y-74065666D01*
X154611476Y-74065666D02*
X154516238Y-73970428D01*
X154516238Y-73970428D02*
X154468619Y-73827571D01*
X154468619Y-73827571D02*
X154468619Y-73732333D01*
X154468619Y-73732333D02*
X154516238Y-73589476D01*
X154516238Y-73589476D02*
X154563857Y-73541857D01*
X155182904Y-73160904D02*
X155182904Y-72684714D01*
X155468619Y-73256142D02*
X154468619Y-72922809D01*
X154468619Y-72922809D02*
X155468619Y-72589476D01*
X155468619Y-72256142D02*
X154468619Y-72256142D01*
X154468619Y-72256142D02*
X155468619Y-71684714D01*
X155468619Y-71684714D02*
X154468619Y-71684714D01*
X137440571Y-74393619D02*
X137440571Y-75203142D01*
X137440571Y-75203142D02*
X137488190Y-75298380D01*
X137488190Y-75298380D02*
X137535809Y-75346000D01*
X137535809Y-75346000D02*
X137631047Y-75393619D01*
X137631047Y-75393619D02*
X137821523Y-75393619D01*
X137821523Y-75393619D02*
X137916761Y-75346000D01*
X137916761Y-75346000D02*
X137964380Y-75298380D01*
X137964380Y-75298380D02*
X138011999Y-75203142D01*
X138011999Y-75203142D02*
X138011999Y-74393619D01*
X138440571Y-75107904D02*
X138916761Y-75107904D01*
X138345333Y-75393619D02*
X138678666Y-74393619D01*
X138678666Y-74393619D02*
X139011999Y-75393619D01*
X139916761Y-75393619D02*
X139583428Y-74917428D01*
X139345333Y-75393619D02*
X139345333Y-74393619D01*
X139345333Y-74393619D02*
X139726285Y-74393619D01*
X139726285Y-74393619D02*
X139821523Y-74441238D01*
X139821523Y-74441238D02*
X139869142Y-74488857D01*
X139869142Y-74488857D02*
X139916761Y-74584095D01*
X139916761Y-74584095D02*
X139916761Y-74726952D01*
X139916761Y-74726952D02*
X139869142Y-74822190D01*
X139869142Y-74822190D02*
X139821523Y-74869809D01*
X139821523Y-74869809D02*
X139726285Y-74917428D01*
X139726285Y-74917428D02*
X139345333Y-74917428D01*
X140202476Y-74393619D02*
X140773904Y-74393619D01*
X140488190Y-75393619D02*
X140488190Y-74393619D01*
X141631047Y-75393619D02*
X141059619Y-75393619D01*
X141345333Y-75393619D02*
X141345333Y-74393619D01*
X141345333Y-74393619D02*
X141250095Y-74536476D01*
X141250095Y-74536476D02*
X141154857Y-74631714D01*
X141154857Y-74631714D02*
X141059619Y-74679333D01*
X125105619Y-75393619D02*
X125105619Y-74393619D01*
X125534190Y-74488857D02*
X125581809Y-74441238D01*
X125581809Y-74441238D02*
X125677047Y-74393619D01*
X125677047Y-74393619D02*
X125915142Y-74393619D01*
X125915142Y-74393619D02*
X126010380Y-74441238D01*
X126010380Y-74441238D02*
X126057999Y-74488857D01*
X126057999Y-74488857D02*
X126105618Y-74584095D01*
X126105618Y-74584095D02*
X126105618Y-74679333D01*
X126105618Y-74679333D02*
X126057999Y-74822190D01*
X126057999Y-74822190D02*
X125486571Y-75393619D01*
X125486571Y-75393619D02*
X126105618Y-75393619D01*
X127105618Y-75298380D02*
X127057999Y-75346000D01*
X127057999Y-75346000D02*
X126915142Y-75393619D01*
X126915142Y-75393619D02*
X126819904Y-75393619D01*
X126819904Y-75393619D02*
X126677047Y-75346000D01*
X126677047Y-75346000D02*
X126581809Y-75250761D01*
X126581809Y-75250761D02*
X126534190Y-75155523D01*
X126534190Y-75155523D02*
X126486571Y-74965047D01*
X126486571Y-74965047D02*
X126486571Y-74822190D01*
X126486571Y-74822190D02*
X126534190Y-74631714D01*
X126534190Y-74631714D02*
X126581809Y-74536476D01*
X126581809Y-74536476D02*
X126677047Y-74441238D01*
X126677047Y-74441238D02*
X126819904Y-74393619D01*
X126819904Y-74393619D02*
X126915142Y-74393619D01*
X126915142Y-74393619D02*
X127057999Y-74441238D01*
X127057999Y-74441238D02*
X127105618Y-74488857D01*
X128057999Y-75393619D02*
X127486571Y-75393619D01*
X127772285Y-75393619D02*
X127772285Y-74393619D01*
X127772285Y-74393619D02*
X127677047Y-74536476D01*
X127677047Y-74536476D02*
X127581809Y-74631714D01*
X127581809Y-74631714D02*
X127486571Y-74679333D01*
X145806619Y-109810619D02*
X145806619Y-108810619D01*
X146235190Y-108905857D02*
X146282809Y-108858238D01*
X146282809Y-108858238D02*
X146378047Y-108810619D01*
X146378047Y-108810619D02*
X146616142Y-108810619D01*
X146616142Y-108810619D02*
X146711380Y-108858238D01*
X146711380Y-108858238D02*
X146758999Y-108905857D01*
X146758999Y-108905857D02*
X146806618Y-109001095D01*
X146806618Y-109001095D02*
X146806618Y-109096333D01*
X146806618Y-109096333D02*
X146758999Y-109239190D01*
X146758999Y-109239190D02*
X146187571Y-109810619D01*
X146187571Y-109810619D02*
X146806618Y-109810619D01*
X147806618Y-109715380D02*
X147758999Y-109763000D01*
X147758999Y-109763000D02*
X147616142Y-109810619D01*
X147616142Y-109810619D02*
X147520904Y-109810619D01*
X147520904Y-109810619D02*
X147378047Y-109763000D01*
X147378047Y-109763000D02*
X147282809Y-109667761D01*
X147282809Y-109667761D02*
X147235190Y-109572523D01*
X147235190Y-109572523D02*
X147187571Y-109382047D01*
X147187571Y-109382047D02*
X147187571Y-109239190D01*
X147187571Y-109239190D02*
X147235190Y-109048714D01*
X147235190Y-109048714D02*
X147282809Y-108953476D01*
X147282809Y-108953476D02*
X147378047Y-108858238D01*
X147378047Y-108858238D02*
X147520904Y-108810619D01*
X147520904Y-108810619D02*
X147616142Y-108810619D01*
X147616142Y-108810619D02*
X147758999Y-108858238D01*
X147758999Y-108858238D02*
X147806618Y-108905857D01*
X148187571Y-108905857D02*
X148235190Y-108858238D01*
X148235190Y-108858238D02*
X148330428Y-108810619D01*
X148330428Y-108810619D02*
X148568523Y-108810619D01*
X148568523Y-108810619D02*
X148663761Y-108858238D01*
X148663761Y-108858238D02*
X148711380Y-108905857D01*
X148711380Y-108905857D02*
X148758999Y-109001095D01*
X148758999Y-109001095D02*
X148758999Y-109096333D01*
X148758999Y-109096333D02*
X148711380Y-109239190D01*
X148711380Y-109239190D02*
X148139952Y-109810619D01*
X148139952Y-109810619D02*
X148758999Y-109810619D01*
X131590238Y-106282999D02*
X131542619Y-106378237D01*
X131542619Y-106378237D02*
X131542619Y-106521094D01*
X131542619Y-106521094D02*
X131590238Y-106663951D01*
X131590238Y-106663951D02*
X131685476Y-106759189D01*
X131685476Y-106759189D02*
X131780714Y-106806808D01*
X131780714Y-106806808D02*
X131971190Y-106854427D01*
X131971190Y-106854427D02*
X132114047Y-106854427D01*
X132114047Y-106854427D02*
X132304523Y-106806808D01*
X132304523Y-106806808D02*
X132399761Y-106759189D01*
X132399761Y-106759189D02*
X132495000Y-106663951D01*
X132495000Y-106663951D02*
X132542619Y-106521094D01*
X132542619Y-106521094D02*
X132542619Y-106425856D01*
X132542619Y-106425856D02*
X132495000Y-106282999D01*
X132495000Y-106282999D02*
X132447380Y-106235380D01*
X132447380Y-106235380D02*
X132114047Y-106235380D01*
X132114047Y-106235380D02*
X132114047Y-106425856D01*
X132542619Y-105806808D02*
X131542619Y-105806808D01*
X131542619Y-105806808D02*
X131542619Y-105425856D01*
X131542619Y-105425856D02*
X131590238Y-105330618D01*
X131590238Y-105330618D02*
X131637857Y-105282999D01*
X131637857Y-105282999D02*
X131733095Y-105235380D01*
X131733095Y-105235380D02*
X131875952Y-105235380D01*
X131875952Y-105235380D02*
X131971190Y-105282999D01*
X131971190Y-105282999D02*
X132018809Y-105330618D01*
X132018809Y-105330618D02*
X132066428Y-105425856D01*
X132066428Y-105425856D02*
X132066428Y-105806808D01*
X132542619Y-104806808D02*
X131542619Y-104806808D01*
X131542619Y-104140142D02*
X131542619Y-103949666D01*
X131542619Y-103949666D02*
X131590238Y-103854428D01*
X131590238Y-103854428D02*
X131685476Y-103759190D01*
X131685476Y-103759190D02*
X131875952Y-103711571D01*
X131875952Y-103711571D02*
X132209285Y-103711571D01*
X132209285Y-103711571D02*
X132399761Y-103759190D01*
X132399761Y-103759190D02*
X132495000Y-103854428D01*
X132495000Y-103854428D02*
X132542619Y-103949666D01*
X132542619Y-103949666D02*
X132542619Y-104140142D01*
X132542619Y-104140142D02*
X132495000Y-104235380D01*
X132495000Y-104235380D02*
X132399761Y-104330618D01*
X132399761Y-104330618D02*
X132209285Y-104378237D01*
X132209285Y-104378237D02*
X131875952Y-104378237D01*
X131875952Y-104378237D02*
X131685476Y-104330618D01*
X131685476Y-104330618D02*
X131590238Y-104235380D01*
X131590238Y-104235380D02*
X131542619Y-104140142D01*
X118529904Y-106109523D02*
X118529904Y-105633333D01*
X118815619Y-106204761D02*
X117815619Y-105871428D01*
X117815619Y-105871428D02*
X118815619Y-105538095D01*
X118815619Y-105204761D02*
X117815619Y-105204761D01*
X117815619Y-105204761D02*
X118529904Y-104871428D01*
X118529904Y-104871428D02*
X117815619Y-104538095D01*
X117815619Y-104538095D02*
X118815619Y-104538095D01*
X118291809Y-104061904D02*
X118291809Y-103728571D01*
X118815619Y-103585714D02*
X118815619Y-104061904D01*
X118815619Y-104061904D02*
X117815619Y-104061904D01*
X117815619Y-104061904D02*
X117815619Y-103585714D01*
X118339428Y-102966666D02*
X118815619Y-102966666D01*
X117815619Y-103299999D02*
X118339428Y-102966666D01*
X118339428Y-102966666D02*
X117815619Y-102633333D01*
X118529904Y-102347618D02*
X118529904Y-101871428D01*
X118815619Y-102442856D02*
X117815619Y-102109523D01*
X117815619Y-102109523D02*
X118815619Y-101776190D01*
D11*
X115867619Y-106077809D02*
X115867619Y-105411142D01*
X116915238Y-105125428D02*
X116915238Y-106077809D01*
X116915238Y-106077809D02*
X114915238Y-106077809D01*
X114915238Y-106077809D02*
X114915238Y-105125428D01*
X116915238Y-104268285D02*
X114915238Y-104268285D01*
X114915238Y-104268285D02*
X114915238Y-103506380D01*
X114915238Y-103506380D02*
X115010476Y-103315904D01*
X115010476Y-103315904D02*
X115105714Y-103220666D01*
X115105714Y-103220666D02*
X115296190Y-103125428D01*
X115296190Y-103125428D02*
X115581904Y-103125428D01*
X115581904Y-103125428D02*
X115772380Y-103220666D01*
X115772380Y-103220666D02*
X115867619Y-103315904D01*
X115867619Y-103315904D02*
X115962857Y-103506380D01*
X115962857Y-103506380D02*
X115962857Y-104268285D01*
X116820000Y-102363523D02*
X116915238Y-102077809D01*
X116915238Y-102077809D02*
X116915238Y-101601618D01*
X116915238Y-101601618D02*
X116820000Y-101411142D01*
X116820000Y-101411142D02*
X116724761Y-101315904D01*
X116724761Y-101315904D02*
X116534285Y-101220666D01*
X116534285Y-101220666D02*
X116343809Y-101220666D01*
X116343809Y-101220666D02*
X116153333Y-101315904D01*
X116153333Y-101315904D02*
X116058095Y-101411142D01*
X116058095Y-101411142D02*
X115962857Y-101601618D01*
X115962857Y-101601618D02*
X115867619Y-101982571D01*
X115867619Y-101982571D02*
X115772380Y-102173047D01*
X115772380Y-102173047D02*
X115677142Y-102268285D01*
X115677142Y-102268285D02*
X115486666Y-102363523D01*
X115486666Y-102363523D02*
X115296190Y-102363523D01*
X115296190Y-102363523D02*
X115105714Y-102268285D01*
X115105714Y-102268285D02*
X115010476Y-102173047D01*
X115010476Y-102173047D02*
X114915238Y-101982571D01*
X114915238Y-101982571D02*
X114915238Y-101506380D01*
X114915238Y-101506380D02*
X115010476Y-101220666D01*
X116724761Y-97696856D02*
X116820000Y-97792094D01*
X116820000Y-97792094D02*
X116915238Y-98077808D01*
X116915238Y-98077808D02*
X116915238Y-98268284D01*
X116915238Y-98268284D02*
X116820000Y-98553999D01*
X116820000Y-98553999D02*
X116629523Y-98744475D01*
X116629523Y-98744475D02*
X116439047Y-98839713D01*
X116439047Y-98839713D02*
X116058095Y-98934951D01*
X116058095Y-98934951D02*
X115772380Y-98934951D01*
X115772380Y-98934951D02*
X115391428Y-98839713D01*
X115391428Y-98839713D02*
X115200952Y-98744475D01*
X115200952Y-98744475D02*
X115010476Y-98553999D01*
X115010476Y-98553999D02*
X114915238Y-98268284D01*
X114915238Y-98268284D02*
X114915238Y-98077808D01*
X114915238Y-98077808D02*
X115010476Y-97792094D01*
X115010476Y-97792094D02*
X115105714Y-97696856D01*
X114915238Y-96458761D02*
X114915238Y-96077808D01*
X114915238Y-96077808D02*
X115010476Y-95887332D01*
X115010476Y-95887332D02*
X115200952Y-95696856D01*
X115200952Y-95696856D02*
X115581904Y-95601618D01*
X115581904Y-95601618D02*
X116248571Y-95601618D01*
X116248571Y-95601618D02*
X116629523Y-95696856D01*
X116629523Y-95696856D02*
X116820000Y-95887332D01*
X116820000Y-95887332D02*
X116915238Y-96077808D01*
X116915238Y-96077808D02*
X116915238Y-96458761D01*
X116915238Y-96458761D02*
X116820000Y-96649237D01*
X116820000Y-96649237D02*
X116629523Y-96839713D01*
X116629523Y-96839713D02*
X116248571Y-96934951D01*
X116248571Y-96934951D02*
X115581904Y-96934951D01*
X115581904Y-96934951D02*
X115200952Y-96839713D01*
X115200952Y-96839713D02*
X115010476Y-96649237D01*
X115010476Y-96649237D02*
X114915238Y-96458761D01*
X116915238Y-94744475D02*
X114915238Y-94744475D01*
X114915238Y-94744475D02*
X116915238Y-93601618D01*
X116915238Y-93601618D02*
X114915238Y-93601618D01*
X114915238Y-92934951D02*
X114915238Y-91792094D01*
X116915238Y-92363523D02*
X114915238Y-92363523D01*
X116915238Y-89982570D02*
X115962857Y-90649237D01*
X116915238Y-91125427D02*
X114915238Y-91125427D01*
X114915238Y-91125427D02*
X114915238Y-90363522D01*
X114915238Y-90363522D02*
X115010476Y-90173046D01*
X115010476Y-90173046D02*
X115105714Y-90077808D01*
X115105714Y-90077808D02*
X115296190Y-89982570D01*
X115296190Y-89982570D02*
X115581904Y-89982570D01*
X115581904Y-89982570D02*
X115772380Y-90077808D01*
X115772380Y-90077808D02*
X115867619Y-90173046D01*
X115867619Y-90173046D02*
X115962857Y-90363522D01*
X115962857Y-90363522D02*
X115962857Y-91125427D01*
X114915238Y-88744475D02*
X114915238Y-88363522D01*
X114915238Y-88363522D02*
X115010476Y-88173046D01*
X115010476Y-88173046D02*
X115200952Y-87982570D01*
X115200952Y-87982570D02*
X115581904Y-87887332D01*
X115581904Y-87887332D02*
X116248571Y-87887332D01*
X116248571Y-87887332D02*
X116629523Y-87982570D01*
X116629523Y-87982570D02*
X116820000Y-88173046D01*
X116820000Y-88173046D02*
X116915238Y-88363522D01*
X116915238Y-88363522D02*
X116915238Y-88744475D01*
X116915238Y-88744475D02*
X116820000Y-88934951D01*
X116820000Y-88934951D02*
X116629523Y-89125427D01*
X116629523Y-89125427D02*
X116248571Y-89220665D01*
X116248571Y-89220665D02*
X115581904Y-89220665D01*
X115581904Y-89220665D02*
X115200952Y-89125427D01*
X115200952Y-89125427D02*
X115010476Y-88934951D01*
X115010476Y-88934951D02*
X114915238Y-88744475D01*
X116915238Y-86077808D02*
X116915238Y-87030189D01*
X116915238Y-87030189D02*
X114915238Y-87030189D01*
X114915238Y-83887331D02*
X116534285Y-83887331D01*
X116534285Y-83887331D02*
X116724761Y-83792093D01*
X116724761Y-83792093D02*
X116820000Y-83696855D01*
X116820000Y-83696855D02*
X116915238Y-83506379D01*
X116915238Y-83506379D02*
X116915238Y-83125426D01*
X116915238Y-83125426D02*
X116820000Y-82934950D01*
X116820000Y-82934950D02*
X116724761Y-82839712D01*
X116724761Y-82839712D02*
X116534285Y-82744474D01*
X116534285Y-82744474D02*
X114915238Y-82744474D01*
X116915238Y-81792093D02*
X114915238Y-81792093D01*
X114915238Y-81792093D02*
X116915238Y-80649236D01*
X116915238Y-80649236D02*
X114915238Y-80649236D01*
X116915238Y-79696855D02*
X114915238Y-79696855D01*
X114915238Y-79030188D02*
X114915238Y-77887331D01*
X116915238Y-78458760D02*
X114915238Y-78458760D01*
D10*
%TO.C,R5*%
X149505333Y-94062619D02*
X149172000Y-93586428D01*
X148933905Y-94062619D02*
X148933905Y-93062619D01*
X148933905Y-93062619D02*
X149314857Y-93062619D01*
X149314857Y-93062619D02*
X149410095Y-93110238D01*
X149410095Y-93110238D02*
X149457714Y-93157857D01*
X149457714Y-93157857D02*
X149505333Y-93253095D01*
X149505333Y-93253095D02*
X149505333Y-93395952D01*
X149505333Y-93395952D02*
X149457714Y-93491190D01*
X149457714Y-93491190D02*
X149410095Y-93538809D01*
X149410095Y-93538809D02*
X149314857Y-93586428D01*
X149314857Y-93586428D02*
X148933905Y-93586428D01*
X150410095Y-93062619D02*
X149933905Y-93062619D01*
X149933905Y-93062619D02*
X149886286Y-93538809D01*
X149886286Y-93538809D02*
X149933905Y-93491190D01*
X149933905Y-93491190D02*
X150029143Y-93443571D01*
X150029143Y-93443571D02*
X150267238Y-93443571D01*
X150267238Y-93443571D02*
X150362476Y-93491190D01*
X150362476Y-93491190D02*
X150410095Y-93538809D01*
X150410095Y-93538809D02*
X150457714Y-93634047D01*
X150457714Y-93634047D02*
X150457714Y-93872142D01*
X150457714Y-93872142D02*
X150410095Y-93967380D01*
X150410095Y-93967380D02*
X150362476Y-94015000D01*
X150362476Y-94015000D02*
X150267238Y-94062619D01*
X150267238Y-94062619D02*
X150029143Y-94062619D01*
X150029143Y-94062619D02*
X149933905Y-94015000D01*
X149933905Y-94015000D02*
X149886286Y-93967380D01*
%TO.C,EPS_LED*%
X148775428Y-87823809D02*
X149108761Y-87823809D01*
X149251618Y-88347619D02*
X148775428Y-88347619D01*
X148775428Y-88347619D02*
X148775428Y-87347619D01*
X148775428Y-87347619D02*
X149251618Y-87347619D01*
X149680190Y-88347619D02*
X149680190Y-87347619D01*
X149680190Y-87347619D02*
X150061142Y-87347619D01*
X150061142Y-87347619D02*
X150156380Y-87395238D01*
X150156380Y-87395238D02*
X150203999Y-87442857D01*
X150203999Y-87442857D02*
X150251618Y-87538095D01*
X150251618Y-87538095D02*
X150251618Y-87680952D01*
X150251618Y-87680952D02*
X150203999Y-87776190D01*
X150203999Y-87776190D02*
X150156380Y-87823809D01*
X150156380Y-87823809D02*
X150061142Y-87871428D01*
X150061142Y-87871428D02*
X149680190Y-87871428D01*
X150632571Y-88300000D02*
X150775428Y-88347619D01*
X150775428Y-88347619D02*
X151013523Y-88347619D01*
X151013523Y-88347619D02*
X151108761Y-88300000D01*
X151108761Y-88300000D02*
X151156380Y-88252380D01*
X151156380Y-88252380D02*
X151203999Y-88157142D01*
X151203999Y-88157142D02*
X151203999Y-88061904D01*
X151203999Y-88061904D02*
X151156380Y-87966666D01*
X151156380Y-87966666D02*
X151108761Y-87919047D01*
X151108761Y-87919047D02*
X151013523Y-87871428D01*
X151013523Y-87871428D02*
X150823047Y-87823809D01*
X150823047Y-87823809D02*
X150727809Y-87776190D01*
X150727809Y-87776190D02*
X150680190Y-87728571D01*
X150680190Y-87728571D02*
X150632571Y-87633333D01*
X150632571Y-87633333D02*
X150632571Y-87538095D01*
X150632571Y-87538095D02*
X150680190Y-87442857D01*
X150680190Y-87442857D02*
X150727809Y-87395238D01*
X150727809Y-87395238D02*
X150823047Y-87347619D01*
X150823047Y-87347619D02*
X151061142Y-87347619D01*
X151061142Y-87347619D02*
X151203999Y-87395238D01*
X151394476Y-88442857D02*
X152156380Y-88442857D01*
X152870666Y-88347619D02*
X152394476Y-88347619D01*
X152394476Y-88347619D02*
X152394476Y-87347619D01*
X153204000Y-87823809D02*
X153537333Y-87823809D01*
X153680190Y-88347619D02*
X153204000Y-88347619D01*
X153204000Y-88347619D02*
X153204000Y-87347619D01*
X153204000Y-87347619D02*
X153680190Y-87347619D01*
X154108762Y-88347619D02*
X154108762Y-87347619D01*
X154108762Y-87347619D02*
X154346857Y-87347619D01*
X154346857Y-87347619D02*
X154489714Y-87395238D01*
X154489714Y-87395238D02*
X154584952Y-87490476D01*
X154584952Y-87490476D02*
X154632571Y-87585714D01*
X154632571Y-87585714D02*
X154680190Y-87776190D01*
X154680190Y-87776190D02*
X154680190Y-87919047D01*
X154680190Y-87919047D02*
X154632571Y-88109523D01*
X154632571Y-88109523D02*
X154584952Y-88204761D01*
X154584952Y-88204761D02*
X154489714Y-88300000D01*
X154489714Y-88300000D02*
X154346857Y-88347619D01*
X154346857Y-88347619D02*
X154108762Y-88347619D01*
%TO.C,STM32L476*%
X136311190Y-81314000D02*
X136454047Y-81361619D01*
X136454047Y-81361619D02*
X136692142Y-81361619D01*
X136692142Y-81361619D02*
X136787380Y-81314000D01*
X136787380Y-81314000D02*
X136834999Y-81266380D01*
X136834999Y-81266380D02*
X136882618Y-81171142D01*
X136882618Y-81171142D02*
X136882618Y-81075904D01*
X136882618Y-81075904D02*
X136834999Y-80980666D01*
X136834999Y-80980666D02*
X136787380Y-80933047D01*
X136787380Y-80933047D02*
X136692142Y-80885428D01*
X136692142Y-80885428D02*
X136501666Y-80837809D01*
X136501666Y-80837809D02*
X136406428Y-80790190D01*
X136406428Y-80790190D02*
X136358809Y-80742571D01*
X136358809Y-80742571D02*
X136311190Y-80647333D01*
X136311190Y-80647333D02*
X136311190Y-80552095D01*
X136311190Y-80552095D02*
X136358809Y-80456857D01*
X136358809Y-80456857D02*
X136406428Y-80409238D01*
X136406428Y-80409238D02*
X136501666Y-80361619D01*
X136501666Y-80361619D02*
X136739761Y-80361619D01*
X136739761Y-80361619D02*
X136882618Y-80409238D01*
X137168333Y-80361619D02*
X137739761Y-80361619D01*
X137454047Y-81361619D02*
X137454047Y-80361619D01*
X138073095Y-81361619D02*
X138073095Y-80361619D01*
X138073095Y-80361619D02*
X138406428Y-81075904D01*
X138406428Y-81075904D02*
X138739761Y-80361619D01*
X138739761Y-80361619D02*
X138739761Y-81361619D01*
X139120714Y-80361619D02*
X139739761Y-80361619D01*
X139739761Y-80361619D02*
X139406428Y-80742571D01*
X139406428Y-80742571D02*
X139549285Y-80742571D01*
X139549285Y-80742571D02*
X139644523Y-80790190D01*
X139644523Y-80790190D02*
X139692142Y-80837809D01*
X139692142Y-80837809D02*
X139739761Y-80933047D01*
X139739761Y-80933047D02*
X139739761Y-81171142D01*
X139739761Y-81171142D02*
X139692142Y-81266380D01*
X139692142Y-81266380D02*
X139644523Y-81314000D01*
X139644523Y-81314000D02*
X139549285Y-81361619D01*
X139549285Y-81361619D02*
X139263571Y-81361619D01*
X139263571Y-81361619D02*
X139168333Y-81314000D01*
X139168333Y-81314000D02*
X139120714Y-81266380D01*
X140120714Y-80456857D02*
X140168333Y-80409238D01*
X140168333Y-80409238D02*
X140263571Y-80361619D01*
X140263571Y-80361619D02*
X140501666Y-80361619D01*
X140501666Y-80361619D02*
X140596904Y-80409238D01*
X140596904Y-80409238D02*
X140644523Y-80456857D01*
X140644523Y-80456857D02*
X140692142Y-80552095D01*
X140692142Y-80552095D02*
X140692142Y-80647333D01*
X140692142Y-80647333D02*
X140644523Y-80790190D01*
X140644523Y-80790190D02*
X140073095Y-81361619D01*
X140073095Y-81361619D02*
X140692142Y-81361619D01*
X141596904Y-81361619D02*
X141120714Y-81361619D01*
X141120714Y-81361619D02*
X141120714Y-80361619D01*
X142358809Y-80694952D02*
X142358809Y-81361619D01*
X142120714Y-80314000D02*
X141882619Y-81028285D01*
X141882619Y-81028285D02*
X142501666Y-81028285D01*
X142787381Y-80361619D02*
X143454047Y-80361619D01*
X143454047Y-80361619D02*
X143025476Y-81361619D01*
X144263571Y-80361619D02*
X144073095Y-80361619D01*
X144073095Y-80361619D02*
X143977857Y-80409238D01*
X143977857Y-80409238D02*
X143930238Y-80456857D01*
X143930238Y-80456857D02*
X143835000Y-80599714D01*
X143835000Y-80599714D02*
X143787381Y-80790190D01*
X143787381Y-80790190D02*
X143787381Y-81171142D01*
X143787381Y-81171142D02*
X143835000Y-81266380D01*
X143835000Y-81266380D02*
X143882619Y-81314000D01*
X143882619Y-81314000D02*
X143977857Y-81361619D01*
X143977857Y-81361619D02*
X144168333Y-81361619D01*
X144168333Y-81361619D02*
X144263571Y-81314000D01*
X144263571Y-81314000D02*
X144311190Y-81266380D01*
X144311190Y-81266380D02*
X144358809Y-81171142D01*
X144358809Y-81171142D02*
X144358809Y-80933047D01*
X144358809Y-80933047D02*
X144311190Y-80837809D01*
X144311190Y-80837809D02*
X144263571Y-80790190D01*
X144263571Y-80790190D02*
X144168333Y-80742571D01*
X144168333Y-80742571D02*
X143977857Y-80742571D01*
X143977857Y-80742571D02*
X143882619Y-80790190D01*
X143882619Y-80790190D02*
X143835000Y-80837809D01*
X143835000Y-80837809D02*
X143787381Y-80933047D01*
%TO.C,C2*%
X125375333Y-86728380D02*
X125327714Y-86776000D01*
X125327714Y-86776000D02*
X125184857Y-86823619D01*
X125184857Y-86823619D02*
X125089619Y-86823619D01*
X125089619Y-86823619D02*
X124946762Y-86776000D01*
X124946762Y-86776000D02*
X124851524Y-86680761D01*
X124851524Y-86680761D02*
X124803905Y-86585523D01*
X124803905Y-86585523D02*
X124756286Y-86395047D01*
X124756286Y-86395047D02*
X124756286Y-86252190D01*
X124756286Y-86252190D02*
X124803905Y-86061714D01*
X124803905Y-86061714D02*
X124851524Y-85966476D01*
X124851524Y-85966476D02*
X124946762Y-85871238D01*
X124946762Y-85871238D02*
X125089619Y-85823619D01*
X125089619Y-85823619D02*
X125184857Y-85823619D01*
X125184857Y-85823619D02*
X125327714Y-85871238D01*
X125327714Y-85871238D02*
X125375333Y-85918857D01*
X125756286Y-85918857D02*
X125803905Y-85871238D01*
X125803905Y-85871238D02*
X125899143Y-85823619D01*
X125899143Y-85823619D02*
X126137238Y-85823619D01*
X126137238Y-85823619D02*
X126232476Y-85871238D01*
X126232476Y-85871238D02*
X126280095Y-85918857D01*
X126280095Y-85918857D02*
X126327714Y-86014095D01*
X126327714Y-86014095D02*
X126327714Y-86109333D01*
X126327714Y-86109333D02*
X126280095Y-86252190D01*
X126280095Y-86252190D02*
X125708667Y-86823619D01*
X125708667Y-86823619D02*
X126327714Y-86823619D01*
%TO.C,USB*%
X161999095Y-80761619D02*
X161999095Y-81571142D01*
X161999095Y-81571142D02*
X162046714Y-81666380D01*
X162046714Y-81666380D02*
X162094333Y-81714000D01*
X162094333Y-81714000D02*
X162189571Y-81761619D01*
X162189571Y-81761619D02*
X162380047Y-81761619D01*
X162380047Y-81761619D02*
X162475285Y-81714000D01*
X162475285Y-81714000D02*
X162522904Y-81666380D01*
X162522904Y-81666380D02*
X162570523Y-81571142D01*
X162570523Y-81571142D02*
X162570523Y-80761619D01*
X162999095Y-81714000D02*
X163141952Y-81761619D01*
X163141952Y-81761619D02*
X163380047Y-81761619D01*
X163380047Y-81761619D02*
X163475285Y-81714000D01*
X163475285Y-81714000D02*
X163522904Y-81666380D01*
X163522904Y-81666380D02*
X163570523Y-81571142D01*
X163570523Y-81571142D02*
X163570523Y-81475904D01*
X163570523Y-81475904D02*
X163522904Y-81380666D01*
X163522904Y-81380666D02*
X163475285Y-81333047D01*
X163475285Y-81333047D02*
X163380047Y-81285428D01*
X163380047Y-81285428D02*
X163189571Y-81237809D01*
X163189571Y-81237809D02*
X163094333Y-81190190D01*
X163094333Y-81190190D02*
X163046714Y-81142571D01*
X163046714Y-81142571D02*
X162999095Y-81047333D01*
X162999095Y-81047333D02*
X162999095Y-80952095D01*
X162999095Y-80952095D02*
X163046714Y-80856857D01*
X163046714Y-80856857D02*
X163094333Y-80809238D01*
X163094333Y-80809238D02*
X163189571Y-80761619D01*
X163189571Y-80761619D02*
X163427666Y-80761619D01*
X163427666Y-80761619D02*
X163570523Y-80809238D01*
X164332428Y-81237809D02*
X164475285Y-81285428D01*
X164475285Y-81285428D02*
X164522904Y-81333047D01*
X164522904Y-81333047D02*
X164570523Y-81428285D01*
X164570523Y-81428285D02*
X164570523Y-81571142D01*
X164570523Y-81571142D02*
X164522904Y-81666380D01*
X164522904Y-81666380D02*
X164475285Y-81714000D01*
X164475285Y-81714000D02*
X164380047Y-81761619D01*
X164380047Y-81761619D02*
X163999095Y-81761619D01*
X163999095Y-81761619D02*
X163999095Y-80761619D01*
X163999095Y-80761619D02*
X164332428Y-80761619D01*
X164332428Y-80761619D02*
X164427666Y-80809238D01*
X164427666Y-80809238D02*
X164475285Y-80856857D01*
X164475285Y-80856857D02*
X164522904Y-80952095D01*
X164522904Y-80952095D02*
X164522904Y-81047333D01*
X164522904Y-81047333D02*
X164475285Y-81142571D01*
X164475285Y-81142571D02*
X164427666Y-81190190D01*
X164427666Y-81190190D02*
X164332428Y-81237809D01*
X164332428Y-81237809D02*
X163999095Y-81237809D01*
%TO.C,C7*%
X132767380Y-101767666D02*
X132815000Y-101815285D01*
X132815000Y-101815285D02*
X132862619Y-101958142D01*
X132862619Y-101958142D02*
X132862619Y-102053380D01*
X132862619Y-102053380D02*
X132815000Y-102196237D01*
X132815000Y-102196237D02*
X132719761Y-102291475D01*
X132719761Y-102291475D02*
X132624523Y-102339094D01*
X132624523Y-102339094D02*
X132434047Y-102386713D01*
X132434047Y-102386713D02*
X132291190Y-102386713D01*
X132291190Y-102386713D02*
X132100714Y-102339094D01*
X132100714Y-102339094D02*
X132005476Y-102291475D01*
X132005476Y-102291475D02*
X131910238Y-102196237D01*
X131910238Y-102196237D02*
X131862619Y-102053380D01*
X131862619Y-102053380D02*
X131862619Y-101958142D01*
X131862619Y-101958142D02*
X131910238Y-101815285D01*
X131910238Y-101815285D02*
X131957857Y-101767666D01*
X131862619Y-101434332D02*
X131862619Y-100767666D01*
X131862619Y-100767666D02*
X132862619Y-101196237D01*
%TO.C,C5*%
X128510380Y-88812666D02*
X128558000Y-88860285D01*
X128558000Y-88860285D02*
X128605619Y-89003142D01*
X128605619Y-89003142D02*
X128605619Y-89098380D01*
X128605619Y-89098380D02*
X128558000Y-89241237D01*
X128558000Y-89241237D02*
X128462761Y-89336475D01*
X128462761Y-89336475D02*
X128367523Y-89384094D01*
X128367523Y-89384094D02*
X128177047Y-89431713D01*
X128177047Y-89431713D02*
X128034190Y-89431713D01*
X128034190Y-89431713D02*
X127843714Y-89384094D01*
X127843714Y-89384094D02*
X127748476Y-89336475D01*
X127748476Y-89336475D02*
X127653238Y-89241237D01*
X127653238Y-89241237D02*
X127605619Y-89098380D01*
X127605619Y-89098380D02*
X127605619Y-89003142D01*
X127605619Y-89003142D02*
X127653238Y-88860285D01*
X127653238Y-88860285D02*
X127700857Y-88812666D01*
X127605619Y-87907904D02*
X127605619Y-88384094D01*
X127605619Y-88384094D02*
X128081809Y-88431713D01*
X128081809Y-88431713D02*
X128034190Y-88384094D01*
X128034190Y-88384094D02*
X127986571Y-88288856D01*
X127986571Y-88288856D02*
X127986571Y-88050761D01*
X127986571Y-88050761D02*
X128034190Y-87955523D01*
X128034190Y-87955523D02*
X128081809Y-87907904D01*
X128081809Y-87907904D02*
X128177047Y-87860285D01*
X128177047Y-87860285D02*
X128415142Y-87860285D01*
X128415142Y-87860285D02*
X128510380Y-87907904D01*
X128510380Y-87907904D02*
X128558000Y-87955523D01*
X128558000Y-87955523D02*
X128605619Y-88050761D01*
X128605619Y-88050761D02*
X128605619Y-88288856D01*
X128605619Y-88288856D02*
X128558000Y-88384094D01*
X128558000Y-88384094D02*
X128510380Y-88431713D01*
%TO.C,C9*%
X150394333Y-82918380D02*
X150346714Y-82966000D01*
X150346714Y-82966000D02*
X150203857Y-83013619D01*
X150203857Y-83013619D02*
X150108619Y-83013619D01*
X150108619Y-83013619D02*
X149965762Y-82966000D01*
X149965762Y-82966000D02*
X149870524Y-82870761D01*
X149870524Y-82870761D02*
X149822905Y-82775523D01*
X149822905Y-82775523D02*
X149775286Y-82585047D01*
X149775286Y-82585047D02*
X149775286Y-82442190D01*
X149775286Y-82442190D02*
X149822905Y-82251714D01*
X149822905Y-82251714D02*
X149870524Y-82156476D01*
X149870524Y-82156476D02*
X149965762Y-82061238D01*
X149965762Y-82061238D02*
X150108619Y-82013619D01*
X150108619Y-82013619D02*
X150203857Y-82013619D01*
X150203857Y-82013619D02*
X150346714Y-82061238D01*
X150346714Y-82061238D02*
X150394333Y-82108857D01*
X150870524Y-83013619D02*
X151061000Y-83013619D01*
X151061000Y-83013619D02*
X151156238Y-82966000D01*
X151156238Y-82966000D02*
X151203857Y-82918380D01*
X151203857Y-82918380D02*
X151299095Y-82775523D01*
X151299095Y-82775523D02*
X151346714Y-82585047D01*
X151346714Y-82585047D02*
X151346714Y-82204095D01*
X151346714Y-82204095D02*
X151299095Y-82108857D01*
X151299095Y-82108857D02*
X151251476Y-82061238D01*
X151251476Y-82061238D02*
X151156238Y-82013619D01*
X151156238Y-82013619D02*
X150965762Y-82013619D01*
X150965762Y-82013619D02*
X150870524Y-82061238D01*
X150870524Y-82061238D02*
X150822905Y-82108857D01*
X150822905Y-82108857D02*
X150775286Y-82204095D01*
X150775286Y-82204095D02*
X150775286Y-82442190D01*
X150775286Y-82442190D02*
X150822905Y-82537428D01*
X150822905Y-82537428D02*
X150870524Y-82585047D01*
X150870524Y-82585047D02*
X150965762Y-82632666D01*
X150965762Y-82632666D02*
X151156238Y-82632666D01*
X151156238Y-82632666D02*
X151251476Y-82585047D01*
X151251476Y-82585047D02*
X151299095Y-82537428D01*
X151299095Y-82537428D02*
X151346714Y-82442190D01*
%TO.C,3V3*%
X152116905Y-110080619D02*
X152735952Y-110080619D01*
X152735952Y-110080619D02*
X152402619Y-110461571D01*
X152402619Y-110461571D02*
X152545476Y-110461571D01*
X152545476Y-110461571D02*
X152640714Y-110509190D01*
X152640714Y-110509190D02*
X152688333Y-110556809D01*
X152688333Y-110556809D02*
X152735952Y-110652047D01*
X152735952Y-110652047D02*
X152735952Y-110890142D01*
X152735952Y-110890142D02*
X152688333Y-110985380D01*
X152688333Y-110985380D02*
X152640714Y-111033000D01*
X152640714Y-111033000D02*
X152545476Y-111080619D01*
X152545476Y-111080619D02*
X152259762Y-111080619D01*
X152259762Y-111080619D02*
X152164524Y-111033000D01*
X152164524Y-111033000D02*
X152116905Y-110985380D01*
X153021667Y-110080619D02*
X153355000Y-111080619D01*
X153355000Y-111080619D02*
X153688333Y-110080619D01*
X153926429Y-110080619D02*
X154545476Y-110080619D01*
X154545476Y-110080619D02*
X154212143Y-110461571D01*
X154212143Y-110461571D02*
X154355000Y-110461571D01*
X154355000Y-110461571D02*
X154450238Y-110509190D01*
X154450238Y-110509190D02*
X154497857Y-110556809D01*
X154497857Y-110556809D02*
X154545476Y-110652047D01*
X154545476Y-110652047D02*
X154545476Y-110890142D01*
X154545476Y-110890142D02*
X154497857Y-110985380D01*
X154497857Y-110985380D02*
X154450238Y-111033000D01*
X154450238Y-111033000D02*
X154355000Y-111080619D01*
X154355000Y-111080619D02*
X154069286Y-111080619D01*
X154069286Y-111080619D02*
X153974048Y-111033000D01*
X153974048Y-111033000D02*
X153926429Y-110985380D01*
%TO.C,R8*%
X143663333Y-107397619D02*
X143330000Y-106921428D01*
X143091905Y-107397619D02*
X143091905Y-106397619D01*
X143091905Y-106397619D02*
X143472857Y-106397619D01*
X143472857Y-106397619D02*
X143568095Y-106445238D01*
X143568095Y-106445238D02*
X143615714Y-106492857D01*
X143615714Y-106492857D02*
X143663333Y-106588095D01*
X143663333Y-106588095D02*
X143663333Y-106730952D01*
X143663333Y-106730952D02*
X143615714Y-106826190D01*
X143615714Y-106826190D02*
X143568095Y-106873809D01*
X143568095Y-106873809D02*
X143472857Y-106921428D01*
X143472857Y-106921428D02*
X143091905Y-106921428D01*
X144234762Y-106826190D02*
X144139524Y-106778571D01*
X144139524Y-106778571D02*
X144091905Y-106730952D01*
X144091905Y-106730952D02*
X144044286Y-106635714D01*
X144044286Y-106635714D02*
X144044286Y-106588095D01*
X144044286Y-106588095D02*
X144091905Y-106492857D01*
X144091905Y-106492857D02*
X144139524Y-106445238D01*
X144139524Y-106445238D02*
X144234762Y-106397619D01*
X144234762Y-106397619D02*
X144425238Y-106397619D01*
X144425238Y-106397619D02*
X144520476Y-106445238D01*
X144520476Y-106445238D02*
X144568095Y-106492857D01*
X144568095Y-106492857D02*
X144615714Y-106588095D01*
X144615714Y-106588095D02*
X144615714Y-106635714D01*
X144615714Y-106635714D02*
X144568095Y-106730952D01*
X144568095Y-106730952D02*
X144520476Y-106778571D01*
X144520476Y-106778571D02*
X144425238Y-106826190D01*
X144425238Y-106826190D02*
X144234762Y-106826190D01*
X144234762Y-106826190D02*
X144139524Y-106873809D01*
X144139524Y-106873809D02*
X144091905Y-106921428D01*
X144091905Y-106921428D02*
X144044286Y-107016666D01*
X144044286Y-107016666D02*
X144044286Y-107207142D01*
X144044286Y-107207142D02*
X144091905Y-107302380D01*
X144091905Y-107302380D02*
X144139524Y-107350000D01*
X144139524Y-107350000D02*
X144234762Y-107397619D01*
X144234762Y-107397619D02*
X144425238Y-107397619D01*
X144425238Y-107397619D02*
X144520476Y-107350000D01*
X144520476Y-107350000D02*
X144568095Y-107302380D01*
X144568095Y-107302380D02*
X144615714Y-107207142D01*
X144615714Y-107207142D02*
X144615714Y-107016666D01*
X144615714Y-107016666D02*
X144568095Y-106921428D01*
X144568095Y-106921428D02*
X144520476Y-106873809D01*
X144520476Y-106873809D02*
X144425238Y-106826190D01*
%TO.C,U2*%
X163358619Y-95377904D02*
X164168142Y-95377904D01*
X164168142Y-95377904D02*
X164263380Y-95330285D01*
X164263380Y-95330285D02*
X164311000Y-95282666D01*
X164311000Y-95282666D02*
X164358619Y-95187428D01*
X164358619Y-95187428D02*
X164358619Y-94996952D01*
X164358619Y-94996952D02*
X164311000Y-94901714D01*
X164311000Y-94901714D02*
X164263380Y-94854095D01*
X164263380Y-94854095D02*
X164168142Y-94806476D01*
X164168142Y-94806476D02*
X163358619Y-94806476D01*
X163453857Y-94377904D02*
X163406238Y-94330285D01*
X163406238Y-94330285D02*
X163358619Y-94235047D01*
X163358619Y-94235047D02*
X163358619Y-93996952D01*
X163358619Y-93996952D02*
X163406238Y-93901714D01*
X163406238Y-93901714D02*
X163453857Y-93854095D01*
X163453857Y-93854095D02*
X163549095Y-93806476D01*
X163549095Y-93806476D02*
X163644333Y-93806476D01*
X163644333Y-93806476D02*
X163787190Y-93854095D01*
X163787190Y-93854095D02*
X164358619Y-94425523D01*
X164358619Y-94425523D02*
X164358619Y-93806476D01*
%TO.C,C11*%
X150426142Y-86093380D02*
X150378523Y-86141000D01*
X150378523Y-86141000D02*
X150235666Y-86188619D01*
X150235666Y-86188619D02*
X150140428Y-86188619D01*
X150140428Y-86188619D02*
X149997571Y-86141000D01*
X149997571Y-86141000D02*
X149902333Y-86045761D01*
X149902333Y-86045761D02*
X149854714Y-85950523D01*
X149854714Y-85950523D02*
X149807095Y-85760047D01*
X149807095Y-85760047D02*
X149807095Y-85617190D01*
X149807095Y-85617190D02*
X149854714Y-85426714D01*
X149854714Y-85426714D02*
X149902333Y-85331476D01*
X149902333Y-85331476D02*
X149997571Y-85236238D01*
X149997571Y-85236238D02*
X150140428Y-85188619D01*
X150140428Y-85188619D02*
X150235666Y-85188619D01*
X150235666Y-85188619D02*
X150378523Y-85236238D01*
X150378523Y-85236238D02*
X150426142Y-85283857D01*
X151378523Y-86188619D02*
X150807095Y-86188619D01*
X151092809Y-86188619D02*
X151092809Y-85188619D01*
X151092809Y-85188619D02*
X150997571Y-85331476D01*
X150997571Y-85331476D02*
X150902333Y-85426714D01*
X150902333Y-85426714D02*
X150807095Y-85474333D01*
X152330904Y-86188619D02*
X151759476Y-86188619D01*
X152045190Y-86188619D02*
X152045190Y-85188619D01*
X152045190Y-85188619D02*
X151949952Y-85331476D01*
X151949952Y-85331476D02*
X151854714Y-85426714D01*
X151854714Y-85426714D02*
X151759476Y-85474333D01*
%TO.C,R1*%
X128677333Y-80092619D02*
X128344000Y-79616428D01*
X128105905Y-80092619D02*
X128105905Y-79092619D01*
X128105905Y-79092619D02*
X128486857Y-79092619D01*
X128486857Y-79092619D02*
X128582095Y-79140238D01*
X128582095Y-79140238D02*
X128629714Y-79187857D01*
X128629714Y-79187857D02*
X128677333Y-79283095D01*
X128677333Y-79283095D02*
X128677333Y-79425952D01*
X128677333Y-79425952D02*
X128629714Y-79521190D01*
X128629714Y-79521190D02*
X128582095Y-79568809D01*
X128582095Y-79568809D02*
X128486857Y-79616428D01*
X128486857Y-79616428D02*
X128105905Y-79616428D01*
X129629714Y-80092619D02*
X129058286Y-80092619D01*
X129344000Y-80092619D02*
X129344000Y-79092619D01*
X129344000Y-79092619D02*
X129248762Y-79235476D01*
X129248762Y-79235476D02*
X129153524Y-79330714D01*
X129153524Y-79330714D02*
X129058286Y-79378333D01*
%TO.C,R2*%
X159205833Y-105239619D02*
X158872500Y-104763428D01*
X158634405Y-105239619D02*
X158634405Y-104239619D01*
X158634405Y-104239619D02*
X159015357Y-104239619D01*
X159015357Y-104239619D02*
X159110595Y-104287238D01*
X159110595Y-104287238D02*
X159158214Y-104334857D01*
X159158214Y-104334857D02*
X159205833Y-104430095D01*
X159205833Y-104430095D02*
X159205833Y-104572952D01*
X159205833Y-104572952D02*
X159158214Y-104668190D01*
X159158214Y-104668190D02*
X159110595Y-104715809D01*
X159110595Y-104715809D02*
X159015357Y-104763428D01*
X159015357Y-104763428D02*
X158634405Y-104763428D01*
X159586786Y-104334857D02*
X159634405Y-104287238D01*
X159634405Y-104287238D02*
X159729643Y-104239619D01*
X159729643Y-104239619D02*
X159967738Y-104239619D01*
X159967738Y-104239619D02*
X160062976Y-104287238D01*
X160062976Y-104287238D02*
X160110595Y-104334857D01*
X160110595Y-104334857D02*
X160158214Y-104430095D01*
X160158214Y-104430095D02*
X160158214Y-104525333D01*
X160158214Y-104525333D02*
X160110595Y-104668190D01*
X160110595Y-104668190D02*
X159539167Y-105239619D01*
X159539167Y-105239619D02*
X160158214Y-105239619D01*
%TO.C,C1*%
X125502333Y-77457380D02*
X125454714Y-77505000D01*
X125454714Y-77505000D02*
X125311857Y-77552619D01*
X125311857Y-77552619D02*
X125216619Y-77552619D01*
X125216619Y-77552619D02*
X125073762Y-77505000D01*
X125073762Y-77505000D02*
X124978524Y-77409761D01*
X124978524Y-77409761D02*
X124930905Y-77314523D01*
X124930905Y-77314523D02*
X124883286Y-77124047D01*
X124883286Y-77124047D02*
X124883286Y-76981190D01*
X124883286Y-76981190D02*
X124930905Y-76790714D01*
X124930905Y-76790714D02*
X124978524Y-76695476D01*
X124978524Y-76695476D02*
X125073762Y-76600238D01*
X125073762Y-76600238D02*
X125216619Y-76552619D01*
X125216619Y-76552619D02*
X125311857Y-76552619D01*
X125311857Y-76552619D02*
X125454714Y-76600238D01*
X125454714Y-76600238D02*
X125502333Y-76647857D01*
X126454714Y-77552619D02*
X125883286Y-77552619D01*
X126169000Y-77552619D02*
X126169000Y-76552619D01*
X126169000Y-76552619D02*
X126073762Y-76695476D01*
X126073762Y-76695476D02*
X125978524Y-76790714D01*
X125978524Y-76790714D02*
X125883286Y-76838333D01*
%TO.C,POW_LED*%
X153053762Y-108921619D02*
X153053762Y-107921619D01*
X153053762Y-107921619D02*
X153434714Y-107921619D01*
X153434714Y-107921619D02*
X153529952Y-107969238D01*
X153529952Y-107969238D02*
X153577571Y-108016857D01*
X153577571Y-108016857D02*
X153625190Y-108112095D01*
X153625190Y-108112095D02*
X153625190Y-108254952D01*
X153625190Y-108254952D02*
X153577571Y-108350190D01*
X153577571Y-108350190D02*
X153529952Y-108397809D01*
X153529952Y-108397809D02*
X153434714Y-108445428D01*
X153434714Y-108445428D02*
X153053762Y-108445428D01*
X154244238Y-107921619D02*
X154434714Y-107921619D01*
X154434714Y-107921619D02*
X154529952Y-107969238D01*
X154529952Y-107969238D02*
X154625190Y-108064476D01*
X154625190Y-108064476D02*
X154672809Y-108254952D01*
X154672809Y-108254952D02*
X154672809Y-108588285D01*
X154672809Y-108588285D02*
X154625190Y-108778761D01*
X154625190Y-108778761D02*
X154529952Y-108874000D01*
X154529952Y-108874000D02*
X154434714Y-108921619D01*
X154434714Y-108921619D02*
X154244238Y-108921619D01*
X154244238Y-108921619D02*
X154149000Y-108874000D01*
X154149000Y-108874000D02*
X154053762Y-108778761D01*
X154053762Y-108778761D02*
X154006143Y-108588285D01*
X154006143Y-108588285D02*
X154006143Y-108254952D01*
X154006143Y-108254952D02*
X154053762Y-108064476D01*
X154053762Y-108064476D02*
X154149000Y-107969238D01*
X154149000Y-107969238D02*
X154244238Y-107921619D01*
X155006143Y-107921619D02*
X155244238Y-108921619D01*
X155244238Y-108921619D02*
X155434714Y-108207333D01*
X155434714Y-108207333D02*
X155625190Y-108921619D01*
X155625190Y-108921619D02*
X155863286Y-107921619D01*
X156006143Y-109016857D02*
X156768047Y-109016857D01*
X157482333Y-108921619D02*
X157006143Y-108921619D01*
X157006143Y-108921619D02*
X157006143Y-107921619D01*
X157815667Y-108397809D02*
X158149000Y-108397809D01*
X158291857Y-108921619D02*
X157815667Y-108921619D01*
X157815667Y-108921619D02*
X157815667Y-107921619D01*
X157815667Y-107921619D02*
X158291857Y-107921619D01*
X158720429Y-108921619D02*
X158720429Y-107921619D01*
X158720429Y-107921619D02*
X158958524Y-107921619D01*
X158958524Y-107921619D02*
X159101381Y-107969238D01*
X159101381Y-107969238D02*
X159196619Y-108064476D01*
X159196619Y-108064476D02*
X159244238Y-108159714D01*
X159244238Y-108159714D02*
X159291857Y-108350190D01*
X159291857Y-108350190D02*
X159291857Y-108493047D01*
X159291857Y-108493047D02*
X159244238Y-108683523D01*
X159244238Y-108683523D02*
X159196619Y-108778761D01*
X159196619Y-108778761D02*
X159101381Y-108874000D01*
X159101381Y-108874000D02*
X158958524Y-108921619D01*
X158958524Y-108921619D02*
X158720429Y-108921619D01*
%TO.C,C6*%
X124905333Y-93797380D02*
X124857714Y-93845000D01*
X124857714Y-93845000D02*
X124714857Y-93892619D01*
X124714857Y-93892619D02*
X124619619Y-93892619D01*
X124619619Y-93892619D02*
X124476762Y-93845000D01*
X124476762Y-93845000D02*
X124381524Y-93749761D01*
X124381524Y-93749761D02*
X124333905Y-93654523D01*
X124333905Y-93654523D02*
X124286286Y-93464047D01*
X124286286Y-93464047D02*
X124286286Y-93321190D01*
X124286286Y-93321190D02*
X124333905Y-93130714D01*
X124333905Y-93130714D02*
X124381524Y-93035476D01*
X124381524Y-93035476D02*
X124476762Y-92940238D01*
X124476762Y-92940238D02*
X124619619Y-92892619D01*
X124619619Y-92892619D02*
X124714857Y-92892619D01*
X124714857Y-92892619D02*
X124857714Y-92940238D01*
X124857714Y-92940238D02*
X124905333Y-92987857D01*
X125762476Y-92892619D02*
X125572000Y-92892619D01*
X125572000Y-92892619D02*
X125476762Y-92940238D01*
X125476762Y-92940238D02*
X125429143Y-92987857D01*
X125429143Y-92987857D02*
X125333905Y-93130714D01*
X125333905Y-93130714D02*
X125286286Y-93321190D01*
X125286286Y-93321190D02*
X125286286Y-93702142D01*
X125286286Y-93702142D02*
X125333905Y-93797380D01*
X125333905Y-93797380D02*
X125381524Y-93845000D01*
X125381524Y-93845000D02*
X125476762Y-93892619D01*
X125476762Y-93892619D02*
X125667238Y-93892619D01*
X125667238Y-93892619D02*
X125762476Y-93845000D01*
X125762476Y-93845000D02*
X125810095Y-93797380D01*
X125810095Y-93797380D02*
X125857714Y-93702142D01*
X125857714Y-93702142D02*
X125857714Y-93464047D01*
X125857714Y-93464047D02*
X125810095Y-93368809D01*
X125810095Y-93368809D02*
X125762476Y-93321190D01*
X125762476Y-93321190D02*
X125667238Y-93273571D01*
X125667238Y-93273571D02*
X125476762Y-93273571D01*
X125476762Y-93273571D02*
X125381524Y-93321190D01*
X125381524Y-93321190D02*
X125333905Y-93368809D01*
X125333905Y-93368809D02*
X125286286Y-93464047D01*
%TO.C,R7*%
X139218333Y-107397619D02*
X138885000Y-106921428D01*
X138646905Y-107397619D02*
X138646905Y-106397619D01*
X138646905Y-106397619D02*
X139027857Y-106397619D01*
X139027857Y-106397619D02*
X139123095Y-106445238D01*
X139123095Y-106445238D02*
X139170714Y-106492857D01*
X139170714Y-106492857D02*
X139218333Y-106588095D01*
X139218333Y-106588095D02*
X139218333Y-106730952D01*
X139218333Y-106730952D02*
X139170714Y-106826190D01*
X139170714Y-106826190D02*
X139123095Y-106873809D01*
X139123095Y-106873809D02*
X139027857Y-106921428D01*
X139027857Y-106921428D02*
X138646905Y-106921428D01*
X139551667Y-106397619D02*
X140218333Y-106397619D01*
X140218333Y-106397619D02*
X139789762Y-107397619D01*
%TO.C,C4*%
X128550333Y-83299380D02*
X128502714Y-83347000D01*
X128502714Y-83347000D02*
X128359857Y-83394619D01*
X128359857Y-83394619D02*
X128264619Y-83394619D01*
X128264619Y-83394619D02*
X128121762Y-83347000D01*
X128121762Y-83347000D02*
X128026524Y-83251761D01*
X128026524Y-83251761D02*
X127978905Y-83156523D01*
X127978905Y-83156523D02*
X127931286Y-82966047D01*
X127931286Y-82966047D02*
X127931286Y-82823190D01*
X127931286Y-82823190D02*
X127978905Y-82632714D01*
X127978905Y-82632714D02*
X128026524Y-82537476D01*
X128026524Y-82537476D02*
X128121762Y-82442238D01*
X128121762Y-82442238D02*
X128264619Y-82394619D01*
X128264619Y-82394619D02*
X128359857Y-82394619D01*
X128359857Y-82394619D02*
X128502714Y-82442238D01*
X128502714Y-82442238D02*
X128550333Y-82489857D01*
X129407476Y-82727952D02*
X129407476Y-83394619D01*
X129169381Y-82347000D02*
X128931286Y-83061285D01*
X128931286Y-83061285D02*
X129550333Y-83061285D01*
%TO.C,C8*%
X145708333Y-102255380D02*
X145660714Y-102303000D01*
X145660714Y-102303000D02*
X145517857Y-102350619D01*
X145517857Y-102350619D02*
X145422619Y-102350619D01*
X145422619Y-102350619D02*
X145279762Y-102303000D01*
X145279762Y-102303000D02*
X145184524Y-102207761D01*
X145184524Y-102207761D02*
X145136905Y-102112523D01*
X145136905Y-102112523D02*
X145089286Y-101922047D01*
X145089286Y-101922047D02*
X145089286Y-101779190D01*
X145089286Y-101779190D02*
X145136905Y-101588714D01*
X145136905Y-101588714D02*
X145184524Y-101493476D01*
X145184524Y-101493476D02*
X145279762Y-101398238D01*
X145279762Y-101398238D02*
X145422619Y-101350619D01*
X145422619Y-101350619D02*
X145517857Y-101350619D01*
X145517857Y-101350619D02*
X145660714Y-101398238D01*
X145660714Y-101398238D02*
X145708333Y-101445857D01*
X146279762Y-101779190D02*
X146184524Y-101731571D01*
X146184524Y-101731571D02*
X146136905Y-101683952D01*
X146136905Y-101683952D02*
X146089286Y-101588714D01*
X146089286Y-101588714D02*
X146089286Y-101541095D01*
X146089286Y-101541095D02*
X146136905Y-101445857D01*
X146136905Y-101445857D02*
X146184524Y-101398238D01*
X146184524Y-101398238D02*
X146279762Y-101350619D01*
X146279762Y-101350619D02*
X146470238Y-101350619D01*
X146470238Y-101350619D02*
X146565476Y-101398238D01*
X146565476Y-101398238D02*
X146613095Y-101445857D01*
X146613095Y-101445857D02*
X146660714Y-101541095D01*
X146660714Y-101541095D02*
X146660714Y-101588714D01*
X146660714Y-101588714D02*
X146613095Y-101683952D01*
X146613095Y-101683952D02*
X146565476Y-101731571D01*
X146565476Y-101731571D02*
X146470238Y-101779190D01*
X146470238Y-101779190D02*
X146279762Y-101779190D01*
X146279762Y-101779190D02*
X146184524Y-101826809D01*
X146184524Y-101826809D02*
X146136905Y-101874428D01*
X146136905Y-101874428D02*
X146089286Y-101969666D01*
X146089286Y-101969666D02*
X146089286Y-102160142D01*
X146089286Y-102160142D02*
X146136905Y-102255380D01*
X146136905Y-102255380D02*
X146184524Y-102303000D01*
X146184524Y-102303000D02*
X146279762Y-102350619D01*
X146279762Y-102350619D02*
X146470238Y-102350619D01*
X146470238Y-102350619D02*
X146565476Y-102303000D01*
X146565476Y-102303000D02*
X146613095Y-102255380D01*
X146613095Y-102255380D02*
X146660714Y-102160142D01*
X146660714Y-102160142D02*
X146660714Y-101969666D01*
X146660714Y-101969666D02*
X146613095Y-101874428D01*
X146613095Y-101874428D02*
X146565476Y-101826809D01*
X146565476Y-101826809D02*
X146470238Y-101779190D01*
%TO.C,UART2*%
X121184571Y-108556619D02*
X121184571Y-109366142D01*
X121184571Y-109366142D02*
X121232190Y-109461380D01*
X121232190Y-109461380D02*
X121279809Y-109509000D01*
X121279809Y-109509000D02*
X121375047Y-109556619D01*
X121375047Y-109556619D02*
X121565523Y-109556619D01*
X121565523Y-109556619D02*
X121660761Y-109509000D01*
X121660761Y-109509000D02*
X121708380Y-109461380D01*
X121708380Y-109461380D02*
X121755999Y-109366142D01*
X121755999Y-109366142D02*
X121755999Y-108556619D01*
X122184571Y-109270904D02*
X122660761Y-109270904D01*
X122089333Y-109556619D02*
X122422666Y-108556619D01*
X122422666Y-108556619D02*
X122755999Y-109556619D01*
X123660761Y-109556619D02*
X123327428Y-109080428D01*
X123089333Y-109556619D02*
X123089333Y-108556619D01*
X123089333Y-108556619D02*
X123470285Y-108556619D01*
X123470285Y-108556619D02*
X123565523Y-108604238D01*
X123565523Y-108604238D02*
X123613142Y-108651857D01*
X123613142Y-108651857D02*
X123660761Y-108747095D01*
X123660761Y-108747095D02*
X123660761Y-108889952D01*
X123660761Y-108889952D02*
X123613142Y-108985190D01*
X123613142Y-108985190D02*
X123565523Y-109032809D01*
X123565523Y-109032809D02*
X123470285Y-109080428D01*
X123470285Y-109080428D02*
X123089333Y-109080428D01*
X123946476Y-108556619D02*
X124517904Y-108556619D01*
X124232190Y-109556619D02*
X124232190Y-108556619D01*
X124803619Y-108651857D02*
X124851238Y-108604238D01*
X124851238Y-108604238D02*
X124946476Y-108556619D01*
X124946476Y-108556619D02*
X125184571Y-108556619D01*
X125184571Y-108556619D02*
X125279809Y-108604238D01*
X125279809Y-108604238D02*
X125327428Y-108651857D01*
X125327428Y-108651857D02*
X125375047Y-108747095D01*
X125375047Y-108747095D02*
X125375047Y-108842333D01*
X125375047Y-108842333D02*
X125327428Y-108985190D01*
X125327428Y-108985190D02*
X124756000Y-109556619D01*
X124756000Y-109556619D02*
X125375047Y-109556619D01*
%TO.C,5V*%
X159194523Y-87346619D02*
X158718333Y-87346619D01*
X158718333Y-87346619D02*
X158670714Y-87822809D01*
X158670714Y-87822809D02*
X158718333Y-87775190D01*
X158718333Y-87775190D02*
X158813571Y-87727571D01*
X158813571Y-87727571D02*
X159051666Y-87727571D01*
X159051666Y-87727571D02*
X159146904Y-87775190D01*
X159146904Y-87775190D02*
X159194523Y-87822809D01*
X159194523Y-87822809D02*
X159242142Y-87918047D01*
X159242142Y-87918047D02*
X159242142Y-88156142D01*
X159242142Y-88156142D02*
X159194523Y-88251380D01*
X159194523Y-88251380D02*
X159146904Y-88299000D01*
X159146904Y-88299000D02*
X159051666Y-88346619D01*
X159051666Y-88346619D02*
X158813571Y-88346619D01*
X158813571Y-88346619D02*
X158718333Y-88299000D01*
X158718333Y-88299000D02*
X158670714Y-88251380D01*
X159527857Y-87346619D02*
X159861190Y-88346619D01*
X159861190Y-88346619D02*
X160194523Y-87346619D01*
%TO.C,R3*%
X139599333Y-77044619D02*
X139266000Y-76568428D01*
X139027905Y-77044619D02*
X139027905Y-76044619D01*
X139027905Y-76044619D02*
X139408857Y-76044619D01*
X139408857Y-76044619D02*
X139504095Y-76092238D01*
X139504095Y-76092238D02*
X139551714Y-76139857D01*
X139551714Y-76139857D02*
X139599333Y-76235095D01*
X139599333Y-76235095D02*
X139599333Y-76377952D01*
X139599333Y-76377952D02*
X139551714Y-76473190D01*
X139551714Y-76473190D02*
X139504095Y-76520809D01*
X139504095Y-76520809D02*
X139408857Y-76568428D01*
X139408857Y-76568428D02*
X139027905Y-76568428D01*
X139932667Y-76044619D02*
X140551714Y-76044619D01*
X140551714Y-76044619D02*
X140218381Y-76425571D01*
X140218381Y-76425571D02*
X140361238Y-76425571D01*
X140361238Y-76425571D02*
X140456476Y-76473190D01*
X140456476Y-76473190D02*
X140504095Y-76520809D01*
X140504095Y-76520809D02*
X140551714Y-76616047D01*
X140551714Y-76616047D02*
X140551714Y-76854142D01*
X140551714Y-76854142D02*
X140504095Y-76949380D01*
X140504095Y-76949380D02*
X140456476Y-76997000D01*
X140456476Y-76997000D02*
X140361238Y-77044619D01*
X140361238Y-77044619D02*
X140075524Y-77044619D01*
X140075524Y-77044619D02*
X139980286Y-76997000D01*
X139980286Y-76997000D02*
X139932667Y-76949380D01*
%TO.C,C10*%
X130868142Y-79997380D02*
X130820523Y-80045000D01*
X130820523Y-80045000D02*
X130677666Y-80092619D01*
X130677666Y-80092619D02*
X130582428Y-80092619D01*
X130582428Y-80092619D02*
X130439571Y-80045000D01*
X130439571Y-80045000D02*
X130344333Y-79949761D01*
X130344333Y-79949761D02*
X130296714Y-79854523D01*
X130296714Y-79854523D02*
X130249095Y-79664047D01*
X130249095Y-79664047D02*
X130249095Y-79521190D01*
X130249095Y-79521190D02*
X130296714Y-79330714D01*
X130296714Y-79330714D02*
X130344333Y-79235476D01*
X130344333Y-79235476D02*
X130439571Y-79140238D01*
X130439571Y-79140238D02*
X130582428Y-79092619D01*
X130582428Y-79092619D02*
X130677666Y-79092619D01*
X130677666Y-79092619D02*
X130820523Y-79140238D01*
X130820523Y-79140238D02*
X130868142Y-79187857D01*
X131820523Y-80092619D02*
X131249095Y-80092619D01*
X131534809Y-80092619D02*
X131534809Y-79092619D01*
X131534809Y-79092619D02*
X131439571Y-79235476D01*
X131439571Y-79235476D02*
X131344333Y-79330714D01*
X131344333Y-79330714D02*
X131249095Y-79378333D01*
X132439571Y-79092619D02*
X132534809Y-79092619D01*
X132534809Y-79092619D02*
X132630047Y-79140238D01*
X132630047Y-79140238D02*
X132677666Y-79187857D01*
X132677666Y-79187857D02*
X132725285Y-79283095D01*
X132725285Y-79283095D02*
X132772904Y-79473571D01*
X132772904Y-79473571D02*
X132772904Y-79711666D01*
X132772904Y-79711666D02*
X132725285Y-79902142D01*
X132725285Y-79902142D02*
X132677666Y-79997380D01*
X132677666Y-79997380D02*
X132630047Y-80045000D01*
X132630047Y-80045000D02*
X132534809Y-80092619D01*
X132534809Y-80092619D02*
X132439571Y-80092619D01*
X132439571Y-80092619D02*
X132344333Y-80045000D01*
X132344333Y-80045000D02*
X132296714Y-79997380D01*
X132296714Y-79997380D02*
X132249095Y-79902142D01*
X132249095Y-79902142D02*
X132201476Y-79711666D01*
X132201476Y-79711666D02*
X132201476Y-79473571D01*
X132201476Y-79473571D02*
X132249095Y-79283095D01*
X132249095Y-79283095D02*
X132296714Y-79187857D01*
X132296714Y-79187857D02*
X132344333Y-79140238D01*
X132344333Y-79140238D02*
X132439571Y-79092619D01*
%TO.C,R4*%
X131217333Y-78441619D02*
X130884000Y-77965428D01*
X130645905Y-78441619D02*
X130645905Y-77441619D01*
X130645905Y-77441619D02*
X131026857Y-77441619D01*
X131026857Y-77441619D02*
X131122095Y-77489238D01*
X131122095Y-77489238D02*
X131169714Y-77536857D01*
X131169714Y-77536857D02*
X131217333Y-77632095D01*
X131217333Y-77632095D02*
X131217333Y-77774952D01*
X131217333Y-77774952D02*
X131169714Y-77870190D01*
X131169714Y-77870190D02*
X131122095Y-77917809D01*
X131122095Y-77917809D02*
X131026857Y-77965428D01*
X131026857Y-77965428D02*
X130645905Y-77965428D01*
X132074476Y-77774952D02*
X132074476Y-78441619D01*
X131836381Y-77394000D02*
X131598286Y-78108285D01*
X131598286Y-78108285D02*
X132217333Y-78108285D01*
%TO.C,C12*%
X126169142Y-95491380D02*
X126121523Y-95539000D01*
X126121523Y-95539000D02*
X125978666Y-95586619D01*
X125978666Y-95586619D02*
X125883428Y-95586619D01*
X125883428Y-95586619D02*
X125740571Y-95539000D01*
X125740571Y-95539000D02*
X125645333Y-95443761D01*
X125645333Y-95443761D02*
X125597714Y-95348523D01*
X125597714Y-95348523D02*
X125550095Y-95158047D01*
X125550095Y-95158047D02*
X125550095Y-95015190D01*
X125550095Y-95015190D02*
X125597714Y-94824714D01*
X125597714Y-94824714D02*
X125645333Y-94729476D01*
X125645333Y-94729476D02*
X125740571Y-94634238D01*
X125740571Y-94634238D02*
X125883428Y-94586619D01*
X125883428Y-94586619D02*
X125978666Y-94586619D01*
X125978666Y-94586619D02*
X126121523Y-94634238D01*
X126121523Y-94634238D02*
X126169142Y-94681857D01*
X127121523Y-95586619D02*
X126550095Y-95586619D01*
X126835809Y-95586619D02*
X126835809Y-94586619D01*
X126835809Y-94586619D02*
X126740571Y-94729476D01*
X126740571Y-94729476D02*
X126645333Y-94824714D01*
X126645333Y-94824714D02*
X126550095Y-94872333D01*
X127502476Y-94681857D02*
X127550095Y-94634238D01*
X127550095Y-94634238D02*
X127645333Y-94586619D01*
X127645333Y-94586619D02*
X127883428Y-94586619D01*
X127883428Y-94586619D02*
X127978666Y-94634238D01*
X127978666Y-94634238D02*
X128026285Y-94681857D01*
X128026285Y-94681857D02*
X128073904Y-94777095D01*
X128073904Y-94777095D02*
X128073904Y-94872333D01*
X128073904Y-94872333D02*
X128026285Y-95015190D01*
X128026285Y-95015190D02*
X127454857Y-95586619D01*
X127454857Y-95586619D02*
X128073904Y-95586619D01*
%TO.C,C16*%
X164269142Y-101079380D02*
X164221523Y-101127000D01*
X164221523Y-101127000D02*
X164078666Y-101174619D01*
X164078666Y-101174619D02*
X163983428Y-101174619D01*
X163983428Y-101174619D02*
X163840571Y-101127000D01*
X163840571Y-101127000D02*
X163745333Y-101031761D01*
X163745333Y-101031761D02*
X163697714Y-100936523D01*
X163697714Y-100936523D02*
X163650095Y-100746047D01*
X163650095Y-100746047D02*
X163650095Y-100603190D01*
X163650095Y-100603190D02*
X163697714Y-100412714D01*
X163697714Y-100412714D02*
X163745333Y-100317476D01*
X163745333Y-100317476D02*
X163840571Y-100222238D01*
X163840571Y-100222238D02*
X163983428Y-100174619D01*
X163983428Y-100174619D02*
X164078666Y-100174619D01*
X164078666Y-100174619D02*
X164221523Y-100222238D01*
X164221523Y-100222238D02*
X164269142Y-100269857D01*
X165221523Y-101174619D02*
X164650095Y-101174619D01*
X164935809Y-101174619D02*
X164935809Y-100174619D01*
X164935809Y-100174619D02*
X164840571Y-100317476D01*
X164840571Y-100317476D02*
X164745333Y-100412714D01*
X164745333Y-100412714D02*
X164650095Y-100460333D01*
X166078666Y-100174619D02*
X165888190Y-100174619D01*
X165888190Y-100174619D02*
X165792952Y-100222238D01*
X165792952Y-100222238D02*
X165745333Y-100269857D01*
X165745333Y-100269857D02*
X165650095Y-100412714D01*
X165650095Y-100412714D02*
X165602476Y-100603190D01*
X165602476Y-100603190D02*
X165602476Y-100984142D01*
X165602476Y-100984142D02*
X165650095Y-101079380D01*
X165650095Y-101079380D02*
X165697714Y-101127000D01*
X165697714Y-101127000D02*
X165792952Y-101174619D01*
X165792952Y-101174619D02*
X165983428Y-101174619D01*
X165983428Y-101174619D02*
X166078666Y-101127000D01*
X166078666Y-101127000D02*
X166126285Y-101079380D01*
X166126285Y-101079380D02*
X166173904Y-100984142D01*
X166173904Y-100984142D02*
X166173904Y-100746047D01*
X166173904Y-100746047D02*
X166126285Y-100650809D01*
X166126285Y-100650809D02*
X166078666Y-100603190D01*
X166078666Y-100603190D02*
X165983428Y-100555571D01*
X165983428Y-100555571D02*
X165792952Y-100555571D01*
X165792952Y-100555571D02*
X165697714Y-100603190D01*
X165697714Y-100603190D02*
X165650095Y-100650809D01*
X165650095Y-100650809D02*
X165602476Y-100746047D01*
%TO.C,C13*%
X124899142Y-97269380D02*
X124851523Y-97317000D01*
X124851523Y-97317000D02*
X124708666Y-97364619D01*
X124708666Y-97364619D02*
X124613428Y-97364619D01*
X124613428Y-97364619D02*
X124470571Y-97317000D01*
X124470571Y-97317000D02*
X124375333Y-97221761D01*
X124375333Y-97221761D02*
X124327714Y-97126523D01*
X124327714Y-97126523D02*
X124280095Y-96936047D01*
X124280095Y-96936047D02*
X124280095Y-96793190D01*
X124280095Y-96793190D02*
X124327714Y-96602714D01*
X124327714Y-96602714D02*
X124375333Y-96507476D01*
X124375333Y-96507476D02*
X124470571Y-96412238D01*
X124470571Y-96412238D02*
X124613428Y-96364619D01*
X124613428Y-96364619D02*
X124708666Y-96364619D01*
X124708666Y-96364619D02*
X124851523Y-96412238D01*
X124851523Y-96412238D02*
X124899142Y-96459857D01*
X125851523Y-97364619D02*
X125280095Y-97364619D01*
X125565809Y-97364619D02*
X125565809Y-96364619D01*
X125565809Y-96364619D02*
X125470571Y-96507476D01*
X125470571Y-96507476D02*
X125375333Y-96602714D01*
X125375333Y-96602714D02*
X125280095Y-96650333D01*
X126184857Y-96364619D02*
X126803904Y-96364619D01*
X126803904Y-96364619D02*
X126470571Y-96745571D01*
X126470571Y-96745571D02*
X126613428Y-96745571D01*
X126613428Y-96745571D02*
X126708666Y-96793190D01*
X126708666Y-96793190D02*
X126756285Y-96840809D01*
X126756285Y-96840809D02*
X126803904Y-96936047D01*
X126803904Y-96936047D02*
X126803904Y-97174142D01*
X126803904Y-97174142D02*
X126756285Y-97269380D01*
X126756285Y-97269380D02*
X126708666Y-97317000D01*
X126708666Y-97317000D02*
X126613428Y-97364619D01*
X126613428Y-97364619D02*
X126327714Y-97364619D01*
X126327714Y-97364619D02*
X126232476Y-97317000D01*
X126232476Y-97317000D02*
X126184857Y-97269380D01*
%TO.C,3V3*%
X165771619Y-104363094D02*
X165771619Y-103744047D01*
X165771619Y-103744047D02*
X166152571Y-104077380D01*
X166152571Y-104077380D02*
X166152571Y-103934523D01*
X166152571Y-103934523D02*
X166200190Y-103839285D01*
X166200190Y-103839285D02*
X166247809Y-103791666D01*
X166247809Y-103791666D02*
X166343047Y-103744047D01*
X166343047Y-103744047D02*
X166581142Y-103744047D01*
X166581142Y-103744047D02*
X166676380Y-103791666D01*
X166676380Y-103791666D02*
X166724000Y-103839285D01*
X166724000Y-103839285D02*
X166771619Y-103934523D01*
X166771619Y-103934523D02*
X166771619Y-104220237D01*
X166771619Y-104220237D02*
X166724000Y-104315475D01*
X166724000Y-104315475D02*
X166676380Y-104363094D01*
X165771619Y-103458332D02*
X166771619Y-103124999D01*
X166771619Y-103124999D02*
X165771619Y-102791666D01*
X165771619Y-102553570D02*
X165771619Y-101934523D01*
X165771619Y-101934523D02*
X166152571Y-102267856D01*
X166152571Y-102267856D02*
X166152571Y-102124999D01*
X166152571Y-102124999D02*
X166200190Y-102029761D01*
X166200190Y-102029761D02*
X166247809Y-101982142D01*
X166247809Y-101982142D02*
X166343047Y-101934523D01*
X166343047Y-101934523D02*
X166581142Y-101934523D01*
X166581142Y-101934523D02*
X166676380Y-101982142D01*
X166676380Y-101982142D02*
X166724000Y-102029761D01*
X166724000Y-102029761D02*
X166771619Y-102124999D01*
X166771619Y-102124999D02*
X166771619Y-102410713D01*
X166771619Y-102410713D02*
X166724000Y-102505951D01*
X166724000Y-102505951D02*
X166676380Y-102553570D01*
%TO.C,SW1*%
X125957000Y-84772332D02*
X126004619Y-84629475D01*
X126004619Y-84629475D02*
X126004619Y-84391380D01*
X126004619Y-84391380D02*
X125957000Y-84296142D01*
X125957000Y-84296142D02*
X125909380Y-84248523D01*
X125909380Y-84248523D02*
X125814142Y-84200904D01*
X125814142Y-84200904D02*
X125718904Y-84200904D01*
X125718904Y-84200904D02*
X125623666Y-84248523D01*
X125623666Y-84248523D02*
X125576047Y-84296142D01*
X125576047Y-84296142D02*
X125528428Y-84391380D01*
X125528428Y-84391380D02*
X125480809Y-84581856D01*
X125480809Y-84581856D02*
X125433190Y-84677094D01*
X125433190Y-84677094D02*
X125385571Y-84724713D01*
X125385571Y-84724713D02*
X125290333Y-84772332D01*
X125290333Y-84772332D02*
X125195095Y-84772332D01*
X125195095Y-84772332D02*
X125099857Y-84724713D01*
X125099857Y-84724713D02*
X125052238Y-84677094D01*
X125052238Y-84677094D02*
X125004619Y-84581856D01*
X125004619Y-84581856D02*
X125004619Y-84343761D01*
X125004619Y-84343761D02*
X125052238Y-84200904D01*
X125004619Y-83867570D02*
X126004619Y-83629475D01*
X126004619Y-83629475D02*
X125290333Y-83438999D01*
X125290333Y-83438999D02*
X126004619Y-83248523D01*
X126004619Y-83248523D02*
X125004619Y-83010428D01*
X126004619Y-82105666D02*
X126004619Y-82677094D01*
X126004619Y-82391380D02*
X125004619Y-82391380D01*
X125004619Y-82391380D02*
X125147476Y-82486618D01*
X125147476Y-82486618D02*
X125242714Y-82581856D01*
X125242714Y-82581856D02*
X125290333Y-82677094D01*
%TO.C,C14*%
X124899142Y-102603380D02*
X124851523Y-102651000D01*
X124851523Y-102651000D02*
X124708666Y-102698619D01*
X124708666Y-102698619D02*
X124613428Y-102698619D01*
X124613428Y-102698619D02*
X124470571Y-102651000D01*
X124470571Y-102651000D02*
X124375333Y-102555761D01*
X124375333Y-102555761D02*
X124327714Y-102460523D01*
X124327714Y-102460523D02*
X124280095Y-102270047D01*
X124280095Y-102270047D02*
X124280095Y-102127190D01*
X124280095Y-102127190D02*
X124327714Y-101936714D01*
X124327714Y-101936714D02*
X124375333Y-101841476D01*
X124375333Y-101841476D02*
X124470571Y-101746238D01*
X124470571Y-101746238D02*
X124613428Y-101698619D01*
X124613428Y-101698619D02*
X124708666Y-101698619D01*
X124708666Y-101698619D02*
X124851523Y-101746238D01*
X124851523Y-101746238D02*
X124899142Y-101793857D01*
X125851523Y-102698619D02*
X125280095Y-102698619D01*
X125565809Y-102698619D02*
X125565809Y-101698619D01*
X125565809Y-101698619D02*
X125470571Y-101841476D01*
X125470571Y-101841476D02*
X125375333Y-101936714D01*
X125375333Y-101936714D02*
X125280095Y-101984333D01*
X126708666Y-102031952D02*
X126708666Y-102698619D01*
X126470571Y-101651000D02*
X126232476Y-102365285D01*
X126232476Y-102365285D02*
X126851523Y-102365285D01*
%TO.C,GND*%
X165565238Y-107188904D02*
X165517619Y-107284142D01*
X165517619Y-107284142D02*
X165517619Y-107426999D01*
X165517619Y-107426999D02*
X165565238Y-107569856D01*
X165565238Y-107569856D02*
X165660476Y-107665094D01*
X165660476Y-107665094D02*
X165755714Y-107712713D01*
X165755714Y-107712713D02*
X165946190Y-107760332D01*
X165946190Y-107760332D02*
X166089047Y-107760332D01*
X166089047Y-107760332D02*
X166279523Y-107712713D01*
X166279523Y-107712713D02*
X166374761Y-107665094D01*
X166374761Y-107665094D02*
X166470000Y-107569856D01*
X166470000Y-107569856D02*
X166517619Y-107426999D01*
X166517619Y-107426999D02*
X166517619Y-107331761D01*
X166517619Y-107331761D02*
X166470000Y-107188904D01*
X166470000Y-107188904D02*
X166422380Y-107141285D01*
X166422380Y-107141285D02*
X166089047Y-107141285D01*
X166089047Y-107141285D02*
X166089047Y-107331761D01*
X166517619Y-106712713D02*
X165517619Y-106712713D01*
X165517619Y-106712713D02*
X166517619Y-106141285D01*
X166517619Y-106141285D02*
X165517619Y-106141285D01*
X166517619Y-105665094D02*
X165517619Y-105665094D01*
X165517619Y-105665094D02*
X165517619Y-105426999D01*
X165517619Y-105426999D02*
X165565238Y-105284142D01*
X165565238Y-105284142D02*
X165660476Y-105188904D01*
X165660476Y-105188904D02*
X165755714Y-105141285D01*
X165755714Y-105141285D02*
X165946190Y-105093666D01*
X165946190Y-105093666D02*
X166089047Y-105093666D01*
X166089047Y-105093666D02*
X166279523Y-105141285D01*
X166279523Y-105141285D02*
X166374761Y-105188904D01*
X166374761Y-105188904D02*
X166470000Y-105284142D01*
X166470000Y-105284142D02*
X166517619Y-105426999D01*
X166517619Y-105426999D02*
X166517619Y-105665094D01*
%TO.C,JP1*%
X151074666Y-100782617D02*
X151074666Y-101496902D01*
X151074666Y-101496902D02*
X151027047Y-101639759D01*
X151027047Y-101639759D02*
X150931809Y-101734998D01*
X150931809Y-101734998D02*
X150788952Y-101782617D01*
X150788952Y-101782617D02*
X150693714Y-101782617D01*
X151550857Y-101782617D02*
X151550857Y-100782617D01*
X151550857Y-100782617D02*
X151931809Y-100782617D01*
X151931809Y-100782617D02*
X152027047Y-100830236D01*
X152027047Y-100830236D02*
X152074666Y-100877855D01*
X152074666Y-100877855D02*
X152122285Y-100973093D01*
X152122285Y-100973093D02*
X152122285Y-101115950D01*
X152122285Y-101115950D02*
X152074666Y-101211188D01*
X152074666Y-101211188D02*
X152027047Y-101258807D01*
X152027047Y-101258807D02*
X151931809Y-101306426D01*
X151931809Y-101306426D02*
X151550857Y-101306426D01*
X153074666Y-101782617D02*
X152503238Y-101782617D01*
X152788952Y-101782617D02*
X152788952Y-100782617D01*
X152788952Y-100782617D02*
X152693714Y-100925474D01*
X152693714Y-100925474D02*
X152598476Y-101020712D01*
X152598476Y-101020712D02*
X152503238Y-101068331D01*
%TO.C,C15*%
X158427142Y-91935380D02*
X158379523Y-91983000D01*
X158379523Y-91983000D02*
X158236666Y-92030619D01*
X158236666Y-92030619D02*
X158141428Y-92030619D01*
X158141428Y-92030619D02*
X157998571Y-91983000D01*
X157998571Y-91983000D02*
X157903333Y-91887761D01*
X157903333Y-91887761D02*
X157855714Y-91792523D01*
X157855714Y-91792523D02*
X157808095Y-91602047D01*
X157808095Y-91602047D02*
X157808095Y-91459190D01*
X157808095Y-91459190D02*
X157855714Y-91268714D01*
X157855714Y-91268714D02*
X157903333Y-91173476D01*
X157903333Y-91173476D02*
X157998571Y-91078238D01*
X157998571Y-91078238D02*
X158141428Y-91030619D01*
X158141428Y-91030619D02*
X158236666Y-91030619D01*
X158236666Y-91030619D02*
X158379523Y-91078238D01*
X158379523Y-91078238D02*
X158427142Y-91125857D01*
X159379523Y-92030619D02*
X158808095Y-92030619D01*
X159093809Y-92030619D02*
X159093809Y-91030619D01*
X159093809Y-91030619D02*
X158998571Y-91173476D01*
X158998571Y-91173476D02*
X158903333Y-91268714D01*
X158903333Y-91268714D02*
X158808095Y-91316333D01*
X160284285Y-91030619D02*
X159808095Y-91030619D01*
X159808095Y-91030619D02*
X159760476Y-91506809D01*
X159760476Y-91506809D02*
X159808095Y-91459190D01*
X159808095Y-91459190D02*
X159903333Y-91411571D01*
X159903333Y-91411571D02*
X160141428Y-91411571D01*
X160141428Y-91411571D02*
X160236666Y-91459190D01*
X160236666Y-91459190D02*
X160284285Y-91506809D01*
X160284285Y-91506809D02*
X160331904Y-91602047D01*
X160331904Y-91602047D02*
X160331904Y-91840142D01*
X160331904Y-91840142D02*
X160284285Y-91935380D01*
X160284285Y-91935380D02*
X160236666Y-91983000D01*
X160236666Y-91983000D02*
X160141428Y-92030619D01*
X160141428Y-92030619D02*
X159903333Y-92030619D01*
X159903333Y-92030619D02*
X159808095Y-91983000D01*
X159808095Y-91983000D02*
X159760476Y-91935380D01*
%TO.C,120R1*%
X131084619Y-101084857D02*
X131084619Y-101656285D01*
X131084619Y-101370571D02*
X130084619Y-101370571D01*
X130084619Y-101370571D02*
X130227476Y-101465809D01*
X130227476Y-101465809D02*
X130322714Y-101561047D01*
X130322714Y-101561047D02*
X130370333Y-101656285D01*
X130179857Y-100703904D02*
X130132238Y-100656285D01*
X130132238Y-100656285D02*
X130084619Y-100561047D01*
X130084619Y-100561047D02*
X130084619Y-100322952D01*
X130084619Y-100322952D02*
X130132238Y-100227714D01*
X130132238Y-100227714D02*
X130179857Y-100180095D01*
X130179857Y-100180095D02*
X130275095Y-100132476D01*
X130275095Y-100132476D02*
X130370333Y-100132476D01*
X130370333Y-100132476D02*
X130513190Y-100180095D01*
X130513190Y-100180095D02*
X131084619Y-100751523D01*
X131084619Y-100751523D02*
X131084619Y-100132476D01*
X130084619Y-99513428D02*
X130084619Y-99418190D01*
X130084619Y-99418190D02*
X130132238Y-99322952D01*
X130132238Y-99322952D02*
X130179857Y-99275333D01*
X130179857Y-99275333D02*
X130275095Y-99227714D01*
X130275095Y-99227714D02*
X130465571Y-99180095D01*
X130465571Y-99180095D02*
X130703666Y-99180095D01*
X130703666Y-99180095D02*
X130894142Y-99227714D01*
X130894142Y-99227714D02*
X130989380Y-99275333D01*
X130989380Y-99275333D02*
X131037000Y-99322952D01*
X131037000Y-99322952D02*
X131084619Y-99418190D01*
X131084619Y-99418190D02*
X131084619Y-99513428D01*
X131084619Y-99513428D02*
X131037000Y-99608666D01*
X131037000Y-99608666D02*
X130989380Y-99656285D01*
X130989380Y-99656285D02*
X130894142Y-99703904D01*
X130894142Y-99703904D02*
X130703666Y-99751523D01*
X130703666Y-99751523D02*
X130465571Y-99751523D01*
X130465571Y-99751523D02*
X130275095Y-99703904D01*
X130275095Y-99703904D02*
X130179857Y-99656285D01*
X130179857Y-99656285D02*
X130132238Y-99608666D01*
X130132238Y-99608666D02*
X130084619Y-99513428D01*
X131084619Y-98180095D02*
X130608428Y-98513428D01*
X131084619Y-98751523D02*
X130084619Y-98751523D01*
X130084619Y-98751523D02*
X130084619Y-98370571D01*
X130084619Y-98370571D02*
X130132238Y-98275333D01*
X130132238Y-98275333D02*
X130179857Y-98227714D01*
X130179857Y-98227714D02*
X130275095Y-98180095D01*
X130275095Y-98180095D02*
X130417952Y-98180095D01*
X130417952Y-98180095D02*
X130513190Y-98227714D01*
X130513190Y-98227714D02*
X130560809Y-98275333D01*
X130560809Y-98275333D02*
X130608428Y-98370571D01*
X130608428Y-98370571D02*
X130608428Y-98751523D01*
X131084619Y-97227714D02*
X131084619Y-97799142D01*
X131084619Y-97513428D02*
X130084619Y-97513428D01*
X130084619Y-97513428D02*
X130227476Y-97608666D01*
X130227476Y-97608666D02*
X130322714Y-97703904D01*
X130322714Y-97703904D02*
X130370333Y-97799142D01*
%TO.C,GND*%
X155895095Y-110128238D02*
X155799857Y-110080619D01*
X155799857Y-110080619D02*
X155657000Y-110080619D01*
X155657000Y-110080619D02*
X155514143Y-110128238D01*
X155514143Y-110128238D02*
X155418905Y-110223476D01*
X155418905Y-110223476D02*
X155371286Y-110318714D01*
X155371286Y-110318714D02*
X155323667Y-110509190D01*
X155323667Y-110509190D02*
X155323667Y-110652047D01*
X155323667Y-110652047D02*
X155371286Y-110842523D01*
X155371286Y-110842523D02*
X155418905Y-110937761D01*
X155418905Y-110937761D02*
X155514143Y-111033000D01*
X155514143Y-111033000D02*
X155657000Y-111080619D01*
X155657000Y-111080619D02*
X155752238Y-111080619D01*
X155752238Y-111080619D02*
X155895095Y-111033000D01*
X155895095Y-111033000D02*
X155942714Y-110985380D01*
X155942714Y-110985380D02*
X155942714Y-110652047D01*
X155942714Y-110652047D02*
X155752238Y-110652047D01*
X156371286Y-111080619D02*
X156371286Y-110080619D01*
X156371286Y-110080619D02*
X156942714Y-111080619D01*
X156942714Y-111080619D02*
X156942714Y-110080619D01*
X157418905Y-111080619D02*
X157418905Y-110080619D01*
X157418905Y-110080619D02*
X157657000Y-110080619D01*
X157657000Y-110080619D02*
X157799857Y-110128238D01*
X157799857Y-110128238D02*
X157895095Y-110223476D01*
X157895095Y-110223476D02*
X157942714Y-110318714D01*
X157942714Y-110318714D02*
X157990333Y-110509190D01*
X157990333Y-110509190D02*
X157990333Y-110652047D01*
X157990333Y-110652047D02*
X157942714Y-110842523D01*
X157942714Y-110842523D02*
X157895095Y-110937761D01*
X157895095Y-110937761D02*
X157799857Y-111033000D01*
X157799857Y-111033000D02*
X157657000Y-111080619D01*
X157657000Y-111080619D02*
X157418905Y-111080619D01*
%TO.C,Y1*%
X121248428Y-91874190D02*
X121724619Y-91874190D01*
X120724619Y-92207523D02*
X121248428Y-91874190D01*
X121248428Y-91874190D02*
X120724619Y-91540857D01*
X121724619Y-90683714D02*
X121724619Y-91255142D01*
X121724619Y-90969428D02*
X120724619Y-90969428D01*
X120724619Y-90969428D02*
X120867476Y-91064666D01*
X120867476Y-91064666D02*
X120962714Y-91159904D01*
X120962714Y-91159904D02*
X121010333Y-91255142D01*
%TO.C,U3*%
X153228095Y-93194617D02*
X153228095Y-94004140D01*
X153228095Y-94004140D02*
X153275714Y-94099378D01*
X153275714Y-94099378D02*
X153323333Y-94146998D01*
X153323333Y-94146998D02*
X153418571Y-94194617D01*
X153418571Y-94194617D02*
X153609047Y-94194617D01*
X153609047Y-94194617D02*
X153704285Y-94146998D01*
X153704285Y-94146998D02*
X153751904Y-94099378D01*
X153751904Y-94099378D02*
X153799523Y-94004140D01*
X153799523Y-94004140D02*
X153799523Y-93194617D01*
X154180476Y-93194617D02*
X154799523Y-93194617D01*
X154799523Y-93194617D02*
X154466190Y-93575569D01*
X154466190Y-93575569D02*
X154609047Y-93575569D01*
X154609047Y-93575569D02*
X154704285Y-93623188D01*
X154704285Y-93623188D02*
X154751904Y-93670807D01*
X154751904Y-93670807D02*
X154799523Y-93766045D01*
X154799523Y-93766045D02*
X154799523Y-94004140D01*
X154799523Y-94004140D02*
X154751904Y-94099378D01*
X154751904Y-94099378D02*
X154704285Y-94146998D01*
X154704285Y-94146998D02*
X154609047Y-94194617D01*
X154609047Y-94194617D02*
X154323333Y-94194617D01*
X154323333Y-94194617D02*
X154228095Y-94146998D01*
X154228095Y-94146998D02*
X154180476Y-94099378D01*
X154574200Y-96938618D02*
X154574200Y-97176713D01*
X154336105Y-97081475D02*
X154574200Y-97176713D01*
X154574200Y-97176713D02*
X154812295Y-97081475D01*
X154431343Y-97367189D02*
X154574200Y-97176713D01*
X154574200Y-97176713D02*
X154717057Y-97367189D01*
X154574199Y-98267379D02*
X154574199Y-98029284D01*
X154812294Y-98124522D02*
X154574199Y-98029284D01*
X154574199Y-98029284D02*
X154336104Y-98124522D01*
X154717056Y-97838808D02*
X154574199Y-98029284D01*
X154574199Y-98029284D02*
X154431342Y-97838808D01*
%TO.C,JP2*%
X152048619Y-106294333D02*
X152762904Y-106294333D01*
X152762904Y-106294333D02*
X152905761Y-106341952D01*
X152905761Y-106341952D02*
X153001000Y-106437190D01*
X153001000Y-106437190D02*
X153048619Y-106580047D01*
X153048619Y-106580047D02*
X153048619Y-106675285D01*
X153048619Y-105818142D02*
X152048619Y-105818142D01*
X152048619Y-105818142D02*
X152048619Y-105437190D01*
X152048619Y-105437190D02*
X152096238Y-105341952D01*
X152096238Y-105341952D02*
X152143857Y-105294333D01*
X152143857Y-105294333D02*
X152239095Y-105246714D01*
X152239095Y-105246714D02*
X152381952Y-105246714D01*
X152381952Y-105246714D02*
X152477190Y-105294333D01*
X152477190Y-105294333D02*
X152524809Y-105341952D01*
X152524809Y-105341952D02*
X152572428Y-105437190D01*
X152572428Y-105437190D02*
X152572428Y-105818142D01*
X152143857Y-104865761D02*
X152096238Y-104818142D01*
X152096238Y-104818142D02*
X152048619Y-104722904D01*
X152048619Y-104722904D02*
X152048619Y-104484809D01*
X152048619Y-104484809D02*
X152096238Y-104389571D01*
X152096238Y-104389571D02*
X152143857Y-104341952D01*
X152143857Y-104341952D02*
X152239095Y-104294333D01*
X152239095Y-104294333D02*
X152334333Y-104294333D01*
X152334333Y-104294333D02*
X152477190Y-104341952D01*
X152477190Y-104341952D02*
X153048619Y-104913380D01*
X153048619Y-104913380D02*
X153048619Y-104294333D01*
D12*
%TO.C,R5*%
X150176936Y-92557000D02*
X150631064Y-92557000D01*
X150176936Y-91087000D02*
X150631064Y-91087000D01*
%TO.C,EPS_LED*%
X151992000Y-88703000D02*
X149307000Y-88703000D01*
X151992000Y-90623000D02*
X151992000Y-88703000D01*
X149307000Y-90623000D02*
X151992000Y-90623000D01*
%TO.C,J8*%
X133229000Y-104268000D02*
X133229000Y-111948000D01*
X133229000Y-101668000D02*
X134559000Y-101668000D01*
X133229000Y-104268000D02*
X135889000Y-104268000D01*
X133229000Y-111948000D02*
X135889000Y-111948000D01*
X133229000Y-102998000D02*
X133229000Y-101668000D01*
X135889000Y-104268000D02*
X135889000Y-111948000D01*
%TO.C,STM32L476*%
X131894000Y-83442000D02*
X131894000Y-84142000D01*
X131894000Y-84142000D02*
X130529000Y-84142000D01*
X131894000Y-97662000D02*
X131894000Y-96962000D01*
X132594000Y-83442000D02*
X131894000Y-83442000D01*
X132594000Y-97662000D02*
X131894000Y-97662000D01*
X145414000Y-83442000D02*
X146114000Y-83442000D01*
X145414000Y-97662000D02*
X146114000Y-97662000D01*
X146114000Y-83442000D02*
X146114000Y-84142000D01*
X146114000Y-97662000D02*
X146114000Y-96962000D01*
%TO.C,C2*%
X127360000Y-88744580D02*
X127360000Y-88463420D01*
X126340000Y-88744580D02*
X126340000Y-88463420D01*
%TO.C,USB*%
X163145000Y-90298000D02*
X163145000Y-89638000D01*
X164875000Y-90298000D02*
X163145000Y-90298000D01*
X167445000Y-90298000D02*
X167235000Y-90298000D01*
X162445000Y-88248000D02*
X162835000Y-88248000D01*
X162445000Y-88248000D02*
X162445000Y-87798000D01*
X163145000Y-82678000D02*
X163145000Y-83328000D01*
X164875000Y-82678000D02*
X163145000Y-82678000D01*
X167445000Y-82678000D02*
X167235000Y-82678000D01*
%TO.C,C7*%
X133937580Y-99694000D02*
X133656420Y-99694000D01*
X133937580Y-100714000D02*
X133656420Y-100714000D01*
%TO.C,C5*%
X129862000Y-88152580D02*
X129862000Y-87871420D01*
X128842000Y-88152580D02*
X128842000Y-87871420D01*
%TO.C,C9*%
X148288580Y-82807000D02*
X148007420Y-82807000D01*
X148288580Y-81787000D02*
X148007420Y-81787000D01*
%TO.C,3V3*%
X153928000Y-112269000D02*
G75*
G03*
X153928000Y-112269000I-700000J0D01*
G01*
%TO.C,R8*%
X143198436Y-107851000D02*
X143652564Y-107851000D01*
X143198436Y-109321000D02*
X143652564Y-109321000D01*
%TO.C,U2*%
X155914000Y-100438000D02*
X157174000Y-100438000D01*
X162734000Y-100438000D02*
X161474000Y-100438000D01*
X155914000Y-96678000D02*
X155914000Y-100438000D01*
X162734000Y-94428000D02*
X162734000Y-100438000D01*
%TO.C,C11*%
X149420000Y-85104580D02*
X149420000Y-84823420D01*
X148400000Y-85104580D02*
X148400000Y-84823420D01*
%TO.C,R1*%
X128489936Y-82016000D02*
X128944064Y-82016000D01*
X128489936Y-80546000D02*
X128944064Y-80546000D01*
%TO.C,R2*%
X159145436Y-107162000D02*
X159599564Y-107162000D01*
X159145436Y-105692000D02*
X159599564Y-105692000D01*
%TO.C,C1*%
X128222580Y-76580000D02*
X127941420Y-76580000D01*
X128222580Y-77600000D02*
X127941420Y-77600000D01*
%TO.C,POW_LED*%
X154054500Y-107387000D02*
X156739500Y-107387000D01*
X156739500Y-105467000D02*
X154054500Y-105467000D01*
X156739500Y-107387000D02*
X156739500Y-105467000D01*
%TO.C,C6*%
X126340000Y-91765420D02*
X126340000Y-92046580D01*
X127360000Y-91765420D02*
X127360000Y-92046580D01*
%TO.C,R7*%
X140120064Y-107851000D02*
X139665936Y-107851000D01*
X140120064Y-109321000D02*
X139665936Y-109321000D01*
%TO.C,J4*%
X139766000Y-71442000D02*
X147446000Y-71442000D01*
X137166000Y-71442000D02*
X138496000Y-71442000D01*
X137166000Y-72772000D02*
X137166000Y-71442000D01*
X147446000Y-74102000D02*
X147446000Y-71442000D01*
X139766000Y-74102000D02*
X139766000Y-71442000D01*
X139766000Y-74102000D02*
X147446000Y-74102000D01*
%TO.C,C4*%
X128842000Y-84823420D02*
X128842000Y-85104580D01*
X129862000Y-84823420D02*
X129862000Y-85104580D01*
%TO.C,C8*%
X146015580Y-99948000D02*
X145734420Y-99948000D01*
X146015580Y-100968000D02*
X145734420Y-100968000D01*
%TO.C,UART2*%
X128844000Y-112964000D02*
X121164000Y-112964000D01*
X131444000Y-112964000D02*
X130114000Y-112964000D01*
X131444000Y-111634000D02*
X131444000Y-112964000D01*
X121164000Y-110304000D02*
X121164000Y-112964000D01*
X128844000Y-110304000D02*
X128844000Y-112964000D01*
X128844000Y-110304000D02*
X121164000Y-110304000D01*
%TO.C,TP2*%
X156338000Y-88582000D02*
X157738000Y-88582000D01*
X156338000Y-89982000D02*
X156338000Y-88582000D01*
X157738000Y-88582000D02*
X157738000Y-89982000D01*
X157738000Y-89982000D02*
X156338000Y-89982000D01*
%TO.C,5V*%
X160024000Y-89409000D02*
G75*
G03*
X160024000Y-89409000I-700000J0D01*
G01*
%TO.C,R3*%
X136641436Y-77317000D02*
X137095564Y-77317000D01*
X136641436Y-75847000D02*
X137095564Y-75847000D01*
%TO.C,J7*%
X151470000Y-71417000D02*
X154070000Y-71417000D01*
X148870000Y-71417000D02*
X150200000Y-71417000D01*
X148870000Y-72747000D02*
X148870000Y-71417000D01*
X154070000Y-74077000D02*
X154070000Y-71417000D01*
X151470000Y-74077000D02*
X151470000Y-71417000D01*
X151470000Y-74077000D02*
X154070000Y-74077000D01*
%TO.C,C10*%
X133021420Y-80390000D02*
X133302580Y-80390000D01*
X133021420Y-81410000D02*
X133302580Y-81410000D01*
%TO.C,R4*%
X133389064Y-75847000D02*
X132934936Y-75847000D01*
X133389064Y-77317000D02*
X132934936Y-77317000D01*
%TO.C,J1*%
X154752000Y-79436000D02*
X147072000Y-79436000D01*
X147072000Y-76776000D02*
X147072000Y-79436000D01*
X154752000Y-76776000D02*
X154752000Y-79436000D01*
X154752000Y-76776000D02*
X147072000Y-76776000D01*
X156022000Y-76776000D02*
X157352000Y-76776000D01*
X157352000Y-76776000D02*
X157352000Y-78106000D01*
%TO.C,J5*%
X145608000Y-113218000D02*
X137928000Y-113218000D01*
X148208000Y-113218000D02*
X146878000Y-113218000D01*
X148208000Y-111888000D02*
X148208000Y-113218000D01*
X137928000Y-110558000D02*
X137928000Y-113218000D01*
X145608000Y-110558000D02*
X145608000Y-113218000D01*
X145608000Y-110558000D02*
X137928000Y-110558000D01*
%TO.C,C12*%
X129608000Y-94502580D02*
X129608000Y-94221420D01*
X128588000Y-94502580D02*
X128588000Y-94221420D01*
%TO.C,J3*%
X128082000Y-74077000D02*
X135762000Y-74077000D01*
X128082000Y-74077000D02*
X128082000Y-71417000D01*
X135762000Y-74077000D02*
X135762000Y-71417000D01*
X125482000Y-72747000D02*
X125482000Y-71417000D01*
X125482000Y-71417000D02*
X126812000Y-71417000D01*
X128082000Y-71417000D02*
X135762000Y-71417000D01*
%TO.C,C16*%
X164646000Y-98566580D02*
X164646000Y-98285420D01*
X163626000Y-98566580D02*
X163626000Y-98285420D01*
%TO.C,C13*%
X126685580Y-97916000D02*
X126404420Y-97916000D01*
X126685580Y-98936000D02*
X126404420Y-98936000D01*
%TO.C,3V3*%
X164850000Y-103252000D02*
G75*
G03*
X164850000Y-103252000I-700000J0D01*
G01*
%TO.C,SW1*%
X124332000Y-80138000D02*
X124332000Y-85278000D01*
X121672000Y-85278000D02*
X124332000Y-85278000D01*
X121672000Y-80138000D02*
X124332000Y-80138000D01*
X121672000Y-80138000D02*
X121672000Y-85278000D01*
X121672000Y-78868000D02*
X121672000Y-77538000D01*
X121672000Y-77538000D02*
X123002000Y-77538000D01*
%TO.C,C14*%
X126698580Y-99948000D02*
X126417420Y-99948000D01*
X126698580Y-100968000D02*
X126417420Y-100968000D01*
%TO.C,GND*%
X163450000Y-104838000D02*
X164850000Y-104838000D01*
X163450000Y-106238000D02*
X163450000Y-104838000D01*
X164850000Y-104838000D02*
X164850000Y-106238000D01*
X164850000Y-106238000D02*
X163450000Y-106238000D01*
D10*
%TO.C,JP1*%
X154238000Y-99719998D02*
X153738000Y-100219998D01*
X154238000Y-98919998D02*
X154238000Y-99719998D01*
X153738000Y-100219998D02*
X150138000Y-100219998D01*
X153738000Y-98419998D02*
X154238000Y-98919998D01*
X150138000Y-100219998D02*
X149638000Y-99719998D01*
X150138000Y-98419998D02*
X153738000Y-98419998D01*
X149638000Y-99719998D02*
X149638000Y-98919998D01*
X149638000Y-98919998D02*
X150138000Y-98419998D01*
D12*
%TO.C,C15*%
X159169420Y-93602000D02*
X159450580Y-93602000D01*
X159169420Y-92582000D02*
X159450580Y-92582000D01*
%TO.C,120R1*%
X128512000Y-99042378D02*
X128512000Y-99841622D01*
X129632000Y-99042378D02*
X129632000Y-99841622D01*
%TO.C,GND*%
X154814000Y-111569000D02*
X156214000Y-111569000D01*
X154814000Y-112969000D02*
X154814000Y-111569000D01*
X156214000Y-111569000D02*
X156214000Y-112969000D01*
X156214000Y-112969000D02*
X154814000Y-112969000D01*
%TO.C,Y1*%
X122152000Y-88128000D02*
X122152000Y-92128000D01*
X125452000Y-88128000D02*
X122152000Y-88128000D01*
D13*
%TO.C,U3*%
X152336716Y-94681999D02*
X151731684Y-94681999D01*
X151731684Y-97729999D02*
X152336716Y-97729999D01*
X151157900Y-95868138D02*
X151157900Y-96543860D01*
X152159072Y-97451952D02*
G75*
G03*
X151909328Y-97451952I-124872J-278049D01*
G01*
D10*
%TO.C,JP2*%
X150288000Y-107350000D02*
X149788000Y-106850000D01*
X151088000Y-107350000D02*
X150288000Y-107350000D01*
X149788000Y-106850000D02*
X149788000Y-103250000D01*
X151588000Y-106850000D02*
X151088000Y-107350000D01*
X149788000Y-103250000D02*
X150288000Y-102750000D01*
X151588000Y-103250000D02*
X151588000Y-106850000D01*
X150288000Y-102750000D02*
X151088000Y-102750000D01*
X151088000Y-102750000D02*
X151588000Y-103250000D01*
%TD*%
M02*
