G04 EAGLE Gerber RS-274X export*
G75*
%MOMM*%
%FSLAX34Y34*%
%LPD*%
%INCopper Layer 2*%
%IPPOS*%
%AMOC8*
5,1,8,0,0,1.08239X$1,22.5*%
G01*
G04 Define Apertures*
%ADD10C,1.524000*%
%ADD11C,0.808000*%
%ADD12C,0.550000*%
%ADD13C,0.400000*%
%ADD14C,0.900000*%
G36*
X-101803Y-449052D02*
X-102000Y-449078D01*
X-448000Y-449078D01*
X-448197Y-449052D01*
X-448355Y-449010D01*
X-448697Y-448812D01*
X-448812Y-448697D01*
X-449010Y-448355D01*
X-449052Y-448197D01*
X-449078Y-448000D01*
X-449078Y-102000D01*
X-449052Y-101803D01*
X-449010Y-101645D01*
X-448812Y-101303D01*
X-448697Y-101188D01*
X-448355Y-100990D01*
X-448197Y-100948D01*
X-448000Y-100922D01*
X-443370Y-100922D01*
X-436464Y-98678D01*
X-430590Y-94410D01*
X-426322Y-88536D01*
X-424078Y-81630D01*
X-424078Y81630D01*
X-426322Y88536D01*
X-430590Y94410D01*
X-436464Y98678D01*
X-443370Y100922D01*
X-448000Y100922D01*
X-448197Y100948D01*
X-448355Y100990D01*
X-448697Y101188D01*
X-448812Y101303D01*
X-449010Y101645D01*
X-449052Y101803D01*
X-449078Y102000D01*
X-449078Y448000D01*
X-449052Y448197D01*
X-449010Y448355D01*
X-448812Y448697D01*
X-448697Y448812D01*
X-448355Y449010D01*
X-448197Y449052D01*
X-448000Y449078D01*
X-102000Y449078D01*
X-101803Y449052D01*
X-101645Y449010D01*
X-101303Y448812D01*
X-101188Y448697D01*
X-100990Y448355D01*
X-100948Y448197D01*
X-100922Y448000D01*
X-100922Y443370D01*
X-98678Y436464D01*
X-94410Y430590D01*
X-88536Y426322D01*
X-81630Y424078D01*
X-65688Y424078D01*
X-65430Y424033D01*
X-65171Y423876D01*
X-64993Y423630D01*
X-64926Y423334D01*
X-64979Y423036D01*
X-65145Y422782D01*
X-65396Y422612D01*
X-68680Y421252D01*
X-71252Y418680D01*
X-72644Y415319D01*
X-72644Y411681D01*
X-71252Y408320D01*
X-68680Y405748D01*
X-65319Y404356D01*
X-61681Y404356D01*
X-58320Y405748D01*
X-55748Y408320D01*
X-54356Y411681D01*
X-54356Y415319D01*
X-55748Y418680D01*
X-58320Y421252D01*
X-61604Y422612D01*
X-61825Y422752D01*
X-62004Y422997D01*
X-62074Y423292D01*
X-62023Y423591D01*
X-61860Y423846D01*
X-61610Y424018D01*
X-61312Y424078D01*
X-42943Y424078D01*
X-42685Y424033D01*
X-42426Y423876D01*
X-42248Y423630D01*
X-42181Y423334D01*
X-42234Y423036D01*
X-42400Y422782D01*
X-42651Y422612D01*
X-43855Y422113D01*
X-46713Y419255D01*
X-48260Y415521D01*
X-48260Y414262D01*
X-27940Y414262D01*
X-27940Y415521D01*
X-29487Y419255D01*
X-32345Y422113D01*
X-33549Y422612D01*
X-33770Y422752D01*
X-33949Y422997D01*
X-34019Y423292D01*
X-33968Y423591D01*
X-33805Y423846D01*
X-33555Y424018D01*
X-33257Y424078D01*
X-14888Y424078D01*
X-14630Y424033D01*
X-14371Y423876D01*
X-14193Y423630D01*
X-14126Y423334D01*
X-14179Y423036D01*
X-14345Y422782D01*
X-14596Y422612D01*
X-17880Y421252D01*
X-20452Y418680D01*
X-21844Y415319D01*
X-21844Y411681D01*
X-20452Y408320D01*
X-17880Y405748D01*
X-14519Y404356D01*
X-10881Y404356D01*
X-7520Y405748D01*
X-4948Y408320D01*
X-3556Y411681D01*
X-3556Y415319D01*
X-4948Y418680D01*
X-7520Y421252D01*
X-10804Y422612D01*
X-11025Y422752D01*
X-11204Y422997D01*
X-11274Y423292D01*
X-11223Y423591D01*
X-11060Y423846D01*
X-10810Y424018D01*
X-10512Y424078D01*
X7857Y424078D01*
X8115Y424033D01*
X8374Y423876D01*
X8552Y423630D01*
X8619Y423334D01*
X8566Y423036D01*
X8400Y422782D01*
X8149Y422612D01*
X6945Y422113D01*
X4087Y419255D01*
X2540Y415521D01*
X2540Y414262D01*
X22860Y414262D01*
X22860Y415521D01*
X21313Y419255D01*
X18455Y422113D01*
X17251Y422612D01*
X17030Y422752D01*
X16851Y422997D01*
X16781Y423292D01*
X16832Y423591D01*
X16995Y423846D01*
X17245Y424018D01*
X17543Y424078D01*
X35912Y424078D01*
X36170Y424033D01*
X36429Y423876D01*
X36607Y423630D01*
X36674Y423334D01*
X36621Y423036D01*
X36455Y422782D01*
X36204Y422612D01*
X32920Y421252D01*
X30348Y418680D01*
X28956Y415319D01*
X28956Y411681D01*
X30348Y408320D01*
X32920Y405748D01*
X36281Y404356D01*
X39919Y404356D01*
X43280Y405748D01*
X45852Y408320D01*
X47244Y411681D01*
X47244Y415319D01*
X45852Y418680D01*
X43280Y421252D01*
X39996Y422612D01*
X39775Y422752D01*
X39596Y422997D01*
X39526Y423292D01*
X39577Y423591D01*
X39740Y423846D01*
X39991Y424018D01*
X40288Y424078D01*
X61312Y424078D01*
X61570Y424033D01*
X61829Y423876D01*
X62007Y423630D01*
X62074Y423334D01*
X62021Y423036D01*
X61855Y422782D01*
X61604Y422612D01*
X58320Y421252D01*
X55748Y418680D01*
X54356Y415319D01*
X54356Y411681D01*
X55748Y408320D01*
X58320Y405748D01*
X61681Y404356D01*
X65319Y404356D01*
X68680Y405748D01*
X71252Y408320D01*
X72644Y411681D01*
X72644Y415319D01*
X71252Y418680D01*
X68680Y421252D01*
X65396Y422612D01*
X65175Y422752D01*
X64996Y422997D01*
X64926Y423292D01*
X64977Y423591D01*
X65140Y423846D01*
X65391Y424018D01*
X65688Y424078D01*
X81630Y424078D01*
X88536Y426322D01*
X94410Y430590D01*
X98678Y436464D01*
X100922Y443370D01*
X100922Y448000D01*
X100948Y448197D01*
X100990Y448355D01*
X101188Y448697D01*
X101303Y448812D01*
X101645Y449010D01*
X101803Y449052D01*
X102000Y449078D01*
X448000Y449078D01*
X448197Y449052D01*
X448355Y449010D01*
X448697Y448812D01*
X448812Y448697D01*
X449010Y448355D01*
X449052Y448197D01*
X449078Y448000D01*
X449078Y102000D01*
X449052Y101803D01*
X449010Y101645D01*
X448812Y101303D01*
X448697Y101188D01*
X448355Y100990D01*
X448197Y100948D01*
X448000Y100922D01*
X443370Y100922D01*
X436464Y98678D01*
X430590Y94410D01*
X426322Y88536D01*
X424078Y81630D01*
X424078Y-81630D01*
X426322Y-88536D01*
X430590Y-94410D01*
X436464Y-98678D01*
X443370Y-100922D01*
X448000Y-100922D01*
X448197Y-100948D01*
X448355Y-100990D01*
X448697Y-101188D01*
X448812Y-101303D01*
X449010Y-101645D01*
X449052Y-101803D01*
X449078Y-102000D01*
X449078Y-448000D01*
X449052Y-448197D01*
X449010Y-448355D01*
X448812Y-448697D01*
X448697Y-448812D01*
X448355Y-449010D01*
X448197Y-449052D01*
X448000Y-449078D01*
X102000Y-449078D01*
X101803Y-449052D01*
X101645Y-449010D01*
X101303Y-448812D01*
X101188Y-448697D01*
X100990Y-448355D01*
X100948Y-448197D01*
X100922Y-448000D01*
X100922Y-443370D01*
X98678Y-436464D01*
X94410Y-430590D01*
X88536Y-426322D01*
X81630Y-424078D01*
X-81630Y-424078D01*
X-88536Y-426322D01*
X-94410Y-430590D01*
X-98678Y-436464D01*
X-100922Y-443370D01*
X-100922Y-448000D01*
X-100948Y-448197D01*
X-100990Y-448355D01*
X-101188Y-448697D01*
X-101303Y-448812D01*
X-101645Y-449010D01*
X-101803Y-449052D01*
G37*
%LPC*%
G36*
X390685Y374407D02*
X400000Y372764D01*
X409315Y374407D01*
X417507Y379136D01*
X423587Y386382D01*
X426822Y395271D01*
X426822Y404730D01*
X423587Y413618D01*
X417507Y420864D01*
X409315Y425593D01*
X400000Y427236D01*
X390685Y425593D01*
X382493Y420864D01*
X376413Y413618D01*
X373178Y404730D01*
X373178Y395271D01*
X376413Y386382D01*
X382493Y379136D01*
X390685Y374407D01*
G37*
G36*
X-409315Y374407D02*
X-400000Y372764D01*
X-390685Y374407D01*
X-382493Y379136D01*
X-376413Y386382D01*
X-373178Y395271D01*
X-373178Y404730D01*
X-376413Y413618D01*
X-382493Y420864D01*
X-390685Y425593D01*
X-400000Y427236D01*
X-409315Y425593D01*
X-417507Y420864D01*
X-423587Y413618D01*
X-426822Y404730D01*
X-426822Y395271D01*
X-423587Y386382D01*
X-417507Y379136D01*
X-409315Y374407D01*
G37*
G36*
X-302260Y414262D02*
X-292862Y414262D01*
X-292862Y423660D01*
X-294121Y423660D01*
X-297855Y422113D01*
X-300713Y419255D01*
X-302260Y415521D01*
X-302260Y414262D01*
G37*
G36*
X-291338Y414262D02*
X-281940Y414262D01*
X-281940Y415521D01*
X-283487Y419255D01*
X-286345Y422113D01*
X-290079Y423660D01*
X-291338Y423660D01*
X-291338Y414262D01*
G37*
G36*
X180340Y414262D02*
X189738Y414262D01*
X189738Y423660D01*
X188479Y423660D01*
X184745Y422113D01*
X181887Y419255D01*
X180340Y415521D01*
X180340Y414262D01*
G37*
G36*
X-276860Y414262D02*
X-267462Y414262D01*
X-267462Y423660D01*
X-268721Y423660D01*
X-272455Y422113D01*
X-275313Y419255D01*
X-276860Y415521D01*
X-276860Y414262D01*
G37*
G36*
X256540Y414262D02*
X265938Y414262D01*
X265938Y423660D01*
X264679Y423660D01*
X260945Y422113D01*
X258087Y419255D01*
X256540Y415521D01*
X256540Y414262D01*
G37*
G36*
X267462Y414262D02*
X276860Y414262D01*
X276860Y415521D01*
X275313Y419255D01*
X272455Y422113D01*
X268721Y423660D01*
X267462Y423660D01*
X267462Y414262D01*
G37*
G36*
X-265938Y414262D02*
X-256540Y414262D01*
X-256540Y415521D01*
X-258087Y419255D01*
X-260945Y422113D01*
X-264679Y423660D01*
X-265938Y423660D01*
X-265938Y414262D01*
G37*
G36*
X191262Y414262D02*
X200660Y414262D01*
X200660Y415521D01*
X199113Y419255D01*
X196255Y422113D01*
X192521Y423660D01*
X191262Y423660D01*
X191262Y414262D01*
G37*
G36*
X315681Y404356D02*
X319319Y404356D01*
X322680Y405748D01*
X325252Y408320D01*
X326644Y411681D01*
X326644Y415319D01*
X325252Y418680D01*
X322680Y421252D01*
X319319Y422644D01*
X315681Y422644D01*
X312320Y421252D01*
X309748Y418680D01*
X308356Y415319D01*
X308356Y411681D01*
X309748Y408320D01*
X312320Y405748D01*
X315681Y404356D01*
G37*
G36*
X-319319Y404356D02*
X-315681Y404356D01*
X-312320Y405748D01*
X-309748Y408320D01*
X-308356Y411681D01*
X-308356Y415319D01*
X-309748Y418680D01*
X-312320Y421252D01*
X-315681Y422644D01*
X-319319Y422644D01*
X-322680Y421252D01*
X-325252Y418680D01*
X-326644Y415319D01*
X-326644Y411681D01*
X-325252Y408320D01*
X-322680Y405748D01*
X-319319Y404356D01*
G37*
G36*
X137881Y404356D02*
X141519Y404356D01*
X144880Y405748D01*
X147452Y408320D01*
X148844Y411681D01*
X148844Y415319D01*
X147452Y418680D01*
X144880Y421252D01*
X141519Y422644D01*
X137881Y422644D01*
X134520Y421252D01*
X131948Y418680D01*
X130556Y415319D01*
X130556Y411681D01*
X131948Y408320D01*
X134520Y405748D01*
X137881Y404356D01*
G37*
G36*
X87081Y404356D02*
X90719Y404356D01*
X94080Y405748D01*
X96652Y408320D01*
X98044Y411681D01*
X98044Y415319D01*
X96652Y418680D01*
X94080Y421252D01*
X90719Y422644D01*
X87081Y422644D01*
X83720Y421252D01*
X81148Y418680D01*
X79756Y415319D01*
X79756Y411681D01*
X81148Y408320D01*
X83720Y405748D01*
X87081Y404356D01*
G37*
G36*
X290281Y404356D02*
X293919Y404356D01*
X297280Y405748D01*
X299852Y408320D01*
X301244Y411681D01*
X301244Y415319D01*
X299852Y418680D01*
X297280Y421252D01*
X293919Y422644D01*
X290281Y422644D01*
X286920Y421252D01*
X284348Y418680D01*
X282956Y415319D01*
X282956Y411681D01*
X284348Y408320D01*
X286920Y405748D01*
X290281Y404356D01*
G37*
G36*
X239481Y404356D02*
X243119Y404356D01*
X246480Y405748D01*
X249052Y408320D01*
X250444Y411681D01*
X250444Y415319D01*
X249052Y418680D01*
X246480Y421252D01*
X243119Y422644D01*
X239481Y422644D01*
X236120Y421252D01*
X233548Y418680D01*
X232156Y415319D01*
X232156Y411681D01*
X233548Y408320D01*
X236120Y405748D01*
X239481Y404356D01*
G37*
G36*
X214081Y404356D02*
X217719Y404356D01*
X221080Y405748D01*
X223652Y408320D01*
X225044Y411681D01*
X225044Y415319D01*
X223652Y418680D01*
X221080Y421252D01*
X217719Y422644D01*
X214081Y422644D01*
X210720Y421252D01*
X208148Y418680D01*
X206756Y415319D01*
X206756Y411681D01*
X208148Y408320D01*
X210720Y405748D01*
X214081Y404356D01*
G37*
G36*
X163281Y404356D02*
X166919Y404356D01*
X170280Y405748D01*
X172852Y408320D01*
X174244Y411681D01*
X174244Y415319D01*
X172852Y418680D01*
X170280Y421252D01*
X166919Y422644D01*
X163281Y422644D01*
X159920Y421252D01*
X157348Y418680D01*
X155956Y415319D01*
X155956Y411681D01*
X157348Y408320D01*
X159920Y405748D01*
X163281Y404356D01*
G37*
G36*
X-90719Y404356D02*
X-87081Y404356D01*
X-83720Y405748D01*
X-81148Y408320D01*
X-79756Y411681D01*
X-79756Y415319D01*
X-81148Y418680D01*
X-83720Y421252D01*
X-87081Y422644D01*
X-90719Y422644D01*
X-94080Y421252D01*
X-96652Y418680D01*
X-98044Y415319D01*
X-98044Y411681D01*
X-96652Y408320D01*
X-94080Y405748D01*
X-90719Y404356D01*
G37*
G36*
X-116119Y404356D02*
X-112481Y404356D01*
X-109120Y405748D01*
X-106548Y408320D01*
X-105156Y411681D01*
X-105156Y415319D01*
X-106548Y418680D01*
X-109120Y421252D01*
X-112481Y422644D01*
X-116119Y422644D01*
X-119480Y421252D01*
X-122052Y418680D01*
X-123444Y415319D01*
X-123444Y411681D01*
X-122052Y408320D01*
X-119480Y405748D01*
X-116119Y404356D01*
G37*
G36*
X-141519Y404356D02*
X-137881Y404356D01*
X-134520Y405748D01*
X-131948Y408320D01*
X-130556Y411681D01*
X-130556Y415319D01*
X-131948Y418680D01*
X-134520Y421252D01*
X-137881Y422644D01*
X-141519Y422644D01*
X-144880Y421252D01*
X-147452Y418680D01*
X-148844Y415319D01*
X-148844Y411681D01*
X-147452Y408320D01*
X-144880Y405748D01*
X-141519Y404356D01*
G37*
G36*
X-166919Y404356D02*
X-163281Y404356D01*
X-159920Y405748D01*
X-157348Y408320D01*
X-155956Y411681D01*
X-155956Y415319D01*
X-157348Y418680D01*
X-159920Y421252D01*
X-163281Y422644D01*
X-166919Y422644D01*
X-170280Y421252D01*
X-172852Y418680D01*
X-174244Y415319D01*
X-174244Y411681D01*
X-172852Y408320D01*
X-170280Y405748D01*
X-166919Y404356D01*
G37*
G36*
X-192319Y404356D02*
X-188681Y404356D01*
X-185320Y405748D01*
X-182748Y408320D01*
X-181356Y411681D01*
X-181356Y415319D01*
X-182748Y418680D01*
X-185320Y421252D01*
X-188681Y422644D01*
X-192319Y422644D01*
X-195680Y421252D01*
X-198252Y418680D01*
X-199644Y415319D01*
X-199644Y411681D01*
X-198252Y408320D01*
X-195680Y405748D01*
X-192319Y404356D01*
G37*
G36*
X-217719Y404356D02*
X-214081Y404356D01*
X-210720Y405748D01*
X-208148Y408320D01*
X-206756Y411681D01*
X-206756Y415319D01*
X-208148Y418680D01*
X-210720Y421252D01*
X-214081Y422644D01*
X-217719Y422644D01*
X-221080Y421252D01*
X-223652Y418680D01*
X-225044Y415319D01*
X-225044Y411681D01*
X-223652Y408320D01*
X-221080Y405748D01*
X-217719Y404356D01*
G37*
G36*
X-243119Y404356D02*
X-239481Y404356D01*
X-236120Y405748D01*
X-233548Y408320D01*
X-232156Y411681D01*
X-232156Y415319D01*
X-233548Y418680D01*
X-236120Y421252D01*
X-239481Y422644D01*
X-243119Y422644D01*
X-246480Y421252D01*
X-249052Y418680D01*
X-250444Y415319D01*
X-250444Y411681D01*
X-249052Y408320D01*
X-246480Y405748D01*
X-243119Y404356D01*
G37*
G36*
X112481Y404356D02*
X116119Y404356D01*
X119480Y405748D01*
X122052Y408320D01*
X123444Y411681D01*
X123444Y415319D01*
X122052Y418680D01*
X119480Y421252D01*
X116119Y422644D01*
X112481Y422644D01*
X109120Y421252D01*
X106548Y418680D01*
X105156Y415319D01*
X105156Y411681D01*
X106548Y408320D01*
X109120Y405748D01*
X112481Y404356D01*
G37*
G36*
X-40121Y403340D02*
X-38862Y403340D01*
X-38862Y412738D01*
X-48260Y412738D01*
X-48260Y411479D01*
X-46713Y407745D01*
X-43855Y404887D01*
X-40121Y403340D01*
G37*
G36*
X267462Y403340D02*
X268721Y403340D01*
X272455Y404887D01*
X275313Y407745D01*
X276860Y411479D01*
X276860Y412738D01*
X267462Y412738D01*
X267462Y403340D01*
G37*
G36*
X264679Y403340D02*
X265938Y403340D01*
X265938Y412738D01*
X256540Y412738D01*
X256540Y411479D01*
X258087Y407745D01*
X260945Y404887D01*
X264679Y403340D01*
G37*
G36*
X191262Y403340D02*
X192521Y403340D01*
X196255Y404887D01*
X199113Y407745D01*
X200660Y411479D01*
X200660Y412738D01*
X191262Y412738D01*
X191262Y403340D01*
G37*
G36*
X188479Y403340D02*
X189738Y403340D01*
X189738Y412738D01*
X180340Y412738D01*
X180340Y411479D01*
X181887Y407745D01*
X184745Y404887D01*
X188479Y403340D01*
G37*
G36*
X13462Y403340D02*
X14721Y403340D01*
X18455Y404887D01*
X21313Y407745D01*
X22860Y411479D01*
X22860Y412738D01*
X13462Y412738D01*
X13462Y403340D01*
G37*
G36*
X10679Y403340D02*
X11938Y403340D01*
X11938Y412738D01*
X2540Y412738D01*
X2540Y411479D01*
X4087Y407745D01*
X6945Y404887D01*
X10679Y403340D01*
G37*
G36*
X-37338Y403340D02*
X-36079Y403340D01*
X-32345Y404887D01*
X-29487Y407745D01*
X-27940Y411479D01*
X-27940Y412738D01*
X-37338Y412738D01*
X-37338Y403340D01*
G37*
G36*
X-265938Y403340D02*
X-264679Y403340D01*
X-260945Y404887D01*
X-258087Y407745D01*
X-256540Y411479D01*
X-256540Y412738D01*
X-265938Y412738D01*
X-265938Y403340D01*
G37*
G36*
X-268721Y403340D02*
X-267462Y403340D01*
X-267462Y412738D01*
X-276860Y412738D01*
X-276860Y411479D01*
X-275313Y407745D01*
X-272455Y404887D01*
X-268721Y403340D01*
G37*
G36*
X-291338Y403340D02*
X-290079Y403340D01*
X-286345Y404887D01*
X-283487Y407745D01*
X-281940Y411479D01*
X-281940Y412738D01*
X-291338Y412738D01*
X-291338Y403340D01*
G37*
G36*
X-294121Y403340D02*
X-292862Y403340D01*
X-292862Y412738D01*
X-302260Y412738D01*
X-302260Y411479D01*
X-300713Y407745D01*
X-297855Y404887D01*
X-294121Y403340D01*
G37*
G36*
X13462Y388862D02*
X22860Y388862D01*
X22860Y390121D01*
X21313Y393855D01*
X18455Y396713D01*
X14721Y398260D01*
X13462Y398260D01*
X13462Y388862D01*
G37*
G36*
X2540Y388862D02*
X11938Y388862D01*
X11938Y398260D01*
X10679Y398260D01*
X6945Y396713D01*
X4087Y393855D01*
X2540Y390121D01*
X2540Y388862D01*
G37*
G36*
X-48260Y388862D02*
X-38862Y388862D01*
X-38862Y398260D01*
X-40121Y398260D01*
X-43855Y396713D01*
X-46713Y393855D01*
X-48260Y390121D01*
X-48260Y388862D01*
G37*
G36*
X-302260Y388862D02*
X-292862Y388862D01*
X-292862Y398260D01*
X-294121Y398260D01*
X-297855Y396713D01*
X-300713Y393855D01*
X-302260Y390121D01*
X-302260Y388862D01*
G37*
G36*
X-291338Y388862D02*
X-281940Y388862D01*
X-281940Y390121D01*
X-283487Y393855D01*
X-286345Y396713D01*
X-290079Y398260D01*
X-291338Y398260D01*
X-291338Y388862D01*
G37*
G36*
X-37338Y388862D02*
X-27940Y388862D01*
X-27940Y390121D01*
X-29487Y393855D01*
X-32345Y396713D01*
X-36079Y398260D01*
X-37338Y398260D01*
X-37338Y388862D01*
G37*
G36*
X112481Y378956D02*
X116119Y378956D01*
X119480Y380348D01*
X122052Y382920D01*
X123444Y386281D01*
X123444Y389919D01*
X122052Y393280D01*
X119480Y395852D01*
X116119Y397244D01*
X112481Y397244D01*
X109120Y395852D01*
X106548Y393280D01*
X105156Y389919D01*
X105156Y386281D01*
X106548Y382920D01*
X109120Y380348D01*
X112481Y378956D01*
G37*
G36*
X87081Y378956D02*
X90719Y378956D01*
X94080Y380348D01*
X96652Y382920D01*
X98044Y386281D01*
X98044Y389919D01*
X96652Y393280D01*
X94080Y395852D01*
X90719Y397244D01*
X87081Y397244D01*
X83720Y395852D01*
X81148Y393280D01*
X79756Y389919D01*
X79756Y386281D01*
X81148Y382920D01*
X83720Y380348D01*
X87081Y378956D01*
G37*
G36*
X61681Y378956D02*
X65319Y378956D01*
X68680Y380348D01*
X71252Y382920D01*
X72644Y386281D01*
X72644Y389919D01*
X71252Y393280D01*
X68680Y395852D01*
X65319Y397244D01*
X61681Y397244D01*
X58320Y395852D01*
X55748Y393280D01*
X54356Y389919D01*
X54356Y386281D01*
X55748Y382920D01*
X58320Y380348D01*
X61681Y378956D01*
G37*
G36*
X36281Y378956D02*
X39919Y378956D01*
X43280Y380348D01*
X45852Y382920D01*
X47244Y386281D01*
X47244Y389919D01*
X45852Y393280D01*
X43280Y395852D01*
X39919Y397244D01*
X36281Y397244D01*
X32920Y395852D01*
X30348Y393280D01*
X28956Y389919D01*
X28956Y386281D01*
X30348Y382920D01*
X32920Y380348D01*
X36281Y378956D01*
G37*
G36*
X-14519Y378956D02*
X-10881Y378956D01*
X-7520Y380348D01*
X-4948Y382920D01*
X-3556Y386281D01*
X-3556Y389919D01*
X-4948Y393280D01*
X-7520Y395852D01*
X-10881Y397244D01*
X-14519Y397244D01*
X-17880Y395852D01*
X-20452Y393280D01*
X-21844Y389919D01*
X-21844Y386281D01*
X-20452Y382920D01*
X-17880Y380348D01*
X-14519Y378956D01*
G37*
G36*
X-65319Y378956D02*
X-61681Y378956D01*
X-58320Y380348D01*
X-55748Y382920D01*
X-54356Y386281D01*
X-54356Y389919D01*
X-55748Y393280D01*
X-58320Y395852D01*
X-61681Y397244D01*
X-65319Y397244D01*
X-68680Y395852D01*
X-71252Y393280D01*
X-72644Y389919D01*
X-72644Y386281D01*
X-71252Y382920D01*
X-68680Y380348D01*
X-65319Y378956D01*
G37*
G36*
X-90719Y378956D02*
X-87081Y378956D01*
X-83720Y380348D01*
X-81148Y382920D01*
X-79756Y386281D01*
X-79756Y389919D01*
X-81148Y393280D01*
X-83720Y395852D01*
X-87081Y397244D01*
X-90719Y397244D01*
X-94080Y395852D01*
X-96652Y393280D01*
X-98044Y389919D01*
X-98044Y386281D01*
X-96652Y382920D01*
X-94080Y380348D01*
X-90719Y378956D01*
G37*
G36*
X-116119Y378956D02*
X-112481Y378956D01*
X-109120Y380348D01*
X-106548Y382920D01*
X-105156Y386281D01*
X-105156Y389919D01*
X-106548Y393280D01*
X-109120Y395852D01*
X-112481Y397244D01*
X-116119Y397244D01*
X-119480Y395852D01*
X-122052Y393280D01*
X-123444Y389919D01*
X-123444Y386281D01*
X-122052Y382920D01*
X-119480Y380348D01*
X-116119Y378956D01*
G37*
G36*
X-141519Y378956D02*
X-137881Y378956D01*
X-134520Y380348D01*
X-131948Y382920D01*
X-130556Y386281D01*
X-130556Y389919D01*
X-131948Y393280D01*
X-134520Y395852D01*
X-137881Y397244D01*
X-141519Y397244D01*
X-144880Y395852D01*
X-147452Y393280D01*
X-148844Y389919D01*
X-148844Y386281D01*
X-147452Y382920D01*
X-144880Y380348D01*
X-141519Y378956D01*
G37*
G36*
X-166919Y378956D02*
X-163281Y378956D01*
X-159920Y380348D01*
X-157348Y382920D01*
X-155956Y386281D01*
X-155956Y389919D01*
X-157348Y393280D01*
X-159920Y395852D01*
X-163281Y397244D01*
X-166919Y397244D01*
X-170280Y395852D01*
X-172852Y393280D01*
X-174244Y389919D01*
X-174244Y386281D01*
X-172852Y382920D01*
X-170280Y380348D01*
X-166919Y378956D01*
G37*
G36*
X-192319Y378956D02*
X-188681Y378956D01*
X-185320Y380348D01*
X-182748Y382920D01*
X-181356Y386281D01*
X-181356Y389919D01*
X-182748Y393280D01*
X-185320Y395852D01*
X-188681Y397244D01*
X-192319Y397244D01*
X-195680Y395852D01*
X-198252Y393280D01*
X-199644Y389919D01*
X-199644Y386281D01*
X-198252Y382920D01*
X-195680Y380348D01*
X-192319Y378956D01*
G37*
G36*
X-217719Y378956D02*
X-214081Y378956D01*
X-210720Y380348D01*
X-208148Y382920D01*
X-206756Y386281D01*
X-206756Y389919D01*
X-208148Y393280D01*
X-210720Y395852D01*
X-214081Y397244D01*
X-217719Y397244D01*
X-221080Y395852D01*
X-223652Y393280D01*
X-225044Y389919D01*
X-225044Y386281D01*
X-223652Y382920D01*
X-221080Y380348D01*
X-217719Y378956D01*
G37*
G36*
X-243119Y378956D02*
X-239481Y378956D01*
X-236120Y380348D01*
X-233548Y382920D01*
X-232156Y386281D01*
X-232156Y389919D01*
X-233548Y393280D01*
X-236120Y395852D01*
X-239481Y397244D01*
X-243119Y397244D01*
X-246480Y395852D01*
X-249052Y393280D01*
X-250444Y389919D01*
X-250444Y386281D01*
X-249052Y382920D01*
X-246480Y380348D01*
X-243119Y378956D01*
G37*
G36*
X-268519Y378956D02*
X-264881Y378956D01*
X-261520Y380348D01*
X-258948Y382920D01*
X-257556Y386281D01*
X-257556Y389919D01*
X-258948Y393280D01*
X-261520Y395852D01*
X-264881Y397244D01*
X-268519Y397244D01*
X-271880Y395852D01*
X-274452Y393280D01*
X-275844Y389919D01*
X-275844Y386281D01*
X-274452Y382920D01*
X-271880Y380348D01*
X-268519Y378956D01*
G37*
G36*
X-319319Y378956D02*
X-315681Y378956D01*
X-312320Y380348D01*
X-309748Y382920D01*
X-308356Y386281D01*
X-308356Y389919D01*
X-309748Y393280D01*
X-312320Y395852D01*
X-315681Y397244D01*
X-319319Y397244D01*
X-322680Y395852D01*
X-325252Y393280D01*
X-326644Y389919D01*
X-326644Y386281D01*
X-325252Y382920D01*
X-322680Y380348D01*
X-319319Y378956D01*
G37*
G36*
X188681Y378956D02*
X192319Y378956D01*
X195680Y380348D01*
X198252Y382920D01*
X199644Y386281D01*
X199644Y389919D01*
X198252Y393280D01*
X195680Y395852D01*
X192319Y397244D01*
X188681Y397244D01*
X185320Y395852D01*
X182748Y393280D01*
X181356Y389919D01*
X181356Y386281D01*
X182748Y382920D01*
X185320Y380348D01*
X188681Y378956D01*
G37*
G36*
X239481Y378956D02*
X243119Y378956D01*
X246480Y380348D01*
X249052Y382920D01*
X250444Y386281D01*
X250444Y389919D01*
X249052Y393280D01*
X246480Y395852D01*
X243119Y397244D01*
X239481Y397244D01*
X236120Y395852D01*
X233548Y393280D01*
X232156Y389919D01*
X232156Y386281D01*
X233548Y382920D01*
X236120Y380348D01*
X239481Y378956D01*
G37*
G36*
X315681Y378956D02*
X319319Y378956D01*
X322680Y380348D01*
X325252Y382920D01*
X326644Y386281D01*
X326644Y389919D01*
X325252Y393280D01*
X322680Y395852D01*
X319319Y397244D01*
X315681Y397244D01*
X312320Y395852D01*
X309748Y393280D01*
X308356Y389919D01*
X308356Y386281D01*
X309748Y382920D01*
X312320Y380348D01*
X315681Y378956D01*
G37*
G36*
X290281Y378956D02*
X293919Y378956D01*
X297280Y380348D01*
X299852Y382920D01*
X301244Y386281D01*
X301244Y389919D01*
X299852Y393280D01*
X297280Y395852D01*
X293919Y397244D01*
X290281Y397244D01*
X286920Y395852D01*
X284348Y393280D01*
X282956Y389919D01*
X282956Y386281D01*
X284348Y382920D01*
X286920Y380348D01*
X290281Y378956D01*
G37*
G36*
X264881Y378956D02*
X268519Y378956D01*
X271880Y380348D01*
X274452Y382920D01*
X275844Y386281D01*
X275844Y389919D01*
X274452Y393280D01*
X271880Y395852D01*
X268519Y397244D01*
X264881Y397244D01*
X261520Y395852D01*
X258948Y393280D01*
X257556Y389919D01*
X257556Y386281D01*
X258948Y382920D01*
X261520Y380348D01*
X264881Y378956D01*
G37*
G36*
X214081Y378956D02*
X217719Y378956D01*
X221080Y380348D01*
X223652Y382920D01*
X225044Y386281D01*
X225044Y389919D01*
X223652Y393280D01*
X221080Y395852D01*
X217719Y397244D01*
X214081Y397244D01*
X210720Y395852D01*
X208148Y393280D01*
X206756Y389919D01*
X206756Y386281D01*
X208148Y382920D01*
X210720Y380348D01*
X214081Y378956D01*
G37*
G36*
X163281Y378956D02*
X166919Y378956D01*
X170280Y380348D01*
X172852Y382920D01*
X174244Y386281D01*
X174244Y389919D01*
X172852Y393280D01*
X170280Y395852D01*
X166919Y397244D01*
X163281Y397244D01*
X159920Y395852D01*
X157348Y393280D01*
X155956Y389919D01*
X155956Y386281D01*
X157348Y382920D01*
X159920Y380348D01*
X163281Y378956D01*
G37*
G36*
X137881Y378956D02*
X141519Y378956D01*
X144880Y380348D01*
X147452Y382920D01*
X148844Y386281D01*
X148844Y389919D01*
X147452Y393280D01*
X144880Y395852D01*
X141519Y397244D01*
X137881Y397244D01*
X134520Y395852D01*
X131948Y393280D01*
X130556Y389919D01*
X130556Y386281D01*
X131948Y382920D01*
X134520Y380348D01*
X137881Y378956D01*
G37*
G36*
X13462Y377940D02*
X14721Y377940D01*
X18455Y379487D01*
X21313Y382345D01*
X22860Y386079D01*
X22860Y387338D01*
X13462Y387338D01*
X13462Y377940D01*
G37*
G36*
X10679Y377940D02*
X11938Y377940D01*
X11938Y387338D01*
X2540Y387338D01*
X2540Y386079D01*
X4087Y382345D01*
X6945Y379487D01*
X10679Y377940D01*
G37*
G36*
X-37338Y377940D02*
X-36079Y377940D01*
X-32345Y379487D01*
X-29487Y382345D01*
X-27940Y386079D01*
X-27940Y387338D01*
X-37338Y387338D01*
X-37338Y377940D01*
G37*
G36*
X-40121Y377940D02*
X-38862Y377940D01*
X-38862Y387338D01*
X-48260Y387338D01*
X-48260Y386079D01*
X-46713Y382345D01*
X-43855Y379487D01*
X-40121Y377940D01*
G37*
G36*
X-291338Y377940D02*
X-290079Y377940D01*
X-286345Y379487D01*
X-283487Y382345D01*
X-281940Y386079D01*
X-281940Y387338D01*
X-291338Y387338D01*
X-291338Y377940D01*
G37*
G36*
X-294121Y377940D02*
X-292862Y377940D01*
X-292862Y387338D01*
X-302260Y387338D01*
X-302260Y386079D01*
X-300713Y382345D01*
X-297855Y379487D01*
X-294121Y377940D01*
G37*
G36*
X-291338Y363462D02*
X-281940Y363462D01*
X-281940Y364721D01*
X-283487Y368455D01*
X-286345Y371313D01*
X-290079Y372860D01*
X-291338Y372860D01*
X-291338Y363462D01*
G37*
G36*
X-302260Y363462D02*
X-292862Y363462D01*
X-292862Y372860D01*
X-294121Y372860D01*
X-297855Y371313D01*
X-300713Y368455D01*
X-302260Y364721D01*
X-302260Y363462D01*
G37*
G36*
X315681Y353556D02*
X319319Y353556D01*
X322680Y354948D01*
X325252Y357520D01*
X326644Y360881D01*
X326644Y364519D01*
X325252Y367880D01*
X322680Y370452D01*
X319319Y371844D01*
X315681Y371844D01*
X312320Y370452D01*
X309748Y367880D01*
X308356Y364519D01*
X308356Y360881D01*
X309748Y357520D01*
X312320Y354948D01*
X315681Y353556D01*
G37*
G36*
X163281Y353556D02*
X166919Y353556D01*
X170280Y354948D01*
X172852Y357520D01*
X174244Y360881D01*
X174244Y364519D01*
X172852Y367880D01*
X170280Y370452D01*
X166919Y371844D01*
X163281Y371844D01*
X159920Y370452D01*
X157348Y367880D01*
X155956Y364519D01*
X155956Y360881D01*
X157348Y357520D01*
X159920Y354948D01*
X163281Y353556D01*
G37*
G36*
X137881Y353556D02*
X141519Y353556D01*
X144880Y354948D01*
X147452Y357520D01*
X148844Y360881D01*
X148844Y364519D01*
X147452Y367880D01*
X144880Y370452D01*
X141519Y371844D01*
X137881Y371844D01*
X134520Y370452D01*
X131948Y367880D01*
X130556Y364519D01*
X130556Y360881D01*
X131948Y357520D01*
X134520Y354948D01*
X137881Y353556D01*
G37*
G36*
X112481Y353556D02*
X116119Y353556D01*
X119480Y354948D01*
X122052Y357520D01*
X123444Y360881D01*
X123444Y364519D01*
X122052Y367880D01*
X119480Y370452D01*
X116119Y371844D01*
X112481Y371844D01*
X109120Y370452D01*
X106548Y367880D01*
X105156Y364519D01*
X105156Y360881D01*
X106548Y357520D01*
X109120Y354948D01*
X112481Y353556D01*
G37*
G36*
X87081Y353556D02*
X90719Y353556D01*
X94080Y354948D01*
X96652Y357520D01*
X98044Y360881D01*
X98044Y364519D01*
X96652Y367880D01*
X94080Y370452D01*
X90719Y371844D01*
X87081Y371844D01*
X83720Y370452D01*
X81148Y367880D01*
X79756Y364519D01*
X79756Y360881D01*
X81148Y357520D01*
X83720Y354948D01*
X87081Y353556D01*
G37*
G36*
X61681Y353556D02*
X65319Y353556D01*
X68680Y354948D01*
X71252Y357520D01*
X72644Y360881D01*
X72644Y364519D01*
X71252Y367880D01*
X68680Y370452D01*
X65319Y371844D01*
X61681Y371844D01*
X58320Y370452D01*
X55748Y367880D01*
X54356Y364519D01*
X54356Y360881D01*
X55748Y357520D01*
X58320Y354948D01*
X61681Y353556D01*
G37*
G36*
X36281Y353556D02*
X39919Y353556D01*
X43280Y354948D01*
X45852Y357520D01*
X47244Y360881D01*
X47244Y364519D01*
X45852Y367880D01*
X43280Y370452D01*
X39919Y371844D01*
X36281Y371844D01*
X32920Y370452D01*
X30348Y367880D01*
X28956Y364519D01*
X28956Y360881D01*
X30348Y357520D01*
X32920Y354948D01*
X36281Y353556D01*
G37*
G36*
X10881Y353556D02*
X14519Y353556D01*
X17880Y354948D01*
X20452Y357520D01*
X21844Y360881D01*
X21844Y364519D01*
X20452Y367880D01*
X17880Y370452D01*
X14519Y371844D01*
X10881Y371844D01*
X7520Y370452D01*
X4948Y367880D01*
X3556Y364519D01*
X3556Y360881D01*
X4948Y357520D01*
X7520Y354948D01*
X10881Y353556D01*
G37*
G36*
X-141519Y353556D02*
X-137881Y353556D01*
X-134520Y354948D01*
X-131948Y357520D01*
X-130556Y360881D01*
X-130556Y364519D01*
X-131948Y367880D01*
X-134520Y370452D01*
X-137881Y371844D01*
X-141519Y371844D01*
X-144880Y370452D01*
X-147452Y367880D01*
X-148844Y364519D01*
X-148844Y360881D01*
X-147452Y357520D01*
X-144880Y354948D01*
X-141519Y353556D01*
G37*
G36*
X-39919Y353556D02*
X-36281Y353556D01*
X-32920Y354948D01*
X-30348Y357520D01*
X-28956Y360881D01*
X-28956Y364519D01*
X-30348Y367880D01*
X-32920Y370452D01*
X-36281Y371844D01*
X-39919Y371844D01*
X-43280Y370452D01*
X-45852Y367880D01*
X-47244Y364519D01*
X-47244Y360881D01*
X-45852Y357520D01*
X-43280Y354948D01*
X-39919Y353556D01*
G37*
G36*
X-319319Y353556D02*
X-315681Y353556D01*
X-312320Y354948D01*
X-309748Y357520D01*
X-308356Y360881D01*
X-308356Y364519D01*
X-309748Y367880D01*
X-312320Y370452D01*
X-315681Y371844D01*
X-319319Y371844D01*
X-322680Y370452D01*
X-325252Y367880D01*
X-326644Y364519D01*
X-326644Y360881D01*
X-325252Y357520D01*
X-322680Y354948D01*
X-319319Y353556D01*
G37*
G36*
X-90719Y353556D02*
X-87081Y353556D01*
X-83720Y354948D01*
X-81148Y357520D01*
X-79756Y360881D01*
X-79756Y364519D01*
X-81148Y367880D01*
X-83720Y370452D01*
X-87081Y371844D01*
X-90719Y371844D01*
X-94080Y370452D01*
X-96652Y367880D01*
X-98044Y364519D01*
X-98044Y360881D01*
X-96652Y357520D01*
X-94080Y354948D01*
X-90719Y353556D01*
G37*
G36*
X-116119Y353556D02*
X-112481Y353556D01*
X-109120Y354948D01*
X-106548Y357520D01*
X-105156Y360881D01*
X-105156Y364519D01*
X-106548Y367880D01*
X-109120Y370452D01*
X-112481Y371844D01*
X-116119Y371844D01*
X-119480Y370452D01*
X-122052Y367880D01*
X-123444Y364519D01*
X-123444Y360881D01*
X-122052Y357520D01*
X-119480Y354948D01*
X-116119Y353556D01*
G37*
G36*
X-166919Y353556D02*
X-163281Y353556D01*
X-159920Y354948D01*
X-157348Y357520D01*
X-155956Y360881D01*
X-155956Y364519D01*
X-157348Y367880D01*
X-159920Y370452D01*
X-163281Y371844D01*
X-166919Y371844D01*
X-170280Y370452D01*
X-172852Y367880D01*
X-174244Y364519D01*
X-174244Y360881D01*
X-172852Y357520D01*
X-170280Y354948D01*
X-166919Y353556D01*
G37*
G36*
X-192319Y353556D02*
X-188681Y353556D01*
X-185320Y354948D01*
X-182748Y357520D01*
X-181356Y360881D01*
X-181356Y364519D01*
X-182748Y367880D01*
X-185320Y370452D01*
X-188681Y371844D01*
X-192319Y371844D01*
X-195680Y370452D01*
X-198252Y367880D01*
X-199644Y364519D01*
X-199644Y360881D01*
X-198252Y357520D01*
X-195680Y354948D01*
X-192319Y353556D01*
G37*
G36*
X-217719Y353556D02*
X-214081Y353556D01*
X-210720Y354948D01*
X-208148Y357520D01*
X-206756Y360881D01*
X-206756Y364519D01*
X-208148Y367880D01*
X-210720Y370452D01*
X-214081Y371844D01*
X-217719Y371844D01*
X-221080Y370452D01*
X-223652Y367880D01*
X-225044Y364519D01*
X-225044Y360881D01*
X-223652Y357520D01*
X-221080Y354948D01*
X-217719Y353556D01*
G37*
G36*
X-243119Y353556D02*
X-239481Y353556D01*
X-236120Y354948D01*
X-233548Y357520D01*
X-232156Y360881D01*
X-232156Y364519D01*
X-233548Y367880D01*
X-236120Y370452D01*
X-239481Y371844D01*
X-243119Y371844D01*
X-246480Y370452D01*
X-249052Y367880D01*
X-250444Y364519D01*
X-250444Y360881D01*
X-249052Y357520D01*
X-246480Y354948D01*
X-243119Y353556D01*
G37*
G36*
X-268519Y353556D02*
X-264881Y353556D01*
X-261520Y354948D01*
X-258948Y357520D01*
X-257556Y360881D01*
X-257556Y364519D01*
X-258948Y367880D01*
X-261520Y370452D01*
X-264881Y371844D01*
X-268519Y371844D01*
X-271880Y370452D01*
X-274452Y367880D01*
X-275844Y364519D01*
X-275844Y360881D01*
X-274452Y357520D01*
X-271880Y354948D01*
X-268519Y353556D01*
G37*
G36*
X-14519Y353556D02*
X-10881Y353556D01*
X-7520Y354948D01*
X-4948Y357520D01*
X-3556Y360881D01*
X-3556Y364519D01*
X-4948Y367880D01*
X-7520Y370452D01*
X-10881Y371844D01*
X-14519Y371844D01*
X-17880Y370452D01*
X-20452Y367880D01*
X-21844Y364519D01*
X-21844Y360881D01*
X-20452Y357520D01*
X-17880Y354948D01*
X-14519Y353556D01*
G37*
G36*
X-65319Y353556D02*
X-61681Y353556D01*
X-58320Y354948D01*
X-55748Y357520D01*
X-54356Y360881D01*
X-54356Y364519D01*
X-55748Y367880D01*
X-58320Y370452D01*
X-61681Y371844D01*
X-65319Y371844D01*
X-68680Y370452D01*
X-71252Y367880D01*
X-72644Y364519D01*
X-72644Y360881D01*
X-71252Y357520D01*
X-68680Y354948D01*
X-65319Y353556D01*
G37*
G36*
X290281Y353556D02*
X293919Y353556D01*
X297280Y354948D01*
X299852Y357520D01*
X301244Y360881D01*
X301244Y364519D01*
X299852Y367880D01*
X297280Y370452D01*
X293919Y371844D01*
X290281Y371844D01*
X286920Y370452D01*
X284348Y367880D01*
X282956Y364519D01*
X282956Y360881D01*
X284348Y357520D01*
X286920Y354948D01*
X290281Y353556D01*
G37*
G36*
X264881Y353556D02*
X268519Y353556D01*
X271880Y354948D01*
X274452Y357520D01*
X275844Y360881D01*
X275844Y364519D01*
X274452Y367880D01*
X271880Y370452D01*
X268519Y371844D01*
X264881Y371844D01*
X261520Y370452D01*
X258948Y367880D01*
X257556Y364519D01*
X257556Y360881D01*
X258948Y357520D01*
X261520Y354948D01*
X264881Y353556D01*
G37*
G36*
X239481Y353556D02*
X243119Y353556D01*
X246480Y354948D01*
X249052Y357520D01*
X250444Y360881D01*
X250444Y364519D01*
X249052Y367880D01*
X246480Y370452D01*
X243119Y371844D01*
X239481Y371844D01*
X236120Y370452D01*
X233548Y367880D01*
X232156Y364519D01*
X232156Y360881D01*
X233548Y357520D01*
X236120Y354948D01*
X239481Y353556D01*
G37*
G36*
X214081Y353556D02*
X217719Y353556D01*
X221080Y354948D01*
X223652Y357520D01*
X225044Y360881D01*
X225044Y364519D01*
X223652Y367880D01*
X221080Y370452D01*
X217719Y371844D01*
X214081Y371844D01*
X210720Y370452D01*
X208148Y367880D01*
X206756Y364519D01*
X206756Y360881D01*
X208148Y357520D01*
X210720Y354948D01*
X214081Y353556D01*
G37*
G36*
X188681Y353556D02*
X192319Y353556D01*
X195680Y354948D01*
X198252Y357520D01*
X199644Y360881D01*
X199644Y364519D01*
X198252Y367880D01*
X195680Y370452D01*
X192319Y371844D01*
X188681Y371844D01*
X185320Y370452D01*
X182748Y367880D01*
X181356Y364519D01*
X181356Y360881D01*
X182748Y357520D01*
X185320Y354948D01*
X188681Y353556D01*
G37*
G36*
X-291338Y352540D02*
X-290079Y352540D01*
X-286345Y354087D01*
X-283487Y356945D01*
X-281940Y360679D01*
X-281940Y361938D01*
X-291338Y361938D01*
X-291338Y352540D01*
G37*
G36*
X-294121Y352540D02*
X-292862Y352540D01*
X-292862Y361938D01*
X-302260Y361938D01*
X-302260Y360679D01*
X-300713Y356945D01*
X-297855Y354087D01*
X-294121Y352540D01*
G37*
G36*
X13462Y338062D02*
X22860Y338062D01*
X22860Y339321D01*
X21313Y343055D01*
X18455Y345913D01*
X14721Y347460D01*
X13462Y347460D01*
X13462Y338062D01*
G37*
G36*
X-302260Y338062D02*
X-292862Y338062D01*
X-292862Y347460D01*
X-294121Y347460D01*
X-297855Y345913D01*
X-300713Y343055D01*
X-302260Y339321D01*
X-302260Y338062D01*
G37*
G36*
X2540Y338062D02*
X11938Y338062D01*
X11938Y347460D01*
X10679Y347460D01*
X6945Y345913D01*
X4087Y343055D01*
X2540Y339321D01*
X2540Y338062D01*
G37*
G36*
X-73660Y338062D02*
X-64262Y338062D01*
X-64262Y347460D01*
X-65521Y347460D01*
X-69255Y345913D01*
X-72113Y343055D01*
X-73660Y339321D01*
X-73660Y338062D01*
G37*
G36*
X-62738Y338062D02*
X-53340Y338062D01*
X-53340Y339321D01*
X-54887Y343055D01*
X-57745Y345913D01*
X-61479Y347460D01*
X-62738Y347460D01*
X-62738Y338062D01*
G37*
G36*
X-291338Y338062D02*
X-281940Y338062D01*
X-281940Y339321D01*
X-283487Y343055D01*
X-286345Y345913D01*
X-290079Y347460D01*
X-291338Y347460D01*
X-291338Y338062D01*
G37*
G36*
X-166919Y328156D02*
X-163281Y328156D01*
X-159920Y329548D01*
X-157348Y332120D01*
X-155956Y335481D01*
X-155956Y339119D01*
X-157348Y342480D01*
X-159920Y345052D01*
X-163281Y346444D01*
X-166919Y346444D01*
X-170280Y345052D01*
X-172852Y342480D01*
X-174244Y339119D01*
X-174244Y335481D01*
X-172852Y332120D01*
X-170280Y329548D01*
X-166919Y328156D01*
G37*
G36*
X36281Y328156D02*
X39919Y328156D01*
X43280Y329548D01*
X45852Y332120D01*
X47244Y335481D01*
X47244Y339119D01*
X45852Y342480D01*
X43280Y345052D01*
X39919Y346444D01*
X36281Y346444D01*
X32920Y345052D01*
X30348Y342480D01*
X28956Y339119D01*
X28956Y335481D01*
X30348Y332120D01*
X32920Y329548D01*
X36281Y328156D01*
G37*
G36*
X-14519Y328156D02*
X-10881Y328156D01*
X-7520Y329548D01*
X-4948Y332120D01*
X-3556Y335481D01*
X-3556Y339119D01*
X-4948Y342480D01*
X-7520Y345052D01*
X-10881Y346444D01*
X-14519Y346444D01*
X-17880Y345052D01*
X-20452Y342480D01*
X-21844Y339119D01*
X-21844Y335481D01*
X-20452Y332120D01*
X-17880Y329548D01*
X-14519Y328156D01*
G37*
G36*
X-39919Y328156D02*
X-36281Y328156D01*
X-32920Y329548D01*
X-30348Y332120D01*
X-28956Y335481D01*
X-28956Y339119D01*
X-30348Y342480D01*
X-32920Y345052D01*
X-36281Y346444D01*
X-39919Y346444D01*
X-43280Y345052D01*
X-45852Y342480D01*
X-47244Y339119D01*
X-47244Y335481D01*
X-45852Y332120D01*
X-43280Y329548D01*
X-39919Y328156D01*
G37*
G36*
X-116119Y328156D02*
X-112481Y328156D01*
X-109120Y329548D01*
X-106548Y332120D01*
X-105156Y335481D01*
X-105156Y339119D01*
X-106548Y342480D01*
X-109120Y345052D01*
X-112481Y346444D01*
X-116119Y346444D01*
X-119480Y345052D01*
X-122052Y342480D01*
X-123444Y339119D01*
X-123444Y335481D01*
X-122052Y332120D01*
X-119480Y329548D01*
X-116119Y328156D01*
G37*
G36*
X-141519Y328156D02*
X-137881Y328156D01*
X-134520Y329548D01*
X-131948Y332120D01*
X-130556Y335481D01*
X-130556Y339119D01*
X-131948Y342480D01*
X-134520Y345052D01*
X-137881Y346444D01*
X-141519Y346444D01*
X-144880Y345052D01*
X-147452Y342480D01*
X-148844Y339119D01*
X-148844Y335481D01*
X-147452Y332120D01*
X-144880Y329548D01*
X-141519Y328156D01*
G37*
G36*
X-90719Y328156D02*
X-87081Y328156D01*
X-83720Y329548D01*
X-81148Y332120D01*
X-79756Y335481D01*
X-79756Y339119D01*
X-81148Y342480D01*
X-83720Y345052D01*
X-87081Y346444D01*
X-90719Y346444D01*
X-94080Y345052D01*
X-96652Y342480D01*
X-98044Y339119D01*
X-98044Y335481D01*
X-96652Y332120D01*
X-94080Y329548D01*
X-90719Y328156D01*
G37*
G36*
X-192319Y328156D02*
X-188681Y328156D01*
X-185320Y329548D01*
X-182748Y332120D01*
X-181356Y335481D01*
X-181356Y339119D01*
X-182748Y342480D01*
X-185320Y345052D01*
X-188681Y346444D01*
X-192319Y346444D01*
X-195680Y345052D01*
X-198252Y342480D01*
X-199644Y339119D01*
X-199644Y335481D01*
X-198252Y332120D01*
X-195680Y329548D01*
X-192319Y328156D01*
G37*
G36*
X-217719Y328156D02*
X-214081Y328156D01*
X-210720Y329548D01*
X-208148Y332120D01*
X-206756Y335481D01*
X-206756Y339119D01*
X-208148Y342480D01*
X-210720Y345052D01*
X-214081Y346444D01*
X-217719Y346444D01*
X-221080Y345052D01*
X-223652Y342480D01*
X-225044Y339119D01*
X-225044Y335481D01*
X-223652Y332120D01*
X-221080Y329548D01*
X-217719Y328156D01*
G37*
G36*
X-243119Y328156D02*
X-239481Y328156D01*
X-236120Y329548D01*
X-233548Y332120D01*
X-232156Y335481D01*
X-232156Y339119D01*
X-233548Y342480D01*
X-236120Y345052D01*
X-239481Y346444D01*
X-243119Y346444D01*
X-246480Y345052D01*
X-249052Y342480D01*
X-250444Y339119D01*
X-250444Y335481D01*
X-249052Y332120D01*
X-246480Y329548D01*
X-243119Y328156D01*
G37*
G36*
X-268519Y328156D02*
X-264881Y328156D01*
X-261520Y329548D01*
X-258948Y332120D01*
X-257556Y335481D01*
X-257556Y339119D01*
X-258948Y342480D01*
X-261520Y345052D01*
X-264881Y346444D01*
X-268519Y346444D01*
X-271880Y345052D01*
X-274452Y342480D01*
X-275844Y339119D01*
X-275844Y335481D01*
X-274452Y332120D01*
X-271880Y329548D01*
X-268519Y328156D01*
G37*
G36*
X-319319Y328156D02*
X-315681Y328156D01*
X-312320Y329548D01*
X-309748Y332120D01*
X-308356Y335481D01*
X-308356Y339119D01*
X-309748Y342480D01*
X-312320Y345052D01*
X-315681Y346444D01*
X-319319Y346444D01*
X-322680Y345052D01*
X-325252Y342480D01*
X-326644Y339119D01*
X-326644Y335481D01*
X-325252Y332120D01*
X-322680Y329548D01*
X-319319Y328156D01*
G37*
G36*
X188681Y328156D02*
X192319Y328156D01*
X195680Y329548D01*
X198252Y332120D01*
X199644Y335481D01*
X199644Y339119D01*
X198252Y342480D01*
X195680Y345052D01*
X192319Y346444D01*
X188681Y346444D01*
X185320Y345052D01*
X182748Y342480D01*
X181356Y339119D01*
X181356Y335481D01*
X182748Y332120D01*
X185320Y329548D01*
X188681Y328156D01*
G37*
G36*
X214081Y328156D02*
X217719Y328156D01*
X221080Y329548D01*
X223652Y332120D01*
X225044Y335481D01*
X225044Y339119D01*
X223652Y342480D01*
X221080Y345052D01*
X217719Y346444D01*
X214081Y346444D01*
X210720Y345052D01*
X208148Y342480D01*
X206756Y339119D01*
X206756Y335481D01*
X208148Y332120D01*
X210720Y329548D01*
X214081Y328156D01*
G37*
G36*
X315681Y328156D02*
X319319Y328156D01*
X322680Y329548D01*
X325252Y332120D01*
X326644Y335481D01*
X326644Y339119D01*
X325252Y342480D01*
X322680Y345052D01*
X319319Y346444D01*
X315681Y346444D01*
X312320Y345052D01*
X309748Y342480D01*
X308356Y339119D01*
X308356Y335481D01*
X309748Y332120D01*
X312320Y329548D01*
X315681Y328156D01*
G37*
G36*
X290281Y328156D02*
X293919Y328156D01*
X297280Y329548D01*
X299852Y332120D01*
X301244Y335481D01*
X301244Y339119D01*
X299852Y342480D01*
X297280Y345052D01*
X293919Y346444D01*
X290281Y346444D01*
X286920Y345052D01*
X284348Y342480D01*
X282956Y339119D01*
X282956Y335481D01*
X284348Y332120D01*
X286920Y329548D01*
X290281Y328156D01*
G37*
G36*
X264881Y328156D02*
X268519Y328156D01*
X271880Y329548D01*
X274452Y332120D01*
X275844Y335481D01*
X275844Y339119D01*
X274452Y342480D01*
X271880Y345052D01*
X268519Y346444D01*
X264881Y346444D01*
X261520Y345052D01*
X258948Y342480D01*
X257556Y339119D01*
X257556Y335481D01*
X258948Y332120D01*
X261520Y329548D01*
X264881Y328156D01*
G37*
G36*
X239481Y328156D02*
X243119Y328156D01*
X246480Y329548D01*
X249052Y332120D01*
X250444Y335481D01*
X250444Y339119D01*
X249052Y342480D01*
X246480Y345052D01*
X243119Y346444D01*
X239481Y346444D01*
X236120Y345052D01*
X233548Y342480D01*
X232156Y339119D01*
X232156Y335481D01*
X233548Y332120D01*
X236120Y329548D01*
X239481Y328156D01*
G37*
G36*
X163281Y328156D02*
X166919Y328156D01*
X170280Y329548D01*
X172852Y332120D01*
X174244Y335481D01*
X174244Y339119D01*
X172852Y342480D01*
X170280Y345052D01*
X166919Y346444D01*
X163281Y346444D01*
X159920Y345052D01*
X157348Y342480D01*
X155956Y339119D01*
X155956Y335481D01*
X157348Y332120D01*
X159920Y329548D01*
X163281Y328156D01*
G37*
G36*
X137881Y328156D02*
X141519Y328156D01*
X144880Y329548D01*
X147452Y332120D01*
X148844Y335481D01*
X148844Y339119D01*
X147452Y342480D01*
X144880Y345052D01*
X141519Y346444D01*
X137881Y346444D01*
X134520Y345052D01*
X131948Y342480D01*
X130556Y339119D01*
X130556Y335481D01*
X131948Y332120D01*
X134520Y329548D01*
X137881Y328156D01*
G37*
G36*
X112481Y328156D02*
X116119Y328156D01*
X119480Y329548D01*
X122052Y332120D01*
X123444Y335481D01*
X123444Y339119D01*
X122052Y342480D01*
X119480Y345052D01*
X116119Y346444D01*
X112481Y346444D01*
X109120Y345052D01*
X106548Y342480D01*
X105156Y339119D01*
X105156Y335481D01*
X106548Y332120D01*
X109120Y329548D01*
X112481Y328156D01*
G37*
G36*
X87081Y328156D02*
X90719Y328156D01*
X94080Y329548D01*
X96652Y332120D01*
X98044Y335481D01*
X98044Y339119D01*
X96652Y342480D01*
X94080Y345052D01*
X90719Y346444D01*
X87081Y346444D01*
X83720Y345052D01*
X81148Y342480D01*
X79756Y339119D01*
X79756Y335481D01*
X81148Y332120D01*
X83720Y329548D01*
X87081Y328156D01*
G37*
G36*
X61681Y328156D02*
X65319Y328156D01*
X68680Y329548D01*
X71252Y332120D01*
X72644Y335481D01*
X72644Y339119D01*
X71252Y342480D01*
X68680Y345052D01*
X65319Y346444D01*
X61681Y346444D01*
X58320Y345052D01*
X55748Y342480D01*
X54356Y339119D01*
X54356Y335481D01*
X55748Y332120D01*
X58320Y329548D01*
X61681Y328156D01*
G37*
G36*
X13462Y327140D02*
X14721Y327140D01*
X18455Y328687D01*
X21313Y331545D01*
X22860Y335279D01*
X22860Y336538D01*
X13462Y336538D01*
X13462Y327140D01*
G37*
G36*
X10679Y327140D02*
X11938Y327140D01*
X11938Y336538D01*
X2540Y336538D01*
X2540Y335279D01*
X4087Y331545D01*
X6945Y328687D01*
X10679Y327140D01*
G37*
G36*
X-62738Y327140D02*
X-61479Y327140D01*
X-57745Y328687D01*
X-54887Y331545D01*
X-53340Y335279D01*
X-53340Y336538D01*
X-62738Y336538D01*
X-62738Y327140D01*
G37*
G36*
X-65521Y327140D02*
X-64262Y327140D01*
X-64262Y336538D01*
X-73660Y336538D01*
X-73660Y335279D01*
X-72113Y331545D01*
X-69255Y328687D01*
X-65521Y327140D01*
G37*
G36*
X-291338Y327140D02*
X-290079Y327140D01*
X-286345Y328687D01*
X-283487Y331545D01*
X-281940Y335279D01*
X-281940Y336538D01*
X-291338Y336538D01*
X-291338Y327140D01*
G37*
G36*
X-294121Y327140D02*
X-292862Y327140D01*
X-292862Y336538D01*
X-302260Y336538D01*
X-302260Y335279D01*
X-300713Y331545D01*
X-297855Y328687D01*
X-294121Y327140D01*
G37*
G36*
X252938Y274874D02*
X261262Y274874D01*
X268951Y278059D01*
X274837Y283944D01*
X278022Y291634D01*
X278022Y299957D01*
X274837Y307647D01*
X268951Y313533D01*
X261262Y316718D01*
X252938Y316718D01*
X245249Y313533D01*
X239363Y307647D01*
X236178Y299957D01*
X236178Y291634D01*
X239363Y283944D01*
X245249Y278059D01*
X252938Y274874D01*
G37*
G36*
X202138Y274874D02*
X210462Y274874D01*
X218151Y278059D01*
X224037Y283944D01*
X227222Y291634D01*
X227222Y299957D01*
X224037Y307647D01*
X218151Y313533D01*
X210462Y316718D01*
X202138Y316718D01*
X194449Y313533D01*
X188563Y307647D01*
X185378Y299957D01*
X185378Y291634D01*
X188563Y283944D01*
X194449Y278059D01*
X202138Y274874D01*
G37*
G36*
X-377570Y240584D02*
X-272430Y240584D01*
X-267680Y242552D01*
X-264045Y246187D01*
X-262078Y250936D01*
X-262078Y261077D01*
X-264045Y265826D01*
X-267680Y269461D01*
X-272430Y271428D01*
X-377570Y271428D01*
X-382320Y269461D01*
X-385955Y265826D01*
X-387922Y261077D01*
X-387922Y250936D01*
X-385955Y246187D01*
X-382320Y242552D01*
X-377570Y240584D01*
G37*
G36*
X114110Y246666D02*
X117030Y246666D01*
X119094Y248730D01*
X119094Y251650D01*
X117030Y253714D01*
X114110Y253714D01*
X112046Y251650D01*
X112046Y248730D01*
X114110Y246666D01*
G37*
G36*
X-395470Y229406D02*
X-391930Y229406D01*
X-389426Y231910D01*
X-389426Y235450D01*
X-391930Y237954D01*
X-395470Y237954D01*
X-397974Y235450D01*
X-397974Y231910D01*
X-395470Y229406D01*
G37*
G36*
X262390Y224326D02*
X265930Y224326D01*
X268434Y226830D01*
X268434Y230370D01*
X265930Y232874D01*
X262390Y232874D01*
X259886Y230370D01*
X259886Y226830D01*
X262390Y224326D01*
G37*
G36*
X244610Y224326D02*
X248150Y224326D01*
X250654Y226830D01*
X250654Y230370D01*
X248150Y232874D01*
X244610Y232874D01*
X242106Y230370D01*
X242106Y226830D01*
X244610Y224326D01*
G37*
G36*
X-90670Y224326D02*
X-87130Y224326D01*
X-84626Y226830D01*
X-84626Y230370D01*
X-87130Y232874D01*
X-90670Y232874D01*
X-93174Y230370D01*
X-93174Y226830D01*
X-90670Y224326D01*
G37*
G36*
X-223162Y185974D02*
X-214838Y185974D01*
X-207149Y189159D01*
X-201263Y195044D01*
X-198078Y202734D01*
X-198078Y211057D01*
X-201263Y218747D01*
X-207149Y224633D01*
X-214838Y227818D01*
X-223162Y227818D01*
X-230851Y224633D01*
X-236737Y218747D01*
X-239922Y211057D01*
X-239922Y202734D01*
X-236737Y195044D01*
X-230851Y189159D01*
X-223162Y185974D01*
G37*
G36*
X214838Y185974D02*
X223162Y185974D01*
X230851Y189159D01*
X236737Y195044D01*
X239922Y202734D01*
X239922Y211057D01*
X236737Y218747D01*
X230851Y224633D01*
X223162Y227818D01*
X214838Y227818D01*
X207149Y224633D01*
X201263Y218747D01*
X198078Y211057D01*
X198078Y202734D01*
X201263Y195044D01*
X207149Y189159D01*
X214838Y185974D01*
G37*
G36*
X-395470Y214166D02*
X-391930Y214166D01*
X-389426Y216670D01*
X-389426Y220210D01*
X-391930Y222714D01*
X-395470Y222714D01*
X-397974Y220210D01*
X-397974Y216670D01*
X-395470Y214166D01*
G37*
G36*
X-380230Y214166D02*
X-376690Y214166D01*
X-374186Y216670D01*
X-374186Y220210D01*
X-376690Y222714D01*
X-380230Y222714D01*
X-382734Y220210D01*
X-382734Y216670D01*
X-380230Y214166D01*
G37*
G36*
X259850Y212896D02*
X263390Y212896D01*
X265894Y215400D01*
X265894Y218940D01*
X263390Y221444D01*
X259850Y221444D01*
X257346Y218940D01*
X257346Y215400D01*
X259850Y212896D01*
G37*
G36*
X248420Y211626D02*
X251960Y211626D01*
X254464Y214130D01*
X254464Y217670D01*
X251960Y220174D01*
X248420Y220174D01*
X245916Y217670D01*
X245916Y214130D01*
X248420Y211626D01*
G37*
G36*
X112530Y206546D02*
X116070Y206546D01*
X118574Y209050D01*
X118574Y212590D01*
X116070Y215094D01*
X112530Y215094D01*
X110026Y212590D01*
X110026Y209050D01*
X112530Y206546D01*
G37*
G36*
X-74965Y203640D02*
X-72046Y203640D01*
X-69982Y205705D01*
X-69982Y208624D01*
X-72046Y210688D01*
X-74965Y210688D01*
X-77030Y208624D01*
X-77030Y205705D01*
X-74965Y203640D01*
G37*
G36*
X-380230Y197656D02*
X-376690Y197656D01*
X-374186Y200160D01*
X-374186Y203700D01*
X-376690Y206204D01*
X-380230Y206204D01*
X-382734Y203700D01*
X-382734Y200160D01*
X-380230Y197656D01*
G37*
G36*
X-395470Y197656D02*
X-391930Y197656D01*
X-389426Y200160D01*
X-389426Y203700D01*
X-391930Y206204D01*
X-395470Y206204D01*
X-397974Y203700D01*
X-397974Y200160D01*
X-395470Y197656D01*
G37*
G36*
X113800Y183686D02*
X117340Y183686D01*
X119844Y186190D01*
X119844Y189730D01*
X117340Y192234D01*
X113800Y192234D01*
X111296Y189730D01*
X111296Y186190D01*
X113800Y183686D01*
G37*
G36*
X37600Y178606D02*
X41140Y178606D01*
X43644Y181110D01*
X43644Y184650D01*
X41140Y187154D01*
X37600Y187154D01*
X35096Y184650D01*
X35096Y181110D01*
X37600Y178606D01*
G37*
G36*
X1841Y172256D02*
X5381Y172256D01*
X7885Y174760D01*
X7885Y178300D01*
X5381Y180804D01*
X1841Y180804D01*
X-663Y178300D01*
X-663Y174760D01*
X1841Y172256D01*
G37*
G36*
X-361180Y170986D02*
X-357640Y170986D01*
X-355136Y173490D01*
X-355136Y177030D01*
X-357640Y179534D01*
X-361180Y179534D01*
X-363684Y177030D01*
X-363684Y173490D01*
X-361180Y170986D01*
G37*
G36*
X-314239Y157226D02*
X-310601Y157226D01*
X-307240Y158618D01*
X-304668Y161190D01*
X-303276Y164551D01*
X-303276Y168189D01*
X-304668Y171550D01*
X-307240Y174122D01*
X-310601Y175514D01*
X-314239Y175514D01*
X-317600Y174122D01*
X-320172Y171550D01*
X-321564Y168189D01*
X-321564Y164551D01*
X-320172Y161190D01*
X-317600Y158618D01*
X-314239Y157226D01*
G37*
G36*
X-339639Y157226D02*
X-336001Y157226D01*
X-332640Y158618D01*
X-330068Y161190D01*
X-328676Y164551D01*
X-328676Y168189D01*
X-330068Y171550D01*
X-332640Y174122D01*
X-336001Y175514D01*
X-339639Y175514D01*
X-343000Y174122D01*
X-345572Y171550D01*
X-346964Y168189D01*
X-346964Y164551D01*
X-345572Y161190D01*
X-343000Y158618D01*
X-339639Y157226D01*
G37*
G36*
X72200Y164116D02*
X75120Y164116D01*
X77184Y166180D01*
X77184Y169100D01*
X75120Y171164D01*
X72200Y171164D01*
X70136Y169100D01*
X70136Y166180D01*
X72200Y164116D01*
G37*
G36*
X1676Y163245D02*
X4596Y163245D01*
X6660Y165309D01*
X6660Y168229D01*
X4596Y170293D01*
X1676Y170293D01*
X-388Y168229D01*
X-388Y165309D01*
X1676Y163245D01*
G37*
G36*
X-16700Y162857D02*
X-13780Y162857D01*
X-11716Y164921D01*
X-11716Y167841D01*
X-13780Y169905D01*
X-16700Y169905D01*
X-18764Y167841D01*
X-18764Y164921D01*
X-16700Y162857D01*
G37*
G36*
X87130Y160826D02*
X90670Y160826D01*
X93174Y163330D01*
X93174Y166870D01*
X90670Y169374D01*
X87130Y169374D01*
X84626Y166870D01*
X84626Y163330D01*
X87130Y160826D01*
G37*
G36*
X109990Y159556D02*
X113530Y159556D01*
X116034Y162060D01*
X116034Y165600D01*
X113530Y168104D01*
X109990Y168104D01*
X107486Y165600D01*
X107486Y162060D01*
X109990Y159556D01*
G37*
G36*
X-361180Y155746D02*
X-357640Y155746D01*
X-355136Y158250D01*
X-355136Y161790D01*
X-357640Y164294D01*
X-361180Y164294D01*
X-363684Y161790D01*
X-363684Y158250D01*
X-361180Y155746D01*
G37*
G36*
X123960Y154476D02*
X127500Y154476D01*
X130004Y156980D01*
X130004Y160520D01*
X127500Y163024D01*
X123960Y163024D01*
X121456Y160520D01*
X121456Y156980D01*
X123960Y154476D01*
G37*
G36*
X99830Y146856D02*
X103370Y146856D01*
X105874Y149360D01*
X105874Y152900D01*
X103370Y155404D01*
X99830Y155404D01*
X97326Y152900D01*
X97326Y149360D01*
X99830Y146856D01*
G37*
G36*
X44260Y147606D02*
X47180Y147606D01*
X49244Y149670D01*
X49244Y152590D01*
X47180Y154654D01*
X44260Y154654D01*
X42196Y152590D01*
X42196Y149670D01*
X44260Y147606D01*
G37*
G36*
X85860Y144316D02*
X89400Y144316D01*
X91904Y146820D01*
X91904Y150360D01*
X89400Y152864D01*
X85860Y152864D01*
X83356Y150360D01*
X83356Y146820D01*
X85860Y144316D01*
G37*
G36*
X-328160Y135426D02*
X-324620Y135426D01*
X-322116Y137930D01*
X-322116Y141470D01*
X-324620Y143974D01*
X-328160Y143974D01*
X-330664Y141470D01*
X-330664Y137930D01*
X-328160Y135426D01*
G37*
G36*
X-288790Y134156D02*
X-285250Y134156D01*
X-282746Y136660D01*
X-282746Y140200D01*
X-285250Y142704D01*
X-288790Y142704D01*
X-291294Y140200D01*
X-291294Y136660D01*
X-288790Y134156D01*
G37*
G36*
X244610Y131616D02*
X248150Y131616D01*
X250654Y134120D01*
X250654Y137660D01*
X248150Y140164D01*
X244610Y140164D01*
X242106Y137660D01*
X242106Y134120D01*
X244610Y131616D01*
G37*
G36*
X-230Y134112D02*
X5588Y134112D01*
X5588Y139930D01*
X5041Y139930D01*
X2623Y138928D01*
X772Y137077D01*
X-230Y134659D01*
X-230Y134112D01*
G37*
G36*
X7112Y114070D02*
X7659Y114070D01*
X10077Y115072D01*
X11928Y116923D01*
X11996Y117086D01*
X12140Y117312D01*
X12386Y117489D01*
X12682Y117556D01*
X12980Y117503D01*
X13235Y117338D01*
X13404Y117086D01*
X13472Y116923D01*
X15323Y115072D01*
X17741Y114070D01*
X18288Y114070D01*
X18288Y121412D01*
X25630Y121412D01*
X25630Y121959D01*
X24628Y124377D01*
X22777Y126228D01*
X22614Y126296D01*
X22388Y126440D01*
X22211Y126686D01*
X22144Y126982D01*
X22197Y127280D01*
X22362Y127535D01*
X22614Y127704D01*
X22777Y127772D01*
X24628Y129623D01*
X25630Y132041D01*
X25630Y132588D01*
X18288Y132588D01*
X18288Y139930D01*
X17741Y139930D01*
X15323Y138928D01*
X13472Y137077D01*
X13404Y136914D01*
X13260Y136688D01*
X13014Y136511D01*
X12718Y136444D01*
X12420Y136497D01*
X12166Y136662D01*
X11996Y136914D01*
X11928Y137077D01*
X10077Y138928D01*
X7659Y139930D01*
X7112Y139930D01*
X7112Y132588D01*
X-230Y132588D01*
X-230Y132041D01*
X772Y129623D01*
X2623Y127772D01*
X2786Y127704D01*
X3012Y127560D01*
X3189Y127314D01*
X3256Y127018D01*
X3203Y126720D01*
X3038Y126466D01*
X2786Y126296D01*
X2623Y126228D01*
X772Y124377D01*
X-230Y121959D01*
X-230Y121412D01*
X7112Y121412D01*
X7112Y114070D01*
G37*
G36*
X19812Y134112D02*
X25630Y134112D01*
X25630Y134659D01*
X24628Y137077D01*
X22777Y138928D01*
X20359Y139930D01*
X19812Y139930D01*
X19812Y134112D01*
G37*
G36*
X206510Y126536D02*
X210050Y126536D01*
X212554Y129040D01*
X212554Y132580D01*
X210050Y135084D01*
X206510Y135084D01*
X204006Y132580D01*
X204006Y129040D01*
X206510Y126536D01*
G37*
G36*
X-57650Y121456D02*
X-54110Y121456D01*
X-51606Y123960D01*
X-51606Y127500D01*
X-54110Y130004D01*
X-57650Y130004D01*
X-60154Y127500D01*
X-60154Y123960D01*
X-57650Y121456D01*
G37*
G36*
X85860Y120186D02*
X89400Y120186D01*
X91904Y122690D01*
X91904Y126230D01*
X89400Y128734D01*
X85860Y128734D01*
X83356Y126230D01*
X83356Y122690D01*
X85860Y120186D01*
G37*
G36*
X273820Y117646D02*
X277360Y117646D01*
X279864Y120150D01*
X279864Y123690D01*
X277360Y126194D01*
X273820Y126194D01*
X271316Y123690D01*
X271316Y120150D01*
X273820Y117646D01*
G37*
G36*
X145550Y113836D02*
X149090Y113836D01*
X151594Y116340D01*
X151594Y119880D01*
X149090Y122384D01*
X145550Y122384D01*
X143046Y119880D01*
X143046Y116340D01*
X145550Y113836D01*
G37*
G36*
X199450Y112006D02*
X202990Y112006D01*
X205494Y114510D01*
X205494Y118050D01*
X202990Y120554D01*
X199450Y120554D01*
X196946Y118050D01*
X196946Y114510D01*
X199450Y112006D01*
G37*
G36*
X19812Y114070D02*
X20359Y114070D01*
X22777Y115072D01*
X24628Y116923D01*
X25630Y119341D01*
X25630Y119888D01*
X19812Y119888D01*
X19812Y114070D01*
G37*
G36*
X5041Y114070D02*
X5588Y114070D01*
X5588Y119888D01*
X-230Y119888D01*
X-230Y119341D01*
X772Y116923D01*
X2623Y115072D01*
X5041Y114070D01*
G37*
G36*
X41410Y111296D02*
X44950Y111296D01*
X47454Y113800D01*
X47454Y117340D01*
X44950Y119844D01*
X41410Y119844D01*
X38906Y117340D01*
X38906Y113800D01*
X41410Y111296D01*
G37*
G36*
X-420870Y110026D02*
X-417330Y110026D01*
X-414826Y112530D01*
X-414826Y116070D01*
X-417330Y118574D01*
X-420870Y118574D01*
X-423374Y116070D01*
X-423374Y112530D01*
X-420870Y110026D01*
G37*
G36*
X-18280Y105963D02*
X-14740Y105963D01*
X-12236Y108466D01*
X-12236Y112007D01*
X-14740Y114511D01*
X-18280Y114511D01*
X-20784Y112007D01*
X-20784Y108466D01*
X-18280Y105963D01*
G37*
G36*
X201430Y101136D02*
X204970Y101136D01*
X207474Y103640D01*
X207474Y107180D01*
X204970Y109684D01*
X201430Y109684D01*
X198926Y107180D01*
X198926Y103640D01*
X201430Y101136D01*
G37*
G36*
X-15740Y95803D02*
X-12200Y95803D01*
X-9696Y98306D01*
X-9696Y101847D01*
X-12200Y104351D01*
X-15740Y104351D01*
X-18244Y101847D01*
X-18244Y98306D01*
X-15740Y95803D01*
G37*
G36*
X-3040Y90976D02*
X500Y90976D01*
X3004Y93480D01*
X3004Y97020D01*
X500Y99524D01*
X-3040Y99524D01*
X-5544Y97020D01*
X-5544Y93480D01*
X-3040Y90976D01*
G37*
G36*
X254770Y89706D02*
X258310Y89706D01*
X260814Y92210D01*
X260814Y95750D01*
X258310Y98254D01*
X254770Y98254D01*
X252266Y95750D01*
X252266Y92210D01*
X254770Y89706D01*
G37*
G36*
X32520Y78276D02*
X36060Y78276D01*
X38564Y80780D01*
X38564Y84320D01*
X36060Y86824D01*
X32520Y86824D01*
X30016Y84320D01*
X30016Y80780D01*
X32520Y78276D01*
G37*
G36*
X23630Y71926D02*
X27170Y71926D01*
X29674Y74430D01*
X29674Y77970D01*
X27170Y80474D01*
X23630Y80474D01*
X21126Y77970D01*
X21126Y74430D01*
X23630Y71926D01*
G37*
G36*
X172220Y71926D02*
X175760Y71926D01*
X178264Y74430D01*
X178264Y77970D01*
X175760Y80474D01*
X172220Y80474D01*
X169716Y77970D01*
X169716Y74430D01*
X172220Y71926D01*
G37*
G36*
X-17970Y72676D02*
X-15050Y72676D01*
X-12986Y74740D01*
X-12986Y77660D01*
X-15050Y79724D01*
X-17970Y79724D01*
X-20034Y77660D01*
X-20034Y74740D01*
X-17970Y72676D01*
G37*
G36*
X277630Y68116D02*
X281170Y68116D01*
X283674Y70620D01*
X283674Y74160D01*
X281170Y76664D01*
X277630Y76664D01*
X275126Y74160D01*
X275126Y70620D01*
X277630Y68116D01*
G37*
G36*
X102220Y54146D02*
X105760Y54146D01*
X108264Y56650D01*
X108264Y60190D01*
X107989Y60465D01*
X107836Y60685D01*
X107766Y60980D01*
X107817Y61279D01*
X107981Y61534D01*
X108231Y61706D01*
X108528Y61766D01*
X110990Y61766D01*
X113494Y64270D01*
X113494Y67810D01*
X110990Y70314D01*
X107450Y70314D01*
X104946Y67810D01*
X104946Y64270D01*
X105221Y63995D01*
X105374Y63775D01*
X105444Y63480D01*
X105393Y63181D01*
X105229Y62926D01*
X104979Y62754D01*
X104682Y62694D01*
X102220Y62694D01*
X99716Y60190D01*
X99716Y56650D01*
X102220Y54146D01*
G37*
G36*
X125230Y60496D02*
X128770Y60496D01*
X131274Y63000D01*
X131274Y66540D01*
X128770Y69044D01*
X125230Y69044D01*
X122726Y66540D01*
X122726Y63000D01*
X125230Y60496D01*
G37*
G36*
X268740Y60496D02*
X272280Y60496D01*
X274784Y63000D01*
X274784Y66540D01*
X272280Y69044D01*
X268740Y69044D01*
X266236Y66540D01*
X266236Y63000D01*
X268740Y60496D01*
G37*
G36*
X167140Y60496D02*
X170680Y60496D01*
X173184Y63000D01*
X173184Y66540D01*
X170680Y69044D01*
X167140Y69044D01*
X164636Y66540D01*
X164636Y63000D01*
X167140Y60496D01*
G37*
G36*
X154440Y60496D02*
X157980Y60496D01*
X160484Y63000D01*
X160484Y66540D01*
X157980Y69044D01*
X154440Y69044D01*
X151936Y66540D01*
X151936Y63000D01*
X154440Y60496D01*
G37*
G36*
X140470Y60496D02*
X144010Y60496D01*
X146514Y63000D01*
X146514Y66540D01*
X144010Y69044D01*
X140470Y69044D01*
X137966Y66540D01*
X137966Y63000D01*
X140470Y60496D01*
G37*
G36*
X280170Y51606D02*
X283710Y51606D01*
X286214Y54110D01*
X286214Y57650D01*
X283710Y60154D01*
X280170Y60154D01*
X277666Y57650D01*
X277666Y54110D01*
X280170Y51606D01*
G37*
G36*
X-265930Y51606D02*
X-262390Y51606D01*
X-259886Y54110D01*
X-259886Y57650D01*
X-262390Y60154D01*
X-265930Y60154D01*
X-268434Y57650D01*
X-268434Y54110D01*
X-265930Y51606D01*
G37*
G36*
X167140Y49066D02*
X170680Y49066D01*
X173184Y51570D01*
X173184Y55110D01*
X170680Y57614D01*
X167140Y57614D01*
X164636Y55110D01*
X164636Y51570D01*
X167140Y49066D01*
G37*
G36*
X154440Y49066D02*
X157980Y49066D01*
X160484Y51570D01*
X160484Y55110D01*
X157980Y57614D01*
X154440Y57614D01*
X151936Y55110D01*
X151936Y51570D01*
X154440Y49066D01*
G37*
G36*
X140470Y49066D02*
X144010Y49066D01*
X146514Y51570D01*
X146514Y55110D01*
X144010Y57614D01*
X140470Y57614D01*
X137966Y55110D01*
X137966Y51570D01*
X140470Y49066D01*
G37*
G36*
X125230Y47796D02*
X128770Y47796D01*
X131274Y50300D01*
X131274Y53840D01*
X128770Y56344D01*
X125230Y56344D01*
X122726Y53840D01*
X122726Y50300D01*
X125230Y47796D01*
G37*
G36*
X268740Y42716D02*
X272280Y42716D01*
X274784Y45220D01*
X274784Y48760D01*
X272280Y51264D01*
X268740Y51264D01*
X266236Y48760D01*
X266236Y45220D01*
X268740Y42716D01*
G37*
G36*
X-14470Y33826D02*
X-10930Y33826D01*
X-8426Y36330D01*
X-8426Y39870D01*
X-10930Y42374D01*
X-14470Y42374D01*
X-16974Y39870D01*
X-16974Y36330D01*
X-14470Y33826D01*
G37*
G36*
X280170Y31286D02*
X283710Y31286D01*
X286214Y33790D01*
X286214Y37330D01*
X283710Y39834D01*
X280170Y39834D01*
X277666Y37330D01*
X277666Y33790D01*
X280170Y31286D01*
G37*
G36*
X-237990Y26206D02*
X-234450Y26206D01*
X-231946Y28710D01*
X-231946Y32250D01*
X-234450Y34754D01*
X-237990Y34754D01*
X-240494Y32250D01*
X-240494Y28710D01*
X-237990Y26206D01*
G37*
G36*
X206510Y24936D02*
X210050Y24936D01*
X212554Y27440D01*
X212554Y30980D01*
X210050Y33484D01*
X206510Y33484D01*
X204006Y30980D01*
X204006Y27440D01*
X206510Y24936D01*
G37*
G36*
X-72890Y19856D02*
X-69350Y19856D01*
X-66846Y22360D01*
X-66846Y25900D01*
X-69350Y28404D01*
X-72890Y28404D01*
X-75394Y25900D01*
X-75394Y22360D01*
X-72890Y19856D01*
G37*
G36*
X268740Y16046D02*
X272280Y16046D01*
X274784Y18550D01*
X274784Y22090D01*
X272280Y24594D01*
X268740Y24594D01*
X266236Y22090D01*
X266236Y18550D01*
X268740Y16046D01*
G37*
G36*
X-226560Y13506D02*
X-223020Y13506D01*
X-220516Y16010D01*
X-220516Y19550D01*
X-223020Y22054D01*
X-226560Y22054D01*
X-229064Y19550D01*
X-229064Y16010D01*
X-226560Y13506D01*
G37*
G36*
X141740Y8426D02*
X145280Y8426D01*
X147784Y10930D01*
X147784Y14470D01*
X145280Y16974D01*
X141740Y16974D01*
X139236Y14470D01*
X139236Y10930D01*
X141740Y8426D01*
G37*
G36*
X-65825Y2792D02*
X-62284Y2792D01*
X-59780Y5295D01*
X-59780Y8836D01*
X-62284Y11340D01*
X-65825Y11340D01*
X-68328Y8836D01*
X-68328Y5295D01*
X-65825Y2792D01*
G37*
G36*
X238260Y-3004D02*
X241800Y-3004D01*
X244304Y-500D01*
X244304Y3040D01*
X241800Y5544D01*
X238260Y5544D01*
X235756Y3040D01*
X235756Y-500D01*
X238260Y-3004D01*
G37*
G36*
X-249420Y-6814D02*
X-245880Y-6814D01*
X-243376Y-4310D01*
X-243376Y-770D01*
X-245880Y1734D01*
X-249420Y1734D01*
X-251924Y-770D01*
X-251924Y-4310D01*
X-249420Y-6814D01*
G37*
G36*
X-268470Y-8084D02*
X-264930Y-8084D01*
X-262426Y-5580D01*
X-262426Y-2040D01*
X-264930Y464D01*
X-268470Y464D01*
X-270974Y-2040D01*
X-270974Y-5580D01*
X-268470Y-8084D01*
G37*
G36*
X-225290Y-16974D02*
X-221750Y-16974D01*
X-219246Y-14470D01*
X-219246Y-10930D01*
X-221750Y-8426D01*
X-225290Y-8426D01*
X-227794Y-10930D01*
X-227794Y-14470D01*
X-225290Y-16974D01*
G37*
G36*
X-11712Y-22922D02*
X-9315Y-22922D01*
X-7101Y-22005D01*
X-5407Y-20310D01*
X-4490Y-18096D01*
X-4490Y-15700D01*
X-5407Y-13486D01*
X-7101Y-11791D01*
X-9315Y-10874D01*
X-11712Y-10874D01*
X-13926Y-11791D01*
X-15620Y-13486D01*
X-16538Y-15700D01*
X-16538Y-18096D01*
X-15620Y-20310D01*
X-13926Y-22005D01*
X-11712Y-22922D01*
G37*
G36*
X-26598Y-22922D02*
X-24202Y-22922D01*
X-21988Y-22005D01*
X-20293Y-20310D01*
X-19376Y-18096D01*
X-19376Y-15700D01*
X-20293Y-13486D01*
X-21988Y-11791D01*
X-24202Y-10874D01*
X-26598Y-10874D01*
X-28812Y-11791D01*
X-30507Y-13486D01*
X-31424Y-15700D01*
X-31424Y-18096D01*
X-30507Y-20310D01*
X-28812Y-22005D01*
X-26598Y-22922D01*
G37*
G36*
X-248150Y-22054D02*
X-244610Y-22054D01*
X-242106Y-19550D01*
X-242106Y-16010D01*
X-244610Y-13506D01*
X-248150Y-13506D01*
X-250654Y-16010D01*
X-250654Y-19550D01*
X-248150Y-22054D01*
G37*
G36*
X71890Y-23324D02*
X75430Y-23324D01*
X77934Y-20820D01*
X77934Y-17280D01*
X75430Y-14776D01*
X71890Y-14776D01*
X69386Y-17280D01*
X69386Y-20820D01*
X71890Y-23324D01*
G37*
G36*
X-174490Y-23324D02*
X-170950Y-23324D01*
X-168446Y-20820D01*
X-168446Y-17280D01*
X-170950Y-14776D01*
X-174490Y-14776D01*
X-176994Y-17280D01*
X-176994Y-20820D01*
X-174490Y-23324D01*
G37*
G36*
X-192270Y-23324D02*
X-188730Y-23324D01*
X-186226Y-20820D01*
X-186226Y-17280D01*
X-188730Y-14776D01*
X-192270Y-14776D01*
X-194774Y-17280D01*
X-194774Y-20820D01*
X-192270Y-23324D01*
G37*
G36*
X121420Y-34754D02*
X124960Y-34754D01*
X127464Y-32250D01*
X127464Y-28710D01*
X124960Y-26206D01*
X121420Y-26206D01*
X118916Y-28710D01*
X118916Y-32250D01*
X121420Y-34754D01*
G37*
G36*
X-241800Y-34754D02*
X-238260Y-34754D01*
X-235756Y-32250D01*
X-235756Y-28710D01*
X-238260Y-26206D01*
X-241800Y-26206D01*
X-244304Y-28710D01*
X-244304Y-32250D01*
X-241800Y-34754D01*
G37*
G36*
X-184650Y-37294D02*
X-181110Y-37294D01*
X-178606Y-34790D01*
X-178606Y-31250D01*
X-181110Y-28746D01*
X-184650Y-28746D01*
X-187154Y-31250D01*
X-187154Y-34790D01*
X-184650Y-37294D01*
G37*
G36*
X-203700Y-37294D02*
X-200160Y-37294D01*
X-197656Y-34790D01*
X-197656Y-31250D01*
X-200160Y-28746D01*
X-203700Y-28746D01*
X-206204Y-31250D01*
X-206204Y-34790D01*
X-203700Y-37294D01*
G37*
G36*
X73160Y-37294D02*
X76700Y-37294D01*
X79204Y-34790D01*
X79204Y-31250D01*
X76700Y-28746D01*
X73160Y-28746D01*
X70656Y-31250D01*
X70656Y-34790D01*
X73160Y-37294D01*
G37*
G36*
X-151630Y-38564D02*
X-148090Y-38564D01*
X-145586Y-36060D01*
X-145586Y-32520D01*
X-148090Y-30016D01*
X-151630Y-30016D01*
X-154134Y-32520D01*
X-154134Y-36060D01*
X-151630Y-38564D01*
G37*
G36*
X-53840Y-39834D02*
X-50300Y-39834D01*
X-47796Y-37330D01*
X-47796Y-33790D01*
X-50300Y-31286D01*
X-53840Y-31286D01*
X-56344Y-33790D01*
X-56344Y-37330D01*
X-53840Y-39834D01*
G37*
G36*
X118880Y-44914D02*
X122420Y-44914D01*
X124924Y-42410D01*
X124924Y-38870D01*
X122420Y-36366D01*
X118880Y-36366D01*
X116376Y-38870D01*
X116376Y-42410D01*
X118880Y-44914D01*
G37*
G36*
X82050Y-46184D02*
X85590Y-46184D01*
X88094Y-43680D01*
X88094Y-40140D01*
X85590Y-37636D01*
X82050Y-37636D01*
X79546Y-40140D01*
X79546Y-43680D01*
X82050Y-46184D01*
G37*
G36*
X108720Y-46184D02*
X112260Y-46184D01*
X114764Y-43680D01*
X114764Y-40140D01*
X112260Y-37636D01*
X108720Y-37636D01*
X106216Y-40140D01*
X106216Y-43680D01*
X108720Y-46184D01*
G37*
G36*
X-71624Y-57610D02*
X-68084Y-57610D01*
X-65580Y-55106D01*
X-65580Y-51566D01*
X-68084Y-49062D01*
X-71624Y-49062D01*
X-74128Y-51566D01*
X-74128Y-55106D01*
X-71624Y-57610D01*
G37*
G36*
X-48760Y-61424D02*
X-45220Y-61424D01*
X-42716Y-58920D01*
X-42716Y-55380D01*
X-45220Y-52876D01*
X-48760Y-52876D01*
X-51264Y-55380D01*
X-51264Y-58920D01*
X-48760Y-61424D01*
G37*
G36*
X144280Y-65234D02*
X147820Y-65234D01*
X149956Y-63098D01*
X150187Y-62940D01*
X150483Y-62875D01*
X150781Y-62931D01*
X151034Y-63098D01*
X153170Y-65234D01*
X156710Y-65234D01*
X159214Y-62730D01*
X159214Y-59190D01*
X156710Y-56686D01*
X153170Y-56686D01*
X151034Y-58822D01*
X150803Y-58980D01*
X150507Y-59045D01*
X150209Y-58989D01*
X149956Y-58822D01*
X147820Y-56686D01*
X144280Y-56686D01*
X141776Y-59190D01*
X141776Y-62730D01*
X144280Y-65234D01*
G37*
G36*
X-61460Y-67774D02*
X-57920Y-67774D01*
X-55416Y-65270D01*
X-55416Y-61730D01*
X-57920Y-59226D01*
X-61460Y-59226D01*
X-63964Y-61730D01*
X-63964Y-65270D01*
X-61460Y-67774D01*
G37*
G36*
X-235450Y-70314D02*
X-231910Y-70314D01*
X-229406Y-67810D01*
X-229406Y-64270D01*
X-231910Y-61766D01*
X-235450Y-61766D01*
X-237954Y-64270D01*
X-237954Y-67810D01*
X-235450Y-70314D01*
G37*
G36*
X-24630Y-70314D02*
X-21090Y-70314D01*
X-18586Y-67810D01*
X-18586Y-64270D01*
X-21090Y-61766D01*
X-24630Y-61766D01*
X-27134Y-64270D01*
X-27134Y-67810D01*
X-24630Y-70314D01*
G37*
G36*
X-90670Y-80474D02*
X-87130Y-80474D01*
X-84626Y-77970D01*
X-84626Y-74430D01*
X-87130Y-71926D01*
X-90670Y-71926D01*
X-93174Y-74430D01*
X-93174Y-77970D01*
X-90670Y-80474D01*
G37*
G36*
X-100830Y-98254D02*
X-97290Y-98254D01*
X-94786Y-95750D01*
X-94786Y-92210D01*
X-97290Y-89706D01*
X-100830Y-89706D01*
X-103334Y-92210D01*
X-103334Y-95750D01*
X-100830Y-98254D01*
G37*
G36*
X252230Y-100794D02*
X255770Y-100794D01*
X258274Y-98290D01*
X258274Y-94750D01*
X255770Y-92246D01*
X252230Y-92246D01*
X249726Y-94750D01*
X249726Y-98290D01*
X252230Y-100794D01*
G37*
G36*
X97290Y-107144D02*
X100830Y-107144D01*
X103334Y-104640D01*
X103334Y-101100D01*
X100830Y-98596D01*
X97290Y-98596D01*
X94786Y-101100D01*
X94786Y-104640D01*
X97290Y-107144D01*
G37*
G36*
X-83050Y-112224D02*
X-79510Y-112224D01*
X-77006Y-109720D01*
X-77006Y-106180D01*
X-79510Y-103676D01*
X-83050Y-103676D01*
X-85554Y-106180D01*
X-85554Y-109720D01*
X-83050Y-112224D01*
G37*
G36*
X-196080Y-112224D02*
X-192540Y-112224D01*
X-190036Y-109720D01*
X-190036Y-106180D01*
X-192540Y-103676D01*
X-196080Y-103676D01*
X-198584Y-106180D01*
X-198584Y-109720D01*
X-196080Y-112224D01*
G37*
G36*
X-51862Y-148718D02*
X-43538Y-148718D01*
X-35849Y-145533D01*
X-29963Y-139647D01*
X-26778Y-131957D01*
X-26778Y-123634D01*
X-29963Y-115944D01*
X-35849Y-110059D01*
X-43538Y-106874D01*
X-51862Y-106874D01*
X-59551Y-110059D01*
X-65437Y-115944D01*
X-68622Y-123634D01*
X-68622Y-131957D01*
X-65437Y-139647D01*
X-59551Y-145533D01*
X-51862Y-148718D01*
G37*
G36*
X214130Y-131274D02*
X217670Y-131274D01*
X220174Y-128770D01*
X220174Y-125230D01*
X217670Y-122726D01*
X214130Y-122726D01*
X211626Y-125230D01*
X211626Y-128770D01*
X214130Y-131274D01*
G37*
G36*
X45220Y-145244D02*
X48760Y-145244D01*
X51264Y-142740D01*
X51264Y-139200D01*
X48760Y-136696D01*
X45220Y-136696D01*
X42716Y-139200D01*
X42716Y-142740D01*
X45220Y-145244D01*
G37*
G36*
X-11930Y-147784D02*
X-8390Y-147784D01*
X-5886Y-145280D01*
X-5886Y-141740D01*
X-8390Y-139236D01*
X-11930Y-139236D01*
X-14434Y-141740D01*
X-14434Y-145280D01*
X-11930Y-147784D01*
G37*
G36*
X-241800Y-149054D02*
X-238260Y-149054D01*
X-235756Y-146550D01*
X-235756Y-143010D01*
X-238260Y-140506D01*
X-241800Y-140506D01*
X-244304Y-143010D01*
X-244304Y-146550D01*
X-241800Y-149054D01*
G37*
G36*
X-226560Y-150324D02*
X-223020Y-150324D01*
X-220516Y-147820D01*
X-220516Y-144280D01*
X-223020Y-141776D01*
X-226560Y-141776D01*
X-229064Y-144280D01*
X-229064Y-147820D01*
X-226560Y-150324D01*
G37*
G36*
X-278630Y-150324D02*
X-275090Y-150324D01*
X-272586Y-147820D01*
X-272586Y-144280D01*
X-275090Y-141776D01*
X-278630Y-141776D01*
X-281134Y-144280D01*
X-281134Y-147820D01*
X-278630Y-150324D01*
G37*
G36*
X5894Y-151594D02*
X9434Y-151594D01*
X11938Y-149090D01*
X11938Y-145550D01*
X9434Y-143046D01*
X5894Y-143046D01*
X3390Y-145550D01*
X3390Y-149090D01*
X5894Y-151594D01*
G37*
G36*
X-257040Y-152864D02*
X-253500Y-152864D01*
X-250996Y-150360D01*
X-250996Y-146820D01*
X-253500Y-144316D01*
X-257040Y-144316D01*
X-259544Y-146820D01*
X-259544Y-150360D01*
X-257040Y-152864D01*
G37*
G36*
X-224020Y-163024D02*
X-220480Y-163024D01*
X-217976Y-160520D01*
X-217976Y-156980D01*
X-220480Y-154476D01*
X-224020Y-154476D01*
X-226524Y-156980D01*
X-226524Y-160520D01*
X-224020Y-163024D01*
G37*
G36*
X281440Y-164294D02*
X284980Y-164294D01*
X287484Y-161790D01*
X287484Y-158250D01*
X284980Y-155746D01*
X281440Y-155746D01*
X278936Y-158250D01*
X278936Y-161790D01*
X281440Y-164294D01*
G37*
G36*
X270010Y-164294D02*
X273550Y-164294D01*
X276054Y-161790D01*
X276054Y-158250D01*
X273550Y-155746D01*
X270010Y-155746D01*
X267506Y-158250D01*
X267506Y-161790D01*
X270010Y-164294D01*
G37*
G36*
X131580Y-164294D02*
X135120Y-164294D01*
X137624Y-161790D01*
X137624Y-158250D01*
X135120Y-155746D01*
X131580Y-155746D01*
X129076Y-158250D01*
X129076Y-161790D01*
X131580Y-164294D01*
G37*
G36*
X-278630Y-164294D02*
X-275090Y-164294D01*
X-272586Y-161790D01*
X-272586Y-158250D01*
X-275090Y-155746D01*
X-278630Y-155746D01*
X-281134Y-158250D01*
X-281134Y-161790D01*
X-278630Y-164294D01*
G37*
G36*
X281440Y-175724D02*
X284980Y-175724D01*
X287484Y-173220D01*
X287484Y-169680D01*
X284980Y-167176D01*
X281440Y-167176D01*
X278936Y-169680D01*
X278936Y-173220D01*
X281440Y-175724D01*
G37*
G36*
X270010Y-176994D02*
X273550Y-176994D01*
X276054Y-174490D01*
X276054Y-170950D01*
X273550Y-168446D01*
X270010Y-168446D01*
X267506Y-170950D01*
X267506Y-174490D01*
X270010Y-176994D01*
G37*
G36*
X-278630Y-176994D02*
X-275090Y-176994D01*
X-272586Y-174490D01*
X-272586Y-170950D01*
X-275090Y-168446D01*
X-278630Y-168446D01*
X-281134Y-170950D01*
X-281134Y-174490D01*
X-278630Y-176994D01*
G37*
G36*
X-61460Y-180804D02*
X-57920Y-180804D01*
X-55416Y-178300D01*
X-55416Y-174760D01*
X-57920Y-172256D01*
X-61460Y-172256D01*
X-63964Y-174760D01*
X-63964Y-178300D01*
X-61460Y-180804D01*
G37*
G36*
X64270Y-182074D02*
X67810Y-182074D01*
X70314Y-179570D01*
X70314Y-176030D01*
X67810Y-173526D01*
X64270Y-173526D01*
X61766Y-176030D01*
X61766Y-179570D01*
X64270Y-182074D01*
G37*
G36*
X27440Y-185884D02*
X30980Y-185884D01*
X33484Y-183380D01*
X33484Y-179840D01*
X30980Y-177336D01*
X27440Y-177336D01*
X24936Y-179840D01*
X24936Y-183380D01*
X27440Y-185884D01*
G37*
G36*
X-276090Y-187154D02*
X-272550Y-187154D01*
X-270046Y-184650D01*
X-270046Y-181110D01*
X-272550Y-178606D01*
X-276090Y-178606D01*
X-278594Y-181110D01*
X-278594Y-184650D01*
X-276090Y-187154D01*
G37*
G36*
X270010Y-189694D02*
X273550Y-189694D01*
X276054Y-187190D01*
X276054Y-183650D01*
X273550Y-181146D01*
X270010Y-181146D01*
X267506Y-183650D01*
X267506Y-187190D01*
X270010Y-189694D01*
G37*
G36*
X281440Y-189694D02*
X284980Y-189694D01*
X287484Y-187190D01*
X287484Y-183650D01*
X284980Y-181146D01*
X281440Y-181146D01*
X278936Y-183650D01*
X278936Y-187190D01*
X281440Y-189694D01*
G37*
G36*
X136660Y-193504D02*
X140200Y-193504D01*
X142704Y-191000D01*
X142704Y-187460D01*
X140200Y-184956D01*
X136660Y-184956D01*
X134156Y-187460D01*
X134156Y-191000D01*
X136660Y-193504D01*
G37*
G36*
X42680Y-197314D02*
X46220Y-197314D01*
X48724Y-194810D01*
X48724Y-191270D01*
X46220Y-188766D01*
X42680Y-188766D01*
X40176Y-191270D01*
X40176Y-194810D01*
X42680Y-197314D01*
G37*
G36*
X104910Y-199854D02*
X108450Y-199854D01*
X110954Y-197350D01*
X110954Y-193810D01*
X108450Y-191306D01*
X104910Y-191306D01*
X102406Y-193810D01*
X102406Y-197350D01*
X104910Y-199854D01*
G37*
G36*
X-202430Y-215094D02*
X-198890Y-215094D01*
X-196386Y-212590D01*
X-196386Y-209050D01*
X-198890Y-206546D01*
X-202430Y-206546D01*
X-204934Y-209050D01*
X-204934Y-212590D01*
X-202430Y-215094D01*
G37*
G36*
X-254500Y-217634D02*
X-250960Y-217634D01*
X-248456Y-215130D01*
X-248456Y-211590D01*
X-250960Y-209086D01*
X-254500Y-209086D01*
X-257004Y-211590D01*
X-257004Y-215130D01*
X-254500Y-217634D01*
G37*
G36*
X-243070Y-217634D02*
X-239530Y-217634D01*
X-237026Y-215130D01*
X-237026Y-211590D01*
X-239530Y-209086D01*
X-243070Y-209086D01*
X-245574Y-211590D01*
X-245574Y-215130D01*
X-243070Y-217634D01*
G37*
G36*
X-187190Y-231604D02*
X-183650Y-231604D01*
X-181146Y-229100D01*
X-181146Y-225560D01*
X-183650Y-223056D01*
X-187190Y-223056D01*
X-189694Y-225560D01*
X-189694Y-229100D01*
X-187190Y-231604D01*
G37*
G36*
X-223162Y-275718D02*
X-214838Y-275718D01*
X-207149Y-272533D01*
X-201263Y-266647D01*
X-198078Y-258957D01*
X-198078Y-250634D01*
X-201263Y-242944D01*
X-207149Y-237059D01*
X-214838Y-233874D01*
X-223162Y-233874D01*
X-230851Y-237059D01*
X-236737Y-242944D01*
X-239922Y-250634D01*
X-239922Y-258957D01*
X-236737Y-266647D01*
X-230851Y-272533D01*
X-223162Y-275718D01*
G37*
G36*
X391930Y-254464D02*
X395470Y-254464D01*
X397974Y-251960D01*
X397974Y-248420D01*
X395470Y-245916D01*
X391930Y-245916D01*
X389426Y-248420D01*
X389426Y-251960D01*
X391930Y-254464D01*
G37*
G36*
X404630Y-254464D02*
X408170Y-254464D01*
X410674Y-251960D01*
X410674Y-248420D01*
X408170Y-245916D01*
X404630Y-245916D01*
X402126Y-248420D01*
X402126Y-251960D01*
X404630Y-254464D01*
G37*
G36*
X259850Y-255734D02*
X263390Y-255734D01*
X265894Y-253230D01*
X265894Y-249690D01*
X263390Y-247186D01*
X259850Y-247186D01*
X257346Y-249690D01*
X257346Y-253230D01*
X259850Y-255734D01*
G37*
G36*
X273820Y-255734D02*
X277360Y-255734D01*
X279864Y-253230D01*
X279864Y-249690D01*
X277360Y-247186D01*
X273820Y-247186D01*
X271316Y-249690D01*
X271316Y-253230D01*
X273820Y-255734D01*
G37*
G36*
X169680Y-260814D02*
X173220Y-260814D01*
X175724Y-258310D01*
X175724Y-254770D01*
X173220Y-252266D01*
X169680Y-252266D01*
X167176Y-254770D01*
X167176Y-258310D01*
X169680Y-260814D01*
G37*
G36*
X-29710Y-265894D02*
X-26170Y-265894D01*
X-23666Y-263390D01*
X-23666Y-259850D01*
X-26170Y-257346D01*
X-29710Y-257346D01*
X-32214Y-259850D01*
X-32214Y-263390D01*
X-29710Y-265894D01*
G37*
G36*
X391930Y-267164D02*
X395470Y-267164D01*
X397974Y-264660D01*
X397974Y-261120D01*
X395470Y-258616D01*
X391930Y-258616D01*
X389426Y-261120D01*
X389426Y-264660D01*
X391930Y-267164D01*
G37*
G36*
X404630Y-267164D02*
X408170Y-267164D01*
X410674Y-264660D01*
X410674Y-261120D01*
X408170Y-258616D01*
X404630Y-258616D01*
X402126Y-261120D01*
X402126Y-264660D01*
X404630Y-267164D01*
G37*
G36*
X273820Y-268434D02*
X277360Y-268434D01*
X279864Y-265930D01*
X279864Y-262390D01*
X277360Y-259886D01*
X273820Y-259886D01*
X271316Y-262390D01*
X271316Y-265930D01*
X273820Y-268434D01*
G37*
G36*
X259850Y-268434D02*
X263390Y-268434D01*
X265894Y-265930D01*
X265894Y-262390D01*
X263390Y-259886D01*
X259850Y-259886D01*
X257346Y-262390D01*
X257346Y-265930D01*
X259850Y-268434D01*
G37*
G36*
X182380Y-269704D02*
X185920Y-269704D01*
X188424Y-267200D01*
X188424Y-263660D01*
X185920Y-261156D01*
X182380Y-261156D01*
X179876Y-263660D01*
X179876Y-267200D01*
X182380Y-269704D01*
G37*
G36*
X71890Y-276054D02*
X75430Y-276054D01*
X77934Y-273550D01*
X77934Y-270010D01*
X75430Y-267506D01*
X71890Y-267506D01*
X69386Y-270010D01*
X69386Y-273550D01*
X71890Y-276054D01*
G37*
G36*
X162060Y-277324D02*
X165600Y-277324D01*
X168104Y-274820D01*
X168104Y-271280D01*
X165600Y-268776D01*
X162060Y-268776D01*
X159556Y-271280D01*
X159556Y-274820D01*
X162060Y-277324D01*
G37*
G36*
X273820Y-279864D02*
X277360Y-279864D01*
X279864Y-277360D01*
X279864Y-273820D01*
X277360Y-271316D01*
X273820Y-271316D01*
X271316Y-273820D01*
X271316Y-277360D01*
X273820Y-279864D01*
G37*
G36*
X391930Y-279864D02*
X395470Y-279864D01*
X397974Y-277360D01*
X397974Y-273820D01*
X395470Y-271316D01*
X391930Y-271316D01*
X389426Y-273820D01*
X389426Y-277360D01*
X391930Y-279864D01*
G37*
G36*
X259850Y-279864D02*
X263390Y-279864D01*
X265894Y-277360D01*
X265894Y-273820D01*
X263390Y-271316D01*
X259850Y-271316D01*
X257346Y-273820D01*
X257346Y-277360D01*
X259850Y-279864D01*
G37*
G36*
X404630Y-279864D02*
X408170Y-279864D01*
X410674Y-277360D01*
X410674Y-273820D01*
X408170Y-271316D01*
X404630Y-271316D01*
X402126Y-273820D01*
X402126Y-277360D01*
X404630Y-279864D01*
G37*
G36*
X182380Y-284944D02*
X185920Y-284944D01*
X188424Y-282440D01*
X188424Y-278900D01*
X185920Y-276396D01*
X182380Y-276396D01*
X179876Y-278900D01*
X179876Y-282440D01*
X182380Y-284944D01*
G37*
G36*
X404630Y-290024D02*
X408170Y-290024D01*
X410674Y-287520D01*
X410674Y-283980D01*
X408170Y-281476D01*
X404630Y-281476D01*
X402126Y-283980D01*
X402126Y-287520D01*
X404630Y-290024D01*
G37*
G36*
X259850Y-291294D02*
X263390Y-291294D01*
X265894Y-288790D01*
X265894Y-285250D01*
X263390Y-282746D01*
X259850Y-282746D01*
X257346Y-285250D01*
X257346Y-288790D01*
X259850Y-291294D01*
G37*
G36*
X56650Y-293834D02*
X60190Y-293834D01*
X62694Y-291330D01*
X62694Y-287790D01*
X60190Y-285286D01*
X56650Y-285286D01*
X54146Y-287790D01*
X54146Y-291330D01*
X56650Y-293834D01*
G37*
G36*
X-381070Y-320328D02*
X-275930Y-320328D01*
X-271180Y-318361D01*
X-267545Y-314726D01*
X-265578Y-309977D01*
X-265578Y-299836D01*
X-267545Y-295087D01*
X-271180Y-291452D01*
X-275930Y-289484D01*
X-381070Y-289484D01*
X-385820Y-291452D01*
X-389455Y-295087D01*
X-391422Y-299836D01*
X-391422Y-309977D01*
X-389455Y-314726D01*
X-385820Y-318361D01*
X-381070Y-320328D01*
G37*
G36*
X275930Y-320328D02*
X381070Y-320328D01*
X385820Y-318361D01*
X389455Y-314726D01*
X391422Y-309977D01*
X391422Y-299836D01*
X389455Y-295087D01*
X385820Y-291452D01*
X381070Y-289484D01*
X275930Y-289484D01*
X271180Y-291452D01*
X267545Y-295087D01*
X265578Y-299836D01*
X265578Y-309977D01*
X267545Y-314726D01*
X271180Y-318361D01*
X275930Y-320328D01*
G37*
G36*
X192540Y-301625D02*
X196080Y-301625D01*
X198584Y-299121D01*
X198584Y-295580D01*
X196080Y-293077D01*
X192540Y-293077D01*
X190036Y-295580D01*
X190036Y-299121D01*
X192540Y-301625D01*
G37*
G36*
X-162070Y-325328D02*
X-56930Y-325328D01*
X-52180Y-323361D01*
X-48545Y-319726D01*
X-46578Y-314977D01*
X-46578Y-304836D01*
X-48545Y-300087D01*
X-52180Y-296452D01*
X-56930Y-294484D01*
X-162070Y-294484D01*
X-166820Y-296452D01*
X-170455Y-300087D01*
X-172422Y-304836D01*
X-172422Y-314977D01*
X-170455Y-319726D01*
X-166820Y-323361D01*
X-162070Y-325328D01*
G37*
G36*
X-168140Y-345904D02*
X-164600Y-345904D01*
X-162096Y-343400D01*
X-162096Y-339860D01*
X-164600Y-337356D01*
X-168140Y-337356D01*
X-170644Y-339860D01*
X-170644Y-343400D01*
X-168140Y-345904D01*
G37*
G36*
X-274820Y-347174D02*
X-271280Y-347174D01*
X-268776Y-344670D01*
X-268776Y-341130D01*
X-271280Y-338626D01*
X-274820Y-338626D01*
X-277324Y-341130D01*
X-277324Y-344670D01*
X-274820Y-347174D01*
G37*
G36*
X-154136Y-391052D02*
X-145813Y-391052D01*
X-138123Y-387867D01*
X-132237Y-381981D01*
X-129052Y-374292D01*
X-129052Y-365968D01*
X-132237Y-358279D01*
X-138123Y-352393D01*
X-145813Y-349208D01*
X-154136Y-349208D01*
X-161826Y-352393D01*
X-167711Y-358279D01*
X-170896Y-365968D01*
X-170896Y-374292D01*
X-167711Y-381981D01*
X-161826Y-387867D01*
X-154136Y-391052D01*
G37*
G36*
X-409315Y-425593D02*
X-400000Y-427236D01*
X-390685Y-425593D01*
X-382493Y-420864D01*
X-376413Y-413618D01*
X-373178Y-404730D01*
X-373178Y-395271D01*
X-376413Y-386382D01*
X-382493Y-379136D01*
X-390685Y-374407D01*
X-400000Y-372764D01*
X-409315Y-374407D01*
X-417507Y-379136D01*
X-423587Y-386382D01*
X-426822Y-395271D01*
X-426822Y-404730D01*
X-423587Y-413618D01*
X-417507Y-420864D01*
X-409315Y-425593D01*
G37*
G36*
X390685Y-425593D02*
X400000Y-427236D01*
X409315Y-425593D01*
X417507Y-420864D01*
X423587Y-413618D01*
X426822Y-404730D01*
X426822Y-395271D01*
X423587Y-386382D01*
X417507Y-379136D01*
X409315Y-374407D01*
X400000Y-372764D01*
X390685Y-374407D01*
X382493Y-379136D01*
X376413Y-386382D01*
X373178Y-395271D01*
X373178Y-404730D01*
X376413Y-413618D01*
X382493Y-420864D01*
X390685Y-425593D01*
G37*
G36*
X-154136Y-441852D02*
X-145813Y-441852D01*
X-138123Y-438667D01*
X-132237Y-432781D01*
X-129052Y-425092D01*
X-129052Y-416768D01*
X-132237Y-409079D01*
X-138123Y-403193D01*
X-145813Y-400008D01*
X-154136Y-400008D01*
X-161826Y-403193D01*
X-167711Y-409079D01*
X-170896Y-416768D01*
X-170896Y-425092D01*
X-167711Y-432781D01*
X-161826Y-438667D01*
X-154136Y-441852D01*
G37*
G36*
X-108450Y-422104D02*
X-104910Y-422104D01*
X-102406Y-419600D01*
X-102406Y-416060D01*
X-104910Y-413556D01*
X-108450Y-413556D01*
X-110954Y-416060D01*
X-110954Y-419600D01*
X-108450Y-422104D01*
G37*
G36*
X-310380Y-424644D02*
X-306840Y-424644D01*
X-304336Y-422140D01*
X-304336Y-418600D01*
X-306840Y-416096D01*
X-310380Y-416096D01*
X-312884Y-418600D01*
X-312884Y-422140D01*
X-310380Y-424644D01*
G37*
G36*
X163330Y-439884D02*
X166870Y-439884D01*
X169374Y-437380D01*
X169374Y-433840D01*
X166870Y-431336D01*
X163330Y-431336D01*
X160826Y-433840D01*
X160826Y-437380D01*
X163330Y-439884D01*
G37*
G36*
X-288790Y-439884D02*
X-285250Y-439884D01*
X-282746Y-437380D01*
X-282746Y-433840D01*
X-285250Y-431336D01*
X-288790Y-431336D01*
X-291294Y-433840D01*
X-291294Y-437380D01*
X-288790Y-439884D01*
G37*
G36*
X-118610Y-443694D02*
X-115070Y-443694D01*
X-112566Y-441190D01*
X-112566Y-437650D01*
X-115070Y-435146D01*
X-118610Y-435146D01*
X-121114Y-437650D01*
X-121114Y-441190D01*
X-118610Y-443694D01*
G37*
%LPD*%
D10*
X-317500Y337300D03*
X-317500Y362700D03*
X-292100Y337300D03*
X-292100Y362700D03*
X-266700Y337300D03*
X-266700Y362700D03*
X-241300Y337300D03*
X-241300Y362700D03*
X-215900Y337300D03*
X-215900Y362700D03*
X-190500Y337300D03*
X-190500Y362700D03*
X-165100Y337300D03*
X-165100Y362700D03*
X-139700Y337300D03*
X-139700Y362700D03*
X-114300Y337300D03*
X-114300Y362700D03*
X-88900Y337300D03*
X-88900Y362700D03*
X-63500Y337300D03*
X-63500Y362700D03*
X-38100Y337300D03*
X-38100Y362700D03*
X-12700Y337300D03*
X-12700Y362700D03*
X12700Y337300D03*
X12700Y362700D03*
X38100Y337300D03*
X38100Y362700D03*
X63500Y337300D03*
X63500Y362700D03*
X88900Y337300D03*
X88900Y362700D03*
X114300Y337300D03*
X114300Y362700D03*
X139700Y337300D03*
X139700Y362700D03*
X165100Y337300D03*
X165100Y362700D03*
X190500Y337300D03*
X190500Y362700D03*
X215900Y337300D03*
X215900Y362700D03*
X241300Y337300D03*
X241300Y362700D03*
X266700Y337300D03*
X266700Y362700D03*
X292100Y337300D03*
X292100Y362700D03*
X317500Y337300D03*
X317500Y362700D03*
X-317500Y388100D03*
X-317500Y413500D03*
X-292100Y388100D03*
X-292100Y413500D03*
X-266700Y388100D03*
X-266700Y413500D03*
X-241300Y388100D03*
X-241300Y413500D03*
X-215900Y388100D03*
X-215900Y413500D03*
X-190500Y388100D03*
X-190500Y413500D03*
X-165100Y388100D03*
X-165100Y413500D03*
X-139700Y388100D03*
X-139700Y413500D03*
X-114300Y388100D03*
X-114300Y413500D03*
X-88900Y388100D03*
X-88900Y413500D03*
X-63500Y388100D03*
X-63500Y413500D03*
X-38100Y388100D03*
X-38100Y413500D03*
X-12700Y388100D03*
X-12700Y413500D03*
X12700Y388100D03*
X12700Y413500D03*
X38100Y388100D03*
X38100Y413500D03*
X63500Y388100D03*
X63500Y413500D03*
X88900Y388100D03*
X88900Y413500D03*
X114300Y388100D03*
X114300Y413500D03*
X139700Y388100D03*
X139700Y413500D03*
X165100Y388100D03*
X165100Y413500D03*
X190500Y388100D03*
X190500Y413500D03*
X215900Y388100D03*
X215900Y413500D03*
X241300Y388100D03*
X241300Y413500D03*
X266700Y388100D03*
X266700Y413500D03*
X292100Y388100D03*
X292100Y413500D03*
X317500Y388100D03*
X317500Y413500D03*
X-312420Y166370D03*
X-337820Y166370D03*
D11*
X6350Y133350D03*
X19050Y133350D03*
X6350Y120650D03*
X19050Y120650D03*
D12*
X59690Y21590D03*
X-54610Y86360D03*
X31750Y96520D03*
X-2540Y54610D03*
X-19050Y-38100D03*
X-262890Y-365760D03*
X-213360Y-308610D03*
X-316230Y-341630D03*
X-256540Y-350520D03*
X165100Y203200D03*
X165100Y177800D03*
X167640Y297180D03*
X181610Y267970D03*
X-182880Y245110D03*
X-181610Y306070D03*
X-121920Y304800D03*
X-99060Y304800D03*
X132080Y226060D03*
X133350Y278130D03*
X88900Y304800D03*
X-10160Y304800D03*
X-212090Y138430D03*
X-190500Y138430D03*
X-190500Y118110D03*
X-254000Y99060D03*
X-232410Y95250D03*
X-12700Y25400D03*
X-142240Y-17780D03*
X-129540Y25400D03*
X-152400Y24130D03*
X-162560Y68580D03*
X-364490Y-327660D03*
X-265430Y-252730D03*
X-265430Y-284480D03*
X-176530Y-290830D03*
X-53340Y-281940D03*
X-161290Y-250190D03*
X-384810Y-281940D03*
X-369570Y-207010D03*
X-298450Y-200660D03*
X-369570Y-5080D03*
X-326390Y-57150D03*
X-302260Y-12700D03*
X-383540Y104140D03*
X-268680Y-200100D03*
X-226060Y-91440D03*
X-204470Y-46990D03*
X-228004Y-289560D03*
X-224790Y-416560D03*
X-237490Y-416560D03*
X-237490Y-429260D03*
X-224790Y-429260D03*
X-288290Y-403860D03*
X-300990Y-365760D03*
X382270Y-194310D03*
X382270Y-208280D03*
X383540Y-95250D03*
X289560Y-91440D03*
X289560Y-105410D03*
X303530Y154940D03*
X322580Y154940D03*
X344170Y154940D03*
X386080Y30480D03*
X387350Y43180D03*
X328930Y298450D03*
X386080Y280670D03*
X386080Y269240D03*
X388620Y138430D03*
X387350Y171450D03*
X260350Y118110D03*
X257810Y162560D03*
X292100Y135890D03*
X-52691Y74309D03*
X125730Y-220980D03*
X182880Y-34290D03*
X-167777Y-264116D03*
X34290Y-251460D03*
X-34290Y-157480D03*
X-34290Y-107950D03*
X232410Y-233680D03*
X232410Y-254000D03*
X232410Y-276860D03*
X236220Y-132080D03*
X198120Y-123190D03*
X-337820Y-200660D03*
X-316230Y-200660D03*
X-367030Y-53340D03*
X-351790Y-50800D03*
X-349250Y-7620D03*
X-383540Y128270D03*
X-384810Y86360D03*
X-331470Y-7620D03*
X149421Y-110353D03*
X257810Y52070D03*
X257810Y26670D03*
X16510Y-217170D03*
X-78740Y-16510D03*
X-21590Y-109220D03*
X198120Y77470D03*
X250190Y-35560D03*
X250190Y-21590D03*
X127000Y-283210D03*
X146050Y-284480D03*
X125730Y-231140D03*
X-135890Y-100330D03*
X-129540Y-107950D03*
X-114300Y-102870D03*
X-60960Y104140D03*
X5080Y-106680D03*
X-256540Y231140D03*
X-116840Y118110D03*
X-229870Y76200D03*
X86360Y134620D03*
X-144780Y307340D03*
X-269240Y309880D03*
X43180Y10862D03*
X125730Y-298450D03*
X-236220Y308610D03*
X2540Y187960D03*
X142240Y-3810D03*
X95250Y52070D03*
X-135890Y-57150D03*
X83820Y-257810D03*
X222250Y-73660D03*
X195580Y-35560D03*
X27940Y-273050D03*
X-205144Y-228600D03*
X-383540Y-252730D03*
X-265430Y-267970D03*
X-383540Y-266700D03*
X140970Y-93866D03*
X-359410Y-102870D03*
X-359410Y-156210D03*
X-359410Y45720D03*
X-358140Y92710D03*
X336550Y111760D03*
X335280Y49530D03*
X341630Y262890D03*
X340360Y200660D03*
X345440Y-119380D03*
X345440Y-175260D03*
X-195580Y-48260D03*
X-88900Y228600D03*
D13*
X3136Y166769D03*
X115570Y250190D03*
D12*
X39370Y182880D03*
D13*
X45720Y151130D03*
X73660Y167640D03*
D12*
X87630Y124460D03*
X147320Y118110D03*
X261620Y-251460D03*
X261620Y-264160D03*
X406400Y-262890D03*
X406400Y-250190D03*
X406400Y-275590D03*
X261620Y-275590D03*
X261620Y-287020D03*
X406400Y-285750D03*
X275590Y-251460D03*
X275590Y-264160D03*
X275590Y-275590D03*
X393700Y-250190D03*
X393700Y-262890D03*
X393700Y-275590D03*
X127000Y64770D03*
X142240Y64770D03*
X168910Y64770D03*
X173990Y76200D03*
X156210Y64770D03*
X-12700Y38100D03*
X127000Y52070D03*
X142240Y53340D03*
X156210Y53340D03*
X168910Y53340D03*
X3611Y176530D03*
X43180Y115570D03*
D13*
X-16510Y76200D03*
D12*
X-1270Y95250D03*
X25400Y76200D03*
X201220Y116280D03*
X-200660Y-210820D03*
X-185420Y-227330D03*
X103990Y58420D03*
X34290Y82550D03*
X208280Y130810D03*
X109220Y66040D03*
D13*
X-73506Y207164D03*
X-15240Y166381D03*
D12*
X88900Y165100D03*
X87630Y148590D03*
X111760Y163830D03*
X125730Y158750D03*
X114300Y210820D03*
X115570Y187960D03*
X101600Y151130D03*
X246380Y228600D03*
X264160Y228600D03*
X250190Y215900D03*
X261620Y217170D03*
X-16510Y110237D03*
X-55880Y125730D03*
X-13970Y100077D03*
X-393700Y233680D03*
X-393700Y201930D03*
X-393700Y218440D03*
X-378460Y218440D03*
X-378460Y201930D03*
X-224790Y17780D03*
X-236220Y30480D03*
X73660Y-271780D03*
X-194310Y-107950D03*
X-287020Y-435610D03*
X-419100Y114300D03*
X165100Y-435610D03*
X-59690Y-176530D03*
X58420Y-289560D03*
X254000Y-96520D03*
X-326390Y139700D03*
X-264160Y55880D03*
X46990Y-140970D03*
X-27940Y-261620D03*
X-233680Y-66040D03*
X-287020Y138430D03*
X-359410Y175260D03*
X-359410Y160020D03*
X215900Y-127000D03*
X-116840Y-439420D03*
X-106680Y-417830D03*
X-308610Y-420370D03*
X66040Y-177800D03*
X133350Y-160020D03*
X106680Y-195580D03*
X44450Y-193040D03*
X-149860Y-34290D03*
X-182880Y-33020D03*
X-201930Y-33020D03*
X-190500Y-19050D03*
X279400Y72390D03*
X270510Y64770D03*
X281940Y55880D03*
X270510Y46990D03*
X281940Y35560D03*
X-172720Y-19050D03*
X-266700Y-3810D03*
X-246380Y-17780D03*
X-223520Y-12700D03*
X-247650Y-2540D03*
X-240030Y-30480D03*
X123190Y-30480D03*
X110490Y-41910D03*
X120650Y-40640D03*
X283210Y-160020D03*
X283210Y-171450D03*
X283210Y-185420D03*
X-274320Y-182880D03*
X-276860Y-172720D03*
X-276860Y-160020D03*
X138430Y-189230D03*
X271780Y-185420D03*
X271780Y-172720D03*
X271780Y-160020D03*
X-276860Y-146050D03*
X-69854Y-53336D03*
X99060Y-102870D03*
X-273050Y-342900D03*
X-166370Y-341630D03*
X-241300Y-213360D03*
X-252730Y-213360D03*
X246380Y135890D03*
X203200Y105410D03*
X29210Y-181610D03*
D14*
X-10514Y-16898D03*
X-25400Y-16898D03*
D12*
X143510Y12700D03*
X-10160Y-143510D03*
X7664Y-147320D03*
X-46990Y-57150D03*
X-52070Y-35560D03*
X146050Y-60960D03*
X-64054Y7066D03*
X-71120Y24130D03*
X154940Y-60960D03*
X208280Y29210D03*
X275590Y121920D03*
X256540Y93980D03*
X-88900Y-76200D03*
X-22860Y-66040D03*
X73660Y-19050D03*
X74930Y-33020D03*
X83820Y-41910D03*
X-59690Y-63500D03*
X-255270Y-148590D03*
X-240030Y-144780D03*
X-224790Y-146050D03*
X-222250Y-158750D03*
X171450Y-256540D03*
X184150Y-280670D03*
X184150Y-265430D03*
X-99060Y-93980D03*
X-81280Y-107950D03*
X240030Y1270D03*
X270510Y20320D03*
X163830Y-273050D03*
X194310Y-297351D03*
M02*
