G04 EAGLE Gerber RS-274X export*
G75*
%MOMM*%
%FSLAX34Y34*%
%LPD*%
%INTop Copper*%
%IPPOS*%
%AMOC8*
5,1,8,0,0,1.08239X$1,22.5*%
G01*
G04 Define Apertures*
%ADD10R,1.685800X0.279400*%
%ADD11R,1.651000X2.844800*%
%ADD12R,1.450000X1.100000*%
%ADD13R,2.900000X1.350000*%
%ADD14R,0.431000X1.197700*%
%ADD15R,0.279400X1.685800*%
%ADD16R,2.844800X1.651000*%
%ADD17R,1.197700X0.431000*%
%ADD18R,1.465300X1.164600*%
%ADD19R,1.164600X1.465300*%
%ADD20R,0.970200X0.920900*%
%ADD21R,0.920900X0.970200*%
%ADD22C,1.524000*%
%ADD23R,1.600000X7.350000*%
%ADD24R,1.700000X6.500000*%
%ADD25R,6.500000X1.700000*%
%ADD26R,0.400000X0.700000*%
%ADD27R,2.550000X2.510000*%
%ADD28R,0.700000X0.400000*%
%ADD29R,2.510000X2.550000*%
%ADD30R,0.304800X0.609600*%
%ADD31R,2.438400X1.397000*%
%ADD32C,1.524000*%
%ADD33R,1.420200X1.031200*%
%ADD34R,0.798700X0.973900*%
%ADD35R,0.973900X0.798700*%
%ADD36R,1.031200X1.420200*%
%ADD37R,1.270000X0.635000*%
%ADD38R,0.635000X1.270000*%
%ADD39R,0.550000X0.200000*%
%ADD40R,0.200000X0.550000*%
%ADD41R,2.794000X2.794000*%
%ADD42C,0.808000*%
%ADD43R,0.406400X1.079500*%
%ADD44R,2.270000X0.558000*%
%ADD45R,1.172300X0.558000*%
%ADD46C,0.075000*%
%ADD47R,1.650000X2.400000*%
%ADD48R,1.812800X0.330200*%
%ADD49C,0.152400*%
%ADD50C,0.550000*%
%ADD51C,0.254000*%
%ADD52C,0.406400*%
%ADD53C,0.040638*%
%ADD54C,0.127000*%
%ADD55C,0.025400*%
%ADD56C,0.400000*%
%ADD57C,0.500000*%
%ADD58C,0.200000*%
%ADD59C,0.900000*%
G36*
X-101803Y-449052D02*
X-102000Y-449078D01*
X-299906Y-449078D01*
X-300192Y-449022D01*
X-300445Y-448855D01*
X-448855Y-300445D01*
X-449018Y-300204D01*
X-449078Y-299906D01*
X-449078Y-102000D01*
X-449052Y-101803D01*
X-449010Y-101645D01*
X-448812Y-101303D01*
X-448697Y-101188D01*
X-448355Y-100990D01*
X-448197Y-100948D01*
X-448000Y-100922D01*
X-443370Y-100922D01*
X-436464Y-98678D01*
X-430590Y-94410D01*
X-426322Y-88536D01*
X-424078Y-81630D01*
X-424078Y81630D01*
X-426322Y88536D01*
X-430590Y94410D01*
X-436464Y98678D01*
X-443370Y100922D01*
X-448000Y100922D01*
X-448197Y100948D01*
X-448355Y100990D01*
X-448697Y101188D01*
X-448812Y101303D01*
X-449010Y101645D01*
X-449052Y101803D01*
X-449078Y102000D01*
X-449078Y177986D01*
X-449022Y178272D01*
X-448855Y178525D01*
X-439643Y187737D01*
X-439402Y187900D01*
X-439104Y187960D01*
X-399809Y187960D01*
X-399440Y187865D01*
X-399388Y187836D01*
X-399124Y187750D01*
X-398737Y187706D01*
X-328992Y187706D01*
X-328706Y187650D01*
X-328453Y187483D01*
X-325466Y184496D01*
X-325308Y184266D01*
X-325243Y183970D01*
X-325299Y183672D01*
X-325466Y183419D01*
X-326172Y182713D01*
X-326377Y182466D01*
X-326514Y182218D01*
X-326600Y181954D01*
X-326644Y181567D01*
X-326644Y177389D01*
X-326689Y177131D01*
X-326846Y176872D01*
X-327092Y176695D01*
X-327388Y176627D01*
X-327686Y176680D01*
X-327941Y176846D01*
X-328110Y177097D01*
X-329207Y179745D01*
X-332065Y182603D01*
X-335799Y184150D01*
X-337058Y184150D01*
X-337058Y148590D01*
X-335799Y148590D01*
X-332065Y150137D01*
X-329207Y152995D01*
X-328110Y155643D01*
X-327970Y155864D01*
X-327725Y156043D01*
X-327430Y156113D01*
X-327131Y156062D01*
X-326876Y155898D01*
X-326704Y155648D01*
X-326644Y155351D01*
X-326644Y149896D01*
X-326614Y149577D01*
X-326535Y149304D01*
X-326410Y149057D01*
X-326167Y148752D01*
X-325343Y147928D01*
X-325180Y147686D01*
X-325141Y147494D01*
X-325140Y147494D01*
X-325095Y147303D01*
X-325076Y147276D01*
X-322642Y144842D01*
X-322550Y144785D01*
X-322518Y144780D01*
X-322339Y144780D01*
X-321970Y144685D01*
X-321918Y144656D01*
X-321654Y144570D01*
X-321267Y144526D01*
X-284542Y144526D01*
X-284256Y144470D01*
X-284003Y144303D01*
X-279623Y139923D01*
X-279460Y139682D01*
X-279400Y139384D01*
X-279400Y116586D01*
X-279451Y116311D01*
X-279615Y116056D01*
X-279865Y115884D01*
X-280162Y115824D01*
X-308574Y115824D01*
X-308893Y115794D01*
X-309166Y115715D01*
X-309413Y115590D01*
X-309718Y115347D01*
X-316012Y109053D01*
X-316217Y108806D01*
X-316354Y108558D01*
X-316440Y108294D01*
X-316484Y107907D01*
X-316484Y102039D01*
X-316531Y101776D01*
X-316690Y101518D01*
X-316938Y101342D01*
X-317234Y101277D01*
X-317532Y101333D01*
X-317785Y101500D01*
X-329723Y113438D01*
X-329886Y113680D01*
X-329946Y113977D01*
X-329946Y133314D01*
X-329976Y133633D01*
X-330055Y133906D01*
X-330180Y134153D01*
X-330423Y134458D01*
X-341797Y145832D01*
X-342044Y146037D01*
X-342292Y146174D01*
X-342556Y146260D01*
X-342943Y146304D01*
X-384774Y146304D01*
X-385093Y146274D01*
X-385366Y146195D01*
X-385613Y146070D01*
X-385918Y145827D01*
X-390942Y140803D01*
X-391147Y140556D01*
X-391284Y140308D01*
X-391370Y140044D01*
X-391414Y139657D01*
X-391414Y-234950D01*
X-391414Y-242570D01*
X-391414Y-299665D01*
X-391422Y-299705D01*
X-391422Y-309977D01*
X-389455Y-314726D01*
X-386256Y-317925D01*
X-386091Y-318172D01*
X-386078Y-318204D01*
X-385930Y-318484D01*
X-385706Y-318759D01*
X-264628Y-439837D01*
X-264381Y-440042D01*
X-264133Y-440179D01*
X-263869Y-440265D01*
X-263482Y-440309D01*
X-158013Y-440309D01*
X-157721Y-440367D01*
X-154136Y-441852D01*
X-145813Y-441852D01*
X-138123Y-438667D01*
X-132237Y-432781D01*
X-129052Y-425092D01*
X-129052Y-416768D01*
X-132237Y-409079D01*
X-138123Y-403193D01*
X-145813Y-400008D01*
X-147574Y-400008D01*
X-147849Y-399957D01*
X-148104Y-399793D01*
X-148276Y-399543D01*
X-148336Y-399246D01*
X-148336Y-397546D01*
X-148366Y-397227D01*
X-148445Y-396954D01*
X-148573Y-396700D01*
X-148746Y-396475D01*
X-148958Y-396286D01*
X-149000Y-396261D01*
X-149196Y-396091D01*
X-149338Y-395823D01*
X-149364Y-395521D01*
X-149270Y-395232D01*
X-149071Y-395003D01*
X-148825Y-394814D01*
X-148636Y-394602D01*
X-148489Y-394359D01*
X-148396Y-394106D01*
X-148336Y-393650D01*
X-148336Y-391814D01*
X-148285Y-391539D01*
X-148121Y-391284D01*
X-147871Y-391112D01*
X-147574Y-391052D01*
X-145813Y-391052D01*
X-138123Y-387867D01*
X-132237Y-381981D01*
X-129052Y-374292D01*
X-129052Y-365968D01*
X-132237Y-358279D01*
X-138123Y-352393D01*
X-145813Y-349208D01*
X-147574Y-349208D01*
X-147849Y-349157D01*
X-148104Y-348993D01*
X-148276Y-348743D01*
X-148336Y-348446D01*
X-148336Y-348016D01*
X-148366Y-347697D01*
X-148445Y-347424D01*
X-148573Y-347170D01*
X-148746Y-346945D01*
X-148958Y-346756D01*
X-149201Y-346609D01*
X-149454Y-346516D01*
X-149910Y-346456D01*
X-163312Y-346456D01*
X-163575Y-346409D01*
X-163833Y-346250D01*
X-164009Y-346002D01*
X-164074Y-345706D01*
X-164018Y-345408D01*
X-163851Y-345155D01*
X-162096Y-343400D01*
X-162096Y-339860D01*
X-164600Y-337356D01*
X-165299Y-337356D01*
X-165585Y-337300D01*
X-165838Y-337133D01*
X-166167Y-336804D01*
X-173529Y-336804D01*
X-173803Y-336753D01*
X-174059Y-336589D01*
X-174230Y-336339D01*
X-174291Y-336042D01*
X-174291Y-335026D01*
X-174239Y-334751D01*
X-174076Y-334496D01*
X-173826Y-334324D01*
X-173529Y-334264D01*
X-54646Y-334264D01*
X-54327Y-334234D01*
X-54054Y-334155D01*
X-53807Y-334030D01*
X-53502Y-333787D01*
X-40598Y-320883D01*
X-40393Y-320636D01*
X-40256Y-320388D01*
X-40170Y-320124D01*
X-40126Y-319737D01*
X-40126Y-280446D01*
X-40156Y-280127D01*
X-40235Y-279854D01*
X-40363Y-279600D01*
X-40536Y-279375D01*
X-40748Y-279186D01*
X-40991Y-279039D01*
X-41258Y-278941D01*
X-41538Y-278893D01*
X-41608Y-278895D01*
X-42037Y-278773D01*
X-61628Y-266096D01*
X-61916Y-265754D01*
X-61976Y-265456D01*
X-61976Y-240066D01*
X-62006Y-239747D01*
X-62085Y-239474D01*
X-62213Y-239220D01*
X-62386Y-238995D01*
X-62598Y-238806D01*
X-62841Y-238659D01*
X-63094Y-238566D01*
X-63550Y-238506D01*
X-178123Y-238506D01*
X-178409Y-238450D01*
X-178662Y-238283D01*
X-179678Y-237267D01*
X-179831Y-237047D01*
X-179901Y-236752D01*
X-179850Y-236453D01*
X-179686Y-236198D01*
X-179436Y-236026D01*
X-179139Y-235966D01*
X-178123Y-235966D01*
X-176784Y-234627D01*
X-176784Y-232733D01*
X-180923Y-228594D01*
X-181086Y-228353D01*
X-181146Y-228055D01*
X-181146Y-225560D01*
X-183650Y-223056D01*
X-187190Y-223056D01*
X-189179Y-225045D01*
X-189399Y-225198D01*
X-189694Y-225268D01*
X-189993Y-225217D01*
X-190248Y-225053D01*
X-190420Y-224803D01*
X-190480Y-224506D01*
X-190480Y-202151D01*
X-190429Y-201876D01*
X-190265Y-201621D01*
X-190015Y-201449D01*
X-189718Y-201389D01*
X-186146Y-201389D01*
X-185134Y-200377D01*
X-185039Y-200228D01*
X-184789Y-200056D01*
X-184492Y-199996D01*
X-184063Y-199996D01*
X-181304Y-197237D01*
X-181304Y-185413D01*
X-181248Y-185127D01*
X-181081Y-184874D01*
X-180034Y-183827D01*
X-180034Y-146933D01*
X-238791Y-88176D01*
X-238954Y-87935D01*
X-239014Y-87637D01*
X-239014Y-55873D01*
X-238958Y-55587D01*
X-238791Y-55334D01*
X-225844Y-42387D01*
X-225603Y-42224D01*
X-225305Y-42164D01*
X-211803Y-42164D01*
X-211438Y-42257D01*
X-211206Y-42452D01*
X-211068Y-42723D01*
X-211047Y-43025D01*
X-211074Y-43230D01*
X-211074Y-69874D01*
X-211125Y-70149D01*
X-211289Y-70404D01*
X-211539Y-70576D01*
X-211836Y-70636D01*
X-215095Y-70636D01*
X-215369Y-70585D01*
X-215625Y-70421D01*
X-215796Y-70171D01*
X-215857Y-69874D01*
X-215857Y-69567D01*
X-216749Y-68675D01*
X-227751Y-68675D01*
X-228644Y-69567D01*
X-228644Y-78817D01*
X-227751Y-79710D01*
X-216749Y-79710D01*
X-215857Y-78817D01*
X-215857Y-78510D01*
X-215805Y-78235D01*
X-215642Y-77980D01*
X-215392Y-77808D01*
X-215095Y-77748D01*
X-211626Y-77748D01*
X-211351Y-77799D01*
X-211095Y-77963D01*
X-210924Y-78213D01*
X-210864Y-78510D01*
X-210864Y-78817D01*
X-209971Y-79710D01*
X-198969Y-79710D01*
X-198477Y-79217D01*
X-198235Y-79054D01*
X-197938Y-78994D01*
X-190812Y-78994D01*
X-190526Y-79050D01*
X-190273Y-79217D01*
X-189861Y-79629D01*
X-175899Y-79629D01*
X-175487Y-79217D01*
X-175245Y-79054D01*
X-174948Y-78994D01*
X-169672Y-78994D01*
X-169397Y-79045D01*
X-169142Y-79209D01*
X-168970Y-79459D01*
X-168910Y-79756D01*
X-168910Y-81189D01*
X-168966Y-81475D01*
X-169133Y-81728D01*
X-169926Y-82521D01*
X-169926Y-84208D01*
X-158195Y-84208D01*
X-158195Y-85732D01*
X-169926Y-85732D01*
X-169926Y-86414D01*
X-169977Y-86689D01*
X-170141Y-86944D01*
X-170391Y-87116D01*
X-170688Y-87176D01*
X-173677Y-87176D01*
X-184782Y-98281D01*
X-185002Y-98434D01*
X-185297Y-98504D01*
X-185596Y-98453D01*
X-185851Y-98289D01*
X-186023Y-98039D01*
X-186083Y-97742D01*
X-186083Y-92202D01*
X-193684Y-92202D01*
X-193684Y-101307D01*
X-187571Y-101307D01*
X-186975Y-100710D01*
X-186755Y-100557D01*
X-186460Y-100488D01*
X-186161Y-100538D01*
X-185906Y-100702D01*
X-185734Y-100952D01*
X-185674Y-101249D01*
X-185674Y-113578D01*
X-185725Y-113852D01*
X-185889Y-114108D01*
X-186139Y-114279D01*
X-186436Y-114340D01*
X-190468Y-114340D01*
X-191361Y-115232D01*
X-191361Y-131148D01*
X-190468Y-132041D01*
X-177546Y-132041D01*
X-177271Y-132092D01*
X-177016Y-132255D01*
X-176844Y-132505D01*
X-176784Y-132803D01*
X-176784Y-215864D01*
X-176754Y-216183D01*
X-176675Y-216456D01*
X-176550Y-216703D01*
X-176307Y-217008D01*
X-163663Y-229652D01*
X-163416Y-229857D01*
X-163168Y-229994D01*
X-162904Y-230080D01*
X-162517Y-230124D01*
X-147356Y-230124D01*
X-147037Y-230094D01*
X-146764Y-230015D01*
X-146510Y-229887D01*
X-146285Y-229714D01*
X-146096Y-229502D01*
X-145949Y-229259D01*
X-145856Y-229006D01*
X-145796Y-228550D01*
X-145796Y-227142D01*
X-145745Y-226867D01*
X-145581Y-226612D01*
X-145331Y-226440D01*
X-145034Y-226380D01*
X-116586Y-226380D01*
X-116311Y-226431D01*
X-116056Y-226595D01*
X-115884Y-226845D01*
X-115824Y-227142D01*
X-115824Y-228564D01*
X-115794Y-228883D01*
X-115715Y-229156D01*
X-115587Y-229410D01*
X-115414Y-229635D01*
X-115202Y-229824D01*
X-114959Y-229971D01*
X-114706Y-230064D01*
X-114250Y-230124D01*
X-101636Y-230124D01*
X-101317Y-230094D01*
X-101044Y-230015D01*
X-100797Y-229890D01*
X-100492Y-229647D01*
X-87848Y-217003D01*
X-87643Y-216756D01*
X-87506Y-216508D01*
X-87420Y-216244D01*
X-87376Y-215857D01*
X-87376Y-165862D01*
X-87325Y-165587D01*
X-87161Y-165332D01*
X-86911Y-165160D01*
X-86614Y-165100D01*
X96774Y-165100D01*
X97049Y-165151D01*
X97304Y-165315D01*
X97476Y-165565D01*
X97536Y-165862D01*
X97536Y-182677D01*
X97480Y-182963D01*
X97313Y-183216D01*
X79756Y-200773D01*
X79756Y-215519D01*
X79705Y-215794D01*
X79541Y-216049D01*
X79291Y-216221D01*
X78994Y-216281D01*
X75569Y-216281D01*
X74676Y-217174D01*
X74676Y-224786D01*
X75569Y-225679D01*
X89531Y-225679D01*
X90424Y-224786D01*
X90424Y-217174D01*
X89531Y-216281D01*
X86106Y-216281D01*
X85831Y-216230D01*
X85576Y-216066D01*
X85404Y-215816D01*
X85344Y-215519D01*
X85344Y-203403D01*
X85400Y-203117D01*
X85567Y-202864D01*
X103124Y-185307D01*
X103124Y-165862D01*
X103175Y-165587D01*
X103339Y-165332D01*
X103589Y-165160D01*
X103886Y-165100D01*
X114212Y-165100D01*
X114317Y-165075D01*
X114344Y-165056D01*
X165038Y-114362D01*
X165095Y-114270D01*
X165100Y-114238D01*
X165100Y-101916D01*
X165156Y-101630D01*
X165323Y-101377D01*
X179420Y-87280D01*
X179640Y-87127D01*
X179935Y-87057D01*
X180234Y-87108D01*
X180489Y-87271D01*
X180661Y-87521D01*
X180721Y-87819D01*
X180721Y-89531D01*
X181614Y-90424D01*
X189226Y-90424D01*
X190119Y-89531D01*
X190119Y-76962D01*
X190170Y-76687D01*
X190334Y-76432D01*
X190584Y-76260D01*
X190881Y-76200D01*
X192659Y-76200D01*
X192934Y-76251D01*
X193189Y-76415D01*
X193361Y-76665D01*
X193421Y-76962D01*
X193421Y-89531D01*
X194329Y-90440D01*
X194482Y-90659D01*
X194552Y-90954D01*
X194501Y-91253D01*
X194338Y-91509D01*
X194088Y-91680D01*
X193791Y-91741D01*
X192619Y-91741D01*
X191727Y-92633D01*
X191727Y-101883D01*
X192619Y-102776D01*
X203621Y-102776D01*
X204514Y-101883D01*
X204514Y-100814D01*
X204565Y-100539D01*
X204728Y-100284D01*
X204978Y-100112D01*
X205276Y-100052D01*
X207475Y-100052D01*
X207749Y-100103D01*
X208005Y-100267D01*
X208176Y-100517D01*
X208237Y-100814D01*
X208237Y-101883D01*
X209129Y-102776D01*
X220131Y-102776D01*
X221024Y-101883D01*
X221024Y-92633D01*
X220131Y-91741D01*
X215149Y-91741D01*
X214886Y-91694D01*
X214628Y-91534D01*
X214453Y-91287D01*
X214388Y-90991D01*
X214443Y-90693D01*
X214611Y-90440D01*
X215519Y-89531D01*
X215519Y-83589D01*
X215544Y-83394D01*
X215679Y-83122D01*
X215909Y-82924D01*
X216198Y-82832D01*
X216500Y-82859D01*
X216767Y-83003D01*
X216840Y-83063D01*
X217088Y-83200D01*
X217358Y-83289D01*
X217640Y-83326D01*
X217913Y-83310D01*
X218322Y-83196D01*
X227880Y-79237D01*
X228163Y-79088D01*
X228385Y-78910D01*
X228571Y-78695D01*
X228713Y-78449D01*
X228803Y-78191D01*
X228854Y-77769D01*
X228854Y-76962D01*
X228905Y-76687D01*
X229069Y-76432D01*
X229319Y-76260D01*
X229616Y-76200D01*
X231194Y-76200D01*
X231469Y-76251D01*
X231724Y-76415D01*
X231896Y-76665D01*
X231956Y-76962D01*
X231956Y-78427D01*
X239941Y-86412D01*
X256276Y-86412D01*
X256562Y-86468D01*
X256815Y-86635D01*
X258896Y-88716D01*
X259059Y-88958D01*
X259120Y-89255D01*
X259120Y-90072D01*
X260012Y-90965D01*
X260829Y-90965D01*
X261115Y-91021D01*
X261368Y-91188D01*
X263937Y-93757D01*
X264100Y-93998D01*
X264160Y-94296D01*
X264160Y-156451D01*
X264065Y-156820D01*
X264036Y-156872D01*
X263950Y-157136D01*
X263906Y-157523D01*
X263906Y-187924D01*
X263936Y-188243D01*
X264015Y-188516D01*
X264078Y-188642D01*
X264160Y-188985D01*
X264160Y-236474D01*
X264109Y-236749D01*
X263945Y-237004D01*
X263695Y-237176D01*
X263398Y-237236D01*
X256576Y-237236D01*
X256257Y-237266D01*
X255984Y-237345D01*
X255737Y-237470D01*
X255432Y-237713D01*
X247868Y-245277D01*
X247663Y-245524D01*
X247526Y-245772D01*
X247440Y-246036D01*
X247396Y-246423D01*
X247396Y-312384D01*
X247426Y-312703D01*
X247505Y-312976D01*
X247630Y-313223D01*
X247873Y-313528D01*
X252897Y-318552D01*
X253144Y-318757D01*
X253392Y-318894D01*
X253656Y-318980D01*
X254043Y-319024D01*
X263398Y-319024D01*
X263673Y-319075D01*
X263928Y-319239D01*
X264100Y-319489D01*
X264160Y-319786D01*
X264160Y-425134D01*
X264104Y-425420D01*
X263937Y-425673D01*
X240755Y-448855D01*
X240514Y-449018D01*
X240216Y-449078D01*
X102000Y-449078D01*
X101803Y-449052D01*
X101645Y-449010D01*
X101303Y-448812D01*
X101188Y-448697D01*
X100990Y-448355D01*
X100948Y-448197D01*
X100922Y-448000D01*
X100922Y-443370D01*
X98678Y-436464D01*
X94410Y-430590D01*
X88536Y-426322D01*
X81630Y-424078D01*
X-81630Y-424078D01*
X-88536Y-426322D01*
X-94410Y-430590D01*
X-98678Y-436464D01*
X-100922Y-443370D01*
X-100922Y-448000D01*
X-100948Y-448197D01*
X-100990Y-448355D01*
X-101188Y-448697D01*
X-101303Y-448812D01*
X-101645Y-449010D01*
X-101803Y-449052D01*
G37*
%LPC*%
G36*
X-347980Y167132D02*
X-338582Y167132D01*
X-338582Y184150D01*
X-339841Y184150D01*
X-343575Y182603D01*
X-346433Y179745D01*
X-347980Y176011D01*
X-347980Y167132D01*
G37*
G36*
X-339841Y148590D02*
X-338582Y148590D01*
X-338582Y165608D01*
X-347980Y165608D01*
X-347980Y156729D01*
X-346433Y152995D01*
X-343575Y150137D01*
X-339841Y148590D01*
G37*
G36*
X-221488Y-57126D02*
X-214841Y-57126D01*
X-214841Y-52842D01*
X-216328Y-51355D01*
X-221488Y-51355D01*
X-221488Y-57126D01*
G37*
G36*
X-229660Y-57126D02*
X-223012Y-57126D01*
X-223012Y-51355D01*
X-228172Y-51355D01*
X-229660Y-52842D01*
X-229660Y-57126D01*
G37*
G36*
X-228172Y-64422D02*
X-223012Y-64422D01*
X-223012Y-58650D01*
X-229660Y-58650D01*
X-229660Y-62934D01*
X-228172Y-64422D01*
G37*
G36*
X-221488Y-64422D02*
X-216328Y-64422D01*
X-214841Y-62934D01*
X-214841Y-58650D01*
X-221488Y-58650D01*
X-221488Y-64422D01*
G37*
G36*
X-202809Y-90678D02*
X-195208Y-90678D01*
X-195208Y-81574D01*
X-201321Y-81574D01*
X-202809Y-83061D01*
X-202809Y-90678D01*
G37*
G36*
X-193684Y-90678D02*
X-186083Y-90678D01*
X-186083Y-83061D01*
X-187571Y-81574D01*
X-193684Y-81574D01*
X-193684Y-90678D01*
G37*
G36*
X-218408Y-100291D02*
X-205500Y-100291D01*
X-204607Y-99398D01*
X-204607Y-83482D01*
X-205500Y-82590D01*
X-218408Y-82590D01*
X-219301Y-83482D01*
X-219301Y-87884D01*
X-219352Y-88159D01*
X-219516Y-88414D01*
X-219766Y-88586D01*
X-220063Y-88646D01*
X-222494Y-88646D01*
X-222780Y-88590D01*
X-223033Y-88423D01*
X-224290Y-87166D01*
X-227830Y-87166D01*
X-230334Y-89670D01*
X-230334Y-93210D01*
X-227830Y-95714D01*
X-224290Y-95714D01*
X-223033Y-94457D01*
X-222791Y-94294D01*
X-222494Y-94234D01*
X-220063Y-94234D01*
X-219788Y-94285D01*
X-219533Y-94449D01*
X-219361Y-94699D01*
X-219301Y-94996D01*
X-219301Y-99398D01*
X-218408Y-100291D01*
G37*
G36*
X226354Y-99704D02*
X235458Y-99704D01*
X235458Y-92103D01*
X227841Y-92103D01*
X226354Y-93591D01*
X226354Y-99704D01*
G37*
G36*
X236982Y-99704D02*
X246087Y-99704D01*
X246087Y-93591D01*
X244599Y-92103D01*
X236982Y-92103D01*
X236982Y-99704D01*
G37*
G36*
X-201321Y-101307D02*
X-195208Y-101307D01*
X-195208Y-92202D01*
X-202809Y-92202D01*
X-202809Y-99819D01*
X-201321Y-101307D01*
G37*
G36*
X236982Y-108829D02*
X244599Y-108829D01*
X246087Y-107341D01*
X246087Y-101228D01*
X236982Y-101228D01*
X236982Y-108829D01*
G37*
G36*
X227841Y-108829D02*
X235458Y-108829D01*
X235458Y-101228D01*
X226354Y-101228D01*
X226354Y-107341D01*
X227841Y-108829D01*
G37*
G36*
X215392Y-112800D02*
X222040Y-112800D01*
X222040Y-108516D01*
X220552Y-107029D01*
X215392Y-107029D01*
X215392Y-112800D01*
G37*
G36*
X207221Y-112800D02*
X213868Y-112800D01*
X213868Y-107029D01*
X208708Y-107029D01*
X207221Y-108516D01*
X207221Y-112800D01*
G37*
G36*
X196350Y-127464D02*
X199890Y-127464D01*
X202394Y-124960D01*
X202394Y-121420D01*
X201355Y-120380D01*
X201202Y-120161D01*
X201132Y-119866D01*
X201183Y-119567D01*
X201346Y-119311D01*
X201596Y-119140D01*
X201893Y-119080D01*
X203621Y-119080D01*
X204514Y-118187D01*
X204514Y-108937D01*
X203621Y-108045D01*
X192619Y-108045D01*
X191727Y-108937D01*
X191727Y-118187D01*
X192619Y-119080D01*
X194347Y-119080D01*
X194610Y-119126D01*
X194868Y-119286D01*
X195043Y-119533D01*
X195108Y-119829D01*
X195053Y-120127D01*
X194885Y-120380D01*
X193846Y-121420D01*
X193846Y-124960D01*
X196350Y-127464D01*
G37*
G36*
X234450Y-136354D02*
X237990Y-136354D01*
X240494Y-133850D01*
X240494Y-130310D01*
X239237Y-129053D01*
X239074Y-128811D01*
X239014Y-128514D01*
X239014Y-126083D01*
X239065Y-125808D01*
X239229Y-125553D01*
X239479Y-125381D01*
X239776Y-125321D01*
X244178Y-125321D01*
X245071Y-124428D01*
X245071Y-111520D01*
X244178Y-110627D01*
X228262Y-110627D01*
X227370Y-111520D01*
X227370Y-124428D01*
X228262Y-125321D01*
X232664Y-125321D01*
X232939Y-125372D01*
X233194Y-125536D01*
X233366Y-125786D01*
X233426Y-126083D01*
X233426Y-128514D01*
X233370Y-128800D01*
X233203Y-129053D01*
X231946Y-130310D01*
X231946Y-133850D01*
X234450Y-136354D01*
G37*
G36*
X215392Y-120096D02*
X220552Y-120096D01*
X222040Y-118608D01*
X222040Y-114324D01*
X215392Y-114324D01*
X215392Y-120096D01*
G37*
G36*
X208708Y-120096D02*
X213868Y-120096D01*
X213868Y-114324D01*
X207221Y-114324D01*
X207221Y-118608D01*
X208708Y-120096D01*
G37*
G36*
X11028Y-195233D02*
X21992Y-195233D01*
X22885Y-194340D01*
X22885Y-193422D01*
X22936Y-193147D01*
X23100Y-192892D01*
X23350Y-192720D01*
X23647Y-192660D01*
X25729Y-192660D01*
X32131Y-186258D01*
X32131Y-185049D01*
X32187Y-184763D01*
X32354Y-184510D01*
X33484Y-183380D01*
X33484Y-179840D01*
X32354Y-178710D01*
X32191Y-178468D01*
X32131Y-178171D01*
X32131Y-176962D01*
X26646Y-171477D01*
X23666Y-171477D01*
X23391Y-171426D01*
X23135Y-171262D01*
X22964Y-171012D01*
X22904Y-170715D01*
X22904Y-170408D01*
X22011Y-169516D01*
X11009Y-169516D01*
X10117Y-170408D01*
X10117Y-179658D01*
X11009Y-180551D01*
X22011Y-180551D01*
X22904Y-179658D01*
X22904Y-179632D01*
X22950Y-179369D01*
X23110Y-179111D01*
X23357Y-178935D01*
X23653Y-178870D01*
X23951Y-178926D01*
X24204Y-179093D01*
X24713Y-179602D01*
X24876Y-179843D01*
X24936Y-180141D01*
X24936Y-183079D01*
X24880Y-183365D01*
X24713Y-183618D01*
X24186Y-184145D01*
X23966Y-184298D01*
X23671Y-184368D01*
X23372Y-184317D01*
X23117Y-184154D01*
X23000Y-183983D01*
X21992Y-182976D01*
X11028Y-182976D01*
X10135Y-183868D01*
X10135Y-194340D01*
X11028Y-195233D01*
G37*
G36*
X-10283Y-189230D02*
X-4957Y-189230D01*
X-4064Y-188337D01*
X-4064Y-176279D01*
X-4957Y-175387D01*
X-10283Y-175387D01*
X-11176Y-176279D01*
X-11176Y-188337D01*
X-10283Y-189230D01*
G37*
G36*
X134543Y-209761D02*
X143793Y-209761D01*
X144686Y-208868D01*
X144686Y-197866D01*
X143793Y-196974D01*
X141986Y-196974D01*
X141711Y-196922D01*
X141456Y-196759D01*
X141284Y-196509D01*
X141224Y-196212D01*
X141224Y-192796D01*
X141280Y-192510D01*
X141447Y-192257D01*
X142704Y-191000D01*
X142704Y-187460D01*
X140200Y-184956D01*
X136660Y-184956D01*
X134156Y-187460D01*
X134156Y-191000D01*
X135413Y-192257D01*
X135576Y-192499D01*
X135636Y-192796D01*
X135636Y-196212D01*
X135585Y-196486D01*
X135421Y-196742D01*
X135171Y-196913D01*
X134874Y-196974D01*
X134543Y-196974D01*
X133651Y-197866D01*
X133651Y-208868D01*
X134543Y-209761D01*
G37*
G36*
X92753Y-409194D02*
X111724Y-409194D01*
X112043Y-409164D01*
X112316Y-409085D01*
X112563Y-408960D01*
X112868Y-408717D01*
X114082Y-407503D01*
X114287Y-407256D01*
X114424Y-407008D01*
X114510Y-406744D01*
X114554Y-406357D01*
X114554Y-403752D01*
X114605Y-403477D01*
X114769Y-403222D01*
X115019Y-403050D01*
X115316Y-402990D01*
X137414Y-402990D01*
X137689Y-403041D01*
X137944Y-403205D01*
X138116Y-403455D01*
X138176Y-403752D01*
X138176Y-406364D01*
X138206Y-406683D01*
X138285Y-406956D01*
X138413Y-407210D01*
X138586Y-407435D01*
X138798Y-407624D01*
X139041Y-407771D01*
X139294Y-407864D01*
X139750Y-407924D01*
X157444Y-407924D01*
X157763Y-407894D01*
X158036Y-407815D01*
X158283Y-407690D01*
X158588Y-407447D01*
X176312Y-389723D01*
X176517Y-389476D01*
X176654Y-389228D01*
X176740Y-388964D01*
X176784Y-388577D01*
X176784Y-319461D01*
X176831Y-319198D01*
X176990Y-318940D01*
X177238Y-318765D01*
X177534Y-318700D01*
X177832Y-318755D01*
X178085Y-318923D01*
X178830Y-319668D01*
X191738Y-319668D01*
X192631Y-318775D01*
X192631Y-307019D01*
X192687Y-306733D01*
X192854Y-306480D01*
X196596Y-302738D01*
X196596Y-301424D01*
X196652Y-301139D01*
X196819Y-300886D01*
X198584Y-299121D01*
X198584Y-295580D01*
X197556Y-294552D01*
X197368Y-294242D01*
X197336Y-293940D01*
X197425Y-293650D01*
X197619Y-293418D01*
X197958Y-293147D01*
X205172Y-285934D01*
X205413Y-285771D01*
X205710Y-285711D01*
X207250Y-285711D01*
X208143Y-284818D01*
X208143Y-283217D01*
X208238Y-282848D01*
X208404Y-282548D01*
X208490Y-282284D01*
X208534Y-281897D01*
X208534Y-247686D01*
X208504Y-247367D01*
X208425Y-247094D01*
X208292Y-246830D01*
X208203Y-246678D01*
X208143Y-246381D01*
X208143Y-246042D01*
X207250Y-245150D01*
X194342Y-245150D01*
X193588Y-245903D01*
X193347Y-246066D01*
X193050Y-246126D01*
X183954Y-246126D01*
X183691Y-246079D01*
X183433Y-245920D01*
X183257Y-245672D01*
X183192Y-245376D01*
X183248Y-245078D01*
X183415Y-244825D01*
X184404Y-243836D01*
X184404Y-243586D01*
X184455Y-243311D01*
X184619Y-243056D01*
X184869Y-242884D01*
X185166Y-242824D01*
X185443Y-242824D01*
X192148Y-236119D01*
X192368Y-235966D01*
X192663Y-235896D01*
X192962Y-235947D01*
X193217Y-236111D01*
X193389Y-236361D01*
X193449Y-236658D01*
X193449Y-239098D01*
X194342Y-239991D01*
X207250Y-239991D01*
X208143Y-239098D01*
X208143Y-223182D01*
X207250Y-222290D01*
X194342Y-222290D01*
X193449Y-223182D01*
X193449Y-227584D01*
X193398Y-227859D01*
X193234Y-228114D01*
X192984Y-228286D01*
X192687Y-228346D01*
X192019Y-228346D01*
X184811Y-235553D01*
X184581Y-235711D01*
X184285Y-235777D01*
X183987Y-235721D01*
X183734Y-235553D01*
X183511Y-235331D01*
X169549Y-235331D01*
X168656Y-236224D01*
X168656Y-236474D01*
X168605Y-236749D01*
X168441Y-237004D01*
X168191Y-237176D01*
X167894Y-237236D01*
X167753Y-237236D01*
X162696Y-242293D01*
X162454Y-242456D01*
X162157Y-242516D01*
X160059Y-242516D01*
X159784Y-242465D01*
X159529Y-242301D01*
X159357Y-242051D01*
X159297Y-241754D01*
X159297Y-238282D01*
X158404Y-237389D01*
X154482Y-237389D01*
X154219Y-237342D01*
X153961Y-237183D01*
X153785Y-236935D01*
X153720Y-236639D01*
X153776Y-236341D01*
X153943Y-236088D01*
X154561Y-235471D01*
X154802Y-235308D01*
X155099Y-235248D01*
X159240Y-235248D01*
X164140Y-230347D01*
X164382Y-230184D01*
X164679Y-230124D01*
X167894Y-230124D01*
X168169Y-230175D01*
X168424Y-230339D01*
X168596Y-230589D01*
X168656Y-230886D01*
X168656Y-231136D01*
X169549Y-232029D01*
X183511Y-232029D01*
X184404Y-231136D01*
X184404Y-223524D01*
X183511Y-222631D01*
X169549Y-222631D01*
X168656Y-223524D01*
X168656Y-223774D01*
X168605Y-224049D01*
X168441Y-224304D01*
X168191Y-224476D01*
X167894Y-224536D01*
X161752Y-224536D01*
X161477Y-224485D01*
X161221Y-224321D01*
X161050Y-224071D01*
X160990Y-223774D01*
X160990Y-220726D01*
X161041Y-220451D01*
X161204Y-220196D01*
X161454Y-220024D01*
X161752Y-219964D01*
X164987Y-219964D01*
X167304Y-217647D01*
X167546Y-217484D01*
X167843Y-217424D01*
X167894Y-217424D01*
X168169Y-217475D01*
X168424Y-217639D01*
X168596Y-217889D01*
X168656Y-218186D01*
X168656Y-218436D01*
X169549Y-219329D01*
X183511Y-219329D01*
X184404Y-218436D01*
X184404Y-210824D01*
X183511Y-209931D01*
X169549Y-209931D01*
X168656Y-210824D01*
X168656Y-211074D01*
X168605Y-211349D01*
X168441Y-211604D01*
X168191Y-211776D01*
X167894Y-211836D01*
X165213Y-211836D01*
X162896Y-214153D01*
X162654Y-214316D01*
X162357Y-214376D01*
X159028Y-214376D01*
X158753Y-214325D01*
X158498Y-214161D01*
X158326Y-213911D01*
X158266Y-213614D01*
X158266Y-210523D01*
X158317Y-210248D01*
X158481Y-209992D01*
X158731Y-209821D01*
X159028Y-209761D01*
X160097Y-209761D01*
X160990Y-208868D01*
X160990Y-197866D01*
X160097Y-196974D01*
X150847Y-196974D01*
X149955Y-197866D01*
X149955Y-208868D01*
X150847Y-209761D01*
X151916Y-209761D01*
X152191Y-209812D01*
X152446Y-209975D01*
X152618Y-210225D01*
X152678Y-210523D01*
X152678Y-213825D01*
X152627Y-214099D01*
X152463Y-214355D01*
X152213Y-214526D01*
X151916Y-214587D01*
X150847Y-214587D01*
X149955Y-215479D01*
X149955Y-226481D01*
X150847Y-227374D01*
X157372Y-227374D01*
X157635Y-227420D01*
X157893Y-227580D01*
X158069Y-227827D01*
X158134Y-228123D01*
X158078Y-228421D01*
X157911Y-228674D01*
X157149Y-229436D01*
X156907Y-229599D01*
X156610Y-229660D01*
X152469Y-229660D01*
X146550Y-235579D01*
X146550Y-236627D01*
X146499Y-236902D01*
X146335Y-237157D01*
X146085Y-237329D01*
X145788Y-237389D01*
X143796Y-237389D01*
X143533Y-237342D01*
X143275Y-237183D01*
X143099Y-236935D01*
X143034Y-236639D01*
X143090Y-236341D01*
X143257Y-236088D01*
X145832Y-233513D01*
X146037Y-233266D01*
X146174Y-233018D01*
X146260Y-232754D01*
X146304Y-232367D01*
X146304Y-214666D01*
X146274Y-214347D01*
X146195Y-214074D01*
X146067Y-213820D01*
X145894Y-213595D01*
X145682Y-213406D01*
X145439Y-213259D01*
X145186Y-213166D01*
X144730Y-213106D01*
X116876Y-213106D01*
X116557Y-213136D01*
X116284Y-213215D01*
X116030Y-213343D01*
X115805Y-213516D01*
X115616Y-213728D01*
X115469Y-213971D01*
X115376Y-214224D01*
X115316Y-214680D01*
X115316Y-237149D01*
X115269Y-237412D01*
X115110Y-237670D01*
X114862Y-237846D01*
X114566Y-237911D01*
X114268Y-237855D01*
X114015Y-237688D01*
X113716Y-237389D01*
X108212Y-237389D01*
X107937Y-237338D01*
X107682Y-237174D01*
X107510Y-236924D01*
X107450Y-236627D01*
X107450Y-236613D01*
X100733Y-229896D01*
X90762Y-229896D01*
X90476Y-229840D01*
X90223Y-229673D01*
X89531Y-228981D01*
X75569Y-228981D01*
X74676Y-229874D01*
X74676Y-237486D01*
X75569Y-238379D01*
X89531Y-238379D01*
X90424Y-237486D01*
X90424Y-236246D01*
X90475Y-235971D01*
X90639Y-235716D01*
X90889Y-235544D01*
X91186Y-235484D01*
X98103Y-235484D01*
X98389Y-235540D01*
X98642Y-235707D01*
X99023Y-236088D01*
X99176Y-236308D01*
X99246Y-236603D01*
X99195Y-236902D01*
X99031Y-237157D01*
X98781Y-237329D01*
X98484Y-237389D01*
X95596Y-237389D01*
X94703Y-238282D01*
X94703Y-241554D01*
X94652Y-241829D01*
X94488Y-242084D01*
X94238Y-242256D01*
X93941Y-242316D01*
X90482Y-242316D01*
X90196Y-242260D01*
X89943Y-242093D01*
X89531Y-241681D01*
X75569Y-241681D01*
X75157Y-242093D01*
X74915Y-242256D01*
X74618Y-242316D01*
X65048Y-242316D01*
X64773Y-242265D01*
X64518Y-242101D01*
X64346Y-241851D01*
X64286Y-241554D01*
X64286Y-237026D01*
X64337Y-236751D01*
X64501Y-236495D01*
X64751Y-236324D01*
X65048Y-236264D01*
X66117Y-236264D01*
X67010Y-235371D01*
X67010Y-224369D01*
X66117Y-223477D01*
X56867Y-223477D01*
X55975Y-224369D01*
X55975Y-235371D01*
X56867Y-236264D01*
X57936Y-236264D01*
X58211Y-236315D01*
X58466Y-236478D01*
X58638Y-236728D01*
X58698Y-237026D01*
X58698Y-241554D01*
X58647Y-241829D01*
X58483Y-242084D01*
X58233Y-242256D01*
X57936Y-242316D01*
X31786Y-242316D01*
X31467Y-242346D01*
X31194Y-242425D01*
X30947Y-242550D01*
X30642Y-242793D01*
X28158Y-245277D01*
X27953Y-245524D01*
X27816Y-245772D01*
X27730Y-246036D01*
X27686Y-246423D01*
X27686Y-259044D01*
X27716Y-259363D01*
X27795Y-259636D01*
X27920Y-259883D01*
X28163Y-260188D01*
X30647Y-262672D01*
X30894Y-262877D01*
X31142Y-263014D01*
X31406Y-263100D01*
X31793Y-263144D01*
X33538Y-263144D01*
X33801Y-263191D01*
X34059Y-263350D01*
X34234Y-263598D01*
X34300Y-263894D01*
X34244Y-264192D01*
X34076Y-264445D01*
X33429Y-265092D01*
X33429Y-269494D01*
X33378Y-269769D01*
X33214Y-270024D01*
X32964Y-270196D01*
X32667Y-270256D01*
X31506Y-270256D01*
X31220Y-270200D01*
X30967Y-270033D01*
X29710Y-268776D01*
X26170Y-268776D01*
X23666Y-271280D01*
X23666Y-274820D01*
X26170Y-277324D01*
X29710Y-277324D01*
X30967Y-276067D01*
X31209Y-275904D01*
X31506Y-275844D01*
X32667Y-275844D01*
X32942Y-275895D01*
X33197Y-276059D01*
X33369Y-276309D01*
X33429Y-276606D01*
X33429Y-281008D01*
X34322Y-281901D01*
X47230Y-281901D01*
X48123Y-281008D01*
X48123Y-265092D01*
X47476Y-264445D01*
X47323Y-264225D01*
X47253Y-263930D01*
X47304Y-263631D01*
X47467Y-263376D01*
X47717Y-263204D01*
X48014Y-263144D01*
X49609Y-263144D01*
X49872Y-263191D01*
X50130Y-263350D01*
X50306Y-263598D01*
X50371Y-263894D01*
X50315Y-264192D01*
X50148Y-264445D01*
X49921Y-264671D01*
X49921Y-272288D01*
X66647Y-272288D01*
X66647Y-264671D01*
X66420Y-264445D01*
X66267Y-264225D01*
X66198Y-263930D01*
X66248Y-263631D01*
X66412Y-263376D01*
X66662Y-263204D01*
X66959Y-263144D01*
X92925Y-263144D01*
X93200Y-263195D01*
X93455Y-263359D01*
X93627Y-263609D01*
X93687Y-263906D01*
X93687Y-264548D01*
X105418Y-264548D01*
X105418Y-266072D01*
X93687Y-266072D01*
X93687Y-267262D01*
X93636Y-267537D01*
X93472Y-267792D01*
X93222Y-267964D01*
X92925Y-268024D01*
X89423Y-268024D01*
X75320Y-282127D01*
X75320Y-287568D01*
X75269Y-287842D01*
X75105Y-288098D01*
X74855Y-288269D01*
X74558Y-288330D01*
X71152Y-288330D01*
X70259Y-289222D01*
X70259Y-305138D01*
X71152Y-306031D01*
X84060Y-306031D01*
X84805Y-305286D01*
X85025Y-305133D01*
X85320Y-305063D01*
X85619Y-305114D01*
X85874Y-305277D01*
X86046Y-305527D01*
X86106Y-305824D01*
X86106Y-327983D01*
X86050Y-328269D01*
X85883Y-328522D01*
X84038Y-330367D01*
X83833Y-330614D01*
X83696Y-330862D01*
X83610Y-331126D01*
X83566Y-331513D01*
X83566Y-400014D01*
X83596Y-400333D01*
X83675Y-400606D01*
X83800Y-400853D01*
X84043Y-401158D01*
X91607Y-408722D01*
X91854Y-408927D01*
X92102Y-409064D01*
X92366Y-409150D01*
X92753Y-409194D01*
G37*
G36*
X14740Y-221444D02*
X18280Y-221444D01*
X20784Y-218940D01*
X20784Y-215400D01*
X20289Y-214905D01*
X20126Y-214663D01*
X20066Y-214366D01*
X20066Y-211487D01*
X20117Y-211212D01*
X20281Y-210956D01*
X20531Y-210785D01*
X20828Y-210725D01*
X21992Y-210725D01*
X22885Y-209832D01*
X22885Y-199360D01*
X21992Y-198468D01*
X11028Y-198468D01*
X10135Y-199360D01*
X10135Y-209832D01*
X11028Y-210725D01*
X12192Y-210725D01*
X12467Y-210776D01*
X12722Y-210939D01*
X12894Y-211189D01*
X12954Y-211487D01*
X12954Y-214366D01*
X12898Y-214652D01*
X12731Y-214905D01*
X12236Y-215400D01*
X12236Y-218940D01*
X14740Y-221444D01*
G37*
G36*
X211850Y-239991D02*
X224758Y-239991D01*
X225651Y-239098D01*
X225651Y-237998D01*
X225702Y-237723D01*
X225866Y-237468D01*
X226116Y-237296D01*
X226413Y-237236D01*
X229606Y-237236D01*
X229892Y-237292D01*
X230145Y-237459D01*
X230640Y-237954D01*
X234180Y-237954D01*
X236684Y-235450D01*
X236684Y-231910D01*
X234180Y-229406D01*
X230640Y-229406D01*
X230145Y-229901D01*
X229903Y-230064D01*
X229606Y-230124D01*
X226413Y-230124D01*
X226138Y-230073D01*
X225883Y-229909D01*
X225711Y-229659D01*
X225651Y-229362D01*
X225651Y-223182D01*
X224758Y-222290D01*
X211850Y-222290D01*
X210957Y-223182D01*
X210957Y-239098D01*
X211850Y-239991D01*
G37*
G36*
X45950Y-229108D02*
X51722Y-229108D01*
X51722Y-223948D01*
X50234Y-222461D01*
X45950Y-222461D01*
X45950Y-229108D01*
G37*
G36*
X38655Y-229108D02*
X44426Y-229108D01*
X44426Y-222461D01*
X40142Y-222461D01*
X38655Y-223948D01*
X38655Y-229108D01*
G37*
G36*
X45950Y-237280D02*
X50234Y-237280D01*
X51722Y-235792D01*
X51722Y-230632D01*
X45950Y-230632D01*
X45950Y-237280D01*
G37*
G36*
X40142Y-237280D02*
X44426Y-237280D01*
X44426Y-230632D01*
X38655Y-230632D01*
X38655Y-235792D01*
X40142Y-237280D01*
G37*
G36*
X211850Y-262851D02*
X224758Y-262851D01*
X225651Y-261958D01*
X225651Y-258318D01*
X225702Y-258043D01*
X225866Y-257788D01*
X226116Y-257616D01*
X226413Y-257556D01*
X229606Y-257556D01*
X229892Y-257612D01*
X230145Y-257779D01*
X230640Y-258274D01*
X234180Y-258274D01*
X236684Y-255770D01*
X236684Y-252230D01*
X234180Y-249726D01*
X230640Y-249726D01*
X230145Y-250221D01*
X229903Y-250384D01*
X229606Y-250444D01*
X226413Y-250444D01*
X226138Y-250393D01*
X225883Y-250229D01*
X225711Y-249979D01*
X225651Y-249682D01*
X225651Y-246042D01*
X224758Y-245150D01*
X211850Y-245150D01*
X210957Y-246042D01*
X210957Y-261958D01*
X211850Y-262851D01*
G37*
G36*
X211850Y-285711D02*
X224758Y-285711D01*
X225651Y-284818D01*
X225651Y-281178D01*
X225702Y-280903D01*
X225866Y-280648D01*
X226116Y-280476D01*
X226413Y-280416D01*
X229606Y-280416D01*
X229892Y-280472D01*
X230145Y-280639D01*
X230640Y-281134D01*
X234180Y-281134D01*
X236684Y-278630D01*
X236684Y-275090D01*
X234180Y-272586D01*
X230640Y-272586D01*
X230145Y-273081D01*
X229903Y-273244D01*
X229606Y-273304D01*
X226413Y-273304D01*
X226138Y-273253D01*
X225883Y-273089D01*
X225711Y-272839D01*
X225651Y-272542D01*
X225651Y-268902D01*
X224758Y-268010D01*
X211850Y-268010D01*
X210957Y-268902D01*
X210957Y-284818D01*
X211850Y-285711D01*
G37*
G36*
X59046Y-282917D02*
X65159Y-282917D01*
X66647Y-281429D01*
X66647Y-273812D01*
X59046Y-273812D01*
X59046Y-282917D01*
G37*
G36*
X51409Y-282917D02*
X57522Y-282917D01*
X57522Y-273812D01*
X49921Y-273812D01*
X49921Y-281429D01*
X51409Y-282917D01*
G37*
%LPD*%
G36*
X-165869Y-438624D02*
X-166662Y-438785D01*
X-262683Y-438785D01*
X-263446Y-438636D01*
X-264120Y-438190D01*
X-378513Y-323797D01*
X-378921Y-323212D01*
X-379107Y-322425D01*
X-378971Y-321628D01*
X-378536Y-320947D01*
X-377869Y-320489D01*
X-377076Y-320328D01*
X-275930Y-320328D01*
X-271180Y-318361D01*
X-267545Y-314726D01*
X-265578Y-309977D01*
X-265578Y-299836D01*
X-267545Y-295087D01*
X-271180Y-291452D01*
X-275930Y-289484D01*
X-381070Y-289484D01*
X-385820Y-291452D01*
X-386421Y-292053D01*
X-387006Y-292461D01*
X-387793Y-292647D01*
X-388591Y-292512D01*
X-389272Y-292076D01*
X-389729Y-291409D01*
X-389890Y-290616D01*
X-389890Y-242570D01*
X-389890Y-223012D01*
X-389753Y-222280D01*
X-389318Y-221598D01*
X-388651Y-221141D01*
X-387858Y-220980D01*
X-229119Y-220980D01*
X-228416Y-221105D01*
X-227728Y-221530D01*
X-227260Y-222190D01*
X-227087Y-222980D01*
X-227235Y-223775D01*
X-227682Y-224449D01*
X-252476Y-249243D01*
X-252476Y-299201D01*
X-252625Y-299964D01*
X-253071Y-300638D01*
X-258211Y-305778D01*
X-258211Y-314354D01*
X-258348Y-315087D01*
X-258783Y-315768D01*
X-259450Y-316225D01*
X-260243Y-316386D01*
X-262418Y-316386D01*
X-263311Y-317279D01*
X-263311Y-324265D01*
X-263235Y-324374D01*
X-263048Y-325161D01*
X-263184Y-325959D01*
X-263620Y-326640D01*
X-264287Y-327097D01*
X-265079Y-327258D01*
X-265954Y-327258D01*
X-266716Y-327109D01*
X-267390Y-326663D01*
X-267688Y-326365D01*
X-278160Y-326365D01*
X-278515Y-326720D01*
X-279129Y-327141D01*
X-279919Y-327315D01*
X-280714Y-327167D01*
X-281388Y-326720D01*
X-282759Y-325349D01*
X-287654Y-325349D01*
X-287654Y-340131D01*
X-282759Y-340131D01*
X-281388Y-338760D01*
X-280774Y-338339D01*
X-279984Y-338165D01*
X-279189Y-338313D01*
X-278515Y-338760D01*
X-277669Y-339605D01*
X-277241Y-340235D01*
X-277074Y-341026D01*
X-277229Y-341820D01*
X-277324Y-342050D01*
X-277324Y-343750D01*
X-276673Y-345321D01*
X-275471Y-346523D01*
X-273900Y-347174D01*
X-272200Y-347174D01*
X-270629Y-346523D01*
X-269427Y-345321D01*
X-268776Y-343750D01*
X-268776Y-342050D01*
X-268828Y-341925D01*
X-268982Y-341212D01*
X-268846Y-340415D01*
X-268410Y-339733D01*
X-268081Y-339507D01*
X-267795Y-339222D01*
X-267210Y-338814D01*
X-266423Y-338628D01*
X-265626Y-338764D01*
X-264945Y-339199D01*
X-264708Y-339545D01*
X-264708Y-338938D01*
X-247524Y-338938D01*
X-247524Y-335858D01*
X-247944Y-335437D01*
X-248379Y-334793D01*
X-248540Y-334000D01*
X-248540Y-326729D01*
X-248853Y-326272D01*
X-249026Y-325482D01*
X-248878Y-324687D01*
X-248540Y-324176D01*
X-248540Y-317279D01*
X-249432Y-316386D01*
X-251607Y-316386D01*
X-252340Y-316249D01*
X-253021Y-315814D01*
X-253478Y-315147D01*
X-253639Y-314354D01*
X-253639Y-308514D01*
X-253490Y-307751D01*
X-253044Y-307077D01*
X-247904Y-301937D01*
X-247904Y-251979D01*
X-247755Y-251216D01*
X-247309Y-250542D01*
X-241853Y-245086D01*
X-241362Y-244724D01*
X-240585Y-244498D01*
X-239782Y-244592D01*
X-239079Y-244992D01*
X-238588Y-245634D01*
X-238387Y-246418D01*
X-238506Y-247217D01*
X-239922Y-251107D01*
X-239922Y-258485D01*
X-237398Y-265418D01*
X-232656Y-271070D01*
X-226266Y-274759D01*
X-219000Y-276041D01*
X-211734Y-274759D01*
X-205344Y-271070D01*
X-200602Y-265418D01*
X-198078Y-258485D01*
X-198078Y-251107D01*
X-200602Y-244173D01*
X-205344Y-238521D01*
X-211734Y-234832D01*
X-219000Y-233551D01*
X-226394Y-234855D01*
X-227449Y-234761D01*
X-228137Y-234336D01*
X-228605Y-233676D01*
X-228779Y-232886D01*
X-228631Y-232091D01*
X-228184Y-231417D01*
X-218342Y-221575D01*
X-217698Y-221141D01*
X-216905Y-220980D01*
X-198962Y-220980D01*
X-198199Y-221129D01*
X-197525Y-221575D01*
X-195647Y-223453D01*
X-195213Y-224097D01*
X-195052Y-224890D01*
X-195052Y-233083D01*
X-190567Y-237568D01*
X-190133Y-238212D01*
X-189972Y-239005D01*
X-189972Y-262097D01*
X-190121Y-262860D01*
X-190567Y-263534D01*
X-228961Y-301928D01*
X-228961Y-314354D01*
X-229098Y-315087D01*
X-229533Y-315768D01*
X-230200Y-316225D01*
X-230993Y-316386D01*
X-233168Y-316386D01*
X-234061Y-317279D01*
X-234061Y-324500D01*
X-234209Y-325263D01*
X-234656Y-325937D01*
X-235077Y-326358D01*
X-235077Y-329438D01*
X-218274Y-329438D01*
X-218274Y-326358D01*
X-218694Y-325937D01*
X-219129Y-325293D01*
X-219290Y-324500D01*
X-219290Y-317279D01*
X-220182Y-316386D01*
X-222357Y-316386D01*
X-223090Y-316249D01*
X-223771Y-315814D01*
X-224228Y-315147D01*
X-224389Y-314354D01*
X-224389Y-304664D01*
X-224240Y-303901D01*
X-223794Y-303227D01*
X-185400Y-264833D01*
X-185400Y-238606D01*
X-185275Y-237904D01*
X-184850Y-237215D01*
X-184190Y-236748D01*
X-183400Y-236574D01*
X-182605Y-236722D01*
X-181931Y-237169D01*
X-179138Y-239962D01*
X-179068Y-240020D01*
X-179067Y-240020D01*
X-178969Y-240030D01*
X-65532Y-240030D01*
X-64800Y-240167D01*
X-64118Y-240602D01*
X-63661Y-241269D01*
X-63500Y-242062D01*
X-63500Y-266597D01*
X-63490Y-266695D01*
X-63415Y-266755D01*
X-42578Y-280238D01*
X-41811Y-281151D01*
X-41650Y-281944D01*
X-41650Y-318938D01*
X-41799Y-319701D01*
X-42245Y-320375D01*
X-54015Y-332145D01*
X-54659Y-332579D01*
X-55452Y-332740D01*
X-216242Y-332740D01*
X-216974Y-332603D01*
X-217655Y-332168D01*
X-218113Y-331501D01*
X-218222Y-330962D01*
X-235124Y-330962D01*
X-235213Y-331441D01*
X-235649Y-332122D01*
X-236316Y-332579D01*
X-237109Y-332740D01*
X-242478Y-332740D01*
X-242560Y-332747D01*
X-242561Y-332748D01*
X-242570Y-332841D01*
X-242570Y-356337D01*
X-242707Y-357070D01*
X-243142Y-357751D01*
X-243809Y-358208D01*
X-244602Y-358369D01*
X-248284Y-358369D01*
X-248284Y-373151D01*
X-244602Y-373151D01*
X-243870Y-373288D01*
X-243188Y-373723D01*
X-242731Y-374390D01*
X-242570Y-375183D01*
X-242570Y-397418D01*
X-242563Y-397500D01*
X-242562Y-397501D01*
X-242469Y-397510D01*
X-158837Y-397510D01*
X-158406Y-397556D01*
X-157665Y-397882D01*
X-157111Y-398470D01*
X-156829Y-399229D01*
X-156866Y-400037D01*
X-157215Y-400766D01*
X-157821Y-401302D01*
X-163630Y-404656D01*
X-168373Y-410308D01*
X-170896Y-417241D01*
X-170896Y-424619D01*
X-168373Y-431552D01*
X-165105Y-435447D01*
X-164817Y-435901D01*
X-164631Y-436688D01*
X-164766Y-437486D01*
X-165202Y-438167D01*
X-165869Y-438624D01*
G37*
%LPC*%
G36*
X-162070Y-325328D02*
X-56930Y-325328D01*
X-52180Y-323361D01*
X-48545Y-319726D01*
X-46578Y-314977D01*
X-46578Y-304836D01*
X-48545Y-300087D01*
X-52180Y-296452D01*
X-56930Y-294484D01*
X-162070Y-294484D01*
X-166820Y-296452D01*
X-170455Y-300087D01*
X-172422Y-304836D01*
X-172422Y-314977D01*
X-170455Y-319726D01*
X-166820Y-323361D01*
X-162070Y-325328D01*
G37*
G36*
X-295561Y-331978D02*
X-289178Y-331978D01*
X-289178Y-325349D01*
X-294073Y-325349D01*
X-295561Y-326837D01*
X-295561Y-331978D01*
G37*
G36*
X-294073Y-340131D02*
X-289178Y-340131D01*
X-289178Y-333502D01*
X-295561Y-333502D01*
X-295561Y-338643D01*
X-294073Y-340131D01*
G37*
G36*
X-255163Y-345030D02*
X-249011Y-345030D01*
X-247524Y-343542D01*
X-247524Y-340462D01*
X-255163Y-340462D01*
X-255163Y-345030D01*
G37*
G36*
X-262839Y-345030D02*
X-256687Y-345030D01*
X-256687Y-340462D01*
X-264367Y-340462D01*
X-264327Y-340659D01*
X-264327Y-343542D01*
X-262839Y-345030D01*
G37*
G36*
X-256191Y-364998D02*
X-249808Y-364998D01*
X-249808Y-358369D01*
X-254703Y-358369D01*
X-256191Y-359857D01*
X-256191Y-364998D01*
G37*
G36*
X-254703Y-373151D02*
X-249808Y-373151D01*
X-249808Y-366522D01*
X-256191Y-366522D01*
X-256191Y-371663D01*
X-254703Y-373151D01*
G37*
%LPD*%
G36*
X-250493Y-234789D02*
X-251286Y-234950D01*
X-387858Y-234950D01*
X-388591Y-234813D01*
X-389272Y-234378D01*
X-389729Y-233711D01*
X-389890Y-232918D01*
X-389890Y138858D01*
X-389741Y139621D01*
X-389295Y140295D01*
X-385405Y144185D01*
X-384761Y144619D01*
X-383968Y144780D01*
X-343742Y144780D01*
X-342979Y144631D01*
X-342305Y144185D01*
X-332065Y133945D01*
X-331631Y133301D01*
X-331470Y132508D01*
X-331470Y113127D01*
X-331461Y113036D01*
X-331461Y113035D01*
X-331399Y112959D01*
X-319365Y100925D01*
X-318931Y100281D01*
X-318770Y99488D01*
X-318770Y77567D01*
X-318761Y77476D01*
X-318761Y77475D01*
X-318699Y77399D01*
X-310258Y68958D01*
X-309837Y68344D01*
X-309663Y67554D01*
X-309790Y66872D01*
X-309790Y60762D01*
X-299238Y60762D01*
X-299238Y59238D01*
X-309790Y59238D01*
X-309790Y53448D01*
X-307779Y51437D01*
X-307358Y50822D01*
X-307184Y50032D01*
X-307332Y49237D01*
X-307779Y48563D01*
X-309790Y46552D01*
X-309790Y40762D01*
X-299238Y40762D01*
X-299238Y31960D01*
X-294132Y31960D01*
X-293400Y31823D01*
X-292718Y31388D01*
X-292261Y30721D01*
X-292100Y29928D01*
X-292100Y-85598D01*
X-292237Y-86331D01*
X-292672Y-87012D01*
X-293339Y-87469D01*
X-294132Y-87630D01*
X-312323Y-87630D01*
X-312414Y-87639D01*
X-312415Y-87639D01*
X-312491Y-87701D01*
X-316162Y-91372D01*
X-316220Y-91442D01*
X-316220Y-91443D01*
X-316230Y-91541D01*
X-316230Y-128173D01*
X-316221Y-128264D01*
X-316221Y-128265D01*
X-316159Y-128341D01*
X-313758Y-130742D01*
X-313688Y-130800D01*
X-313687Y-130800D01*
X-313589Y-130810D01*
X-311822Y-130810D01*
X-311090Y-130947D01*
X-310408Y-131382D01*
X-309951Y-132049D01*
X-309790Y-132842D01*
X-309790Y-139238D01*
X-299238Y-139238D01*
X-299238Y-140762D01*
X-309790Y-140762D01*
X-309790Y-146552D01*
X-307779Y-148563D01*
X-307358Y-149178D01*
X-307184Y-149968D01*
X-307332Y-150763D01*
X-307779Y-151437D01*
X-309790Y-153448D01*
X-309790Y-159238D01*
X-299238Y-159238D01*
X-299238Y-168040D01*
X-291419Y-168040D01*
X-290665Y-168185D01*
X-289988Y-168629D01*
X-289539Y-169301D01*
X-289387Y-170095D01*
X-289560Y-185415D01*
X-289560Y-185425D01*
X-289560Y-186593D01*
X-289551Y-186684D01*
X-289551Y-186685D01*
X-289489Y-186761D01*
X-284548Y-191702D01*
X-284478Y-191760D01*
X-284477Y-191760D01*
X-284379Y-191770D01*
X-266272Y-191770D01*
X-265509Y-191919D01*
X-264835Y-192365D01*
X-263485Y-193715D01*
X-263051Y-194359D01*
X-262890Y-195152D01*
X-262890Y-199898D01*
X-254634Y-199898D01*
X-254634Y-201422D01*
X-262890Y-201422D01*
X-262890Y-218343D01*
X-262881Y-218434D01*
X-262881Y-218435D01*
X-262819Y-218511D01*
X-249849Y-231481D01*
X-249441Y-232066D01*
X-249255Y-232853D01*
X-249390Y-233651D01*
X-249826Y-234332D01*
X-250493Y-234789D01*
G37*
%LPC*%
G36*
X-376790Y129712D02*
X-360512Y129712D01*
X-360512Y138240D01*
X-375302Y138240D01*
X-376790Y136752D01*
X-376790Y129712D01*
G37*
G36*
X-358988Y129712D02*
X-342710Y129712D01*
X-342710Y136752D01*
X-344198Y138240D01*
X-358988Y138240D01*
X-358988Y129712D01*
G37*
G36*
X-358988Y119660D02*
X-344198Y119660D01*
X-342710Y121148D01*
X-342710Y128188D01*
X-358988Y128188D01*
X-358988Y119660D01*
G37*
G36*
X-375302Y119660D02*
X-360512Y119660D01*
X-360512Y128188D01*
X-376790Y128188D01*
X-376790Y121148D01*
X-375302Y119660D01*
G37*
G36*
X-308302Y31960D02*
X-300762Y31960D01*
X-300762Y39238D01*
X-309790Y39238D01*
X-309790Y33448D01*
X-308302Y31960D01*
G37*
G36*
X-376790Y11812D02*
X-360512Y11812D01*
X-360512Y20340D01*
X-375302Y20340D01*
X-376790Y18852D01*
X-376790Y11812D01*
G37*
G36*
X-358988Y11812D02*
X-342710Y11812D01*
X-342710Y18852D01*
X-344198Y20340D01*
X-358988Y20340D01*
X-358988Y11812D01*
G37*
G36*
X-358988Y1760D02*
X-344198Y1760D01*
X-342710Y3248D01*
X-342710Y10288D01*
X-358988Y10288D01*
X-358988Y1760D01*
G37*
G36*
X-375302Y1760D02*
X-360512Y1760D01*
X-360512Y10288D01*
X-376790Y10288D01*
X-376790Y3248D01*
X-375302Y1760D01*
G37*
G36*
X-376790Y-70288D02*
X-360512Y-70288D01*
X-360512Y-61760D01*
X-375302Y-61760D01*
X-376790Y-63248D01*
X-376790Y-70288D01*
G37*
G36*
X-358988Y-70288D02*
X-342710Y-70288D01*
X-342710Y-63248D01*
X-344198Y-61760D01*
X-358988Y-61760D01*
X-358988Y-70288D01*
G37*
G36*
X-358988Y-80340D02*
X-344198Y-80340D01*
X-342710Y-78852D01*
X-342710Y-71812D01*
X-358988Y-71812D01*
X-358988Y-80340D01*
G37*
G36*
X-375302Y-80340D02*
X-360512Y-80340D01*
X-360512Y-71812D01*
X-376790Y-71812D01*
X-376790Y-78852D01*
X-375302Y-80340D01*
G37*
G36*
X-308302Y-168040D02*
X-300762Y-168040D01*
X-300762Y-160762D01*
X-309790Y-160762D01*
X-309790Y-166552D01*
X-308302Y-168040D01*
G37*
G36*
X-376790Y-188188D02*
X-360512Y-188188D01*
X-360512Y-179660D01*
X-375302Y-179660D01*
X-376790Y-181148D01*
X-376790Y-188188D01*
G37*
G36*
X-358988Y-188188D02*
X-342710Y-188188D01*
X-342710Y-181148D01*
X-344198Y-179660D01*
X-358988Y-179660D01*
X-358988Y-188188D01*
G37*
G36*
X-358988Y-198240D02*
X-344198Y-198240D01*
X-342710Y-196752D01*
X-342710Y-189712D01*
X-358988Y-189712D01*
X-358988Y-198240D01*
G37*
G36*
X-375302Y-198240D02*
X-360512Y-198240D01*
X-360512Y-189712D01*
X-376790Y-189712D01*
X-376790Y-196752D01*
X-375302Y-198240D01*
G37*
%LPD*%
G36*
X377172Y8950D02*
X376874Y8890D01*
X335596Y8890D01*
X335310Y8946D01*
X335057Y9113D01*
X324073Y20097D01*
X323910Y20338D01*
X323850Y20636D01*
X323850Y72302D01*
X323825Y72407D01*
X323806Y72434D01*
X315022Y81218D01*
X314930Y81275D01*
X314898Y81280D01*
X309462Y81280D01*
X309198Y81327D01*
X308940Y81486D01*
X308765Y81734D01*
X308700Y82030D01*
X308755Y82328D01*
X308923Y82581D01*
X309790Y83448D01*
X309790Y89238D01*
X290210Y89238D01*
X290210Y83448D01*
X291077Y82581D01*
X291230Y82361D01*
X291300Y82066D01*
X291249Y81767D01*
X291086Y81512D01*
X290836Y81340D01*
X290538Y81280D01*
X288606Y81280D01*
X288320Y81336D01*
X288067Y81503D01*
X287243Y82327D01*
X287080Y82568D01*
X287020Y82866D01*
X287020Y177484D01*
X287076Y177770D01*
X287243Y178023D01*
X294417Y185197D01*
X294658Y185360D01*
X294956Y185420D01*
X311062Y185420D01*
X311167Y185445D01*
X311194Y185464D01*
X317438Y191708D01*
X317495Y191800D01*
X317500Y191832D01*
X317500Y224702D01*
X317475Y224807D01*
X317456Y224834D01*
X312482Y229808D01*
X312390Y229865D01*
X312358Y229870D01*
X291146Y229870D01*
X290860Y229926D01*
X290607Y230093D01*
X288513Y232187D01*
X288350Y232428D01*
X288290Y232726D01*
X288290Y285434D01*
X288346Y285720D01*
X288513Y285973D01*
X305847Y303307D01*
X306088Y303470D01*
X306386Y303530D01*
X374334Y303530D01*
X374620Y303474D01*
X374873Y303307D01*
X397287Y280893D01*
X397450Y280652D01*
X397510Y280354D01*
X397510Y29526D01*
X397454Y29240D01*
X397287Y28987D01*
X377413Y9113D01*
X377172Y8950D01*
G37*
%LPC*%
G36*
X342710Y289712D02*
X358988Y289712D01*
X358988Y298240D01*
X344198Y298240D01*
X342710Y296752D01*
X342710Y289712D01*
G37*
G36*
X360512Y289712D02*
X376790Y289712D01*
X376790Y296752D01*
X375302Y298240D01*
X360512Y298240D01*
X360512Y289712D01*
G37*
G36*
X360512Y279660D02*
X375302Y279660D01*
X376790Y281148D01*
X376790Y288188D01*
X360512Y288188D01*
X360512Y279660D01*
G37*
G36*
X344198Y279660D02*
X358988Y279660D01*
X358988Y288188D01*
X342710Y288188D01*
X342710Y281148D01*
X344198Y279660D01*
G37*
G36*
X290210Y260762D02*
X299238Y260762D01*
X299238Y268040D01*
X291698Y268040D01*
X290210Y266552D01*
X290210Y260762D01*
G37*
G36*
X300762Y260762D02*
X309790Y260762D01*
X309790Y266552D01*
X308302Y268040D01*
X300762Y268040D01*
X300762Y260762D01*
G37*
G36*
X300762Y251960D02*
X308302Y251960D01*
X309790Y253448D01*
X309790Y259238D01*
X300762Y259238D01*
X300762Y251960D01*
G37*
G36*
X291698Y251960D02*
X299238Y251960D01*
X299238Y259238D01*
X290210Y259238D01*
X290210Y253448D01*
X291698Y251960D01*
G37*
G36*
X290210Y240762D02*
X299238Y240762D01*
X299238Y248040D01*
X291698Y248040D01*
X290210Y246552D01*
X290210Y240762D01*
G37*
G36*
X300762Y240762D02*
X309790Y240762D01*
X309790Y246552D01*
X308302Y248040D01*
X300762Y248040D01*
X300762Y240762D01*
G37*
G36*
X300762Y231960D02*
X308302Y231960D01*
X309790Y233448D01*
X309790Y239238D01*
X300762Y239238D01*
X300762Y231960D01*
G37*
G36*
X291698Y231960D02*
X299238Y231960D01*
X299238Y239238D01*
X290210Y239238D01*
X290210Y233448D01*
X291698Y231960D01*
G37*
G36*
X342710Y171812D02*
X358988Y171812D01*
X358988Y180340D01*
X344198Y180340D01*
X342710Y178852D01*
X342710Y171812D01*
G37*
G36*
X360512Y171812D02*
X376790Y171812D01*
X376790Y178852D01*
X375302Y180340D01*
X360512Y180340D01*
X360512Y171812D01*
G37*
G36*
X360512Y161760D02*
X375302Y161760D01*
X376790Y163248D01*
X376790Y170288D01*
X360512Y170288D01*
X360512Y161760D01*
G37*
G36*
X344198Y161760D02*
X358988Y161760D01*
X358988Y170288D01*
X342710Y170288D01*
X342710Y163248D01*
X344198Y161760D01*
G37*
G36*
X342710Y139712D02*
X358988Y139712D01*
X358988Y148240D01*
X344198Y148240D01*
X342710Y146752D01*
X342710Y139712D01*
G37*
G36*
X360512Y139712D02*
X376790Y139712D01*
X376790Y146752D01*
X375302Y148240D01*
X360512Y148240D01*
X360512Y139712D01*
G37*
G36*
X360512Y129660D02*
X375302Y129660D01*
X376790Y131148D01*
X376790Y138188D01*
X360512Y138188D01*
X360512Y129660D01*
G37*
G36*
X344198Y129660D02*
X358988Y129660D01*
X358988Y138188D01*
X342710Y138188D01*
X342710Y131148D01*
X344198Y129660D01*
G37*
G36*
X290210Y110762D02*
X299238Y110762D01*
X299238Y118040D01*
X291698Y118040D01*
X290210Y116552D01*
X290210Y110762D01*
G37*
G36*
X300762Y110762D02*
X309790Y110762D01*
X309790Y116552D01*
X308302Y118040D01*
X300762Y118040D01*
X300762Y110762D01*
G37*
G36*
X300762Y101960D02*
X308302Y101960D01*
X309790Y103448D01*
X309790Y109238D01*
X300762Y109238D01*
X300762Y101960D01*
G37*
G36*
X291698Y101960D02*
X299238Y101960D01*
X299238Y109238D01*
X290210Y109238D01*
X290210Y103448D01*
X291698Y101960D01*
G37*
G36*
X290210Y90762D02*
X299238Y90762D01*
X299238Y98040D01*
X291698Y98040D01*
X290210Y96552D01*
X290210Y90762D01*
G37*
G36*
X300762Y90762D02*
X309790Y90762D01*
X309790Y96552D01*
X308302Y98040D01*
X300762Y98040D01*
X300762Y90762D01*
G37*
G36*
X342710Y21812D02*
X358988Y21812D01*
X358988Y30340D01*
X344198Y30340D01*
X342710Y28852D01*
X342710Y21812D01*
G37*
G36*
X360512Y21812D02*
X376790Y21812D01*
X376790Y28852D01*
X375302Y30340D01*
X360512Y30340D01*
X360512Y21812D01*
G37*
G36*
X360512Y11760D02*
X375302Y11760D01*
X376790Y13248D01*
X376790Y20288D01*
X360512Y20288D01*
X360512Y11760D01*
G37*
G36*
X344198Y11760D02*
X358988Y11760D01*
X358988Y20288D01*
X342710Y20288D01*
X342710Y13248D01*
X344198Y11760D01*
G37*
%LPD*%
G36*
X-103041Y199450D02*
X-103339Y199390D01*
X-103672Y199390D01*
X-103946Y199441D01*
X-104202Y199605D01*
X-104373Y199855D01*
X-104434Y200152D01*
X-104434Y201032D01*
X-115062Y201032D01*
X-115062Y210157D01*
X-120941Y210157D01*
X-121227Y210213D01*
X-121480Y210380D01*
X-125800Y214700D01*
X-125963Y214942D01*
X-126024Y215239D01*
X-126024Y221352D01*
X-145757Y221352D01*
X-145757Y216662D01*
X-145808Y216387D01*
X-145971Y216132D01*
X-146221Y215960D01*
X-146519Y215900D01*
X-146852Y215900D01*
X-147126Y215951D01*
X-147382Y216115D01*
X-147553Y216365D01*
X-147614Y216662D01*
X-147614Y221352D01*
X-167347Y221352D01*
X-167347Y216662D01*
X-167398Y216387D01*
X-167561Y216132D01*
X-167811Y215960D01*
X-168109Y215900D01*
X-168442Y215900D01*
X-168716Y215951D01*
X-168972Y216115D01*
X-169143Y216365D01*
X-169204Y216662D01*
X-169204Y221352D01*
X-188937Y221352D01*
X-188937Y221256D01*
X-188983Y220993D01*
X-189143Y220735D01*
X-189390Y220559D01*
X-189686Y220494D01*
X-189984Y220550D01*
X-190237Y220717D01*
X-190277Y220757D01*
X-190440Y220998D01*
X-190500Y221296D01*
X-190500Y303214D01*
X-190444Y303500D01*
X-190277Y303753D01*
X-183103Y310927D01*
X-182862Y311090D01*
X-182564Y311150D01*
X107634Y311150D01*
X107920Y311094D01*
X108173Y310927D01*
X138207Y280893D01*
X138370Y280652D01*
X138430Y280354D01*
X138430Y225106D01*
X138374Y224820D01*
X138207Y224567D01*
X134843Y221203D01*
X134602Y221040D01*
X134304Y220980D01*
X103186Y220980D01*
X102900Y221036D01*
X102647Y221203D01*
X100553Y223297D01*
X100390Y223538D01*
X100330Y223836D01*
X100330Y226248D01*
X100381Y226523D01*
X100545Y226778D01*
X100795Y226950D01*
X101092Y227010D01*
X103638Y227010D01*
X103638Y232312D01*
X110440Y232312D01*
X110440Y237288D01*
X103638Y237288D01*
X103638Y238812D01*
X110440Y238812D01*
X110440Y243788D01*
X103638Y243788D01*
X103638Y245312D01*
X110440Y245312D01*
X110440Y247662D01*
X110426Y247683D01*
X110356Y247978D01*
X110407Y248277D01*
X110570Y248532D01*
X110821Y248704D01*
X111118Y248764D01*
X111697Y248764D01*
X111983Y248708D01*
X112236Y248541D01*
X114110Y246666D01*
X117030Y246666D01*
X119094Y248730D01*
X119094Y251650D01*
X117030Y253714D01*
X114110Y253714D01*
X113956Y253559D01*
X113714Y253396D01*
X113417Y253336D01*
X110085Y253336D01*
X109799Y253392D01*
X109546Y253559D01*
X108531Y254574D01*
X101092Y254574D01*
X100817Y254625D01*
X100562Y254789D01*
X100390Y255039D01*
X100330Y255336D01*
X100330Y260262D01*
X100305Y260367D01*
X100286Y260394D01*
X67372Y293308D01*
X67280Y293365D01*
X67248Y293370D01*
X-41822Y293370D01*
X-41927Y293345D01*
X-41954Y293326D01*
X-74868Y260412D01*
X-74925Y260320D01*
X-74930Y260288D01*
X-74930Y256352D01*
X-74981Y256077D01*
X-75145Y255822D01*
X-75395Y255650D01*
X-75692Y255590D01*
X-78238Y255590D01*
X-78238Y250288D01*
X-85040Y250288D01*
X-85040Y245312D01*
X-78238Y245312D01*
X-78238Y243788D01*
X-85040Y243788D01*
X-85040Y238812D01*
X-78238Y238812D01*
X-78238Y237288D01*
X-85040Y237288D01*
X-85040Y234938D01*
X-85026Y234917D01*
X-84956Y234622D01*
X-85007Y234323D01*
X-85170Y234068D01*
X-85421Y233896D01*
X-85718Y233836D01*
X-86897Y233836D01*
X-87636Y233097D01*
X-87877Y232934D01*
X-88175Y232874D01*
X-90670Y232874D01*
X-93174Y230370D01*
X-93174Y226830D01*
X-90670Y224326D01*
X-87130Y224326D01*
X-84626Y226830D01*
X-84626Y227681D01*
X-84579Y227944D01*
X-84420Y228202D01*
X-84172Y228378D01*
X-83876Y228443D01*
X-83578Y228387D01*
X-83325Y228220D01*
X-83131Y228026D01*
X-75692Y228026D01*
X-75417Y227975D01*
X-75162Y227811D01*
X-74990Y227561D01*
X-74930Y227264D01*
X-74930Y217486D01*
X-74986Y217200D01*
X-75153Y216947D01*
X-82598Y209502D01*
X-82829Y209344D01*
X-83125Y209279D01*
X-83423Y209334D01*
X-83676Y209502D01*
X-84331Y210157D01*
X-91948Y210157D01*
X-91948Y201032D01*
X-102577Y201032D01*
X-102577Y200152D01*
X-102628Y199877D01*
X-102791Y199622D01*
X-103041Y199450D01*
G37*
%LPC*%
G36*
X-85040Y251812D02*
X-79762Y251812D01*
X-79762Y255590D01*
X-83552Y255590D01*
X-85040Y254102D01*
X-85040Y251812D01*
G37*
G36*
X105162Y227010D02*
X108952Y227010D01*
X110440Y228498D01*
X110440Y230788D01*
X105162Y230788D01*
X105162Y227010D01*
G37*
G36*
X-188937Y222876D02*
X-179832Y222876D01*
X-179832Y230477D01*
X-187449Y230477D01*
X-188937Y228989D01*
X-188937Y222876D01*
G37*
G36*
X-167347Y222876D02*
X-158242Y222876D01*
X-158242Y230477D01*
X-165859Y230477D01*
X-167347Y228989D01*
X-167347Y222876D01*
G37*
G36*
X-145757Y222876D02*
X-136652Y222876D01*
X-136652Y230477D01*
X-144269Y230477D01*
X-145757Y228989D01*
X-145757Y222876D01*
G37*
G36*
X-135128Y222876D02*
X-126024Y222876D01*
X-126024Y228989D01*
X-127511Y230477D01*
X-135128Y230477D01*
X-135128Y222876D01*
G37*
G36*
X-156718Y222876D02*
X-147614Y222876D01*
X-147614Y228989D01*
X-149101Y230477D01*
X-156718Y230477D01*
X-156718Y222876D01*
G37*
G36*
X-178308Y222876D02*
X-169204Y222876D01*
X-169204Y228989D01*
X-170691Y230477D01*
X-178308Y230477D01*
X-178308Y222876D01*
G37*
G36*
X-113538Y202556D02*
X-104434Y202556D01*
X-104434Y208669D01*
X-105921Y210157D01*
X-113538Y210157D01*
X-113538Y202556D01*
G37*
G36*
X-102577Y202556D02*
X-93472Y202556D01*
X-93472Y210157D01*
X-101089Y210157D01*
X-102577Y208669D01*
X-102577Y202556D01*
G37*
%LPD*%
G36*
X380982Y-226000D02*
X380684Y-226060D01*
X292416Y-226060D01*
X292130Y-226004D01*
X291877Y-225837D01*
X283433Y-217393D01*
X283270Y-217152D01*
X283210Y-216854D01*
X283210Y-200976D01*
X283266Y-200690D01*
X283433Y-200437D01*
X286797Y-197073D01*
X287038Y-196910D01*
X287336Y-196850D01*
X312332Y-196850D01*
X312437Y-196825D01*
X312464Y-196806D01*
X322518Y-186752D01*
X322575Y-186660D01*
X322580Y-186628D01*
X322580Y-158838D01*
X322555Y-158733D01*
X322536Y-158706D01*
X310013Y-146183D01*
X309850Y-145942D01*
X309790Y-145644D01*
X309790Y-140762D01*
X290210Y-140762D01*
X290210Y-145288D01*
X290159Y-145563D01*
X289995Y-145818D01*
X289745Y-145990D01*
X289448Y-146050D01*
X286066Y-146050D01*
X285780Y-145994D01*
X285527Y-145827D01*
X283433Y-143733D01*
X283270Y-143492D01*
X283210Y-143194D01*
X283210Y-87946D01*
X283266Y-87660D01*
X283433Y-87407D01*
X286797Y-84043D01*
X287038Y-83880D01*
X287336Y-83820D01*
X341948Y-83820D01*
X342223Y-83871D01*
X342478Y-84035D01*
X342650Y-84285D01*
X342710Y-84582D01*
X342710Y-90288D01*
X376790Y-90288D01*
X376790Y-84582D01*
X376841Y-84307D01*
X377005Y-84052D01*
X377255Y-83880D01*
X377552Y-83820D01*
X380684Y-83820D01*
X380970Y-83876D01*
X381223Y-84043D01*
X396017Y-98837D01*
X396180Y-99078D01*
X396240Y-99376D01*
X396240Y-210504D01*
X396184Y-210790D01*
X396017Y-211043D01*
X381223Y-225837D01*
X380982Y-226000D01*
G37*
%LPC*%
G36*
X360512Y-100340D02*
X375302Y-100340D01*
X376790Y-98852D01*
X376790Y-91812D01*
X360512Y-91812D01*
X360512Y-100340D01*
G37*
G36*
X344198Y-100340D02*
X358988Y-100340D01*
X358988Y-91812D01*
X342710Y-91812D01*
X342710Y-98852D01*
X344198Y-100340D01*
G37*
G36*
X290210Y-119238D02*
X299238Y-119238D01*
X299238Y-111960D01*
X291698Y-111960D01*
X290210Y-113448D01*
X290210Y-119238D01*
G37*
G36*
X300762Y-119238D02*
X309790Y-119238D01*
X309790Y-113448D01*
X308302Y-111960D01*
X300762Y-111960D01*
X300762Y-119238D01*
G37*
G36*
X300762Y-128040D02*
X308302Y-128040D01*
X309790Y-126552D01*
X309790Y-120762D01*
X300762Y-120762D01*
X300762Y-128040D01*
G37*
G36*
X291698Y-128040D02*
X299238Y-128040D01*
X299238Y-120762D01*
X290210Y-120762D01*
X290210Y-126552D01*
X291698Y-128040D01*
G37*
G36*
X290210Y-139238D02*
X299238Y-139238D01*
X299238Y-131960D01*
X291698Y-131960D01*
X290210Y-133448D01*
X290210Y-139238D01*
G37*
G36*
X300762Y-139238D02*
X309790Y-139238D01*
X309790Y-133448D01*
X308302Y-131960D01*
X300762Y-131960D01*
X300762Y-139238D01*
G37*
G36*
X342710Y-208188D02*
X358988Y-208188D01*
X358988Y-199660D01*
X344198Y-199660D01*
X342710Y-201148D01*
X342710Y-208188D01*
G37*
G36*
X360512Y-208188D02*
X376790Y-208188D01*
X376790Y-201148D01*
X375302Y-199660D01*
X360512Y-199660D01*
X360512Y-208188D01*
G37*
G36*
X360512Y-218240D02*
X375302Y-218240D01*
X376790Y-216752D01*
X376790Y-209712D01*
X360512Y-209712D01*
X360512Y-218240D01*
G37*
G36*
X344198Y-218240D02*
X358988Y-218240D01*
X358988Y-209712D01*
X342710Y-209712D01*
X342710Y-216752D01*
X344198Y-218240D01*
G37*
%LPD*%
G36*
X268777Y-317440D02*
X268480Y-317500D01*
X254316Y-317500D01*
X254030Y-317444D01*
X253777Y-317277D01*
X249143Y-312643D01*
X248980Y-312402D01*
X248920Y-312104D01*
X248920Y-246696D01*
X248976Y-246410D01*
X249143Y-246157D01*
X256317Y-238983D01*
X256558Y-238820D01*
X256856Y-238760D01*
X412434Y-238760D01*
X412720Y-238816D01*
X412973Y-238983D01*
X420147Y-246157D01*
X420310Y-246398D01*
X420370Y-246696D01*
X420370Y-301944D01*
X420314Y-302230D01*
X420147Y-302483D01*
X405353Y-317277D01*
X405112Y-317440D01*
X404814Y-317500D01*
X388520Y-317500D01*
X388257Y-317453D01*
X387999Y-317294D01*
X387824Y-317046D01*
X387759Y-316750D01*
X387814Y-316452D01*
X387982Y-316199D01*
X389455Y-314726D01*
X391422Y-309977D01*
X391422Y-299836D01*
X389455Y-295087D01*
X385820Y-291452D01*
X381070Y-289484D01*
X275930Y-289484D01*
X271180Y-291452D01*
X267545Y-295087D01*
X265578Y-299836D01*
X265578Y-309977D01*
X267545Y-314726D01*
X269018Y-316199D01*
X269171Y-316419D01*
X269241Y-316714D01*
X269190Y-317013D01*
X269027Y-317268D01*
X268777Y-317440D01*
G37*
G36*
X-240189Y-38643D02*
X-240979Y-38817D01*
X-241774Y-38668D01*
X-242448Y-38222D01*
X-283885Y3215D01*
X-284319Y3859D01*
X-284480Y4652D01*
X-284480Y68483D01*
X-284489Y68574D01*
X-284489Y68575D01*
X-284551Y68651D01*
X-286952Y71052D01*
X-287022Y71110D01*
X-287023Y71110D01*
X-287121Y71120D01*
X-288178Y71120D01*
X-288911Y71257D01*
X-289592Y71692D01*
X-290049Y72359D01*
X-290210Y73152D01*
X-290210Y79238D01*
X-309881Y79238D01*
X-309915Y79044D01*
X-310340Y78355D01*
X-311000Y77888D01*
X-311790Y77714D01*
X-312585Y77862D01*
X-313259Y78309D01*
X-314365Y79415D01*
X-314799Y80059D01*
X-314960Y80852D01*
X-314960Y107108D01*
X-314811Y107871D01*
X-314365Y108545D01*
X-309205Y113705D01*
X-308561Y114139D01*
X-307768Y114300D01*
X-278972Y114300D01*
X-278209Y114151D01*
X-277535Y113705D01*
X-245705Y81875D01*
X-245271Y81231D01*
X-245110Y80438D01*
X-245110Y6447D01*
X-245101Y6356D01*
X-245101Y6355D01*
X-245039Y6279D01*
X-232478Y-6282D01*
X-232408Y-6340D01*
X-232407Y-6340D01*
X-232309Y-6350D01*
X-212609Y-6350D01*
X-211906Y-6475D01*
X-211218Y-6900D01*
X-210750Y-7560D01*
X-210577Y-8350D01*
X-210725Y-9145D01*
X-211172Y-9819D01*
X-239575Y-38222D01*
X-240189Y-38643D01*
G37*
%LPC*%
G36*
X-309790Y100762D02*
X-300762Y100762D01*
X-300762Y108040D01*
X-308302Y108040D01*
X-309790Y106552D01*
X-309790Y100762D01*
G37*
G36*
X-299238Y100762D02*
X-290210Y100762D01*
X-290210Y106552D01*
X-291698Y108040D01*
X-299238Y108040D01*
X-299238Y100762D01*
G37*
G36*
X-309790Y80762D02*
X-290210Y80762D01*
X-290210Y86552D01*
X-292221Y88563D01*
X-292642Y89178D01*
X-292816Y89968D01*
X-292668Y90763D01*
X-292221Y91437D01*
X-290210Y93448D01*
X-290210Y99238D01*
X-309790Y99238D01*
X-309790Y93448D01*
X-307779Y91437D01*
X-307358Y90822D01*
X-307184Y90032D01*
X-307332Y89237D01*
X-307779Y88563D01*
X-309790Y86552D01*
X-309790Y80762D01*
G37*
G36*
X-265010Y51606D02*
X-263310Y51606D01*
X-261739Y52257D01*
X-260537Y53459D01*
X-259886Y55030D01*
X-259886Y56730D01*
X-260537Y58301D01*
X-261739Y59503D01*
X-263310Y60154D01*
X-265010Y60154D01*
X-266581Y59503D01*
X-267783Y58301D01*
X-268434Y56730D01*
X-268434Y55030D01*
X-267783Y53459D01*
X-266581Y52257D01*
X-265010Y51606D01*
G37*
%LPD*%
G36*
X-123159Y-48115D02*
X-123952Y-48276D01*
X-162972Y-48276D01*
X-163735Y-48127D01*
X-164409Y-47681D01*
X-171382Y-40708D01*
X-171452Y-40650D01*
X-171453Y-40650D01*
X-171551Y-40640D01*
X-219191Y-40640D01*
X-219894Y-40515D01*
X-220582Y-40090D01*
X-221050Y-39430D01*
X-221223Y-38640D01*
X-221075Y-37845D01*
X-220628Y-37171D01*
X-193958Y-10501D01*
X-193314Y-10067D01*
X-192521Y-9906D01*
X-167466Y-9906D01*
X-166703Y-10055D01*
X-166029Y-10501D01*
X-146118Y-30412D01*
X-146048Y-30470D01*
X-146047Y-30470D01*
X-145949Y-30480D01*
X-137368Y-30480D01*
X-136635Y-30617D01*
X-135954Y-31052D01*
X-135496Y-31719D01*
X-135336Y-32512D01*
X-135336Y-34798D01*
X-128040Y-34798D01*
X-128040Y-42970D01*
X-123952Y-42970D01*
X-123220Y-43106D01*
X-122538Y-43542D01*
X-122081Y-44209D01*
X-121920Y-45002D01*
X-121920Y-46244D01*
X-122057Y-46977D01*
X-122492Y-47658D01*
X-123159Y-48115D01*
G37*
%LPC*%
G36*
X-133848Y-42970D02*
X-129564Y-42970D01*
X-129564Y-36322D01*
X-135336Y-36322D01*
X-135336Y-41482D01*
X-133848Y-42970D01*
G37*
%LPD*%
G36*
X-279418Y146110D02*
X-279716Y146050D01*
X-320994Y146050D01*
X-321280Y146106D01*
X-321533Y146273D01*
X-324897Y149637D01*
X-325060Y149878D01*
X-325120Y150176D01*
X-325120Y181294D01*
X-325064Y181580D01*
X-324897Y181833D01*
X-320263Y186467D01*
X-320022Y186630D01*
X-319724Y186690D01*
X-276948Y186690D01*
X-276843Y186715D01*
X-276816Y186734D01*
X-267707Y195843D01*
X-267488Y195996D01*
X-267193Y196066D01*
X-266894Y196015D01*
X-266638Y195851D01*
X-266467Y195601D01*
X-266407Y195304D01*
X-266407Y192651D01*
X-264919Y191163D01*
X-257302Y191163D01*
X-257302Y200288D01*
X-246674Y200288D01*
X-246674Y206401D01*
X-248161Y207889D01*
X-253821Y207889D01*
X-254085Y207936D01*
X-254343Y208095D01*
X-254518Y208343D01*
X-254583Y208639D01*
X-254528Y208937D01*
X-254360Y209190D01*
X-254223Y209327D01*
X-253982Y209490D01*
X-253684Y209550D01*
X-240684Y209550D01*
X-240409Y209499D01*
X-240154Y209335D01*
X-239982Y209085D01*
X-239922Y208788D01*
X-239922Y202734D01*
X-236737Y195044D01*
X-230851Y189159D01*
X-223162Y185974D01*
X-214838Y185974D01*
X-207149Y189159D01*
X-201263Y195044D01*
X-198078Y202734D01*
X-198078Y208788D01*
X-198027Y209063D01*
X-197863Y209318D01*
X-197613Y209490D01*
X-197316Y209550D01*
X-189699Y209550D01*
X-189424Y209499D01*
X-189168Y209335D01*
X-188997Y209085D01*
X-188937Y208788D01*
X-188937Y205368D01*
X-169204Y205368D01*
X-169204Y208788D01*
X-169152Y209063D01*
X-168989Y209318D01*
X-168739Y209490D01*
X-168442Y209550D01*
X-168109Y209550D01*
X-167834Y209499D01*
X-167578Y209335D01*
X-167407Y209085D01*
X-167347Y208788D01*
X-167347Y205368D01*
X-147614Y205368D01*
X-147614Y208788D01*
X-147562Y209063D01*
X-147399Y209318D01*
X-147149Y209490D01*
X-146852Y209550D01*
X-146519Y209550D01*
X-146244Y209499D01*
X-145988Y209335D01*
X-145817Y209085D01*
X-145757Y208788D01*
X-145757Y205368D01*
X-135128Y205368D01*
X-135128Y195862D01*
X-135151Y195862D01*
X-135100Y195789D01*
X-135035Y195493D01*
X-135090Y195195D01*
X-135258Y194942D01*
X-136937Y193263D01*
X-137178Y193100D01*
X-137476Y193040D01*
X-156158Y193040D01*
X-156198Y193034D01*
X-156201Y193033D01*
X-156210Y192978D01*
X-156210Y181853D01*
X-156261Y181578D01*
X-156425Y181323D01*
X-156675Y181151D01*
X-156972Y181091D01*
X-160833Y181091D01*
X-160833Y161428D01*
X-161408Y161428D01*
X-161350Y161344D01*
X-161290Y161047D01*
X-161290Y160782D01*
X-161341Y160507D01*
X-161505Y160252D01*
X-161755Y160080D01*
X-162052Y160020D01*
X-265342Y160020D01*
X-265447Y159995D01*
X-265474Y159976D01*
X-279177Y146273D01*
X-279418Y146110D01*
G37*
%LPC*%
G36*
X-144269Y196243D02*
X-136652Y196243D01*
X-136652Y203844D01*
X-145757Y203844D01*
X-145757Y197731D01*
X-144269Y196243D01*
G37*
G36*
X-156718Y196243D02*
X-149101Y196243D01*
X-147614Y197731D01*
X-147614Y203844D01*
X-156718Y203844D01*
X-156718Y196243D01*
G37*
G36*
X-165859Y196243D02*
X-158242Y196243D01*
X-158242Y203844D01*
X-167347Y203844D01*
X-167347Y197731D01*
X-165859Y196243D01*
G37*
G36*
X-178308Y196243D02*
X-170691Y196243D01*
X-169204Y197731D01*
X-169204Y203844D01*
X-178308Y203844D01*
X-178308Y196243D01*
G37*
G36*
X-187449Y196243D02*
X-179832Y196243D01*
X-179832Y203844D01*
X-188937Y203844D01*
X-188937Y197731D01*
X-187449Y196243D01*
G37*
G36*
X-255778Y191163D02*
X-248161Y191163D01*
X-246674Y192651D01*
X-246674Y198764D01*
X-255778Y198764D01*
X-255778Y191163D01*
G37*
G36*
X-322580Y167132D02*
X-313182Y167132D01*
X-313182Y184150D01*
X-314441Y184150D01*
X-318175Y182603D01*
X-321033Y179745D01*
X-322580Y176011D01*
X-322580Y167132D01*
G37*
G36*
X-311658Y167132D02*
X-302260Y167132D01*
X-302260Y176011D01*
X-303807Y179745D01*
X-306665Y182603D01*
X-310399Y184150D01*
X-311658Y184150D01*
X-311658Y167132D01*
G37*
G36*
X-169291Y172212D02*
X-162357Y172212D01*
X-162357Y181091D01*
X-167803Y181091D01*
X-169291Y179603D01*
X-169291Y172212D01*
G37*
G36*
X-200367Y170806D02*
X-191262Y170806D01*
X-191262Y178407D01*
X-198879Y178407D01*
X-200367Y176919D01*
X-200367Y170806D01*
G37*
G36*
X-221957Y170806D02*
X-212852Y170806D01*
X-212852Y178407D01*
X-220469Y178407D01*
X-221957Y176919D01*
X-221957Y170806D01*
G37*
G36*
X-211328Y170806D02*
X-202224Y170806D01*
X-202224Y176919D01*
X-203711Y178407D01*
X-211328Y178407D01*
X-211328Y170806D01*
G37*
G36*
X-189738Y170806D02*
X-180634Y170806D01*
X-180634Y176919D01*
X-182121Y178407D01*
X-189738Y178407D01*
X-189738Y170806D01*
G37*
G36*
X-263641Y171247D02*
X-254762Y171247D01*
X-254762Y178181D01*
X-262153Y178181D01*
X-263641Y176693D01*
X-263641Y171247D01*
G37*
G36*
X-253238Y162789D02*
X-245847Y162789D01*
X-244379Y164257D01*
X-244148Y164415D01*
X-243852Y164480D01*
X-243554Y164425D01*
X-243301Y164257D01*
X-241833Y162789D01*
X-234442Y162789D01*
X-234442Y178181D01*
X-241833Y178181D01*
X-243301Y176713D01*
X-243532Y176555D01*
X-243828Y176490D01*
X-244126Y176545D01*
X-244379Y176713D01*
X-245847Y178181D01*
X-253238Y178181D01*
X-253238Y162789D01*
G37*
G36*
X-232918Y171247D02*
X-224039Y171247D01*
X-224039Y176693D01*
X-225527Y178181D01*
X-232918Y178181D01*
X-232918Y171247D01*
G37*
G36*
X-167803Y161809D02*
X-162357Y161809D01*
X-162357Y170688D01*
X-169291Y170688D01*
X-169291Y163297D01*
X-167803Y161809D01*
G37*
G36*
X-232918Y162789D02*
X-225527Y162789D01*
X-224039Y164277D01*
X-224039Y169723D01*
X-232918Y169723D01*
X-232918Y162789D01*
G37*
G36*
X-262153Y162789D02*
X-254762Y162789D01*
X-254762Y169723D01*
X-263641Y169723D01*
X-263641Y164277D01*
X-262153Y162789D01*
G37*
G36*
X-189738Y161681D02*
X-182121Y161681D01*
X-180634Y163169D01*
X-180634Y169282D01*
X-189738Y169282D01*
X-189738Y161681D01*
G37*
G36*
X-198879Y161681D02*
X-191262Y161681D01*
X-191262Y169282D01*
X-200367Y169282D01*
X-200367Y163169D01*
X-198879Y161681D01*
G37*
G36*
X-211328Y161681D02*
X-203711Y161681D01*
X-202224Y163169D01*
X-202224Y169282D01*
X-211328Y169282D01*
X-211328Y161681D01*
G37*
G36*
X-220469Y161681D02*
X-212852Y161681D01*
X-212852Y169282D01*
X-221957Y169282D01*
X-221957Y163169D01*
X-220469Y161681D01*
G37*
G36*
X-311658Y148590D02*
X-310399Y148590D01*
X-306665Y150137D01*
X-303807Y152995D01*
X-302260Y156729D01*
X-302260Y165608D01*
X-311658Y165608D01*
X-311658Y148590D01*
G37*
G36*
X-314441Y148590D02*
X-313182Y148590D01*
X-313182Y165608D01*
X-322580Y165608D01*
X-322580Y156729D01*
X-321033Y152995D01*
X-318175Y150137D01*
X-314441Y148590D01*
G37*
%LPD*%
G36*
X-10192Y143524D02*
X-10261Y143510D01*
X-30164Y143510D01*
X-30450Y143566D01*
X-30703Y143733D01*
X-44966Y157996D01*
X-45129Y158238D01*
X-45190Y158535D01*
X-45190Y196798D01*
X-45195Y196838D01*
X-45196Y196841D01*
X-45252Y196850D01*
X-49718Y196850D01*
X-49993Y196901D01*
X-50248Y197065D01*
X-50420Y197315D01*
X-50480Y197612D01*
X-50480Y197618D01*
X-55782Y197618D01*
X-55782Y204420D01*
X-60758Y204420D01*
X-60758Y197618D01*
X-62282Y197618D01*
X-62282Y204420D01*
X-67258Y204420D01*
X-67258Y197618D01*
X-68782Y197618D01*
X-68782Y204420D01*
X-69427Y204420D01*
X-69690Y204467D01*
X-69948Y204626D01*
X-70124Y204874D01*
X-70189Y205170D01*
X-70133Y205468D01*
X-69982Y205696D01*
X-69982Y208624D01*
X-70897Y209539D01*
X-71060Y209781D01*
X-71120Y210078D01*
X-71120Y225248D01*
X-71069Y225523D01*
X-70905Y225778D01*
X-70655Y225950D01*
X-70358Y226010D01*
X-57812Y226010D01*
X-57812Y256590D01*
X-67960Y256590D01*
X-68224Y256637D01*
X-68482Y256796D01*
X-68657Y257044D01*
X-68722Y257340D01*
X-68667Y257638D01*
X-68499Y257891D01*
X-38323Y288067D01*
X-38082Y288230D01*
X-37784Y288290D01*
X-762Y288290D01*
X-487Y288239D01*
X-232Y288075D01*
X-60Y287825D01*
X0Y287528D01*
X0Y285562D01*
X-51Y285287D01*
X-215Y285032D01*
X-465Y284860D01*
X-762Y284800D01*
X-4238Y284800D01*
X-4293Y284791D01*
X-4294Y284788D01*
X-4300Y284748D01*
X-4300Y281352D01*
X-4351Y281077D01*
X-4515Y280822D01*
X-4765Y280650D01*
X-5062Y280590D01*
X-11538Y280590D01*
X-11538Y202010D01*
X-5062Y202010D01*
X-4787Y201959D01*
X-4532Y201795D01*
X-4360Y201545D01*
X-4300Y201248D01*
X-4300Y199216D01*
X-4356Y198930D01*
X-4523Y198677D01*
X-14633Y188567D01*
X-14690Y188475D01*
X-14696Y188442D01*
X-14696Y186481D01*
X-14751Y186195D01*
X-14919Y185942D01*
X-15103Y185758D01*
X-15103Y171167D01*
X-15154Y170892D01*
X-15318Y170637D01*
X-15568Y170465D01*
X-15865Y170405D01*
X-16139Y170405D01*
X-16414Y170456D01*
X-16669Y170620D01*
X-16841Y170870D01*
X-16901Y171167D01*
X-16901Y177038D01*
X-24502Y177038D01*
X-24502Y167934D01*
X-20026Y167934D01*
X-19751Y167882D01*
X-19496Y167719D01*
X-19324Y167469D01*
X-19264Y167172D01*
X-19264Y164714D01*
X-16907Y162357D01*
X-15458Y162357D01*
X-15183Y162306D01*
X-14928Y162142D01*
X-14756Y161892D01*
X-14696Y161595D01*
X-14696Y157592D01*
X-14690Y157552D01*
X-14689Y157549D01*
X-14634Y157540D01*
X-5456Y157540D01*
X-5170Y157484D01*
X-4917Y157317D01*
X-441Y152841D01*
X-288Y152621D01*
X-218Y152326D01*
X-269Y152027D01*
X-432Y151772D01*
X-538Y151699D01*
X-538Y145488D01*
X-4840Y145488D01*
X-4840Y144286D01*
X-4891Y144011D01*
X-5055Y143756D01*
X-5305Y143584D01*
X-5602Y143524D01*
X-10192Y143524D01*
G37*
%LPC*%
G36*
X-22840Y242062D02*
X-13062Y242062D01*
X-13062Y280590D01*
X-21352Y280590D01*
X-22840Y279102D01*
X-22840Y242062D01*
G37*
G36*
X-56288Y242062D02*
X-41960Y242062D01*
X-41960Y243788D01*
X-48762Y243788D01*
X-48762Y245312D01*
X-41960Y245312D01*
X-41960Y250288D01*
X-48762Y250288D01*
X-48762Y251812D01*
X-41960Y251812D01*
X-41960Y255102D01*
X-43448Y256590D01*
X-56288Y256590D01*
X-56288Y242062D01*
G37*
G36*
X-21352Y202010D02*
X-13062Y202010D01*
X-13062Y240538D01*
X-22840Y240538D01*
X-22840Y203498D01*
X-21352Y202010D01*
G37*
G36*
X-56288Y226010D02*
X-43448Y226010D01*
X-41960Y227498D01*
X-41960Y230788D01*
X-48762Y230788D01*
X-48762Y232312D01*
X-41960Y232312D01*
X-41960Y237288D01*
X-48762Y237288D01*
X-48762Y238812D01*
X-41960Y238812D01*
X-41960Y240538D01*
X-56288Y240538D01*
X-56288Y226010D01*
G37*
G36*
X-54258Y199142D02*
X-50480Y199142D01*
X-50480Y202932D01*
X-51968Y204420D01*
X-54258Y204420D01*
X-54258Y199142D01*
G37*
G36*
X-33627Y178562D02*
X-26026Y178562D01*
X-26026Y187667D01*
X-32139Y187667D01*
X-33627Y186179D01*
X-33627Y178562D01*
G37*
G36*
X-24502Y178562D02*
X-16901Y178562D01*
X-16901Y186179D01*
X-18389Y187667D01*
X-24502Y187667D01*
X-24502Y178562D01*
G37*
G36*
X-32139Y167934D02*
X-26026Y167934D01*
X-26026Y177038D01*
X-33627Y177038D01*
X-33627Y169421D01*
X-32139Y167934D01*
G37*
G36*
X-4840Y147012D02*
X-2062Y147012D01*
X-2062Y151540D01*
X-3352Y151540D01*
X-4840Y150052D01*
X-4840Y147012D01*
G37*
%LPD*%
G36*
X47272Y136250D02*
X46974Y136190D01*
X38002Y136190D01*
X37727Y136241D01*
X37621Y136309D01*
X37621Y136238D01*
X31188Y136238D01*
X31188Y137762D01*
X37258Y137762D01*
X37291Y137943D01*
X37455Y138198D01*
X37705Y138370D01*
X38002Y138430D01*
X38012Y138430D01*
X38117Y138455D01*
X38144Y138474D01*
X48198Y148528D01*
X48308Y148706D01*
X48417Y148843D01*
X49244Y149670D01*
X49244Y152590D01*
X48483Y153351D01*
X48320Y153592D01*
X48260Y153889D01*
X48260Y181522D01*
X48235Y181627D01*
X48216Y181654D01*
X29923Y199947D01*
X29760Y200188D01*
X29700Y200486D01*
X29700Y201248D01*
X29751Y201523D01*
X29915Y201778D01*
X30165Y201950D01*
X30462Y202010D01*
X36938Y202010D01*
X36938Y280590D01*
X30462Y280590D01*
X30187Y280641D01*
X29932Y280805D01*
X29760Y281055D01*
X29700Y281352D01*
X29700Y284738D01*
X29691Y284793D01*
X29688Y284794D01*
X29648Y284800D01*
X28702Y284800D01*
X28427Y284851D01*
X28172Y285015D01*
X28000Y285265D01*
X27940Y285562D01*
X27940Y288798D01*
X27991Y289073D01*
X28155Y289328D01*
X28405Y289500D01*
X28702Y289560D01*
X65724Y289560D01*
X66010Y289504D01*
X66263Y289337D01*
X97567Y258033D01*
X97730Y257792D01*
X97790Y257494D01*
X97790Y256692D01*
X97743Y256428D01*
X97584Y256170D01*
X97336Y255995D01*
X97040Y255930D01*
X96742Y255985D01*
X96489Y256153D01*
X96052Y256590D01*
X83212Y256590D01*
X83212Y226010D01*
X95900Y226010D01*
X96164Y225963D01*
X96422Y225804D01*
X96597Y225556D01*
X96662Y225260D01*
X96607Y224962D01*
X96439Y224709D01*
X77532Y205802D01*
X77475Y205710D01*
X77470Y205678D01*
X77470Y205552D01*
X77419Y205277D01*
X77255Y205022D01*
X77005Y204850D01*
X76708Y204790D01*
X74162Y204790D01*
X74162Y199488D01*
X67360Y199488D01*
X67360Y194512D01*
X74162Y194512D01*
X74162Y192988D01*
X67360Y192988D01*
X67360Y188012D01*
X74162Y188012D01*
X74162Y186488D01*
X67360Y186488D01*
X67360Y184198D01*
X68153Y183405D01*
X68316Y183164D01*
X68376Y182866D01*
X68376Y178119D01*
X69310Y177185D01*
X69363Y177175D01*
X69618Y177011D01*
X69790Y176761D01*
X69850Y176464D01*
X69850Y169836D01*
X69794Y169550D01*
X69636Y169312D01*
X69636Y165969D01*
X69790Y165741D01*
X69850Y165444D01*
X69850Y159066D01*
X69794Y158780D01*
X69627Y158527D01*
X47513Y136413D01*
X47272Y136250D01*
G37*
%LPC*%
G36*
X38462Y242062D02*
X48240Y242062D01*
X48240Y279102D01*
X46752Y280590D01*
X38462Y280590D01*
X38462Y242062D01*
G37*
G36*
X67360Y242062D02*
X81688Y242062D01*
X81688Y256590D01*
X68848Y256590D01*
X67360Y255102D01*
X67360Y251812D01*
X74162Y251812D01*
X74162Y250288D01*
X67360Y250288D01*
X67360Y245312D01*
X74162Y245312D01*
X74162Y243788D01*
X67360Y243788D01*
X67360Y242062D01*
G37*
G36*
X68848Y226010D02*
X81688Y226010D01*
X81688Y240538D01*
X67360Y240538D01*
X67360Y238812D01*
X74162Y238812D01*
X74162Y237288D01*
X67360Y237288D01*
X67360Y232312D01*
X74162Y232312D01*
X74162Y230788D01*
X67360Y230788D01*
X67360Y227498D01*
X68848Y226010D01*
G37*
G36*
X38462Y202010D02*
X46752Y202010D01*
X48240Y203498D01*
X48240Y240538D01*
X38462Y240538D01*
X38462Y202010D01*
G37*
G36*
X67360Y201012D02*
X72638Y201012D01*
X72638Y204790D01*
X68848Y204790D01*
X67360Y203302D01*
X67360Y201012D01*
G37*
G36*
X49921Y169672D02*
X57522Y169672D01*
X57522Y178777D01*
X51409Y178777D01*
X49921Y177289D01*
X49921Y169672D01*
G37*
G36*
X59046Y169672D02*
X66647Y169672D01*
X66647Y177289D01*
X65159Y178777D01*
X59046Y178777D01*
X59046Y169672D01*
G37*
G36*
X59046Y159044D02*
X65159Y159044D01*
X66647Y160531D01*
X66647Y168148D01*
X59046Y168148D01*
X59046Y159044D01*
G37*
G36*
X51409Y159044D02*
X57522Y159044D01*
X57522Y168148D01*
X49921Y168148D01*
X49921Y160531D01*
X51409Y159044D01*
G37*
%LPD*%
G36*
X-279418Y189290D02*
X-279716Y189230D01*
X-398464Y189230D01*
X-398750Y189286D01*
X-399003Y189453D01*
X-403637Y194087D01*
X-403800Y194328D01*
X-403860Y194626D01*
X-403860Y237174D01*
X-403804Y237460D01*
X-403637Y237713D01*
X-399003Y242347D01*
X-398762Y242510D01*
X-398464Y242570D01*
X-382516Y242570D01*
X-382224Y242512D01*
X-377570Y240584D01*
X-277730Y240584D01*
X-277444Y240529D01*
X-277191Y240361D01*
X-277083Y240253D01*
X-276920Y240012D01*
X-276860Y239714D01*
X-276860Y192086D01*
X-276916Y191800D01*
X-277083Y191547D01*
X-279177Y189453D01*
X-279418Y189290D01*
G37*
G36*
X172702Y1330D02*
X172404Y1270D01*
X156526Y1270D01*
X156240Y1326D01*
X155987Y1493D01*
X155163Y2317D01*
X155000Y2558D01*
X154940Y2856D01*
X154940Y30164D01*
X154996Y30450D01*
X155163Y30703D01*
X166147Y41687D01*
X166388Y41850D01*
X166686Y41910D01*
X170092Y41910D01*
X170197Y41935D01*
X170224Y41954D01*
X184088Y55818D01*
X184145Y55910D01*
X184150Y55942D01*
X184150Y56834D01*
X184206Y57120D01*
X184373Y57373D01*
X225998Y98998D01*
X226055Y99090D01*
X226060Y99122D01*
X226060Y140654D01*
X226116Y140940D01*
X226283Y141193D01*
X288228Y203138D01*
X288285Y203230D01*
X288290Y203262D01*
X288290Y224474D01*
X288346Y224760D01*
X288513Y225013D01*
X288909Y225409D01*
X289129Y225562D01*
X289424Y225632D01*
X289723Y225581D01*
X289978Y225418D01*
X290150Y225168D01*
X290210Y224870D01*
X290210Y220762D01*
X309790Y220762D01*
X309790Y226568D01*
X309841Y226843D01*
X310005Y227098D01*
X310255Y227270D01*
X310552Y227330D01*
X310834Y227330D01*
X311120Y227274D01*
X311373Y227107D01*
X313467Y225013D01*
X313630Y224772D01*
X313690Y224474D01*
X313690Y194626D01*
X313634Y194340D01*
X313467Y194087D01*
X307563Y188183D01*
X307322Y188020D01*
X307024Y187960D01*
X292188Y187960D01*
X292083Y187935D01*
X292056Y187916D01*
X283272Y179132D01*
X283215Y179040D01*
X283210Y179008D01*
X283210Y117156D01*
X283154Y116870D01*
X282987Y116617D01*
X274543Y108173D01*
X274302Y108010D01*
X274004Y107950D01*
X255945Y107950D01*
X255670Y108001D01*
X255414Y108165D01*
X255243Y108415D01*
X255183Y108712D01*
X255183Y109018D01*
X238126Y109018D01*
X238126Y107631D01*
X238070Y107345D01*
X237902Y107092D01*
X233742Y102932D01*
X233685Y102840D01*
X233680Y102808D01*
X233680Y85406D01*
X233624Y85120D01*
X233457Y84867D01*
X175322Y26732D01*
X175265Y26640D01*
X175260Y26608D01*
X175260Y4126D01*
X175204Y3840D01*
X175037Y3587D01*
X172943Y1493D01*
X172702Y1330D01*
G37*
%LPC*%
G36*
X300762Y211960D02*
X308302Y211960D01*
X309790Y213448D01*
X309790Y219238D01*
X300762Y219238D01*
X300762Y211960D01*
G37*
G36*
X291698Y211960D02*
X299238Y211960D01*
X299238Y219238D01*
X290210Y219238D01*
X290210Y213448D01*
X291698Y211960D01*
G37*
G36*
X290210Y200762D02*
X299238Y200762D01*
X299238Y208040D01*
X291698Y208040D01*
X290210Y206552D01*
X290210Y200762D01*
G37*
G36*
X300762Y200762D02*
X309790Y200762D01*
X309790Y206552D01*
X308302Y208040D01*
X300762Y208040D01*
X300762Y200762D01*
G37*
G36*
X300762Y191960D02*
X308302Y191960D01*
X309790Y193448D01*
X309790Y199238D01*
X300762Y199238D01*
X300762Y191960D01*
G37*
G36*
X291698Y191960D02*
X299238Y191960D01*
X299238Y199238D01*
X290210Y199238D01*
X290210Y193448D01*
X291698Y191960D01*
G37*
G36*
X256040Y158286D02*
X259580Y158286D01*
X262084Y160790D01*
X262084Y164330D01*
X259580Y166834D01*
X256040Y166834D01*
X253536Y164330D01*
X253536Y160790D01*
X256040Y158286D01*
G37*
G36*
X238126Y110542D02*
X255183Y110542D01*
X255183Y113232D01*
X255234Y113507D01*
X255397Y113762D01*
X255647Y113934D01*
X255945Y113994D01*
X258106Y113994D01*
X258392Y113938D01*
X258546Y113836D01*
X262120Y113836D01*
X264624Y116340D01*
X264624Y119880D01*
X262120Y122384D01*
X258580Y122384D01*
X256076Y119880D01*
X256076Y119328D01*
X256025Y119053D01*
X255861Y118798D01*
X255611Y118626D01*
X255314Y118566D01*
X254929Y118566D01*
X254654Y118617D01*
X254398Y118781D01*
X254281Y118952D01*
X254242Y118991D01*
X254084Y119222D01*
X254019Y119518D01*
X254074Y119816D01*
X254167Y119955D01*
X254167Y125566D01*
X253274Y126459D01*
X250972Y126459D01*
X250697Y126510D01*
X250442Y126674D01*
X250270Y126924D01*
X250210Y127221D01*
X250210Y133360D01*
X250266Y133646D01*
X250433Y133899D01*
X250654Y134120D01*
X250654Y137660D01*
X248150Y140164D01*
X244610Y140164D01*
X242106Y137660D01*
X242106Y134120D01*
X242875Y133351D01*
X243038Y133109D01*
X243098Y132812D01*
X243098Y127221D01*
X243047Y126946D01*
X242883Y126691D01*
X242633Y126519D01*
X242336Y126459D01*
X240034Y126459D01*
X239142Y125566D01*
X239142Y119959D01*
X239224Y119838D01*
X239290Y119542D01*
X239234Y119244D01*
X239142Y119105D01*
X239142Y114319D01*
X239086Y114033D01*
X238918Y113780D01*
X238126Y112987D01*
X238126Y110542D01*
G37*
G36*
X157691Y10184D02*
X164338Y10184D01*
X164338Y15956D01*
X159178Y15956D01*
X157691Y14468D01*
X157691Y10184D01*
G37*
G36*
X165862Y10184D02*
X172510Y10184D01*
X172510Y14468D01*
X171022Y15956D01*
X165862Y15956D01*
X165862Y10184D01*
G37*
G36*
X165862Y2889D02*
X171022Y2889D01*
X172510Y4376D01*
X172510Y8660D01*
X165862Y8660D01*
X165862Y2889D01*
G37*
G36*
X159178Y2889D02*
X164338Y2889D01*
X164338Y8660D01*
X157691Y8660D01*
X157691Y4376D01*
X159178Y2889D01*
G37*
%LPD*%
G36*
X133319Y118211D02*
X132824Y118110D01*
X105936Y118110D01*
X105459Y118203D01*
X105038Y118482D01*
X92012Y131508D01*
X91939Y131563D01*
X91789Y131582D01*
X91790Y131593D01*
X91446Y131657D01*
X91020Y131930D01*
X90735Y132347D01*
X90634Y132842D01*
X90634Y136390D01*
X88130Y138894D01*
X84590Y138894D01*
X82086Y136390D01*
X82086Y132842D01*
X82001Y132384D01*
X81728Y131958D01*
X81311Y131673D01*
X80816Y131572D01*
X38510Y131572D01*
X38052Y131657D01*
X37626Y131930D01*
X37415Y132238D01*
X31188Y132238D01*
X31188Y133762D01*
X37501Y133762D01*
X37598Y133914D01*
X38015Y134199D01*
X38510Y134300D01*
X47876Y134300D01*
X47923Y134305D01*
X47936Y134309D01*
X48001Y134352D01*
X79921Y161408D01*
X80003Y161508D01*
X80010Y161563D01*
X80010Y173940D01*
X80095Y174398D01*
X80368Y174824D01*
X80785Y175109D01*
X81280Y175210D01*
X94588Y175210D01*
X94588Y205790D01*
X88206Y205790D01*
X87767Y205868D01*
X87337Y206134D01*
X87045Y206546D01*
X86936Y207040D01*
X87029Y207537D01*
X87308Y207958D01*
X96148Y216798D01*
X96551Y217069D01*
X97046Y217170D01*
X136634Y217170D01*
X137111Y217077D01*
X137532Y216798D01*
X138058Y216272D01*
X138329Y215869D01*
X138430Y215374D01*
X138430Y212984D01*
X138352Y212545D01*
X138086Y212115D01*
X137674Y211822D01*
X137180Y211714D01*
X136737Y211797D01*
X130438Y211797D01*
X130438Y192064D01*
X136772Y192064D01*
X137120Y192146D01*
X137618Y192061D01*
X138044Y191789D01*
X138329Y191372D01*
X138430Y190876D01*
X138430Y188854D01*
X138352Y188415D01*
X138086Y187985D01*
X137674Y187692D01*
X137180Y187584D01*
X136737Y187667D01*
X130438Y187667D01*
X130438Y167934D01*
X136772Y167934D01*
X137120Y168016D01*
X137618Y167931D01*
X138044Y167659D01*
X138329Y167242D01*
X138430Y166746D01*
X138430Y123716D01*
X138337Y123239D01*
X138058Y122818D01*
X133722Y118482D01*
X133319Y118211D01*
G37*
%LPC*%
G36*
X121313Y202692D02*
X128914Y202692D01*
X128914Y211797D01*
X122801Y211797D01*
X121313Y210309D01*
X121313Y202692D01*
G37*
G36*
X96112Y191262D02*
X110440Y191262D01*
X110440Y192988D01*
X103638Y192988D01*
X103638Y194512D01*
X110440Y194512D01*
X110440Y199488D01*
X103638Y199488D01*
X103638Y201012D01*
X110440Y201012D01*
X110440Y204302D01*
X108952Y205790D01*
X96112Y205790D01*
X96112Y191262D01*
G37*
G36*
X122801Y192064D02*
X128914Y192064D01*
X128914Y201168D01*
X121313Y201168D01*
X121313Y193551D01*
X122801Y192064D01*
G37*
G36*
X96112Y175210D02*
X108952Y175210D01*
X110440Y176698D01*
X110440Y179988D01*
X103638Y179988D01*
X103638Y181512D01*
X110440Y181512D01*
X110440Y186488D01*
X103638Y186488D01*
X103638Y188012D01*
X110440Y188012D01*
X110440Y189738D01*
X96112Y189738D01*
X96112Y175210D01*
G37*
G36*
X121313Y178562D02*
X128914Y178562D01*
X128914Y187667D01*
X122801Y187667D01*
X121313Y186179D01*
X121313Y178562D01*
G37*
G36*
X122801Y167934D02*
X128914Y167934D01*
X128914Y177038D01*
X121313Y177038D01*
X121313Y169421D01*
X122801Y167934D01*
G37*
G36*
X105566Y143256D02*
X108868Y143256D01*
X108868Y148082D01*
X107054Y148082D01*
X105566Y146594D01*
X105566Y143256D01*
G37*
G36*
X104648Y131318D02*
X134112Y131318D01*
X134112Y138593D01*
X133566Y139139D01*
X133295Y139542D01*
X133194Y140037D01*
X133194Y141732D01*
X128368Y141732D01*
X128368Y148082D01*
X126451Y148082D01*
X126394Y148043D01*
X125900Y147934D01*
X125403Y148027D01*
X125320Y148082D01*
X123392Y148082D01*
X123392Y141732D01*
X121868Y141732D01*
X121868Y148082D01*
X119951Y148082D01*
X119894Y148043D01*
X119400Y147934D01*
X118903Y148027D01*
X118820Y148082D01*
X116892Y148082D01*
X116892Y141732D01*
X115368Y141732D01*
X115368Y148082D01*
X113451Y148082D01*
X113394Y148043D01*
X112900Y147934D01*
X112403Y148027D01*
X112320Y148082D01*
X110392Y148082D01*
X110392Y141732D01*
X105566Y141732D01*
X105566Y140037D01*
X105473Y139561D01*
X105194Y139139D01*
X104648Y138593D01*
X104648Y131318D01*
G37*
G36*
X129892Y143256D02*
X133194Y143256D01*
X133194Y146594D01*
X131706Y148082D01*
X129892Y148082D01*
X129892Y143256D01*
G37*
G36*
X120142Y121031D02*
X132624Y121031D01*
X134112Y122519D01*
X134112Y129794D01*
X120142Y129794D01*
X120142Y121031D01*
G37*
G36*
X106136Y121031D02*
X118618Y121031D01*
X118618Y129794D01*
X104648Y129794D01*
X104648Y122519D01*
X106136Y121031D01*
G37*
%LPD*%
G36*
X-157785Y-393539D02*
X-158577Y-393700D01*
X-237998Y-393700D01*
X-238731Y-393563D01*
X-239412Y-393128D01*
X-239869Y-392461D01*
X-240030Y-391668D01*
X-240030Y-375183D01*
X-239893Y-374451D01*
X-239458Y-373769D01*
X-238791Y-373312D01*
X-237998Y-373151D01*
X-234316Y-373151D01*
X-234316Y-358369D01*
X-237998Y-358369D01*
X-238731Y-358232D01*
X-239412Y-357797D01*
X-239869Y-357130D01*
X-240030Y-356337D01*
X-240030Y-337032D01*
X-239893Y-336300D01*
X-239458Y-335618D01*
X-238791Y-335161D01*
X-237998Y-335000D01*
X-237109Y-335000D01*
X-236376Y-335137D01*
X-235695Y-335572D01*
X-235237Y-336239D01*
X-235077Y-337032D01*
X-235077Y-338938D01*
X-218274Y-338938D01*
X-218274Y-337032D01*
X-218137Y-336300D01*
X-217701Y-335618D01*
X-217034Y-335161D01*
X-216242Y-335000D01*
X-204678Y-335000D01*
X-203945Y-335137D01*
X-203264Y-335572D01*
X-202806Y-336239D01*
X-202646Y-337032D01*
X-202646Y-339598D01*
X-195350Y-339598D01*
X-195350Y-347770D01*
X-191066Y-347770D01*
X-191033Y-347736D01*
X-190213Y-347237D01*
X-189409Y-347149D01*
X-188635Y-347382D01*
X-188013Y-347899D01*
X-187955Y-347970D01*
X-187859Y-347980D01*
X-161037Y-347980D01*
X-160605Y-348026D01*
X-159865Y-348352D01*
X-159310Y-348940D01*
X-159029Y-349699D01*
X-159066Y-350507D01*
X-159415Y-351236D01*
X-160021Y-351772D01*
X-163630Y-353856D01*
X-168373Y-359508D01*
X-170896Y-366441D01*
X-170896Y-373819D01*
X-168373Y-380752D01*
X-163630Y-386404D01*
X-157561Y-389908D01*
X-157211Y-390164D01*
X-156732Y-390816D01*
X-156546Y-391603D01*
X-156682Y-392401D01*
X-157118Y-393082D01*
X-157785Y-393539D01*
G37*
%LPC*%
G36*
X-225913Y-345030D02*
X-219761Y-345030D01*
X-218274Y-343542D01*
X-218274Y-340462D01*
X-225913Y-340462D01*
X-225913Y-345030D01*
G37*
G36*
X-233589Y-345030D02*
X-227437Y-345030D01*
X-227437Y-340462D01*
X-235077Y-340462D01*
X-235077Y-343542D01*
X-233589Y-345030D01*
G37*
G36*
X-201158Y-347770D02*
X-196874Y-347770D01*
X-196874Y-341122D01*
X-202646Y-341122D01*
X-202646Y-346282D01*
X-201158Y-347770D01*
G37*
G36*
X-232792Y-364998D02*
X-226410Y-364998D01*
X-226410Y-359857D01*
X-227897Y-358369D01*
X-232792Y-358369D01*
X-232792Y-364998D01*
G37*
G36*
X-232792Y-373151D02*
X-227897Y-373151D01*
X-226410Y-371663D01*
X-226410Y-366522D01*
X-232792Y-366522D01*
X-232792Y-373151D01*
G37*
%LPD*%
G36*
X182100Y219008D02*
X181802Y218948D01*
X147128Y218948D01*
X146842Y219004D01*
X146589Y219171D01*
X141955Y223805D01*
X141792Y224046D01*
X141732Y224344D01*
X141732Y251460D01*
X141783Y251735D01*
X141947Y251990D01*
X142197Y252162D01*
X142494Y252222D01*
X146508Y252222D01*
X146783Y252171D01*
X147038Y252007D01*
X147210Y251757D01*
X147270Y251460D01*
X147270Y238638D01*
X177850Y238638D01*
X177850Y251460D01*
X177901Y251735D01*
X178065Y251990D01*
X178315Y252162D01*
X178612Y252222D01*
X189178Y252222D01*
X189218Y252228D01*
X189221Y252229D01*
X189230Y252284D01*
X189230Y281438D01*
X189277Y281701D01*
X189436Y281959D01*
X189684Y282135D01*
X189980Y282200D01*
X190278Y282144D01*
X190531Y281977D01*
X194449Y278059D01*
X202138Y274874D01*
X210462Y274874D01*
X218151Y278059D01*
X222219Y282127D01*
X222439Y282280D01*
X222734Y282350D01*
X223033Y282299D01*
X223288Y282135D01*
X223460Y281885D01*
X223520Y281588D01*
X223520Y232726D01*
X223464Y232440D01*
X223297Y232187D01*
X222473Y231363D01*
X222232Y231200D01*
X221934Y231140D01*
X194398Y231140D01*
X194293Y231115D01*
X194266Y231096D01*
X182341Y219171D01*
X182100Y219008D01*
G37*
%LPC*%
G36*
X163322Y222786D02*
X165048Y222786D01*
X165048Y229588D01*
X166572Y229588D01*
X166572Y222786D01*
X171548Y222786D01*
X171548Y229588D01*
X173072Y229588D01*
X173072Y222786D01*
X176362Y222786D01*
X177850Y224274D01*
X177850Y237114D01*
X163322Y237114D01*
X163322Y222786D01*
G37*
G36*
X148758Y222786D02*
X152048Y222786D01*
X152048Y229588D01*
X153572Y229588D01*
X153572Y222786D01*
X158548Y222786D01*
X158548Y229588D01*
X160072Y229588D01*
X160072Y222786D01*
X161798Y222786D01*
X161798Y237114D01*
X147270Y237114D01*
X147270Y224274D01*
X148758Y222786D01*
G37*
%LPD*%
G36*
X157431Y-406239D02*
X156638Y-406400D01*
X141732Y-406400D01*
X141000Y-406263D01*
X140318Y-405828D01*
X139861Y-405161D01*
X139700Y-404368D01*
X139700Y-401562D01*
X139837Y-400830D01*
X140272Y-400148D01*
X140939Y-399691D01*
X141732Y-399530D01*
X147968Y-399530D01*
X147968Y-329450D01*
X141732Y-329450D01*
X141000Y-329313D01*
X140318Y-328878D01*
X139861Y-328211D01*
X139700Y-327418D01*
X139700Y-301832D01*
X139849Y-301069D01*
X140295Y-300395D01*
X162771Y-277919D01*
X163415Y-277485D01*
X164208Y-277324D01*
X164680Y-277324D01*
X166251Y-276673D01*
X167453Y-275471D01*
X168104Y-273900D01*
X168104Y-272200D01*
X167453Y-270629D01*
X166251Y-269427D01*
X164978Y-268899D01*
X164319Y-268459D01*
X163898Y-268038D01*
X163828Y-267980D01*
X163827Y-267980D01*
X163729Y-267970D01*
X162345Y-267970D01*
X161613Y-267833D01*
X160931Y-267398D01*
X160474Y-266731D01*
X160340Y-266072D01*
X148582Y-266072D01*
X148582Y-264548D01*
X160553Y-264548D01*
X160885Y-264028D01*
X161552Y-263571D01*
X162345Y-263410D01*
X172867Y-263410D01*
X173287Y-263454D01*
X174030Y-263775D01*
X174588Y-264361D01*
X174948Y-264934D01*
X175260Y-266016D01*
X175260Y-298919D01*
X175123Y-299651D01*
X174688Y-300332D01*
X174021Y-300790D01*
X173228Y-300951D01*
X168538Y-300951D01*
X168538Y-320684D01*
X173228Y-320684D01*
X173961Y-320820D01*
X174642Y-321256D01*
X175099Y-321923D01*
X175260Y-322716D01*
X175260Y-387778D01*
X175111Y-388541D01*
X174665Y-389215D01*
X158075Y-405805D01*
X157431Y-406239D01*
G37*
%LPC*%
G36*
X159413Y-310055D02*
X167014Y-310055D01*
X167014Y-300951D01*
X160901Y-300951D01*
X159413Y-302438D01*
X159413Y-310055D01*
G37*
G36*
X160901Y-320684D02*
X167014Y-320684D01*
X167014Y-311579D01*
X159413Y-311579D01*
X159413Y-319196D01*
X160901Y-320684D01*
G37*
G36*
X149492Y-363728D02*
X159770Y-363728D01*
X159770Y-330938D01*
X158282Y-329450D01*
X149492Y-329450D01*
X149492Y-363728D01*
G37*
G36*
X149492Y-399530D02*
X158282Y-399530D01*
X159770Y-398042D01*
X159770Y-365252D01*
X149492Y-365252D01*
X149492Y-399530D01*
G37*
%LPD*%
G36*
X-50758Y156330D02*
X-51056Y156270D01*
X-143254Y156270D01*
X-143540Y156326D01*
X-143793Y156493D01*
X-146466Y159166D01*
X-146629Y159408D01*
X-146689Y159705D01*
X-146689Y161047D01*
X-146638Y161322D01*
X-146475Y161577D01*
X-146225Y161749D01*
X-145927Y161809D01*
X-143967Y161809D01*
X-143967Y181091D01*
X-145927Y181091D01*
X-146202Y181142D01*
X-146457Y181306D01*
X-146629Y181556D01*
X-146689Y181853D01*
X-146689Y185735D01*
X-146634Y186021D01*
X-146466Y186274D01*
X-142463Y190277D01*
X-142222Y190440D01*
X-141924Y190500D01*
X-135954Y190500D01*
X-135894Y190510D01*
X-135856Y190552D01*
X-133576Y193971D01*
X-133239Y194250D01*
X-132942Y194310D01*
X-78421Y194310D01*
X-78135Y194254D01*
X-77882Y194087D01*
X-77151Y193356D01*
X-71889Y193356D01*
X-71809Y193436D01*
X-71578Y193594D01*
X-71282Y193659D01*
X-70984Y193603D01*
X-70731Y193436D01*
X-70651Y193356D01*
X-65389Y193356D01*
X-65309Y193436D01*
X-65078Y193594D01*
X-64782Y193659D01*
X-64484Y193603D01*
X-64231Y193436D01*
X-64151Y193356D01*
X-58889Y193356D01*
X-58809Y193436D01*
X-58578Y193594D01*
X-58282Y193659D01*
X-57984Y193603D01*
X-57731Y193436D01*
X-57651Y193356D01*
X-52389Y193356D01*
X-51658Y194087D01*
X-51416Y194250D01*
X-51119Y194310D01*
X-48412Y194310D01*
X-48137Y194259D01*
X-47882Y194095D01*
X-47710Y193845D01*
X-47650Y193548D01*
X-47650Y159676D01*
X-47706Y159390D01*
X-47873Y159137D01*
X-50517Y156493D01*
X-50758Y156330D01*
G37*
%LPC*%
G36*
X-102577Y185048D02*
X-93472Y185048D01*
X-93472Y192649D01*
X-101089Y192649D01*
X-102577Y191161D01*
X-102577Y185048D01*
G37*
G36*
X-124167Y185048D02*
X-115062Y185048D01*
X-115062Y192649D01*
X-122679Y192649D01*
X-124167Y191161D01*
X-124167Y185048D01*
G37*
G36*
X-113538Y185048D02*
X-104434Y185048D01*
X-104434Y191161D01*
X-105921Y192649D01*
X-113538Y192649D01*
X-113538Y185048D01*
G37*
G36*
X-91948Y185048D02*
X-82844Y185048D01*
X-82844Y191161D01*
X-84331Y192649D01*
X-91948Y192649D01*
X-91948Y185048D01*
G37*
G36*
X-80060Y177192D02*
X-65532Y177192D01*
X-65532Y191520D01*
X-78572Y191520D01*
X-80060Y190032D01*
X-80060Y177192D01*
G37*
G36*
X-64008Y177192D02*
X-49480Y177192D01*
X-49480Y190032D01*
X-50968Y191520D01*
X-64008Y191520D01*
X-64008Y177192D01*
G37*
G36*
X-91948Y175923D02*
X-84331Y175923D01*
X-82844Y177411D01*
X-82844Y183524D01*
X-91948Y183524D01*
X-91948Y175923D01*
G37*
G36*
X-101089Y175923D02*
X-93472Y175923D01*
X-93472Y183524D01*
X-102577Y183524D01*
X-102577Y177411D01*
X-101089Y175923D01*
G37*
G36*
X-113538Y175923D02*
X-105921Y175923D01*
X-104434Y177411D01*
X-104434Y183524D01*
X-113538Y183524D01*
X-113538Y175923D01*
G37*
G36*
X-122679Y175923D02*
X-115062Y175923D01*
X-115062Y183524D01*
X-124167Y183524D01*
X-124167Y177411D01*
X-122679Y175923D01*
G37*
G36*
X-142443Y172212D02*
X-135509Y172212D01*
X-135509Y179603D01*
X-136997Y181091D01*
X-142443Y181091D01*
X-142443Y172212D01*
G37*
G36*
X-64008Y161340D02*
X-62282Y161340D01*
X-62282Y168142D01*
X-60758Y168142D01*
X-60758Y161340D01*
X-55782Y161340D01*
X-55782Y168142D01*
X-54258Y168142D01*
X-54258Y161340D01*
X-50968Y161340D01*
X-49480Y162828D01*
X-49480Y175668D01*
X-64008Y175668D01*
X-64008Y161340D01*
G37*
G36*
X-78572Y161340D02*
X-75282Y161340D01*
X-75282Y168142D01*
X-73758Y168142D01*
X-73758Y161340D01*
X-68782Y161340D01*
X-68782Y168142D01*
X-67258Y168142D01*
X-67258Y161340D01*
X-65532Y161340D01*
X-65532Y175668D01*
X-80060Y175668D01*
X-80060Y162828D01*
X-78572Y161340D01*
G37*
G36*
X-142443Y161809D02*
X-136997Y161809D01*
X-135509Y163297D01*
X-135509Y170688D01*
X-142443Y170688D01*
X-142443Y161809D01*
G37*
%LPD*%
G36*
X-147785Y-228540D02*
X-148082Y-228600D01*
X-162244Y-228600D01*
X-162530Y-228544D01*
X-162783Y-228377D01*
X-175037Y-216123D01*
X-175200Y-215882D01*
X-175260Y-215584D01*
X-175260Y-133017D01*
X-175213Y-132754D01*
X-175054Y-132496D01*
X-174806Y-132320D01*
X-174510Y-132255D01*
X-174212Y-132311D01*
X-173959Y-132478D01*
X-173381Y-133057D01*
X-167268Y-133057D01*
X-167268Y-113324D01*
X-173381Y-113324D01*
X-173959Y-113902D01*
X-174179Y-114055D01*
X-174474Y-114124D01*
X-174773Y-114074D01*
X-175028Y-113910D01*
X-175200Y-113660D01*
X-175260Y-113363D01*
X-175260Y-99376D01*
X-175204Y-99090D01*
X-175037Y-98837D01*
X-171227Y-95027D01*
X-171007Y-94874D01*
X-170712Y-94804D01*
X-170413Y-94855D01*
X-170307Y-94923D01*
X-170307Y-94208D01*
X-158195Y-94208D01*
X-158195Y-98907D01*
X-149476Y-98907D01*
X-148621Y-98052D01*
X-148401Y-97899D01*
X-148106Y-97829D01*
X-147807Y-97880D01*
X-147552Y-98043D01*
X-147380Y-98294D01*
X-147320Y-98591D01*
X-147320Y-138673D01*
X-147350Y-138886D01*
X-147491Y-139154D01*
X-147726Y-139347D01*
X-147802Y-139387D01*
X-147804Y-139392D01*
X-147810Y-139432D01*
X-147810Y-142828D01*
X-147861Y-143103D01*
X-148025Y-143358D01*
X-148275Y-143530D01*
X-148572Y-143590D01*
X-155048Y-143590D01*
X-155048Y-222170D01*
X-148572Y-222170D01*
X-148297Y-222221D01*
X-148042Y-222385D01*
X-147870Y-222635D01*
X-147810Y-222932D01*
X-147810Y-226318D01*
X-147801Y-226373D01*
X-147761Y-226392D01*
X-147552Y-226536D01*
X-147380Y-226786D01*
X-147320Y-227083D01*
X-147320Y-227838D01*
X-147371Y-228113D01*
X-147535Y-228368D01*
X-147785Y-228540D01*
G37*
%LPC*%
G36*
X-168438Y-98907D02*
X-159719Y-98907D01*
X-159719Y-95732D01*
X-169926Y-95732D01*
X-169926Y-97419D01*
X-168438Y-98907D01*
G37*
G36*
X-165744Y-122428D02*
X-158143Y-122428D01*
X-158143Y-114811D01*
X-159631Y-113324D01*
X-165744Y-113324D01*
X-165744Y-122428D01*
G37*
G36*
X-165744Y-133057D02*
X-159631Y-133057D01*
X-158143Y-131569D01*
X-158143Y-123952D01*
X-165744Y-123952D01*
X-165744Y-133057D01*
G37*
G36*
X-166350Y-182118D02*
X-156572Y-182118D01*
X-156572Y-143590D01*
X-164862Y-143590D01*
X-166350Y-145078D01*
X-166350Y-182118D01*
G37*
G36*
X-164862Y-222170D02*
X-156572Y-222170D01*
X-156572Y-183642D01*
X-166350Y-183642D01*
X-166350Y-220682D01*
X-164862Y-222170D01*
G37*
%LPD*%
G36*
X298505Y-20260D02*
X298208Y-20320D01*
X259396Y-20320D01*
X259110Y-20264D01*
X258857Y-20097D01*
X242632Y-3872D01*
X242411Y-3735D01*
X242425Y-3714D01*
X242275Y-3641D01*
X242100Y-3393D01*
X242035Y-3097D01*
X242091Y-2799D01*
X242258Y-2546D01*
X244304Y-500D01*
X244304Y3040D01*
X241800Y5544D01*
X238260Y5544D01*
X235756Y3040D01*
X235756Y545D01*
X235700Y259D01*
X235533Y6D01*
X233278Y-2249D01*
X233048Y-2407D01*
X232752Y-2472D01*
X232454Y-2416D01*
X232201Y-2249D01*
X232199Y-2247D01*
X230512Y-2247D01*
X230512Y-13978D01*
X228988Y-13978D01*
X228988Y-2132D01*
X228832Y-2032D01*
X228660Y-1782D01*
X228600Y-1485D01*
X228600Y4764D01*
X228656Y5050D01*
X228823Y5303D01*
X238537Y15017D01*
X238778Y15180D01*
X239076Y15240D01*
X249874Y15240D01*
X250160Y15184D01*
X250413Y15017D01*
X261436Y3994D01*
X261599Y3752D01*
X261660Y3455D01*
X261660Y2300D01*
X262552Y1407D01*
X263707Y1407D01*
X263993Y1351D01*
X264246Y1184D01*
X264520Y910D01*
X264673Y690D01*
X264743Y395D01*
X264692Y96D01*
X264529Y-159D01*
X264279Y-331D01*
X263981Y-391D01*
X262131Y-391D01*
X260644Y-1879D01*
X260644Y-7992D01*
X280377Y-7992D01*
X280377Y-1879D01*
X279478Y-981D01*
X279293Y-678D01*
X279258Y-377D01*
X279343Y-86D01*
X279390Y3D01*
X279400Y62D01*
X279400Y2224D01*
X279456Y2510D01*
X279623Y2763D01*
X282987Y6127D01*
X283228Y6290D01*
X283526Y6350D01*
X364174Y6350D01*
X364460Y6294D01*
X364713Y6127D01*
X375697Y-4857D01*
X375860Y-5098D01*
X375920Y-5396D01*
X375920Y-19558D01*
X375869Y-19833D01*
X375705Y-20088D01*
X375455Y-20260D01*
X375158Y-20320D01*
X369812Y-20320D01*
X369537Y-20269D01*
X369282Y-20105D01*
X369110Y-19855D01*
X369050Y-19558D01*
X369050Y-12052D01*
X298970Y-12052D01*
X298970Y-19558D01*
X298919Y-19833D01*
X298755Y-20088D01*
X298505Y-20260D01*
G37*
%LPC*%
G36*
X298970Y-10528D02*
X333248Y-10528D01*
X333248Y-250D01*
X300458Y-250D01*
X298970Y-1738D01*
X298970Y-10528D01*
G37*
G36*
X334772Y-10528D02*
X369050Y-10528D01*
X369050Y-1738D01*
X367562Y-250D01*
X334772Y-250D01*
X334772Y-10528D01*
G37*
G36*
X271272Y-17117D02*
X278889Y-17117D01*
X280377Y-15629D01*
X280377Y-9516D01*
X271272Y-9516D01*
X271272Y-17117D01*
G37*
G36*
X262131Y-17117D02*
X269748Y-17117D01*
X269748Y-9516D01*
X260644Y-9516D01*
X260644Y-15629D01*
X262131Y-17117D01*
G37*
%LPD*%
G36*
X-262194Y-189170D02*
X-262491Y-189230D01*
X-281624Y-189230D01*
X-281910Y-189174D01*
X-282163Y-189007D01*
X-286759Y-184411D01*
X-286922Y-184169D01*
X-286983Y-183872D01*
X-286983Y-130936D01*
X-287007Y-130830D01*
X-287027Y-130804D01*
X-289498Y-128332D01*
X-289590Y-128275D01*
X-289622Y-128270D01*
X-290088Y-128270D01*
X-290352Y-128223D01*
X-290610Y-128064D01*
X-290785Y-127816D01*
X-290850Y-127520D01*
X-290795Y-127222D01*
X-290627Y-126969D01*
X-290210Y-126552D01*
X-290210Y-120762D01*
X-309790Y-120762D01*
X-309790Y-126552D01*
X-309373Y-126969D01*
X-309220Y-127189D01*
X-309150Y-127484D01*
X-309201Y-127783D01*
X-309364Y-128038D01*
X-309615Y-128210D01*
X-309912Y-128270D01*
X-310834Y-128270D01*
X-311120Y-128214D01*
X-311373Y-128047D01*
X-312197Y-127223D01*
X-312360Y-126982D01*
X-312420Y-126684D01*
X-312420Y-93026D01*
X-312364Y-92740D01*
X-312197Y-92487D01*
X-310103Y-90393D01*
X-309862Y-90230D01*
X-309564Y-90170D01*
X-287336Y-90170D01*
X-287050Y-90226D01*
X-286797Y-90393D01*
X-266923Y-110267D01*
X-266760Y-110508D01*
X-266700Y-110806D01*
X-266700Y-167552D01*
X-266675Y-167657D01*
X-266656Y-167684D01*
X-265445Y-168895D01*
X-265287Y-169126D01*
X-265222Y-169422D01*
X-265277Y-169720D01*
X-265445Y-169973D01*
X-266471Y-170999D01*
X-266471Y-175894D01*
X-251689Y-175894D01*
X-251689Y-170942D01*
X-251638Y-170667D01*
X-251474Y-170412D01*
X-251224Y-170240D01*
X-250927Y-170180D01*
X-250433Y-170180D01*
X-250158Y-170231D01*
X-249903Y-170395D01*
X-249731Y-170645D01*
X-249671Y-170942D01*
X-249671Y-176073D01*
X-239268Y-176073D01*
X-239268Y-184531D01*
X-231877Y-184531D01*
X-231083Y-183737D01*
X-230864Y-183584D01*
X-230569Y-183515D01*
X-230270Y-183565D01*
X-230014Y-183729D01*
X-229864Y-183948D01*
X-220492Y-183948D01*
X-220492Y-185472D01*
X-229783Y-185472D01*
X-229783Y-188162D01*
X-229834Y-188437D01*
X-229997Y-188692D01*
X-230247Y-188864D01*
X-230545Y-188924D01*
X-261869Y-188924D01*
X-261952Y-189007D01*
X-262194Y-189170D01*
G37*
%LPC*%
G36*
X-309790Y-99238D02*
X-300762Y-99238D01*
X-300762Y-91960D01*
X-308302Y-91960D01*
X-309790Y-93448D01*
X-309790Y-99238D01*
G37*
G36*
X-299238Y-99238D02*
X-290210Y-99238D01*
X-290210Y-93448D01*
X-291698Y-91960D01*
X-299238Y-91960D01*
X-299238Y-99238D01*
G37*
G36*
X-299238Y-108040D02*
X-291698Y-108040D01*
X-290210Y-106552D01*
X-290210Y-100762D01*
X-299238Y-100762D01*
X-299238Y-108040D01*
G37*
G36*
X-308302Y-108040D02*
X-300762Y-108040D01*
X-300762Y-100762D01*
X-309790Y-100762D01*
X-309790Y-106552D01*
X-308302Y-108040D01*
G37*
G36*
X-309790Y-119238D02*
X-300762Y-119238D01*
X-300762Y-111960D01*
X-308302Y-111960D01*
X-309790Y-113448D01*
X-309790Y-119238D01*
G37*
G36*
X-299238Y-119238D02*
X-290210Y-119238D01*
X-290210Y-113448D01*
X-291698Y-111960D01*
X-299238Y-111960D01*
X-299238Y-119238D01*
G37*
G36*
X-258318Y-183801D02*
X-253177Y-183801D01*
X-251689Y-182313D01*
X-251689Y-177418D01*
X-258318Y-177418D01*
X-258318Y-183801D01*
G37*
G36*
X-264983Y-183801D02*
X-259842Y-183801D01*
X-259842Y-177418D01*
X-266471Y-177418D01*
X-266471Y-182313D01*
X-264983Y-183801D01*
G37*
G36*
X-248183Y-184531D02*
X-240792Y-184531D01*
X-240792Y-177597D01*
X-249671Y-177597D01*
X-249671Y-183043D01*
X-248183Y-184531D01*
G37*
%LPD*%
G36*
X129509Y-307239D02*
X129014Y-307340D01*
X118110Y-307340D01*
X117652Y-307255D01*
X117226Y-306982D01*
X116941Y-306565D01*
X116840Y-306070D01*
X116840Y-275844D01*
X116925Y-275386D01*
X117198Y-274960D01*
X117615Y-274675D01*
X118110Y-274574D01*
X126238Y-274574D01*
X126238Y-241046D01*
X118110Y-241046D01*
X117652Y-240961D01*
X117226Y-240688D01*
X116941Y-240271D01*
X116840Y-239776D01*
X116840Y-215900D01*
X116925Y-215442D01*
X117198Y-215016D01*
X117615Y-214731D01*
X118110Y-214630D01*
X131365Y-214630D01*
X131822Y-214715D01*
X132248Y-214988D01*
X132534Y-215405D01*
X132635Y-215900D01*
X132635Y-220218D01*
X139930Y-220218D01*
X139930Y-228390D01*
X143510Y-228390D01*
X143968Y-228475D01*
X144394Y-228747D01*
X144679Y-229164D01*
X144780Y-229660D01*
X144780Y-231884D01*
X144687Y-232361D01*
X144408Y-232782D01*
X137224Y-239966D01*
X137165Y-240044D01*
X137136Y-240118D01*
X137107Y-240234D01*
X136834Y-240660D01*
X136417Y-240945D01*
X135922Y-241046D01*
X127762Y-241046D01*
X127762Y-274574D01*
X135890Y-274574D01*
X136348Y-274659D01*
X136774Y-274932D01*
X137059Y-275349D01*
X137160Y-275844D01*
X137160Y-276760D01*
X137175Y-276852D01*
X137264Y-276863D01*
X137563Y-276938D01*
X137989Y-277211D01*
X138274Y-277628D01*
X138282Y-277666D01*
X139863Y-279247D01*
X148582Y-279247D01*
X148582Y-274548D01*
X150106Y-274548D01*
X150106Y-279247D01*
X154567Y-279247D01*
X155006Y-279325D01*
X155436Y-279591D01*
X155728Y-280003D01*
X155837Y-280497D01*
X155744Y-280994D01*
X155465Y-281415D01*
X129912Y-306968D01*
X129509Y-307239D01*
G37*
%LPC*%
G36*
X134122Y-228390D02*
X138406Y-228390D01*
X138406Y-221742D01*
X132635Y-221742D01*
X132635Y-226902D01*
X134122Y-228390D01*
G37*
%LPD*%
G36*
X93928Y-261519D02*
X93433Y-261620D01*
X32276Y-261620D01*
X31799Y-261527D01*
X31378Y-261248D01*
X29582Y-259452D01*
X29311Y-259049D01*
X29210Y-258554D01*
X29210Y-246906D01*
X29303Y-246429D01*
X29582Y-246008D01*
X31378Y-244212D01*
X31781Y-243941D01*
X32276Y-243840D01*
X39925Y-243840D01*
X40382Y-243925D01*
X40808Y-244198D01*
X41094Y-244615D01*
X41195Y-245110D01*
X41195Y-249428D01*
X54262Y-249428D01*
X54262Y-245110D01*
X54347Y-244652D01*
X54619Y-244226D01*
X55036Y-243941D01*
X55532Y-243840D01*
X57245Y-243840D01*
X57702Y-243925D01*
X58128Y-244198D01*
X58414Y-244615D01*
X58515Y-245110D01*
X58515Y-255691D01*
X59407Y-256584D01*
X68657Y-256584D01*
X69550Y-255691D01*
X69550Y-251714D01*
X69635Y-251256D01*
X69907Y-250830D01*
X70324Y-250545D01*
X70820Y-250444D01*
X74408Y-250444D01*
X74884Y-250537D01*
X75306Y-250816D01*
X75569Y-251079D01*
X89531Y-251079D01*
X90424Y-250186D01*
X90424Y-245110D01*
X90509Y-244652D01*
X90782Y-244226D01*
X91199Y-243941D01*
X91694Y-243840D01*
X92417Y-243840D01*
X92875Y-243925D01*
X93301Y-244198D01*
X93541Y-244548D01*
X105418Y-244548D01*
X105418Y-246072D01*
X93687Y-246072D01*
X93687Y-249548D01*
X105418Y-249548D01*
X105418Y-251072D01*
X93687Y-251072D01*
X93687Y-254548D01*
X105418Y-254548D01*
X105418Y-256072D01*
X93687Y-256072D01*
X93687Y-257759D01*
X94331Y-258403D01*
X94602Y-258806D01*
X94703Y-259301D01*
X94703Y-260350D01*
X94618Y-260808D01*
X94345Y-261234D01*
X93928Y-261519D01*
G37*
%LPC*%
G36*
X48490Y-257600D02*
X52774Y-257600D01*
X54262Y-256112D01*
X54262Y-250952D01*
X48490Y-250952D01*
X48490Y-257600D01*
G37*
G36*
X42682Y-257600D02*
X46966Y-257600D01*
X46966Y-250952D01*
X41195Y-250952D01*
X41195Y-256112D01*
X42682Y-257600D01*
G37*
%LPD*%
G36*
X258506Y-74870D02*
X258209Y-74930D01*
X242886Y-74930D01*
X242600Y-74874D01*
X242347Y-74707D01*
X237814Y-70174D01*
X237661Y-69954D01*
X237591Y-69659D01*
X237642Y-69360D01*
X237805Y-69105D01*
X238055Y-68933D01*
X238353Y-68873D01*
X238988Y-68873D01*
X238988Y-57142D01*
X243687Y-57142D01*
X243687Y-50292D01*
X243738Y-50017D01*
X243902Y-49762D01*
X244152Y-49590D01*
X244449Y-49530D01*
X298208Y-49530D01*
X298483Y-49581D01*
X298738Y-49745D01*
X298910Y-49995D01*
X298970Y-50292D01*
X298970Y-56528D01*
X369050Y-56528D01*
X369050Y-50292D01*
X369101Y-50017D01*
X369265Y-49762D01*
X369515Y-49590D01*
X369812Y-49530D01*
X375158Y-49530D01*
X375433Y-49581D01*
X375688Y-49745D01*
X375860Y-49995D01*
X375920Y-50292D01*
X375920Y-65724D01*
X375864Y-66010D01*
X375697Y-66263D01*
X367253Y-74707D01*
X367012Y-74870D01*
X366714Y-74930D01*
X277731Y-74930D01*
X277468Y-74883D01*
X277210Y-74724D01*
X277034Y-74476D01*
X276969Y-74180D01*
X277025Y-73882D01*
X277192Y-73629D01*
X277837Y-72985D01*
X277837Y-66872D01*
X258104Y-66872D01*
X258104Y-72985D01*
X258748Y-73629D01*
X258901Y-73849D01*
X258970Y-74144D01*
X258920Y-74443D01*
X258756Y-74698D01*
X258506Y-74870D01*
G37*
%LPC*%
G36*
X258104Y-65348D02*
X267208Y-65348D01*
X267208Y-57747D01*
X259591Y-57747D01*
X258104Y-59235D01*
X258104Y-65348D01*
G37*
G36*
X268732Y-65348D02*
X277837Y-65348D01*
X277837Y-59235D01*
X276349Y-57747D01*
X268732Y-57747D01*
X268732Y-65348D01*
G37*
G36*
X334772Y-68330D02*
X367562Y-68330D01*
X369050Y-66842D01*
X369050Y-58052D01*
X334772Y-58052D01*
X334772Y-68330D01*
G37*
G36*
X300458Y-68330D02*
X333248Y-68330D01*
X333248Y-58052D01*
X298970Y-58052D01*
X298970Y-66842D01*
X300458Y-68330D01*
G37*
G36*
X240512Y-68873D02*
X242199Y-68873D01*
X243687Y-67385D01*
X243687Y-58666D01*
X240512Y-58666D01*
X240512Y-68873D01*
G37*
%LPD*%
G36*
X309849Y10261D02*
X309354Y10160D01*
X291356Y10160D01*
X290879Y10253D01*
X290458Y10532D01*
X264532Y36458D01*
X264261Y36861D01*
X264160Y37356D01*
X264160Y71864D01*
X264253Y72341D01*
X264532Y72762D01*
X270138Y78368D01*
X270541Y78639D01*
X271036Y78740D01*
X289332Y78740D01*
X289771Y78662D01*
X290201Y78396D01*
X290493Y77984D01*
X290602Y77490D01*
X290509Y76993D01*
X290230Y76572D01*
X290210Y76552D01*
X290210Y70762D01*
X309790Y70762D01*
X309790Y76552D01*
X309770Y76572D01*
X309515Y76938D01*
X309399Y77430D01*
X309484Y77928D01*
X309756Y78354D01*
X310173Y78639D01*
X310668Y78740D01*
X314434Y78740D01*
X314911Y78647D01*
X315332Y78368D01*
X319668Y74032D01*
X319939Y73629D01*
X320040Y73134D01*
X320040Y20846D01*
X319947Y20369D01*
X319668Y19948D01*
X310252Y10532D01*
X309849Y10261D01*
G37*
%LPC*%
G36*
X300762Y61960D02*
X308302Y61960D01*
X309790Y63448D01*
X309790Y69238D01*
X300762Y69238D01*
X300762Y61960D01*
G37*
G36*
X291698Y61960D02*
X299238Y61960D01*
X299238Y69238D01*
X290210Y69238D01*
X290210Y63448D01*
X291698Y61960D01*
G37*
G36*
X290210Y50762D02*
X299238Y50762D01*
X299238Y58040D01*
X291698Y58040D01*
X290210Y56552D01*
X290210Y50762D01*
G37*
G36*
X300762Y50762D02*
X309790Y50762D01*
X309790Y56552D01*
X308302Y58040D01*
X300762Y58040D01*
X300762Y50762D01*
G37*
G36*
X300762Y41960D02*
X308302Y41960D01*
X309790Y43448D01*
X309790Y49238D01*
X300762Y49238D01*
X300762Y41960D01*
G37*
G36*
X291698Y41960D02*
X299238Y41960D01*
X299238Y49238D01*
X290210Y49238D01*
X290210Y43448D01*
X291698Y41960D01*
G37*
%LPD*%
G36*
X-101618Y-228540D02*
X-101916Y-228600D01*
X-113538Y-228600D01*
X-113813Y-228549D01*
X-114068Y-228385D01*
X-114240Y-228135D01*
X-114300Y-227838D01*
X-114300Y-227087D01*
X-114270Y-226874D01*
X-114129Y-226606D01*
X-113894Y-226413D01*
X-113818Y-226373D01*
X-113816Y-226368D01*
X-113810Y-226328D01*
X-113810Y-222932D01*
X-113759Y-222657D01*
X-113595Y-222402D01*
X-113345Y-222230D01*
X-113048Y-222170D01*
X-106572Y-222170D01*
X-106572Y-143590D01*
X-113048Y-143590D01*
X-113323Y-143539D01*
X-113578Y-143375D01*
X-113750Y-143125D01*
X-113810Y-142828D01*
X-113810Y-139442D01*
X-113819Y-139387D01*
X-113859Y-139368D01*
X-114068Y-139224D01*
X-114240Y-138974D01*
X-114300Y-138677D01*
X-114300Y-114997D01*
X-114244Y-114711D01*
X-114077Y-114458D01*
X-98096Y-98477D01*
X-97855Y-98314D01*
X-97557Y-98254D01*
X-97290Y-98254D01*
X-94786Y-95750D01*
X-94786Y-92210D01*
X-95030Y-91966D01*
X-95233Y-91601D01*
X-95275Y-91423D01*
X-95294Y-91396D01*
X-98998Y-87692D01*
X-99090Y-87635D01*
X-99122Y-87630D01*
X-101143Y-87630D01*
X-101429Y-87574D01*
X-101682Y-87407D01*
X-101913Y-87176D01*
X-102538Y-87176D01*
X-102813Y-87125D01*
X-103068Y-86961D01*
X-103240Y-86711D01*
X-103300Y-86414D01*
X-103300Y-85732D01*
X-115031Y-85732D01*
X-115031Y-84208D01*
X-103185Y-84208D01*
X-103085Y-84052D01*
X-102835Y-83880D01*
X-102538Y-83820D01*
X-90486Y-83820D01*
X-90200Y-83876D01*
X-89947Y-84043D01*
X-82773Y-91217D01*
X-82610Y-91458D01*
X-82550Y-91756D01*
X-82550Y-102554D01*
X-82606Y-102840D01*
X-82773Y-103093D01*
X-92648Y-112968D01*
X-92705Y-113060D01*
X-92710Y-113092D01*
X-92710Y-113363D01*
X-92757Y-113626D01*
X-92916Y-113884D01*
X-93164Y-114060D01*
X-93460Y-114125D01*
X-93758Y-114069D01*
X-94011Y-113902D01*
X-94589Y-113324D01*
X-100702Y-113324D01*
X-100702Y-133057D01*
X-94589Y-133057D01*
X-94011Y-132478D01*
X-93791Y-132325D01*
X-93496Y-132256D01*
X-93197Y-132306D01*
X-92942Y-132470D01*
X-92770Y-132720D01*
X-92710Y-133017D01*
X-92710Y-135802D01*
X-92685Y-135907D01*
X-92666Y-135934D01*
X-89123Y-139477D01*
X-88960Y-139718D01*
X-88900Y-140016D01*
X-88900Y-215584D01*
X-88956Y-215870D01*
X-89123Y-216123D01*
X-93969Y-220969D01*
X-94189Y-221122D01*
X-94484Y-221192D01*
X-94783Y-221141D01*
X-95038Y-220978D01*
X-95210Y-220728D01*
X-95270Y-220430D01*
X-95270Y-183642D01*
X-105048Y-183642D01*
X-105048Y-222170D01*
X-97010Y-222170D01*
X-96746Y-222217D01*
X-96488Y-222376D01*
X-96313Y-222624D01*
X-96248Y-222920D01*
X-96303Y-223218D01*
X-96471Y-223471D01*
X-101377Y-228377D01*
X-101618Y-228540D01*
G37*
%LPC*%
G36*
X-109827Y-122428D02*
X-102226Y-122428D01*
X-102226Y-113324D01*
X-108339Y-113324D01*
X-109827Y-114811D01*
X-109827Y-122428D01*
G37*
G36*
X-108339Y-133057D02*
X-102226Y-133057D01*
X-102226Y-123952D01*
X-109827Y-123952D01*
X-109827Y-131569D01*
X-108339Y-133057D01*
G37*
G36*
X-105048Y-182118D02*
X-95270Y-182118D01*
X-95270Y-145078D01*
X-96758Y-143590D01*
X-105048Y-143590D01*
X-105048Y-182118D01*
G37*
%LPD*%
G36*
X111711Y-407509D02*
X110918Y-407670D01*
X93552Y-407670D01*
X92789Y-407521D01*
X92115Y-407075D01*
X85685Y-400645D01*
X85251Y-400001D01*
X85090Y-399208D01*
X85090Y-332312D01*
X85239Y-331549D01*
X85685Y-330875D01*
X87562Y-328998D01*
X87620Y-328928D01*
X87620Y-328927D01*
X87630Y-328829D01*
X87630Y-309079D01*
X87767Y-308346D01*
X88202Y-307665D01*
X88869Y-307207D01*
X89662Y-307047D01*
X94352Y-307047D01*
X94352Y-287314D01*
X89662Y-287314D01*
X88930Y-287177D01*
X88248Y-286741D01*
X87791Y-286074D01*
X87630Y-285282D01*
X87630Y-277702D01*
X87779Y-276939D01*
X88225Y-276265D01*
X90218Y-274272D01*
X90803Y-273864D01*
X91590Y-273678D01*
X92388Y-273813D01*
X93069Y-274249D01*
X93306Y-274595D01*
X93306Y-274548D01*
X105418Y-274548D01*
X105418Y-279247D01*
X110998Y-279247D01*
X111731Y-279384D01*
X112412Y-279819D01*
X112869Y-280486D01*
X113030Y-281279D01*
X113030Y-324385D01*
X112805Y-325315D01*
X112299Y-325946D01*
X112239Y-325996D01*
X112237Y-326000D01*
X112230Y-326082D01*
X112230Y-327418D01*
X112093Y-328151D01*
X111658Y-328832D01*
X110991Y-329289D01*
X110198Y-329450D01*
X103492Y-329450D01*
X103492Y-399530D01*
X110198Y-399530D01*
X110931Y-399667D01*
X111612Y-400102D01*
X112069Y-400769D01*
X112230Y-401562D01*
X112230Y-402889D01*
X112240Y-402985D01*
X112272Y-403011D01*
X112869Y-403801D01*
X113030Y-404594D01*
X113030Y-405558D01*
X112881Y-406321D01*
X112435Y-406995D01*
X112355Y-407075D01*
X111711Y-407509D01*
G37*
%LPC*%
G36*
X95175Y-279247D02*
X103894Y-279247D01*
X103894Y-276072D01*
X93687Y-276072D01*
X93687Y-277759D01*
X95175Y-279247D01*
G37*
G36*
X95876Y-296418D02*
X103477Y-296418D01*
X103477Y-288801D01*
X101989Y-287314D01*
X95876Y-287314D01*
X95876Y-296418D01*
G37*
G36*
X95876Y-307047D02*
X101989Y-307047D01*
X103477Y-305559D01*
X103477Y-297942D01*
X95876Y-297942D01*
X95876Y-307047D01*
G37*
G36*
X91690Y-363728D02*
X101968Y-363728D01*
X101968Y-329450D01*
X93178Y-329450D01*
X91690Y-330938D01*
X91690Y-363728D01*
G37*
G36*
X93178Y-399530D02*
X101968Y-399530D01*
X101968Y-365252D01*
X91690Y-365252D01*
X91690Y-398042D01*
X93178Y-399530D01*
G37*
%LPD*%
G36*
X266682Y209610D02*
X266384Y209550D01*
X249236Y209550D01*
X248950Y209606D01*
X248697Y209773D01*
X240253Y218217D01*
X240090Y218458D01*
X240030Y218756D01*
X240030Y281438D01*
X240077Y281701D01*
X240236Y281959D01*
X240484Y282135D01*
X240780Y282200D01*
X241078Y282144D01*
X241331Y281977D01*
X245249Y278059D01*
X252938Y274874D01*
X261262Y274874D01*
X268951Y278059D01*
X271749Y280857D01*
X271969Y281010D01*
X272264Y281080D01*
X272563Y281029D01*
X272818Y280865D01*
X272990Y280615D01*
X273050Y280318D01*
X273050Y216216D01*
X272994Y215930D01*
X272827Y215677D01*
X266923Y209773D01*
X266682Y209610D01*
G37*
G36*
X170416Y46034D02*
X170118Y45974D01*
X119442Y45974D01*
X119156Y46030D01*
X118903Y46197D01*
X115793Y49307D01*
X115630Y49548D01*
X115570Y49846D01*
X115570Y67222D01*
X115545Y67327D01*
X115526Y67354D01*
X112290Y70590D01*
X112137Y70809D01*
X112068Y71104D01*
X112118Y71403D01*
X112282Y71659D01*
X112532Y71830D01*
X112829Y71891D01*
X117088Y71891D01*
X118576Y73378D01*
X118576Y78538D01*
X111280Y78538D01*
X111280Y80062D01*
X118576Y80062D01*
X118576Y85222D01*
X118484Y85313D01*
X118331Y85533D01*
X118261Y85828D01*
X118312Y86127D01*
X118475Y86382D01*
X118726Y86554D01*
X119023Y86614D01*
X123053Y86614D01*
X123316Y86567D01*
X123574Y86408D01*
X123750Y86160D01*
X123815Y85864D01*
X123759Y85566D01*
X123679Y85445D01*
X123679Y80506D01*
X138461Y80506D01*
X138461Y85439D01*
X138395Y85533D01*
X138326Y85828D01*
X138376Y86127D01*
X138540Y86382D01*
X138790Y86554D01*
X139087Y86614D01*
X140947Y86614D01*
X141222Y86563D01*
X141477Y86399D01*
X141649Y86149D01*
X141709Y85852D01*
X141709Y80197D01*
X160991Y80197D01*
X160991Y85852D01*
X161042Y86127D01*
X161206Y86382D01*
X161456Y86554D01*
X161753Y86614D01*
X175960Y86614D01*
X176246Y86558D01*
X176499Y86391D01*
X179863Y83027D01*
X180026Y82786D01*
X180086Y82488D01*
X180086Y55942D01*
X180030Y55656D01*
X179863Y55403D01*
X170657Y46197D01*
X170416Y46034D01*
G37*
%LPC*%
G36*
X131832Y72600D02*
X136973Y72600D01*
X138461Y74087D01*
X138461Y78982D01*
X131832Y78982D01*
X131832Y72600D01*
G37*
G36*
X125167Y72600D02*
X130308Y72600D01*
X130308Y78982D01*
X123679Y78982D01*
X123679Y74087D01*
X125167Y72600D01*
G37*
G36*
X152112Y71739D02*
X159503Y71739D01*
X160991Y73227D01*
X160991Y78673D01*
X152112Y78673D01*
X152112Y71739D01*
G37*
G36*
X143197Y71739D02*
X150588Y71739D01*
X150588Y78673D01*
X141709Y78673D01*
X141709Y73227D01*
X143197Y71739D01*
G37*
%LPD*%
G36*
X-170701Y-77369D02*
X-171196Y-77470D01*
X-173736Y-77470D01*
X-174194Y-77385D01*
X-174620Y-77112D01*
X-174905Y-76695D01*
X-175006Y-76200D01*
X-175006Y-71124D01*
X-175899Y-70231D01*
X-189861Y-70231D01*
X-190632Y-71002D01*
X-191035Y-71273D01*
X-191530Y-71374D01*
X-196807Y-71374D01*
X-197264Y-71289D01*
X-197690Y-71016D01*
X-197976Y-70599D01*
X-198077Y-70104D01*
X-198077Y-69567D01*
X-198969Y-68675D01*
X-208280Y-68675D01*
X-208738Y-68589D01*
X-209164Y-68317D01*
X-209449Y-67900D01*
X-209550Y-67405D01*
X-209550Y-65692D01*
X-209465Y-65234D01*
X-209192Y-64808D01*
X-208775Y-64522D01*
X-208280Y-64422D01*
X-205232Y-64422D01*
X-205232Y-51355D01*
X-208280Y-51355D01*
X-208738Y-51269D01*
X-209164Y-50997D01*
X-209449Y-50580D01*
X-209550Y-50085D01*
X-209550Y-44450D01*
X-209465Y-43992D01*
X-209192Y-43566D01*
X-208775Y-43281D01*
X-208280Y-43180D01*
X-193566Y-43180D01*
X-193089Y-43273D01*
X-192668Y-43552D01*
X-191126Y-45094D01*
X-190855Y-45497D01*
X-190754Y-45992D01*
X-190754Y-53393D01*
X-190601Y-53621D01*
X-190500Y-54116D01*
X-190500Y-57644D01*
X-190593Y-58120D01*
X-190754Y-58364D01*
X-190754Y-66036D01*
X-189861Y-66929D01*
X-175899Y-66929D01*
X-175382Y-66412D01*
X-174979Y-66141D01*
X-174484Y-66040D01*
X-174080Y-66040D01*
X-173990Y-66027D01*
X-173933Y-65983D01*
X-173346Y-65396D01*
X-172943Y-65125D01*
X-172931Y-65122D01*
X-172094Y-64285D01*
X-171728Y-64030D01*
X-171236Y-63914D01*
X-170738Y-63999D01*
X-170312Y-64271D01*
X-170307Y-64279D01*
X-170307Y-64208D01*
X-158195Y-64208D01*
X-158195Y-65732D01*
X-169926Y-65732D01*
X-169926Y-69208D01*
X-158195Y-69208D01*
X-158195Y-70732D01*
X-169926Y-70732D01*
X-169926Y-74208D01*
X-158195Y-74208D01*
X-158195Y-75732D01*
X-169926Y-75732D01*
X-169926Y-76200D01*
X-170011Y-76658D01*
X-170284Y-77084D01*
X-170701Y-77369D01*
G37*
%LPC*%
G36*
X-203708Y-57126D02*
X-197061Y-57126D01*
X-197061Y-52842D01*
X-198548Y-51355D01*
X-203708Y-51355D01*
X-203708Y-57126D01*
G37*
G36*
X-203708Y-64422D02*
X-198548Y-64422D01*
X-197061Y-62934D01*
X-197061Y-58650D01*
X-203708Y-58650D01*
X-203708Y-64422D01*
G37*
%LPD*%
G36*
X-119224Y-115469D02*
X-119719Y-115570D01*
X-140444Y-115570D01*
X-140921Y-115477D01*
X-141342Y-115198D01*
X-144408Y-112132D01*
X-144679Y-111729D01*
X-144780Y-111234D01*
X-144780Y-95504D01*
X-144695Y-95046D01*
X-144422Y-94620D01*
X-144005Y-94335D01*
X-143510Y-94234D01*
X-137375Y-94234D01*
X-137375Y-60706D01*
X-146050Y-60706D01*
X-146508Y-60621D01*
X-146934Y-60348D01*
X-147219Y-59931D01*
X-147320Y-59436D01*
X-147320Y-56406D01*
X-147227Y-55929D01*
X-146948Y-55508D01*
X-145152Y-53712D01*
X-144749Y-53441D01*
X-144254Y-53340D01*
X-128796Y-53340D01*
X-128319Y-53433D01*
X-127898Y-53712D01*
X-126102Y-55508D01*
X-125831Y-55911D01*
X-125730Y-56406D01*
X-125730Y-59436D01*
X-125815Y-59894D01*
X-126088Y-60320D01*
X-126505Y-60605D01*
X-127000Y-60706D01*
X-135851Y-60706D01*
X-135851Y-94234D01*
X-127000Y-94234D01*
X-126542Y-94319D01*
X-126116Y-94592D01*
X-125831Y-95009D01*
X-125730Y-95504D01*
X-125730Y-96430D01*
X-125717Y-96520D01*
X-125673Y-96577D01*
X-125610Y-96640D01*
X-125339Y-97043D01*
X-125268Y-97389D01*
X-123747Y-98910D01*
X-123510Y-98935D01*
X-123341Y-99009D01*
X-123338Y-99002D01*
X-123191Y-99049D01*
X-123146Y-99028D01*
X-122605Y-98907D01*
X-115031Y-98907D01*
X-115031Y-94208D01*
X-113507Y-94208D01*
X-113507Y-98907D01*
X-106680Y-98907D01*
X-106222Y-98992D01*
X-105796Y-99265D01*
X-105511Y-99682D01*
X-105410Y-100177D01*
X-105410Y-100664D01*
X-105491Y-101109D01*
X-105759Y-101538D01*
X-116828Y-113205D01*
X-116852Y-113229D01*
X-118821Y-115198D01*
X-119224Y-115469D01*
G37*
G36*
X215512Y-2247D02*
X215512Y-13978D01*
X213988Y-13978D01*
X213988Y-2222D01*
X213847Y-2196D01*
X213592Y-2032D01*
X213420Y-1782D01*
X213360Y-1485D01*
X213360Y60644D01*
X213416Y60930D01*
X213583Y61183D01*
X236158Y83758D01*
X236215Y83850D01*
X236220Y83882D01*
X236220Y102554D01*
X236276Y102840D01*
X236443Y103093D01*
X236825Y103475D01*
X237044Y103628D01*
X237339Y103698D01*
X237638Y103647D01*
X237745Y103579D01*
X237745Y104042D01*
X255183Y104042D01*
X255183Y104517D01*
X255234Y104791D01*
X255397Y105047D01*
X255647Y105218D01*
X255945Y105279D01*
X258222Y105279D01*
X258574Y105193D01*
X258810Y105002D01*
X261445Y101811D01*
X261560Y101623D01*
X261620Y101326D01*
X261620Y89216D01*
X261564Y88930D01*
X261397Y88677D01*
X235012Y62292D01*
X234955Y62200D01*
X234950Y62168D01*
X234950Y14286D01*
X234894Y14000D01*
X234727Y13747D01*
X226122Y5142D01*
X226065Y5050D01*
X226060Y5018D01*
X226060Y-1485D01*
X226009Y-1760D01*
X225845Y-2015D01*
X225595Y-2187D01*
X225512Y-2204D01*
X225512Y-13978D01*
X223988Y-13978D01*
X223988Y-2247D01*
X220512Y-2247D01*
X220512Y-13978D01*
X218988Y-13978D01*
X218988Y-2247D01*
X215512Y-2247D01*
G37*
%LPC*%
G36*
X247416Y98585D02*
X253695Y98585D01*
X255183Y100073D01*
X255183Y102518D01*
X247416Y102518D01*
X247416Y98585D01*
G37*
G36*
X239613Y98585D02*
X245892Y98585D01*
X245892Y102518D01*
X238126Y102518D01*
X238126Y100073D01*
X239613Y98585D01*
G37*
G36*
X216563Y52832D02*
X224164Y52832D01*
X224164Y61937D01*
X218051Y61937D01*
X216563Y60449D01*
X216563Y52832D01*
G37*
G36*
X225688Y52832D02*
X233289Y52832D01*
X233289Y60449D01*
X231801Y61937D01*
X225688Y61937D01*
X225688Y52832D01*
G37*
G36*
X225688Y42204D02*
X231801Y42204D01*
X233289Y43691D01*
X233289Y51308D01*
X225688Y51308D01*
X225688Y42204D01*
G37*
G36*
X218051Y42204D02*
X224164Y42204D01*
X224164Y51308D01*
X216563Y51308D01*
X216563Y43691D01*
X218051Y42204D01*
G37*
G36*
X216563Y27686D02*
X224164Y27686D01*
X224164Y36790D01*
X218051Y36790D01*
X216563Y35302D01*
X216563Y27686D01*
G37*
G36*
X225688Y27686D02*
X233289Y27686D01*
X233289Y35302D01*
X231801Y36790D01*
X225688Y36790D01*
X225688Y27686D01*
G37*
G36*
X225688Y17057D02*
X231801Y17057D01*
X233289Y18545D01*
X233289Y26162D01*
X225688Y26162D01*
X225688Y17057D01*
G37*
G36*
X218051Y17057D02*
X224164Y17057D01*
X224164Y26162D01*
X216563Y26162D01*
X216563Y18545D01*
X218051Y17057D01*
G37*
%LPD*%
G36*
X204247Y-46829D02*
X203454Y-46990D01*
X184992Y-46990D01*
X184229Y-46841D01*
X183555Y-46395D01*
X177125Y-39965D01*
X176691Y-39321D01*
X176530Y-38528D01*
X176530Y-31958D01*
X176667Y-31225D01*
X177102Y-30544D01*
X177769Y-30086D01*
X178562Y-29926D01*
X182118Y-29926D01*
X182118Y-22630D01*
X190290Y-22630D01*
X190290Y-21082D01*
X190426Y-20350D01*
X190862Y-19668D01*
X191529Y-19211D01*
X192322Y-19050D01*
X193468Y-19050D01*
X194231Y-19199D01*
X194905Y-19645D01*
X199322Y-24062D01*
X199392Y-24120D01*
X199393Y-24120D01*
X199491Y-24130D01*
X203454Y-24130D01*
X204187Y-24267D01*
X204868Y-24702D01*
X205325Y-25369D01*
X205486Y-26162D01*
X205486Y-34798D01*
X239014Y-34798D01*
X239014Y-26217D01*
X239151Y-25485D01*
X239586Y-24803D01*
X240253Y-24346D01*
X241046Y-24185D01*
X242199Y-24185D01*
X243687Y-22697D01*
X243687Y-13978D01*
X238988Y-13978D01*
X238988Y-12454D01*
X243687Y-12454D01*
X243687Y-12373D01*
X243812Y-11671D01*
X244237Y-10982D01*
X244897Y-10515D01*
X245687Y-10341D01*
X246482Y-10489D01*
X247156Y-10936D01*
X255945Y-19725D01*
X256379Y-20369D01*
X256540Y-21162D01*
X256540Y-22768D01*
X256547Y-22850D01*
X256548Y-22851D01*
X256641Y-22860D01*
X263318Y-22860D01*
X264081Y-23009D01*
X264755Y-23455D01*
X268645Y-27345D01*
X269079Y-27989D01*
X269240Y-28782D01*
X269240Y-34718D01*
X269091Y-35481D01*
X268645Y-36155D01*
X258405Y-46395D01*
X257761Y-46829D01*
X256968Y-46990D01*
X241046Y-46990D01*
X240314Y-46853D01*
X239632Y-46418D01*
X239175Y-45751D01*
X239014Y-44958D01*
X239014Y-36322D01*
X205486Y-36322D01*
X205486Y-44958D01*
X205349Y-45691D01*
X204914Y-46372D01*
X204247Y-46829D01*
G37*
%LPC*%
G36*
X183642Y-29926D02*
X188802Y-29926D01*
X190290Y-28438D01*
X190290Y-24154D01*
X183642Y-24154D01*
X183642Y-29926D01*
G37*
%LPD*%
G36*
X218950Y-81286D02*
X218205Y-81441D01*
X217410Y-81293D01*
X216736Y-80846D01*
X216114Y-80224D01*
X215680Y-79580D01*
X215519Y-78787D01*
X215519Y-75569D01*
X214626Y-74676D01*
X211408Y-74676D01*
X210645Y-74527D01*
X209971Y-74081D01*
X208232Y-72342D01*
X207824Y-71757D01*
X207638Y-70970D01*
X207773Y-70173D01*
X208209Y-69491D01*
X208876Y-69034D01*
X208988Y-69011D01*
X208988Y-57142D01*
X210512Y-57142D01*
X210512Y-68873D01*
X213988Y-68873D01*
X213988Y-57142D01*
X215512Y-57142D01*
X215512Y-68873D01*
X218988Y-68873D01*
X218988Y-57142D01*
X220512Y-57142D01*
X220512Y-68873D01*
X222199Y-68873D01*
X222204Y-68868D01*
X222819Y-68447D01*
X223609Y-68273D01*
X224404Y-68421D01*
X225078Y-68868D01*
X226361Y-70151D01*
X226795Y-70795D01*
X226956Y-71588D01*
X226956Y-76613D01*
X226813Y-77360D01*
X226372Y-78038D01*
X225702Y-78490D01*
X218950Y-81286D01*
G37*
G36*
X308579Y-194209D02*
X308084Y-194310D01*
X272306Y-194310D01*
X271829Y-194217D01*
X271408Y-193938D01*
X265802Y-188332D01*
X265531Y-187929D01*
X265430Y-187434D01*
X265430Y-158006D01*
X265523Y-157529D01*
X265802Y-157108D01*
X273948Y-148962D01*
X274351Y-148691D01*
X274846Y-148590D01*
X308084Y-148590D01*
X308561Y-148683D01*
X308982Y-148962D01*
X317128Y-157108D01*
X317399Y-157511D01*
X317500Y-158006D01*
X317500Y-184894D01*
X317407Y-185371D01*
X317128Y-185792D01*
X308982Y-193938D01*
X308579Y-194209D01*
G37*
%LPC*%
G36*
X290210Y-159238D02*
X299238Y-159238D01*
X299238Y-151960D01*
X291698Y-151960D01*
X290210Y-153448D01*
X290210Y-159238D01*
G37*
G36*
X300762Y-159238D02*
X309790Y-159238D01*
X309790Y-153448D01*
X308302Y-151960D01*
X300762Y-151960D01*
X300762Y-159238D01*
G37*
G36*
X300762Y-168040D02*
X308302Y-168040D01*
X309790Y-166552D01*
X309790Y-160762D01*
X300762Y-160762D01*
X300762Y-168040D01*
G37*
G36*
X291698Y-168040D02*
X299238Y-168040D01*
X299238Y-160762D01*
X290210Y-160762D01*
X290210Y-166552D01*
X291698Y-168040D01*
G37*
G36*
X290210Y-179238D02*
X299238Y-179238D01*
X299238Y-171960D01*
X291698Y-171960D01*
X290210Y-173448D01*
X290210Y-179238D01*
G37*
G36*
X300762Y-179238D02*
X309790Y-179238D01*
X309790Y-173448D01*
X308302Y-171960D01*
X300762Y-171960D01*
X300762Y-179238D01*
G37*
G36*
X300762Y-188040D02*
X308302Y-188040D01*
X309790Y-186552D01*
X309790Y-180762D01*
X300762Y-180762D01*
X300762Y-188040D01*
G37*
G36*
X291698Y-188040D02*
X299238Y-188040D01*
X299238Y-180762D01*
X290210Y-180762D01*
X290210Y-186552D01*
X291698Y-188040D01*
G37*
%LPD*%
G36*
X-124509Y16671D02*
X-125302Y16510D01*
X-158338Y16510D01*
X-159070Y16647D01*
X-159751Y17082D01*
X-160209Y17749D01*
X-160370Y18542D01*
X-160370Y23368D01*
X-168276Y23368D01*
X-168276Y31521D01*
X-173228Y31521D01*
X-173961Y31658D01*
X-174642Y32093D01*
X-175099Y32760D01*
X-175260Y33553D01*
X-175260Y34228D01*
X-175123Y34961D01*
X-174688Y35642D01*
X-174021Y36099D01*
X-173228Y36260D01*
X-168402Y36260D01*
X-168402Y65340D01*
X-173228Y65340D01*
X-173961Y65477D01*
X-174642Y65912D01*
X-175099Y66579D01*
X-175260Y67372D01*
X-175260Y67738D01*
X-175111Y68501D01*
X-174665Y69175D01*
X-173050Y70790D01*
X-172406Y71224D01*
X-171613Y71385D01*
X-165968Y71385D01*
X-165075Y72278D01*
X-165075Y74168D01*
X-164938Y74901D01*
X-164503Y75582D01*
X-163836Y76039D01*
X-163043Y76200D01*
X-162077Y76200D01*
X-161345Y76063D01*
X-160663Y75628D01*
X-160206Y74961D01*
X-160045Y74168D01*
X-160045Y72278D01*
X-159070Y71303D01*
X-158780Y71248D01*
X-158098Y70813D01*
X-157641Y70146D01*
X-157480Y69353D01*
X-157480Y67372D01*
X-157617Y66640D01*
X-158052Y65958D01*
X-158719Y65501D01*
X-159512Y65340D01*
X-166878Y65340D01*
X-166878Y36260D01*
X-158338Y36260D01*
X-158183Y36415D01*
X-157539Y36849D01*
X-156746Y37010D01*
X-154402Y37010D01*
X-154402Y41812D01*
X-148100Y41812D01*
X-148100Y43923D01*
X-148176Y44268D01*
X-148100Y44673D01*
X-148100Y46788D01*
X-154402Y46788D01*
X-154402Y48312D01*
X-148100Y48312D01*
X-148100Y48462D01*
X-147963Y49195D01*
X-147528Y49876D01*
X-146861Y50333D01*
X-146068Y50494D01*
X-144046Y50494D01*
X-143283Y50345D01*
X-142609Y49899D01*
X-140002Y47292D01*
X-139567Y46647D01*
X-139407Y45855D01*
X-139407Y40268D01*
X-128778Y40268D01*
X-128778Y31143D01*
X-120954Y31143D01*
X-120207Y31320D01*
X-119410Y31184D01*
X-118728Y30748D01*
X-118271Y30081D01*
X-118110Y29289D01*
X-118110Y23702D01*
X-118259Y22939D01*
X-118705Y22265D01*
X-123865Y17105D01*
X-124509Y16671D01*
G37*
%LPC*%
G36*
X-152878Y37010D02*
X-149808Y37010D01*
X-148100Y38718D01*
X-148100Y40288D01*
X-152878Y40288D01*
X-152878Y37010D01*
G37*
G36*
X-137919Y31143D02*
X-130302Y31143D01*
X-130302Y38744D01*
X-139407Y38744D01*
X-139407Y32631D01*
X-137919Y31143D01*
G37*
G36*
X-166752Y24892D02*
X-160370Y24892D01*
X-160370Y30033D01*
X-161857Y31521D01*
X-166752Y31521D01*
X-166752Y24892D01*
G37*
%LPD*%
G36*
X-81678Y-86259D02*
X-82174Y-86360D01*
X-84564Y-86360D01*
X-85041Y-86267D01*
X-85462Y-85988D01*
X-90106Y-81344D01*
X-90179Y-81289D01*
X-90250Y-81280D01*
X-102030Y-81280D01*
X-102488Y-81195D01*
X-102914Y-80922D01*
X-103044Y-80732D01*
X-115031Y-80732D01*
X-115031Y-79208D01*
X-103300Y-79208D01*
X-103300Y-75732D01*
X-115031Y-75732D01*
X-115031Y-74208D01*
X-103300Y-74208D01*
X-103300Y-70732D01*
X-115031Y-70732D01*
X-115031Y-69208D01*
X-103300Y-69208D01*
X-103300Y-68987D01*
X-103215Y-68529D01*
X-102942Y-68103D01*
X-102525Y-67818D01*
X-102030Y-67717D01*
X-99314Y-67717D01*
X-98856Y-67802D01*
X-98430Y-68075D01*
X-98180Y-68441D01*
X-97151Y-69469D01*
X-83189Y-69469D01*
X-83155Y-69435D01*
X-82789Y-69180D01*
X-82297Y-69063D01*
X-82277Y-69067D01*
X-82296Y-68974D01*
X-82296Y-68834D01*
X-82211Y-68376D01*
X-81938Y-67950D01*
X-81521Y-67665D01*
X-81026Y-67564D01*
X-80886Y-67564D01*
X-80447Y-67642D01*
X-80017Y-67908D01*
X-80001Y-67929D01*
X-79921Y-67496D01*
X-79642Y-67075D01*
X-70549Y-57982D01*
X-70146Y-57711D01*
X-69651Y-57610D01*
X-68084Y-57610D01*
X-66726Y-56252D01*
X-66323Y-55981D01*
X-65827Y-55880D01*
X-52596Y-55880D01*
X-52119Y-55973D01*
X-51698Y-56252D01*
X-51636Y-56314D01*
X-51365Y-56717D01*
X-51264Y-57212D01*
X-51264Y-58920D01*
X-48760Y-61424D01*
X-47052Y-61424D01*
X-46575Y-61517D01*
X-46154Y-61796D01*
X-40875Y-67075D01*
X-40620Y-67441D01*
X-40504Y-67933D01*
X-40588Y-68431D01*
X-40861Y-68857D01*
X-41278Y-69142D01*
X-41773Y-69243D01*
X-46228Y-69243D01*
X-46228Y-78368D01*
X-56857Y-78368D01*
X-56857Y-84702D01*
X-56774Y-85050D01*
X-56859Y-85548D01*
X-57131Y-85974D01*
X-57548Y-86259D01*
X-58044Y-86360D01*
X-60066Y-86360D01*
X-60505Y-86282D01*
X-60935Y-86016D01*
X-61228Y-85604D01*
X-61336Y-85110D01*
X-61254Y-84667D01*
X-61254Y-78368D01*
X-80987Y-78368D01*
X-80987Y-84702D01*
X-80904Y-85050D01*
X-80989Y-85548D01*
X-81261Y-85974D01*
X-81678Y-86259D01*
G37*
%LPC*%
G36*
X-80987Y-76844D02*
X-71882Y-76844D01*
X-71882Y-69243D01*
X-78744Y-69243D01*
X-79182Y-69165D01*
X-79612Y-68899D01*
X-79628Y-68878D01*
X-79709Y-69311D01*
X-79988Y-69732D01*
X-80128Y-69872D01*
X-80494Y-70127D01*
X-80986Y-70244D01*
X-81005Y-70240D01*
X-80987Y-70333D01*
X-80987Y-76844D01*
G37*
G36*
X-56857Y-76844D02*
X-47752Y-76844D01*
X-47752Y-69243D01*
X-55369Y-69243D01*
X-56857Y-70731D01*
X-56857Y-76844D01*
G37*
G36*
X-70358Y-76844D02*
X-61254Y-76844D01*
X-61254Y-70731D01*
X-62741Y-69243D01*
X-70358Y-69243D01*
X-70358Y-76844D01*
G37*
%LPD*%
G36*
X-211285Y-180280D02*
X-211582Y-180340D01*
X-211964Y-180340D01*
X-212238Y-180289D01*
X-212494Y-180125D01*
X-212665Y-179875D01*
X-212726Y-179578D01*
X-212726Y-178972D01*
X-222016Y-178972D01*
X-222016Y-173515D01*
X-226568Y-173515D01*
X-226843Y-173464D01*
X-227098Y-173300D01*
X-227270Y-173050D01*
X-227302Y-172892D01*
X-227310Y-172894D01*
X-227355Y-172703D01*
X-227374Y-172676D01*
X-232348Y-167702D01*
X-232569Y-167565D01*
X-232568Y-167564D01*
X-232770Y-167467D01*
X-232949Y-167222D01*
X-233019Y-166927D01*
X-232968Y-166628D01*
X-232805Y-166373D01*
X-232554Y-166201D01*
X-232257Y-166141D01*
X-231877Y-166141D01*
X-230389Y-164653D01*
X-230389Y-159207D01*
X-249671Y-159207D01*
X-249671Y-164653D01*
X-247985Y-166339D01*
X-247832Y-166559D01*
X-247762Y-166854D01*
X-247813Y-167153D01*
X-247976Y-167408D01*
X-248227Y-167580D01*
X-248524Y-167640D01*
X-250927Y-167640D01*
X-251202Y-167589D01*
X-251457Y-167425D01*
X-251629Y-167175D01*
X-251689Y-166878D01*
X-251689Y-161926D01*
X-259842Y-161926D01*
X-259842Y-154020D01*
X-263398Y-154020D01*
X-263673Y-153968D01*
X-263928Y-153805D01*
X-264100Y-153555D01*
X-264160Y-153258D01*
X-264160Y-151446D01*
X-264104Y-151160D01*
X-263937Y-150907D01*
X-250413Y-137383D01*
X-250172Y-137220D01*
X-249874Y-137160D01*
X-216216Y-137160D01*
X-215930Y-137216D01*
X-215677Y-137383D01*
X-211043Y-142017D01*
X-210880Y-142258D01*
X-210820Y-142556D01*
X-210820Y-179578D01*
X-210871Y-179853D01*
X-211035Y-180108D01*
X-211285Y-180280D01*
G37*
%LPC*%
G36*
X-249671Y-157683D02*
X-240792Y-157683D01*
X-240792Y-150749D01*
X-248183Y-150749D01*
X-249671Y-152237D01*
X-249671Y-157683D01*
G37*
G36*
X-239268Y-157683D02*
X-230389Y-157683D01*
X-230389Y-152237D01*
X-231877Y-150749D01*
X-239268Y-150749D01*
X-239268Y-157683D01*
G37*
G36*
X-258318Y-160402D02*
X-251689Y-160402D01*
X-251689Y-155507D01*
X-253177Y-154020D01*
X-258318Y-154020D01*
X-258318Y-160402D01*
G37*
G36*
X-220492Y-177448D02*
X-212726Y-177448D01*
X-212726Y-175003D01*
X-214213Y-173515D01*
X-220492Y-173515D01*
X-220492Y-177448D01*
G37*
%LPD*%
G36*
X196819Y-291999D02*
X196324Y-292100D01*
X182136Y-292100D01*
X181659Y-292007D01*
X181238Y-291728D01*
X178172Y-288662D01*
X177901Y-288259D01*
X177800Y-287764D01*
X177800Y-264237D01*
X177791Y-264165D01*
X177791Y-264165D01*
X177746Y-264101D01*
X175330Y-261485D01*
X175243Y-261418D01*
X175180Y-261410D01*
X161583Y-261410D01*
X161125Y-261325D01*
X160699Y-261052D01*
X160694Y-261044D01*
X160694Y-261072D01*
X148582Y-261072D01*
X148582Y-259548D01*
X160313Y-259548D01*
X160313Y-256072D01*
X148582Y-256072D01*
X148582Y-254548D01*
X160313Y-254548D01*
X160313Y-251072D01*
X148582Y-251072D01*
X148582Y-249548D01*
X160313Y-249548D01*
X160313Y-249374D01*
X160398Y-248916D01*
X160671Y-248490D01*
X161088Y-248205D01*
X161583Y-248104D01*
X164787Y-248104D01*
X164869Y-248022D01*
X165272Y-247751D01*
X165767Y-247650D01*
X191163Y-247650D01*
X191621Y-247735D01*
X192047Y-248008D01*
X192332Y-248425D01*
X192433Y-248920D01*
X192433Y-253238D01*
X201558Y-253238D01*
X201558Y-263867D01*
X205740Y-263867D01*
X206198Y-263952D01*
X206624Y-264224D01*
X206909Y-264641D01*
X207010Y-265137D01*
X207010Y-265724D01*
X206925Y-266181D01*
X206652Y-266607D01*
X206235Y-266893D01*
X205740Y-266994D01*
X201558Y-266994D01*
X201558Y-277622D01*
X192433Y-277622D01*
X192433Y-285239D01*
X193921Y-286727D01*
X199157Y-286727D01*
X199596Y-286805D01*
X200026Y-287070D01*
X200319Y-287483D01*
X200427Y-287976D01*
X200335Y-288473D01*
X200055Y-288895D01*
X197222Y-291728D01*
X196819Y-291999D01*
G37*
%LPC*%
G36*
X193921Y-263867D02*
X200034Y-263867D01*
X200034Y-254762D01*
X192433Y-254762D01*
X192433Y-262379D01*
X193921Y-263867D01*
G37*
G36*
X192433Y-276098D02*
X200034Y-276098D01*
X200034Y-266994D01*
X193921Y-266994D01*
X192433Y-268481D01*
X192433Y-276098D01*
G37*
%LPD*%
G36*
X123214Y88960D02*
X122917Y88900D01*
X119338Y88900D01*
X119063Y88951D01*
X118807Y89115D01*
X118636Y89365D01*
X118576Y89662D01*
X118576Y95048D01*
X105128Y95048D01*
X105128Y95076D01*
X105055Y95024D01*
X104759Y94959D01*
X104461Y95015D01*
X104208Y95182D01*
X103093Y96297D01*
X102930Y96538D01*
X102870Y96836D01*
X102870Y110174D01*
X102926Y110460D01*
X103093Y110713D01*
X104265Y111885D01*
X104485Y112038D01*
X104780Y112108D01*
X105079Y112057D01*
X105185Y111989D01*
X105185Y112268D01*
X110392Y112268D01*
X110392Y105918D01*
X112206Y105918D01*
X112341Y106053D01*
X112572Y106211D01*
X112868Y106276D01*
X113166Y106221D01*
X113419Y106053D01*
X113554Y105918D01*
X115368Y105918D01*
X115368Y112268D01*
X116892Y112268D01*
X116892Y105918D01*
X118706Y105918D01*
X118841Y106053D01*
X119072Y106211D01*
X119368Y106276D01*
X119666Y106221D01*
X119919Y106053D01*
X120054Y105918D01*
X121868Y105918D01*
X121868Y112268D01*
X123392Y112268D01*
X123392Y105918D01*
X125206Y105918D01*
X126060Y106772D01*
X126290Y106930D01*
X126586Y106995D01*
X126884Y106939D01*
X126892Y106934D01*
X131285Y106934D01*
X132178Y107827D01*
X132178Y108458D01*
X132229Y108733D01*
X132393Y108988D01*
X132643Y109160D01*
X132940Y109220D01*
X141663Y109220D01*
X146056Y113613D01*
X146297Y113776D01*
X146595Y113836D01*
X149090Y113836D01*
X150601Y115347D01*
X150843Y115510D01*
X151140Y115570D01*
X157164Y115570D01*
X157450Y115514D01*
X157703Y115347D01*
X163607Y109443D01*
X163770Y109202D01*
X163830Y108904D01*
X163830Y90486D01*
X163774Y90200D01*
X163607Y89947D01*
X162783Y89123D01*
X162542Y88960D01*
X162244Y88900D01*
X160114Y88900D01*
X159850Y88947D01*
X159592Y89106D01*
X159417Y89354D01*
X159352Y89650D01*
X159407Y89948D01*
X159575Y90201D01*
X160991Y91617D01*
X160991Y97063D01*
X141709Y97063D01*
X141709Y91617D01*
X143125Y90201D01*
X143278Y89981D01*
X143348Y89686D01*
X143297Y89387D01*
X143134Y89132D01*
X142884Y88960D01*
X142586Y88900D01*
X139223Y88900D01*
X138948Y88951D01*
X138693Y89115D01*
X138521Y89365D01*
X138461Y89662D01*
X138461Y94474D01*
X123679Y94474D01*
X123679Y89662D01*
X123628Y89387D01*
X123464Y89132D01*
X123214Y88960D01*
G37*
%LPC*%
G36*
X107054Y105918D02*
X108868Y105918D01*
X108868Y110744D01*
X105566Y110744D01*
X105566Y107406D01*
X107054Y105918D01*
G37*
G36*
X141709Y98587D02*
X150588Y98587D01*
X150588Y105521D01*
X143197Y105521D01*
X141709Y104033D01*
X141709Y98587D01*
G37*
G36*
X152112Y98587D02*
X160991Y98587D01*
X160991Y104033D01*
X159503Y105521D01*
X152112Y105521D01*
X152112Y98587D01*
G37*
G36*
X105509Y96572D02*
X111280Y96572D01*
X111280Y103220D01*
X106996Y103220D01*
X105509Y101732D01*
X105509Y96572D01*
G37*
G36*
X112804Y96572D02*
X118576Y96572D01*
X118576Y101732D01*
X117088Y103220D01*
X112804Y103220D01*
X112804Y96572D01*
G37*
G36*
X123679Y95998D02*
X130308Y95998D01*
X130308Y102381D01*
X125167Y102381D01*
X123679Y100893D01*
X123679Y95998D01*
G37*
G36*
X131832Y95998D02*
X138461Y95998D01*
X138461Y100893D01*
X136973Y102381D01*
X131832Y102381D01*
X131832Y95998D01*
G37*
%LPD*%
G36*
X91391Y-46829D02*
X90598Y-46990D01*
X74502Y-46990D01*
X73739Y-46841D01*
X73065Y-46395D01*
X62825Y-36155D01*
X62391Y-35511D01*
X62230Y-34718D01*
X62230Y-5922D01*
X62379Y-5159D01*
X62825Y-4485D01*
X83225Y15915D01*
X83869Y16349D01*
X84662Y16510D01*
X85123Y16510D01*
X85856Y16373D01*
X86537Y15938D01*
X86994Y15271D01*
X87155Y14478D01*
X87155Y10648D01*
X92612Y10648D01*
X92612Y9124D01*
X87155Y9124D01*
X87155Y2845D01*
X88031Y1970D01*
X88439Y1385D01*
X88625Y598D01*
X88489Y-200D01*
X88053Y-881D01*
X87386Y-1338D01*
X86594Y-1499D01*
X85657Y-1499D01*
X84170Y-2987D01*
X84170Y-8128D01*
X92076Y-8128D01*
X92076Y-9652D01*
X84170Y-9652D01*
X84170Y-14793D01*
X84229Y-14853D01*
X84651Y-15467D01*
X84824Y-16257D01*
X84676Y-17052D01*
X84229Y-17727D01*
X83439Y-18517D01*
X83439Y-25908D01*
X91897Y-25908D01*
X91897Y-36311D01*
X93218Y-36311D01*
X93951Y-36448D01*
X94632Y-36883D01*
X95089Y-37550D01*
X95250Y-38343D01*
X95250Y-42338D01*
X95101Y-43101D01*
X94655Y-43775D01*
X92035Y-46395D01*
X91391Y-46829D01*
G37*
%LPC*%
G36*
X84927Y-36311D02*
X90373Y-36311D01*
X90373Y-27432D01*
X83439Y-27432D01*
X83439Y-34823D01*
X84927Y-36311D01*
G37*
%LPD*%
G36*
X-219759Y-1109D02*
X-220552Y-1270D01*
X-231568Y-1270D01*
X-232331Y-1121D01*
X-233005Y-675D01*
X-240705Y7025D01*
X-241139Y7669D01*
X-241300Y8462D01*
X-241300Y42338D01*
X-241151Y43101D01*
X-240705Y43775D01*
X-232450Y52030D01*
X-231865Y52438D01*
X-231078Y52624D01*
X-230281Y52489D01*
X-229599Y52053D01*
X-229142Y51386D01*
X-228981Y50593D01*
X-228981Y46457D01*
X-228411Y45887D01*
X-227990Y45272D01*
X-227816Y44482D01*
X-227964Y43687D01*
X-228411Y43013D01*
X-228981Y42443D01*
X-228981Y35052D01*
X-220523Y35052D01*
X-220523Y24649D01*
X-215077Y24649D01*
X-214289Y25437D01*
X-213704Y25845D01*
X-212917Y26031D01*
X-212120Y25896D01*
X-211438Y25460D01*
X-210981Y24793D01*
X-210820Y24000D01*
X-210820Y8462D01*
X-210969Y7699D01*
X-211415Y7025D01*
X-219115Y-675D01*
X-219759Y-1109D01*
G37*
%LPC*%
G36*
X-227493Y24649D02*
X-222047Y24649D01*
X-222047Y33528D01*
X-228981Y33528D01*
X-228981Y26137D01*
X-227493Y24649D01*
G37*
%LPD*%
G36*
X123141Y-46829D02*
X122348Y-46990D01*
X106252Y-46990D01*
X105489Y-46841D01*
X104815Y-46395D01*
X100925Y-42505D01*
X100491Y-41861D01*
X100330Y-41068D01*
X100330Y-38230D01*
X100455Y-37528D01*
X100880Y-36839D01*
X101540Y-36372D01*
X102330Y-36198D01*
X102935Y-36311D01*
X108763Y-36311D01*
X108763Y-25908D01*
X117221Y-25908D01*
X117221Y-18517D01*
X115676Y-16972D01*
X115250Y-16892D01*
X114569Y-16457D01*
X114111Y-15790D01*
X113951Y-14997D01*
X113951Y-9652D01*
X106044Y-9652D01*
X106044Y-8128D01*
X113951Y-8128D01*
X113951Y-3723D01*
X114087Y-2990D01*
X114523Y-2309D01*
X115190Y-1851D01*
X115983Y-1691D01*
X120524Y-1691D01*
X121286Y-1839D01*
X121960Y-2286D01*
X125110Y-5435D01*
X125544Y-6079D01*
X125705Y-6872D01*
X125705Y-7902D01*
X126598Y-8795D01*
X128603Y-8795D01*
X129365Y-8943D01*
X130040Y-9390D01*
X130215Y-9565D01*
X130649Y-10209D01*
X130810Y-11002D01*
X130810Y-38528D01*
X130661Y-39291D01*
X130215Y-39965D01*
X123785Y-46395D01*
X123141Y-46829D01*
G37*
%LPC*%
G36*
X110287Y-36311D02*
X115733Y-36311D01*
X117221Y-34823D01*
X117221Y-27432D01*
X110287Y-27432D01*
X110287Y-36311D01*
G37*
%LPD*%
G36*
X185915Y255371D02*
X185420Y255270D01*
X178120Y255270D01*
X177662Y255355D01*
X177236Y255628D01*
X176951Y256045D01*
X176850Y256540D01*
X176850Y259064D01*
X171548Y259064D01*
X171548Y265866D01*
X166572Y265866D01*
X166572Y259064D01*
X165048Y259064D01*
X165048Y265866D01*
X162242Y265866D01*
X161529Y266085D01*
X161175Y266446D01*
X160991Y266917D01*
X161004Y267422D01*
X161214Y267882D01*
X161280Y267974D01*
X161290Y268050D01*
X161290Y273301D01*
X161368Y273740D01*
X161634Y274170D01*
X162046Y274462D01*
X162540Y274571D01*
X163037Y274478D01*
X163458Y274199D01*
X164396Y273261D01*
X168680Y273261D01*
X168680Y288080D01*
X164396Y288080D01*
X163458Y287141D01*
X163092Y286886D01*
X162600Y286770D01*
X162102Y286855D01*
X161676Y287127D01*
X161391Y287544D01*
X161290Y288039D01*
X161290Y302260D01*
X161375Y302718D01*
X161648Y303144D01*
X162065Y303429D01*
X162560Y303530D01*
X184957Y303530D01*
X185405Y303448D01*
X185833Y303179D01*
X186123Y302765D01*
X186227Y302270D01*
X186130Y301774D01*
X185378Y299957D01*
X185378Y291634D01*
X186593Y288700D01*
X186690Y288214D01*
X186690Y256540D01*
X186605Y256082D01*
X186332Y255656D01*
X185915Y255371D01*
G37*
%LPC*%
G36*
X170204Y281432D02*
X175976Y281432D01*
X175976Y286592D01*
X174488Y288080D01*
X170204Y288080D01*
X170204Y281432D01*
G37*
G36*
X170204Y273261D02*
X174488Y273261D01*
X175976Y274748D01*
X175976Y279908D01*
X170204Y279908D01*
X170204Y273261D01*
G37*
G36*
X173072Y260588D02*
X176850Y260588D01*
X176850Y264378D01*
X175362Y265866D01*
X173072Y265866D01*
X173072Y260588D01*
G37*
%LPD*%
G36*
X-234902Y-218380D02*
X-235199Y-218440D01*
X-256224Y-218440D01*
X-256510Y-218384D01*
X-256763Y-218217D01*
X-260127Y-214853D01*
X-260290Y-214612D01*
X-260350Y-214314D01*
X-260350Y-207797D01*
X-260299Y-207522D01*
X-260135Y-207267D01*
X-259885Y-207095D01*
X-259588Y-207035D01*
X-250160Y-207035D01*
X-249268Y-206142D01*
X-249268Y-195072D01*
X-249216Y-194797D01*
X-249053Y-194542D01*
X-248803Y-194370D01*
X-248506Y-194310D01*
X-247811Y-194310D01*
X-247536Y-194361D01*
X-247280Y-194525D01*
X-247109Y-194775D01*
X-247049Y-195072D01*
X-247049Y-199898D01*
X-232760Y-199898D01*
X-232760Y-195072D01*
X-232708Y-194797D01*
X-232545Y-194542D01*
X-232295Y-194370D01*
X-231998Y-194310D01*
X-230545Y-194310D01*
X-230270Y-194361D01*
X-230014Y-194525D01*
X-229843Y-194775D01*
X-229783Y-195072D01*
X-229783Y-196948D01*
X-220492Y-196948D01*
X-220492Y-202405D01*
X-215675Y-202405D01*
X-215411Y-202452D01*
X-215153Y-202611D01*
X-214978Y-202859D01*
X-214913Y-203155D01*
X-214968Y-203453D01*
X-215136Y-203706D01*
X-215859Y-204429D01*
X-215947Y-204504D01*
X-234749Y-218292D01*
X-234902Y-218380D01*
G37*
%LPC*%
G36*
X-228295Y-202405D02*
X-222016Y-202405D01*
X-222016Y-198472D01*
X-229783Y-198472D01*
X-229783Y-200917D01*
X-228295Y-202405D01*
G37*
G36*
X-239142Y-208051D02*
X-234247Y-208051D01*
X-232760Y-206563D01*
X-232760Y-201422D01*
X-239142Y-201422D01*
X-239142Y-208051D01*
G37*
G36*
X-245561Y-208051D02*
X-240666Y-208051D01*
X-240666Y-201422D01*
X-247049Y-201422D01*
X-247049Y-206563D01*
X-245561Y-208051D01*
G37*
%LPD*%
G36*
X-16964Y82423D02*
X-17260Y82358D01*
X-17558Y82413D01*
X-17811Y82581D01*
X-20289Y85059D01*
X-20442Y85279D01*
X-20512Y85574D01*
X-20461Y85873D01*
X-20298Y86128D01*
X-20048Y86300D01*
X-19750Y86360D01*
X-17272Y86360D01*
X-16997Y86309D01*
X-16742Y86145D01*
X-16570Y85895D01*
X-16510Y85598D01*
X-16510Y83120D01*
X-16557Y82856D01*
X-16716Y82598D01*
X-16964Y82423D01*
G37*
G36*
X-34171Y-14797D02*
X-34249Y-15190D01*
X-34402Y-15560D01*
X-34625Y-15892D01*
X-34908Y-16175D01*
X-35241Y-16398D01*
X-35610Y-16551D01*
X-36003Y-16629D01*
X-36403Y-16629D01*
X-36796Y-16551D01*
X-37166Y-16398D01*
X-37498Y-16175D01*
X-37781Y-15892D01*
X-38004Y-15560D01*
X-38157Y-15190D01*
X-38235Y-14797D01*
X-38235Y-7460D01*
X-34171Y-7460D01*
X-34171Y-14797D01*
G37*
G36*
X32012Y-140970D02*
X19312Y-140970D01*
X19312Y-128270D01*
X32012Y-128270D01*
X32012Y-140970D01*
G37*
G36*
X-76065Y-16067D02*
X-76143Y-16460D01*
X-76296Y-16830D01*
X-76519Y-17162D01*
X-76802Y-17445D01*
X-77135Y-17668D01*
X-77504Y-17821D01*
X-77897Y-17899D01*
X-78297Y-17899D01*
X-78690Y-17821D01*
X-79060Y-17668D01*
X-79392Y-17445D01*
X-79675Y-17162D01*
X-79898Y-16830D01*
X-80051Y-16460D01*
X-80129Y-16067D01*
X-80129Y-7460D01*
X-76065Y-7460D01*
X-76065Y-16067D01*
G37*
G36*
X216819Y-40815D02*
X216680Y-40607D01*
X216584Y-40375D01*
X216535Y-40130D01*
X216535Y-39880D01*
X216584Y-39635D01*
X216680Y-39403D01*
X216819Y-39195D01*
X216995Y-39019D01*
X217203Y-38880D01*
X217435Y-38784D01*
X217680Y-38735D01*
X217930Y-38735D01*
X218175Y-38784D01*
X218407Y-38880D01*
X218615Y-39019D01*
X220648Y-41052D01*
X218852Y-42848D01*
X216819Y-40815D01*
G37*
G36*
X216995Y-39019D02*
X217203Y-38880D01*
X217435Y-38784D01*
X217680Y-38735D01*
X217930Y-38735D01*
X218175Y-38784D01*
X218407Y-38880D01*
X218615Y-39019D01*
X218791Y-39195D01*
X218930Y-39403D01*
X219026Y-39635D01*
X219075Y-39880D01*
X219075Y-40130D01*
X219026Y-40375D01*
X218930Y-40607D01*
X218791Y-40815D01*
X215648Y-43958D01*
X213852Y-42162D01*
X216995Y-39019D01*
G37*
G36*
X209750Y-64254D02*
X209750Y-51554D01*
X219750Y-51554D01*
X219750Y-64254D01*
X209750Y-64254D01*
G37*
G36*
X214750Y-51554D02*
X214750Y-64254D01*
X209750Y-64254D01*
X209750Y-51554D01*
X214750Y-51554D01*
G37*
G36*
X-183672Y41050D02*
X-179608Y41050D01*
X-179608Y25296D01*
X-179686Y24903D01*
X-179839Y24534D01*
X-180062Y24201D01*
X-180345Y23918D01*
X-180678Y23695D01*
X-181047Y23542D01*
X-181440Y23464D01*
X-181840Y23464D01*
X-182233Y23542D01*
X-182603Y23695D01*
X-182935Y23918D01*
X-183218Y24201D01*
X-183441Y24534D01*
X-183594Y24903D01*
X-183672Y25296D01*
X-183672Y41050D01*
G37*
G36*
X122630Y112776D02*
X122630Y110236D01*
X116005Y110236D01*
X115760Y110285D01*
X115528Y110381D01*
X115320Y110520D01*
X115144Y110696D01*
X115005Y110904D01*
X114909Y111136D01*
X114860Y111381D01*
X114860Y111631D01*
X114909Y111876D01*
X115005Y112108D01*
X115144Y112316D01*
X115320Y112492D01*
X115528Y112631D01*
X115760Y112727D01*
X116005Y112776D01*
X122630Y112776D01*
G37*
G36*
X116255Y112776D02*
X116500Y112727D01*
X116732Y112631D01*
X116940Y112492D01*
X117116Y112316D01*
X117255Y112108D01*
X117351Y111876D01*
X117400Y111631D01*
X117400Y111381D01*
X117351Y111136D01*
X117255Y110904D01*
X117116Y110696D01*
X116940Y110520D01*
X116732Y110381D01*
X116500Y110285D01*
X116255Y110236D01*
X109630Y110236D01*
X109630Y112776D01*
X116255Y112776D01*
G37*
G36*
X-183672Y76675D02*
X-183594Y77068D01*
X-183441Y77438D01*
X-183218Y77770D01*
X-182935Y78053D01*
X-182603Y78276D01*
X-182233Y78429D01*
X-181840Y78507D01*
X-181440Y78507D01*
X-181047Y78429D01*
X-180678Y78276D01*
X-180345Y78053D01*
X-180062Y77770D01*
X-179839Y77438D01*
X-179686Y77068D01*
X-179608Y76675D01*
X-179608Y60550D01*
X-183672Y60550D01*
X-183672Y76675D01*
G37*
G36*
X129130Y144526D02*
X129130Y140462D01*
X109630Y140462D01*
X109630Y144526D01*
X129130Y144526D01*
G37*
D10*
X-114269Y-94970D03*
X-114269Y-89970D03*
X-114269Y-84970D03*
X-114269Y-79970D03*
X-114269Y-74970D03*
X-114269Y-69970D03*
X-114269Y-64970D03*
X-114269Y-59970D03*
X-158957Y-59970D03*
X-158957Y-64970D03*
X-158957Y-69970D03*
X-158957Y-74970D03*
X-158957Y-79970D03*
X-158957Y-84970D03*
X-158957Y-89970D03*
X-158957Y-94970D03*
D11*
X-136613Y-77470D03*
D12*
X-300000Y100000D03*
X-300000Y80000D03*
X-300000Y60000D03*
X-300000Y40000D03*
D13*
X-359750Y128950D03*
X-359750Y11050D03*
D12*
X300000Y50000D03*
X300000Y70000D03*
X300000Y90000D03*
X300000Y110000D03*
D13*
X359750Y21050D03*
X359750Y138950D03*
D14*
X91850Y9886D03*
X98350Y9886D03*
X104850Y9886D03*
X111350Y9886D03*
X111350Y38374D03*
X104850Y38374D03*
X98350Y38374D03*
X91850Y38374D03*
D15*
X239750Y-13216D03*
X234750Y-13216D03*
X229750Y-13216D03*
X224750Y-13216D03*
X219750Y-13216D03*
X214750Y-13216D03*
X209750Y-13216D03*
X204750Y-13216D03*
X204750Y-57904D03*
X209750Y-57904D03*
X214750Y-57904D03*
X219750Y-57904D03*
X224750Y-57904D03*
X229750Y-57904D03*
X234750Y-57904D03*
X239750Y-57904D03*
D16*
X222250Y-35560D03*
D12*
X-300000Y-100000D03*
X-300000Y-120000D03*
X-300000Y-140000D03*
X-300000Y-160000D03*
D13*
X-359750Y-71050D03*
X-359750Y-188950D03*
D12*
X300000Y-180000D03*
X300000Y-160000D03*
X300000Y-140000D03*
X300000Y-120000D03*
D13*
X359750Y-208950D03*
X359750Y-91050D03*
D17*
X246654Y103280D03*
X246654Y109780D03*
X246654Y116280D03*
X246654Y122780D03*
X218166Y122780D03*
X218166Y116280D03*
X218166Y109780D03*
X218166Y103280D03*
D10*
X149344Y-275310D03*
X149344Y-270310D03*
X149344Y-265310D03*
X149344Y-260310D03*
X149344Y-255310D03*
X149344Y-250310D03*
X149344Y-245310D03*
X149344Y-240310D03*
X104656Y-240310D03*
X104656Y-245310D03*
X104656Y-250310D03*
X104656Y-255310D03*
X104656Y-260310D03*
X104656Y-265310D03*
X104656Y-270310D03*
X104656Y-275310D03*
D11*
X127000Y-257810D03*
D12*
X300000Y200000D03*
X300000Y220000D03*
X300000Y240000D03*
X300000Y260000D03*
D13*
X359750Y171050D03*
X359750Y288950D03*
D17*
X-221254Y-178210D03*
X-221254Y-184710D03*
X-221254Y-191210D03*
X-221254Y-197710D03*
X-192766Y-197710D03*
X-192766Y-191210D03*
X-192766Y-184710D03*
X-192766Y-178210D03*
D18*
X-254000Y130674D03*
X-254000Y113166D03*
X-232410Y113166D03*
X-232410Y130674D03*
X-114300Y184286D03*
X-114300Y201794D03*
D19*
X-7756Y177800D03*
X-25264Y177800D03*
X40776Y168910D03*
X58284Y168910D03*
X-83956Y-123190D03*
X-101464Y-123190D03*
X129676Y177800D03*
X147184Y177800D03*
X129676Y201930D03*
X147184Y201930D03*
D18*
X-157480Y204606D03*
X-157480Y222114D03*
D20*
X131070Y95236D03*
X131070Y79744D03*
D18*
X17780Y185284D03*
X17780Y167776D03*
D20*
X59690Y48386D03*
X59690Y32894D03*
X76200Y68706D03*
X76200Y53214D03*
X26670Y50926D03*
X26670Y35434D03*
D18*
X-135890Y204606D03*
X-135890Y222114D03*
D20*
X43180Y35686D03*
X43180Y20194D03*
D19*
X-166506Y-123190D03*
X-184014Y-123190D03*
D18*
X-46990Y-77606D03*
X-46990Y-95114D03*
X-71120Y-77606D03*
X-71120Y-95114D03*
D19*
X-194446Y-91440D03*
X-211954Y-91440D03*
D18*
X270510Y8754D03*
X270510Y-8754D03*
X267970Y-66110D03*
X267970Y-83618D03*
D19*
X224926Y26924D03*
X242434Y26924D03*
D18*
X-256540Y199526D03*
X-256540Y217034D03*
D19*
X224926Y52070D03*
X242434Y52070D03*
D18*
X236220Y-100466D03*
X236220Y-117974D03*
D19*
X185284Y-310817D03*
X167776Y-310817D03*
X95114Y-297180D03*
X77606Y-297180D03*
X200796Y-254000D03*
X218304Y-254000D03*
X200796Y-276860D03*
X218304Y-276860D03*
X200796Y-231140D03*
X218304Y-231140D03*
X58284Y-273050D03*
X40776Y-273050D03*
D21*
X91314Y-8890D03*
X106806Y-8890D03*
D18*
X-212090Y170044D03*
X-212090Y152536D03*
D20*
X-259080Y-161164D03*
X-259080Y-176656D03*
X132080Y12826D03*
X132080Y-2666D03*
D21*
X-239904Y-200660D03*
X-255396Y-200660D03*
X-233554Y-365760D03*
X-249046Y-365760D03*
D18*
X-92710Y184286D03*
X-92710Y201794D03*
X-190500Y170044D03*
X-190500Y152536D03*
X-179070Y204606D03*
X-179070Y222114D03*
D21*
X-161164Y118110D03*
X-176656Y118110D03*
X-144906Y118110D03*
X-129414Y118110D03*
X-183006Y24130D03*
X-167514Y24130D03*
X-202750Y74930D03*
X-218242Y74930D03*
D20*
X-190500Y90296D03*
X-190500Y74804D03*
D18*
X-129540Y57014D03*
X-129540Y39506D03*
D22*
X-317500Y337300D03*
X-317500Y362700D03*
X-292100Y337300D03*
X-292100Y362700D03*
X-266700Y337300D03*
X-266700Y362700D03*
X-241300Y337300D03*
X-241300Y362700D03*
X-215900Y337300D03*
X-215900Y362700D03*
X-190500Y337300D03*
X-190500Y362700D03*
X-165100Y337300D03*
X-165100Y362700D03*
X-139700Y337300D03*
X-139700Y362700D03*
X-114300Y337300D03*
X-114300Y362700D03*
X-88900Y337300D03*
X-88900Y362700D03*
X-63500Y337300D03*
X-63500Y362700D03*
X-38100Y337300D03*
X-38100Y362700D03*
X-12700Y337300D03*
X-12700Y362700D03*
X12700Y337300D03*
X12700Y362700D03*
X38100Y337300D03*
X38100Y362700D03*
X63500Y337300D03*
X63500Y362700D03*
X88900Y337300D03*
X88900Y362700D03*
X114300Y337300D03*
X114300Y362700D03*
X139700Y337300D03*
X139700Y362700D03*
X165100Y337300D03*
X165100Y362700D03*
X190500Y337300D03*
X190500Y362700D03*
X215900Y337300D03*
X215900Y362700D03*
X241300Y337300D03*
X241300Y362700D03*
X266700Y337300D03*
X266700Y362700D03*
X292100Y337300D03*
X292100Y362700D03*
X317500Y337300D03*
X317500Y362700D03*
X-317500Y388100D03*
X-317500Y413500D03*
X-292100Y388100D03*
X-292100Y413500D03*
X-266700Y388100D03*
X-266700Y413500D03*
X-241300Y388100D03*
X-241300Y413500D03*
X-215900Y388100D03*
X-215900Y413500D03*
X-190500Y388100D03*
X-190500Y413500D03*
X-165100Y388100D03*
X-165100Y413500D03*
X-139700Y388100D03*
X-139700Y413500D03*
X-114300Y388100D03*
X-114300Y413500D03*
X-88900Y388100D03*
X-88900Y413500D03*
X-63500Y388100D03*
X-63500Y413500D03*
X-38100Y388100D03*
X-38100Y413500D03*
X-12700Y388100D03*
X-12700Y413500D03*
X12700Y388100D03*
X12700Y413500D03*
X38100Y388100D03*
X38100Y413500D03*
X63500Y388100D03*
X63500Y413500D03*
X88900Y388100D03*
X88900Y413500D03*
X114300Y388100D03*
X114300Y413500D03*
X139700Y388100D03*
X139700Y413500D03*
X165100Y388100D03*
X165100Y413500D03*
X190500Y388100D03*
X190500Y413500D03*
X215900Y388100D03*
X215900Y413500D03*
X241300Y388100D03*
X241300Y413500D03*
X266700Y388100D03*
X266700Y413500D03*
X292100Y388100D03*
X292100Y413500D03*
X317500Y388100D03*
X317500Y413500D03*
D23*
X-105810Y-182880D03*
X-155810Y-182880D03*
D24*
X148730Y-364490D03*
X102730Y-364490D03*
D25*
X334010Y-11290D03*
X334010Y-57290D03*
D23*
X-12300Y241300D03*
X37700Y241300D03*
D26*
X-55020Y198380D03*
X-61520Y198380D03*
X-68020Y198380D03*
X-74520Y198380D03*
X-74520Y167380D03*
X-68020Y167380D03*
X-61520Y167380D03*
X-55020Y167380D03*
D27*
X-64770Y176430D03*
D28*
X73400Y200250D03*
X73400Y193750D03*
X73400Y187250D03*
X73400Y180750D03*
X104400Y180750D03*
X104400Y187250D03*
X104400Y193750D03*
X104400Y200250D03*
D29*
X95350Y190500D03*
D28*
X-79000Y251050D03*
X-79000Y244550D03*
X-79000Y238050D03*
X-79000Y231550D03*
X-48000Y231550D03*
X-48000Y238050D03*
X-48000Y244550D03*
X-48000Y251050D03*
D29*
X-57050Y241300D03*
D28*
X104400Y231550D03*
X104400Y238050D03*
X104400Y244550D03*
X104400Y251050D03*
X73400Y251050D03*
X73400Y244550D03*
X73400Y238050D03*
X73400Y231550D03*
D29*
X82450Y241300D03*
D26*
X172310Y259826D03*
X165810Y259826D03*
X159310Y259826D03*
X152810Y259826D03*
X152810Y228826D03*
X159310Y228826D03*
X165810Y228826D03*
X172310Y228826D03*
D27*
X162560Y237876D03*
D30*
X109630Y111506D03*
X116130Y111506D03*
X122630Y111506D03*
X129130Y111506D03*
X129130Y142494D03*
X122630Y142494D03*
X116130Y142494D03*
X109630Y142494D03*
D31*
X119380Y130556D03*
D32*
X-312420Y158750D02*
X-312420Y173990D01*
X-337820Y173990D02*
X-337820Y158750D01*
D33*
X-254000Y170485D03*
X-254000Y152095D03*
D34*
X-31218Y120483D03*
X-47522Y120483D03*
X-50062Y104140D03*
X-33758Y104140D03*
X-43712Y86360D03*
X-27408Y86360D03*
D35*
X8890Y70588D03*
X8890Y86892D03*
X59690Y80542D03*
X59690Y64238D03*
X43180Y70382D03*
X43180Y54078D03*
X-161290Y147852D03*
X-161290Y131548D03*
D34*
X-112498Y-35560D03*
X-128802Y-35560D03*
X-128802Y-17780D03*
X-112498Y-17780D03*
D35*
X16510Y-175033D03*
X16510Y-158729D03*
D34*
X131342Y-110490D03*
X115038Y-110490D03*
X46458Y-157480D03*
X62762Y-157480D03*
X135152Y-129540D03*
X118848Y-129540D03*
D35*
X100330Y-126468D03*
X100330Y-142772D03*
D34*
X130831Y-94491D03*
X114527Y-94491D03*
X40108Y-44450D03*
X56412Y-44450D03*
X131342Y-77470D03*
X115038Y-77470D03*
D35*
X97790Y-79272D03*
X97790Y-62968D03*
D34*
X-9628Y-97790D03*
X-25932Y-97790D03*
D35*
X-10160Y-112498D03*
X-10160Y-128802D03*
D34*
X-9628Y-81280D03*
X-25932Y-81280D03*
D35*
X3810Y-64238D03*
X3810Y-80542D03*
D34*
X155472Y-203367D03*
X139168Y-203367D03*
X139168Y-220980D03*
X155472Y-220980D03*
D33*
X-233680Y170485D03*
X-233680Y152095D03*
D35*
X165100Y-6882D03*
X165100Y9422D03*
X182880Y-23392D03*
X182880Y-7088D03*
X-222250Y-74192D03*
X-222250Y-57888D03*
X-204470Y-57888D03*
X-204470Y-74192D03*
D34*
X61492Y-229870D03*
X45188Y-229870D03*
X47728Y-250190D03*
X64032Y-250190D03*
D35*
X214630Y-97258D03*
X214630Y-113562D03*
X198120Y-113562D03*
X198120Y-97258D03*
D36*
X109525Y-26670D03*
X91135Y-26670D03*
D35*
X-144780Y131548D03*
X-144780Y147852D03*
D33*
X-240030Y-176835D03*
X-240030Y-158445D03*
D34*
X-179808Y-340360D03*
X-196112Y-340360D03*
X153138Y280670D03*
X169442Y280670D03*
D35*
X153670Y316762D03*
X153670Y300458D03*
D34*
X112042Y95810D03*
X95738Y95810D03*
X112042Y79300D03*
X95738Y79300D03*
D36*
X-161595Y171450D03*
X-143205Y171450D03*
X-221285Y34290D03*
X-202895Y34290D03*
X-221285Y54610D03*
X-202895Y54610D03*
X-153365Y80010D03*
X-171755Y80010D03*
D33*
X151350Y79435D03*
X151350Y97825D03*
X-129540Y73355D03*
X-129540Y91745D03*
D37*
X82550Y-246380D03*
X82550Y-233680D03*
X82550Y-220980D03*
X-90170Y-39370D03*
X-90170Y-52070D03*
X-90170Y-64770D03*
D38*
X182880Y13970D03*
X195580Y13970D03*
X208280Y13970D03*
X210820Y-82550D03*
X198120Y-82550D03*
X185420Y-82550D03*
D37*
X-182880Y-74930D03*
X-182880Y-62230D03*
X-182880Y-49530D03*
X176530Y-214630D03*
X176530Y-227330D03*
X176530Y-240030D03*
D39*
X-6550Y141000D03*
X-6550Y137000D03*
X-6550Y133000D03*
X-6550Y129000D03*
X-6550Y125000D03*
X-6550Y121000D03*
X-6550Y117000D03*
X-6550Y113000D03*
D40*
X-1300Y107750D03*
X2700Y107750D03*
X6700Y107750D03*
X10700Y107750D03*
X14700Y107750D03*
X18700Y107750D03*
X22700Y107750D03*
X26700Y107750D03*
D39*
X31950Y113000D03*
X31950Y117000D03*
X31950Y121000D03*
X31950Y125000D03*
X31950Y129000D03*
X31950Y133000D03*
X31950Y137000D03*
X31950Y141000D03*
D40*
X26700Y146250D03*
X22700Y146250D03*
X18700Y146250D03*
X14700Y146250D03*
X10700Y146250D03*
X6700Y146250D03*
X2700Y146250D03*
X-1300Y146250D03*
D41*
X12700Y127000D03*
D42*
X6350Y133350D03*
X19050Y133350D03*
X6350Y120650D03*
X19050Y120650D03*
D43*
X-1120Y-158052D03*
X-14120Y-158052D03*
X-7620Y-182308D03*
D44*
X75938Y-140970D03*
X75938Y-128270D03*
X75938Y-115570D03*
X75938Y-102870D03*
X75938Y-90170D03*
X75938Y-77470D03*
X75938Y-64770D03*
X25662Y-64770D03*
X25662Y-77470D03*
X25662Y-90170D03*
X25662Y-102870D03*
X25662Y-115570D03*
X25662Y-128270D03*
X25662Y-140970D03*
D45*
X-226675Y-339700D03*
X-226675Y-330200D03*
X-226675Y-320700D03*
X-255925Y-320700D03*
X-255925Y-330200D03*
X-255925Y-339700D03*
D46*
X-184265Y59425D02*
X-179015Y59425D01*
X-184265Y59425D02*
X-184265Y61675D01*
X-179015Y61675D01*
X-179015Y59425D01*
X-179015Y60137D02*
X-184265Y60137D01*
X-184265Y60849D02*
X-179015Y60849D01*
X-179015Y61561D02*
X-184265Y61561D01*
X-184265Y52925D02*
X-179015Y52925D01*
X-184265Y52925D02*
X-184265Y55175D01*
X-179015Y55175D01*
X-179015Y52925D01*
X-179015Y53637D02*
X-184265Y53637D01*
X-184265Y54349D02*
X-179015Y54349D01*
X-179015Y55061D02*
X-184265Y55061D01*
X-184265Y46425D02*
X-179015Y46425D01*
X-184265Y46425D02*
X-184265Y48675D01*
X-179015Y48675D01*
X-179015Y46425D01*
X-179015Y47137D02*
X-184265Y47137D01*
X-184265Y47849D02*
X-179015Y47849D01*
X-179015Y48561D02*
X-184265Y48561D01*
X-184265Y39925D02*
X-179015Y39925D01*
X-184265Y39925D02*
X-184265Y42175D01*
X-179015Y42175D01*
X-179015Y39925D01*
X-179015Y40637D02*
X-184265Y40637D01*
X-184265Y41349D02*
X-179015Y41349D01*
X-179015Y42061D02*
X-184265Y42061D01*
X-156265Y39925D02*
X-151015Y39925D01*
X-156265Y39925D02*
X-156265Y42175D01*
X-151015Y42175D01*
X-151015Y39925D01*
X-151015Y40637D02*
X-156265Y40637D01*
X-156265Y41349D02*
X-151015Y41349D01*
X-151015Y42061D02*
X-156265Y42061D01*
X-156265Y46425D02*
X-151015Y46425D01*
X-156265Y46425D02*
X-156265Y48675D01*
X-151015Y48675D01*
X-151015Y46425D01*
X-151015Y47137D02*
X-156265Y47137D01*
X-156265Y47849D02*
X-151015Y47849D01*
X-151015Y48561D02*
X-156265Y48561D01*
D47*
X-167640Y50800D03*
D46*
X-156265Y52925D02*
X-151015Y52925D01*
X-156265Y52925D02*
X-156265Y55175D01*
X-151015Y55175D01*
X-151015Y52925D01*
X-151015Y53637D02*
X-156265Y53637D01*
X-156265Y54349D02*
X-151015Y54349D01*
X-151015Y55061D02*
X-156265Y55061D01*
X-156265Y59425D02*
X-151015Y59425D01*
X-156265Y59425D02*
X-156265Y61675D01*
X-151015Y61675D01*
X-151015Y59425D01*
X-151015Y60137D02*
X-156265Y60137D01*
X-156265Y60849D02*
X-151015Y60849D01*
X-151015Y61561D02*
X-156265Y61561D01*
D48*
X-36203Y-7460D03*
X-36203Y-2460D03*
X-36203Y2540D03*
X-36203Y7540D03*
X-36203Y12540D03*
X-78097Y12540D03*
X-78097Y7540D03*
X-78097Y2540D03*
X-78097Y-2460D03*
X-78097Y-7460D03*
D21*
X-272924Y-332740D03*
X-288416Y-332740D03*
D20*
X16510Y-189104D03*
X16510Y-204596D03*
D49*
X26670Y29210D02*
X26670Y35434D01*
X26670Y29210D02*
X35686Y20194D01*
X43180Y20194D01*
X76200Y35560D02*
X76200Y53214D01*
X76200Y35560D02*
X73660Y33020D01*
X59816Y33020D01*
X59690Y32894D01*
X59690Y21590D01*
D50*
X59690Y21590D03*
D51*
X159310Y259826D02*
X165810Y259826D01*
X172310Y259826D01*
X172310Y264906D01*
X168910Y280138D02*
X169442Y280670D01*
D49*
X-43712Y86360D02*
X-54610Y86360D01*
D50*
X-54610Y86360D03*
X31750Y96520D03*
X-2540Y54610D03*
X-19050Y-38100D03*
D49*
X130831Y-109979D02*
X131342Y-110490D01*
D50*
X-262890Y-365760D03*
X-213360Y-308610D03*
X-316230Y-341630D03*
X-256540Y-350520D03*
D49*
X31750Y96520D02*
X26826Y101444D01*
X18700Y104767D02*
X18700Y107750D01*
X18700Y104767D02*
X22023Y101444D01*
X26826Y101444D01*
D52*
X147184Y201930D02*
X148454Y203200D01*
X165100Y203200D01*
D50*
X165100Y203200D03*
D52*
X165100Y177800D02*
X147184Y177800D01*
D50*
X165100Y177800D03*
X167640Y297180D03*
X181610Y267970D03*
X-182880Y245110D03*
X-181610Y306070D03*
X-121920Y304800D03*
X-99060Y304800D03*
X132080Y226060D03*
X133350Y278130D03*
X88900Y304800D03*
X-10160Y304800D03*
D52*
X-212090Y152536D02*
X-212090Y138430D01*
D50*
X-212090Y138430D03*
D52*
X-190500Y138430D02*
X-190500Y152536D01*
D50*
X-190500Y138430D03*
D52*
X-190500Y118110D02*
X-176656Y118110D01*
D50*
X-190500Y118110D03*
D52*
X-254000Y113166D02*
X-254000Y99060D01*
D50*
X-254000Y99060D03*
D52*
X-232410Y95250D02*
X-232410Y113166D01*
D50*
X-232410Y95250D03*
D52*
X-79000Y238050D02*
X-79000Y244550D01*
X-79000Y251050D01*
X-79000Y259340D01*
X-80010Y260350D01*
D49*
X-2540Y54610D02*
X3810Y54610D01*
X8890Y59690D01*
X8890Y70588D01*
D50*
X-12700Y25400D03*
D49*
X-27255Y7540D02*
X-36203Y7540D01*
X-27255Y7540D02*
X-12700Y22095D01*
X-12700Y25400D01*
D51*
X-128802Y-17780D02*
X-142240Y-17780D01*
D50*
X-142240Y-17780D03*
X-129540Y25400D03*
X-152400Y24130D03*
X-162560Y68580D03*
X-364490Y-327660D03*
X-265430Y-252730D03*
X-265430Y-284480D03*
X-176530Y-290830D03*
X-53340Y-281940D03*
X-161290Y-250190D03*
X-384810Y-281940D03*
X-369570Y-207010D03*
X-298450Y-200660D03*
X-369570Y-5080D03*
X-326390Y-57150D03*
X-302260Y-12700D03*
X-383540Y104140D03*
X-268680Y-200100D03*
D49*
X-268120Y-200660D02*
X-255396Y-200660D01*
X-268120Y-200660D02*
X-268680Y-200100D01*
D51*
X-226060Y-91440D02*
X-211954Y-91440D01*
D50*
X-226060Y-91440D03*
X-204470Y-46990D03*
X-228004Y-289560D03*
X-224790Y-416560D03*
X-237490Y-416560D03*
X-237490Y-429260D03*
X-224790Y-429260D03*
X-288290Y-403860D03*
X-300990Y-365760D03*
X382270Y-194310D03*
X382270Y-208280D03*
X383540Y-95250D03*
X289560Y-91440D03*
X289560Y-105410D03*
X303530Y154940D03*
X322580Y154940D03*
X344170Y154940D03*
X386080Y30480D03*
X387350Y43180D03*
X328930Y298450D03*
X386080Y280670D03*
X386080Y269240D03*
X388620Y138430D03*
X387350Y171450D03*
D49*
X257250Y116280D02*
X246654Y116280D01*
X257250Y116280D02*
X259080Y118110D01*
X260350Y118110D01*
D50*
X260350Y118110D03*
X257810Y162560D03*
X292100Y135890D03*
X-52691Y74309D03*
D51*
X125730Y-220980D02*
X139168Y-220980D01*
D50*
X125730Y-220980D03*
D51*
X182880Y-34290D02*
X182880Y-23392D01*
D50*
X182880Y-34290D03*
X-167777Y-264116D03*
D51*
X130936Y-3810D02*
X132080Y-2666D01*
D52*
X47728Y-250190D02*
X35560Y-250190D01*
X34290Y-251460D01*
D50*
X34290Y-251460D03*
D52*
X-14692Y-157480D02*
X-34290Y-157480D01*
X-14692Y-157480D02*
X-14120Y-158052D01*
D50*
X-34290Y-157480D03*
D52*
X-34290Y-100330D02*
X-39506Y-95114D01*
X-46990Y-95114D01*
X-34290Y-100330D02*
X-34290Y-107950D01*
D50*
X-34290Y-107950D03*
X232410Y-233680D03*
X232410Y-254000D03*
X232410Y-276860D03*
D49*
X-300000Y40000D02*
X-300000Y60000D01*
X-300000Y-140000D02*
X-300000Y-160000D01*
D52*
X-71120Y-95114D02*
X-46990Y-95114D01*
D51*
X236220Y-117974D02*
X236220Y-132080D01*
D50*
X236220Y-132080D03*
D51*
X198120Y-123190D02*
X198120Y-113562D01*
D50*
X198120Y-123190D03*
D49*
X-268680Y-198968D02*
X-268680Y-200100D01*
X-260922Y-191210D02*
X-221254Y-191210D01*
X-260922Y-191210D02*
X-268680Y-198968D01*
D50*
X-337820Y-200660D03*
X-316230Y-200660D03*
X-367030Y-53340D03*
X-351790Y-50800D03*
X-349250Y-7620D03*
X-383540Y128270D03*
X-384810Y86360D03*
X-331470Y-7620D03*
X149421Y-110353D03*
D49*
X149283Y-110490D02*
X131342Y-110490D01*
X149283Y-110490D02*
X149421Y-110353D01*
D52*
X242434Y52070D02*
X257810Y52070D01*
D50*
X257810Y52070D03*
D52*
X257810Y26924D02*
X242434Y26924D01*
X257810Y26924D02*
X257810Y26670D01*
D50*
X257810Y26670D03*
D52*
X16510Y-204596D02*
X16510Y-217170D01*
D50*
X16510Y-217170D03*
X-78740Y-16510D03*
D53*
D52*
X-78097Y-15867D01*
X-25932Y-97790D02*
X-25932Y-104878D01*
X-21590Y-109220D01*
D50*
X-21590Y-109220D03*
X198120Y77470D03*
X250190Y-35560D03*
X250190Y-21590D03*
D54*
D51*
X222250Y-35560D02*
X217805Y-40005D01*
D55*
D51*
X224790Y-38100D02*
X228600Y-38100D01*
X224790Y-38100D02*
X222250Y-35560D01*
X104856Y-245110D02*
X104656Y-245310D01*
X121800Y-250310D02*
X127000Y-245110D01*
X124500Y-255310D02*
X127000Y-257810D01*
D50*
X127000Y-283210D03*
X146050Y-284480D03*
X125730Y-231140D03*
X-135890Y-100330D03*
X-129540Y-107950D03*
X-114300Y-102870D03*
D51*
X-60960Y104140D02*
X-50062Y104140D01*
D50*
X-60960Y104140D03*
D52*
X8890Y-102870D02*
X25662Y-102870D01*
X8890Y-102870D02*
X5080Y-106680D01*
D50*
X5080Y-106680D03*
D52*
X-256540Y217034D02*
X-256540Y231140D01*
D50*
X-256540Y231140D03*
D52*
X-129414Y118110D02*
X-116840Y118110D01*
D50*
X-116840Y118110D03*
D52*
X-218242Y74930D02*
X-219512Y76200D01*
X-229870Y76200D01*
D50*
X-229870Y76200D03*
X86360Y134620D03*
X-144780Y307340D03*
X-269240Y309880D03*
X43180Y10862D03*
D49*
X43180Y20194D01*
D50*
X125730Y-298450D03*
D52*
X220844Y-233680D02*
X232410Y-233680D01*
X220844Y-233680D02*
X218304Y-231140D01*
X218304Y-254000D02*
X232410Y-254000D01*
X232410Y-276860D02*
X218304Y-276860D01*
D50*
X-236220Y308610D03*
D49*
X12700Y127000D02*
X19050Y127000D01*
X19050Y120650D01*
D51*
X104400Y238050D02*
X104400Y244550D01*
X104400Y238050D02*
X104400Y231550D01*
X17780Y185284D02*
X5216Y185284D01*
X2540Y187960D01*
D50*
X2540Y187960D03*
D49*
X25400Y185284D02*
X27393Y183292D01*
X25400Y185284D02*
X17780Y185284D01*
X27393Y183292D02*
X27393Y161006D01*
X18700Y152314D02*
X18700Y146250D01*
X18700Y152314D02*
X27393Y161006D01*
D51*
X126292Y-2666D02*
X132080Y-2666D01*
X126292Y-2666D02*
X122523Y1104D01*
X132080Y-2666D02*
X141096Y-2666D01*
X142240Y-3810D01*
D50*
X142240Y-3810D03*
D52*
X98350Y38374D02*
X98350Y48970D01*
X95250Y52070D01*
D50*
X95250Y52070D03*
D51*
X108038Y1104D02*
X122523Y1104D01*
X104850Y4291D02*
X104850Y9886D01*
X104850Y4291D02*
X108038Y1104D01*
D50*
X-135890Y-57150D03*
X83820Y-257810D03*
X222250Y-73660D03*
X195580Y-35560D03*
D51*
X40776Y-273050D02*
X27940Y-273050D01*
D50*
X27940Y-273050D03*
X-205144Y-228600D03*
X-383540Y-252730D03*
X-265430Y-267970D03*
X-383540Y-266700D03*
X140970Y-93866D03*
D52*
X140345Y-94491D01*
X130831Y-94491D01*
D50*
X-359410Y-102870D03*
X-359410Y-156210D03*
X-359410Y45720D03*
X-358140Y92710D03*
X336550Y111760D03*
X335280Y49530D03*
X341630Y262890D03*
X340360Y200660D03*
X345440Y-119380D03*
X345440Y-175260D03*
X-195580Y-48260D03*
D49*
X-144906Y131422D02*
X-144780Y131548D01*
X-144906Y131422D02*
X-144906Y118110D01*
X-144906Y110211D01*
X-140695Y106000D01*
X-90000Y106000D01*
X-14302Y137000D02*
X-6550Y137000D01*
X-14302Y137000D02*
X-14778Y136524D01*
X-59476Y136524D01*
X-90000Y106000D01*
X-161290Y118236D02*
X-161290Y131548D01*
X-161290Y118236D02*
X-161164Y118110D01*
X-161164Y110211D01*
X-153905Y102952D01*
X-88737Y102952D01*
X-58213Y133476D01*
X-14290Y133000D02*
X-6550Y133000D01*
X-14290Y133000D02*
X-14766Y133476D01*
X-58213Y133476D01*
D52*
X-232410Y150825D02*
X-233680Y152095D01*
X-232410Y150825D02*
X-232410Y130674D01*
D49*
X-228736Y127000D01*
X-190500Y127000D01*
X-176500Y141000D01*
X-6550Y141000D01*
X-79000Y231550D02*
X-85950Y231550D01*
X-88900Y228600D01*
D50*
X-88900Y228600D03*
D49*
X10700Y158210D02*
X10700Y146250D01*
D56*
X3136Y166769D03*
D49*
X3136Y165774D02*
X10700Y158210D01*
X3136Y165774D02*
X3136Y166769D01*
D52*
X73400Y193750D02*
X73400Y200250D01*
X73400Y193750D02*
X73400Y187250D01*
D49*
X40776Y168910D02*
X40776Y154115D01*
X32912Y146250D01*
X26700Y146250D01*
X-2644Y163941D02*
X-2644Y172688D01*
X-2644Y163941D02*
X6700Y154597D01*
X-2644Y172688D02*
X-7756Y177800D01*
X6700Y154597D02*
X6700Y146250D01*
D56*
X115570Y250190D03*
D49*
X114710Y251050D01*
X104400Y251050D01*
X22700Y149233D02*
X22700Y146250D01*
D50*
X39370Y182880D03*
D49*
X38364Y182880D01*
X30441Y174957D01*
X30441Y156973D01*
X22700Y149233D01*
X31950Y141000D02*
X35590Y141000D01*
X45720Y151130D01*
D56*
X45720Y151130D03*
D57*
X73660Y167640D03*
D49*
X73660Y180490D01*
X73400Y180750D01*
X83090Y129000D02*
X31950Y129000D01*
X83090Y129000D02*
X87630Y124460D01*
D50*
X87630Y124460D03*
D49*
X140716Y111506D02*
X147320Y118110D01*
X140716Y111506D02*
X129130Y111506D01*
D50*
X147320Y118110D03*
D52*
X-129540Y91745D02*
X-149860Y91745D01*
X-153365Y88240D01*
X-153365Y80010D01*
D50*
X261620Y-251460D03*
X261620Y-264160D03*
X406400Y-262890D03*
X406400Y-250190D03*
X406400Y-275590D03*
X261620Y-275590D03*
X261620Y-287020D03*
X406400Y-285750D03*
X275590Y-251460D03*
X275590Y-264160D03*
X275590Y-275590D03*
X393700Y-250190D03*
X393700Y-262890D03*
X393700Y-275590D03*
X127000Y64770D03*
X142240Y64770D03*
X168910Y64770D03*
X173990Y76200D03*
X156210Y64770D03*
D52*
X-79045Y91745D02*
X-129540Y91745D01*
X-79045Y91745D02*
X-25400Y38100D01*
X-12700Y38100D01*
D50*
X-12700Y38100D03*
X127000Y52070D03*
X142240Y53340D03*
X156210Y53340D03*
X168910Y53340D03*
D49*
X53301Y125000D02*
X31950Y125000D01*
X82491Y95810D02*
X95738Y95810D01*
X82491Y95810D02*
X53301Y125000D01*
X52990Y121000D02*
X31950Y121000D01*
X52990Y121000D02*
X69850Y102870D01*
X81280Y91440D01*
X81280Y86360D01*
X88340Y79300D01*
X95738Y79300D01*
X14700Y146250D02*
X14700Y153130D01*
X17780Y156210D01*
X17780Y167776D01*
D50*
X3611Y176530D03*
D49*
X12365Y167776D02*
X17780Y167776D01*
X12365Y167776D02*
X3611Y176530D01*
X31950Y117000D02*
X41750Y117000D01*
X43180Y115570D01*
D50*
X43180Y115570D03*
D49*
X-31218Y120483D02*
X-33758Y117943D01*
X-33758Y104140D01*
X-30701Y121000D02*
X-6550Y121000D01*
X-30701Y121000D02*
X-31218Y120483D01*
X-6550Y113000D02*
X-6550Y96320D01*
X-16510Y86360D01*
X-27408Y86360D01*
D57*
X-16510Y76200D03*
D49*
X-16510Y86360D01*
X-1300Y95250D02*
X-1300Y107750D01*
X-1300Y95250D02*
X-1270Y95250D01*
D50*
X-1270Y95250D03*
D49*
X2700Y100170D02*
X2700Y107750D01*
X2700Y100170D02*
X8890Y93980D01*
X8890Y86892D01*
X59690Y64238D02*
X59690Y48386D01*
X59690Y80542D02*
X59690Y91440D01*
X38130Y113000D01*
X31950Y113000D01*
X76200Y75056D02*
X76200Y68706D01*
X76200Y75056D02*
X70714Y80542D01*
X59690Y80542D01*
X43210Y100130D02*
X35590Y107750D01*
X26700Y107750D01*
X26670Y53872D02*
X26670Y50926D01*
X26670Y53872D02*
X43180Y70382D01*
X43210Y70412D02*
X43210Y100130D01*
X43210Y70412D02*
X43180Y70382D01*
X43180Y54078D02*
X43180Y35686D01*
X317500Y413500D02*
X317500Y424180D01*
X325120Y431800D01*
X332740Y431800D01*
X340360Y424180D01*
X340360Y327660D01*
X331470Y318770D01*
X200660Y133350D02*
X200660Y116840D01*
X201220Y116280D01*
X218166Y116280D01*
X296770Y318770D02*
X331470Y318770D01*
X10700Y107750D02*
X10500Y107036D01*
X20320Y92209D02*
X20320Y81280D01*
X10500Y101115D02*
X10500Y107036D01*
X10500Y101115D02*
X20320Y92209D01*
X20320Y81280D02*
X25400Y76200D01*
D50*
X25400Y76200D03*
X201220Y116280D03*
D49*
X-24130Y2540D02*
X-36203Y2540D01*
X-24130Y2540D02*
X6325Y32995D01*
X6325Y50120D01*
X25400Y69195D02*
X25400Y76200D01*
X25400Y69195D02*
X6325Y50120D01*
X-255925Y-306725D02*
X-255925Y-320700D01*
X-255925Y-306725D02*
X-250190Y-300990D01*
X-250190Y-250190D01*
X-208280Y-208280D01*
X-207010Y-207010D01*
X-201370Y-191210D02*
X-192766Y-191210D01*
X-201370Y-191210D02*
X-203200Y-193040D01*
X-207010Y-196850D01*
X-207010Y-207010D01*
X278784Y300784D02*
X296770Y318770D01*
X278784Y300784D02*
X278784Y211474D01*
X200660Y133350D01*
X-200660Y-210820D02*
X-203200Y-210820D01*
X-205740Y-208280D02*
X-207010Y-207010D01*
D50*
X-200660Y-210820D03*
D49*
X-203200Y-210820D02*
X-205740Y-208280D01*
X104850Y33498D02*
X104850Y38374D01*
D50*
X-185420Y-227330D03*
D49*
X-179070Y-233680D01*
X-203200Y-189380D02*
X-204470Y-188110D01*
X-204470Y-139700D01*
X-251460Y-92710D01*
X-251460Y-53340D01*
X-208280Y-208280D02*
X-205740Y-208280D01*
X-203200Y-193040D02*
X-203200Y-189380D01*
X-201370Y-191210D01*
X-251460Y-53340D02*
X-196850Y1270D01*
X-120650Y1270D01*
X-82550Y39370D01*
X-64770Y39370D01*
X-49530Y24130D01*
X-49530Y6350D01*
X-45720Y2540D01*
X-36203Y2540D01*
D50*
X103990Y58420D03*
D49*
X104850Y57560D01*
X104850Y38374D01*
X292100Y413500D02*
X292100Y431800D01*
X304800Y444500D01*
X345440Y444500D01*
X354330Y435610D01*
X354330Y318770D01*
X344170Y308610D01*
X300990Y308610D01*
X284480Y292100D01*
X284480Y208280D01*
X216896Y140696D02*
X216896Y131806D01*
X216896Y130810D01*
X218166Y129266D02*
X218166Y122780D01*
X216896Y140696D02*
X284480Y208280D01*
X14700Y107750D02*
X14700Y102140D01*
X34290Y82550D01*
D50*
X34290Y82550D03*
X208280Y130810D03*
D49*
X215900Y130810D01*
X216622Y130810D01*
X216896Y130810D01*
X-35140Y-1397D02*
X-36203Y-2460D01*
X14453Y31732D02*
X14453Y51397D01*
X-18676Y-1397D02*
X-35140Y-1397D01*
X-18676Y-1397D02*
X14453Y31732D01*
X34290Y71234D02*
X34290Y82550D01*
X34290Y71234D02*
X14453Y51397D01*
X-226675Y-302875D02*
X-226675Y-320700D01*
X-226675Y-302875D02*
X-187686Y-263886D01*
X-192766Y-232136D02*
X-192766Y-197710D01*
X-192766Y-232136D02*
X-187686Y-237216D01*
X-185010Y-197710D02*
X-192766Y-197710D01*
X-185010Y-197710D02*
X-183590Y-196290D01*
X-183590Y-186540D01*
X-183590Y-184710D01*
X-184150Y-184710D01*
X-187686Y-237216D02*
X-187686Y-263886D01*
X111350Y33498D02*
X111350Y38374D01*
X-36203Y-2460D02*
X-37266Y-3523D01*
X-182320Y-147880D02*
X-182320Y-182880D01*
X-182320Y-147880D02*
X-241300Y-88900D01*
X-241300Y-54610D01*
X-192766Y-184710D02*
X-185420Y-184710D01*
X-184150Y-184710D01*
X-182320Y-182880D01*
X216622Y130810D02*
X218166Y129266D01*
X215900Y130810D02*
X216896Y131806D01*
X-36203Y-2460D02*
X-37266Y-1397D01*
X-46214Y-1397D01*
X-54610Y6999D01*
X-54610Y20320D01*
X-64770Y30480D01*
X-78740Y30480D01*
X-116840Y-7620D01*
X-194310Y-7620D01*
X-241300Y-54610D01*
X-185420Y-184710D02*
X-183590Y-186540D01*
X111350Y38374D02*
X111350Y63910D01*
X109220Y66040D01*
D50*
X109220Y66040D03*
D49*
X-74520Y198380D02*
X-75029Y198889D01*
D56*
X-73506Y207164D03*
D49*
X-75029Y205641D02*
X-75029Y198889D01*
X-75029Y205641D02*
X-73506Y207164D01*
X2700Y153043D02*
X2700Y146250D01*
X2700Y153043D02*
X-5829Y161572D01*
D57*
X-15240Y166381D03*
D49*
X-10431Y161572D02*
X-5829Y161572D01*
X-10431Y161572D02*
X-15240Y166381D01*
D52*
X-61520Y198380D02*
X-68020Y198380D01*
X-61520Y198380D02*
X-55020Y198380D01*
D50*
X88900Y165100D03*
X87630Y148590D03*
X111760Y163830D03*
X125730Y158750D03*
X114300Y210820D03*
X115570Y187960D03*
D53*
D49*
X109630Y142494D02*
X109630Y132490D01*
X116130Y133806D02*
X116130Y142494D01*
X116130Y133806D02*
X118618Y131318D01*
X119380Y130556D01*
X122630Y133806D02*
X122630Y142494D01*
X122630Y133806D02*
X119380Y130556D01*
X129130Y132490D02*
X129130Y142494D01*
X129130Y132490D02*
X129540Y132080D01*
X128778Y131318D01*
X118618Y131318D01*
D50*
X101600Y151130D03*
X246380Y228600D03*
X264160Y228600D03*
X250190Y215900D03*
X261620Y217170D03*
X-16510Y110237D03*
D49*
X-9747Y117000D01*
X-6550Y117000D01*
D51*
X-47522Y120483D02*
X-53872Y120483D01*
X-55880Y122491D01*
X-55880Y125730D01*
D50*
X-55880Y125730D03*
X-13970Y100077D03*
D52*
X-13970Y107697D02*
X-16510Y110237D01*
X-13970Y107697D02*
X-13970Y100077D01*
X-221285Y54610D02*
X-221285Y34290D01*
D50*
X-393700Y233680D03*
X-393700Y201930D03*
X-393700Y218440D03*
X-378460Y218440D03*
X-378460Y201930D03*
X-224790Y17780D03*
X-236220Y30480D03*
D49*
X-161595Y148157D02*
X-161595Y171450D01*
X-161595Y148157D02*
X-161290Y147852D01*
D52*
X-153640Y54050D02*
X-132504Y54050D01*
X-129540Y57014D01*
X-129540Y73355D01*
D53*
D52*
X-181640Y25496D02*
X-183006Y24130D01*
D53*
D52*
X-178105Y80010D02*
X-171755Y80010D01*
X-178105Y80010D02*
X-181640Y76475D01*
X-171755Y80010D02*
X-171755Y87630D01*
X-174421Y90296D01*
X-190500Y90296D01*
D51*
X-185825Y47550D02*
X-199085Y34290D01*
X-202895Y34290D01*
X-185825Y47550D02*
X-181640Y47550D01*
D52*
X-254000Y130674D02*
X-254000Y152095D01*
D49*
X-143205Y149427D02*
X-143205Y171450D01*
X-143205Y149427D02*
X-144780Y147852D01*
D55*
D51*
X-158957Y-84970D02*
X-173870Y-84970D01*
X-180340Y-91440D01*
X-194446Y-91440D01*
X229750Y-79890D02*
X229750Y-57904D01*
X229750Y-79890D02*
X236220Y-86360D01*
X236220Y-100466D01*
X104656Y-265310D02*
X80130Y-265310D01*
X73660Y-271780D01*
D50*
X73660Y-271780D03*
X-194310Y-107950D03*
X-287020Y-435610D03*
X-419100Y114300D03*
X165100Y-435610D03*
X-59690Y-176530D03*
X58420Y-289560D03*
X254000Y-96520D03*
X-326390Y139700D03*
X-264160Y55880D03*
X46990Y-140970D03*
X-27940Y-261620D03*
X-233680Y-66040D03*
X-287020Y138430D03*
X-359410Y175260D03*
X-359410Y160020D03*
X215900Y-127000D03*
X-116840Y-439420D03*
X-106680Y-417830D03*
X-308610Y-420370D03*
X66040Y-177800D03*
X133350Y-160020D03*
X106680Y-195580D03*
X44450Y-193040D03*
D52*
X-190500Y74804D02*
X-202624Y74804D01*
X-202750Y74930D01*
D51*
X-202335Y54050D02*
X-181640Y54050D01*
D58*
X-202335Y54050D02*
X-202895Y54610D01*
D52*
X-202750Y54465D02*
X-202750Y74930D01*
X-202750Y54465D02*
X-202335Y54050D01*
D50*
X-149860Y-34290D03*
X-182880Y-33020D03*
X-201930Y-33020D03*
X-190500Y-19050D03*
X279400Y72390D03*
X270510Y64770D03*
X281940Y55880D03*
X270510Y46990D03*
X281940Y35560D03*
X-172720Y-19050D03*
X-266700Y-3810D03*
X-246380Y-17780D03*
X-223520Y-12700D03*
X-247650Y-2540D03*
X-240030Y-30480D03*
D52*
X98350Y9886D02*
X99139Y9097D01*
X106806Y-5681D02*
X106806Y-8890D01*
X99139Y1986D02*
X99139Y9097D01*
X99139Y1986D02*
X106806Y-5681D01*
X106806Y-8890D02*
X106806Y-23951D01*
X109525Y-26670D01*
D50*
X123190Y-30480D03*
X110490Y-41910D03*
X120650Y-40640D03*
D51*
X110490Y-27635D02*
X109525Y-26670D01*
X110490Y-27635D02*
X110490Y-41910D01*
X106806Y-8890D02*
X120650Y-8890D01*
D50*
X283210Y-160020D03*
X283210Y-171450D03*
X283210Y-185420D03*
X-274320Y-182880D03*
X-276860Y-172720D03*
X-276860Y-160020D03*
D51*
X-240030Y-184710D02*
X-221254Y-184710D01*
X-240030Y-184710D02*
X-240030Y-176835D01*
D50*
X138430Y-189230D03*
X271780Y-185420D03*
X271780Y-172720D03*
X271780Y-160020D03*
X-276860Y-146050D03*
D51*
X138430Y-202629D02*
X139168Y-203367D01*
X138430Y-202629D02*
X138430Y-189230D01*
X-158957Y-89970D02*
X-172520Y-89970D01*
X-182880Y-100330D01*
X-182880Y-122056D01*
D49*
X-184014Y-123190D01*
D51*
X-91440Y-38100D02*
X-90170Y-39370D01*
X-91440Y-38100D02*
X-109958Y-38100D01*
X-112498Y-35560D01*
X-112498Y-17780D01*
D50*
X-69854Y-53336D03*
D51*
X-81288Y-64770D02*
X-90170Y-64770D01*
X-81288Y-64770D02*
X-69854Y-53336D01*
D49*
X-114222Y-64923D02*
X-114269Y-64970D01*
D51*
X-90323Y-64923D02*
X-90170Y-64770D01*
X-90323Y-64923D02*
X-114222Y-64923D01*
X-94939Y-52070D02*
X-90170Y-52070D01*
X-94939Y-52070D02*
X-102839Y-59970D01*
X-114269Y-59970D01*
X-158957Y-59970D02*
X-171730Y-59970D01*
X-173990Y-62230D01*
X-182880Y-62230D01*
D50*
X99060Y-102870D03*
D52*
X75938Y-102870D01*
X-272924Y-332740D02*
X-272924Y-342774D01*
X-273050Y-342900D01*
D50*
X-273050Y-342900D03*
D52*
X-179808Y-340360D02*
X-167640Y-340360D01*
X-166370Y-341630D01*
D50*
X-166370Y-341630D03*
X-241300Y-213360D03*
X-252730Y-213360D03*
X246380Y135890D03*
X203200Y105410D03*
D52*
X246654Y122780D02*
X246654Y135616D01*
X246380Y135890D01*
X218166Y109780D02*
X207570Y109780D01*
X203200Y105410D01*
X25173Y-175033D02*
X16510Y-175033D01*
X28575Y-180975D02*
X29210Y-181610D01*
X28575Y-180975D02*
X28575Y-178435D01*
D50*
X29210Y-181610D03*
D52*
X28575Y-178435D02*
X25173Y-175033D01*
D51*
X111350Y9886D02*
X129140Y9886D01*
X132080Y12826D01*
D59*
X-10514Y-16898D03*
X-25400Y-16898D03*
D53*
D52*
X-33902Y-16898D02*
X-36203Y-14597D01*
X-33902Y-16898D02*
X-25400Y-16898D01*
X16510Y-189104D02*
X24256Y-189104D01*
X28575Y-184785D01*
X28575Y-182245D02*
X29210Y-181610D01*
X28575Y-182245D02*
X28575Y-184785D01*
X143510Y12700D02*
X143384Y12826D01*
X132080Y12826D01*
D50*
X143510Y12700D03*
D52*
X-256539Y-330814D02*
X-270998Y-330814D01*
X-272924Y-332740D01*
X-256539Y-330814D02*
X-255925Y-330200D01*
X-443Y-158729D02*
X16510Y-158729D01*
X-443Y-158729D02*
X-1120Y-158052D01*
X-1120Y-144630D01*
X5080Y-138430D01*
X5080Y-119380D01*
X8890Y-115570D01*
X25662Y-115570D01*
D54*
D52*
X25662Y-140970D02*
X25662Y-144780D01*
X25662Y-150122D01*
X33020Y-157480D01*
X46458Y-157480D01*
X38481Y-128270D02*
X45188Y-121563D01*
X38481Y-128270D02*
X25662Y-128270D01*
X45188Y-58420D02*
X40108Y-53340D01*
X40108Y-44450D01*
X45188Y-58420D02*
X45188Y-121563D01*
X25662Y-150122D02*
X20320Y-150122D01*
X12700Y-150122D02*
X11692Y-150122D01*
X8890Y-147320D01*
D50*
X-10160Y-143510D03*
D52*
X-10160Y-128802D01*
D50*
X7664Y-147320D03*
D52*
X8890Y-147320D01*
X12700Y-150122D02*
X20320Y-150122D01*
X25662Y-144780D01*
X75938Y-128270D02*
X98528Y-128270D01*
X100330Y-126468D01*
X101600Y-127738D02*
X117046Y-127738D01*
X101600Y-127738D02*
X100330Y-126468D01*
X117046Y-127738D02*
X118848Y-129540D01*
X102338Y-115570D02*
X75938Y-115570D01*
X107418Y-110490D02*
X115038Y-110490D01*
X107418Y-110490D02*
X102338Y-115570D01*
X57222Y-121467D02*
X57222Y-144320D01*
X62762Y-149860D02*
X62762Y-157480D01*
X62762Y-149860D02*
X57222Y-144320D01*
X63119Y-115570D02*
X75938Y-115570D01*
X63119Y-115570D02*
X57222Y-121467D01*
X60960Y-90170D02*
X75938Y-90170D01*
X60960Y-90170D02*
X53872Y-83082D01*
X56412Y-54610D02*
X56412Y-44450D01*
X56412Y-54610D02*
X53872Y-57150D01*
X53872Y-83082D01*
X75938Y-90170D02*
X97790Y-90170D01*
X102111Y-94491D01*
X114527Y-94491D01*
D58*
X-25932Y-81280D02*
X-25932Y-78208D01*
X-46990Y-57150D01*
D50*
X-46990Y-57150D03*
X-52070Y-35560D03*
D58*
X-58614Y-28855D02*
X-58614Y-7659D01*
X-68813Y2540D01*
X-78097Y2540D01*
X-52070Y-35399D02*
X-52070Y-35560D01*
X-52070Y-35399D02*
X-58614Y-28855D01*
X131342Y-77470D02*
X137160Y-77470D01*
X146050Y-68580D02*
X146050Y-60960D01*
X146050Y-68580D02*
X137160Y-77470D01*
D50*
X146050Y-60960D03*
X-64054Y7066D03*
D58*
X-64529Y7540D01*
X-78097Y7540D01*
X198120Y-60960D02*
X198120Y-82550D01*
X201176Y-57904D02*
X204750Y-57904D01*
X201176Y-57904D02*
X198120Y-60960D01*
D52*
X95988Y-77470D02*
X75938Y-77470D01*
X95988Y-77470D02*
X115038Y-77470D01*
X97790Y-79272D02*
X95988Y-77470D01*
X0Y-97790D02*
X-9628Y-97790D01*
X0Y-97790D02*
X7620Y-90170D01*
X25662Y-90170D01*
X-10160Y-98322D02*
X-10160Y-112498D01*
X-10160Y-98322D02*
X-9628Y-97790D01*
D51*
X104656Y-237770D02*
X104656Y-240310D01*
X104656Y-237770D02*
X99576Y-232690D01*
X83540Y-232690D01*
X82550Y-233680D01*
D52*
X25662Y-77470D02*
X6882Y-77470D01*
X3810Y-80542D01*
X-8890Y-80542D01*
X-9628Y-81280D01*
D58*
X-78097Y18890D02*
X-72857Y24130D01*
X-78097Y18890D02*
X-78097Y12540D01*
X-72857Y24130D02*
X-71120Y24130D01*
D50*
X-71120Y24130D03*
X154940Y-60960D03*
D58*
X154940Y-116102D01*
X141502Y-129540D01*
X135152Y-129540D01*
D51*
X166370Y-214630D02*
X176530Y-214630D01*
X166370Y-214630D02*
X163830Y-217170D01*
X155472Y-217170D01*
X155472Y-220980D01*
X155472Y-203367D01*
X182880Y-7088D02*
X182880Y13970D01*
X182880Y-7088D02*
X165100Y-6882D01*
X149344Y-236736D02*
X149344Y-240310D01*
X149344Y-236736D02*
X153627Y-232454D01*
X158083Y-232454D01*
X163206Y-227330D01*
X176530Y-227330D01*
X163630Y-245310D02*
X149344Y-245310D01*
X168910Y-240030D02*
X176530Y-240030D01*
X168910Y-240030D02*
X163630Y-245310D01*
X176530Y-240030D02*
X184286Y-240030D01*
X193176Y-231140D02*
X200796Y-231140D01*
X193176Y-231140D02*
X184286Y-240030D01*
X200940Y-13216D02*
X204750Y-13216D01*
X200940Y-13216D02*
X195580Y-7856D01*
X195580Y13970D01*
X209750Y12500D02*
X209750Y-13216D01*
X209750Y12500D02*
X208280Y13970D01*
D52*
X208280Y29210D01*
D50*
X208280Y29210D03*
D51*
X234750Y-57904D02*
X234750Y-77270D01*
X241098Y-83618D01*
X267970Y-83618D01*
D49*
X77606Y-283074D02*
X77606Y-297180D01*
X77606Y-283074D02*
X90370Y-270310D01*
X104656Y-270310D01*
D52*
X-204470Y-74192D02*
X-222250Y-74192D01*
X-203732Y-74930D02*
X-182880Y-74930D01*
X-203732Y-74930D02*
X-204470Y-74192D01*
D51*
X61492Y-247650D02*
X64032Y-250190D01*
X61492Y-247650D02*
X61492Y-229870D01*
X81280Y-247650D02*
X82550Y-246380D01*
X81280Y-247650D02*
X64032Y-247650D01*
X64032Y-250190D01*
X210820Y-93448D02*
X210820Y-82550D01*
X210820Y-93448D02*
X214630Y-97258D01*
X198120Y-97258D01*
D52*
X95988Y-64770D02*
X75938Y-64770D01*
X95988Y-64770D02*
X97790Y-62968D01*
D51*
X185420Y-62230D02*
X185420Y-82550D01*
X185420Y-62230D02*
X175998Y-52808D01*
X100330Y-52808D01*
X97790Y-55348D01*
X97790Y-62968D01*
D52*
X25662Y-64770D02*
X4342Y-64770D01*
X3810Y-64238D01*
D58*
X-111760Y-50800D02*
X-181610Y-50800D01*
D51*
X-182880Y-49530D01*
D58*
X-111760Y-50800D02*
X-107061Y-46101D01*
X-14327Y-46101D01*
D51*
X4342Y-64770D01*
X75938Y-140970D02*
X98528Y-140970D01*
X100330Y-142772D01*
X100330Y-184150D01*
X82550Y-201930D01*
X82550Y-220980D01*
D50*
X275590Y121920D03*
X256540Y93980D03*
X-88900Y-76200D03*
X-22860Y-66040D03*
D52*
X91314Y-26491D02*
X91314Y-8890D01*
X91314Y-26491D02*
X91135Y-26670D01*
X91314Y-8890D02*
X91314Y9350D01*
X91850Y9886D01*
X83546Y9886D01*
X81280Y7620D01*
D50*
X73660Y-19050D03*
X74930Y-33020D03*
X83820Y-41910D03*
D51*
X91135Y-39675D02*
X91135Y-26670D01*
X91135Y-39675D02*
X90170Y-40640D01*
X91314Y-8890D02*
X78740Y-8890D01*
D50*
X-59690Y-63500D03*
D51*
X-258472Y-161773D02*
X-259080Y-161164D01*
X-243358Y-161773D02*
X-240030Y-158445D01*
D50*
X-255270Y-148590D03*
X-240030Y-144780D03*
X-224790Y-146050D03*
X-222250Y-158750D03*
X171450Y-256540D03*
X184150Y-280670D03*
X184150Y-265430D03*
D49*
X88900Y325120D02*
X88900Y337300D01*
X88900Y325120D02*
X96242Y317778D01*
X152654Y317778D02*
X153670Y316762D01*
X152654Y317778D02*
X96242Y317778D01*
D51*
X153138Y299926D02*
X153670Y300458D01*
X153138Y299926D02*
X153138Y280670D01*
X153138Y260154D01*
X152810Y259826D01*
X-103070Y-89970D02*
X-114269Y-89970D01*
X-103070Y-89970D02*
X-99060Y-93980D01*
D50*
X-99060Y-93980D03*
X-81280Y-107950D03*
D51*
X-81280Y-123190D01*
X-83956Y-123190D01*
D49*
X234750Y-13216D02*
X234750Y-4010D01*
X240030Y1270D01*
D50*
X240030Y1270D03*
X270510Y20320D03*
D49*
X270510Y8754D01*
X161090Y-270310D02*
X149344Y-270310D01*
X161090Y-270310D02*
X163830Y-273050D01*
D50*
X163830Y-273050D03*
X194310Y-297351D03*
D49*
X194310Y-301791D02*
X185284Y-310817D01*
X194310Y-301791D02*
X194310Y-297351D01*
M02*
