G04 EAGLE Gerber RS-274X export*
G75*
%MOMM*%
%FSLAX34Y34*%
%LPD*%
%INSoldermask Top*%
%IPPOS*%
%AMOC8*
5,1,8,0,0,1.08239X$1,22.5*%
G01*
G04 Define Apertures*
%ADD10R,1.889000X0.482600*%
%ADD11R,1.854200X3.048000*%
%ADD12R,1.653200X1.303200*%
%ADD13R,3.103200X1.553200*%
%ADD14R,0.634200X1.400900*%
%ADD15R,0.482600X1.889000*%
%ADD16R,3.048000X1.854200*%
%ADD17R,1.400900X0.634200*%
%ADD18R,1.668500X1.367800*%
%ADD19R,1.367800X1.668500*%
%ADD20R,1.173400X1.124100*%
%ADD21R,1.124100X1.173400*%
%ADD22C,1.727200*%
%ADD23R,1.803200X7.553200*%
%ADD24R,1.903200X6.703200*%
%ADD25R,6.703200X1.903200*%
%ADD26R,0.603200X0.903200*%
%ADD27R,0.903200X0.603200*%
%ADD28R,0.508000X0.812800*%
%ADD29R,2.641600X1.600200*%
%ADD30C,1.727200*%
%ADD31R,1.623400X1.234400*%
%ADD32R,1.001900X1.177100*%
%ADD33R,1.177100X1.001900*%
%ADD34R,1.234400X1.623400*%
%ADD35R,1.473200X0.838200*%
%ADD36R,0.838200X1.473200*%
%ADD37R,0.753200X0.403200*%
%ADD38R,0.403200X0.753200*%
%ADD39R,2.997200X2.997200*%
%ADD40C,1.011200*%
%ADD41R,0.609600X1.282700*%
%ADD42R,2.473200X0.761200*%
%ADD43R,1.375500X0.761200*%
%ADD44R,2.016000X0.533400*%
%ADD45C,0.753200*%
%ADD46C,0.603200*%
%ADD47C,0.703200*%
%ADD48C,1.103200*%
G36*
X-368300Y240030D02*
X-279400Y240030D01*
X-279400Y190500D01*
X-368300Y190500D01*
X-368300Y240030D01*
G37*
G36*
X-368000Y-248290D02*
X-288000Y-248000D01*
X-288000Y-288000D01*
X-368000Y-288290D01*
X-368000Y-248290D01*
G37*
G36*
X292100Y-248000D02*
X368300Y-248000D01*
X368300Y-288000D01*
X292100Y-288000D01*
X292100Y-248000D01*
G37*
G36*
X-210820Y-405130D02*
X-172720Y-405130D01*
X-172720Y-435610D01*
X-210820Y-435610D01*
X-210820Y-405130D01*
G37*
G36*
X-210820Y-354330D02*
X-172720Y-354330D01*
X-172720Y-384810D01*
X-210820Y-384810D01*
X-210820Y-354330D01*
G37*
G36*
X190500Y234950D02*
X190500Y273050D01*
X220980Y273050D01*
X220980Y234950D01*
X190500Y234950D01*
G37*
G36*
X241300Y234950D02*
X241300Y273050D01*
X271780Y273050D01*
X271780Y234950D01*
X241300Y234950D01*
G37*
G36*
X-158640Y63550D02*
X-158640Y38050D01*
X-176640Y38050D01*
X-176640Y63550D01*
X-158640Y63550D01*
G37*
G36*
X-77135Y171134D02*
X-77147Y171256D01*
X-77147Y187954D01*
X-77135Y188076D01*
X-77097Y188200D01*
X-77036Y188314D01*
X-76954Y188414D01*
X-76854Y188496D01*
X-76740Y188557D01*
X-76616Y188595D01*
X-76494Y188607D01*
X-53046Y188607D01*
X-52924Y188595D01*
X-52800Y188557D01*
X-52686Y188496D01*
X-52586Y188414D01*
X-52504Y188314D01*
X-52443Y188200D01*
X-52405Y188076D01*
X-52393Y187954D01*
X-52393Y171256D01*
X-52405Y171134D01*
X-52443Y171010D01*
X-52504Y170896D01*
X-52586Y170796D01*
X-52686Y170714D01*
X-52800Y170653D01*
X-52924Y170615D01*
X-53046Y170603D01*
X-76494Y170603D01*
X-76616Y170615D01*
X-76740Y170653D01*
X-76854Y170714D01*
X-76954Y170796D01*
X-77036Y170896D01*
X-77097Y171010D01*
X-77135Y171134D01*
G37*
G36*
X-51754Y228935D02*
X-51876Y228923D01*
X-68574Y228923D01*
X-68696Y228935D01*
X-68820Y228973D01*
X-68934Y229034D01*
X-69034Y229116D01*
X-69116Y229216D01*
X-69177Y229330D01*
X-69215Y229454D01*
X-69227Y229576D01*
X-69227Y253024D01*
X-69215Y253146D01*
X-69177Y253270D01*
X-69116Y253384D01*
X-69034Y253484D01*
X-68934Y253566D01*
X-68820Y253627D01*
X-68696Y253665D01*
X-68574Y253677D01*
X-51876Y253677D01*
X-51754Y253665D01*
X-51630Y253627D01*
X-51516Y253566D01*
X-51416Y253484D01*
X-51334Y253384D01*
X-51273Y253270D01*
X-51235Y253146D01*
X-51223Y253024D01*
X-51223Y229576D01*
X-51235Y229454D01*
X-51273Y229330D01*
X-51334Y229216D01*
X-51416Y229116D01*
X-51516Y229034D01*
X-51630Y228973D01*
X-51754Y228935D01*
G37*
G36*
X77154Y253665D02*
X77276Y253677D01*
X93974Y253677D01*
X94096Y253665D01*
X94220Y253627D01*
X94334Y253566D01*
X94434Y253484D01*
X94516Y253384D01*
X94577Y253270D01*
X94615Y253146D01*
X94627Y253024D01*
X94627Y229576D01*
X94615Y229454D01*
X94577Y229330D01*
X94516Y229216D01*
X94434Y229116D01*
X94334Y229034D01*
X94220Y228973D01*
X94096Y228935D01*
X93974Y228923D01*
X77276Y228923D01*
X77154Y228935D01*
X77030Y228973D01*
X76916Y229034D01*
X76816Y229116D01*
X76734Y229216D01*
X76673Y229330D01*
X76635Y229454D01*
X76623Y229576D01*
X76623Y253024D01*
X76635Y253146D01*
X76673Y253270D01*
X76734Y253384D01*
X76816Y253484D01*
X76916Y253566D01*
X77030Y253627D01*
X77154Y253665D01*
G37*
G36*
X100646Y178135D02*
X100524Y178123D01*
X83826Y178123D01*
X83704Y178135D01*
X83580Y178173D01*
X83466Y178234D01*
X83366Y178316D01*
X83284Y178416D01*
X83223Y178530D01*
X83185Y178654D01*
X83173Y178776D01*
X83173Y202224D01*
X83185Y202346D01*
X83223Y202470D01*
X83284Y202584D01*
X83366Y202684D01*
X83466Y202766D01*
X83580Y202827D01*
X83704Y202865D01*
X83826Y202877D01*
X100524Y202877D01*
X100646Y202865D01*
X100770Y202827D01*
X100884Y202766D01*
X100984Y202684D01*
X101066Y202584D01*
X101127Y202470D01*
X101165Y202346D01*
X101177Y202224D01*
X101177Y178776D01*
X101165Y178654D01*
X101127Y178530D01*
X101066Y178416D01*
X100984Y178316D01*
X100884Y178234D01*
X100770Y178173D01*
X100646Y178135D01*
G37*
G36*
X150195Y232580D02*
X150183Y232702D01*
X150183Y249400D01*
X150195Y249522D01*
X150233Y249646D01*
X150294Y249760D01*
X150376Y249860D01*
X150476Y249942D01*
X150590Y250003D01*
X150714Y250041D01*
X150836Y250053D01*
X174284Y250053D01*
X174406Y250041D01*
X174530Y250003D01*
X174644Y249942D01*
X174744Y249860D01*
X174826Y249760D01*
X174887Y249646D01*
X174925Y249522D01*
X174937Y249400D01*
X174937Y232702D01*
X174925Y232580D01*
X174887Y232456D01*
X174826Y232342D01*
X174744Y232242D01*
X174644Y232160D01*
X174530Y232099D01*
X174406Y232061D01*
X174284Y232049D01*
X150836Y232049D01*
X150714Y232061D01*
X150590Y232099D01*
X150476Y232160D01*
X150376Y232242D01*
X150294Y232342D01*
X150233Y232456D01*
X150195Y232580D01*
G37*
G36*
X-178229Y38841D02*
X-178435Y38800D01*
X-184845Y38800D01*
X-185051Y38841D01*
X-185230Y38960D01*
X-185349Y39139D01*
X-185390Y39345D01*
X-185390Y42755D01*
X-185349Y42961D01*
X-185230Y43140D01*
X-185051Y43259D01*
X-184845Y43300D01*
X-178435Y43300D01*
X-178229Y43259D01*
X-178050Y43140D01*
X-177931Y42961D01*
X-177890Y42755D01*
X-177890Y39345D01*
X-177931Y39139D01*
X-178050Y38960D01*
X-178229Y38841D01*
G37*
G36*
X-178229Y45341D02*
X-178435Y45300D01*
X-184845Y45300D01*
X-185051Y45341D01*
X-185230Y45460D01*
X-185349Y45639D01*
X-185390Y45845D01*
X-185390Y49255D01*
X-185349Y49461D01*
X-185230Y49640D01*
X-185051Y49759D01*
X-184845Y49800D01*
X-178435Y49800D01*
X-178229Y49759D01*
X-178050Y49640D01*
X-177931Y49461D01*
X-177890Y49255D01*
X-177890Y45845D01*
X-177931Y45639D01*
X-178050Y45460D01*
X-178229Y45341D01*
G37*
G36*
X-178229Y51841D02*
X-178435Y51800D01*
X-184845Y51800D01*
X-185051Y51841D01*
X-185230Y51960D01*
X-185349Y52139D01*
X-185390Y52345D01*
X-185390Y55755D01*
X-185349Y55961D01*
X-185230Y56140D01*
X-185051Y56259D01*
X-184845Y56300D01*
X-178435Y56300D01*
X-178229Y56259D01*
X-178050Y56140D01*
X-177931Y55961D01*
X-177890Y55755D01*
X-177890Y52345D01*
X-177931Y52139D01*
X-178050Y51960D01*
X-178229Y51841D01*
G37*
G36*
X-178229Y58341D02*
X-178435Y58300D01*
X-184845Y58300D01*
X-185051Y58341D01*
X-185230Y58460D01*
X-185349Y58639D01*
X-185390Y58845D01*
X-185390Y62255D01*
X-185349Y62461D01*
X-185230Y62640D01*
X-185051Y62759D01*
X-184845Y62800D01*
X-178435Y62800D01*
X-178229Y62759D01*
X-178050Y62640D01*
X-177931Y62461D01*
X-177890Y62255D01*
X-177890Y58845D01*
X-177931Y58639D01*
X-178050Y58460D01*
X-178229Y58341D01*
G37*
G36*
X-150229Y38841D02*
X-150435Y38800D01*
X-156845Y38800D01*
X-157051Y38841D01*
X-157230Y38960D01*
X-157349Y39139D01*
X-157390Y39345D01*
X-157390Y42755D01*
X-157349Y42961D01*
X-157230Y43140D01*
X-157051Y43259D01*
X-156845Y43300D01*
X-150435Y43300D01*
X-150229Y43259D01*
X-150050Y43140D01*
X-149931Y42961D01*
X-149890Y42755D01*
X-149890Y39345D01*
X-149931Y39139D01*
X-150050Y38960D01*
X-150229Y38841D01*
G37*
G36*
X-150229Y45341D02*
X-150435Y45300D01*
X-156845Y45300D01*
X-157051Y45341D01*
X-157230Y45460D01*
X-157349Y45639D01*
X-157390Y45845D01*
X-157390Y49255D01*
X-157349Y49461D01*
X-157230Y49640D01*
X-157051Y49759D01*
X-156845Y49800D01*
X-150435Y49800D01*
X-150229Y49759D01*
X-150050Y49640D01*
X-149931Y49461D01*
X-149890Y49255D01*
X-149890Y45845D01*
X-149931Y45639D01*
X-150050Y45460D01*
X-150229Y45341D01*
G37*
G36*
X-150229Y51841D02*
X-150435Y51800D01*
X-156845Y51800D01*
X-157051Y51841D01*
X-157230Y51960D01*
X-157349Y52139D01*
X-157390Y52345D01*
X-157390Y55755D01*
X-157349Y55961D01*
X-157230Y56140D01*
X-157051Y56259D01*
X-156845Y56300D01*
X-150435Y56300D01*
X-150229Y56259D01*
X-150050Y56140D01*
X-149931Y55961D01*
X-149890Y55755D01*
X-149890Y52345D01*
X-149931Y52139D01*
X-150050Y51960D01*
X-150229Y51841D01*
G37*
G36*
X-150229Y58341D02*
X-150435Y58300D01*
X-156845Y58300D01*
X-157051Y58341D01*
X-157230Y58460D01*
X-157349Y58639D01*
X-157390Y58845D01*
X-157390Y62255D01*
X-157349Y62461D01*
X-157230Y62640D01*
X-157051Y62759D01*
X-156845Y62800D01*
X-150435Y62800D01*
X-150229Y62759D01*
X-150050Y62640D01*
X-149931Y62461D01*
X-149890Y62255D01*
X-149890Y58845D01*
X-149931Y58639D01*
X-150050Y58460D01*
X-150229Y58341D01*
G37*
G36*
X-72893Y168503D02*
X-76147Y168503D01*
X-76147Y173757D01*
X-72893Y173757D01*
X-72893Y168503D01*
G37*
G36*
X-66393Y168503D02*
X-69647Y168503D01*
X-69647Y173757D01*
X-66393Y173757D01*
X-66393Y168503D01*
G37*
G36*
X-59893Y168503D02*
X-63147Y168503D01*
X-63147Y173757D01*
X-59893Y173757D01*
X-59893Y168503D01*
G37*
G36*
X-53393Y168503D02*
X-56647Y168503D01*
X-56647Y173757D01*
X-53393Y173757D01*
X-53393Y168503D01*
G37*
G36*
X-49123Y233177D02*
X-49123Y229923D01*
X-54377Y229923D01*
X-54377Y233177D01*
X-49123Y233177D01*
G37*
G36*
X-49123Y239677D02*
X-49123Y236423D01*
X-54377Y236423D01*
X-54377Y239677D01*
X-49123Y239677D01*
G37*
G36*
X-49123Y246177D02*
X-49123Y242923D01*
X-54377Y242923D01*
X-54377Y246177D01*
X-49123Y246177D01*
G37*
G36*
X-49123Y252677D02*
X-49123Y249423D01*
X-54377Y249423D01*
X-54377Y252677D01*
X-49123Y252677D01*
G37*
G36*
X74523Y229923D02*
X74523Y233177D01*
X79777Y233177D01*
X79777Y229923D01*
X74523Y229923D01*
G37*
G36*
X74523Y236423D02*
X74523Y239677D01*
X79777Y239677D01*
X79777Y236423D01*
X74523Y236423D01*
G37*
G36*
X74523Y242923D02*
X74523Y246177D01*
X79777Y246177D01*
X79777Y242923D01*
X74523Y242923D01*
G37*
G36*
X74523Y249423D02*
X74523Y252677D01*
X79777Y252677D01*
X79777Y249423D01*
X74523Y249423D01*
G37*
G36*
X103277Y182377D02*
X103277Y179123D01*
X98023Y179123D01*
X98023Y182377D01*
X103277Y182377D01*
G37*
G36*
X103277Y188877D02*
X103277Y185623D01*
X98023Y185623D01*
X98023Y188877D01*
X103277Y188877D01*
G37*
G36*
X103277Y195377D02*
X103277Y192123D01*
X98023Y192123D01*
X98023Y195377D01*
X103277Y195377D01*
G37*
G36*
X103277Y201877D02*
X103277Y198623D01*
X98023Y198623D01*
X98023Y201877D01*
X103277Y201877D01*
G37*
G36*
X154437Y229949D02*
X151183Y229949D01*
X151183Y235203D01*
X154437Y235203D01*
X154437Y229949D01*
G37*
G36*
X160937Y229949D02*
X157683Y229949D01*
X157683Y235203D01*
X160937Y235203D01*
X160937Y229949D01*
G37*
G36*
X167437Y229949D02*
X164183Y229949D01*
X164183Y235203D01*
X167437Y235203D01*
X167437Y229949D01*
G37*
G36*
X173937Y229949D02*
X170683Y229949D01*
X170683Y235203D01*
X173937Y235203D01*
X173937Y229949D01*
G37*
G36*
X-149500Y-288000D02*
X-149500Y-248000D01*
X-68580Y-248000D01*
X-68580Y-288000D01*
X-149500Y-288000D01*
G37*
D10*
X-114269Y-94970D03*
X-114269Y-89970D03*
X-114269Y-84970D03*
X-114269Y-79970D03*
X-114269Y-74970D03*
X-114269Y-69970D03*
X-114269Y-64970D03*
X-114269Y-59970D03*
X-158957Y-59970D03*
X-158957Y-64970D03*
X-158957Y-69970D03*
X-158957Y-74970D03*
X-158957Y-79970D03*
X-158957Y-84970D03*
X-158957Y-89970D03*
X-158957Y-94970D03*
D11*
X-136613Y-77470D03*
D12*
X-300000Y100000D03*
X-300000Y80000D03*
X-300000Y60000D03*
X-300000Y40000D03*
D13*
X-359750Y128950D03*
X-359750Y11050D03*
D12*
X300000Y50000D03*
X300000Y70000D03*
X300000Y90000D03*
X300000Y110000D03*
D13*
X359750Y21050D03*
X359750Y138950D03*
D14*
X91850Y9886D03*
X98350Y9886D03*
X104850Y9886D03*
X111350Y9886D03*
X111350Y38374D03*
X104850Y38374D03*
X98350Y38374D03*
X91850Y38374D03*
D15*
X239750Y-13216D03*
X234750Y-13216D03*
X229750Y-13216D03*
X224750Y-13216D03*
X219750Y-13216D03*
X214750Y-13216D03*
X209750Y-13216D03*
X204750Y-13216D03*
X204750Y-57904D03*
X209750Y-57904D03*
X214750Y-57904D03*
X219750Y-57904D03*
X224750Y-57904D03*
X229750Y-57904D03*
X234750Y-57904D03*
X239750Y-57904D03*
D16*
X222250Y-35560D03*
D12*
X-300000Y-100000D03*
X-300000Y-120000D03*
X-300000Y-140000D03*
X-300000Y-160000D03*
D13*
X-359750Y-71050D03*
X-359750Y-188950D03*
D12*
X300000Y-180000D03*
X300000Y-160000D03*
X300000Y-140000D03*
X300000Y-120000D03*
D13*
X359750Y-208950D03*
X359750Y-91050D03*
D17*
X246654Y103280D03*
X246654Y109780D03*
X246654Y116280D03*
X246654Y122780D03*
X218166Y122780D03*
X218166Y116280D03*
X218166Y109780D03*
X218166Y103280D03*
D10*
X149344Y-275310D03*
X149344Y-270310D03*
X149344Y-265310D03*
X149344Y-260310D03*
X149344Y-255310D03*
X149344Y-250310D03*
X149344Y-245310D03*
X149344Y-240310D03*
X104656Y-240310D03*
X104656Y-245310D03*
X104656Y-250310D03*
X104656Y-255310D03*
X104656Y-260310D03*
X104656Y-265310D03*
X104656Y-270310D03*
X104656Y-275310D03*
D11*
X127000Y-257810D03*
D12*
X300000Y200000D03*
X300000Y220000D03*
X300000Y240000D03*
X300000Y260000D03*
D13*
X359750Y171050D03*
X359750Y288950D03*
D17*
X-221254Y-178210D03*
X-221254Y-184710D03*
X-221254Y-191210D03*
X-221254Y-197710D03*
X-192766Y-197710D03*
X-192766Y-191210D03*
X-192766Y-184710D03*
X-192766Y-178210D03*
D18*
X-254000Y130674D03*
X-254000Y113166D03*
X-232410Y113166D03*
X-232410Y130674D03*
X-114300Y184286D03*
X-114300Y201794D03*
D19*
X-7756Y177800D03*
X-25264Y177800D03*
X40776Y168910D03*
X58284Y168910D03*
X-83956Y-123190D03*
X-101464Y-123190D03*
X129676Y177800D03*
X147184Y177800D03*
X129676Y201930D03*
X147184Y201930D03*
D18*
X-157480Y204606D03*
X-157480Y222114D03*
D20*
X131070Y95236D03*
X131070Y79744D03*
D18*
X17780Y185284D03*
X17780Y167776D03*
D20*
X59690Y48386D03*
X59690Y32894D03*
X76200Y68706D03*
X76200Y53214D03*
X26670Y50926D03*
X26670Y35434D03*
D18*
X-135890Y204606D03*
X-135890Y222114D03*
D20*
X43180Y35686D03*
X43180Y20194D03*
D19*
X-166506Y-123190D03*
X-184014Y-123190D03*
D18*
X-46990Y-77606D03*
X-46990Y-95114D03*
X-71120Y-77606D03*
X-71120Y-95114D03*
D19*
X-194446Y-91440D03*
X-211954Y-91440D03*
D18*
X270510Y8754D03*
X270510Y-8754D03*
X267970Y-66110D03*
X267970Y-83618D03*
D19*
X224926Y26924D03*
X242434Y26924D03*
D18*
X-256540Y199526D03*
X-256540Y217034D03*
D19*
X224926Y52070D03*
X242434Y52070D03*
D18*
X236220Y-100466D03*
X236220Y-117974D03*
D19*
X185284Y-310817D03*
X167776Y-310817D03*
X95114Y-297180D03*
X77606Y-297180D03*
X200796Y-254000D03*
X218304Y-254000D03*
X200796Y-276860D03*
X218304Y-276860D03*
X200796Y-231140D03*
X218304Y-231140D03*
X58284Y-273050D03*
X40776Y-273050D03*
D21*
X91314Y-8890D03*
X106806Y-8890D03*
D18*
X-212090Y170044D03*
X-212090Y152536D03*
D20*
X-259080Y-161164D03*
X-259080Y-176656D03*
X132080Y12826D03*
X132080Y-2666D03*
D21*
X-239904Y-200660D03*
X-255396Y-200660D03*
X-233554Y-365760D03*
X-249046Y-365760D03*
D18*
X-92710Y184286D03*
X-92710Y201794D03*
X-190500Y170044D03*
X-190500Y152536D03*
X-179070Y204606D03*
X-179070Y222114D03*
D21*
X-161164Y118110D03*
X-176656Y118110D03*
X-144906Y118110D03*
X-129414Y118110D03*
X-183006Y24130D03*
X-167514Y24130D03*
X-202750Y74930D03*
X-218242Y74930D03*
D20*
X-190500Y90296D03*
X-190500Y74804D03*
D18*
X-129540Y57014D03*
X-129540Y39506D03*
D22*
X-317500Y337300D03*
X-317500Y362700D03*
X-292100Y337300D03*
X-292100Y362700D03*
X-266700Y337300D03*
X-266700Y362700D03*
X-241300Y337300D03*
X-241300Y362700D03*
X-215900Y337300D03*
X-215900Y362700D03*
X-190500Y337300D03*
X-190500Y362700D03*
X-165100Y337300D03*
X-165100Y362700D03*
X-139700Y337300D03*
X-139700Y362700D03*
X-114300Y337300D03*
X-114300Y362700D03*
X-88900Y337300D03*
X-88900Y362700D03*
X-63500Y337300D03*
X-63500Y362700D03*
X-38100Y337300D03*
X-38100Y362700D03*
X-12700Y337300D03*
X-12700Y362700D03*
X12700Y337300D03*
X12700Y362700D03*
X38100Y337300D03*
X38100Y362700D03*
X63500Y337300D03*
X63500Y362700D03*
X88900Y337300D03*
X88900Y362700D03*
X114300Y337300D03*
X114300Y362700D03*
X139700Y337300D03*
X139700Y362700D03*
X165100Y337300D03*
X165100Y362700D03*
X190500Y337300D03*
X190500Y362700D03*
X215900Y337300D03*
X215900Y362700D03*
X241300Y337300D03*
X241300Y362700D03*
X266700Y337300D03*
X266700Y362700D03*
X292100Y337300D03*
X292100Y362700D03*
X317500Y337300D03*
X317500Y362700D03*
X-317500Y388100D03*
X-317500Y413500D03*
X-292100Y388100D03*
X-292100Y413500D03*
X-266700Y388100D03*
X-266700Y413500D03*
X-241300Y388100D03*
X-241300Y413500D03*
X-215900Y388100D03*
X-215900Y413500D03*
X-190500Y388100D03*
X-190500Y413500D03*
X-165100Y388100D03*
X-165100Y413500D03*
X-139700Y388100D03*
X-139700Y413500D03*
X-114300Y388100D03*
X-114300Y413500D03*
X-88900Y388100D03*
X-88900Y413500D03*
X-63500Y388100D03*
X-63500Y413500D03*
X-38100Y388100D03*
X-38100Y413500D03*
X-12700Y388100D03*
X-12700Y413500D03*
X12700Y388100D03*
X12700Y413500D03*
X38100Y388100D03*
X38100Y413500D03*
X63500Y388100D03*
X63500Y413500D03*
X88900Y388100D03*
X88900Y413500D03*
X114300Y388100D03*
X114300Y413500D03*
X139700Y388100D03*
X139700Y413500D03*
X165100Y388100D03*
X165100Y413500D03*
X190500Y388100D03*
X190500Y413500D03*
X215900Y388100D03*
X215900Y413500D03*
X241300Y388100D03*
X241300Y413500D03*
X266700Y388100D03*
X266700Y413500D03*
X292100Y388100D03*
X292100Y413500D03*
X317500Y388100D03*
X317500Y413500D03*
D23*
X-105810Y-182880D03*
X-155810Y-182880D03*
D24*
X148730Y-364490D03*
X102730Y-364490D03*
D25*
X334010Y-11290D03*
X334010Y-57290D03*
D23*
X-12300Y241300D03*
X37700Y241300D03*
D26*
X-55020Y198380D03*
X-61520Y198380D03*
X-68020Y198380D03*
X-74520Y198380D03*
X-74520Y167380D03*
X-68020Y167380D03*
X-61520Y167380D03*
X-55020Y167380D03*
D27*
X73400Y200250D03*
X73400Y193750D03*
X73400Y187250D03*
X73400Y180750D03*
X104400Y180750D03*
X104400Y187250D03*
X104400Y193750D03*
X104400Y200250D03*
X-79000Y251050D03*
X-79000Y244550D03*
X-79000Y238050D03*
X-79000Y231550D03*
X-48000Y231550D03*
X-48000Y238050D03*
X-48000Y244550D03*
X-48000Y251050D03*
X104400Y231550D03*
X104400Y238050D03*
X104400Y244550D03*
X104400Y251050D03*
X73400Y251050D03*
X73400Y244550D03*
X73400Y238050D03*
X73400Y231550D03*
D26*
X172310Y259826D03*
X165810Y259826D03*
X159310Y259826D03*
X152810Y259826D03*
X152810Y228826D03*
X159310Y228826D03*
X165810Y228826D03*
X172310Y228826D03*
D28*
X109630Y111506D03*
X116130Y111506D03*
X122630Y111506D03*
X129130Y111506D03*
X129130Y142494D03*
X122630Y142494D03*
X116130Y142494D03*
X109630Y142494D03*
D29*
X119380Y130556D03*
D30*
X-312420Y158750D02*
X-312420Y173990D01*
X-337820Y173990D02*
X-337820Y158750D01*
D31*
X-254000Y170485D03*
X-254000Y152095D03*
D32*
X-31218Y120483D03*
X-47522Y120483D03*
X-50062Y104140D03*
X-33758Y104140D03*
X-43712Y86360D03*
X-27408Y86360D03*
D33*
X8890Y70588D03*
X8890Y86892D03*
X59690Y80542D03*
X59690Y64238D03*
X43180Y70382D03*
X43180Y54078D03*
X-161290Y147852D03*
X-161290Y131548D03*
D32*
X-112498Y-35560D03*
X-128802Y-35560D03*
X-128802Y-17780D03*
X-112498Y-17780D03*
D33*
X16510Y-175033D03*
X16510Y-158729D03*
D32*
X131342Y-110490D03*
X115038Y-110490D03*
X46458Y-157480D03*
X62762Y-157480D03*
X135152Y-129540D03*
X118848Y-129540D03*
D33*
X100330Y-126468D03*
X100330Y-142772D03*
D32*
X130831Y-94491D03*
X114527Y-94491D03*
X40108Y-44450D03*
X56412Y-44450D03*
X131342Y-77470D03*
X115038Y-77470D03*
D33*
X97790Y-79272D03*
X97790Y-62968D03*
D32*
X-9628Y-97790D03*
X-25932Y-97790D03*
D33*
X-10160Y-112498D03*
X-10160Y-128802D03*
D32*
X-9628Y-81280D03*
X-25932Y-81280D03*
D33*
X3810Y-64238D03*
X3810Y-80542D03*
D32*
X155472Y-203367D03*
X139168Y-203367D03*
X139168Y-220980D03*
X155472Y-220980D03*
D31*
X-233680Y170485D03*
X-233680Y152095D03*
D33*
X165100Y-6882D03*
X165100Y9422D03*
X182880Y-23392D03*
X182880Y-7088D03*
X-222250Y-74192D03*
X-222250Y-57888D03*
X-204470Y-57888D03*
X-204470Y-74192D03*
D32*
X61492Y-229870D03*
X45188Y-229870D03*
X47728Y-250190D03*
X64032Y-250190D03*
D33*
X214630Y-97258D03*
X214630Y-113562D03*
X198120Y-113562D03*
X198120Y-97258D03*
D34*
X109525Y-26670D03*
X91135Y-26670D03*
D33*
X-144780Y131548D03*
X-144780Y147852D03*
D31*
X-240030Y-176835D03*
X-240030Y-158445D03*
D32*
X-179808Y-340360D03*
X-196112Y-340360D03*
X153138Y280670D03*
X169442Y280670D03*
D33*
X153670Y316762D03*
X153670Y300458D03*
D32*
X112042Y95810D03*
X95738Y95810D03*
X112042Y79300D03*
X95738Y79300D03*
D34*
X-161595Y171450D03*
X-143205Y171450D03*
X-221285Y34290D03*
X-202895Y34290D03*
X-221285Y54610D03*
X-202895Y54610D03*
X-153365Y80010D03*
X-171755Y80010D03*
D31*
X151350Y79435D03*
X151350Y97825D03*
X-129540Y73355D03*
X-129540Y91745D03*
D35*
X82550Y-246380D03*
X82550Y-233680D03*
X82550Y-220980D03*
X-90170Y-39370D03*
X-90170Y-52070D03*
X-90170Y-64770D03*
D36*
X182880Y13970D03*
X195580Y13970D03*
X208280Y13970D03*
X210820Y-82550D03*
X198120Y-82550D03*
X185420Y-82550D03*
D35*
X-182880Y-74930D03*
X-182880Y-62230D03*
X-182880Y-49530D03*
X176530Y-214630D03*
X176530Y-227330D03*
X176530Y-240030D03*
D37*
X-6550Y141000D03*
X-6550Y137000D03*
X-6550Y133000D03*
X-6550Y129000D03*
X-6550Y125000D03*
X-6550Y121000D03*
X-6550Y117000D03*
X-6550Y113000D03*
D38*
X-1300Y107750D03*
X2700Y107750D03*
X6700Y107750D03*
X10700Y107750D03*
X14700Y107750D03*
X18700Y107750D03*
X22700Y107750D03*
X26700Y107750D03*
D37*
X31950Y113000D03*
X31950Y117000D03*
X31950Y121000D03*
X31950Y125000D03*
X31950Y129000D03*
X31950Y133000D03*
X31950Y137000D03*
X31950Y141000D03*
D38*
X26700Y146250D03*
X22700Y146250D03*
X18700Y146250D03*
X14700Y146250D03*
X10700Y146250D03*
X6700Y146250D03*
X2700Y146250D03*
X-1300Y146250D03*
D39*
X12700Y127000D03*
D40*
X6350Y133350D03*
X19050Y133350D03*
X6350Y120650D03*
X19050Y120650D03*
D41*
X-1120Y-158052D03*
X-14120Y-158052D03*
X-7620Y-182308D03*
D42*
X75938Y-140970D03*
X75938Y-128270D03*
X75938Y-115570D03*
X75938Y-102870D03*
X75938Y-90170D03*
X75938Y-77470D03*
X75938Y-64770D03*
X25662Y-64770D03*
X25662Y-77470D03*
X25662Y-90170D03*
X25662Y-102870D03*
X25662Y-115570D03*
X25662Y-128270D03*
X25662Y-140970D03*
D43*
X-226675Y-339700D03*
X-226675Y-330200D03*
X-226675Y-320700D03*
X-255925Y-320700D03*
X-255925Y-330200D03*
X-255925Y-339700D03*
D44*
X-36203Y-7460D03*
X-36203Y-2460D03*
X-36203Y2540D03*
X-36203Y7540D03*
X-36203Y12540D03*
X-78097Y12540D03*
X-78097Y7540D03*
X-78097Y2540D03*
X-78097Y-2460D03*
X-78097Y-7460D03*
D21*
X-272924Y-332740D03*
X-288416Y-332740D03*
D20*
X16510Y-189104D03*
X16510Y-204596D03*
D45*
X59690Y21590D03*
X-54610Y86360D03*
X31750Y96520D03*
X-2540Y54610D03*
X-19050Y-38100D03*
X-262890Y-365760D03*
X-213360Y-308610D03*
X-316230Y-341630D03*
X-256540Y-350520D03*
X165100Y203200D03*
X165100Y177800D03*
X167640Y297180D03*
X181610Y267970D03*
X-182880Y245110D03*
X-181610Y306070D03*
X-121920Y304800D03*
X-99060Y304800D03*
X132080Y226060D03*
X133350Y278130D03*
X88900Y304800D03*
X-10160Y304800D03*
X-212090Y138430D03*
X-190500Y138430D03*
X-190500Y118110D03*
X-254000Y99060D03*
X-232410Y95250D03*
X-12700Y25400D03*
X-142240Y-17780D03*
X-129540Y25400D03*
X-152400Y24130D03*
X-162560Y68580D03*
X-364490Y-327660D03*
X-265430Y-252730D03*
X-265430Y-284480D03*
X-176530Y-290830D03*
X-53340Y-281940D03*
X-161290Y-250190D03*
X-384810Y-281940D03*
X-369570Y-207010D03*
X-298450Y-200660D03*
X-369570Y-5080D03*
X-326390Y-57150D03*
X-302260Y-12700D03*
X-383540Y104140D03*
X-268680Y-200100D03*
X-226060Y-91440D03*
X-204470Y-46990D03*
X-228004Y-289560D03*
X-224790Y-416560D03*
X-237490Y-416560D03*
X-237490Y-429260D03*
X-224790Y-429260D03*
X-288290Y-403860D03*
X-300990Y-365760D03*
X382270Y-194310D03*
X382270Y-208280D03*
X383540Y-95250D03*
X289560Y-91440D03*
X289560Y-105410D03*
X303530Y154940D03*
X322580Y154940D03*
X344170Y154940D03*
X386080Y30480D03*
X387350Y43180D03*
X328930Y298450D03*
X386080Y280670D03*
X386080Y269240D03*
X388620Y138430D03*
X387350Y171450D03*
X260350Y118110D03*
X257810Y162560D03*
X292100Y135890D03*
X-52691Y74309D03*
X125730Y-220980D03*
X182880Y-34290D03*
X-167777Y-264116D03*
X34290Y-251460D03*
X-34290Y-157480D03*
X-34290Y-107950D03*
X232410Y-233680D03*
X232410Y-254000D03*
X232410Y-276860D03*
X236220Y-132080D03*
X198120Y-123190D03*
X-337820Y-200660D03*
X-316230Y-200660D03*
X-367030Y-53340D03*
X-351790Y-50800D03*
X-349250Y-7620D03*
X-383540Y128270D03*
X-384810Y86360D03*
X-331470Y-7620D03*
X149421Y-110353D03*
X257810Y52070D03*
X257810Y26670D03*
X16510Y-217170D03*
X-78740Y-16510D03*
X-21590Y-109220D03*
X198120Y77470D03*
X250190Y-35560D03*
X250190Y-21590D03*
X127000Y-283210D03*
X146050Y-284480D03*
X125730Y-231140D03*
X-135890Y-100330D03*
X-129540Y-107950D03*
X-114300Y-102870D03*
X-60960Y104140D03*
X5080Y-106680D03*
X-256540Y231140D03*
X-116840Y118110D03*
X-229870Y76200D03*
X86360Y134620D03*
X-144780Y307340D03*
X-269240Y309880D03*
X43180Y10862D03*
X125730Y-298450D03*
X-236220Y308610D03*
X2540Y187960D03*
X142240Y-3810D03*
X95250Y52070D03*
X-135890Y-57150D03*
X83820Y-257810D03*
X222250Y-73660D03*
X195580Y-35560D03*
X27940Y-273050D03*
X-205144Y-228600D03*
X-383540Y-252730D03*
X-265430Y-267970D03*
X-383540Y-266700D03*
X140970Y-93866D03*
X-359410Y-102870D03*
X-359410Y-156210D03*
X-359410Y45720D03*
X-358140Y92710D03*
X336550Y111760D03*
X335280Y49530D03*
X341630Y262890D03*
X340360Y200660D03*
X345440Y-119380D03*
X345440Y-175260D03*
X-195580Y-48260D03*
X-88900Y228600D03*
D46*
X3136Y166769D03*
X115570Y250190D03*
D45*
X39370Y182880D03*
D46*
X45720Y151130D03*
D47*
X73660Y167640D03*
D45*
X87630Y124460D03*
X147320Y118110D03*
X261620Y-251460D03*
X261620Y-264160D03*
X406400Y-262890D03*
X406400Y-250190D03*
X406400Y-275590D03*
X261620Y-275590D03*
X261620Y-287020D03*
X406400Y-285750D03*
X275590Y-251460D03*
X275590Y-264160D03*
X275590Y-275590D03*
X393700Y-250190D03*
X393700Y-262890D03*
X393700Y-275590D03*
X127000Y64770D03*
X142240Y64770D03*
X168910Y64770D03*
X173990Y76200D03*
X156210Y64770D03*
X-12700Y38100D03*
X127000Y52070D03*
X142240Y53340D03*
X156210Y53340D03*
X168910Y53340D03*
X3611Y176530D03*
X43180Y115570D03*
D47*
X-16510Y76200D03*
D45*
X-1270Y95250D03*
X25400Y76200D03*
X201220Y116280D03*
X-200660Y-210820D03*
X-185420Y-227330D03*
X103990Y58420D03*
X34290Y82550D03*
X208280Y130810D03*
X109220Y66040D03*
D46*
X-73506Y207164D03*
D47*
X-15240Y166381D03*
D45*
X88900Y165100D03*
X87630Y148590D03*
X111760Y163830D03*
X125730Y158750D03*
X114300Y210820D03*
X115570Y187960D03*
X101600Y151130D03*
X246380Y228600D03*
X264160Y228600D03*
X250190Y215900D03*
X261620Y217170D03*
X-16510Y110237D03*
X-55880Y125730D03*
X-13970Y100077D03*
X-393700Y233680D03*
X-393700Y201930D03*
X-393700Y218440D03*
X-378460Y218440D03*
X-378460Y201930D03*
X-224790Y17780D03*
X-236220Y30480D03*
X73660Y-271780D03*
X-194310Y-107950D03*
X-287020Y-435610D03*
X-419100Y114300D03*
X165100Y-435610D03*
X-59690Y-176530D03*
X58420Y-289560D03*
X254000Y-96520D03*
X-326390Y139700D03*
X-264160Y55880D03*
X46990Y-140970D03*
X-27940Y-261620D03*
X-233680Y-66040D03*
X-287020Y138430D03*
X-359410Y175260D03*
X-359410Y160020D03*
X215900Y-127000D03*
X-116840Y-439420D03*
X-106680Y-417830D03*
X-308610Y-420370D03*
X66040Y-177800D03*
X133350Y-160020D03*
X106680Y-195580D03*
X44450Y-193040D03*
X-149860Y-34290D03*
X-182880Y-33020D03*
X-201930Y-33020D03*
X-190500Y-19050D03*
X279400Y72390D03*
X270510Y64770D03*
X281940Y55880D03*
X270510Y46990D03*
X281940Y35560D03*
X-172720Y-19050D03*
X-266700Y-3810D03*
X-246380Y-17780D03*
X-223520Y-12700D03*
X-247650Y-2540D03*
X-240030Y-30480D03*
X123190Y-30480D03*
X110490Y-41910D03*
X120650Y-40640D03*
X283210Y-160020D03*
X283210Y-171450D03*
X283210Y-185420D03*
X-274320Y-182880D03*
X-276860Y-172720D03*
X-276860Y-160020D03*
X138430Y-189230D03*
X271780Y-185420D03*
X271780Y-172720D03*
X271780Y-160020D03*
X-276860Y-146050D03*
X-69854Y-53336D03*
X99060Y-102870D03*
X-273050Y-342900D03*
X-166370Y-341630D03*
X-241300Y-213360D03*
X-252730Y-213360D03*
X246380Y135890D03*
X203200Y105410D03*
X29210Y-181610D03*
D48*
X-10514Y-16898D03*
X-25400Y-16898D03*
D45*
X143510Y12700D03*
X-10160Y-143510D03*
X7664Y-147320D03*
X-46990Y-57150D03*
X-52070Y-35560D03*
X146050Y-60960D03*
X-64054Y7066D03*
X-71120Y24130D03*
X154940Y-60960D03*
X208280Y29210D03*
X275590Y121920D03*
X256540Y93980D03*
X-88900Y-76200D03*
X-22860Y-66040D03*
X73660Y-19050D03*
X74930Y-33020D03*
X83820Y-41910D03*
X-59690Y-63500D03*
X-255270Y-148590D03*
X-240030Y-144780D03*
X-224790Y-146050D03*
X-222250Y-158750D03*
X171450Y-256540D03*
X184150Y-280670D03*
X184150Y-265430D03*
X-99060Y-93980D03*
X-81280Y-107950D03*
X240030Y1270D03*
X270510Y20320D03*
X163830Y-273050D03*
X194310Y-297351D03*
M02*
