G04 EAGLE Gerber RS-274X export*
G75*
%MOMM*%
%FSLAX34Y34*%
%LPD*%
%INSolderpaste Bottom*%
%IPPOS*%
%AMOC8*
5,1,8,0,0,1.08239X$1,22.5*%
G01*
G04 Define Apertures*
%ADD10R,1.465300X1.164600*%
%ADD11R,1.164600X1.465300*%
%ADD12R,0.920900X0.970200*%
%ADD13R,0.970200X0.920900*%
%ADD14R,0.798700X0.973900*%
%ADD15R,1.420200X1.031200*%
D10*
X-162560Y289696D03*
X-162560Y307204D03*
X-209550Y290966D03*
X-209550Y308474D03*
X-252730Y290966D03*
X-252730Y308474D03*
X-285750Y290966D03*
X-285750Y308474D03*
D11*
X-28076Y104140D03*
X-45584Y104140D03*
D12*
X-27814Y72659D03*
X-43306Y72659D03*
D13*
X-3281Y85216D03*
X-3281Y69724D03*
D10*
X-85090Y-48124D03*
X-85090Y-30616D03*
X208280Y39506D03*
X208280Y57014D03*
D13*
X274320Y93854D03*
X274320Y109346D03*
X-6350Y-27814D03*
X-6350Y-43306D03*
D10*
X-36830Y-27444D03*
X-36830Y-44952D03*
D13*
X246380Y147194D03*
X246380Y162686D03*
D12*
X260224Y135890D03*
X275716Y135890D03*
D14*
X60758Y130600D03*
X77062Y130600D03*
D15*
X-31750Y157785D03*
X-31750Y139395D03*
X293370Y110795D03*
X293370Y92405D03*
D14*
X77462Y109410D03*
X61158Y109410D03*
D13*
X137160Y-102744D03*
X137160Y-118236D03*
D10*
X118110Y-103006D03*
X118110Y-120514D03*
M02*
