%TF.GenerationSoftware,KiCad,Pcbnew,7.0.2*%
%TF.CreationDate,2024-06-22T20:38:36+05:30*%
%TF.ProjectId,EPS_SolarInput,4550535f-536f-46c6-9172-496e7075742e,v01*%
%TF.SameCoordinates,Original*%
%TF.FileFunction,Copper,L1,Top*%
%TF.FilePolarity,Positive*%
%FSLAX46Y46*%
G04 Gerber Fmt 4.6, Leading zero omitted, Abs format (unit mm)*
G04 Created by KiCad (PCBNEW 7.0.2) date 2024-06-22 20:38:36*
%MOMM*%
%LPD*%
G01*
G04 APERTURE LIST*
G04 Aperture macros list*
%AMRoundRect*
0 Rectangle with rounded corners*
0 $1 Rounding radius*
0 $2 $3 $4 $5 $6 $7 $8 $9 X,Y pos of 4 corners*
0 Add a 4 corners polygon primitive as box body*
4,1,4,$2,$3,$4,$5,$6,$7,$8,$9,$2,$3,0*
0 Add four circle primitives for the rounded corners*
1,1,$1+$1,$2,$3*
1,1,$1+$1,$4,$5*
1,1,$1+$1,$6,$7*
1,1,$1+$1,$8,$9*
0 Add four rect primitives between the rounded corners*
20,1,$1+$1,$2,$3,$4,$5,0*
20,1,$1+$1,$4,$5,$6,$7,0*
20,1,$1+$1,$6,$7,$8,$9,0*
20,1,$1+$1,$8,$9,$2,$3,0*%
G04 Aperture macros list end*
%TA.AperFunction,ComponentPad*%
%ADD10R,1.700000X1.700000*%
%TD*%
%TA.AperFunction,ComponentPad*%
%ADD11O,1.700000X1.700000*%
%TD*%
%TA.AperFunction,SMDPad,CuDef*%
%ADD12C,1.000000*%
%TD*%
%TA.AperFunction,SMDPad,CuDef*%
%ADD13RoundRect,0.250000X0.325000X0.650000X-0.325000X0.650000X-0.325000X-0.650000X0.325000X-0.650000X0*%
%TD*%
%TA.AperFunction,SMDPad,CuDef*%
%ADD14RoundRect,0.250000X-0.312500X-0.625000X0.312500X-0.625000X0.312500X0.625000X-0.312500X0.625000X0*%
%TD*%
%TA.AperFunction,SMDPad,CuDef*%
%ADD15RoundRect,0.250000X0.625000X-0.312500X0.625000X0.312500X-0.625000X0.312500X-0.625000X-0.312500X0*%
%TD*%
%TA.AperFunction,SMDPad,CuDef*%
%ADD16RoundRect,0.250000X-0.625000X0.312500X-0.625000X-0.312500X0.625000X-0.312500X0.625000X0.312500X0*%
%TD*%
%TA.AperFunction,ComponentPad*%
%ADD17C,2.100000*%
%TD*%
%TA.AperFunction,ComponentPad*%
%ADD18R,2.100000X2.100000*%
%TD*%
%TA.AperFunction,SMDPad,CuDef*%
%ADD19R,1.450000X1.100000*%
%TD*%
%TA.AperFunction,SMDPad,CuDef*%
%ADD20R,2.899999X1.350000*%
%TD*%
%TA.AperFunction,SMDPad,CuDef*%
%ADD21R,0.431800X1.003300*%
%TD*%
%TA.AperFunction,SMDPad,CuDef*%
%ADD22RoundRect,0.243750X0.243750X0.456250X-0.243750X0.456250X-0.243750X-0.456250X0.243750X-0.456250X0*%
%TD*%
%TA.AperFunction,Conductor*%
%ADD23C,0.250000*%
%TD*%
%TA.AperFunction,Conductor*%
%ADD24C,1.000000*%
%TD*%
G04 APERTURE END LIST*
D10*
%TO.P,J4,1,Pin_1*%
%TO.N,Net-(J4-Pin_1)*%
X145288000Y-108966000D03*
D11*
%TO.P,J4,2,Pin_2*%
%TO.N,Net-(J4-Pin_2)*%
X147828000Y-108966000D03*
%TD*%
D12*
%TO.P,GND,1,1*%
%TO.N,GND*%
X156210000Y-118872000D03*
%TD*%
%TO.P,VOUT,1,1*%
%TO.N,Net-(J2-Pin_1)*%
X153924000Y-118872000D03*
%TD*%
%TO.P,TP10,1,1*%
%TO.N,+3.3V*%
X157480000Y-103886000D03*
%TD*%
%TO.P,TP9,1,1*%
%TO.N,GND*%
X157480000Y-106172000D03*
%TD*%
%TO.P,TP8,1,1*%
%TO.N,/ALERT*%
X158242000Y-94234000D03*
%TD*%
%TO.P,TP7,1,1*%
%TO.N,/I2C_SDA*%
X158242000Y-97282000D03*
%TD*%
%TO.P,TP6,1,1*%
%TO.N,/I2C_SCL*%
X158242000Y-100330000D03*
%TD*%
%TO.P,TP5,1,1*%
%TO.N,Net-(J4-Pin_2)*%
X141224000Y-102616000D03*
%TD*%
%TO.P,TP4,1,1*%
%TO.N,Net-(J4-Pin_1)*%
X137922000Y-102616000D03*
%TD*%
%TO.P,TP3,1,1*%
%TO.N,+3.3V*%
X150622000Y-105664000D03*
%TD*%
%TO.P,TP2,1,1*%
%TO.N,GND*%
X136398000Y-89916000D03*
%TD*%
%TO.P,TP1,1,1*%
%TO.N,/VSOL*%
X134112000Y-89916000D03*
%TD*%
D13*
%TO.P,C2,1*%
%TO.N,Net-(J4-Pin_2)*%
X141175000Y-99060000D03*
%TO.P,C2,2*%
%TO.N,Net-(J4-Pin_1)*%
X138225000Y-99060000D03*
%TD*%
D14*
%TO.P,R4,2*%
%TO.N,Net-(D1-K)*%
X151068500Y-99060000D03*
%TO.P,R4,1*%
%TO.N,GND*%
X148143500Y-99060000D03*
%TD*%
D15*
%TO.P,R2,2*%
%TO.N,Net-(J4-Pin_2)*%
X140716000Y-105918000D03*
%TO.P,R2,1*%
%TO.N,Net-(J2-Pin_1)*%
X140716000Y-108843000D03*
%TD*%
D11*
%TO.P,J5,5,Pin_5*%
%TO.N,/I2C_SCL*%
X154432000Y-98557000D03*
%TO.P,J5,4,Pin_4*%
%TO.N,/I2C_SDA*%
X154432000Y-96017000D03*
%TO.P,J5,3,Pin_3*%
%TO.N,/ALERT*%
X154432000Y-93477000D03*
%TO.P,J5,2,Pin_2*%
%TO.N,GND*%
X154432000Y-90937000D03*
D10*
%TO.P,J5,1,Pin_1*%
%TO.N,+3.3V*%
X154432000Y-88397000D03*
%TD*%
D16*
%TO.P,R7,1*%
%TO.N,+3.3V*%
X139700000Y-88199500D03*
%TO.P,R7,2*%
%TO.N,/ALERT*%
X139700000Y-91124500D03*
%TD*%
D11*
%TO.P,J3,2,Pin_2*%
%TO.N,GND*%
X154432000Y-105659000D03*
D10*
%TO.P,J3,1,Pin_1*%
%TO.N,+3.3V*%
X154432000Y-103119000D03*
%TD*%
D16*
%TO.P,R6,2*%
%TO.N,/I2C_SDA*%
X142240000Y-91124500D03*
%TO.P,R6,1*%
%TO.N,+3.3V*%
X142240000Y-88199500D03*
%TD*%
D17*
%TO.P,J2,2,Pin_2*%
%TO.N,GND*%
X156718000Y-114808000D03*
D18*
%TO.P,J2,1,Pin_1*%
%TO.N,Net-(J2-Pin_1)*%
X156718000Y-112268000D03*
%TD*%
%TO.P,J6,1,Pin_1*%
%TO.N,/VSOL*%
X125984000Y-110485000D03*
D17*
%TO.P,J6,2,Pin_2*%
X125984000Y-113025000D03*
%TO.P,J6,3,Pin_3*%
%TO.N,GND*%
X125984000Y-115565000D03*
%TO.P,J6,4,Pin_4*%
X125984000Y-118105000D03*
%TD*%
D19*
%TO.P,J1,1,1*%
%TO.N,/VSOL*%
X130550000Y-97590350D03*
%TO.P,J1,2,2*%
X130550000Y-99590351D03*
%TO.P,J1,3,3*%
%TO.N,GND*%
X130550000Y-101590350D03*
%TO.P,J1,4,4*%
X130550000Y-103590351D03*
D20*
%TO.P,J1,5,5*%
X124575001Y-94695352D03*
%TO.P,J1,6,6*%
X124575001Y-106485349D03*
%TD*%
D21*
%TO.P,INA232,1,IN+*%
%TO.N,Net-(J4-Pin_1)*%
X141265021Y-96323150D03*
%TO.P,INA232,2,IN-*%
%TO.N,Net-(J4-Pin_2)*%
X141915007Y-96323150D03*
%TO.P,INA232,3,GND*%
%TO.N,GND*%
X142564993Y-96323150D03*
%TO.P,INA232,4,VS*%
%TO.N,+3.3V*%
X143214979Y-96323150D03*
%TO.P,INA232,5,SCL*%
%TO.N,/I2C_SCL*%
X143214979Y-93668850D03*
%TO.P,INA232,6,SDA*%
%TO.N,/I2C_SDA*%
X142564993Y-93668850D03*
%TO.P,INA232,7,A0*%
%TO.N,GND*%
X141915007Y-93668850D03*
%TO.P,INA232,8,ALERT*%
%TO.N,/ALERT*%
X141265021Y-93668850D03*
%TD*%
D14*
%TO.P,R3,1*%
%TO.N,/VSOL*%
X137983500Y-111952500D03*
%TO.P,R3,2*%
%TO.N,Net-(J2-Pin_1)*%
X140908500Y-111952500D03*
%TD*%
D16*
%TO.P,R5,1*%
%TO.N,+3.3V*%
X144780000Y-88199500D03*
%TO.P,R5,2*%
%TO.N,/I2C_SCL*%
X144780000Y-91124500D03*
%TD*%
D13*
%TO.P,C1,2*%
%TO.N,+3.3V*%
X143305000Y-99060000D03*
%TO.P,C1,1*%
%TO.N,GND*%
X146255000Y-99060000D03*
%TD*%
D15*
%TO.P,R1,1*%
%TO.N,/VSOL*%
X138176000Y-108843000D03*
%TO.P,R1,2*%
%TO.N,Net-(J4-Pin_1)*%
X138176000Y-105918000D03*
%TD*%
D22*
%TO.P,D1,2,A*%
%TO.N,+3.3V*%
X146636500Y-101854000D03*
%TO.P,D1,1,K*%
%TO.N,Net-(D1-K)*%
X148511500Y-101854000D03*
%TD*%
D23*
%TO.N,+3.3V*%
X160274000Y-89392000D02*
G75*
G03*
X159274000Y-88392000I-1000000J0D01*
G01*
X160274000Y-101092000D02*
X157480000Y-103886000D01*
X155537000Y-88392000D02*
X159274000Y-88392000D01*
X155532000Y-88397000D02*
X155537000Y-88392000D01*
X160274000Y-89392000D02*
X160274000Y-101092000D01*
X154432000Y-88397000D02*
X155532000Y-88397000D01*
X139897500Y-88397000D02*
X139700000Y-88199500D01*
X154432000Y-88397000D02*
X139897500Y-88397000D01*
%TO.N,/ALERT*%
X153167000Y-93477000D02*
X154432000Y-93477000D01*
X149098000Y-89408000D02*
X153167000Y-93477000D01*
X139954000Y-89408000D02*
X149098000Y-89408000D01*
X139700000Y-89662000D02*
X139954000Y-89408000D01*
X139700000Y-91124500D02*
X139700000Y-89662000D01*
%TO.N,/I2C_SDA*%
X148223000Y-89808000D02*
X154432000Y-96017000D01*
X143556500Y-89808000D02*
X148223000Y-89808000D01*
%TO.N,GND*%
X142564993Y-95705586D02*
X142564993Y-96323150D01*
X141915007Y-93668850D02*
X141915007Y-95055600D01*
X141915007Y-95055600D02*
X142564993Y-95705586D01*
%TO.N,Net-(J4-Pin_2)*%
X140716000Y-105918000D02*
X144780000Y-105918000D01*
X144780000Y-105918000D02*
X147828000Y-108966000D01*
%TO.N,Net-(J4-Pin_1)*%
X144018000Y-108966000D02*
X145288000Y-108966000D01*
X142494000Y-107442000D02*
X144018000Y-108966000D01*
X139700000Y-107442000D02*
X142494000Y-107442000D01*
X138176000Y-105918000D02*
X139700000Y-107442000D01*
%TO.N,+3.3V*%
X156713000Y-103119000D02*
X157480000Y-103886000D01*
X154432000Y-103119000D02*
X156713000Y-103119000D01*
X150622000Y-103119000D02*
X154432000Y-103119000D01*
X148844000Y-103119000D02*
X150622000Y-103119000D01*
X150622000Y-105664000D02*
X150622000Y-103119000D01*
%TO.N,Net-(J2-Pin_1)*%
X153924000Y-118872000D02*
X153924000Y-112268000D01*
D24*
X153924000Y-112268000D02*
X156718000Y-112268000D01*
X151130000Y-112268000D02*
X153924000Y-112268000D01*
D23*
%TO.N,/VSOL*%
X134112000Y-89916000D02*
X134112000Y-97390700D01*
X134112000Y-97390700D02*
X133912350Y-97590350D01*
D24*
%TO.N,Net-(J2-Pin_1)*%
X141224000Y-112268000D02*
X151130000Y-112268000D01*
D23*
%TO.N,+3.3V*%
X147901500Y-103119000D02*
X148844000Y-103119000D01*
X146636500Y-101854000D02*
X147901500Y-103119000D01*
%TO.N,Net-(D1-K)*%
X151130000Y-101346000D02*
X151130000Y-99121500D01*
X150622000Y-101854000D02*
X151130000Y-101346000D01*
X148511500Y-101854000D02*
X150622000Y-101854000D01*
X151130000Y-99121500D02*
X151068500Y-99060000D01*
%TO.N,+3.3V*%
X145542000Y-101854000D02*
X146636500Y-101854000D01*
X143305000Y-99617000D02*
X145542000Y-101854000D01*
%TO.N,/I2C_SCL*%
X156205000Y-100330000D02*
X158242000Y-100330000D01*
X154432000Y-98557000D02*
X156205000Y-100330000D01*
%TO.N,/I2C_SDA*%
X155697000Y-97282000D02*
X158242000Y-97282000D01*
X154432000Y-96017000D02*
X155697000Y-97282000D01*
%TO.N,/ALERT*%
X157485000Y-93477000D02*
X158242000Y-94234000D01*
X154432000Y-93477000D02*
X157485000Y-93477000D01*
%TO.N,/I2C_SCL*%
X146999500Y-91124500D02*
X154432000Y-98557000D01*
X144780000Y-91124500D02*
X146999500Y-91124500D01*
%TO.N,+3.3V*%
X143305000Y-99060000D02*
X143305000Y-99617000D01*
X143214979Y-98969979D02*
X143214979Y-96323150D01*
X143305000Y-99060000D02*
X143214979Y-98969979D01*
%TO.N,Net-(J4-Pin_2)*%
X141915007Y-98319993D02*
X141915007Y-96323150D01*
X141175000Y-99060000D02*
X141915007Y-98319993D01*
%TO.N,Net-(J4-Pin_1)*%
X138225000Y-99060000D02*
X138528171Y-99060000D01*
X138528171Y-99060000D02*
X141265021Y-96323150D01*
%TO.N,Net-(J4-Pin_2)*%
X141224000Y-99109000D02*
X141175000Y-99060000D01*
X141224000Y-102616000D02*
X141224000Y-99109000D01*
%TO.N,Net-(J4-Pin_1)*%
X137922000Y-102616000D02*
X137922000Y-99363000D01*
X137922000Y-99363000D02*
X138225000Y-99060000D01*
%TO.N,Net-(J4-Pin_2)*%
X141224000Y-105410000D02*
X141224000Y-102616000D01*
X140716000Y-105918000D02*
X141224000Y-105410000D01*
%TO.N,Net-(J4-Pin_1)*%
X138176000Y-105918000D02*
X137922000Y-105664000D01*
X137922000Y-105664000D02*
X137922000Y-102616000D01*
%TO.N,Net-(J2-Pin_1)*%
X140847000Y-112014000D02*
X140908500Y-111952500D01*
X139954000Y-112014000D02*
X140847000Y-112014000D01*
X139700000Y-110998000D02*
X139700000Y-111760000D01*
X139700000Y-111760000D02*
X139954000Y-112014000D01*
X140716000Y-109982000D02*
X139700000Y-110998000D01*
X140716000Y-108843000D02*
X140716000Y-109982000D01*
%TO.N,/VSOL*%
X139192000Y-111760000D02*
X138999500Y-111952500D01*
X138176000Y-109982000D02*
X139192000Y-110998000D01*
X139192000Y-110998000D02*
X139192000Y-111760000D01*
X138176000Y-108843000D02*
X138176000Y-109982000D01*
X138999500Y-111952500D02*
X137983500Y-111952500D01*
D24*
%TO.N,Net-(J2-Pin_1)*%
X140908500Y-111952500D02*
X141224000Y-112268000D01*
%TO.N,/VSOL*%
X130550000Y-99590351D02*
X134343649Y-99590351D01*
X134620000Y-99314000D02*
X134620000Y-108589000D01*
X134620000Y-98298000D02*
X134620000Y-99314000D01*
X134343649Y-99590351D02*
X134620000Y-99314000D01*
X132847000Y-113025000D02*
X133604000Y-112268000D01*
X125984000Y-113025000D02*
X132847000Y-113025000D01*
X137668000Y-112268000D02*
X137983500Y-111952500D01*
X133604000Y-112268000D02*
X137668000Y-112268000D01*
X131821000Y-110485000D02*
X133604000Y-112268000D01*
X125984000Y-110485000D02*
X131821000Y-110485000D01*
X134620000Y-108589000D02*
X137983500Y-111952500D01*
X133912350Y-97590350D02*
X134620000Y-98298000D01*
X130550000Y-97590350D02*
X133912350Y-97590350D01*
D23*
%TO.N,/I2C_SCL*%
X143214979Y-92689521D02*
X144780000Y-91124500D01*
X143214979Y-93668850D02*
X143214979Y-92689521D01*
%TO.N,/I2C_SDA*%
X142240000Y-91124500D02*
X143556500Y-89808000D01*
X142564993Y-91449493D02*
X142240000Y-91124500D01*
X142564993Y-93668850D02*
X142564993Y-91449493D01*
%TO.N,/ALERT*%
X139700000Y-92964000D02*
X139700000Y-91124500D01*
X140404850Y-93668850D02*
X139700000Y-92964000D01*
X141265021Y-93668850D02*
X140404850Y-93668850D01*
%TD*%
%TA.AperFunction,Conductor*%
%TO.N,GND*%
G36*
X153024540Y-89042185D02*
G01*
X153070295Y-89094989D01*
X153081501Y-89146500D01*
X153081501Y-89294872D01*
X153081853Y-89298152D01*
X153081854Y-89298159D01*
X153087909Y-89354484D01*
X153110545Y-89415173D01*
X153138204Y-89489331D01*
X153224454Y-89604546D01*
X153339669Y-89690796D01*
X153471598Y-89740002D01*
X153527532Y-89781873D01*
X153551949Y-89847337D01*
X153537097Y-89915610D01*
X153515947Y-89943865D01*
X153393888Y-90065924D01*
X153258400Y-90259421D01*
X153158569Y-90473507D01*
X153101364Y-90686999D01*
X153101364Y-90687000D01*
X153998314Y-90687000D01*
X153972507Y-90727156D01*
X153932000Y-90865111D01*
X153932000Y-91008889D01*
X153972507Y-91146844D01*
X153998314Y-91187000D01*
X153101364Y-91187000D01*
X153158569Y-91400492D01*
X153258399Y-91614576D01*
X153393893Y-91808081D01*
X153560918Y-91975106D01*
X153746595Y-92105119D01*
X153790219Y-92159696D01*
X153797412Y-92229195D01*
X153765890Y-92291549D01*
X153746595Y-92308269D01*
X153560595Y-92438508D01*
X153393502Y-92605601D01*
X153390411Y-92610016D01*
X153335833Y-92653639D01*
X153266334Y-92660828D01*
X153203981Y-92629303D01*
X153201159Y-92626569D01*
X149808772Y-89234181D01*
X149775287Y-89172858D01*
X149780271Y-89103166D01*
X149822143Y-89047233D01*
X149887607Y-89022816D01*
X149896453Y-89022500D01*
X152957501Y-89022500D01*
X153024540Y-89042185D01*
G37*
%TD.AperFunction*%
%TA.AperFunction,Conductor*%
G36*
X160810417Y-85090815D02*
G01*
X160875669Y-85095482D01*
X160963329Y-85102382D01*
X161018443Y-85106720D01*
X161035066Y-85109170D01*
X161124499Y-85128625D01*
X161126968Y-85129189D01*
X161238564Y-85155981D01*
X161252923Y-85160365D01*
X161343718Y-85194230D01*
X161347774Y-85195826D01*
X161448785Y-85237666D01*
X161460750Y-85243390D01*
X161547596Y-85290811D01*
X161552884Y-85293873D01*
X161644444Y-85349981D01*
X161653954Y-85356435D01*
X161733841Y-85416238D01*
X161740042Y-85421198D01*
X161821087Y-85490417D01*
X161828236Y-85497026D01*
X161898972Y-85567762D01*
X161905581Y-85574911D01*
X161974792Y-85655946D01*
X161979769Y-85662168D01*
X162039563Y-85742044D01*
X162046023Y-85751563D01*
X162102111Y-85843090D01*
X162105208Y-85848439D01*
X162152604Y-85935240D01*
X162158332Y-85947213D01*
X162200160Y-86048194D01*
X162201781Y-86052313D01*
X162235629Y-86143062D01*
X162240021Y-86157449D01*
X162266793Y-86268962D01*
X162267385Y-86271551D01*
X162286829Y-86360935D01*
X162289281Y-86377564D01*
X162300521Y-86520387D01*
X162305184Y-86585585D01*
X162305500Y-86594426D01*
X162305500Y-120415570D01*
X162305184Y-120424416D01*
X162300521Y-120489610D01*
X162289281Y-120632435D01*
X162286829Y-120649060D01*
X162267387Y-120738436D01*
X162266795Y-120741026D01*
X162240021Y-120852549D01*
X162235629Y-120866936D01*
X162201781Y-120957685D01*
X162200160Y-120961804D01*
X162158332Y-121062785D01*
X162152604Y-121074758D01*
X162105208Y-121161559D01*
X162102102Y-121166924D01*
X162046023Y-121258435D01*
X162039563Y-121267954D01*
X161979769Y-121347830D01*
X161974792Y-121354052D01*
X161905581Y-121435087D01*
X161898972Y-121442236D01*
X161828236Y-121512972D01*
X161821087Y-121519581D01*
X161740052Y-121588792D01*
X161733830Y-121593769D01*
X161653954Y-121653563D01*
X161644435Y-121660023D01*
X161552924Y-121716102D01*
X161547559Y-121719208D01*
X161460758Y-121766604D01*
X161448785Y-121772332D01*
X161347804Y-121814160D01*
X161343685Y-121815781D01*
X161252936Y-121849629D01*
X161238549Y-121854021D01*
X161127026Y-121880795D01*
X161124437Y-121881387D01*
X161035062Y-121900829D01*
X161018433Y-121903281D01*
X160875612Y-121914521D01*
X160810415Y-121919184D01*
X160801574Y-121919500D01*
X123170429Y-121919500D01*
X123161583Y-121919184D01*
X123096389Y-121914521D01*
X123003581Y-121907217D01*
X122953560Y-121903280D01*
X122936936Y-121900829D01*
X122847561Y-121881387D01*
X122844972Y-121880795D01*
X122733449Y-121854021D01*
X122719062Y-121849629D01*
X122628313Y-121815781D01*
X122624194Y-121814160D01*
X122523213Y-121772332D01*
X122511240Y-121766604D01*
X122463105Y-121740321D01*
X122424428Y-121719202D01*
X122419090Y-121716111D01*
X122327563Y-121660023D01*
X122318044Y-121653563D01*
X122238168Y-121593769D01*
X122231946Y-121588792D01*
X122150911Y-121519581D01*
X122143762Y-121512972D01*
X122073026Y-121442236D01*
X122066417Y-121435087D01*
X121997198Y-121354042D01*
X121992238Y-121347841D01*
X121932435Y-121267954D01*
X121925981Y-121258444D01*
X121869873Y-121166884D01*
X121866811Y-121161596D01*
X121819390Y-121074750D01*
X121813666Y-121062785D01*
X121771826Y-120961774D01*
X121770230Y-120957718D01*
X121736365Y-120866923D01*
X121731981Y-120852564D01*
X121705189Y-120740968D01*
X121704625Y-120738499D01*
X121685170Y-120649064D01*
X121682719Y-120632441D01*
X121682719Y-120632435D01*
X121671482Y-120489669D01*
X121666814Y-120424390D01*
X121666499Y-120415603D01*
X121666499Y-113024999D01*
X124428706Y-113024999D01*
X124447854Y-113268303D01*
X124504828Y-113505615D01*
X124598221Y-113731088D01*
X124688883Y-113879033D01*
X124725741Y-113939179D01*
X124884241Y-114124759D01*
X125027261Y-114246909D01*
X125041926Y-114269374D01*
X125812430Y-115039879D01*
X125695542Y-115090651D01*
X125578261Y-115186066D01*
X125491072Y-115309585D01*
X125460645Y-115395197D01*
X124722504Y-114657056D01*
X124598669Y-114859137D01*
X124505303Y-115084542D01*
X124448349Y-115321775D01*
X124429207Y-115564999D01*
X124448349Y-115808224D01*
X124505303Y-116045457D01*
X124598669Y-116270862D01*
X124722504Y-116472942D01*
X125458070Y-115737375D01*
X125460884Y-115750915D01*
X125530442Y-115885156D01*
X125633638Y-115995652D01*
X125762819Y-116074209D01*
X125814002Y-116088549D01*
X125075338Y-116827213D01*
X125075338Y-116842785D01*
X125812431Y-117579878D01*
X125695542Y-117630651D01*
X125578261Y-117726066D01*
X125491072Y-117849585D01*
X125460645Y-117935197D01*
X124722504Y-117197056D01*
X124598669Y-117399137D01*
X124505303Y-117624542D01*
X124448349Y-117861775D01*
X124429207Y-118105000D01*
X124448349Y-118348224D01*
X124505303Y-118585457D01*
X124598669Y-118810862D01*
X124722504Y-119012942D01*
X125458070Y-118277375D01*
X125460884Y-118290915D01*
X125530442Y-118425156D01*
X125633638Y-118535652D01*
X125762819Y-118614209D01*
X125814002Y-118628549D01*
X125076056Y-119366494D01*
X125278137Y-119490329D01*
X125503542Y-119583696D01*
X125740775Y-119640650D01*
X125983999Y-119659792D01*
X126227224Y-119640650D01*
X126464457Y-119583696D01*
X126689862Y-119490329D01*
X126891942Y-119366494D01*
X126155568Y-118630121D01*
X126272458Y-118579349D01*
X126389739Y-118483934D01*
X126476928Y-118360415D01*
X126507355Y-118274801D01*
X127245494Y-119012942D01*
X127369329Y-118810862D01*
X127462696Y-118585457D01*
X127519650Y-118348224D01*
X127538792Y-118105000D01*
X127519650Y-117861775D01*
X127462696Y-117624542D01*
X127369329Y-117399137D01*
X127245494Y-117197056D01*
X126509929Y-117932621D01*
X126507116Y-117919085D01*
X126437558Y-117784844D01*
X126334362Y-117674348D01*
X126205181Y-117595791D01*
X126153997Y-117581450D01*
X126892660Y-116842786D01*
X126892660Y-116827212D01*
X126155568Y-116090121D01*
X126272458Y-116039349D01*
X126389739Y-115943934D01*
X126476928Y-115820415D01*
X126507354Y-115734802D01*
X127245494Y-116472942D01*
X127369329Y-116270862D01*
X127462696Y-116045457D01*
X127519650Y-115808224D01*
X127538792Y-115564999D01*
X127519650Y-115321775D01*
X127462696Y-115084542D01*
X127369329Y-114859137D01*
X127245494Y-114657056D01*
X126509929Y-115392622D01*
X126507116Y-115379085D01*
X126437558Y-115244844D01*
X126334362Y-115134348D01*
X126205181Y-115055791D01*
X126153996Y-115041449D01*
X126914035Y-114281411D01*
X126940735Y-114246912D01*
X127083759Y-114124759D01*
X127131409Y-114068967D01*
X127189914Y-114030775D01*
X127225698Y-114025500D01*
X132832721Y-114025500D01*
X132835862Y-114025539D01*
X132923363Y-114027757D01*
X132981432Y-114017348D01*
X132990736Y-114016043D01*
X133049438Y-114010074D01*
X133078467Y-114000965D01*
X133093700Y-113997226D01*
X133123653Y-113991858D01*
X133178426Y-113969978D01*
X133187301Y-113966819D01*
X133204675Y-113961367D01*
X133243588Y-113949159D01*
X133270194Y-113934390D01*
X133284362Y-113927662D01*
X133312617Y-113916377D01*
X133361879Y-113883909D01*
X133369910Y-113879043D01*
X133421502Y-113850409D01*
X133444587Y-113830589D01*
X133457114Y-113821144D01*
X133482519Y-113804402D01*
X133524251Y-113762668D01*
X133531123Y-113756300D01*
X133575895Y-113717866D01*
X133594519Y-113693803D01*
X133604880Y-113682039D01*
X133982101Y-113304819D01*
X134043425Y-113271334D01*
X134069783Y-113268500D01*
X137350324Y-113268500D01*
X137389328Y-113274794D01*
X137518202Y-113317499D01*
X137617858Y-113327680D01*
X137617859Y-113327680D01*
X137620991Y-113328000D01*
X138346008Y-113327999D01*
X138448797Y-113317499D01*
X138615334Y-113262314D01*
X138764656Y-113170212D01*
X138888712Y-113046156D01*
X138980814Y-112896834D01*
X139035999Y-112730297D01*
X139041705Y-112674438D01*
X139068100Y-112609748D01*
X139125280Y-112569596D01*
X139149528Y-112564018D01*
X139156292Y-112563164D01*
X139196907Y-112547082D01*
X139207944Y-112543303D01*
X139249890Y-112531118D01*
X139267129Y-112520922D01*
X139284602Y-112512362D01*
X139303232Y-112504986D01*
X139338564Y-112479314D01*
X139348327Y-112472902D01*
X139355222Y-112468823D01*
X139378636Y-112454977D01*
X139446357Y-112437794D01*
X139512620Y-112459953D01*
X139529436Y-112474028D01*
X139539529Y-112484120D01*
X139542709Y-112486587D01*
X139551571Y-112494155D01*
X139563103Y-112504985D01*
X139583418Y-112524062D01*
X139600970Y-112533711D01*
X139617238Y-112544397D01*
X139633064Y-112556673D01*
X139673146Y-112574017D01*
X139683633Y-112579155D01*
X139721907Y-112600197D01*
X139730410Y-112602379D01*
X139741308Y-112605178D01*
X139759719Y-112611481D01*
X139781032Y-112620704D01*
X139834740Y-112665394D01*
X139855143Y-112721902D01*
X139856000Y-112730296D01*
X139911186Y-112896834D01*
X140003288Y-113046157D01*
X140127342Y-113170211D01*
X140127344Y-113170212D01*
X140276666Y-113262314D01*
X140388017Y-113299212D01*
X140443202Y-113317499D01*
X140542858Y-113327680D01*
X140542859Y-113327680D01*
X140545991Y-113328000D01*
X141271008Y-113327999D01*
X141373797Y-113317499D01*
X141502671Y-113274794D01*
X141541676Y-113268500D01*
X151028259Y-113268500D01*
X153174500Y-113268500D01*
X153241539Y-113288185D01*
X153287294Y-113340989D01*
X153298500Y-113392500D01*
X153298500Y-118032396D01*
X153278815Y-118099435D01*
X153253166Y-118128248D01*
X153213117Y-118161116D01*
X153088089Y-118313462D01*
X152995185Y-118487273D01*
X152937976Y-118675866D01*
X152918659Y-118872000D01*
X152937976Y-119068133D01*
X152995185Y-119256726D01*
X152995186Y-119256727D01*
X153088090Y-119430538D01*
X153213117Y-119582883D01*
X153365462Y-119707910D01*
X153539273Y-119800814D01*
X153727868Y-119858024D01*
X153924000Y-119877341D01*
X154120132Y-119858024D01*
X154308727Y-119800814D01*
X154433585Y-119734076D01*
X155701476Y-119734076D01*
X155825465Y-119800349D01*
X156013969Y-119857531D01*
X156209999Y-119876838D01*
X156406030Y-119857531D01*
X156594538Y-119800347D01*
X156718522Y-119734077D01*
X156718522Y-119734076D01*
X156210001Y-119225553D01*
X156210000Y-119225553D01*
X155701476Y-119734076D01*
X154433585Y-119734076D01*
X154482538Y-119707910D01*
X154634883Y-119582883D01*
X154759910Y-119430538D01*
X154852814Y-119256727D01*
X154910024Y-119068132D01*
X154929341Y-118872000D01*
X154929341Y-118871999D01*
X155205161Y-118871999D01*
X155224468Y-119068032D01*
X155281650Y-119256537D01*
X155347921Y-119380522D01*
X155347922Y-119380522D01*
X155856446Y-118872000D01*
X156563552Y-118872000D01*
X157072076Y-119380522D01*
X157072077Y-119380522D01*
X157138347Y-119256538D01*
X157195531Y-119068030D01*
X157214838Y-118872000D01*
X157195531Y-118675969D01*
X157138349Y-118487465D01*
X157072076Y-118363476D01*
X156563552Y-118872000D01*
X155856446Y-118872000D01*
X155856446Y-118871999D01*
X155347923Y-118363475D01*
X155347922Y-118363476D01*
X155281649Y-118487466D01*
X155224468Y-118675967D01*
X155205161Y-118871999D01*
X154929341Y-118871999D01*
X154910024Y-118675868D01*
X154852814Y-118487273D01*
X154759910Y-118313462D01*
X154634883Y-118161117D01*
X154634882Y-118161116D01*
X154594834Y-118128248D01*
X154555500Y-118070502D01*
X154549500Y-118032396D01*
X154549500Y-118009922D01*
X155701476Y-118009922D01*
X156210000Y-118518446D01*
X156210001Y-118518446D01*
X156718522Y-118009922D01*
X156718522Y-118009921D01*
X156594537Y-117943650D01*
X156406032Y-117886468D01*
X156210000Y-117867161D01*
X156013967Y-117886468D01*
X155825466Y-117943649D01*
X155701476Y-118009922D01*
X154549500Y-118009922D01*
X154549500Y-113392500D01*
X154569185Y-113325461D01*
X154621989Y-113279706D01*
X154673500Y-113268500D01*
X155045649Y-113268500D01*
X155112688Y-113288185D01*
X155158443Y-113340989D01*
X155168938Y-113379245D01*
X155173909Y-113425483D01*
X155224204Y-113560331D01*
X155276032Y-113629564D01*
X155310455Y-113675548D01*
X155414434Y-113753387D01*
X155456305Y-113809320D01*
X155461289Y-113879012D01*
X155445851Y-113917442D01*
X155332669Y-114102139D01*
X155239303Y-114327542D01*
X155182349Y-114564775D01*
X155163207Y-114808000D01*
X155182349Y-115051224D01*
X155239303Y-115288457D01*
X155332669Y-115513862D01*
X155456504Y-115715942D01*
X156192070Y-114980375D01*
X156194884Y-114993915D01*
X156264442Y-115128156D01*
X156367638Y-115238652D01*
X156496819Y-115317209D01*
X156548002Y-115331549D01*
X155810056Y-116069494D01*
X156012137Y-116193329D01*
X156237542Y-116286696D01*
X156474775Y-116343650D01*
X156718000Y-116362792D01*
X156961224Y-116343650D01*
X157198457Y-116286696D01*
X157423862Y-116193329D01*
X157625942Y-116069494D01*
X156889568Y-115333121D01*
X157006458Y-115282349D01*
X157123739Y-115186934D01*
X157210928Y-115063415D01*
X157241354Y-114977802D01*
X157979494Y-115715942D01*
X158103329Y-115513862D01*
X158196696Y-115288457D01*
X158253650Y-115051224D01*
X158272792Y-114807999D01*
X158253650Y-114564775D01*
X158196696Y-114327542D01*
X158103329Y-114102137D01*
X157990149Y-113917443D01*
X157971904Y-113849997D01*
X157993020Y-113783395D01*
X158021565Y-113753386D01*
X158051350Y-113731089D01*
X158125546Y-113675546D01*
X158211796Y-113560331D01*
X158262091Y-113425483D01*
X158268500Y-113365873D01*
X158268499Y-111170128D01*
X158262091Y-111110517D01*
X158211796Y-110975669D01*
X158125546Y-110860454D01*
X158010331Y-110774204D01*
X157875483Y-110723909D01*
X157815873Y-110717500D01*
X157812550Y-110717500D01*
X155623439Y-110717500D01*
X155623420Y-110717500D01*
X155620128Y-110717501D01*
X155616848Y-110717853D01*
X155616840Y-110717854D01*
X155560515Y-110723909D01*
X155425669Y-110774204D01*
X155310454Y-110860454D01*
X155224204Y-110975668D01*
X155173909Y-111110516D01*
X155168938Y-111156755D01*
X155142200Y-111221306D01*
X155084807Y-111261154D01*
X155045648Y-111267500D01*
X142081290Y-111267500D01*
X142014251Y-111247815D01*
X141968496Y-111195011D01*
X141963584Y-111182504D01*
X141939729Y-111110515D01*
X141905814Y-111008166D01*
X141813712Y-110858844D01*
X141813711Y-110858842D01*
X141689657Y-110734788D01*
X141540334Y-110642686D01*
X141373797Y-110587500D01*
X141287115Y-110578645D01*
X141222424Y-110552249D01*
X141182272Y-110495068D01*
X141179409Y-110425257D01*
X141209326Y-110370403D01*
X141226062Y-110352582D01*
X141235712Y-110335027D01*
X141246400Y-110318757D01*
X141250701Y-110313213D01*
X141258673Y-110302936D01*
X141276026Y-110262832D01*
X141281157Y-110252362D01*
X141302197Y-110214092D01*
X141307175Y-110194699D01*
X141313481Y-110176282D01*
X141315018Y-110172728D01*
X141321438Y-110157896D01*
X141328272Y-110114745D01*
X141330635Y-110103331D01*
X141341500Y-110061019D01*
X141341500Y-110040982D01*
X141343026Y-110021589D01*
X141343306Y-110019821D01*
X141345916Y-110003342D01*
X141375843Y-109940209D01*
X141435153Y-109903276D01*
X141455784Y-109899381D01*
X141493797Y-109895499D01*
X141660334Y-109840314D01*
X141809656Y-109748212D01*
X141933712Y-109624156D01*
X142025814Y-109474834D01*
X142080999Y-109308297D01*
X142091500Y-109205509D01*
X142091499Y-108480492D01*
X142080999Y-108377703D01*
X142032222Y-108230504D01*
X142029820Y-108160676D01*
X142065552Y-108100634D01*
X142128072Y-108069441D01*
X142149928Y-108067500D01*
X142183548Y-108067500D01*
X142250587Y-108087185D01*
X142271228Y-108103818D01*
X142895476Y-108728067D01*
X143517196Y-109349787D01*
X143530096Y-109365888D01*
X143532213Y-109367876D01*
X143532214Y-109367877D01*
X143559202Y-109393221D01*
X143581223Y-109413900D01*
X143584020Y-109416611D01*
X143603529Y-109436120D01*
X143606709Y-109438587D01*
X143615571Y-109446155D01*
X143635441Y-109464815D01*
X143647418Y-109476062D01*
X143664970Y-109485711D01*
X143681238Y-109496397D01*
X143697064Y-109508673D01*
X143737146Y-109526017D01*
X143747633Y-109531155D01*
X143785907Y-109552197D01*
X143794410Y-109554379D01*
X143805308Y-109557178D01*
X143823713Y-109563478D01*
X143842104Y-109571437D01*
X143856482Y-109577659D01*
X143855225Y-109580563D01*
X143896026Y-109599903D01*
X143932962Y-109659212D01*
X143937500Y-109692451D01*
X143937500Y-109860560D01*
X143937500Y-109860578D01*
X143937501Y-109863872D01*
X143937853Y-109867152D01*
X143937854Y-109867159D01*
X143943909Y-109923484D01*
X143969056Y-109990906D01*
X143994204Y-110058331D01*
X144080454Y-110173546D01*
X144195669Y-110259796D01*
X144330517Y-110310091D01*
X144390127Y-110316500D01*
X146185872Y-110316499D01*
X146245483Y-110310091D01*
X146380331Y-110259796D01*
X146495546Y-110173546D01*
X146581796Y-110058331D01*
X146630810Y-109926916D01*
X146672681Y-109870983D01*
X146738146Y-109846566D01*
X146806419Y-109861418D01*
X146834673Y-109882569D01*
X146956599Y-110004495D01*
X147150170Y-110140035D01*
X147364337Y-110239903D01*
X147592592Y-110301063D01*
X147828000Y-110321659D01*
X148063408Y-110301063D01*
X148291663Y-110239903D01*
X148505830Y-110140035D01*
X148699401Y-110004495D01*
X148866495Y-109837401D01*
X149002035Y-109643830D01*
X149101903Y-109429663D01*
X149163063Y-109201408D01*
X149183659Y-108966000D01*
X149163063Y-108730592D01*
X149101903Y-108502337D01*
X149002035Y-108288171D01*
X148866495Y-108094599D01*
X148699401Y-107927505D01*
X148505830Y-107791965D01*
X148291663Y-107692097D01*
X148230501Y-107675709D01*
X148063407Y-107630936D01*
X147828000Y-107610340D01*
X147592593Y-107630936D01*
X147492126Y-107657856D01*
X147422276Y-107656193D01*
X147372352Y-107625762D01*
X146780666Y-107034076D01*
X156971476Y-107034076D01*
X157095465Y-107100349D01*
X157283969Y-107157531D01*
X157480000Y-107176838D01*
X157676030Y-107157531D01*
X157864538Y-107100347D01*
X157988522Y-107034077D01*
X157988522Y-107034076D01*
X157480001Y-106525553D01*
X157480000Y-106525553D01*
X156971476Y-107034076D01*
X146780666Y-107034076D01*
X146339404Y-106592814D01*
X145280802Y-105534211D01*
X145267906Y-105518113D01*
X145216775Y-105470098D01*
X145213978Y-105467387D01*
X145197227Y-105450636D01*
X145194471Y-105447880D01*
X145191290Y-105445412D01*
X145182422Y-105437837D01*
X145150582Y-105407938D01*
X145133024Y-105398285D01*
X145116764Y-105387604D01*
X145100936Y-105375327D01*
X145060851Y-105357980D01*
X145050361Y-105352841D01*
X145012091Y-105331802D01*
X144992691Y-105326821D01*
X144974284Y-105320519D01*
X144955897Y-105312562D01*
X144912758Y-105305729D01*
X144901324Y-105303361D01*
X144859019Y-105292500D01*
X144838984Y-105292500D01*
X144819586Y-105290973D01*
X144812162Y-105289797D01*
X144799805Y-105287840D01*
X144799804Y-105287840D01*
X144766751Y-105290964D01*
X144756325Y-105291950D01*
X144744656Y-105292500D01*
X142098928Y-105292500D01*
X142031889Y-105272815D01*
X141993389Y-105233596D01*
X141933711Y-105136842D01*
X141885819Y-105088950D01*
X141852334Y-105027627D01*
X141849500Y-105001269D01*
X141849500Y-103455602D01*
X141869185Y-103388563D01*
X141894833Y-103359750D01*
X141934883Y-103326883D01*
X142059910Y-103174538D01*
X142152814Y-103000727D01*
X142210024Y-102812132D01*
X142229341Y-102616000D01*
X142210024Y-102419868D01*
X142152814Y-102231273D01*
X142059910Y-102057462D01*
X141934883Y-101905117D01*
X141934882Y-101905116D01*
X141894834Y-101872248D01*
X141855500Y-101814502D01*
X141849500Y-101776396D01*
X141849500Y-100445414D01*
X141869185Y-100378375D01*
X141908404Y-100339875D01*
X141915032Y-100335787D01*
X141968656Y-100302712D01*
X142092712Y-100178656D01*
X142134461Y-100110968D01*
X142186408Y-100064244D01*
X142255370Y-100053021D01*
X142319453Y-100080864D01*
X142345537Y-100110967D01*
X142359663Y-100133868D01*
X142387288Y-100178657D01*
X142511342Y-100302711D01*
X142555585Y-100330000D01*
X142660666Y-100394814D01*
X142758606Y-100427268D01*
X142827202Y-100449999D01*
X142926858Y-100460180D01*
X142926859Y-100460180D01*
X142929991Y-100460500D01*
X143212547Y-100460499D01*
X143279586Y-100480183D01*
X143300228Y-100496818D01*
X145041197Y-102237787D01*
X145054098Y-102253889D01*
X145056212Y-102255874D01*
X145056214Y-102255877D01*
X145103561Y-102300339D01*
X145105240Y-102301916D01*
X145108036Y-102304626D01*
X145127530Y-102324120D01*
X145130615Y-102326513D01*
X145130701Y-102326580D01*
X145139573Y-102334158D01*
X145171418Y-102364062D01*
X145188974Y-102373714D01*
X145205231Y-102384392D01*
X145221064Y-102396674D01*
X145237185Y-102403649D01*
X145261156Y-102414023D01*
X145271643Y-102419160D01*
X145309908Y-102440197D01*
X145329316Y-102445180D01*
X145347710Y-102451478D01*
X145366105Y-102459438D01*
X145409254Y-102466271D01*
X145420680Y-102468638D01*
X145436222Y-102472629D01*
X145462980Y-102479500D01*
X145462981Y-102479500D01*
X145483016Y-102479500D01*
X145502413Y-102481026D01*
X145522196Y-102484160D01*
X145563639Y-102480242D01*
X145632232Y-102493530D01*
X145682754Y-102541794D01*
X145693014Y-102564687D01*
X145713638Y-102626925D01*
X145774459Y-102725530D01*
X145804975Y-102775005D01*
X145927994Y-102898024D01*
X145927996Y-102898025D01*
X145927997Y-102898026D01*
X146076075Y-102989362D01*
X146158650Y-103016724D01*
X146241224Y-103044087D01*
X146340019Y-103054180D01*
X146340020Y-103054180D01*
X146343152Y-103054500D01*
X146346301Y-103054500D01*
X146901048Y-103054500D01*
X146968087Y-103074185D01*
X146988729Y-103090819D01*
X147400696Y-103502787D01*
X147413596Y-103518888D01*
X147464723Y-103566900D01*
X147467520Y-103569611D01*
X147487029Y-103589120D01*
X147490209Y-103591587D01*
X147499071Y-103599155D01*
X147530918Y-103629062D01*
X147548470Y-103638711D01*
X147564738Y-103649397D01*
X147580564Y-103661673D01*
X147620646Y-103679017D01*
X147631133Y-103684155D01*
X147669407Y-103705197D01*
X147677910Y-103707379D01*
X147688808Y-103710178D01*
X147707213Y-103716478D01*
X147725604Y-103724437D01*
X147768750Y-103731270D01*
X147780168Y-103733635D01*
X147822481Y-103744500D01*
X147842516Y-103744500D01*
X147861915Y-103746027D01*
X147881696Y-103749160D01*
X147925174Y-103745050D01*
X147936844Y-103744500D01*
X148764981Y-103744500D01*
X149872500Y-103744500D01*
X149939539Y-103764185D01*
X149985294Y-103816989D01*
X149996500Y-103868500D01*
X149996500Y-104824396D01*
X149976815Y-104891435D01*
X149951166Y-104920248D01*
X149911117Y-104953116D01*
X149786089Y-105105462D01*
X149693185Y-105279273D01*
X149635976Y-105467866D01*
X149616659Y-105664000D01*
X149635976Y-105860133D01*
X149693185Y-106048726D01*
X149693186Y-106048727D01*
X149786090Y-106222538D01*
X149911117Y-106374883D01*
X150063462Y-106499910D01*
X150237273Y-106592814D01*
X150425868Y-106650024D01*
X150622000Y-106669341D01*
X150818132Y-106650024D01*
X151006727Y-106592814D01*
X151180538Y-106499910D01*
X151332883Y-106374883D01*
X151457910Y-106222538D01*
X151550814Y-106048727D01*
X151608024Y-105860132D01*
X151627341Y-105664000D01*
X151608024Y-105467868D01*
X151550814Y-105279273D01*
X151457910Y-105105462D01*
X151332883Y-104953117D01*
X151332882Y-104953116D01*
X151292834Y-104920248D01*
X151253500Y-104862502D01*
X151247500Y-104824396D01*
X151247500Y-103868500D01*
X151267185Y-103801461D01*
X151319989Y-103755706D01*
X151371500Y-103744500D01*
X152957501Y-103744500D01*
X153024540Y-103764185D01*
X153070295Y-103816989D01*
X153081501Y-103868499D01*
X153081501Y-104016872D01*
X153087909Y-104076483D01*
X153138204Y-104211331D01*
X153224454Y-104326546D01*
X153339669Y-104412796D01*
X153471598Y-104462002D01*
X153527532Y-104503873D01*
X153551949Y-104569337D01*
X153537097Y-104637610D01*
X153515947Y-104665865D01*
X153393888Y-104787924D01*
X153258400Y-104981421D01*
X153158569Y-105195507D01*
X153101364Y-105408999D01*
X153101364Y-105409000D01*
X153998314Y-105409000D01*
X153972507Y-105449156D01*
X153932000Y-105587111D01*
X153932000Y-105730889D01*
X153972507Y-105868844D01*
X153998314Y-105909000D01*
X153101364Y-105909000D01*
X153158569Y-106122492D01*
X153258399Y-106336576D01*
X153393893Y-106530081D01*
X153560918Y-106697106D01*
X153754423Y-106832600D01*
X153968509Y-106932430D01*
X154182000Y-106989634D01*
X154182000Y-106094501D01*
X154289685Y-106143680D01*
X154396237Y-106159000D01*
X154467763Y-106159000D01*
X154574315Y-106143680D01*
X154682000Y-106094501D01*
X154682000Y-106989633D01*
X154895490Y-106932430D01*
X155109576Y-106832600D01*
X155303081Y-106697106D01*
X155470106Y-106530081D01*
X155605600Y-106336576D01*
X155682344Y-106171999D01*
X156475161Y-106171999D01*
X156494468Y-106368032D01*
X156551650Y-106556537D01*
X156617921Y-106680522D01*
X156617922Y-106680522D01*
X157126446Y-106172000D01*
X157833553Y-106172000D01*
X158342076Y-106680522D01*
X158342077Y-106680522D01*
X158408347Y-106556538D01*
X158465531Y-106368030D01*
X158484838Y-106172000D01*
X158465531Y-105975969D01*
X158408349Y-105787465D01*
X158342076Y-105663476D01*
X157833553Y-106172000D01*
X157126446Y-106172000D01*
X157126446Y-106171999D01*
X156617922Y-105663476D01*
X156551649Y-105787466D01*
X156494468Y-105975967D01*
X156475161Y-106171999D01*
X155682344Y-106171999D01*
X155705430Y-106122492D01*
X155762636Y-105909000D01*
X154865686Y-105909000D01*
X154891493Y-105868844D01*
X154932000Y-105730889D01*
X154932000Y-105587111D01*
X154891493Y-105449156D01*
X154865686Y-105409000D01*
X155762636Y-105409000D01*
X155762635Y-105408999D01*
X155736087Y-105309922D01*
X156971476Y-105309922D01*
X157480000Y-105818446D01*
X157480001Y-105818446D01*
X157988522Y-105309922D01*
X157988522Y-105309921D01*
X157864537Y-105243650D01*
X157676032Y-105186468D01*
X157479999Y-105167161D01*
X157283967Y-105186468D01*
X157095466Y-105243649D01*
X156971476Y-105309922D01*
X155736087Y-105309922D01*
X155705430Y-105195507D01*
X155605599Y-104981421D01*
X155470109Y-104787921D01*
X155348053Y-104665865D01*
X155314568Y-104604542D01*
X155319552Y-104534850D01*
X155361424Y-104478917D01*
X155392397Y-104462004D01*
X155524331Y-104412796D01*
X155639546Y-104326546D01*
X155725796Y-104211331D01*
X155776091Y-104076483D01*
X155782500Y-104016873D01*
X155782500Y-103868500D01*
X155802185Y-103801461D01*
X155854989Y-103755706D01*
X155906500Y-103744500D01*
X156351783Y-103744500D01*
X156418822Y-103764185D01*
X156464577Y-103816989D01*
X156475185Y-103880654D01*
X156474659Y-103886000D01*
X156474659Y-103886003D01*
X156493976Y-104082133D01*
X156551185Y-104270726D01*
X156551186Y-104270727D01*
X156644090Y-104444538D01*
X156769117Y-104596883D01*
X156921462Y-104721910D01*
X157095273Y-104814814D01*
X157283868Y-104872024D01*
X157480000Y-104891341D01*
X157676132Y-104872024D01*
X157864727Y-104814814D01*
X158038538Y-104721910D01*
X158190883Y-104596883D01*
X158315910Y-104444538D01*
X158408814Y-104270727D01*
X158466024Y-104082132D01*
X158485341Y-103886000D01*
X158480262Y-103834437D01*
X158493280Y-103765794D01*
X158515981Y-103734607D01*
X160657786Y-101592802D01*
X160673886Y-101579905D01*
X160675874Y-101577787D01*
X160675877Y-101577786D01*
X160721964Y-101528707D01*
X160724549Y-101526039D01*
X160744120Y-101506470D01*
X160746565Y-101503316D01*
X160754154Y-101494429D01*
X160784062Y-101462582D01*
X160793713Y-101445026D01*
X160804393Y-101428767D01*
X160816674Y-101412936D01*
X160834018Y-101372851D01*
X160839160Y-101362356D01*
X160860197Y-101324092D01*
X160865178Y-101304688D01*
X160871480Y-101286283D01*
X160879438Y-101267895D01*
X160886270Y-101224748D01*
X160888639Y-101213316D01*
X160899500Y-101171020D01*
X160899500Y-101150983D01*
X160901027Y-101131584D01*
X160901892Y-101126121D01*
X160904160Y-101111804D01*
X160900050Y-101068324D01*
X160899500Y-101056655D01*
X160899500Y-89275742D01*
X160889345Y-89205117D01*
X160866409Y-89045593D01*
X160800902Y-88822495D01*
X160704311Y-88610991D01*
X160578604Y-88415386D01*
X160426338Y-88239662D01*
X160250614Y-88087396D01*
X160250613Y-88087395D01*
X160055007Y-87961688D01*
X159843504Y-87865097D01*
X159620408Y-87799591D01*
X159505332Y-87783045D01*
X159390258Y-87766500D01*
X159390257Y-87766500D01*
X155906499Y-87766500D01*
X155839460Y-87746815D01*
X155793705Y-87694011D01*
X155782499Y-87642500D01*
X155782499Y-87502439D01*
X155782499Y-87502438D01*
X155782499Y-87499128D01*
X155776091Y-87439517D01*
X155725796Y-87304669D01*
X155639546Y-87189454D01*
X155524331Y-87103204D01*
X155389483Y-87052909D01*
X155329873Y-87046500D01*
X155326550Y-87046500D01*
X153537439Y-87046500D01*
X153537420Y-87046500D01*
X153534128Y-87046501D01*
X153530848Y-87046853D01*
X153530840Y-87046854D01*
X153474515Y-87052909D01*
X153339669Y-87103204D01*
X153224454Y-87189454D01*
X153138204Y-87304668D01*
X153087910Y-87439515D01*
X153087909Y-87439517D01*
X153081500Y-87499127D01*
X153081500Y-87502448D01*
X153081500Y-87502449D01*
X153081500Y-87647500D01*
X153061815Y-87714539D01*
X153009011Y-87760294D01*
X152957500Y-87771500D01*
X146246899Y-87771500D01*
X146179860Y-87751815D01*
X146134105Y-87699011D01*
X146129193Y-87686504D01*
X146116268Y-87647500D01*
X146089814Y-87567666D01*
X145997712Y-87418344D01*
X145997711Y-87418342D01*
X145873657Y-87294288D01*
X145724334Y-87202186D01*
X145557797Y-87147000D01*
X145458141Y-87136819D01*
X145458122Y-87136818D01*
X145455009Y-87136500D01*
X145451860Y-87136500D01*
X144108140Y-87136500D01*
X144108120Y-87136500D01*
X144104992Y-87136501D01*
X144101860Y-87136820D01*
X144101858Y-87136821D01*
X144002203Y-87147000D01*
X143835665Y-87202186D01*
X143686344Y-87294287D01*
X143597681Y-87382950D01*
X143536357Y-87416434D01*
X143466666Y-87411450D01*
X143422319Y-87382950D01*
X143333655Y-87294287D01*
X143184334Y-87202186D01*
X143017797Y-87147000D01*
X142918141Y-87136819D01*
X142918122Y-87136818D01*
X142915009Y-87136500D01*
X142911860Y-87136500D01*
X141568140Y-87136500D01*
X141568120Y-87136500D01*
X141564992Y-87136501D01*
X141561860Y-87136820D01*
X141561858Y-87136821D01*
X141462203Y-87147000D01*
X141295665Y-87202186D01*
X141146342Y-87294288D01*
X141057681Y-87382950D01*
X140996358Y-87416435D01*
X140926666Y-87411451D01*
X140882319Y-87382950D01*
X140793657Y-87294288D01*
X140644334Y-87202186D01*
X140477797Y-87147000D01*
X140378141Y-87136819D01*
X140378122Y-87136818D01*
X140375009Y-87136500D01*
X140371860Y-87136500D01*
X139028140Y-87136500D01*
X139028120Y-87136500D01*
X139024992Y-87136501D01*
X139021860Y-87136820D01*
X139021858Y-87136821D01*
X138922203Y-87147000D01*
X138755665Y-87202186D01*
X138606342Y-87294288D01*
X138482288Y-87418342D01*
X138390186Y-87567665D01*
X138335000Y-87734202D01*
X138324819Y-87833858D01*
X138324817Y-87833878D01*
X138324500Y-87836991D01*
X138324500Y-87840138D01*
X138324500Y-87840139D01*
X138324500Y-88558858D01*
X138324500Y-88558877D01*
X138324501Y-88562008D01*
X138324820Y-88565140D01*
X138324821Y-88565141D01*
X138335000Y-88664796D01*
X138390186Y-88831334D01*
X138482288Y-88980657D01*
X138606342Y-89104711D01*
X138606344Y-89104712D01*
X138755666Y-89196814D01*
X138825133Y-89219833D01*
X138922202Y-89251999D01*
X139010083Y-89260977D01*
X139074775Y-89287373D01*
X139114926Y-89344554D01*
X139117790Y-89414365D01*
X139117585Y-89415173D01*
X139108821Y-89449306D01*
X139102520Y-89467711D01*
X139094561Y-89486102D01*
X139087728Y-89529242D01*
X139085360Y-89540674D01*
X139074500Y-89582977D01*
X139074500Y-89603016D01*
X139072973Y-89622414D01*
X139069840Y-89642194D01*
X139073950Y-89685673D01*
X139074500Y-89697343D01*
X139074500Y-89944465D01*
X139054815Y-90011504D01*
X139002011Y-90057259D01*
X138963101Y-90067823D01*
X138922203Y-90072000D01*
X138755665Y-90127186D01*
X138606342Y-90219288D01*
X138482288Y-90343342D01*
X138390186Y-90492665D01*
X138335000Y-90659202D01*
X138324819Y-90758858D01*
X138324817Y-90758878D01*
X138324500Y-90761991D01*
X138324500Y-90765138D01*
X138324500Y-90765139D01*
X138324500Y-91483858D01*
X138324500Y-91483877D01*
X138324501Y-91487008D01*
X138324820Y-91490140D01*
X138324821Y-91490141D01*
X138335000Y-91589796D01*
X138390186Y-91756334D01*
X138482288Y-91905657D01*
X138606342Y-92029711D01*
X138662895Y-92064592D01*
X138755666Y-92121814D01*
X138867016Y-92158712D01*
X138922202Y-92176999D01*
X138935566Y-92178364D01*
X138963101Y-92181177D01*
X139027793Y-92207572D01*
X139067945Y-92264753D01*
X139074500Y-92304535D01*
X139074500Y-92881256D01*
X139072235Y-92901766D01*
X139074439Y-92971872D01*
X139074500Y-92975767D01*
X139074500Y-93003350D01*
X139074988Y-93007219D01*
X139074989Y-93007225D01*
X139075004Y-93007343D01*
X139075918Y-93018967D01*
X139077290Y-93062626D01*
X139082879Y-93081860D01*
X139086825Y-93100916D01*
X139089335Y-93120792D01*
X139105414Y-93161404D01*
X139109197Y-93172451D01*
X139121382Y-93214391D01*
X139131580Y-93231635D01*
X139140136Y-93249100D01*
X139147514Y-93267732D01*
X139147515Y-93267733D01*
X139173180Y-93303059D01*
X139179593Y-93312822D01*
X139201826Y-93350416D01*
X139201829Y-93350419D01*
X139201830Y-93350420D01*
X139215995Y-93364585D01*
X139228627Y-93379375D01*
X139240406Y-93395587D01*
X139274058Y-93423426D01*
X139282699Y-93431289D01*
X139904046Y-94052637D01*
X139916946Y-94068738D01*
X139968073Y-94116750D01*
X139970870Y-94119461D01*
X139990379Y-94138970D01*
X139993559Y-94141437D01*
X140002421Y-94149005D01*
X140009205Y-94155376D01*
X140034268Y-94178912D01*
X140051820Y-94188561D01*
X140068088Y-94199247D01*
X140083914Y-94211523D01*
X140123996Y-94228867D01*
X140134483Y-94234005D01*
X140172757Y-94255047D01*
X140181260Y-94257229D01*
X140192158Y-94260028D01*
X140210563Y-94266328D01*
X140228954Y-94274287D01*
X140272100Y-94281120D01*
X140283518Y-94283485D01*
X140325831Y-94294350D01*
X140345866Y-94294350D01*
X140365265Y-94295877D01*
X140385046Y-94299010D01*
X140428524Y-94294900D01*
X140440194Y-94294350D01*
X140475039Y-94294350D01*
X140542078Y-94314035D01*
X140587833Y-94366839D01*
X140591220Y-94375016D01*
X140605323Y-94412828D01*
X140605324Y-94412830D01*
X140605325Y-94412831D01*
X140691575Y-94528046D01*
X140806790Y-94614296D01*
X140941638Y-94664591D01*
X141001248Y-94671000D01*
X141528793Y-94670999D01*
X141579110Y-94665590D01*
X141605614Y-94665591D01*
X141647976Y-94670145D01*
X141654589Y-94670500D01*
X141699107Y-94670500D01*
X141709058Y-94660548D01*
X141718792Y-94627401D01*
X141748793Y-94595175D01*
X141838467Y-94528046D01*
X141838467Y-94528045D01*
X141840696Y-94526377D01*
X141906160Y-94501960D01*
X141974433Y-94516812D01*
X141989318Y-94526377D01*
X141991546Y-94528045D01*
X141991547Y-94528046D01*
X142081219Y-94595174D01*
X142123089Y-94651107D01*
X142125637Y-94665230D01*
X142130907Y-94670500D01*
X142175425Y-94670500D01*
X142182035Y-94670145D01*
X142224397Y-94665591D01*
X142250909Y-94665591D01*
X142280658Y-94668789D01*
X142301220Y-94671000D01*
X142828765Y-94670999D01*
X142832066Y-94670644D01*
X142832068Y-94670644D01*
X142876729Y-94665843D01*
X142903239Y-94665843D01*
X142930667Y-94668791D01*
X142951206Y-94671000D01*
X143478751Y-94670999D01*
X143538362Y-94664591D01*
X143673210Y-94614296D01*
X143788425Y-94528046D01*
X143874675Y-94412831D01*
X143924970Y-94277983D01*
X143931379Y-94218373D01*
X143931378Y-93119328D01*
X143924970Y-93059717D01*
X143904343Y-93004412D01*
X143899683Y-92991918D01*
X143894699Y-92922226D01*
X143928182Y-92860906D01*
X144565271Y-92223818D01*
X144626594Y-92190333D01*
X144652952Y-92187499D01*
X145451859Y-92187499D01*
X145455008Y-92187499D01*
X145557797Y-92176999D01*
X145724334Y-92121814D01*
X145873656Y-92029712D01*
X145997712Y-91905656D01*
X146057388Y-91808904D01*
X146109337Y-91762179D01*
X146162928Y-91750000D01*
X146689048Y-91750000D01*
X146756087Y-91769685D01*
X146776729Y-91786319D01*
X153091761Y-98101352D01*
X153125246Y-98162675D01*
X153123855Y-98221125D01*
X153096936Y-98321591D01*
X153076340Y-98557000D01*
X153096936Y-98792407D01*
X153123856Y-98892872D01*
X153158097Y-99020663D01*
X153257965Y-99234830D01*
X153393505Y-99428401D01*
X153560599Y-99595495D01*
X153754170Y-99731035D01*
X153968337Y-99830903D01*
X154196592Y-99892063D01*
X154432000Y-99912659D01*
X154667408Y-99892063D01*
X154767873Y-99865143D01*
X154837721Y-99866806D01*
X154887647Y-99897237D01*
X155704197Y-100713787D01*
X155717098Y-100729889D01*
X155719212Y-100731874D01*
X155719214Y-100731877D01*
X155766561Y-100776339D01*
X155768240Y-100777916D01*
X155771036Y-100780626D01*
X155790530Y-100800120D01*
X155793615Y-100802513D01*
X155793701Y-100802580D01*
X155802573Y-100810158D01*
X155834418Y-100840062D01*
X155851974Y-100849714D01*
X155868231Y-100860392D01*
X155884064Y-100872674D01*
X155900185Y-100879649D01*
X155924156Y-100890023D01*
X155934643Y-100895160D01*
X155972908Y-100916197D01*
X155992316Y-100921180D01*
X156010710Y-100927478D01*
X156029105Y-100935438D01*
X156072254Y-100942271D01*
X156083680Y-100944638D01*
X156099222Y-100948629D01*
X156125980Y-100955500D01*
X156125981Y-100955500D01*
X156146016Y-100955500D01*
X156165413Y-100957026D01*
X156185196Y-100960160D01*
X156228674Y-100956050D01*
X156240344Y-100955500D01*
X157402397Y-100955500D01*
X157469436Y-100975185D01*
X157498250Y-101000835D01*
X157531117Y-101040883D01*
X157683462Y-101165910D01*
X157857273Y-101258814D01*
X158045868Y-101316024D01*
X158242000Y-101335341D01*
X158438132Y-101316024D01*
X158626727Y-101258814D01*
X158800538Y-101165910D01*
X158952883Y-101040883D01*
X159077910Y-100888538D01*
X159170814Y-100714727D01*
X159228024Y-100526132D01*
X159247341Y-100330000D01*
X159228024Y-100133868D01*
X159170814Y-99945273D01*
X159077910Y-99771462D01*
X158952883Y-99619117D01*
X158800538Y-99494090D01*
X158778091Y-99482092D01*
X158626726Y-99401185D01*
X158438133Y-99343976D01*
X158242000Y-99324659D01*
X158045866Y-99343976D01*
X157857273Y-99401185D01*
X157683462Y-99494089D01*
X157531116Y-99619117D01*
X157498250Y-99659165D01*
X157440504Y-99698499D01*
X157402397Y-99704500D01*
X156515452Y-99704500D01*
X156448413Y-99684815D01*
X156427771Y-99668181D01*
X155772237Y-99012647D01*
X155738752Y-98951324D01*
X155740143Y-98892872D01*
X155767063Y-98792408D01*
X155787659Y-98557000D01*
X155767063Y-98321592D01*
X155705903Y-98093337D01*
X155701505Y-98083905D01*
X155691013Y-98014827D01*
X155719533Y-97951043D01*
X155778009Y-97912804D01*
X155813887Y-97907500D01*
X157402397Y-97907500D01*
X157469436Y-97927185D01*
X157498250Y-97952835D01*
X157531117Y-97992883D01*
X157683462Y-98117910D01*
X157857273Y-98210814D01*
X158045868Y-98268024D01*
X158242000Y-98287341D01*
X158438132Y-98268024D01*
X158626727Y-98210814D01*
X158800538Y-98117910D01*
X158952883Y-97992883D01*
X159077910Y-97840538D01*
X159170814Y-97666727D01*
X159228024Y-97478132D01*
X159247341Y-97282000D01*
X159228024Y-97085868D01*
X159170814Y-96897273D01*
X159077910Y-96723462D01*
X158952883Y-96571117D01*
X158800538Y-96446090D01*
X158735494Y-96411323D01*
X158626726Y-96353185D01*
X158438133Y-96295976D01*
X158242000Y-96276659D01*
X158045866Y-96295976D01*
X157857273Y-96353185D01*
X157683462Y-96446089D01*
X157531116Y-96571117D01*
X157498250Y-96611165D01*
X157440504Y-96650499D01*
X157402397Y-96656500D01*
X156007453Y-96656500D01*
X155940414Y-96636815D01*
X155919772Y-96620181D01*
X155772237Y-96472646D01*
X155738752Y-96411323D01*
X155740143Y-96352872D01*
X155767063Y-96252408D01*
X155787659Y-96017000D01*
X155767063Y-95781592D01*
X155705903Y-95553337D01*
X155606035Y-95339171D01*
X155470495Y-95145599D01*
X155303401Y-94978505D01*
X155117839Y-94848573D01*
X155074216Y-94793998D01*
X155067022Y-94724500D01*
X155098545Y-94662145D01*
X155117837Y-94645428D01*
X155303401Y-94515495D01*
X155470495Y-94348401D01*
X155605653Y-94155374D01*
X155660229Y-94111752D01*
X155707227Y-94102500D01*
X157112798Y-94102500D01*
X157179837Y-94122185D01*
X157225592Y-94174989D01*
X157233432Y-94222045D01*
X157235462Y-94221846D01*
X157236659Y-94233999D01*
X157236659Y-94234000D01*
X157238732Y-94255047D01*
X157255976Y-94430133D01*
X157313185Y-94618726D01*
X157369723Y-94724500D01*
X157406090Y-94792538D01*
X157531117Y-94944883D01*
X157683462Y-95069910D01*
X157857273Y-95162814D01*
X158045868Y-95220024D01*
X158242000Y-95239341D01*
X158438132Y-95220024D01*
X158626727Y-95162814D01*
X158800538Y-95069910D01*
X158952883Y-94944883D01*
X159077910Y-94792538D01*
X159170814Y-94618727D01*
X159228024Y-94430132D01*
X159247341Y-94234000D01*
X159228024Y-94037868D01*
X159170814Y-93849273D01*
X159077910Y-93675462D01*
X158952883Y-93523117D01*
X158800538Y-93398090D01*
X158750762Y-93371484D01*
X158626726Y-93305185D01*
X158438133Y-93247976D01*
X158241997Y-93228658D01*
X158190438Y-93233736D01*
X158121792Y-93220716D01*
X158090605Y-93198014D01*
X157985802Y-93093211D01*
X157972906Y-93077113D01*
X157921775Y-93029098D01*
X157918978Y-93026387D01*
X157902227Y-93009636D01*
X157899471Y-93006880D01*
X157896290Y-93004412D01*
X157887422Y-92996837D01*
X157855582Y-92966938D01*
X157838024Y-92957285D01*
X157821764Y-92946604D01*
X157805936Y-92934327D01*
X157765851Y-92916980D01*
X157755361Y-92911841D01*
X157717091Y-92890802D01*
X157697691Y-92885821D01*
X157679284Y-92879519D01*
X157660897Y-92871562D01*
X157617758Y-92864729D01*
X157606324Y-92862361D01*
X157564019Y-92851500D01*
X157543984Y-92851500D01*
X157524586Y-92849973D01*
X157517162Y-92848797D01*
X157504805Y-92846840D01*
X157504804Y-92846840D01*
X157471751Y-92849964D01*
X157461325Y-92850950D01*
X157449656Y-92851500D01*
X155707226Y-92851500D01*
X155640187Y-92831815D01*
X155605651Y-92798623D01*
X155558345Y-92731063D01*
X155470495Y-92605599D01*
X155303401Y-92438505D01*
X155117402Y-92308267D01*
X155073780Y-92253692D01*
X155066587Y-92184193D01*
X155098109Y-92121839D01*
X155117405Y-92105119D01*
X155303078Y-91975109D01*
X155470106Y-91808081D01*
X155605600Y-91614576D01*
X155705430Y-91400492D01*
X155762636Y-91187000D01*
X154865686Y-91187000D01*
X154891493Y-91146844D01*
X154932000Y-91008889D01*
X154932000Y-90865111D01*
X154891493Y-90727156D01*
X154865686Y-90687000D01*
X155762636Y-90687000D01*
X155762635Y-90686999D01*
X155705430Y-90473507D01*
X155605599Y-90259421D01*
X155470109Y-90065921D01*
X155348053Y-89943865D01*
X155314568Y-89882542D01*
X155319552Y-89812850D01*
X155361424Y-89756917D01*
X155392397Y-89740004D01*
X155524331Y-89690796D01*
X155639546Y-89604546D01*
X155725796Y-89489331D01*
X155776091Y-89354483D01*
X155782500Y-89294873D01*
X155782500Y-89141500D01*
X155802185Y-89074461D01*
X155854989Y-89028706D01*
X155906500Y-89017500D01*
X159198051Y-89017500D01*
X159265874Y-89017500D01*
X159282058Y-89018560D01*
X159354744Y-89028130D01*
X159386009Y-89036507D01*
X159407943Y-89045593D01*
X159446166Y-89061425D01*
X159474201Y-89077611D01*
X159525860Y-89117251D01*
X159548748Y-89140139D01*
X159588388Y-89191798D01*
X159604574Y-89219833D01*
X159629491Y-89279989D01*
X159637869Y-89311254D01*
X159647439Y-89383939D01*
X159648500Y-89400126D01*
X159648500Y-100781546D01*
X159628815Y-100848585D01*
X159612181Y-100869227D01*
X157631393Y-102850014D01*
X157570070Y-102883499D01*
X157531560Y-102885736D01*
X157479999Y-102880658D01*
X157428438Y-102885736D01*
X157359792Y-102872716D01*
X157328605Y-102850014D01*
X157213802Y-102735211D01*
X157200906Y-102719113D01*
X157149775Y-102671098D01*
X157146978Y-102668387D01*
X157130227Y-102651636D01*
X157127471Y-102648880D01*
X157124290Y-102646412D01*
X157115422Y-102638837D01*
X157083582Y-102608938D01*
X157066024Y-102599285D01*
X157049764Y-102588604D01*
X157033936Y-102576327D01*
X156993851Y-102558980D01*
X156983361Y-102553841D01*
X156945091Y-102532802D01*
X156925691Y-102527821D01*
X156907284Y-102521519D01*
X156888897Y-102513562D01*
X156845758Y-102506729D01*
X156834324Y-102504361D01*
X156792019Y-102493500D01*
X156771984Y-102493500D01*
X156752586Y-102491973D01*
X156738695Y-102489773D01*
X156732805Y-102488840D01*
X156732804Y-102488840D01*
X156699751Y-102491964D01*
X156689325Y-102492950D01*
X156677656Y-102493500D01*
X155906499Y-102493500D01*
X155839460Y-102473815D01*
X155793705Y-102421011D01*
X155782499Y-102369500D01*
X155782499Y-102224439D01*
X155782499Y-102221128D01*
X155776091Y-102161517D01*
X155725796Y-102026669D01*
X155639546Y-101911454D01*
X155524331Y-101825204D01*
X155389483Y-101774909D01*
X155329873Y-101768500D01*
X155326550Y-101768500D01*
X153537439Y-101768500D01*
X153537420Y-101768500D01*
X153534128Y-101768501D01*
X153530848Y-101768853D01*
X153530840Y-101768854D01*
X153474515Y-101774909D01*
X153339669Y-101825204D01*
X153224454Y-101911454D01*
X153138204Y-102026668D01*
X153087910Y-102161515D01*
X153087909Y-102161517D01*
X153081500Y-102221127D01*
X153081500Y-102224448D01*
X153081500Y-102224449D01*
X153081500Y-102369500D01*
X153061815Y-102436539D01*
X153009011Y-102482294D01*
X152957500Y-102493500D01*
X151168269Y-102493500D01*
X151101230Y-102473815D01*
X151055475Y-102421011D01*
X151045531Y-102351853D01*
X151072718Y-102290469D01*
X151081420Y-102279948D01*
X151089279Y-102271309D01*
X151513786Y-101846802D01*
X151529881Y-101833910D01*
X151531873Y-101831788D01*
X151531877Y-101831786D01*
X151577949Y-101782723D01*
X151580534Y-101780055D01*
X151600120Y-101760471D01*
X151602585Y-101757292D01*
X151610167Y-101748416D01*
X151640062Y-101716582D01*
X151649717Y-101699018D01*
X151660394Y-101682764D01*
X151672673Y-101666936D01*
X151690018Y-101626852D01*
X151695160Y-101616356D01*
X151716197Y-101578092D01*
X151721179Y-101558684D01*
X151727481Y-101540280D01*
X151735437Y-101521896D01*
X151742269Y-101478752D01*
X151744633Y-101467338D01*
X151755500Y-101425019D01*
X151755500Y-101404983D01*
X151757027Y-101385584D01*
X151760160Y-101365804D01*
X151756049Y-101322327D01*
X151755500Y-101310658D01*
X151755500Y-100404994D01*
X151775185Y-100337955D01*
X151814404Y-100299455D01*
X151849656Y-100277712D01*
X151973712Y-100153656D01*
X152065814Y-100004334D01*
X152120999Y-99837797D01*
X152131500Y-99735009D01*
X152131499Y-98384992D01*
X152120999Y-98282203D01*
X152065814Y-98115666D01*
X151973903Y-97966654D01*
X151973711Y-97966342D01*
X151849657Y-97842288D01*
X151700334Y-97750186D01*
X151533797Y-97695000D01*
X151434141Y-97684819D01*
X151434122Y-97684818D01*
X151431009Y-97684500D01*
X151427860Y-97684500D01*
X150709141Y-97684500D01*
X150709121Y-97684500D01*
X150705992Y-97684501D01*
X150702860Y-97684820D01*
X150702858Y-97684821D01*
X150603203Y-97695000D01*
X150436665Y-97750186D01*
X150287342Y-97842288D01*
X150163288Y-97966342D01*
X150071186Y-98115665D01*
X150016000Y-98282202D01*
X150005819Y-98381858D01*
X150005817Y-98381878D01*
X150005500Y-98384991D01*
X150005500Y-98388138D01*
X150005500Y-98388139D01*
X150005500Y-99731859D01*
X150005500Y-99731878D01*
X150005501Y-99735008D01*
X150005820Y-99738140D01*
X150005821Y-99738141D01*
X150016000Y-99837796D01*
X150071186Y-100004334D01*
X150163288Y-100153657D01*
X150287342Y-100277711D01*
X150287344Y-100277712D01*
X150436666Y-100369814D01*
X150436669Y-100369815D01*
X150445596Y-100375321D01*
X150492321Y-100427268D01*
X150504500Y-100480860D01*
X150504500Y-101035545D01*
X150484815Y-101102584D01*
X150468182Y-101123226D01*
X150399228Y-101192181D01*
X150337905Y-101225666D01*
X150311546Y-101228500D01*
X149572755Y-101228500D01*
X149505716Y-101208815D01*
X149459961Y-101156011D01*
X149455049Y-101143504D01*
X149449000Y-101125249D01*
X149434362Y-101081075D01*
X149343026Y-100932997D01*
X149343025Y-100932996D01*
X149343024Y-100932994D01*
X149220005Y-100809975D01*
X149145963Y-100764305D01*
X149071925Y-100718638D01*
X149071924Y-100718637D01*
X149071923Y-100718637D01*
X148906775Y-100663912D01*
X148807980Y-100653819D01*
X148807961Y-100653818D01*
X148804848Y-100653500D01*
X148686062Y-100653500D01*
X148619023Y-100633815D01*
X148573268Y-100581011D01*
X148563324Y-100511853D01*
X148592349Y-100448297D01*
X148647058Y-100411794D01*
X148775122Y-100369357D01*
X148924345Y-100277316D01*
X149048316Y-100153345D01*
X149140357Y-100004122D01*
X149195506Y-99837696D01*
X149205680Y-99738109D01*
X149206000Y-99731831D01*
X149206000Y-99310000D01*
X148393500Y-99310000D01*
X148393500Y-100434999D01*
X148400320Y-100441819D01*
X148433805Y-100503142D01*
X148428821Y-100572834D01*
X148386949Y-100628767D01*
X148321485Y-100653184D01*
X148312639Y-100653500D01*
X148218152Y-100653500D01*
X148215039Y-100653817D01*
X148215019Y-100653819D01*
X148116224Y-100663912D01*
X147951076Y-100718637D01*
X147802994Y-100809975D01*
X147679974Y-100932995D01*
X147679538Y-100933703D01*
X147676843Y-100936126D01*
X147669725Y-100943245D01*
X147669348Y-100942868D01*
X147627589Y-100980427D01*
X147558627Y-100991648D01*
X147494545Y-100963804D01*
X147468462Y-100933703D01*
X147468025Y-100932995D01*
X147345005Y-100809975D01*
X147270963Y-100764305D01*
X147196925Y-100718638D01*
X147196924Y-100718637D01*
X147196923Y-100718637D01*
X147031775Y-100663912D01*
X146932980Y-100653819D01*
X146932961Y-100653818D01*
X146929848Y-100653500D01*
X146885507Y-100653500D01*
X146818468Y-100633815D01*
X146772713Y-100581011D01*
X146762769Y-100511853D01*
X146791794Y-100448297D01*
X146846503Y-100411794D01*
X146899122Y-100394357D01*
X147048344Y-100302316D01*
X147130317Y-100220343D01*
X147191640Y-100186857D01*
X147261331Y-100191841D01*
X147305680Y-100220342D01*
X147362654Y-100277316D01*
X147511877Y-100369357D01*
X147678303Y-100424506D01*
X147777890Y-100434680D01*
X147784168Y-100434999D01*
X147893499Y-100434999D01*
X147893500Y-100434998D01*
X147893500Y-99310000D01*
X145180001Y-99310000D01*
X145180001Y-99756829D01*
X145180321Y-99763111D01*
X145190493Y-99862695D01*
X145245642Y-100029122D01*
X145337683Y-100178345D01*
X145461654Y-100302316D01*
X145610877Y-100394357D01*
X145777303Y-100449506D01*
X145876890Y-100459680D01*
X145883168Y-100459999D01*
X146088168Y-100459999D01*
X146155208Y-100479683D01*
X146200963Y-100532487D01*
X146210907Y-100601645D01*
X146181882Y-100665201D01*
X146127174Y-100701705D01*
X146076075Y-100718638D01*
X145927994Y-100809975D01*
X145804974Y-100932995D01*
X145773086Y-100984694D01*
X145721138Y-101031418D01*
X145652175Y-101042639D01*
X145588093Y-101014796D01*
X145579867Y-101007277D01*
X145037637Y-100465047D01*
X144416816Y-99844225D01*
X144383333Y-99782905D01*
X144380499Y-99756556D01*
X144380499Y-98810000D01*
X145180000Y-98810000D01*
X146005000Y-98810000D01*
X146005000Y-97660000D01*
X146505000Y-97660000D01*
X146505000Y-98810000D01*
X147893500Y-98810000D01*
X147893500Y-97685000D01*
X148393500Y-97685000D01*
X148393500Y-98810000D01*
X149205999Y-98810000D01*
X149205999Y-98388170D01*
X149205678Y-98381888D01*
X149195506Y-98282304D01*
X149140357Y-98115877D01*
X149048316Y-97966654D01*
X148924345Y-97842683D01*
X148775122Y-97750642D01*
X148608696Y-97695493D01*
X148509109Y-97685319D01*
X148502832Y-97685000D01*
X148393500Y-97685000D01*
X147893500Y-97685000D01*
X147784171Y-97685000D01*
X147777888Y-97685321D01*
X147678304Y-97695493D01*
X147511877Y-97750642D01*
X147362654Y-97842683D01*
X147305681Y-97899657D01*
X147244358Y-97933142D01*
X147174666Y-97928158D01*
X147130319Y-97899657D01*
X147048345Y-97817683D01*
X146899122Y-97725642D01*
X146732696Y-97670493D01*
X146633109Y-97660319D01*
X146626832Y-97660000D01*
X146505000Y-97660000D01*
X146005000Y-97660000D01*
X145883171Y-97660000D01*
X145876888Y-97660321D01*
X145777304Y-97670493D01*
X145610877Y-97725642D01*
X145461654Y-97817683D01*
X145337683Y-97941654D01*
X145245642Y-98090877D01*
X145190493Y-98257303D01*
X145180319Y-98356890D01*
X145180000Y-98363168D01*
X145180000Y-98810000D01*
X144380499Y-98810000D01*
X144380499Y-98359992D01*
X144369999Y-98257203D01*
X144314814Y-98090666D01*
X144229800Y-97952835D01*
X144222711Y-97941342D01*
X144098657Y-97817288D01*
X143949334Y-97725185D01*
X143925472Y-97717278D01*
X143868028Y-97677504D01*
X143841207Y-97612988D01*
X143840479Y-97599573D01*
X143840479Y-97154082D01*
X143860164Y-97087043D01*
X143865214Y-97079769D01*
X143865220Y-97079760D01*
X143874675Y-97067131D01*
X143924970Y-96932283D01*
X143931379Y-96872673D01*
X143931378Y-95773628D01*
X143924970Y-95714017D01*
X143874675Y-95579169D01*
X143788425Y-95463954D01*
X143673210Y-95377704D01*
X143538362Y-95327409D01*
X143486686Y-95321853D01*
X143482045Y-95321354D01*
X143482044Y-95321353D01*
X143478752Y-95321000D01*
X143475429Y-95321000D01*
X142954518Y-95321000D01*
X142954499Y-95321000D01*
X142951207Y-95321001D01*
X142947932Y-95321353D01*
X142947914Y-95321354D01*
X142900892Y-95326409D01*
X142874386Y-95326409D01*
X142832010Y-95321853D01*
X142825411Y-95321500D01*
X142780893Y-95321500D01*
X142770940Y-95331452D01*
X142761208Y-95364598D01*
X142731204Y-95396826D01*
X142639304Y-95465622D01*
X142573840Y-95490039D01*
X142505567Y-95475187D01*
X142490682Y-95465622D01*
X142398782Y-95396826D01*
X142356911Y-95340892D01*
X142354363Y-95326770D01*
X142349093Y-95321500D01*
X142304575Y-95321500D01*
X142297975Y-95321853D01*
X142255600Y-95326409D01*
X142229093Y-95326409D01*
X142182076Y-95321354D01*
X142182069Y-95321353D01*
X142178780Y-95321000D01*
X142175457Y-95321000D01*
X141654546Y-95321000D01*
X141654527Y-95321000D01*
X141651235Y-95321001D01*
X141647960Y-95321353D01*
X141647942Y-95321354D01*
X141603264Y-95326157D01*
X141576759Y-95326157D01*
X141536728Y-95321853D01*
X141532087Y-95321354D01*
X141532086Y-95321353D01*
X141528794Y-95321000D01*
X141525471Y-95321000D01*
X141004560Y-95321000D01*
X141004541Y-95321000D01*
X141001249Y-95321001D01*
X140997969Y-95321353D01*
X140997961Y-95321354D01*
X140941636Y-95327409D01*
X140806790Y-95377704D01*
X140691575Y-95463954D01*
X140605325Y-95579168D01*
X140555031Y-95714015D01*
X140555030Y-95714017D01*
X140548621Y-95773627D01*
X140548621Y-95776949D01*
X140548621Y-96103596D01*
X140528936Y-96170635D01*
X140512302Y-96191277D01*
X139005331Y-97698247D01*
X138944008Y-97731732D01*
X138878646Y-97728272D01*
X138869334Y-97725186D01*
X138837753Y-97714721D01*
X138702797Y-97670000D01*
X138603141Y-97659819D01*
X138603122Y-97659818D01*
X138600009Y-97659500D01*
X138596860Y-97659500D01*
X137853141Y-97659500D01*
X137853121Y-97659500D01*
X137849992Y-97659501D01*
X137846860Y-97659820D01*
X137846858Y-97659821D01*
X137747203Y-97670000D01*
X137580665Y-97725186D01*
X137431342Y-97817288D01*
X137307288Y-97941342D01*
X137215186Y-98090665D01*
X137160000Y-98257202D01*
X137149819Y-98356858D01*
X137149817Y-98356878D01*
X137149500Y-98359991D01*
X137149500Y-98363138D01*
X137149500Y-98363139D01*
X137149500Y-99756859D01*
X137149500Y-99756878D01*
X137149501Y-99760008D01*
X137149820Y-99763140D01*
X137149821Y-99763141D01*
X137160000Y-99862796D01*
X137215185Y-100029332D01*
X137215186Y-100029334D01*
X137278039Y-100131235D01*
X137296500Y-100196331D01*
X137296500Y-101776396D01*
X137276815Y-101843435D01*
X137251166Y-101872248D01*
X137211117Y-101905116D01*
X137086089Y-102057462D01*
X136993185Y-102231273D01*
X136935976Y-102419866D01*
X136916659Y-102616000D01*
X136935976Y-102812133D01*
X136993185Y-103000726D01*
X136993186Y-103000727D01*
X137086090Y-103174538D01*
X137211117Y-103326883D01*
X137251165Y-103359749D01*
X137290499Y-103417493D01*
X137296500Y-103455602D01*
X137296500Y-104811489D01*
X137276815Y-104878528D01*
X137237596Y-104917028D01*
X137082342Y-105012788D01*
X136958288Y-105136842D01*
X136866186Y-105286165D01*
X136811000Y-105452702D01*
X136800819Y-105552358D01*
X136800817Y-105552378D01*
X136800500Y-105555491D01*
X136800500Y-105558638D01*
X136800500Y-105558639D01*
X136800500Y-106277358D01*
X136800500Y-106277377D01*
X136800501Y-106280508D01*
X136800820Y-106283640D01*
X136800821Y-106283641D01*
X136811000Y-106383296D01*
X136866186Y-106549834D01*
X136958288Y-106699157D01*
X137082342Y-106823211D01*
X137097564Y-106832600D01*
X137231666Y-106915314D01*
X137343017Y-106952212D01*
X137398202Y-106970499D01*
X137497858Y-106980680D01*
X137497859Y-106980680D01*
X137500991Y-106981000D01*
X138303046Y-106980999D01*
X138370085Y-107000683D01*
X138390727Y-107017318D01*
X138941891Y-107568482D01*
X138975376Y-107629805D01*
X138970392Y-107699497D01*
X138928520Y-107755430D01*
X138863056Y-107779847D01*
X138850196Y-107779979D01*
X138851009Y-107780000D01*
X138848195Y-107780000D01*
X138848194Y-107780000D01*
X138847845Y-107780000D01*
X137504140Y-107780000D01*
X137504120Y-107780000D01*
X137500992Y-107780001D01*
X137497860Y-107780320D01*
X137497858Y-107780321D01*
X137398203Y-107790500D01*
X137231665Y-107845686D01*
X137082342Y-107937788D01*
X136958288Y-108061842D01*
X136866186Y-108211165D01*
X136811000Y-108377702D01*
X136800819Y-108477358D01*
X136800817Y-108477378D01*
X136800500Y-108480491D01*
X136800500Y-108483638D01*
X136800500Y-108483639D01*
X136800500Y-109055217D01*
X136780815Y-109122256D01*
X136728011Y-109168011D01*
X136658853Y-109177955D01*
X136595297Y-109148930D01*
X136588819Y-109142898D01*
X135656819Y-108210898D01*
X135623334Y-108149575D01*
X135620500Y-108123217D01*
X135620500Y-99356754D01*
X135620858Y-99347339D01*
X135622585Y-99324659D01*
X135625337Y-99288524D01*
X135621493Y-99258339D01*
X135620500Y-99242676D01*
X135620500Y-98312237D01*
X135620540Y-98309095D01*
X135622756Y-98221638D01*
X135612351Y-98163585D01*
X135611042Y-98154253D01*
X135605074Y-98095562D01*
X135595967Y-98066537D01*
X135592223Y-98051286D01*
X135586857Y-98021343D01*
X135564976Y-97966565D01*
X135561816Y-97957689D01*
X135554114Y-97933142D01*
X135544159Y-97901412D01*
X135529395Y-97874812D01*
X135522660Y-97860631D01*
X135514634Y-97840538D01*
X135511377Y-97832383D01*
X135478917Y-97783131D01*
X135474036Y-97775074D01*
X135470717Y-97769094D01*
X135445409Y-97723498D01*
X135425582Y-97700403D01*
X135416146Y-97687888D01*
X135399402Y-97662481D01*
X135399400Y-97662479D01*
X135399399Y-97662477D01*
X135357700Y-97620779D01*
X135351294Y-97613867D01*
X135312868Y-97569106D01*
X135288805Y-97550480D01*
X135277026Y-97540105D01*
X134773819Y-97036898D01*
X134740334Y-96975575D01*
X134737500Y-96949217D01*
X134737500Y-90778076D01*
X135889476Y-90778076D01*
X136013465Y-90844349D01*
X136201969Y-90901531D01*
X136397999Y-90920838D01*
X136594030Y-90901531D01*
X136782538Y-90844347D01*
X136906522Y-90778077D01*
X136906522Y-90778076D01*
X136398001Y-90269553D01*
X136398000Y-90269553D01*
X135889476Y-90778076D01*
X134737500Y-90778076D01*
X134737500Y-90755602D01*
X134757185Y-90688563D01*
X134782833Y-90659750D01*
X134822883Y-90626883D01*
X134947910Y-90474538D01*
X135040814Y-90300727D01*
X135098024Y-90112132D01*
X135117341Y-89916000D01*
X135393161Y-89916000D01*
X135412468Y-90112032D01*
X135469650Y-90300537D01*
X135535921Y-90424522D01*
X135535922Y-90424522D01*
X136044445Y-89915999D01*
X136751553Y-89915999D01*
X137260077Y-90424523D01*
X137326347Y-90300538D01*
X137383531Y-90112030D01*
X137402838Y-89916000D01*
X137383531Y-89719969D01*
X137326349Y-89531465D01*
X137260076Y-89407476D01*
X136751553Y-89915998D01*
X136751553Y-89915999D01*
X136044445Y-89915999D01*
X136044446Y-89915998D01*
X135535923Y-89407475D01*
X135535922Y-89407476D01*
X135469649Y-89531466D01*
X135412468Y-89719967D01*
X135393161Y-89916000D01*
X135117341Y-89916000D01*
X135098024Y-89719868D01*
X135040814Y-89531273D01*
X134947910Y-89357462D01*
X134822883Y-89205117D01*
X134670538Y-89080090D01*
X134621581Y-89053922D01*
X135889476Y-89053922D01*
X136398000Y-89562446D01*
X136398001Y-89562446D01*
X136906522Y-89053922D01*
X136906522Y-89053921D01*
X136782537Y-88987650D01*
X136594032Y-88930468D01*
X136398000Y-88911161D01*
X136201967Y-88930468D01*
X136013466Y-88987649D01*
X135889476Y-89053922D01*
X134621581Y-89053922D01*
X134577315Y-89030261D01*
X134496726Y-88987185D01*
X134308133Y-88929976D01*
X134112000Y-88910659D01*
X133915866Y-88929976D01*
X133727273Y-88987185D01*
X133553463Y-89080089D01*
X133401117Y-89205117D01*
X133276089Y-89357463D01*
X133183185Y-89531273D01*
X133125976Y-89719866D01*
X133106659Y-89916000D01*
X133125976Y-90112133D01*
X133183185Y-90300726D01*
X133276089Y-90474537D01*
X133401117Y-90626883D01*
X133441164Y-90659749D01*
X133480498Y-90717495D01*
X133486499Y-90755602D01*
X133486500Y-96465850D01*
X133466815Y-96532889D01*
X133414011Y-96578644D01*
X133362500Y-96589850D01*
X131521729Y-96589850D01*
X131478396Y-96582032D01*
X131382485Y-96546259D01*
X131326166Y-96540204D01*
X131326165Y-96540203D01*
X131322873Y-96539850D01*
X131319550Y-96539850D01*
X129780439Y-96539850D01*
X129780420Y-96539850D01*
X129777128Y-96539851D01*
X129773848Y-96540203D01*
X129773840Y-96540204D01*
X129717515Y-96546259D01*
X129582669Y-96596554D01*
X129467454Y-96682804D01*
X129381204Y-96798018D01*
X129331127Y-96932283D01*
X129330909Y-96932867D01*
X129324500Y-96992477D01*
X129324500Y-96995798D01*
X129324500Y-96995799D01*
X129324500Y-98184910D01*
X129324500Y-98184928D01*
X129324501Y-98188222D01*
X129324853Y-98191502D01*
X129324854Y-98191509D01*
X129330909Y-98247834D01*
X129353758Y-98309095D01*
X129381204Y-98382681D01*
X129467454Y-98497896D01*
X129478138Y-98512168D01*
X129475573Y-98514087D01*
X129500224Y-98547017D01*
X129505208Y-98616709D01*
X129477266Y-98667880D01*
X129478138Y-98668533D01*
X129473599Y-98674596D01*
X129471723Y-98678032D01*
X129469741Y-98679748D01*
X129381204Y-98798019D01*
X129345827Y-98892872D01*
X129330909Y-98932868D01*
X129324500Y-98992478D01*
X129324500Y-98995799D01*
X129324500Y-98995800D01*
X129324500Y-100184911D01*
X129324500Y-100184929D01*
X129324501Y-100188223D01*
X129324853Y-100191503D01*
X129324854Y-100191510D01*
X129327954Y-100220343D01*
X129330909Y-100247834D01*
X129381204Y-100382682D01*
X129453819Y-100479683D01*
X129478138Y-100512169D01*
X129475690Y-100514001D01*
X129500638Y-100547323D01*
X129505625Y-100617015D01*
X129477648Y-100668255D01*
X129478495Y-100668889D01*
X129474089Y-100674774D01*
X129472143Y-100678339D01*
X129470086Y-100680121D01*
X129381647Y-100798260D01*
X129331400Y-100932978D01*
X129325354Y-100989217D01*
X129325000Y-100995831D01*
X129325000Y-101340350D01*
X131775000Y-101340350D01*
X131775000Y-100995831D01*
X131774645Y-100989217D01*
X131768599Y-100932978D01*
X131718351Y-100798258D01*
X131711541Y-100789161D01*
X131687124Y-100723697D01*
X131701976Y-100655424D01*
X131751381Y-100606019D01*
X131810808Y-100590851D01*
X133495500Y-100590851D01*
X133562539Y-100610536D01*
X133608294Y-100663340D01*
X133619500Y-100714851D01*
X133619499Y-108574721D01*
X133619459Y-108577861D01*
X133617242Y-108665361D01*
X133627648Y-108723420D01*
X133628957Y-108732749D01*
X133634926Y-108791438D01*
X133644033Y-108820467D01*
X133647772Y-108835702D01*
X133653141Y-108865652D01*
X133675020Y-108920425D01*
X133678180Y-108929300D01*
X133695841Y-108985588D01*
X133710607Y-109012191D01*
X133717337Y-109026364D01*
X133728622Y-109054617D01*
X133761080Y-109103867D01*
X133765961Y-109111923D01*
X133794590Y-109163501D01*
X133814404Y-109186581D01*
X133823856Y-109199116D01*
X133840599Y-109224520D01*
X133882300Y-109266221D01*
X133888705Y-109273132D01*
X133927130Y-109317891D01*
X133927131Y-109317892D01*
X133927134Y-109317895D01*
X133951198Y-109336522D01*
X133962968Y-109346889D01*
X135671898Y-111055819D01*
X135705383Y-111117142D01*
X135700399Y-111186834D01*
X135658527Y-111242767D01*
X135593063Y-111267184D01*
X135584217Y-111267500D01*
X134069782Y-111267500D01*
X134002743Y-111247815D01*
X133982101Y-111231181D01*
X132538567Y-109787647D01*
X132536412Y-109785438D01*
X132476059Y-109721947D01*
X132427640Y-109688246D01*
X132420118Y-109682575D01*
X132374405Y-109645300D01*
X132347440Y-109631215D01*
X132334019Y-109623084D01*
X132309049Y-109605705D01*
X132309048Y-109605704D01*
X132309046Y-109605703D01*
X132254845Y-109582443D01*
X132246336Y-109578402D01*
X132194053Y-109551092D01*
X132188126Y-109549396D01*
X132164798Y-109542721D01*
X132150020Y-109537459D01*
X132122058Y-109525460D01*
X132064272Y-109513583D01*
X132055128Y-109511338D01*
X131998421Y-109495113D01*
X131968075Y-109492802D01*
X131952534Y-109490622D01*
X131922742Y-109484500D01*
X131922741Y-109484500D01*
X131863758Y-109484500D01*
X131854344Y-109484142D01*
X131845198Y-109483445D01*
X131795524Y-109479663D01*
X131795523Y-109479663D01*
X131795522Y-109479663D01*
X131765349Y-109483506D01*
X131749683Y-109484500D01*
X127656351Y-109484500D01*
X127589312Y-109464815D01*
X127543557Y-109412011D01*
X127533061Y-109373753D01*
X127528091Y-109327517D01*
X127477796Y-109192669D01*
X127391546Y-109077454D01*
X127276331Y-108991204D01*
X127141483Y-108940909D01*
X127081873Y-108934500D01*
X127078550Y-108934500D01*
X124889439Y-108934500D01*
X124889420Y-108934500D01*
X124886128Y-108934501D01*
X124882848Y-108934853D01*
X124882840Y-108934854D01*
X124826515Y-108940909D01*
X124691669Y-108991204D01*
X124576454Y-109077454D01*
X124490204Y-109192668D01*
X124439909Y-109327516D01*
X124435784Y-109365888D01*
X124433500Y-109387127D01*
X124433500Y-109390448D01*
X124433500Y-109390449D01*
X124433500Y-111579560D01*
X124433500Y-111579578D01*
X124433501Y-111582872D01*
X124433853Y-111586152D01*
X124433854Y-111586159D01*
X124439909Y-111642483D01*
X124490204Y-111777331D01*
X124526779Y-111826189D01*
X124576455Y-111892548D01*
X124680032Y-111970086D01*
X124721903Y-112026019D01*
X124726887Y-112095711D01*
X124711449Y-112134142D01*
X124598219Y-112318916D01*
X124504828Y-112544384D01*
X124447854Y-112781696D01*
X124428706Y-113024999D01*
X121666499Y-113024999D01*
X121666499Y-107204867D01*
X122625000Y-107204867D01*
X122625355Y-107211481D01*
X122631401Y-107267720D01*
X122681648Y-107402438D01*
X122767812Y-107517537D01*
X122882911Y-107603701D01*
X123017629Y-107653948D01*
X123073868Y-107659994D01*
X123080483Y-107660349D01*
X124325000Y-107660349D01*
X124325001Y-106735349D01*
X124825001Y-106735349D01*
X124825001Y-107660349D01*
X126069519Y-107660349D01*
X126076133Y-107659994D01*
X126132372Y-107653948D01*
X126267090Y-107603701D01*
X126382189Y-107517537D01*
X126468353Y-107402438D01*
X126518600Y-107267720D01*
X126524646Y-107211481D01*
X126525000Y-107204867D01*
X126525001Y-106735349D01*
X124825001Y-106735349D01*
X124325001Y-106735349D01*
X122625001Y-106735349D01*
X122625000Y-107204867D01*
X121666499Y-107204867D01*
X121666499Y-105765830D01*
X122625000Y-105765830D01*
X122625001Y-106235349D01*
X124325000Y-106235349D01*
X124325001Y-105310349D01*
X124825001Y-105310349D01*
X124825001Y-106235349D01*
X126525001Y-106235349D01*
X126525001Y-106235348D01*
X126525000Y-105765830D01*
X126524646Y-105759216D01*
X126518600Y-105702977D01*
X126468353Y-105568259D01*
X126382189Y-105453160D01*
X126267090Y-105366996D01*
X126132372Y-105316749D01*
X126076133Y-105310703D01*
X126069519Y-105310349D01*
X124825001Y-105310349D01*
X124325001Y-105310349D01*
X123080483Y-105310349D01*
X123073868Y-105310703D01*
X123017629Y-105316749D01*
X122882911Y-105366996D01*
X122767812Y-105453160D01*
X122681648Y-105568259D01*
X122631401Y-105702977D01*
X122625355Y-105759216D01*
X122625000Y-105765830D01*
X121666499Y-105765830D01*
X121666499Y-103840351D01*
X129325000Y-103840351D01*
X129325000Y-104184869D01*
X129325354Y-104191483D01*
X129331400Y-104247722D01*
X129381647Y-104382440D01*
X129467811Y-104497539D01*
X129582910Y-104583703D01*
X129717628Y-104633950D01*
X129773867Y-104639996D01*
X129780482Y-104640351D01*
X130300000Y-104640351D01*
X130300000Y-103840351D01*
X130800000Y-103840351D01*
X130800000Y-104640351D01*
X131319518Y-104640351D01*
X131326132Y-104639996D01*
X131382371Y-104633950D01*
X131517089Y-104583703D01*
X131632188Y-104497539D01*
X131718352Y-104382440D01*
X131768599Y-104247722D01*
X131774645Y-104191483D01*
X131775000Y-104184869D01*
X131775000Y-103840351D01*
X130800000Y-103840351D01*
X130300000Y-103840351D01*
X129325000Y-103840351D01*
X121666499Y-103840351D01*
X121666499Y-101840350D01*
X129325000Y-101840350D01*
X129325000Y-102184868D01*
X129325354Y-102191482D01*
X129331400Y-102247721D01*
X129381647Y-102382439D01*
X129478495Y-102511811D01*
X129476064Y-102513630D01*
X129501058Y-102547016D01*
X129506042Y-102616708D01*
X129477823Y-102668387D01*
X129478495Y-102668890D01*
X129474999Y-102673558D01*
X129472558Y-102678031D01*
X129469979Y-102680265D01*
X129381647Y-102798261D01*
X129331400Y-102932979D01*
X129325354Y-102989218D01*
X129325000Y-102995832D01*
X129325000Y-103340351D01*
X130300000Y-103340351D01*
X130300000Y-101840350D01*
X130800000Y-101840350D01*
X130800000Y-103340351D01*
X131775000Y-103340351D01*
X131775000Y-102995832D01*
X131774645Y-102989218D01*
X131768599Y-102932979D01*
X131718352Y-102798261D01*
X131621505Y-102668890D01*
X131623934Y-102667071D01*
X131598940Y-102633681D01*
X131593957Y-102563989D01*
X131622176Y-102512313D01*
X131621505Y-102511811D01*
X131625000Y-102507141D01*
X131627444Y-102502667D01*
X131630023Y-102500432D01*
X131718352Y-102382439D01*
X131768599Y-102247721D01*
X131774645Y-102191482D01*
X131775000Y-102184868D01*
X131775000Y-101840350D01*
X130800000Y-101840350D01*
X130300000Y-101840350D01*
X129325000Y-101840350D01*
X121666499Y-101840350D01*
X121666499Y-95414870D01*
X122625000Y-95414870D01*
X122625355Y-95421484D01*
X122631401Y-95477723D01*
X122681648Y-95612441D01*
X122767812Y-95727540D01*
X122882911Y-95813704D01*
X123017629Y-95863951D01*
X123073868Y-95869997D01*
X123080483Y-95870352D01*
X124325000Y-95870352D01*
X124325001Y-94945352D01*
X124825001Y-94945352D01*
X124825001Y-95870352D01*
X126069519Y-95870352D01*
X126076133Y-95869997D01*
X126132372Y-95863951D01*
X126267090Y-95813704D01*
X126382189Y-95727540D01*
X126468353Y-95612441D01*
X126518600Y-95477723D01*
X126524646Y-95421484D01*
X126525000Y-95414870D01*
X126525001Y-94945352D01*
X124825001Y-94945352D01*
X124325001Y-94945352D01*
X122625001Y-94945352D01*
X122625000Y-95414870D01*
X121666499Y-95414870D01*
X121666499Y-93975833D01*
X122625000Y-93975833D01*
X122625001Y-94445352D01*
X124325000Y-94445352D01*
X124325001Y-93520352D01*
X124825001Y-93520352D01*
X124825001Y-94445352D01*
X126525001Y-94445352D01*
X126525000Y-93975833D01*
X126524646Y-93969219D01*
X126518600Y-93912980D01*
X126468353Y-93778262D01*
X126382189Y-93663163D01*
X126267090Y-93576999D01*
X126132372Y-93526752D01*
X126076133Y-93520706D01*
X126069519Y-93520352D01*
X124825001Y-93520352D01*
X124325001Y-93520352D01*
X123080483Y-93520352D01*
X123073868Y-93520706D01*
X123017629Y-93526752D01*
X122882911Y-93576999D01*
X122767812Y-93663163D01*
X122681648Y-93778262D01*
X122631401Y-93912980D01*
X122625355Y-93969219D01*
X122625000Y-93975833D01*
X121666499Y-93975833D01*
X121666499Y-86594424D01*
X121666815Y-86585580D01*
X121671478Y-86520387D01*
X121682720Y-86377557D01*
X121685171Y-86360931D01*
X121704619Y-86271531D01*
X121705211Y-86268944D01*
X121707118Y-86260997D01*
X121731984Y-86157425D01*
X121736361Y-86143085D01*
X121770233Y-86052272D01*
X121771810Y-86048263D01*
X121813673Y-85947197D01*
X121819382Y-85935263D01*
X121866831Y-85848367D01*
X121869852Y-85843149D01*
X121925994Y-85751534D01*
X121932421Y-85742063D01*
X121992261Y-85662127D01*
X121997173Y-85655986D01*
X122066440Y-85574885D01*
X122073001Y-85567788D01*
X122143788Y-85497001D01*
X122150885Y-85490440D01*
X122231986Y-85421173D01*
X122238127Y-85416261D01*
X122318063Y-85356421D01*
X122327534Y-85349994D01*
X122419149Y-85293852D01*
X122424367Y-85290831D01*
X122511263Y-85243382D01*
X122523197Y-85237673D01*
X122624263Y-85195810D01*
X122628242Y-85194244D01*
X122719085Y-85160361D01*
X122733426Y-85155983D01*
X122845071Y-85129180D01*
X122847459Y-85128634D01*
X122936939Y-85109169D01*
X122953549Y-85106720D01*
X123096290Y-85095485D01*
X123161607Y-85090814D01*
X123170424Y-85090500D01*
X159027901Y-85090500D01*
X160801574Y-85090500D01*
X160810417Y-85090815D01*
G37*
%TD.AperFunction*%
%TD*%
M02*
