%TF.GenerationSoftware,KiCad,Pcbnew,8.0.5*%
%TF.CreationDate,2024-10-21T02:11:06+05:30*%
%TF.ProjectId,EPS_PDB,4550535f-5044-4422-9e6b-696361645f70,rev?*%
%TF.SameCoordinates,Original*%
%TF.FileFunction,Paste,Top*%
%TF.FilePolarity,Positive*%
%FSLAX46Y46*%
G04 Gerber Fmt 4.6, Leading zero omitted, Abs format (unit mm)*
G04 Created by KiCad (PCBNEW 8.0.5) date 2024-10-21 02:11:06*
%MOMM*%
%LPD*%
G01*
G04 APERTURE LIST*
G04 Aperture macros list*
%AMRoundRect*
0 Rectangle with rounded corners*
0 $1 Rounding radius*
0 $2 $3 $4 $5 $6 $7 $8 $9 X,Y pos of 4 corners*
0 Add a 4 corners polygon primitive as box body*
4,1,4,$2,$3,$4,$5,$6,$7,$8,$9,$2,$3,0*
0 Add four circle primitives for the rounded corners*
1,1,$1+$1,$2,$3*
1,1,$1+$1,$4,$5*
1,1,$1+$1,$6,$7*
1,1,$1+$1,$8,$9*
0 Add four rect primitives between the rounded corners*
20,1,$1+$1,$2,$3,$4,$5,0*
20,1,$1+$1,$4,$5,$6,$7,0*
20,1,$1+$1,$6,$7,$8,$9,0*
20,1,$1+$1,$8,$9,$2,$3,0*%
%AMRotRect*
0 Rectangle, with rotation*
0 The origin of the aperture is its center*
0 $1 length*
0 $2 width*
0 $3 Rotation angle, in degrees counterclockwise*
0 Add horizontal line*
21,1,$1,$2,0,0,$3*%
G04 Aperture macros list end*
%ADD10C,0.010000*%
%ADD11C,0.025400*%
%ADD12RoundRect,0.200000X-0.200000X-0.275000X0.200000X-0.275000X0.200000X0.275000X-0.200000X0.275000X0*%
%ADD13RoundRect,0.200000X-0.275000X0.200000X-0.275000X-0.200000X0.275000X-0.200000X0.275000X0.200000X0*%
%ADD14RoundRect,0.200000X0.200000X0.275000X-0.200000X0.275000X-0.200000X-0.275000X0.200000X-0.275000X0*%
%ADD15RoundRect,0.225000X0.017678X-0.335876X0.335876X-0.017678X-0.017678X0.335876X-0.335876X0.017678X0*%
%ADD16RoundRect,0.250000X0.325000X0.650000X-0.325000X0.650000X-0.325000X-0.650000X0.325000X-0.650000X0*%
%ADD17RoundRect,0.225000X-0.017678X0.335876X-0.335876X0.017678X0.017678X-0.335876X0.335876X-0.017678X0*%
%ADD18RoundRect,0.225000X0.225000X0.250000X-0.225000X0.250000X-0.225000X-0.250000X0.225000X-0.250000X0*%
%ADD19RoundRect,0.250000X-0.650000X0.325000X-0.650000X-0.325000X0.650000X-0.325000X0.650000X0.325000X0*%
%ADD20RoundRect,0.225000X-0.225000X-0.250000X0.225000X-0.250000X0.225000X0.250000X-0.225000X0.250000X0*%
%ADD21R,0.304800X0.787400*%
%ADD22RoundRect,0.051250X0.733750X0.153750X-0.733750X0.153750X-0.733750X-0.153750X0.733750X-0.153750X0*%
%ADD23RoundRect,0.200000X0.053033X-0.335876X0.335876X-0.053033X-0.053033X0.335876X-0.335876X0.053033X0*%
%ADD24RotRect,1.422400X0.355600X135.000000*%
%ADD25RoundRect,0.250000X0.375000X0.625000X-0.375000X0.625000X-0.375000X-0.625000X0.375000X-0.625000X0*%
%ADD26RoundRect,0.225000X-0.250000X0.225000X-0.250000X-0.225000X0.250000X-0.225000X0.250000X0.225000X0*%
%ADD27RoundRect,0.400000X-3.275000X0.400000X-3.275000X-0.400000X3.275000X-0.400000X3.275000X0.400000X0*%
%ADD28RotRect,1.000000X1.800000X225.000000*%
%ADD29RoundRect,0.250000X-0.503814X-0.132583X-0.132583X-0.503814X0.503814X0.132583X0.132583X0.503814X0*%
%ADD30RoundRect,0.200000X0.335876X0.053033X0.053033X0.335876X-0.335876X-0.053033X-0.053033X-0.335876X0*%
%ADD31RoundRect,0.225000X0.335876X0.017678X0.017678X0.335876X-0.335876X-0.017678X-0.017678X-0.335876X0*%
%ADD32RoundRect,0.060000X0.180000X-0.665000X0.180000X0.665000X-0.180000X0.665000X-0.180000X-0.665000X0*%
%ADD33RoundRect,0.350000X2.050000X0.350000X-2.050000X0.350000X-2.050000X-0.350000X2.050000X-0.350000X0*%
%ADD34RotRect,0.876300X0.406400X315.000000*%
%ADD35RoundRect,0.225000X0.250000X-0.225000X0.250000X0.225000X-0.250000X0.225000X-0.250000X-0.225000X0*%
%ADD36RoundRect,0.200000X-0.053033X0.335876X-0.335876X0.053033X0.053033X-0.335876X0.335876X-0.053033X0*%
%ADD37RoundRect,0.250000X-0.325000X-0.650000X0.325000X-0.650000X0.325000X0.650000X-0.325000X0.650000X0*%
%ADD38RoundRect,0.243750X-0.243750X-0.456250X0.243750X-0.456250X0.243750X0.456250X-0.243750X0.456250X0*%
G04 APERTURE END LIST*
D10*
%TO.C,U17*%
X181906999Y-100515000D02*
X181456999Y-100515000D01*
X181456999Y-98365000D01*
X181906999Y-98365000D01*
X181906999Y-100515000D01*
G36*
X181906999Y-100515000D02*
G01*
X181456999Y-100515000D01*
X181456999Y-98365000D01*
X181906999Y-98365000D01*
X181906999Y-100515000D01*
G37*
X181906999Y-106265000D02*
X181456999Y-106265000D01*
X181456999Y-104115000D01*
X181906999Y-104115000D01*
X181906999Y-106265000D01*
G36*
X181906999Y-106265000D02*
G01*
X181456999Y-106265000D01*
X181456999Y-104115000D01*
X181906999Y-104115000D01*
X181906999Y-106265000D01*
G37*
X185136999Y-103515001D02*
X182036999Y-103515001D01*
X182036999Y-101114999D01*
X185136999Y-101114999D01*
X185136999Y-103515001D01*
G36*
X185136999Y-103515001D02*
G01*
X182036999Y-103515001D01*
X182036999Y-101114999D01*
X185136999Y-101114999D01*
X185136999Y-103515001D01*
G37*
X183176999Y-100515000D02*
X182726999Y-100515000D01*
X182726999Y-98365000D01*
X183176999Y-98365000D01*
X183176999Y-100515000D01*
G36*
X183176999Y-100515000D02*
G01*
X182726999Y-100515000D01*
X182726999Y-98365000D01*
X183176999Y-98365000D01*
X183176999Y-100515000D01*
G37*
X183176999Y-106265000D02*
X182726999Y-106265000D01*
X182726999Y-104115000D01*
X183176999Y-104115000D01*
X183176999Y-106265000D01*
G36*
X183176999Y-106265000D02*
G01*
X182726999Y-106265000D01*
X182726999Y-104115000D01*
X183176999Y-104115000D01*
X183176999Y-106265000D01*
G37*
X184446999Y-100515000D02*
X183996999Y-100515000D01*
X183996999Y-98365000D01*
X184446999Y-98365000D01*
X184446999Y-100515000D01*
G36*
X184446999Y-100515000D02*
G01*
X183996999Y-100515000D01*
X183996999Y-98365000D01*
X184446999Y-98365000D01*
X184446999Y-100515000D01*
G37*
X184446999Y-106265000D02*
X183996999Y-106265000D01*
X183996999Y-104115000D01*
X184446999Y-104115000D01*
X184446999Y-106265000D01*
G36*
X184446999Y-106265000D02*
G01*
X183996999Y-106265000D01*
X183996999Y-104115000D01*
X184446999Y-104115000D01*
X184446999Y-106265000D01*
G37*
X185716999Y-100515000D02*
X185266999Y-100515000D01*
X185266999Y-98365000D01*
X185716999Y-98365000D01*
X185716999Y-100515000D01*
G36*
X185716999Y-100515000D02*
G01*
X185266999Y-100515000D01*
X185266999Y-98365000D01*
X185716999Y-98365000D01*
X185716999Y-100515000D01*
G37*
X185716999Y-106265000D02*
X185266999Y-106265000D01*
X185266999Y-104115000D01*
X185716999Y-104115000D01*
X185716999Y-106265000D01*
G36*
X185716999Y-106265000D02*
G01*
X185266999Y-106265000D01*
X185266999Y-104115000D01*
X185716999Y-104115000D01*
X185716999Y-106265000D01*
G37*
D11*
%TO.C,U19*%
X163676599Y-119505800D02*
X161187399Y-119505800D01*
X161187399Y-117753200D01*
X163676599Y-117753200D01*
X163676599Y-119505800D01*
G36*
X163676599Y-119505800D02*
G01*
X161187399Y-119505800D01*
X161187399Y-117753200D01*
X163676599Y-117753200D01*
X163676599Y-119505800D01*
G37*
D10*
%TO.C,U10*%
X152502000Y-100839999D02*
X152052000Y-100839999D01*
X152052000Y-98689999D01*
X152502000Y-98689999D01*
X152502000Y-100839999D01*
G36*
X152502000Y-100839999D02*
G01*
X152052000Y-100839999D01*
X152052000Y-98689999D01*
X152502000Y-98689999D01*
X152502000Y-100839999D01*
G37*
X152502000Y-106589999D02*
X152052000Y-106589999D01*
X152052000Y-104439999D01*
X152502000Y-104439999D01*
X152502000Y-106589999D01*
G36*
X152502000Y-106589999D02*
G01*
X152052000Y-106589999D01*
X152052000Y-104439999D01*
X152502000Y-104439999D01*
X152502000Y-106589999D01*
G37*
X155732000Y-103840000D02*
X152632000Y-103840000D01*
X152632000Y-101439998D01*
X155732000Y-101439998D01*
X155732000Y-103840000D01*
G36*
X155732000Y-103840000D02*
G01*
X152632000Y-103840000D01*
X152632000Y-101439998D01*
X155732000Y-101439998D01*
X155732000Y-103840000D01*
G37*
X153772000Y-100839999D02*
X153322000Y-100839999D01*
X153322000Y-98689999D01*
X153772000Y-98689999D01*
X153772000Y-100839999D01*
G36*
X153772000Y-100839999D02*
G01*
X153322000Y-100839999D01*
X153322000Y-98689999D01*
X153772000Y-98689999D01*
X153772000Y-100839999D01*
G37*
X153772000Y-106589999D02*
X153322000Y-106589999D01*
X153322000Y-104439999D01*
X153772000Y-104439999D01*
X153772000Y-106589999D01*
G36*
X153772000Y-106589999D02*
G01*
X153322000Y-106589999D01*
X153322000Y-104439999D01*
X153772000Y-104439999D01*
X153772000Y-106589999D01*
G37*
X155042000Y-100839999D02*
X154592000Y-100839999D01*
X154592000Y-98689999D01*
X155042000Y-98689999D01*
X155042000Y-100839999D01*
G36*
X155042000Y-100839999D02*
G01*
X154592000Y-100839999D01*
X154592000Y-98689999D01*
X155042000Y-98689999D01*
X155042000Y-100839999D01*
G37*
X155042000Y-106589999D02*
X154592000Y-106589999D01*
X154592000Y-104439999D01*
X155042000Y-104439999D01*
X155042000Y-106589999D01*
G36*
X155042000Y-106589999D02*
G01*
X154592000Y-106589999D01*
X154592000Y-104439999D01*
X155042000Y-104439999D01*
X155042000Y-106589999D01*
G37*
X156312000Y-100839999D02*
X155862000Y-100839999D01*
X155862000Y-98689999D01*
X156312000Y-98689999D01*
X156312000Y-100839999D01*
G36*
X156312000Y-100839999D02*
G01*
X155862000Y-100839999D01*
X155862000Y-98689999D01*
X156312000Y-98689999D01*
X156312000Y-100839999D01*
G37*
X156312000Y-106589999D02*
X155862000Y-106589999D01*
X155862000Y-104439999D01*
X156312000Y-104439999D01*
X156312000Y-106589999D01*
G36*
X156312000Y-106589999D02*
G01*
X155862000Y-106589999D01*
X155862000Y-104439999D01*
X156312000Y-104439999D01*
X156312000Y-106589999D01*
G37*
%TO.C,U9*%
X131102000Y-100940000D02*
X130652000Y-100940000D01*
X130652000Y-98790000D01*
X131102000Y-98790000D01*
X131102000Y-100940000D01*
G36*
X131102000Y-100940000D02*
G01*
X130652000Y-100940000D01*
X130652000Y-98790000D01*
X131102000Y-98790000D01*
X131102000Y-100940000D01*
G37*
X131102000Y-106690000D02*
X130652000Y-106690000D01*
X130652000Y-104540000D01*
X131102000Y-104540000D01*
X131102000Y-106690000D01*
G36*
X131102000Y-106690000D02*
G01*
X130652000Y-106690000D01*
X130652000Y-104540000D01*
X131102000Y-104540000D01*
X131102000Y-106690000D01*
G37*
X134332000Y-103940001D02*
X131232000Y-103940001D01*
X131232000Y-101539999D01*
X134332000Y-101539999D01*
X134332000Y-103940001D01*
G36*
X134332000Y-103940001D02*
G01*
X131232000Y-103940001D01*
X131232000Y-101539999D01*
X134332000Y-101539999D01*
X134332000Y-103940001D01*
G37*
X132372000Y-100940000D02*
X131922000Y-100940000D01*
X131922000Y-98790000D01*
X132372000Y-98790000D01*
X132372000Y-100940000D01*
G36*
X132372000Y-100940000D02*
G01*
X131922000Y-100940000D01*
X131922000Y-98790000D01*
X132372000Y-98790000D01*
X132372000Y-100940000D01*
G37*
X132372000Y-106690000D02*
X131922000Y-106690000D01*
X131922000Y-104540000D01*
X132372000Y-104540000D01*
X132372000Y-106690000D01*
G36*
X132372000Y-106690000D02*
G01*
X131922000Y-106690000D01*
X131922000Y-104540000D01*
X132372000Y-104540000D01*
X132372000Y-106690000D01*
G37*
X133642000Y-100940000D02*
X133192000Y-100940000D01*
X133192000Y-98790000D01*
X133642000Y-98790000D01*
X133642000Y-100940000D01*
G36*
X133642000Y-100940000D02*
G01*
X133192000Y-100940000D01*
X133192000Y-98790000D01*
X133642000Y-98790000D01*
X133642000Y-100940000D01*
G37*
X133642000Y-106690000D02*
X133192000Y-106690000D01*
X133192000Y-104540000D01*
X133642000Y-104540000D01*
X133642000Y-106690000D01*
G36*
X133642000Y-106690000D02*
G01*
X133192000Y-106690000D01*
X133192000Y-104540000D01*
X133642000Y-104540000D01*
X133642000Y-106690000D01*
G37*
X134912000Y-100940000D02*
X134462000Y-100940000D01*
X134462000Y-98790000D01*
X134912000Y-98790000D01*
X134912000Y-100940000D01*
G36*
X134912000Y-100940000D02*
G01*
X134462000Y-100940000D01*
X134462000Y-98790000D01*
X134912000Y-98790000D01*
X134912000Y-100940000D01*
G37*
X134912000Y-106690000D02*
X134462000Y-106690000D01*
X134462000Y-104540000D01*
X134912000Y-104540000D01*
X134912000Y-106690000D01*
G36*
X134912000Y-106690000D02*
G01*
X134462000Y-106690000D01*
X134462000Y-104540000D01*
X134912000Y-104540000D01*
X134912000Y-106690000D01*
G37*
%TO.C,U13*%
X172602000Y-100740000D02*
X172152000Y-100740000D01*
X172152000Y-98590000D01*
X172602000Y-98590000D01*
X172602000Y-100740000D01*
G36*
X172602000Y-100740000D02*
G01*
X172152000Y-100740000D01*
X172152000Y-98590000D01*
X172602000Y-98590000D01*
X172602000Y-100740000D01*
G37*
X172602000Y-106490000D02*
X172152000Y-106490000D01*
X172152000Y-104340000D01*
X172602000Y-104340000D01*
X172602000Y-106490000D01*
G36*
X172602000Y-106490000D02*
G01*
X172152000Y-106490000D01*
X172152000Y-104340000D01*
X172602000Y-104340000D01*
X172602000Y-106490000D01*
G37*
X175832000Y-103740001D02*
X172732000Y-103740001D01*
X172732000Y-101339999D01*
X175832000Y-101339999D01*
X175832000Y-103740001D01*
G36*
X175832000Y-103740001D02*
G01*
X172732000Y-103740001D01*
X172732000Y-101339999D01*
X175832000Y-101339999D01*
X175832000Y-103740001D01*
G37*
X173872000Y-100740000D02*
X173422000Y-100740000D01*
X173422000Y-98590000D01*
X173872000Y-98590000D01*
X173872000Y-100740000D01*
G36*
X173872000Y-100740000D02*
G01*
X173422000Y-100740000D01*
X173422000Y-98590000D01*
X173872000Y-98590000D01*
X173872000Y-100740000D01*
G37*
X173872000Y-106490000D02*
X173422000Y-106490000D01*
X173422000Y-104340000D01*
X173872000Y-104340000D01*
X173872000Y-106490000D01*
G36*
X173872000Y-106490000D02*
G01*
X173422000Y-106490000D01*
X173422000Y-104340000D01*
X173872000Y-104340000D01*
X173872000Y-106490000D01*
G37*
X175142000Y-100740000D02*
X174692000Y-100740000D01*
X174692000Y-98590000D01*
X175142000Y-98590000D01*
X175142000Y-100740000D01*
G36*
X175142000Y-100740000D02*
G01*
X174692000Y-100740000D01*
X174692000Y-98590000D01*
X175142000Y-98590000D01*
X175142000Y-100740000D01*
G37*
X175142000Y-106490000D02*
X174692000Y-106490000D01*
X174692000Y-104340000D01*
X175142000Y-104340000D01*
X175142000Y-106490000D01*
G36*
X175142000Y-106490000D02*
G01*
X174692000Y-106490000D01*
X174692000Y-104340000D01*
X175142000Y-104340000D01*
X175142000Y-106490000D01*
G37*
X176412000Y-100740000D02*
X175962000Y-100740000D01*
X175962000Y-98590000D01*
X176412000Y-98590000D01*
X176412000Y-100740000D01*
G36*
X176412000Y-100740000D02*
G01*
X175962000Y-100740000D01*
X175962000Y-98590000D01*
X176412000Y-98590000D01*
X176412000Y-100740000D01*
G37*
X176412000Y-106490000D02*
X175962000Y-106490000D01*
X175962000Y-104340000D01*
X176412000Y-104340000D01*
X176412000Y-106490000D01*
G36*
X176412000Y-106490000D02*
G01*
X175962000Y-106490000D01*
X175962000Y-104340000D01*
X176412000Y-104340000D01*
X176412000Y-106490000D01*
G37*
%TO.C,U16*%
X193102000Y-93540000D02*
X192652000Y-93540000D01*
X192652000Y-91390000D01*
X193102000Y-91390000D01*
X193102000Y-93540000D01*
G36*
X193102000Y-93540000D02*
G01*
X192652000Y-93540000D01*
X192652000Y-91390000D01*
X193102000Y-91390000D01*
X193102000Y-93540000D01*
G37*
X193102000Y-99290000D02*
X192652000Y-99290000D01*
X192652000Y-97140000D01*
X193102000Y-97140000D01*
X193102000Y-99290000D01*
G36*
X193102000Y-99290000D02*
G01*
X192652000Y-99290000D01*
X192652000Y-97140000D01*
X193102000Y-97140000D01*
X193102000Y-99290000D01*
G37*
X196332000Y-96540001D02*
X193232000Y-96540001D01*
X193232000Y-94139999D01*
X196332000Y-94139999D01*
X196332000Y-96540001D01*
G36*
X196332000Y-96540001D02*
G01*
X193232000Y-96540001D01*
X193232000Y-94139999D01*
X196332000Y-94139999D01*
X196332000Y-96540001D01*
G37*
X194372000Y-93540000D02*
X193922000Y-93540000D01*
X193922000Y-91390000D01*
X194372000Y-91390000D01*
X194372000Y-93540000D01*
G36*
X194372000Y-93540000D02*
G01*
X193922000Y-93540000D01*
X193922000Y-91390000D01*
X194372000Y-91390000D01*
X194372000Y-93540000D01*
G37*
X194372000Y-99290000D02*
X193922000Y-99290000D01*
X193922000Y-97140000D01*
X194372000Y-97140000D01*
X194372000Y-99290000D01*
G36*
X194372000Y-99290000D02*
G01*
X193922000Y-99290000D01*
X193922000Y-97140000D01*
X194372000Y-97140000D01*
X194372000Y-99290000D01*
G37*
X195642000Y-93540000D02*
X195192000Y-93540000D01*
X195192000Y-91390000D01*
X195642000Y-91390000D01*
X195642000Y-93540000D01*
G36*
X195642000Y-93540000D02*
G01*
X195192000Y-93540000D01*
X195192000Y-91390000D01*
X195642000Y-91390000D01*
X195642000Y-93540000D01*
G37*
X195642000Y-99290000D02*
X195192000Y-99290000D01*
X195192000Y-97140000D01*
X195642000Y-97140000D01*
X195642000Y-99290000D01*
G36*
X195642000Y-99290000D02*
G01*
X195192000Y-99290000D01*
X195192000Y-97140000D01*
X195642000Y-97140000D01*
X195642000Y-99290000D01*
G37*
X196912000Y-93540000D02*
X196462000Y-93540000D01*
X196462000Y-91390000D01*
X196912000Y-91390000D01*
X196912000Y-93540000D01*
G36*
X196912000Y-93540000D02*
G01*
X196462000Y-93540000D01*
X196462000Y-91390000D01*
X196912000Y-91390000D01*
X196912000Y-93540000D01*
G37*
X196912000Y-99290000D02*
X196462000Y-99290000D01*
X196462000Y-97140000D01*
X196912000Y-97140000D01*
X196912000Y-99290000D01*
G36*
X196912000Y-99290000D02*
G01*
X196462000Y-99290000D01*
X196462000Y-97140000D01*
X196912000Y-97140000D01*
X196912000Y-99290000D01*
G37*
%TO.C,U15*%
X134253924Y-119893898D02*
X132770000Y-119893897D01*
X132770000Y-119012000D01*
X134253924Y-119012000D01*
X134253924Y-119893898D01*
G36*
X134253924Y-119893898D02*
G01*
X132770000Y-119893897D01*
X132770000Y-119012000D01*
X134253924Y-119012000D01*
X134253924Y-119893898D01*
G37*
%TO.C,U18*%
X191802000Y-113439999D02*
X191352000Y-113439999D01*
X191352000Y-111289999D01*
X191802000Y-111289999D01*
X191802000Y-113439999D01*
G36*
X191802000Y-113439999D02*
G01*
X191352000Y-113439999D01*
X191352000Y-111289999D01*
X191802000Y-111289999D01*
X191802000Y-113439999D01*
G37*
X191802000Y-119189999D02*
X191352000Y-119189999D01*
X191352000Y-117039999D01*
X191802000Y-117039999D01*
X191802000Y-119189999D01*
G36*
X191802000Y-119189999D02*
G01*
X191352000Y-119189999D01*
X191352000Y-117039999D01*
X191802000Y-117039999D01*
X191802000Y-119189999D01*
G37*
X195032000Y-116440000D02*
X191932000Y-116440000D01*
X191932000Y-114039998D01*
X195032000Y-114039998D01*
X195032000Y-116440000D01*
G36*
X195032000Y-116440000D02*
G01*
X191932000Y-116440000D01*
X191932000Y-114039998D01*
X195032000Y-114039998D01*
X195032000Y-116440000D01*
G37*
X193072000Y-113439999D02*
X192622000Y-113439999D01*
X192622000Y-111289999D01*
X193072000Y-111289999D01*
X193072000Y-113439999D01*
G36*
X193072000Y-113439999D02*
G01*
X192622000Y-113439999D01*
X192622000Y-111289999D01*
X193072000Y-111289999D01*
X193072000Y-113439999D01*
G37*
X193072000Y-119189999D02*
X192622000Y-119189999D01*
X192622000Y-117039999D01*
X193072000Y-117039999D01*
X193072000Y-119189999D01*
G36*
X193072000Y-119189999D02*
G01*
X192622000Y-119189999D01*
X192622000Y-117039999D01*
X193072000Y-117039999D01*
X193072000Y-119189999D01*
G37*
X194342000Y-113439999D02*
X193892000Y-113439999D01*
X193892000Y-111289999D01*
X194342000Y-111289999D01*
X194342000Y-113439999D01*
G36*
X194342000Y-113439999D02*
G01*
X193892000Y-113439999D01*
X193892000Y-111289999D01*
X194342000Y-111289999D01*
X194342000Y-113439999D01*
G37*
X194342000Y-119189999D02*
X193892000Y-119189999D01*
X193892000Y-117039999D01*
X194342000Y-117039999D01*
X194342000Y-119189999D01*
G36*
X194342000Y-119189999D02*
G01*
X193892000Y-119189999D01*
X193892000Y-117039999D01*
X194342000Y-117039999D01*
X194342000Y-119189999D01*
G37*
X195612000Y-113439999D02*
X195162000Y-113439999D01*
X195162000Y-111289999D01*
X195612000Y-111289999D01*
X195612000Y-113439999D01*
G36*
X195612000Y-113439999D02*
G01*
X195162000Y-113439999D01*
X195162000Y-111289999D01*
X195612000Y-111289999D01*
X195612000Y-113439999D01*
G37*
X195612000Y-119189999D02*
X195162000Y-119189999D01*
X195162000Y-117039999D01*
X195612000Y-117039999D01*
X195612000Y-119189999D01*
G36*
X195612000Y-119189999D02*
G01*
X195162000Y-119189999D01*
X195162000Y-117039999D01*
X195612000Y-117039999D01*
X195612000Y-119189999D01*
G37*
%TO.C,U12*%
X162902000Y-100840000D02*
X162452000Y-100840000D01*
X162452000Y-98690000D01*
X162902000Y-98690000D01*
X162902000Y-100840000D01*
G36*
X162902000Y-100840000D02*
G01*
X162452000Y-100840000D01*
X162452000Y-98690000D01*
X162902000Y-98690000D01*
X162902000Y-100840000D01*
G37*
X162902000Y-106590000D02*
X162452000Y-106590000D01*
X162452000Y-104440000D01*
X162902000Y-104440000D01*
X162902000Y-106590000D01*
G36*
X162902000Y-106590000D02*
G01*
X162452000Y-106590000D01*
X162452000Y-104440000D01*
X162902000Y-104440000D01*
X162902000Y-106590000D01*
G37*
X166132000Y-103840000D02*
X163032000Y-103840000D01*
X163032000Y-101440000D01*
X166132000Y-101440000D01*
X166132000Y-103840000D01*
G36*
X166132000Y-103840000D02*
G01*
X163032000Y-103840000D01*
X163032000Y-101440000D01*
X166132000Y-101440000D01*
X166132000Y-103840000D01*
G37*
X164172000Y-100840000D02*
X163722000Y-100840000D01*
X163722000Y-98690000D01*
X164172000Y-98690000D01*
X164172000Y-100840000D01*
G36*
X164172000Y-100840000D02*
G01*
X163722000Y-100840000D01*
X163722000Y-98690000D01*
X164172000Y-98690000D01*
X164172000Y-100840000D01*
G37*
X164172000Y-106590000D02*
X163722000Y-106590000D01*
X163722000Y-104440000D01*
X164172000Y-104440000D01*
X164172000Y-106590000D01*
G36*
X164172000Y-106590000D02*
G01*
X163722000Y-106590000D01*
X163722000Y-104440000D01*
X164172000Y-104440000D01*
X164172000Y-106590000D01*
G37*
X165442000Y-100840000D02*
X164992000Y-100840000D01*
X164992000Y-98690000D01*
X165442000Y-98690000D01*
X165442000Y-100840000D01*
G36*
X165442000Y-100840000D02*
G01*
X164992000Y-100840000D01*
X164992000Y-98690000D01*
X165442000Y-98690000D01*
X165442000Y-100840000D01*
G37*
X165442000Y-106590000D02*
X164992000Y-106590000D01*
X164992000Y-104440000D01*
X165442000Y-104440000D01*
X165442000Y-106590000D01*
G36*
X165442000Y-106590000D02*
G01*
X164992000Y-106590000D01*
X164992000Y-104440000D01*
X165442000Y-104440000D01*
X165442000Y-106590000D01*
G37*
X166712000Y-100840000D02*
X166262000Y-100840000D01*
X166262000Y-98690000D01*
X166712000Y-98690000D01*
X166712000Y-100840000D01*
G36*
X166712000Y-100840000D02*
G01*
X166262000Y-100840000D01*
X166262000Y-98690000D01*
X166712000Y-98690000D01*
X166712000Y-100840000D01*
G37*
X166712000Y-106590000D02*
X166262000Y-106590000D01*
X166262000Y-104440000D01*
X166712000Y-104440000D01*
X166712000Y-106590000D01*
G36*
X166712000Y-106590000D02*
G01*
X166262000Y-106590000D01*
X166262000Y-104440000D01*
X166712000Y-104440000D01*
X166712000Y-106590000D01*
G37*
%TO.C,U7*%
X120802000Y-100640000D02*
X120352000Y-100640000D01*
X120352000Y-98490000D01*
X120802000Y-98490000D01*
X120802000Y-100640000D01*
G36*
X120802000Y-100640000D02*
G01*
X120352000Y-100640000D01*
X120352000Y-98490000D01*
X120802000Y-98490000D01*
X120802000Y-100640000D01*
G37*
X120802000Y-106390000D02*
X120352000Y-106390000D01*
X120352000Y-104240000D01*
X120802000Y-104240000D01*
X120802000Y-106390000D01*
G36*
X120802000Y-106390000D02*
G01*
X120352000Y-106390000D01*
X120352000Y-104240000D01*
X120802000Y-104240000D01*
X120802000Y-106390000D01*
G37*
X124032000Y-103640001D02*
X120932000Y-103640001D01*
X120932000Y-101239999D01*
X124032000Y-101239999D01*
X124032000Y-103640001D01*
G36*
X124032000Y-103640001D02*
G01*
X120932000Y-103640001D01*
X120932000Y-101239999D01*
X124032000Y-101239999D01*
X124032000Y-103640001D01*
G37*
X122072000Y-100640000D02*
X121622000Y-100640000D01*
X121622000Y-98490000D01*
X122072000Y-98490000D01*
X122072000Y-100640000D01*
G36*
X122072000Y-100640000D02*
G01*
X121622000Y-100640000D01*
X121622000Y-98490000D01*
X122072000Y-98490000D01*
X122072000Y-100640000D01*
G37*
X122072000Y-106390000D02*
X121622000Y-106390000D01*
X121622000Y-104240000D01*
X122072000Y-104240000D01*
X122072000Y-106390000D01*
G36*
X122072000Y-106390000D02*
G01*
X121622000Y-106390000D01*
X121622000Y-104240000D01*
X122072000Y-104240000D01*
X122072000Y-106390000D01*
G37*
X123342000Y-100640000D02*
X122892000Y-100640000D01*
X122892000Y-98490000D01*
X123342000Y-98490000D01*
X123342000Y-100640000D01*
G36*
X123342000Y-100640000D02*
G01*
X122892000Y-100640000D01*
X122892000Y-98490000D01*
X123342000Y-98490000D01*
X123342000Y-100640000D01*
G37*
X123342000Y-106390000D02*
X122892000Y-106390000D01*
X122892000Y-104240000D01*
X123342000Y-104240000D01*
X123342000Y-106390000D01*
G36*
X123342000Y-106390000D02*
G01*
X122892000Y-106390000D01*
X122892000Y-104240000D01*
X123342000Y-104240000D01*
X123342000Y-106390000D01*
G37*
X124612000Y-100640000D02*
X124162000Y-100640000D01*
X124162000Y-98490000D01*
X124612000Y-98490000D01*
X124612000Y-100640000D01*
G36*
X124612000Y-100640000D02*
G01*
X124162000Y-100640000D01*
X124162000Y-98490000D01*
X124612000Y-98490000D01*
X124612000Y-100640000D01*
G37*
X124612000Y-106390000D02*
X124162000Y-106390000D01*
X124162000Y-104240000D01*
X124612000Y-104240000D01*
X124612000Y-106390000D01*
G36*
X124612000Y-106390000D02*
G01*
X124162000Y-106390000D01*
X124162000Y-104240000D01*
X124612000Y-104240000D01*
X124612000Y-106390000D01*
G37*
%TO.C,U6*%
X141502000Y-101040000D02*
X141052000Y-101040000D01*
X141052000Y-98890000D01*
X141502000Y-98890000D01*
X141502000Y-101040000D01*
G36*
X141502000Y-101040000D02*
G01*
X141052000Y-101040000D01*
X141052000Y-98890000D01*
X141502000Y-98890000D01*
X141502000Y-101040000D01*
G37*
X141502000Y-106790000D02*
X141052000Y-106790000D01*
X141052000Y-104640000D01*
X141502000Y-104640000D01*
X141502000Y-106790000D01*
G36*
X141502000Y-106790000D02*
G01*
X141052000Y-106790000D01*
X141052000Y-104640000D01*
X141502000Y-104640000D01*
X141502000Y-106790000D01*
G37*
X144732000Y-104040001D02*
X141632000Y-104040001D01*
X141632000Y-101639999D01*
X144732000Y-101639999D01*
X144732000Y-104040001D01*
G36*
X144732000Y-104040001D02*
G01*
X141632000Y-104040001D01*
X141632000Y-101639999D01*
X144732000Y-101639999D01*
X144732000Y-104040001D01*
G37*
X142772000Y-101040000D02*
X142322000Y-101040000D01*
X142322000Y-98890000D01*
X142772000Y-98890000D01*
X142772000Y-101040000D01*
G36*
X142772000Y-101040000D02*
G01*
X142322000Y-101040000D01*
X142322000Y-98890000D01*
X142772000Y-98890000D01*
X142772000Y-101040000D01*
G37*
X142772000Y-106790000D02*
X142322000Y-106790000D01*
X142322000Y-104640000D01*
X142772000Y-104640000D01*
X142772000Y-106790000D01*
G36*
X142772000Y-106790000D02*
G01*
X142322000Y-106790000D01*
X142322000Y-104640000D01*
X142772000Y-104640000D01*
X142772000Y-106790000D01*
G37*
X144042000Y-101040000D02*
X143592000Y-101040000D01*
X143592000Y-98890000D01*
X144042000Y-98890000D01*
X144042000Y-101040000D01*
G36*
X144042000Y-101040000D02*
G01*
X143592000Y-101040000D01*
X143592000Y-98890000D01*
X144042000Y-98890000D01*
X144042000Y-101040000D01*
G37*
X144042000Y-106790000D02*
X143592000Y-106790000D01*
X143592000Y-104640000D01*
X144042000Y-104640000D01*
X144042000Y-106790000D01*
G36*
X144042000Y-106790000D02*
G01*
X143592000Y-106790000D01*
X143592000Y-104640000D01*
X144042000Y-104640000D01*
X144042000Y-106790000D01*
G37*
X145312000Y-101040000D02*
X144862000Y-101040000D01*
X144862000Y-98890000D01*
X145312000Y-98890000D01*
X145312000Y-101040000D01*
G36*
X145312000Y-101040000D02*
G01*
X144862000Y-101040000D01*
X144862000Y-98890000D01*
X145312000Y-98890000D01*
X145312000Y-101040000D01*
G37*
X145312000Y-106790000D02*
X144862000Y-106790000D01*
X144862000Y-104640000D01*
X145312000Y-104640000D01*
X145312000Y-106790000D01*
G36*
X145312000Y-106790000D02*
G01*
X144862000Y-106790000D01*
X144862000Y-104640000D01*
X145312000Y-104640000D01*
X145312000Y-106790000D01*
G37*
%TD*%
D12*
%TO.C,R32*%
X151807000Y-96690000D03*
X153457000Y-96690000D03*
%TD*%
D13*
%TO.C,R15*%
X126257000Y-104390000D03*
X126257000Y-106040000D03*
%TD*%
D14*
%TO.C,R41*%
X137982000Y-97015000D03*
X136332000Y-97015000D03*
%TD*%
D15*
%TO.C,C20*%
X168482000Y-69290000D03*
X169578016Y-68193984D03*
%TD*%
D16*
%TO.C,C48*%
X165957000Y-121990000D03*
X163007000Y-121990000D03*
%TD*%
D12*
%TO.C,R19*%
X154832000Y-97090000D03*
X156482000Y-97090000D03*
%TD*%
D17*
%TO.C,C39*%
X182178016Y-77090000D03*
X181082000Y-78186016D03*
%TD*%
D18*
%TO.C,C22*%
X180957000Y-131040000D03*
X179407000Y-131040000D03*
%TD*%
D19*
%TO.C,C32*%
X196082000Y-122114998D03*
X196082000Y-125065000D03*
%TD*%
D16*
%TO.C,C47*%
X161557001Y-111990000D03*
X158606999Y-111990000D03*
%TD*%
D20*
%TO.C,C27*%
X184082000Y-130190000D03*
X185632000Y-130190000D03*
%TD*%
D15*
%TO.C,C30*%
X170533992Y-69838008D03*
X171630008Y-68741992D03*
%TD*%
D21*
%TO.C,U19*%
X161681998Y-120090000D03*
X162181999Y-120090000D03*
X162681999Y-120090000D03*
X163182000Y-120090000D03*
X163182000Y-117169000D03*
X162681999Y-117169000D03*
X162181999Y-117169000D03*
X161681998Y-117169000D03*
%TD*%
D22*
%TO.C,U11*%
X186752000Y-125664999D03*
X186752000Y-125015000D03*
X186752000Y-124365001D03*
X186752000Y-123715000D03*
X186752000Y-123065000D03*
X186752000Y-122414999D03*
X186752000Y-121765000D03*
X186752000Y-121115001D03*
X181012000Y-121115001D03*
X181012000Y-121765000D03*
X181012000Y-122414999D03*
X181012000Y-123065000D03*
X181012000Y-123715000D03*
X181012000Y-124365001D03*
X181012000Y-125015000D03*
X181012000Y-125664999D03*
%TD*%
D20*
%TO.C,C42*%
X196782000Y-90190000D03*
X198332000Y-90190000D03*
%TD*%
D14*
%TO.C,R28*%
X190532000Y-124140000D03*
X188882000Y-124140000D03*
%TD*%
D13*
%TO.C,R27*%
X178982000Y-127865000D03*
X178982000Y-129515000D03*
%TD*%
D12*
%TO.C,R26*%
X130657000Y-96339999D03*
X132307000Y-96339999D03*
%TD*%
D23*
%TO.C,R14*%
X141982000Y-91640000D03*
X143148726Y-90473274D03*
%TD*%
D13*
%TO.C,R34*%
X170082000Y-101665000D03*
X170082000Y-103315000D03*
%TD*%
D17*
%TO.C,C35*%
X176778016Y-80293984D03*
X175682000Y-81390000D03*
%TD*%
D24*
%TO.C,U14*%
X176848053Y-77318943D03*
X177297066Y-76869931D03*
X177764039Y-76402957D03*
X178213052Y-75953944D03*
X178680026Y-75486971D03*
X179146999Y-75019998D03*
X179596012Y-74570985D03*
X180062985Y-74104012D03*
X180511998Y-73654999D03*
X180978971Y-73188026D03*
X181445944Y-72721052D03*
X181894957Y-72272039D03*
X182361931Y-71805066D03*
X182810943Y-71356053D03*
X178715947Y-67261057D03*
X178266934Y-67710069D03*
X177799961Y-68177043D03*
X177350948Y-68626056D03*
X176883974Y-69093029D03*
X176417001Y-69560002D03*
X175967988Y-70009015D03*
X175501015Y-70475988D03*
X175052002Y-70925001D03*
X174585029Y-71391974D03*
X174118056Y-71858948D03*
X173669043Y-72307961D03*
X173202069Y-72774934D03*
X172753057Y-73223947D03*
%TD*%
D25*
%TO.C,D6*%
X183282000Y-117840000D03*
X180482002Y-117840000D03*
%TD*%
D13*
%TO.C,R16*%
X136782000Y-104465000D03*
X136782000Y-106115000D03*
%TD*%
D26*
%TO.C,C45*%
X197207000Y-112540000D03*
X197207000Y-114090000D03*
%TD*%
D12*
%TO.C,R43*%
X191257000Y-108890000D03*
X192907000Y-108890000D03*
%TD*%
D27*
%TO.C,L3*%
X154939500Y-115732500D03*
X154939500Y-120732500D03*
%TD*%
D28*
%TO.C,Y2*%
X165998117Y-69073883D03*
X167765883Y-67306117D03*
%TD*%
D27*
%TO.C,L2*%
X125759250Y-116217500D03*
X125759250Y-121217500D03*
%TD*%
D26*
%TO.C,C21*%
X136482000Y-99940000D03*
X136482000Y-101490000D03*
%TD*%
D29*
%TO.C,120R2*%
X177636765Y-81744765D03*
X178927235Y-83035235D03*
%TD*%
D17*
%TO.C,C38*%
X181082000Y-75990000D03*
X179985984Y-77086016D03*
%TD*%
D30*
%TO.C,R42*%
X146698637Y-110206637D03*
X147865363Y-111373363D03*
%TD*%
D19*
%TO.C,C31*%
X193532000Y-122139998D03*
X193532000Y-125090000D03*
%TD*%
D12*
%TO.C,R24*%
X184657000Y-95465000D03*
X186307000Y-95465000D03*
%TD*%
D13*
%TO.C,R29*%
X187207000Y-128590000D03*
X187207000Y-130240000D03*
%TD*%
D12*
%TO.C,R35*%
X161557000Y-96790000D03*
X163207000Y-96790000D03*
%TD*%
D31*
%TO.C,C37*%
X177582000Y-84190000D03*
X176485984Y-83093984D03*
%TD*%
D13*
%TO.C,R38*%
X179482000Y-101865000D03*
X179482000Y-103515000D03*
%TD*%
D32*
%TO.C,U15*%
X131882000Y-121610000D03*
X132532000Y-121610000D03*
X133182000Y-121610000D03*
X133832000Y-121610000D03*
X134482000Y-121610000D03*
X135132000Y-121610000D03*
X135132000Y-117290000D03*
X134482000Y-117290000D03*
X133832000Y-117290000D03*
X133182000Y-117290000D03*
X132532000Y-117290000D03*
X131882000Y-117290000D03*
%TD*%
D33*
%TO.C,L1*%
X174622000Y-122890000D03*
X174602000Y-126360000D03*
%TD*%
D26*
%TO.C,C17*%
X146782000Y-100115000D03*
X146782000Y-101665000D03*
%TD*%
D20*
%TO.C,C25*%
X185232000Y-127065000D03*
X186782000Y-127065000D03*
%TD*%
%TO.C,C33*%
X166457000Y-96365000D03*
X168007000Y-96365000D03*
%TD*%
D26*
%TO.C,C26*%
X157732000Y-99815000D03*
X157732000Y-101365000D03*
%TD*%
%TO.C,C46*%
X162682000Y-114215000D03*
X162682000Y-115765000D03*
%TD*%
%TO.C,C18*%
X126082000Y-99715000D03*
X126082000Y-101265000D03*
%TD*%
D34*
%TO.C,U8*%
X194182000Y-78190000D03*
X192150837Y-77078074D03*
X193070074Y-76158837D03*
%TD*%
D35*
%TO.C,C23*%
X179032000Y-126290000D03*
X179032000Y-124740000D03*
%TD*%
D36*
%TO.C,R21*%
X193365363Y-73606637D03*
X192198637Y-74773363D03*
%TD*%
D12*
%TO.C,R36*%
X171957000Y-96590000D03*
X173607000Y-96590000D03*
%TD*%
%TO.C,R25*%
X197507000Y-109890000D03*
X199157000Y-109890000D03*
%TD*%
D13*
%TO.C,R37*%
X190582000Y-94665000D03*
X190582000Y-96315000D03*
%TD*%
D26*
%TO.C,C41*%
X133882000Y-113915000D03*
X133882000Y-115465000D03*
%TD*%
D17*
%TO.C,C36*%
X175728016Y-79241992D03*
X174632000Y-80338008D03*
%TD*%
D12*
%TO.C,R40*%
X181257000Y-96690000D03*
X182907000Y-96690000D03*
%TD*%
D13*
%TO.C,R31*%
X149982000Y-101365000D03*
X149982000Y-103015000D03*
%TD*%
D12*
%TO.C,R18*%
X120357001Y-96190000D03*
X122007001Y-96190000D03*
%TD*%
D17*
%TO.C,C19*%
X167482000Y-70290000D03*
X166385984Y-71386016D03*
%TD*%
D20*
%TO.C,C34*%
X176132000Y-96315000D03*
X177682000Y-96315000D03*
%TD*%
D37*
%TO.C,C40*%
X129132000Y-112590000D03*
X132082000Y-112590000D03*
%TD*%
D13*
%TO.C,R30*%
X188932000Y-125665000D03*
X188932000Y-127315000D03*
%TD*%
D12*
%TO.C,R20*%
X168282000Y-99140000D03*
X169932000Y-99140000D03*
%TD*%
%TO.C,R17*%
X141257000Y-96390000D03*
X142907000Y-96390000D03*
%TD*%
D20*
%TO.C,C43*%
X185507000Y-97065000D03*
X187057000Y-97065000D03*
%TD*%
D13*
%TO.C,R33*%
X159882000Y-102065000D03*
X159882000Y-103715000D03*
%TD*%
D23*
%TO.C,R39*%
X190198637Y-91073363D03*
X191365363Y-89906637D03*
%TD*%
D38*
%TO.C,D4*%
X174444500Y-48440000D03*
X176319500Y-48440000D03*
%TD*%
D14*
%TO.C,R22*%
X174982000Y-90215000D03*
X173332000Y-90215000D03*
%TD*%
D15*
%TO.C,C29*%
X171633992Y-70938008D03*
X172730008Y-69841992D03*
%TD*%
D16*
%TO.C,C44*%
X137157000Y-123990000D03*
X134207000Y-123990000D03*
%TD*%
M02*
